<?xml version="1.0" standalone="no"?>
<!DOCTYPE svg PUBLIC "-//W3C//DTD SVG 20010904//EN"
 "http://www.w3.org/TR/2001/REC-SVG-20010904/DTD/svg10.dtd">
<svg version="1.0" xmlns="http://www.w3.org/2000/svg"
 width="1080.000000pt" height="1080.000000pt" viewBox="0 0 1080.000000 1080.000000"
 preserveAspectRatio="xMidYMid meet">

<g transform="translate(0.000000,1080.000000) scale(0.100000,-0.100000)"
fill="#000000" stroke="none">
<path d="M4410 10781 c0 -13 -8 -21 -22 -23 -15 -2 -24 -11 -26 -25 -2 -15
-10 -23 -23 -23 -12 0 -19 -7 -19 -19 0 -13 -8 -21 -22 -23 -15 -2 -24 -11
-26 -25 -2 -15 -10 -23 -23 -23 -16 0 -19 -7 -19 -45 0 -37 -3 -45 -19 -45
-19 0 -31 -39 -31 -102 0 -21 -5 -28 -20 -28 -18 0 -20 -7 -20 -70 0 -63 -2
-70 -19 -70 -16 0 -21 -9 -27 -45 -5 -35 -10 -45 -25 -45 -12 0 -19 -7 -19
-19 0 -13 -8 -21 -22 -23 -15 -2 -24 -11 -26 -25 -3 -19 -10 -23 -43 -23 -32
0 -39 -4 -39 -19 0 -15 -10 -20 -45 -25 -36 -6 -45 -11 -45 -27 0 -16 -7 -19
-45 -19 -38 0 -45 -3 -45 -19 0 -15 -10 -20 -50 -26 -40 -6 -50 -11 -50 -26 0
-16 -7 -19 -40 -19 -33 0 -40 -4 -40 -19 0 -15 -10 -20 -45 -25 -36 -6 -45
-11 -45 -27 0 -14 -7 -19 -25 -19 -23 0 -25 -4 -25 -45 0 -41 -2 -45 -25 -45
-20 0 -25 -5 -25 -25 0 -18 -5 -25 -20 -25 -17 0 -20 -7 -20 -45 0 -37 -3 -45
-19 -45 -20 0 -31 -34 -31 -96 0 -27 -4 -34 -20 -34 -18 0 -20 -7 -20 -65 0
-57 -2 -65 -19 -65 -15 0 -20 -10 -26 -50 -6 -40 -11 -50 -26 -50 -15 0 -19
-7 -19 -39 0 -33 -4 -40 -22 -43 -15 -2 -24 -11 -26 -25 -2 -15 -10 -23 -23
-23 -12 0 -19 -7 -19 -19 0 -19 -39 -31 -102 -31 -21 0 -28 -5 -28 -20 0 -18
-7 -20 -70 -20 -62 0 -70 2 -70 19 0 13 -8 21 -22 23 -15 2 -24 11 -26 26 -2
14 -10 22 -23 22 -18 0 -19 9 -19 160 0 174 3 166 -59 154 -21 -5 -31 -12 -31
-25 0 -12 -7 -19 -19 -19 -13 0 -21 -8 -23 -22 -2 -15 -11 -24 -25 -26 -19 -3
-23 -10 -23 -42 0 -32 -4 -39 -22 -42 -15 -2 -24 -11 -26 -25 -2 -15 -10 -23
-23 -23 -16 0 -19 -7 -19 -45 0 -37 -3 -45 -19 -45 -15 0 -20 -10 -25 -45 -6
-36 -11 -45 -27 -45 -18 0 -19 -9 -19 -245 0 -234 1 -245 19 -245 15 0 20 -10
26 -50 6 -40 11 -50 26 -50 16 0 19 -7 19 -40 0 -33 3 -40 20 -40 15 0 20 -7
20 -25 0 -20 5 -25 25 -25 20 0 25 -5 25 -25 0 -18 5 -25 20 -25 13 0 20 -7
20 -20 0 -15 7 -20 25 -20 23 0 25 -4 25 -45 0 -38 -3 -45 -20 -45 -19 0 -20
-7 -20 -135 0 -128 1 -135 20 -135 19 0 20 -7 20 -90 0 -82 2 -90 19 -90 16 0
21 -9 27 -45 5 -35 10 -45 25 -45 12 0 19 -7 19 -20 0 -13 7 -20 20 -20 15 0
20 -7 20 -25 0 -20 5 -25 25 -25 20 0 25 -5 25 -25 0 -18 5 -25 20 -25 13 0
20 -7 20 -20 0 -15 7 -20 25 -20 20 0 25 -5 25 -25 0 -20 5 -25 25 -25 18 0
25 -5 25 -20 0 -13 7 -20 20 -20 13 0 20 -7 20 -19 0 -13 8 -21 23 -23 22 -3
22 -6 22 -133 0 -71 1 -192 3 -267 2 -130 3 -138 22 -138 19 0 20 -7 20 -135
0 -128 1 -135 20 -135 16 0 20 -7 20 -32 0 -69 12 -108 31 -108 17 0 19 -9 19
-90 0 -82 2 -90 19 -90 15 0 20 -10 25 -45 6 -36 11 -45 27 -45 17 0 19 -7 19
-65 0 -57 2 -65 19 -65 15 0 20 -10 26 -50 6 -40 11 -50 26 -50 16 0 19 -7 19
-45 0 -38 3 -45 19 -45 15 0 21 -10 26 -40 5 -30 11 -40 26 -40 16 0 19 -7 19
-45 0 -38 3 -45 20 -45 15 0 20 -7 20 -25 0 -20 5 -25 25 -25 23 0 25 -4 25
-45 0 -38 3 -45 19 -45 13 0 21 -8 23 -22 2 -15 11 -24 26 -26 18 -3 22 -10
22 -42 0 -32 4 -39 23 -42 14 -2 23 -11 25 -25 2 -15 10 -23 23 -23 14 0 19
-7 19 -25 0 -18 5 -25 20 -25 13 0 20 -7 20 -20 0 -15 7 -20 25 -20 23 0 25
-4 25 -45 0 -41 2 -45 25 -45 18 0 25 -5 25 -20 0 -13 7 -20 20 -20 15 0 20
-7 20 -25 0 -20 5 -25 26 -25 21 0 25 -4 22 -22 -2 -15 -11 -24 -25 -26 -15
-2 -23 -10 -23 -23 0 -17 -7 -19 -65 -19 -57 0 -65 -2 -65 -19 0 -15 -10 -20
-50 -26 -40 -6 -50 -11 -50 -26 0 -17 -8 -19 -65 -19 -57 0 -65 -2 -65 -19 0
-15 -10 -20 -45 -25 -36 -6 -45 -11 -45 -27 0 -17 -7 -19 -65 -19 -57 0 -65
-2 -65 -19 0 -15 -10 -20 -50 -26 -40 -6 -50 -11 -50 -26 0 -16 -7 -19 -45
-19 -38 0 -45 -3 -45 -19 0 -16 -9 -21 -45 -27 -35 -5 -45 -10 -45 -25 0 -17
-8 -19 -65 -19 -63 0 -65 -1 -65 -25 0 -20 -5 -25 -25 -25 -18 0 -25 -5 -25
-20 0 -17 -7 -20 -45 -20 -38 0 -45 -3 -45 -19 0 -16 -9 -21 -45 -27 -35 -5
-45 -10 -45 -25 0 -15 -7 -19 -40 -19 -33 0 -40 -3 -40 -20 0 -15 -7 -20 -25
-20 -20 0 -25 -5 -25 -25 0 -23 -4 -25 -45 -25 -38 0 -45 -3 -45 -19 0 -13 -8
-21 -22 -23 -15 -2 -24 -11 -26 -26 -3 -18 -10 -22 -42 -22 -32 0 -39 -4 -42
-22 -2 -15 -11 -24 -25 -26 -15 -2 -23 -10 -23 -23 0 -14 -7 -19 -25 -19 -18
0 -25 -5 -25 -20 0 -13 -7 -20 -20 -20 -15 0 -20 -7 -20 -25 0 -20 -5 -25 -25
-25 -18 0 -25 -5 -25 -20 0 -13 -7 -20 -20 -20 -15 0 -20 -7 -20 -25 0 -20 -5
-25 -25 -25 -18 0 -25 -5 -25 -20 0 -13 -7 -20 -20 -20 -15 0 -20 -7 -20 -25
0 -18 -5 -25 -19 -25 -16 0 -21 -9 -27 -45 -5 -35 -10 -45 -25 -45 -16 0 -19
-8 -19 -45 0 -38 -3 -45 -19 -45 -16 0 -21 -9 -27 -45 -5 -35 -10 -45 -25 -45
-17 0 -19 -8 -19 -65 0 -57 -2 -65 -19 -65 -19 0 -31 -39 -31 -107 0 -26 -4
-33 -20 -33 -19 0 -20 -7 -20 -90 l0 -90 -90 0 c-81 0 -90 -2 -90 -19 0 -19
-39 -31 -102 -31 -21 0 -28 -5 -28 -20 0 -17 -7 -20 -50 -20 -43 0 -50 -3 -50
-20 0 -15 -7 -20 -27 -20 -64 0 -103 -12 -103 -31 0 -14 -7 -19 -25 -19 -18 0
-25 -5 -25 -19 0 -16 -9 -21 -45 -27 -35 -5 -45 -10 -45 -25 0 -12 -7 -19 -20
-19 -13 0 -20 -7 -20 -19 0 -15 -10 -20 -45 -25 -36 -6 -45 -11 -45 -27 0 -12
-7 -19 -19 -19 -13 0 -21 -8 -23 -22 -2 -15 -11 -24 -26 -26 -14 -2 -22 -10
-22 -23 0 -12 -7 -19 -19 -19 -13 0 -21 -8 -23 -22 -2 -15 -11 -24 -26 -26
-14 -2 -22 -10 -22 -23 0 -12 -7 -19 -19 -19 -13 0 -21 -8 -23 -22 -2 -15 -11
-24 -26 -26 -18 -3 -22 -10 -22 -42 0 -32 -4 -39 -22 -42 -15 -2 -24 -11 -26
-25 -2 -15 -10 -23 -23 -23 -16 0 -19 -7 -19 -45 0 -38 -3 -45 -19 -45 -16 0
-21 -9 -27 -45 -5 -35 -10 -45 -25 -45 -17 0 -19 -8 -19 -65 0 -58 -2 -65 -20
-65 -19 0 -20 -7 -20 -205 0 -198 1 -205 20 -205 17 0 20 -7 20 -45 0 -37 3
-45 19 -45 15 0 20 -10 25 -45 6 -36 11 -45 27 -45 16 0 19 -7 19 -45 0 -38 3
-45 20 -45 16 0 20 -7 20 -32 0 -69 12 -108 31 -108 16 0 19 -8 19 -45 0 -38
3 -45 19 -45 15 0 21 -10 26 -40 5 -30 11 -40 26 -40 14 0 19 -7 19 -25 0 -20
5 -25 25 -25 18 0 25 -5 25 -20 0 -13 7 -20 20 -20 15 0 20 -7 20 -25 0 -18 5
-25 19 -25 15 0 20 -10 25 -45 6 -36 11 -45 27 -45 16 0 19 -7 19 -45 0 -41 2
-45 25 -45 18 0 25 -5 25 -19 0 -15 10 -21 40 -26 30 -5 40 -11 40 -26 0 -14
7 -19 25 -19 18 0 25 -5 25 -19 0 -19 39 -31 103 -31 20 0 27 -5 27 -20 0 -19
7 -20 95 -20 88 0 95 -1 95 -20 0 -18 7 -20 85 -20 78 0 85 2 85 20 0 15 7 20
25 20 18 0 25 5 25 19 0 13 8 21 23 23 14 2 23 11 25 26 2 14 10 22 23 22 16
0 19 7 19 45 0 38 3 45 20 45 17 0 20 7 20 45 0 38 -3 45 -20 45 -17 0 -20 7
-20 45 0 38 -3 45 -19 45 -13 0 -21 8 -23 23 -2 14 -11 23 -25 25 -20 3 -23 9
-23 48 0 37 3 44 20 44 13 0 20 7 20 20 0 15 7 20 25 20 20 0 25 5 25 25 0 29
6 29 173 18 85 -5 97 -8 97 -25 0 -16 10 -18 115 -18 l115 0 0 -25 c0 -18 5
-25 20 -25 17 0 20 -7 20 -39 0 -33 4 -40 23 -43 14 -2 23 -11 25 -25 2 -15
10 -23 23 -23 14 0 19 -7 19 -25 0 -18 5 -25 20 -25 13 0 20 -7 20 -20 0 -15
7 -20 25 -20 18 0 25 -5 25 -19 0 -15 10 -20 45 -25 36 -6 45 -11 45 -27 0
-18 8 -19 160 -19 152 0 160 -1 160 -19 0 -16 9 -21 45 -27 35 -5 45 -10 45
-25 0 -17 9 -19 110 -19 101 0 110 2 110 19 0 15 10 20 45 25 36 6 45 11 45
27 0 14 7 19 25 19 18 0 25 5 25 20 0 13 7 20 20 20 15 0 20 7 20 25 l0 25
135 0 c128 0 135 -1 135 -20 0 -16 7 -20 34 -20 62 0 96 -11 96 -31 0 -14 7
-19 25 -19 18 0 25 -5 25 -19 0 -15 11 -19 68 -24 37 -4 88 -7 115 -7 40 0 47
-3 47 -20 0 -19 7 -20 110 -20 103 0 110 -1 110 -20 0 -17 7 -20 38 -20 22 0
73 -3 115 -6 66 -6 77 -10 77 -25 0 -17 10 -19 110 -19 103 0 110 -1 110 -20
0 -17 7 -20 38 -20 22 0 73 -3 115 -6 66 -6 77 -10 77 -25 0 -17 8 -19 65 -19
63 0 65 -1 65 -25 0 -18 5 -25 20 -25 13 0 20 -7 20 -20 0 -15 7 -20 25 -20
23 0 25 -4 25 -45 l0 -45 45 0 c41 0 45 -2 45 -25 0 -23 4 -25 45 -25 38 0 45
-3 45 -20 0 -20 7 -20 270 -20 257 0 270 1 270 19 0 19 39 31 103 31 20 0 27
5 27 20 0 15 7 20 25 20 18 0 25 -5 25 -19 0 -17 11 -20 90 -26 79 -6 90 -9
90 -26 0 -18 9 -19 115 -19 108 0 115 -1 115 -20 0 -19 7 -20 155 -20 l155 0
0 -25 c0 -20 5 -25 25 -25 18 0 25 -5 25 -19 0 -16 9 -21 45 -27 35 -5 45 -10
45 -25 0 -18 10 -19 180 -19 171 0 180 1 180 19 0 15 10 21 40 26 30 5 40 11
40 26 0 14 7 19 25 19 20 0 25 5 25 25 0 18 5 25 19 25 15 0 21 10 26 40 5 30
11 40 26 40 14 0 19 7 19 25 0 18 5 25 19 25 13 0 21 8 23 22 2 13 11 24 23
27 11 2 142 0 292 -4 258 -7 273 -8 273 -26 0 -18 18 -19 585 -19 568 0 585 1
585 19 0 17 12 20 135 26 123 7 135 9 135 26 0 17 8 19 70 19 63 0 70 2 70 20
0 16 7 20 34 20 62 0 96 11 96 31 0 17 8 19 65 19 57 0 65 2 65 19 0 15 10 20
45 25 36 6 45 11 45 27 0 16 7 19 44 19 39 0 45 3 48 23 2 14 11 23 26 25 14
2 22 10 22 23 0 14 7 19 25 19 18 0 25 5 25 20 0 13 7 20 20 20 15 0 20 7 20
25 0 20 5 25 25 25 18 0 25 5 25 20 0 13 7 20 20 20 15 0 20 7 20 25 0 18 5
25 19 25 13 0 21 8 23 23 2 14 11 23 26 25 19 3 22 9 22 48 0 37 3 44 19 44
16 0 21 9 27 45 5 35 10 45 25 45 16 0 19 8 19 45 0 38 3 45 20 45 15 0 20 7
20 28 0 63 12 102 31 102 17 0 19 9 19 90 0 81 2 90 19 90 15 0 19 11 24 67 4
38 7 98 7 136 0 60 2 67 20 67 20 0 20 7 20 315 0 308 0 315 -20 315 -18 0
-20 7 -20 58 0 31 -3 101 -7 154 -5 86 -8 98 -25 98 -16 0 -18 10 -18 115 0
106 -1 115 -19 115 -17 0 -20 11 -26 90 -6 79 -9 90 -26 90 -17 0 -19 8 -19
90 0 81 -2 90 -19 90 -19 0 -31 39 -31 103 0 20 -5 27 -20 27 -18 0 -20 7 -20
70 0 62 -2 70 -19 70 -19 0 -31 39 -31 103 0 20 -5 27 -20 27 -18 0 -20 7 -20
70 0 63 -2 70 -19 70 -16 0 -21 9 -27 45 -5 35 -10 45 -25 45 -17 0 -19 8 -19
65 0 57 -2 65 -19 65 -15 0 -20 10 -25 45 -6 36 -11 45 -27 45 -16 0 -19 7
-19 45 0 38 -3 45 -20 45 -15 0 -20 7 -20 25 0 20 -5 25 -25 25 -23 0 -25 4
-25 45 0 38 -3 45 -19 45 -13 0 -21 8 -23 23 -2 14 -11 23 -25 25 -19 3 -23
10 -23 43 0 32 -3 39 -20 39 -15 0 -20 7 -20 25 0 20 -5 25 -25 25 -20 0 -25
5 -25 25 0 18 -5 25 -19 25 -15 0 -21 10 -26 40 -5 30 -11 40 -26 40 -14 0
-19 7 -19 25 0 20 -5 25 -25 25 -18 0 -25 5 -25 20 0 13 -7 20 -20 20 -15 0
-20 7 -20 25 0 20 -5 25 -25 25 -18 0 -25 5 -25 20 0 13 -7 20 -20 20 -15 0
-20 7 -20 25 0 20 -5 25 -25 25 -18 0 -25 5 -25 20 0 13 -7 20 -20 20 -15 0
-20 7 -20 25 0 23 -4 25 -45 25 -41 0 -45 2 -45 25 0 18 -5 25 -20 25 -13 0
-20 7 -20 20 0 15 -7 20 -25 20 -18 0 -25 5 -25 19 0 13 -8 21 -22 23 -15 2
-24 11 -26 25 -3 19 -10 23 -43 23 -32 0 -39 3 -39 20 0 15 -7 20 -25 20 -20
0 -25 5 -25 25 0 23 -4 25 -45 25 -38 0 -45 3 -45 19 0 13 -8 21 -22 23 -15 2
-24 11 -26 26 -3 19 -9 22 -48 22 -37 0 -44 3 -44 19 0 15 -10 21 -40 26 -30
5 -40 11 -40 26 0 16 -7 19 -45 19 -37 0 -45 3 -45 19 0 15 -10 20 -45 25 -36
6 -45 11 -45 27 0 16 -7 19 -45 19 -38 0 -45 3 -45 19 0 15 -10 20 -50 26 -40
6 -50 11 -50 26 0 16 -7 19 -45 19 -38 0 -45 3 -45 20 0 15 -7 20 -27 20 -64
0 -103 12 -103 31 0 17 -8 19 -65 19 -57 0 -65 2 -65 19 0 19 -39 31 -107 31
-26 0 -33 4 -33 20 0 18 -7 20 -65 20 -57 0 -65 2 -65 19 0 19 -39 31 -107 31
-26 0 -33 4 -33 20 0 19 -7 20 -90 20 -83 0 -90 1 -90 20 0 17 -7 20 -45 20
l-45 0 0 50 c0 43 3 50 20 50 15 0 20 7 20 28 0 63 12 102 31 102 17 0 19 8
19 65 0 57 2 65 19 65 19 0 31 39 31 108 0 25 4 32 20 32 18 0 20 7 20 70 0
68 1 70 25 70 18 0 25 5 25 20 0 17 7 20 45 20 38 0 45 3 45 19 0 15 10 21 40
26 30 5 40 11 40 26 0 14 7 19 25 19 23 0 25 4 25 45 0 41 2 45 25 45 20 0 25
5 25 25 0 18 5 25 20 25 17 0 20 7 20 45 0 38 3 45 19 45 17 0 20 10 27 90 6
79 9 90 25 90 18 0 19 10 19 130 0 123 -1 130 -20 130 -16 0 -20 7 -20 33 0
68 -12 107 -31 107 -16 0 -19 8 -19 45 0 38 -3 45 -19 45 -13 0 -21 8 -23 23
-2 14 -11 23 -25 25 -15 2 -23 10 -23 23 0 12 -7 19 -20 19 -13 0 -20 7 -20
20 0 15 -7 20 -25 20 -20 0 -25 5 -25 25 0 20 -5 25 -26 25 -25 0 -26 2 -20
38 3 20 6 61 6 90 0 45 3 52 20 52 19 0 20 7 20 245 0 238 -1 245 -20 245 -19
0 -20 7 -20 98 0 55 -3 147 -7 205 -5 95 -8 107 -25 107 -16 0 -18 10 -18 110
0 101 -2 110 -19 110 -19 0 -31 39 -31 108 0 25 -4 32 -20 32 -18 0 -20 7 -20
70 0 62 -2 70 -19 70 -20 0 -31 34 -31 96 0 27 -4 34 -20 34 -17 0 -20 7 -20
45 0 38 -3 45 -19 45 -16 0 -21 9 -27 45 -5 35 -10 45 -25 45 -14 0 -19 7 -19
25 0 18 -5 25 -19 25 -15 0 -21 10 -26 40 -5 30 -11 40 -26 40 -14 0 -19 7
-19 25 0 18 -5 25 -19 25 -13 0 -21 8 -23 23 -2 14 -11 23 -25 25 -15 2 -23
10 -23 23 0 12 -7 19 -20 19 -13 0 -20 7 -20 20 0 15 -7 20 -25 20 -20 0 -25
5 -25 25 0 20 -5 25 -25 25 -18 0 -25 5 -25 20 0 13 -7 20 -20 20 -15 0 -20 7
-20 25 0 23 -4 25 -45 25 -41 0 -45 2 -45 25 0 20 -5 25 -25 25 -18 0 -25 5
-25 20 0 17 -7 20 -39 20 -33 0 -40 4 -43 23 -2 14 -11 23 -25 25 -15 2 -23
10 -23 23 0 16 -7 19 -45 19 -38 0 -45 3 -45 19 0 16 -9 21 -45 27 -35 5 -45
10 -45 25 0 17 -8 19 -65 19 -57 0 -65 2 -65 19 0 15 -11 19 -77 25 -42 3 -93
6 -115 6 -31 0 -38 3 -38 20 0 17 -7 20 -45 20 -38 0 -45 3 -45 19 0 13 -8 21
-22 23 -15 2 -24 11 -26 26 -3 18 -10 22 -42 22 -32 0 -39 4 -42 23 -2 14 -11
23 -25 25 -15 2 -23 10 -23 23 0 14 -7 19 -25 19 -18 0 -25 5 -25 20 0 13 -7
20 -20 20 -15 0 -20 7 -20 25 0 23 -4 25 -45 25 -37 0 -45 3 -45 19 0 15 -10
20 -45 25 -36 6 -45 11 -45 27 0 18 -8 19 -110 19 -103 0 -110 -1 -110 -20 0
-17 -7 -20 -47 -20 -27 0 -78 -3 -115 -7 -57 -5 -68 -9 -68 -24 0 -18 -11 -19
-155 -19 -145 0 -155 1 -155 19 0 19 -39 31 -107 31 -26 0 -33 4 -33 20 0 19
-7 20 -225 20 -216 0 -225 -1 -225 -19z m360 -141 c0 -18 7 -20 70 -20 62 0
70 -2 70 -19 0 -17 11 -20 88 -27 48 -4 225 -4 393 0 358 8 459 3 459 -25 0
-16 8 -19 45 -19 38 0 45 -3 45 -19 0 -13 8 -21 23 -23 14 -2 23 -11 25 -25 3
-19 10 -23 43 -23 32 0 39 -3 39 -20 0 -15 7 -20 25 -20 20 0 25 -5 25 -25 0
-23 4 -25 45 -25 41 0 45 -2 45 -25 0 -20 5 -25 25 -25 18 0 25 -5 25 -20 0
-17 7 -20 45 -20 38 0 45 -3 45 -20 0 -17 7 -20 53 -20 87 0 127 -10 127 -31
0 -16 8 -19 45 -19 38 0 45 -3 45 -19 0 -16 9 -21 45 -27 35 -5 45 -10 45 -25
0 -15 7 -19 39 -19 33 0 40 -4 43 -22 2 -15 11 -24 26 -26 14 -2 22 -10 22
-23 0 -14 7 -19 25 -19 18 0 25 -5 25 -20 0 -13 7 -20 20 -20 15 0 20 -7 20
-25 0 -23 4 -25 45 -25 41 0 45 -2 45 -25 0 -18 5 -25 20 -25 13 0 20 -7 20
-20 0 -15 7 -20 25 -20 20 0 25 -5 25 -25 0 -18 5 -25 19 -25 15 0 21 -10 26
-40 5 -30 11 -40 26 -40 14 0 19 -7 19 -25 0 -18 5 -25 19 -25 13 0 21 -8 23
-22 2 -15 11 -24 26 -26 18 -3 22 -10 22 -43 0 -32 4 -39 19 -39 15 0 20 -10
25 -45 6 -36 11 -45 27 -45 16 0 19 -7 19 -50 0 -43 3 -50 20 -50 15 0 20 -7
20 -27 0 -64 12 -103 31 -103 17 0 19 -9 19 -90 0 -83 1 -90 20 -90 17 0 20
-7 20 -38 0 -22 3 -73 6 -115 6 -66 10 -77 25 -77 18 0 19 -12 19 -220 0 -210
-1 -220 -19 -220 -15 0 -21 10 -26 40 -5 30 -11 40 -26 40 -14 0 -19 7 -19 25
0 18 -5 25 -19 25 -13 0 -21 8 -23 23 -2 14 -11 23 -25 25 -15 2 -23 10 -23
23 0 12 -7 19 -20 19 -13 0 -20 7 -20 20 0 15 -7 20 -25 20 -20 0 -25 5 -25
25 0 23 -4 25 -45 25 -41 0 -45 2 -45 25 0 20 -5 25 -25 25 -18 0 -25 5 -25
20 0 17 -7 20 -45 20 -37 0 -45 3 -45 19 0 20 -34 31 -96 31 -27 0 -34 4 -34
20 0 17 -7 20 -45 20 -38 0 -45 3 -45 20 0 16 -7 20 -32 20 -18 0 -50 3 -71 7
-37 6 -38 6 -35 47 2 34 7 42 26 44 19 3 22 9 22 48 0 36 3 44 19 44 20 0 31
34 31 96 0 27 4 34 20 34 19 0 20 7 20 160 0 151 -1 160 -19 160 -15 0 -21 10
-26 40 -5 30 -11 40 -26 40 -14 0 -19 7 -19 25 0 18 -5 25 -19 25 -13 0 -21 8
-23 23 -2 14 -11 23 -25 25 -15 2 -23 10 -23 23 0 16 -7 19 -45 19 -37 0 -45
3 -45 19 0 20 -34 31 -96 31 -27 0 -34 4 -34 20 0 17 -7 20 -50 20 -43 0 -50
-3 -50 -20 0 -18 -7 -20 -54 -20 -81 0 -116 -9 -116 -31 0 -16 -8 -19 -44 -19
-39 0 -45 -3 -48 -22 -2 -15 -11 -24 -25 -26 -15 -2 -23 -10 -23 -23 0 -14 -7
-19 -25 -19 -18 0 -25 -5 -25 -20 0 -13 -7 -20 -20 -20 -15 0 -20 -7 -20 -25
0 -20 -5 -25 -25 -25 -18 0 -25 -5 -25 -20 0 -13 -7 -20 -20 -20 -15 0 -20 -7
-20 -25 0 -23 -4 -25 -45 -25 -41 0 -45 -2 -45 -25 0 -20 -5 -25 -25 -25 -18
0 -25 -5 -25 -20 0 -18 -7 -20 -65 -20 -57 0 -65 2 -65 19 0 15 -10 20 -45 25
-36 6 -45 11 -45 27 0 16 -7 19 -45 19 -38 0 -45 3 -45 19 0 16 -9 21 -45 27
-35 5 -45 10 -45 25 0 16 -8 19 -45 19 -38 0 -45 3 -45 19 0 16 -9 21 -45 27
-35 5 -45 10 -45 25 0 17 -8 19 -65 19 -58 0 -65 2 -65 20 0 19 -7 20 -95 20
-88 0 -95 -1 -95 -20 0 -17 -7 -20 -39 -20 -33 0 -40 -4 -43 -22 -2 -15 -11
-24 -25 -26 -19 -3 -23 -10 -23 -42 0 -32 -4 -39 -22 -42 -15 -2 -24 -11 -26
-25 -2 -15 -10 -23 -23 -23 -14 0 -19 -7 -19 -25 0 -18 -5 -25 -20 -25 -13 0
-20 -7 -20 -20 0 -15 -7 -20 -25 -20 -20 0 -25 -5 -25 -25 0 -18 -5 -25 -19
-25 -15 0 -21 -10 -26 -40 -5 -30 -11 -40 -26 -40 -14 0 -19 -7 -19 -25 0 -20
-5 -25 -25 -25 -18 0 -25 -5 -25 -19 0 -15 -10 -21 -40 -26 -30 -5 -40 -11
-40 -26 0 -16 -7 -19 -50 -19 -42 0 -50 3 -50 19 0 17 -12 20 -134 26 -159 9
-216 2 -216 -26 0 -14 -7 -19 -25 -19 -18 0 -25 -5 -25 -19 0 -13 -8 -21 -22
-23 -15 -2 -24 -11 -26 -25 -2 -15 -10 -23 -23 -23 -12 0 -19 -7 -19 -20 0
-13 -7 -20 -19 -20 -15 0 -20 -10 -25 -45 -6 -36 -11 -45 -27 -45 -16 0 -19
-7 -19 -50 0 -42 -3 -50 -19 -50 -20 0 -31 -34 -31 -96 0 -27 -4 -34 -20 -34
-18 0 -20 -7 -20 -65 0 -57 -2 -65 -19 -65 -19 0 -31 -39 -31 -107 0 -26 -4
-33 -20 -33 -17 0 -20 -7 -20 -45 0 -41 -2 -45 -25 -45 -20 0 -25 -5 -25 -25
0 -18 -5 -25 -20 -25 -13 0 -20 -7 -20 -20 0 -13 -7 -20 -19 -20 -13 0 -21 -8
-23 -22 -2 -15 -11 -24 -25 -26 -15 -2 -23 -10 -23 -23 0 -16 -7 -19 -45 -19
-37 0 -45 -3 -45 -19 0 -20 -40 -31 -115 -31 -75 0 -115 11 -115 31 0 15 -8
19 -39 19 -33 0 -40 4 -43 23 -2 14 -11 23 -25 25 -15 2 -23 10 -23 23 0 14
-7 19 -25 19 -18 0 -25 5 -25 20 0 13 -7 20 -20 20 -15 0 -20 7 -20 25 0 18
-5 25 -19 25 -13 0 -21 8 -23 23 -2 14 -11 23 -25 25 -19 3 -23 10 -23 43 0
32 -4 39 -19 39 -15 0 -20 10 -25 45 -6 36 -11 45 -27 45 -16 0 -19 7 -19 50
0 43 -3 50 -20 50 -19 0 -20 7 -20 155 0 148 1 155 20 155 17 0 20 7 20 45 0
41 2 45 25 45 20 0 25 -5 25 -25 0 -18 5 -25 20 -25 13 0 20 -7 20 -20 0 -13
7 -20 20 -20 13 0 20 -7 20 -19 0 -15 10 -20 50 -26 40 -6 50 -11 50 -26 0
-18 8 -19 110 -19 101 0 110 2 110 19 0 15 10 20 45 25 36 6 45 11 45 27 0 16
7 19 45 19 41 0 45 2 45 25 0 18 5 25 20 25 13 0 20 7 20 20 0 15 7 20 25 20
23 0 25 4 25 45 0 38 3 45 19 45 16 0 21 9 27 45 5 35 10 45 25 45 16 0 19 8
19 45 0 37 3 45 19 45 19 0 31 39 31 103 0 20 5 27 20 27 17 0 20 7 20 45 0
37 3 45 19 45 15 0 20 10 25 45 6 36 11 45 27 45 14 0 19 7 19 25 0 18 5 25
19 25 16 0 21 9 27 45 5 35 10 45 25 45 12 0 19 7 19 19 0 16 9 21 45 27 35 5
45 10 45 25 0 16 8 19 45 19 38 0 45 3 45 20 0 19 7 20 149 20 176 0 211 5
211 31 0 14 7 19 25 19 20 0 25 5 25 25 0 18 5 25 20 25 18 0 20 7 20 65 0 57
2 65 19 65 21 0 31 40 31 128 0 45 3 52 20 52 18 0 20 7 20 70 0 63 2 70 20
70 15 0 20 7 20 28 0 63 12 102 31 102 16 0 19 8 19 45 l0 45 45 0 c38 0 45 3
45 20 0 19 7 20 135 20 128 0 135 -1 135 -20z m1620 -1080 c0 -17 7 -20 45
-20 38 0 45 -3 45 -19 0 -13 8 -21 23 -23 14 -2 23 -11 25 -25 2 -15 10 -23
23 -23 12 0 19 -7 19 -20 0 -13 7 -20 19 -20 15 0 20 -10 26 -50 6 -40 11 -50
26 -50 17 0 19 -8 19 -65 0 -58 -2 -65 -20 -65 -16 0 -20 -7 -20 -34 0 -62
-11 -96 -31 -96 -14 0 -19 -7 -19 -25 0 -18 -5 -25 -19 -25 -16 0 -21 -9 -27
-45 -5 -35 -10 -45 -25 -45 -16 0 -19 -8 -19 -45 0 -38 3 -45 20 -45 13 0 20
-7 20 -19 0 -21 40 -31 128 -31 45 0 52 -3 52 -20 0 -18 7 -20 70 -20 63 0 70
-2 70 -20 0 -16 7 -20 34 -20 62 0 96 -11 96 -31 0 -16 8 -19 45 -19 37 0 45
-3 45 -19 0 -15 10 -20 45 -25 36 -6 45 -11 45 -27 0 -14 7 -19 25 -19 18 0
25 -5 25 -19 0 -16 9 -21 45 -27 35 -5 45 -10 45 -25 0 -12 7 -19 19 -19 13 0
21 -8 23 -22 2 -15 11 -24 26 -26 18 -3 22 -10 22 -42 0 -32 4 -39 23 -42 14
-2 23 -11 25 -25 2 -15 10 -23 23 -23 16 0 19 -7 19 -45 0 -38 3 -45 20 -45
13 0 20 -7 20 -20 0 -13 -7 -20 -20 -20 -13 0 -20 7 -20 20 0 13 -7 20 -19 20
-13 0 -21 8 -23 23 -2 14 -11 23 -25 25 -15 2 -23 10 -23 23 0 12 -7 19 -20
19 -13 0 -20 7 -20 20 0 15 -7 20 -25 20 -20 0 -25 5 -25 25 0 20 -5 25 -25
25 -18 0 -25 5 -25 19 0 15 -10 21 -40 26 -30 5 -40 11 -40 26 0 14 -7 19 -25
19 -18 0 -25 5 -25 19 0 15 -10 20 -45 25 -36 6 -45 11 -45 27 0 16 -7 19 -45
19 -37 0 -45 3 -45 19 0 15 -10 20 -45 25 -36 6 -45 11 -45 27 0 17 -7 19 -65
19 -57 0 -65 2 -65 19 0 13 -10 20 -35 24 -56 9 -105 -2 -105 -24 0 -12 -7
-19 -20 -19 -13 0 -20 -7 -20 -20 0 -13 7 -20 20 -20 15 0 20 -7 20 -25 0 -24
2 -25 65 -25 57 0 65 -2 65 -19 0 -19 39 -31 108 -31 25 0 32 -4 32 -20 0 -17
7 -20 45 -20 38 0 45 -3 45 -19 0 -16 9 -21 45 -27 35 -5 45 -10 45 -25 0 -16
8 -19 45 -19 41 0 45 -2 45 -25 0 -20 5 -25 25 -25 18 0 25 -5 25 -20 0 -17 7
-20 39 -20 33 0 40 -4 43 -22 2 -15 11 -24 26 -26 14 -2 22 -10 22 -23 0 -14
7 -19 25 -19 18 0 25 -5 25 -20 0 -13 7 -20 20 -20 15 0 20 -7 20 -25 0 -23 4
-25 45 -25 41 0 45 -2 45 -25 0 -18 5 -25 20 -25 13 0 20 -7 20 -20 0 -15 7
-20 25 -20 23 0 25 -4 25 -45 0 -38 -3 -45 -19 -45 -13 0 -21 8 -23 23 -2 14
-11 23 -25 25 -15 2 -23 10 -23 23 0 14 -7 19 -25 19 -18 0 -25 5 -25 20 0 13
-7 20 -20 20 -15 0 -20 7 -20 25 0 23 -4 25 -45 25 -41 0 -45 2 -45 25 0 18
-5 25 -20 25 -13 0 -20 7 -20 20 0 17 -7 20 -44 20 -39 0 -45 3 -48 23 -2 14
-11 23 -25 25 -15 2 -23 10 -23 23 0 17 -7 19 -65 19 -57 0 -65 2 -65 19 0 19
-39 31 -107 31 -26 0 -33 4 -33 20 0 18 -7 20 -64 20 -63 0 -64 0 -70 -32 -3
-17 -4 -46 0 -64 6 -34 29 -44 100 -44 27 0 34 -4 34 -20 0 -18 7 -20 70 -20
63 0 70 -2 70 -19 0 -16 9 -21 45 -27 35 -5 45 -10 45 -25 0 -15 7 -19 40 -19
33 0 40 -4 40 -19 0 -15 10 -20 45 -25 36 -6 45 -11 45 -27 0 -14 7 -19 25
-19 18 0 25 -5 25 -19 0 -13 8 -21 23 -23 14 -2 23 -11 25 -25 3 -19 10 -23
42 -23 32 0 39 -4 42 -22 2 -15 11 -24 26 -26 14 -2 22 -10 22 -23 0 -14 7
-19 25 -19 20 0 25 -5 25 -25 0 -18 5 -25 20 -25 13 0 20 -7 20 -20 0 -17 -7
-20 -45 -20 l-45 0 0 -45 c0 -38 3 -45 19 -45 13 0 21 -8 23 -22 2 -19 10 -24
46 -26 34 -3 42 -7 42 -23 0 -14 7 -19 25 -19 18 0 25 -5 25 -19 0 -13 8 -21
23 -23 14 -2 23 -11 25 -25 2 -15 10 -23 23 -23 12 0 19 -7 19 -20 0 -13 7
-20 19 -20 15 0 20 -10 25 -45 6 -36 11 -45 27 -45 18 0 19 -9 19 -205 0 -196
-1 -205 -19 -205 -16 0 -21 -9 -27 -45 -5 -35 -10 -45 -25 -45 -12 0 -19 -7
-19 -20 0 -13 -7 -20 -20 -20 -15 0 -20 -7 -20 -25 0 -20 -5 -25 -25 -25 -18
0 -25 -5 -25 -19 0 -16 -9 -21 -45 -27 -35 -5 -45 -10 -45 -25 0 -16 -8 -19
-45 -19 -38 0 -45 -3 -45 -19 0 -13 -8 -21 -22 -23 -15 -2 -24 -11 -26 -25 -2
-15 -10 -23 -23 -23 -18 0 -19 -8 -19 -110 0 -101 -2 -110 -19 -110 -19 0 -31
-39 -31 -107 0 -26 -4 -33 -20 -33 -18 0 -20 -7 -20 -70 0 -63 -2 -70 -20 -70
-15 0 -20 -7 -20 -27 0 -64 -12 -103 -31 -103 -16 0 -19 -8 -19 -45 0 -37 -3
-45 -19 -45 -15 0 -20 -10 -25 -45 -6 -36 -11 -45 -27 -45 -16 0 -19 -7 -19
-45 0 -37 -3 -45 -19 -45 -15 0 -20 -10 -25 -45 -6 -36 -11 -45 -27 -45 -16 0
-19 -7 -19 -45 0 -41 -2 -45 -25 -45 -20 0 -25 -5 -25 -25 0 -18 -5 -25 -20
-25 -17 0 -20 -7 -20 -39 0 -33 -4 -40 -22 -43 -15 -2 -24 -11 -26 -25 -2 -15
-10 -23 -23 -23 -16 0 -19 -7 -19 -45 l0 -45 65 0 c58 0 65 2 65 20 0 15 7 20
25 20 20 0 25 5 25 25 0 20 5 25 25 25 18 0 25 5 25 20 0 13 7 20 20 20 15 0
20 7 20 25 0 20 5 25 25 25 18 0 25 5 25 20 0 13 7 20 20 20 15 0 20 7 20 25
0 18 5 25 20 25 19 0 20 -7 20 -115 0 -108 -1 -115 -20 -115 -18 0 -20 -7 -20
-65 0 -57 -2 -65 -19 -65 -15 0 -20 -10 -25 -45 -6 -36 -11 -45 -27 -45 -16 0
-19 -7 -19 -45 0 -38 -3 -45 -19 -45 -13 0 -21 -8 -23 -22 -2 -15 -11 -24 -25
-26 -19 -3 -23 -10 -23 -42 0 -32 -4 -39 -22 -42 -15 -2 -24 -11 -26 -25 -2
-15 -10 -23 -23 -23 -12 0 -19 -7 -19 -19 0 -13 -8 -21 -22 -23 -15 -2 -24
-11 -26 -25 -2 -15 -10 -23 -23 -23 -12 0 -19 -7 -19 -19 0 -13 -8 -21 -22
-23 -15 -2 -24 -11 -26 -25 -2 -15 -10 -23 -23 -23 -12 0 -19 -7 -19 -19 0
-15 -10 -20 -45 -25 -36 -6 -45 -11 -45 -27 0 -14 -7 -19 -25 -19 -18 0 -25
-5 -25 -19 0 -16 -9 -21 -45 -27 -35 -5 -45 -10 -45 -25 0 -16 -8 -19 -45 -19
-38 0 -45 -3 -45 -19 0 -17 -10 -20 -85 -26 -74 -6 -85 -10 -85 -26 0 -14 -7
-19 -25 -19 -18 0 -25 5 -25 20 0 13 7 20 20 20 15 0 20 7 20 25 0 20 5 25 25
25 18 0 25 5 25 19 0 15 10 20 45 25 36 6 45 11 45 27 0 14 7 19 25 19 18 0
25 5 25 20 0 13 7 20 20 20 15 0 20 7 20 25 0 20 5 25 25 25 18 0 25 5 25 19
0 27 -12 32 -59 25 -31 -5 -41 -11 -41 -25 0 -16 -8 -19 -45 -19 -37 0 -45 -3
-45 -19 0 -20 -34 -31 -96 -31 -27 0 -34 -4 -34 -20 0 -19 -7 -20 -90 -20 -81
0 -90 -2 -90 -18 0 -17 -14 -19 -180 -26 -99 -3 -261 -3 -360 0 -166 7 -180 9
-180 26 0 16 -10 18 -115 18 -107 0 -115 1 -115 19 0 17 -10 20 -85 26 -74 6
-85 10 -85 26 0 16 -8 19 -50 19 -43 0 -50 3 -50 19 0 16 -9 21 -45 27 -35 5
-45 10 -45 25 0 16 -8 19 -45 19 -38 0 -45 3 -45 19 0 16 -9 21 -45 27 -35 5
-45 10 -45 25 0 15 -7 19 -39 19 -33 0 -40 4 -43 23 -2 14 -11 23 -25 25 -15
2 -23 10 -23 23 0 16 -7 19 -45 19 -41 0 -45 2 -45 25 0 18 -5 25 -20 25 -13
0 -20 7 -20 20 0 15 -7 20 -25 20 -18 0 -25 5 -25 19 0 13 -8 21 -22 23 -15 2
-24 11 -26 26 -3 18 -10 22 -42 22 -32 0 -39 4 -42 23 -2 14 -11 23 -25 25
-15 2 -23 10 -23 23 0 12 -7 19 -19 19 -13 0 -21 8 -23 23 -2 14 -11 23 -25
25 -15 2 -23 10 -23 23 0 12 -7 19 -19 19 -15 0 -20 10 -25 45 -6 36 -11 45
-27 45 -12 0 -19 7 -19 19 0 13 -8 21 -22 23 -15 2 -24 11 -26 26 -2 14 -10
22 -23 22 -14 0 -19 7 -19 25 0 18 -5 25 -19 25 -15 0 -21 10 -26 40 -5 30
-11 40 -26 40 -14 0 -19 7 -19 25 0 18 -5 25 -19 25 -15 0 -20 10 -25 45 -6
36 -11 45 -27 45 -14 0 -19 7 -19 25 0 18 -5 25 -19 25 -16 0 -21 9 -27 45 -5
35 -10 45 -25 45 -16 0 -19 8 -19 45 0 38 -3 45 -19 45 -16 0 -21 9 -27 45 -5
35 -10 45 -25 45 -17 0 -19 8 -19 65 0 57 -2 65 -19 65 -15 0 -20 10 -25 45
-6 36 -11 45 -27 45 -17 0 -19 7 -19 70 0 62 -2 70 -19 70 -17 0 -20 11 -26
90 -6 79 -9 90 -26 90 -18 0 -19 9 -19 130 0 120 -1 130 -19 130 -17 0 -18 14
-23 205 -3 113 -3 297 0 410 5 191 6 205 23 205 18 0 19 11 19 155 0 147 1
155 19 155 16 0 21 9 27 45 6 44 7 45 44 45 32 0 39 4 42 23 2 14 11 23 26 25
14 2 22 10 22 23 0 12 7 19 19 19 16 0 21 9 27 45 5 35 10 45 25 45 14 0 19 7
19 25 0 18 5 25 19 25 20 0 31 34 31 96 0 27 4 34 20 34 17 0 20 7 20 45 0 38
3 45 20 45 16 0 20 7 20 33 0 68 12 107 31 107 17 0 19 8 19 65 0 58 2 65 19
65 16 0 21 9 27 45 5 35 10 45 25 45 16 0 19 8 19 45 0 38 3 45 20 45 13 0 20
7 20 20 0 15 7 20 25 20 20 0 25 5 25 25 l0 25 135 0 c128 0 135 -1 135 -20 0
-19 7 -20 90 -20 83 0 90 1 90 20 0 18 7 20 64 20 59 0 65 2 68 23 2 14 11 23
26 25 14 2 22 10 22 23 0 14 7 19 25 19 18 0 25 5 25 20 0 13 7 20 20 20 15 0
20 7 20 25 0 20 5 25 25 25 18 0 25 5 25 20 0 13 7 20 20 20 15 0 20 7 20 25
0 20 5 25 25 25 18 0 25 5 25 19 0 16 9 21 45 27 35 5 45 10 45 25 0 18 11 19
220 19 210 0 220 -1 220 -19 0 -15 10 -20 50 -26 40 -6 50 -11 50 -26 0 -16 7
-19 45 -19 37 0 45 -3 45 -19 0 -23 35 -31 130 -31 95 0 130 8 130 31 0 14 7
19 25 19 18 0 25 5 25 19 0 15 10 20 45 25 36 6 45 11 45 27 0 14 7 19 25 19
18 0 25 5 25 19 0 15 10 21 40 26 30 5 40 11 40 26 0 14 7 19 25 19 18 0 25 5
25 19 0 15 10 20 45 25 36 6 45 11 45 27 0 16 7 19 45 19 38 0 45 3 45 20 0
19 7 20 90 20 83 0 90 -1 90 -20z m-3457 -1596 c27 -5 37 -11 37 -25 0 -17 8
-19 65 -19 l65 0 0 -45 c0 -38 -3 -45 -20 -45 -19 0 -20 -7 -20 -160 0 -153
-1 -160 -20 -160 -13 0 -20 -7 -20 -20 0 -15 -7 -20 -25 -20 -18 0 -25 5 -25
19 0 13 -8 21 -22 23 -15 2 -24 11 -26 26 -2 14 -10 22 -23 22 -14 0 -19 7
-19 25 0 18 -5 25 -19 25 -15 0 -21 10 -26 40 -5 30 -11 40 -26 40 -17 0 -19
8 -19 70 0 63 -2 70 -20 70 -17 0 -20 7 -20 45 0 38 3 45 20 45 15 0 20 7 20
25 0 24 3 25 53 25 28 0 69 -3 90 -6z m4720 -2344 c40 0 47 -3 47 -20 0 -19 7
-20 90 -20 83 0 90 -1 90 -20 0 -15 7 -20 28 -20 63 0 102 -12 102 -31 0 -17
8 -19 70 -19 63 0 70 -2 70 -19 0 -16 9 -21 45 -27 35 -5 45 -10 45 -25 0 -12
7 -19 20 -19 19 0 20 -7 20 -110 0 -101 -2 -110 -19 -110 -19 0 -31 -39 -31
-107 0 -26 -4 -33 -20 -33 -18 0 -20 -7 -20 -64 0 -59 -2 -65 -22 -68 -19 -2
-24 -10 -26 -45 -3 -35 -7 -43 -23 -43 -14 0 -19 -7 -19 -25 0 -18 -5 -25 -19
-25 -16 0 -21 -9 -27 -45 -5 -35 -10 -45 -25 -45 -12 0 -19 -7 -19 -19 0 -13
-8 -21 -22 -23 -15 -2 -24 -11 -26 -25 -2 -15 -10 -23 -23 -23 -12 0 -19 -7
-19 -19 0 -13 -8 -21 -22 -23 -15 -2 -24 -11 -26 -25 -3 -19 -10 -23 -43 -23
-32 0 -39 -3 -39 -20 0 -15 -7 -20 -25 -20 -20 0 -25 -5 -25 -25 0 -23 -4 -25
-45 -25 -38 0 -45 -3 -45 -19 0 -16 -9 -21 -45 -27 -35 -5 -45 -10 -45 -25 0
-16 -8 -19 -45 -19 -37 0 -45 -3 -45 -19 0 -15 -10 -20 -45 -25 -36 -6 -45
-11 -45 -27 0 -17 -7 -19 -70 -19 -62 0 -70 -2 -70 -19 0 -16 -11 -20 -85 -26
-75 -6 -85 -9 -85 -26 0 -16 -7 -19 -50 -19 -43 0 -50 -3 -50 -19 0 -15 -10
-21 -40 -26 -30 -5 -40 -11 -40 -26 0 -14 -7 -19 -25 -19 -23 0 -25 -4 -25
-45 0 -37 -3 -45 -19 -45 -21 0 -31 -40 -31 -127 0 -46 -3 -53 -20 -53 -18 0
-20 -7 -20 -71 l0 -72 -37 7 c-21 3 -62 6 -90 6 -46 0 -53 3 -53 20 0 13 -7
20 -20 20 -13 0 -20 7 -20 19 0 15 -10 20 -45 25 -36 6 -45 11 -45 27 0 18 -8
19 -140 19 -133 0 -140 1 -140 20 0 17 -7 20 -42 20 -24 0 -73 3 -110 7 -57 5
-68 9 -68 24 0 17 -9 19 -90 19 -83 0 -90 1 -90 20 0 16 -7 20 -32 20 -69 0
-108 12 -108 31 0 16 -8 19 -45 19 -38 0 -45 3 -45 20 0 17 -7 20 -45 20 -38
0 -45 -3 -45 -20 0 -19 -7 -20 -90 -20 -83 0 -90 1 -90 20 0 17 -7 20 -45 20
-38 0 -45 -3 -45 -20 0 -19 -7 -20 -90 -20 -83 0 -90 1 -90 20 0 17 -7 20 -40
20 -36 0 -40 3 -40 25 0 18 5 25 20 25 17 0 20 7 20 45 0 41 2 45 25 45 23 0
25 4 25 45 0 41 -2 45 -25 45 -20 0 -25 5 -25 25 0 20 -5 25 -25 25 -18 0 -25
5 -25 20 0 17 -7 20 -39 20 -33 0 -40 4 -43 23 -2 14 -11 23 -25 25 -15 2 -23
10 -23 23 0 14 -7 19 -25 19 -18 0 -25 5 -25 20 0 15 7 20 25 20 18 0 25 -5
25 -20 0 -19 7 -20 90 -20 81 0 90 -2 90 -19 0 -15 11 -19 68 -24 37 -4 88 -7
115 -7 40 0 47 -3 47 -20 0 -19 7 -20 155 -20 146 0 155 -1 155 -19 0 -13 8
-21 23 -23 14 -2 23 -11 25 -25 3 -19 10 -23 43 -23 32 0 39 -4 39 -19 0 -15
10 -20 45 -25 36 -6 45 -11 45 -27 0 -17 7 -19 70 -19 63 0 70 -2 70 -20 0
-19 7 -20 205 -20 198 0 205 1 205 20 0 18 7 20 85 20 78 0 85 2 85 19 0 17 8
20 48 23 40 3 47 6 50 26 3 20 9 22 68 22 57 0 64 2 64 19 0 13 8 21 23 23 14
2 23 11 25 26 3 19 9 22 48 22 37 0 44 3 44 20 0 13 7 20 20 20 15 0 20 7 20
25 0 23 4 25 45 25 41 0 45 2 45 25 0 18 5 25 20 25 13 0 20 7 20 20 0 15 7
20 25 20 18 0 25 5 25 19 0 13 8 21 23 23 14 2 23 11 25 26 2 14 10 22 23 22
14 0 19 7 19 25 0 18 5 25 20 25 13 0 20 7 20 20 0 15 7 20 25 20 23 0 25 4
25 45 0 38 3 45 19 45 13 0 21 8 23 23 2 14 11 23 26 25 19 3 22 9 22 48 0 37
3 44 19 44 16 0 21 9 27 45 5 35 10 45 25 45 17 0 19 8 19 65 0 57 2 65 19 65
15 0 19 11 24 68 4 37 7 88 7 115 0 40 3 47 20 47 18 0 20 7 20 85 0 78 -2 85
-20 85 -17 0 -20 7 -20 44 0 53 9 57 110 50 36 -2 86 -4 113 -4z m-3293 -1860
c0 -19 7 -20 104 -20 131 0 166 -7 166 -31 0 -12 -7 -19 -20 -19 -15 0 -20 -7
-20 -26 l0 -27 -67 6 c-38 4 -139 7 -225 7 -151 0 -158 1 -158 20 0 13 -7 20
-20 20 -11 0 -20 6 -20 14 0 7 -3 28 -6 45 l-6 31 136 0 c129 0 136 -1 136
-20z m770 -45 c0 -18 -5 -25 -20 -25 -15 0 -20 7 -20 25 0 18 5 25 20 25 15 0
20 -7 20 -25z m-1130 -5 c0 -15 7 -20 25 -20 23 0 25 -4 25 -45 0 -38 3 -45
20 -45 17 0 20 -7 20 -45 0 -41 2 -45 25 -45 23 0 25 -4 25 -45 0 -38 3 -45
20 -45 17 0 20 -7 20 -45 0 -41 2 -45 25 -45 23 0 25 -4 25 -45 0 -37 3 -45
19 -45 15 0 20 -10 25 -45 6 -36 11 -45 27 -45 16 0 19 -7 19 -45 0 -37 3 -45
19 -45 15 0 20 -10 25 -45 6 -36 11 -45 27 -45 14 0 19 -7 19 -25 0 -18 5 -25
20 -25 17 0 20 -7 20 -45 0 -41 2 -45 25 -45 23 0 25 -4 25 -45 0 -38 3 -45
19 -45 16 0 20 -8 23 -42 2 -36 7 -44 26 -46 21 -3 22 -8 22 -93 0 -80 -2 -89
-19 -89 -20 0 -31 -34 -31 -96 0 -27 -4 -34 -20 -34 -15 0 -20 7 -20 25 0 18
-5 25 -20 25 -17 0 -20 7 -20 45 0 41 -2 45 -25 45 -23 0 -25 4 -25 45 0 38
-3 45 -20 45 -17 0 -20 7 -20 45 0 41 -2 45 -25 45 -23 0 -25 4 -25 45 0 38
-3 45 -20 45 -16 0 -20 7 -20 34 0 62 -11 96 -31 96 -16 0 -19 8 -19 45 0 38
-3 45 -20 45 -17 0 -20 7 -20 45 0 41 -2 45 -25 45 -23 0 -25 4 -25 45 0 38
-3 45 -20 45 -17 0 -20 7 -20 45 0 41 -2 45 -25 45 -23 0 -25 4 -25 45 0 38
-3 45 -20 45 -17 0 -20 7 -20 45 0 41 -2 45 -25 45 -23 0 -25 4 -25 45 0 38
-3 45 -20 45 -17 0 -20 7 -20 45 0 41 -2 45 -25 45 -23 0 -25 4 -25 45 l0 45
45 0 c38 0 45 3 45 20 0 13 7 20 20 20 13 0 20 -7 20 -20z m900 0 c0 -13 -7
-20 -20 -20 -13 0 -20 7 -20 20 0 13 7 20 20 20 13 0 20 -7 20 -20z m820 0 c0
-13 7 -20 20 -20 13 0 20 -7 20 -20 0 -19 -7 -20 -90 -20 -83 0 -90 1 -90 20
0 15 7 20 25 20 18 0 25 5 25 20 0 17 7 20 45 20 38 0 45 -3 45 -20z m260 0
c0 -17 7 -20 45 -20 l45 0 0 -45 0 -45 -85 0 c-84 0 -85 0 -85 25 0 20 -5 25
-25 25 -22 0 -25 4 -25 40 l0 40 65 0 c58 0 65 -2 65 -20z m-580 -40 c0 -17
-7 -20 -45 -20 -38 0 -45 3 -45 20 0 17 7 20 45 20 38 0 45 -3 45 -20z m-1620
-50 c0 -13 7 -20 20 -20 17 0 20 -7 20 -45 0 -38 -3 -45 -20 -45 -17 0 -20 7
-20 45 0 38 -3 45 -20 45 -13 0 -20 7 -20 20 0 13 7 20 20 20 13 0 20 -7 20
-20z m630 -40 c0 -18 7 -20 79 -20 106 0 141 -8 141 -31 0 -14 7 -19 25 -19
18 0 25 -5 25 -20 0 -15 7 -20 25 -20 18 0 25 5 25 20 0 19 7 20 245 20 238 0
245 -1 245 -20 0 -17 7 -20 45 -20 38 0 45 3 45 20 0 13 7 20 20 20 13 0 20
-7 20 -19 0 -26 40 -31 263 -31 180 0 187 -1 187 -20 0 -19 7 -20 230 -20 221
0 230 -1 230 -19 0 -16 9 -21 45 -27 35 -5 45 -10 45 -25 0 -15 7 -19 40 -19
36 0 40 -2 40 -25 0 -20 5 -25 25 -25 23 0 25 -4 25 -40 0 -33 3 -40 20 -40
15 0 20 -7 20 -25 0 -20 5 -25 25 -25 23 0 25 -4 25 -45 0 -37 3 -45 19 -45
15 0 20 -10 25 -45 6 -36 11 -45 27 -45 14 0 19 -7 19 -25 0 -18 5 -25 19 -25
16 0 21 -9 27 -45 5 -35 10 -45 25 -45 15 0 19 -7 19 -40 0 -33 3 -40 19 -40
15 0 20 -10 26 -50 6 -40 11 -50 26 -50 16 0 19 -7 19 -45 0 -38 3 -45 20 -45
13 0 20 -7 20 -20 0 -13 -7 -20 -20 -20 -13 0 -20 -7 -20 -20 0 -18 -7 -20
-65 -20 -58 0 -65 2 -65 20 0 19 -7 20 -230 20 -223 0 -230 -1 -230 -20 0 -19
-7 -20 -245 -20 -238 0 -245 1 -245 20 0 17 -7 20 -45 20 -37 0 -45 3 -45 19
0 28 -34 31 -301 31 -232 0 -239 1 -239 20 0 19 -7 20 -180 20 -173 0 -180 1
-180 20 0 16 -7 20 -34 20 -18 0 -47 3 -64 6 -26 5 -32 12 -37 45 -5 29 -11
39 -26 39 -16 0 -19 7 -19 45 0 37 -3 45 -19 45 -15 0 -20 10 -25 45 -6 36
-11 45 -27 45 -14 0 -19 7 -19 25 0 18 -5 25 -20 25 -17 0 -20 7 -20 45 0 41
-2 45 -25 45 -23 0 -25 4 -25 45 0 37 -3 45 -19 45 -15 0 -20 10 -25 45 -6 36
-11 45 -27 45 -16 0 -19 7 -19 45 0 37 -3 45 -19 45 -15 0 -20 10 -25 45 -6
36 -11 45 -27 45 -16 0 -19 7 -19 45 0 38 -3 45 -20 45 -11 0 -20 6 -20 14 0
7 -3 28 -6 45 l-6 31 116 0 c109 0 116 -1 116 -20z m2020 0 c0 -13 -7 -20 -20
-20 -17 0 -20 -7 -20 -45 l0 -45 -45 0 c-38 0 -45 3 -45 20 0 17 -7 20 -45 20
l-45 0 0 45 0 45 110 0 c103 0 110 -1 110 -20z m-3460 -50 c0 -17 7 -20 45
-20 38 0 45 -3 45 -19 0 -16 9 -21 45 -27 35 -5 45 -10 45 -25 0 -12 7 -19 19
-19 13 0 21 -8 23 -22 2 -15 11 -24 26 -26 18 -3 22 -10 22 -43 0 -32 4 -39
19 -39 15 0 20 -10 25 -45 6 -36 11 -45 27 -45 16 0 19 -7 19 -45 0 -38 3 -45
20 -45 16 0 20 -7 20 -32 0 -69 12 -108 31 -108 17 0 19 -9 19 -90 0 -83 1
-90 20 -90 18 0 20 -7 20 -77 0 -113 9 -153 31 -153 18 0 19 -16 19 -400 0
-383 -1 -400 -19 -400 -15 0 -19 -11 -24 -67 -4 -38 -7 -89 -7 -115 0 -41 -3
-48 -20 -48 -19 0 -20 -7 -20 -90 0 -82 -2 -90 -19 -90 -16 0 -21 -9 -27 -45
-5 -35 -10 -45 -25 -45 -17 0 -19 -8 -19 -70 0 -62 -2 -70 -19 -70 -20 0 -31
-34 -31 -96 0 -27 -4 -34 -20 -34 -13 0 -20 -7 -20 -20 0 -13 -7 -20 -19 -20
-15 0 -20 -10 -25 -45 -6 -36 -11 -45 -27 -45 -14 0 -19 -7 -19 -25 0 -24 -2
-25 -64 -25 -59 0 -65 2 -68 23 -2 14 -11 23 -25 25 -29 4 -32 42 -4 42 16 0
21 9 27 45 5 35 10 45 25 45 14 0 19 7 19 25 0 18 5 25 19 25 15 0 21 10 26
40 5 30 11 40 26 40 16 0 19 7 19 50 0 43 3 50 19 50 15 0 21 10 26 40 5 30
11 40 26 40 16 0 19 7 19 50 0 43 3 50 19 50 17 0 20 10 26 85 6 74 10 85 26
85 17 0 19 9 19 90 0 81 2 90 19 90 23 0 31 40 31 173 0 90 1 97 20 97 20 0
20 7 20 295 0 288 0 295 -20 295 -18 0 -20 7 -20 78 0 112 -9 152 -31 152 -17
0 -19 8 -19 65 0 58 -2 65 -20 65 -17 0 -19 8 -22 68 -3 61 -5 67 -25 70 -19
3 -23 10 -23 43 0 32 -4 39 -19 39 -15 0 -20 10 -25 45 -6 36 -11 45 -27 45
-14 0 -19 7 -19 25 0 18 -5 25 -19 25 -13 0 -21 8 -23 23 -2 14 -11 23 -25 25
-15 2 -23 10 -23 23 0 12 -7 19 -19 19 -13 0 -21 8 -23 23 -2 18 -10 23 -45
25 -35 3 -43 7 -43 23 0 14 -7 19 -25 19 -18 0 -25 5 -25 20 0 17 7 20 45 20
38 0 45 -3 45 -20z m400 0 c0 -15 7 -20 25 -20 23 0 25 -4 25 -45 0 -37 3 -45
19 -45 15 0 20 -10 25 -45 6 -36 11 -45 27 -45 14 0 19 -7 19 -25 0 -18 5 -25
20 -25 18 0 20 -7 20 -85 0 -78 -2 -85 -20 -85 -15 0 -20 -7 -20 -25 0 -18 -5
-25 -20 -25 -16 0 -20 7 -20 34 0 62 -11 96 -31 96 -14 0 -19 7 -19 25 0 18
-5 25 -20 25 -15 0 -20 7 -20 25 0 20 -5 25 -25 25 -23 0 -25 4 -25 45 0 38
-3 45 -20 45 -17 0 -20 7 -20 45 0 38 3 45 20 45 17 0 20 7 20 40 0 33 3 40
20 40 13 0 20 -7 20 -20z m320 -45 c0 -18 5 -25 19 -25 16 0 20 -8 23 -42 2
-36 7 -44 26 -46 18 -3 22 -10 22 -43 0 -32 3 -39 20 -39 15 0 20 -7 20 -25 0
-25 -1 -25 -84 -25 l-84 0 -6 45 c-6 36 -11 45 -27 45 -14 0 -19 7 -19 25 0
18 -5 25 -20 25 -17 0 -20 7 -20 45 0 41 -2 45 -25 45 -18 0 -25 5 -25 20 0
19 7 20 90 20 89 0 90 0 90 -25z m180 -20 c0 -38 3 -45 20 -45 17 0 20 -7 20
-45 0 -38 -3 -45 -20 -45 -17 0 -20 7 -20 45 0 38 -3 45 -20 45 -17 0 -20 7
-20 45 0 38 3 45 20 45 17 0 20 -7 20 -45z m2650 0 c0 -41 2 -45 25 -45 23 0
25 -4 25 -45 0 -38 3 -45 20 -45 17 0 20 -7 20 -45 0 -41 2 -45 25 -45 23 0
25 -4 25 -45 0 -37 3 -45 19 -45 15 0 20 -10 25 -45 6 -36 11 -45 27 -45 14 0
19 -7 19 -25 0 -18 -5 -25 -20 -25 -15 0 -20 7 -20 25 0 20 -5 25 -25 25 -23
0 -25 4 -25 45 0 38 -3 45 -20 45 -15 0 -20 7 -20 25 0 20 -5 25 -25 25 -23 0
-25 4 -25 45 0 38 -3 45 -20 45 -13 0 -20 7 -20 20 0 15 -7 20 -25 20 -20 0
-25 5 -25 25 0 18 -5 25 -20 25 -17 0 -20 7 -20 45 0 38 3 45 20 45 13 0 20 7
20 20 0 13 7 20 20 20 17 0 20 -7 20 -45z m-3699 -5 c52 0 59 -2 59 -20 0 -15
7 -20 25 -20 18 0 25 -5 25 -19 0 -15 10 -21 40 -26 30 -5 40 -11 40 -26 0
-14 7 -19 25 -19 20 0 25 -5 25 -25 0 -18 5 -25 20 -25 13 0 20 -7 20 -20 0
-15 7 -20 25 -20 23 0 25 -4 25 -45 0 -38 3 -45 20 -45 17 0 20 -7 20 -45 0
-41 2 -45 25 -45 24 0 25 -2 25 -70 0 -63 2 -70 20 -70 16 0 20 -7 20 -34 0
-62 11 -96 31 -96 17 0 19 -9 19 -115 0 -108 1 -115 20 -115 19 0 20 -7 20
-200 0 -193 -1 -200 -20 -200 -19 0 -20 -7 -20 -180 0 -169 -1 -180 -19 -180
-21 0 -31 -40 -31 -127 0 -46 -3 -53 -20 -53 -19 0 -20 -7 -20 -90 0 -82 -2
-90 -19 -90 -15 0 -20 -10 -25 -45 -6 -36 -11 -45 -27 -45 -16 0 -19 -7 -19
-45 0 -38 -3 -45 -19 -45 -16 0 -21 -9 -27 -45 -5 -35 -10 -45 -25 -45 -16 0
-19 -8 -19 -45 0 -38 -3 -45 -20 -45 -17 0 -20 7 -20 45 0 38 3 45 20 45 17 0
20 7 20 45 0 41 2 45 25 45 23 0 25 4 25 45 0 38 3 45 20 45 19 0 20 7 20 90
0 81 2 90 19 90 24 0 31 35 31 166 0 97 1 104 20 104 20 0 20 7 20 340 0 333
0 340 -20 340 -19 0 -20 7 -20 114 0 62 -3 141 -6 175 -6 50 -10 61 -25 61
-17 0 -19 9 -19 90 0 82 -2 90 -19 90 -15 0 -20 10 -26 50 -6 40 -11 50 -26
50 -16 0 -19 7 -19 45 0 38 -3 45 -19 45 -15 0 -21 10 -26 40 -5 30 -11 40
-26 40 -14 0 -19 7 -19 25 0 18 -5 25 -19 25 -13 0 -21 8 -23 23 -2 14 -11 23
-25 25 -15 2 -23 10 -23 23 0 17 -8 19 -90 19 l-90 0 0 26 c0 24 3 26 31 20
17 -3 58 -6 90 -6z m3979 -20 c0 -19 7 -20 155 -20 l155 0 0 -45 c0 -41 -2
-45 -25 -45 -18 0 -25 -5 -25 -20 0 -13 -7 -20 -20 -20 -15 0 -20 -7 -20 -25
0 -18 -5 -25 -20 -25 -17 0 -20 -7 -20 -45 0 -38 3 -45 20 -45 17 0 20 -7 20
-45 0 -38 -3 -45 -20 -45 -13 0 -20 -7 -20 -20 0 -15 -7 -20 -25 -20 -20 0
-25 -5 -25 -25 0 -18 -5 -25 -20 -25 -17 0 -20 7 -20 45 0 41 -2 45 -25 45
-23 0 -25 4 -25 45 0 38 -3 45 -20 45 -17 0 -20 7 -20 45 0 41 -2 45 -25 45
-24 0 -25 2 -25 65 0 58 -2 65 -20 65 -17 0 -20 7 -20 45 l0 45 45 0 c38 0 45
-3 45 -20z m530 -79 c0 -5 3 -23 6 -40 l7 -31 -47 0 c-39 0 -46 3 -46 20 0 15
-7 20 -25 20 -18 0 -25 5 -25 20 0 18 7 20 65 20 36 0 65 -4 65 -9z m-4540
-56 c0 -18 -5 -25 -19 -25 -15 0 -21 -10 -26 -40 -5 -30 -11 -40 -26 -40 -14
0 -19 -7 -19 -25 0 -33 -37 -35 -42 -2 -3 19 -10 22 -50 25 -51 3 -51 3 -42
51 5 21 12 31 25 31 14 0 19 7 19 25 0 25 1 25 90 25 89 0 90 0 90 -25z m1170
-20 c0 -38 -3 -45 -20 -45 -17 0 -20 7 -20 45 0 38 3 45 20 45 17 0 20 -7 20
-45z m3240 -25 c0 -18 7 -20 71 -20 l72 0 -7 -31 c-3 -17 -6 -49 -6 -70 l0
-39 -52 0 c-88 0 -128 10 -128 31 0 12 -7 19 -20 19 -17 0 -20 7 -20 45 0 38
3 45 20 45 13 0 20 7 20 20 0 15 7 20 25 20 18 0 25 -5 25 -20z m270 0 c0 -13
7 -20 19 -20 13 0 21 -8 23 -22 2 -15 11 -24 26 -26 14 -2 22 -10 22 -23 0
-12 7 -19 20 -19 16 0 20 -7 20 -34 0 -18 3 -48 6 -65 l7 -31 -117 0 -116 0 0
45 c0 38 3 45 19 45 17 0 20 10 26 85 6 74 10 85 26 85 12 0 19 -7 19 -20z
m-3470 -85 c0 -18 -5 -25 -20 -25 -15 0 -20 7 -20 25 0 18 5 25 20 25 15 0 20
-7 20 -25z m50 -95 c0 -13 -7 -20 -20 -20 -13 0 -20 7 -20 20 0 13 7 20 20 20
13 0 20 -7 20 -20z m-1480 -90 c0 -19 7 -20 180 -20 l180 0 0 -25 c0 -18 5
-25 20 -25 18 0 20 -7 20 -85 0 -76 2 -85 19 -85 15 0 19 -11 25 -77 3 -42 6
-93 6 -115 0 -31 3 -38 20 -38 20 0 20 -7 20 -385 0 -378 0 -385 -20 -385 -17
0 -20 -7 -20 -42 0 -24 -3 -73 -7 -110 -5 -57 -9 -68 -24 -68 -12 0 -19 -7
-19 -20 0 -19 -7 -20 -97 -20 -133 0 -173 -8 -173 -31 0 -12 -7 -19 -20 -19
-13 0 -20 -7 -20 -19 0 -15 -10 -20 -45 -25 -36 -6 -45 -11 -45 -27 0 -17 -8
-19 -95 -19 -88 0 -95 -1 -95 -20 0 -19 -7 -20 -135 -20 -128 0 -135 1 -135
20 0 19 -7 20 -155 20 -145 0 -155 1 -155 19 0 15 -10 20 -45 25 -68 11 -135
-2 -135 -25 0 -12 -7 -19 -19 -19 -13 0 -21 -8 -23 -22 -2 -15 -11 -24 -25
-26 -15 -2 -23 -10 -23 -23 0 -12 -7 -19 -19 -19 -13 0 -21 -8 -23 -22 -2 -15
-11 -24 -25 -26 -19 -3 -23 -10 -23 -43 0 -31 -4 -39 -19 -39 -22 0 -31 -40
-31 -141 0 -94 8 -129 31 -129 14 0 19 -7 19 -25 0 -18 5 -25 20 -25 17 0 20
-7 20 -45 0 -38 -3 -45 -20 -45 -13 0 -20 7 -20 19 0 17 -11 20 -90 26 -79 6
-90 9 -90 26 0 16 -8 19 -45 19 -38 0 -45 3 -45 20 0 11 -4 21 -10 21 -5 1
-16 2 -22 3 -7 0 -14 7 -14 14 -1 6 -2 17 -3 22 0 6 -10 10 -21 10 -19 0 -20
7 -20 155 0 145 1 155 19 155 15 0 20 10 25 45 6 36 11 45 27 45 14 0 19 7 19
25 0 18 5 25 19 25 13 0 21 8 23 23 2 14 11 23 26 25 18 3 22 10 22 42 0 32 4
39 23 42 14 2 23 11 25 26 3 18 10 22 42 22 32 0 39 4 42 23 2 14 11 23 26 25
14 2 22 10 22 23 0 14 7 19 25 19 18 0 25 5 25 19 0 15 10 21 40 26 30 5 40
11 40 26 0 14 7 19 25 19 24 0 25 2 25 65 0 58 -2 65 -20 65 -15 0 -20 7 -20
25 0 25 -1 25 -90 25 -82 0 -90 -2 -90 -19 0 -15 -10 -20 -45 -25 -36 -6 -45
-11 -45 -27 0 -14 -7 -19 -25 -19 -18 0 -25 -5 -25 -19 0 -16 -9 -21 -45 -27
-35 -5 -45 -10 -45 -25 0 -12 -7 -19 -19 -19 -13 0 -21 -8 -23 -22 -2 -13 -9
-24 -15 -24 -7 -1 -17 -2 -23 -3 -5 0 -10 -10 -10 -21 0 -15 -7 -20 -25 -20
-18 0 -25 -5 -25 -20 0 -13 -7 -20 -20 -20 -15 0 -20 -7 -20 -25 0 -18 -5 -25
-20 -25 -11 0 -21 -4 -21 -10 -1 -5 -2 -16 -3 -22 0 -7 -11 -14 -24 -16 -18
-3 -22 -10 -22 -42 0 -32 -4 -39 -23 -42 -14 -2 -23 -11 -25 -25 -4 -30 -42
-32 -42 -3 0 13 -7 20 -19 20 -22 0 -31 40 -31 140 0 100 9 140 31 140 15 0
19 8 19 40 0 33 3 40 20 40 15 0 20 7 20 25 0 20 5 25 25 25 23 0 25 4 25 45
0 41 2 45 25 45 18 0 25 5 25 20 0 13 7 20 20 20 15 0 20 7 20 25 0 20 5 25
25 25 18 0 25 5 25 19 0 15 10 21 40 26 30 5 40 11 40 26 0 14 7 19 25 19 20
0 25 5 25 25 0 20 5 25 25 25 18 0 25 5 25 20 0 18 7 20 65 20 63 0 65 1 65
25 0 18 5 25 19 25 22 0 34 47 25 97 -4 23 -12 33 -25 33 -14 0 -19 7 -19 25
0 24 -3 25 -59 25 -86 0 -121 -9 -121 -31 0 -16 -8 -19 -45 -19 -37 0 -45 -3
-45 -19 0 -15 -10 -20 -45 -25 -36 -6 -45 -11 -45 -27 0 -14 -7 -19 -25 -19
-18 0 -25 -5 -25 -20 0 -13 -7 -20 -20 -20 -15 0 -20 -7 -20 -25 0 -20 -5 -25
-25 -25 -18 0 -25 -5 -25 -20 0 -13 -7 -20 -20 -20 -15 0 -20 -7 -20 -25 0
-20 -5 -25 -25 -25 -18 0 -25 -5 -25 -20 0 -13 -7 -20 -20 -20 -15 0 -20 -7
-20 -25 0 -18 -5 -25 -19 -25 -15 0 -20 -10 -25 -45 -6 -36 -11 -45 -27 -45
-17 0 -19 8 -19 90 0 81 2 90 19 90 19 0 31 39 31 103 0 20 5 27 20 27 15 0
20 7 20 25 0 18 5 25 19 25 15 0 20 10 25 45 6 36 11 45 27 45 14 0 19 7 19
25 0 18 5 25 19 25 15 0 21 10 26 40 5 30 11 40 26 40 14 0 19 7 19 25 0 20 5
25 25 25 18 0 25 5 25 20 0 13 7 20 20 20 15 0 20 7 20 25 0 23 4 25 45 25 41
0 45 2 45 25 0 18 5 25 20 25 13 0 20 7 20 20 0 15 7 20 25 20 18 0 25 5 25
19 0 19 39 31 103 31 20 0 27 5 27 20 0 17 7 20 50 20 43 0 50 3 50 20 0 15 7
20 28 20 63 0 102 12 102 31 0 17 8 19 70 19 63 0 70 2 70 20 0 17 7 20 43 20
23 0 72 3 110 7 56 5 67 9 67 24 0 18 13 19 225 19 218 0 225 1 225 20 0 19 7
20 115 20 108 0 115 -1 115 -20z m1520 0 c0 -13 -7 -20 -20 -20 -13 0 -20 7
-20 20 0 13 7 20 20 20 13 0 20 -7 20 -20z m2700 -45 c0 -18 -5 -25 -20 -25
-15 0 -20 7 -20 25 0 18 5 25 20 25 15 0 20 -7 20 -25z m360 5 c0 -18 7 -20
88 -20 49 0 150 -3 225 -7 l137 -6 0 -26 c0 -62 12 -101 31 -101 17 0 19 -8
19 -65 0 -58 2 -65 19 -65 17 0 20 -8 23 -47 3 -41 6 -48 26 -51 20 -3 22 -9
22 -68 0 -57 2 -64 20 -64 13 0 20 -7 20 -19 0 -27 -34 -31 -276 -31 l-214 0
0 25 c0 18 -5 25 -20 25 -16 0 -20 7 -20 34 0 62 -11 96 -31 96 -17 0 -19 8
-19 70 0 63 -2 70 -20 70 -17 0 -20 7 -20 45 0 41 -2 45 -25 45 -25 0 -25 1
-25 90 0 83 1 90 20 90 13 0 20 -7 20 -20z m-310 -90 c0 -13 -7 -20 -20 -20
-13 0 -20 7 -20 20 0 13 7 20 20 20 13 0 20 -7 20 -20z m40 -50 c0 -15 7 -20
25 -20 18 0 25 -5 25 -19 0 -16 9 -21 45 -27 l45 -6 0 -64 c0 -57 2 -64 20
-64 15 0 20 -7 20 -25 0 -20 5 -25 25 -25 23 0 25 -4 25 -40 l0 -40 -45 0
c-38 0 -45 3 -45 20 0 17 -7 20 -45 20 l-45 0 0 70 c0 63 -2 70 -20 70 -17 0
-20 7 -20 45 0 41 -2 45 -25 45 -22 0 -25 4 -25 40 0 33 3 40 20 40 13 0 20
-7 20 -20z m-2650 -90 c0 -13 -7 -20 -20 -20 -13 0 -20 7 -20 20 0 13 7 20 20
20 13 0 20 -7 20 -20z m-270 -205 c0 -38 3 -45 19 -45 16 0 20 -8 23 -42 2
-36 7 -44 26 -46 14 -2 22 -10 22 -23 0 -16 7 -19 45 -19 41 0 45 -2 45 -25 0
-23 4 -25 45 -25 38 0 45 -3 45 -20 0 -17 7 -20 45 -20 l45 0 0 -135 0 -135
-65 0 c-63 0 -65 1 -65 25 0 20 -5 25 -25 25 -18 0 -25 5 -25 20 0 17 -7 20
-45 20 -41 0 -45 2 -45 25 0 18 -5 25 -20 25 -13 0 -20 7 -20 20 0 15 -7 20
-25 20 -20 0 -25 5 -25 25 0 20 -5 25 -25 25 -18 0 -25 5 -25 20 0 13 -7 20
-20 20 -17 0 -20 7 -20 45 0 38 -3 45 -20 45 -17 0 -20 7 -20 45 0 38 3 45 20
45 15 0 20 7 20 25 0 18 5 25 19 25 15 0 21 10 26 40 5 30 11 40 26 40 16 0
19 -7 19 -45z m1030 -14 c0 -15 11 -19 77 -25 42 -3 174 -6 295 -6 l218 0 0
-90 c0 -83 -1 -90 -20 -90 -15 0 -20 -7 -20 -27 0 -16 -3 -45 -6 -65 l-7 -38
-223 0 c-213 0 -224 1 -224 19 0 17 -13 19 -175 26 -162 7 -175 9 -175 26 0
17 -8 19 -70 19 l-70 0 0 70 c0 62 2 70 19 70 20 0 31 34 31 96 l0 34 175 0
c164 0 175 -1 175 -19z m-1300 -71 c0 -33 3 -40 20 -40 17 0 20 -7 20 -50 0
-47 2 -50 25 -50 23 0 25 -4 25 -45 0 -38 3 -45 19 -45 15 0 21 -10 26 -39 6
-36 10 -40 45 -46 35 -6 39 -10 45 -45 6 -35 10 -39 46 -45 29 -5 39 -11 39
-26 0 -16 7 -19 45 -19 41 0 45 -2 45 -25 0 -20 5 -25 25 -25 18 0 25 -5 25
-20 0 -13 7 -20 20 -20 19 0 20 -7 20 -90 0 -89 0 -90 25 -90 23 0 25 -4 25
-45 0 -41 -2 -45 -25 -45 -23 0 -25 -4 -25 -45 0 -38 -3 -45 -20 -45 -18 0
-20 -7 -20 -65 l0 -65 -45 0 c-41 0 -45 -2 -45 -25 0 -20 -5 -25 -25 -25 -18
0 -25 -5 -25 -20 0 -13 -7 -20 -20 -20 -17 0 -20 -7 -20 -50 l0 -50 45 0 c38
0 45 -3 45 -20 0 -15 -7 -20 -25 -20 -18 0 -25 -5 -25 -20 0 -18 -7 -20 -85
-20 -78 0 -85 2 -85 20 0 15 -7 20 -25 20 -18 0 -25 5 -25 19 0 16 -9 21 -45
27 -35 5 -45 10 -45 25 0 12 -7 19 -20 19 -15 0 -20 7 -20 25 0 20 -5 25 -25
25 l-25 0 0 155 c0 145 1 155 19 155 27 0 31 34 31 276 0 207 1 214 20 214 18
0 20 7 20 70 0 63 -2 70 -20 70 -19 0 -20 7 -20 110 0 103 1 110 20 110 17 0
20 -7 20 -40z m580 -20 c0 -17 -7 -20 -40 -20 -33 0 -40 3 -40 20 0 17 7 20
40 20 33 0 40 -3 40 -20z m1400 -5 l0 -25 290 0 c283 0 290 0 290 -20 0 -13
-7 -20 -20 -20 -19 0 -20 -7 -20 -135 l0 -135 -270 0 c-258 0 -270 1 -270 19
0 15 -10 20 -45 25 l-45 7 0 65 c0 56 2 64 19 64 22 0 31 35 31 121 0 52 2 59
20 59 15 0 20 -7 20 -25z m940 5 c0 -19 7 -20 103 -20 56 0 180 -3 275 -7
l174 -6 -6 -151 c-3 -83 -5 -152 -6 -153 0 -2 -171 -3 -380 -3 -373 0 -380 0
-380 20 0 18 -7 20 -65 20 l-65 0 0 70 c0 63 2 70 20 70 19 0 20 7 20 90 l0
90 155 0 c148 0 155 -1 155 -20z m1130 -179 c0 -15 10 -20 45 -25 36 -6 45
-11 45 -27 0 -12 7 -19 20 -19 18 0 20 -7 20 -64 l0 -65 -45 -7 c-35 -5 -45
-10 -45 -25 0 -17 -8 -19 -85 -19 -77 0 -85 2 -85 19 0 15 -10 20 -50 26 -40
6 -50 11 -50 26 0 16 -7 19 -40 19 l-40 0 0 65 c0 58 2 65 20 65 15 0 20 7 20
25 l0 25 135 0 c126 0 135 -1 135 -19z m-3254 -31 c8 0 14 -9 14 -20 0 -18 7
-20 64 -20 59 0 65 -2 68 -22 3 -20 10 -23 51 -26 39 -3 47 -6 47 -23 0 -18 8
-19 110 -19 l110 0 0 -25 0 -25 200 0 c193 0 200 -1 200 -20 0 -20 7 -20 320
-20 305 0 320 -1 320 -18 0 -17 12 -20 98 -25 53 -4 244 -7 425 -7 320 0 327
0 327 -20 0 -19 7 -20 161 -20 l162 0 -7 -31 c-3 -17 -6 -47 -6 -65 0 -27 -4
-34 -20 -34 -17 0 -20 -7 -20 -50 0 -42 -3 -50 -19 -50 -20 0 -31 -34 -31 -96
0 -27 -4 -34 -20 -34 -17 0 -20 -7 -20 -45 0 -37 -3 -45 -19 -45 -19 0 -31
-39 -31 -107 0 -26 -4 -33 -20 -33 -18 0 -20 -7 -20 -65 0 -63 -1 -65 -25 -65
-23 0 -25 -4 -25 -45 0 -38 -3 -45 -20 -45 -18 0 -20 -7 -20 -65 0 -57 -2 -65
-19 -65 -15 0 -20 -10 -26 -50 -6 -40 -11 -50 -26 -50 -17 0 -19 -8 -19 -65 0
-57 -2 -65 -19 -65 -20 0 -31 -34 -31 -96 l0 -34 -335 0 c-328 0 -335 0 -335
20 0 20 -7 20 -295 20 -280 0 -295 1 -295 18 0 17 -12 20 -97 25 -54 4 -194 7
-310 7 -206 0 -213 1 -213 20 0 20 -7 20 -295 20 -281 0 -295 1 -295 19 0 15
-11 19 -67 24 -38 4 -98 7 -135 7 -61 0 -68 2 -68 20 0 17 -7 20 -45 20 -41 0
-45 2 -45 25 0 18 5 25 19 25 20 0 31 34 31 96 0 27 4 34 20 34 13 0 20 7 20
20 0 17 7 20 45 20 41 0 45 2 45 25 0 18 5 25 19 25 19 0 31 39 31 108 0 25 4
32 20 32 18 0 20 7 20 65 0 58 2 65 19 65 16 0 21 9 27 45 5 35 10 45 25 45
17 0 19 8 19 65 0 57 2 65 19 65 19 0 31 39 31 108 0 25 4 32 20 32 17 0 20 7
20 45 0 37 3 45 19 45 20 0 31 34 31 96 0 27 4 34 20 34 19 0 20 7 20 90 0 83
-1 90 -20 90 -17 0 -20 7 -20 44 0 49 14 58 74 50 16 -2 35 -4 42 -4z m2894
-265 c0 -37 -3 -45 -19 -45 -20 0 -31 -34 -31 -96 0 -27 -4 -34 -20 -34 -15 0
-20 -7 -20 -25 0 -23 -4 -25 -45 -25 l-45 0 0 70 c0 62 2 70 19 70 20 0 31 34
31 96 l0 34 65 0 65 0 0 -45z m90 -20 c0 -23 4 -25 45 -25 37 0 45 -3 45 -19
0 -23 40 -31 173 -31 l97 0 0 -135 0 -135 -25 0 c-18 0 -25 -5 -25 -20 0 -19
-7 -20 -110 -20 -102 0 -110 1 -110 19 0 16 -9 21 -45 27 -35 5 -45 10 -45 25
0 12 -7 19 -19 19 -13 0 -21 8 -23 23 -2 14 -11 23 -25 25 -22 3 -23 8 -23 88
0 76 2 84 19 84 15 0 20 10 26 50 6 40 11 50 26 50 14 0 19 -7 19 -25z m-230
-320 c0 -58 -2 -65 -20 -65 -18 0 -20 -7 -20 -64 0 -59 -2 -65 -22 -68 -20 -3
-23 -10 -26 -50 -3 -40 -6 -48 -23 -48 -17 0 -19 -7 -19 -65 l0 -65 -65 0 -65
0 0 45 c0 38 3 45 20 45 18 0 20 7 20 65 0 57 2 65 19 65 15 0 20 10 26 50 6
40 11 50 26 50 17 0 19 8 19 65 0 63 1 65 25 65 18 0 25 5 25 20 0 17 7 20 40
20 l40 0 0 -65z m140 0 c0 -18 5 -25 20 -25 13 0 20 -7 20 -20 0 -15 7 -20 25
-20 18 0 25 -5 25 -19 0 -25 35 -31 186 -31 l124 0 0 -45 c0 -38 -3 -45 -20
-45 -18 0 -20 -7 -20 -65 0 -57 -2 -65 -19 -65 -15 0 -20 -10 -25 -45 -6 -36
-11 -45 -27 -45 -16 0 -19 -7 -19 -45 0 -41 -2 -45 -25 -45 -18 0 -25 -5 -25
-20 0 -19 -7 -20 -130 -20 -123 0 -130 1 -130 20 0 15 -7 20 -25 20 -18 0 -25
5 -25 19 0 16 -9 21 -45 27 -35 5 -45 10 -45 25 0 12 -7 19 -20 19 -17 0 -20
7 -20 45 0 38 3 45 20 45 17 0 20 7 20 45 0 37 3 45 19 45 19 0 31 39 31 108
0 25 4 32 20 32 18 0 20 7 20 65 l0 65 45 0 c41 0 45 -2 45 -25z m-4460 -315
c0 -13 -7 -20 -20 -20 -13 0 -20 7 -20 20 0 13 7 20 20 20 13 0 20 -7 20 -20z
m90 -40 c0 -17 -7 -20 -40 -20 -33 0 -40 3 -40 20 0 17 7 20 40 20 33 0 40 -3
40 -20z m-360 -95 c0 -20 5 -25 25 -25 18 0 25 -5 25 -20 0 -13 7 -20 20 -20
15 0 20 -7 20 -25 0 -23 4 -25 45 -25 l45 0 0 -40 0 -40 -65 0 c-58 0 -65 2
-65 20 0 17 -7 20 -45 20 -41 0 -45 2 -45 25 0 18 -5 25 -20 25 -13 0 -20 7
-20 20 0 15 -7 20 -25 20 -23 0 -25 4 -25 45 l0 45 65 0 c63 0 65 -1 65 -25z
m360 -110 c0 -38 -3 -45 -20 -45 -13 0 -20 -7 -20 -20 0 -13 -7 -20 -20 -20
-13 0 -20 7 -20 20 0 13 7 20 20 20 17 0 20 7 20 45 0 38 3 45 20 45 17 0 20
-7 20 -45z m770 20 c0 -23 4 -25 45 -25 l45 0 0 -39 c0 -33 -4 -40 -22 -43
-19 -2 -24 -10 -26 -45 -3 -35 -7 -43 -23 -43 -12 0 -19 7 -19 20 0 13 -7 20
-20 20 -16 0 -20 7 -20 34 0 62 -11 96 -31 96 -14 0 -19 7 -19 25 0 23 4 25
45 25 41 0 45 -2 45 -25z m3280 0 c0 -18 -5 -25 -20 -25 -17 0 -20 -7 -20 -45
0 -37 -3 -45 -19 -45 -20 0 -31 -34 -31 -96 0 -27 -4 -34 -20 -34 -17 0 -20
-7 -20 -45 l0 -45 -45 0 c-38 0 -45 -3 -45 -20 0 -13 -7 -20 -20 -20 -18 0
-20 7 -20 65 0 58 2 65 20 65 17 0 20 7 20 45 0 37 3 45 19 45 19 0 31 39 31
103 0 20 5 27 20 27 15 0 20 7 20 25 0 24 2 25 65 25 63 0 65 -1 65 -25z m98
-42 c3 -20 9 -23 48 -23 36 0 44 -3 44 -19 0 -22 35 -31 116 -31 47 0 54 -2
54 -20 0 -17 7 -20 50 -20 43 0 50 3 50 20 0 17 7 20 40 20 33 0 40 -3 40 -20
0 -13 -7 -20 -20 -20 -15 0 -20 -7 -20 -25 0 -18 -5 -25 -20 -25 -13 0 -20 -7
-20 -20 0 -15 -7 -20 -25 -20 -18 0 -25 -5 -25 -19 0 -13 -8 -21 -22 -23 -15
-2 -24 -11 -26 -25 -3 -19 -10 -23 -43 -23 -32 0 -39 -3 -39 -20 0 -19 -7 -20
-160 -20 -153 0 -160 1 -160 20 0 13 -7 20 -20 20 -17 0 -20 7 -20 45 0 38 3
45 20 45 17 0 20 7 20 45 0 41 2 45 25 45 23 0 25 4 25 45 0 38 3 45 20 45 15
0 20 7 20 26 0 21 4 25 23 22 14 -2 23 -11 25 -25z m532 2 c0 -18 -5 -25 -20
-25 -15 0 -20 7 -20 25 0 18 5 25 20 25 15 0 20 -7 20 -25z m-4770 -95 c0 -13
-7 -20 -20 -20 -13 0 -20 7 -20 20 0 13 7 20 20 20 13 0 20 -7 20 -20z m4680
-155 c0 -38 -3 -45 -20 -45 -18 0 -20 -7 -20 -70 0 -62 -2 -70 -19 -70 -15 0
-21 -10 -26 -40 -5 -30 -11 -40 -26 -40 -16 0 -19 -7 -19 -45 0 -41 -2 -45
-25 -45 -20 0 -25 -5 -25 -25 0 -18 -5 -25 -20 -25 -17 0 -20 -7 -20 -45 0
-41 -2 -45 -25 -45 -18 0 -25 -5 -25 -20 0 -13 -7 -20 -20 -20 -15 0 -20 -7
-20 -25 0 -23 -4 -25 -45 -25 -38 0 -45 -3 -45 -20 0 -19 -7 -20 -90 -20 -83
0 -90 1 -90 20 0 18 7 20 70 20 62 0 70 2 70 19 0 15 10 21 40 26 30 5 40 11
40 26 0 14 7 19 25 19 18 0 25 5 25 20 0 15 7 20 25 20 20 0 25 5 25 25 0 18
5 25 20 25 17 0 20 7 20 45 0 41 2 45 25 45 23 0 25 4 25 45 0 38 3 45 20 45
17 0 20 7 20 45 0 38 3 45 19 45 16 0 21 9 27 45 5 35 10 45 25 45 16 0 19 8
19 45 0 38 3 45 20 45 17 0 20 -7 20 -45z m-2560 -155 c0 -13 -7 -20 -20 -20
-13 0 -20 7 -20 20 0 13 7 20 20 20 13 0 20 -7 20 -20z m1800 -25 c0 -38 -3
-45 -19 -45 -16 0 -21 -9 -27 -45 -5 -35 -10 -45 -25 -45 -12 0 -19 -7 -19
-19 0 -16 -9 -21 -45 -27 -35 -5 -45 -10 -45 -25 0 -16 -8 -19 -45 -19 -38 0
-45 -3 -45 -20 0 -18 -7 -20 -65 -20 -58 0 -65 2 -65 20 0 19 -7 20 -205 20
-196 0 -205 1 -205 19 0 13 8 21 23 23 14 2 23 11 25 26 2 14 10 22 23 22 16
0 19 7 19 45 l0 45 225 0 c213 0 225 -1 225 -19 0 -21 53 -34 100 -24 24 4 30
12 35 44 5 29 11 39 26 39 14 0 19 7 19 25 0 23 4 25 45 25 l45 0 0 -45z m180
25 c0 -19 7 -20 155 -20 148 0 155 1 155 20 0 17 7 20 45 20 l45 0 0 -45 0
-45 -245 0 -245 0 0 45 0 45 45 0 c38 0 45 -3 45 -20z m-1350 -50 c0 -13 7
-20 20 -20 29 0 26 -36 -3 -42 -13 -3 -74 -3 -135 0 -101 4 -112 6 -112 23 0
18 -10 19 -130 19 -123 0 -130 1 -130 20 0 19 7 20 245 20 238 0 245 -1 245
-20z m400 -40 c0 -13 -7 -20 -20 -20 -15 0 -20 -7 -20 -25 0 -20 -5 -25 -25
-25 -18 0 -25 -5 -25 -20 0 -13 -7 -20 -20 -20 -15 0 -20 -7 -20 -25 0 -23 -4
-25 -45 -25 -37 0 -45 -3 -45 -19 0 -23 -40 -31 -122 -23 -48 4 -58 8 -58 23
0 14 7 19 25 19 18 0 25 5 25 20 0 13 7 20 20 20 15 0 20 7 20 25 0 18 5 25
19 25 16 0 21 9 27 45 l6 45 129 0 c122 0 129 -1 129 -20z m1026 -120 l144 0
0 -39 c0 -39 0 -40 -45 -47 -35 -5 -45 -10 -45 -25 0 -12 -7 -19 -20 -19 -13
0 -20 7 -20 20 0 18 -7 20 -92 22 -272 6 -268 5 -268 28 0 17 7 20 45 20 38 0
45 3 45 19 0 22 34 32 84 25 16 -2 93 -4 172 -4z"/>
<path d="M5270 8800 c0 -15 -7 -20 -25 -20 -20 0 -25 -5 -25 -25 0 -18 -5 -25
-19 -25 -19 0 -31 -39 -31 -107 0 -26 -4 -33 -20 -33 -17 0 -20 -7 -20 -39 0
-37 2 -39 38 -45 20 -3 90 -6 155 -6 110 0 117 -1 117 -20 0 -19 7 -20 115
-20 108 0 115 -1 115 -20 0 -17 7 -20 45 -20 l45 0 0 65 c0 63 -1 65 -25 65
-18 0 -25 5 -25 20 0 13 -7 20 -20 20 -15 0 -20 7 -20 25 0 23 -4 25 -45 25
-38 0 -45 3 -45 19 0 16 -9 21 -45 27 -35 5 -45 10 -45 25 0 16 -8 19 -45 19
-38 0 -45 3 -45 19 0 16 -9 21 -45 27 -35 5 -45 10 -45 25 0 12 -7 19 -20 19
-13 0 -20 -7 -20 -20z"/>
<path d="M3690 8170 c0 -15 -7 -20 -25 -20 -20 0 -25 -5 -25 -25 0 -18 -5 -25
-20 -25 -13 0 -20 -7 -20 -19 0 -13 -8 -21 -22 -23 -15 -2 -24 -11 -26 -25 -2
-15 -10 -23 -23 -23 -14 0 -19 -7 -19 -25 0 -18 -5 -25 -20 -25 -13 0 -20 -7
-20 -20 0 -15 -7 -20 -25 -20 -23 0 -25 -4 -25 -45 0 -41 -2 -45 -25 -45 -18
0 -25 -5 -25 -20 0 -28 20 -34 85 -25 45 5 55 10 55 26 0 16 7 19 45 19 38 0
45 3 45 20 0 16 7 20 34 20 62 0 96 11 96 31 0 14 7 19 25 19 18 0 25 5 25 20
0 13 7 20 20 20 17 0 20 7 20 50 0 43 -3 50 -20 50 -17 0 -20 7 -20 39 0 33
-4 40 -22 43 -15 2 -24 11 -26 26 -4 29 -42 31 -42 2z"/>
<path d="M5440 8030 c0 -17 -7 -20 -39 -20 -37 0 -39 -2 -45 -37 -3 -21 -6
-85 -6 -143 0 -139 7 -180 31 -180 16 0 19 -8 19 -45 0 -38 3 -45 19 -45 13 0
21 -8 23 -22 2 -15 11 -24 26 -26 14 -2 22 -10 22 -23 0 -17 8 -19 90 -19 l90
0 0 45 c0 38 3 45 20 45 19 0 20 7 20 90 0 83 -1 90 -20 90 -18 0 -20 7 -20
65 0 57 -2 65 -19 65 -15 0 -20 10 -25 45 -6 36 -11 45 -27 45 -14 0 -19 7
-19 25 0 23 -4 25 -45 25 -38 0 -45 3 -45 20 0 15 -7 20 -25 20 -18 0 -25 -5
-25 -20z"/>
<path d="M6840 8030 c0 -13 -7 -20 -20 -20 -15 0 -20 -7 -20 -25 0 -18 5 -25
20 -25 13 0 20 -7 20 -20 0 -18 7 -20 65 -20 58 0 65 -2 65 -20 0 -16 7 -20
33 -20 68 0 107 -12 107 -31 0 -16 8 -19 45 -19 41 0 45 -2 45 -25 0 -20 5
-25 25 -25 18 0 25 -5 25 -20 0 -17 7 -20 46 -20 l47 0 -7 31 c-3 17 -6 38 -6
45 0 8 -9 14 -20 14 -13 0 -20 7 -20 19 0 13 -8 21 -22 23 -15 2 -24 11 -26
26 -3 18 -10 22 -42 22 -32 0 -39 4 -42 23 -2 14 -11 23 -25 25 -15 2 -23 10
-23 23 0 17 -7 19 -65 19 -58 0 -65 2 -65 20 0 18 -7 20 -70 20 -63 0 -70 -2
-70 -20z"/>
<path d="M4590 7720 c0 -13 -7 -20 -19 -20 -22 0 -31 -40 -31 -152 0 -71 -2
-78 -20 -78 -19 0 -20 -7 -20 -135 0 -126 -1 -135 -19 -135 -17 0 -20 -11 -26
-90 -6 -79 -9 -90 -26 -90 -17 0 -19 -8 -19 -65 0 -57 -2 -65 -19 -65 -15 0
-20 -10 -26 -50 -6 -40 -11 -50 -26 -50 -18 0 -19 -8 -19 -110 l0 -110 45 0
c41 0 45 -2 45 -25 0 -18 5 -25 20 -25 13 0 20 -7 20 -20 0 -15 7 -20 25 -20
18 0 25 -5 25 -19 0 -16 9 -21 45 -27 35 -5 45 -10 45 -25 0 -12 7 -19 20 -19
13 0 20 -7 20 -19 0 -23 46 -32 125 -24 45 5 55 9 55 24 0 14 7 19 25 19 24 0
25 2 25 70 0 68 -1 70 -25 70 -18 0 -25 5 -25 20 0 17 -7 20 -39 20 -33 0 -40
4 -43 23 -2 14 -11 23 -25 25 -15 2 -23 10 -23 23 0 16 -7 19 -45 19 l-45 0 0
180 c0 168 1 180 18 180 17 0 20 12 25 98 4 53 7 134 7 180 0 75 2 82 20 82
19 0 20 7 20 135 0 126 -1 135 -19 135 -15 0 -20 10 -25 45 -6 36 -11 45 -27
45 -12 0 -19 -7 -19 -20z"/>
<path d="M6930 7675 l0 -65 34 0 c62 0 96 -11 96 -31 0 -14 7 -19 25 -19 20 0
25 -5 25 -25 0 -22 4 -25 34 -25 62 0 96 11 96 31 0 12 -7 19 -20 19 -17 0
-20 7 -20 45 0 41 -2 45 -25 45 -18 0 -25 5 -25 19 0 15 -10 21 -40 26 -30 5
-40 11 -40 26 0 17 -8 19 -70 19 l-70 0 0 -65z"/>
<path d="M3674 7423 c-23 -4 -34 -37 -34 -99 0 -27 -4 -34 -20 -34 -17 0 -20
-7 -20 -45 0 -37 3 -45 19 -45 17 0 20 -11 26 -90 6 -79 9 -90 26 -90 14 0 19
-7 19 -25 0 -18 5 -25 20 -25 13 0 20 -7 20 -20 0 -15 7 -20 25 -20 20 0 25
-5 25 -25 0 -20 5 -25 25 -25 18 0 25 -5 25 -20 0 -13 7 -20 20 -20 13 0 20 7
20 19 0 15 10 20 45 25 l45 7 0 65 c0 57 2 64 20 64 17 0 20 7 20 45 0 38 -3
45 -20 45 -18 0 -20 7 -20 70 0 63 -2 70 -19 70 -16 0 -20 8 -23 43 -2 35 -7
43 -25 45 -15 2 -23 10 -23 23 0 12 -7 19 -19 19 -13 0 -21 8 -23 23 -3 20 -9
22 -68 23 -36 1 -75 0 -86 -3z"/>
<path d="M5670 6705 c0 -41 2 -45 25 -45 18 0 25 -5 25 -20 0 -13 7 -20 20
-20 18 0 20 -7 20 -70 0 -68 -1 -70 -25 -70 -18 0 -25 -5 -25 -19 0 -15 -10
-21 -40 -26 -30 -5 -40 -11 -40 -26 0 -14 -7 -19 -25 -19 -18 0 -25 -5 -25
-19 0 -13 -8 -21 -22 -23 -15 -2 -24 -11 -26 -25 -2 -15 -10 -23 -23 -23 -12
0 -19 -7 -19 -19 0 -15 -10 -20 -45 -25 -36 -6 -45 -11 -45 -27 0 -14 -7 -19
-25 -19 -18 0 -25 -5 -25 -19 0 -15 -10 -21 -40 -26 -30 -5 -40 -11 -40 -26 0
-14 -7 -19 -25 -19 -18 0 -25 -5 -25 -19 0 -16 -9 -21 -45 -27 -35 -5 -45 -10
-45 -25 0 -14 -7 -19 -25 -19 -18 0 -25 -5 -25 -19 0 -16 -9 -21 -45 -27 -35
-5 -45 -10 -45 -25 0 -16 -8 -19 -45 -19 -38 0 -45 -3 -45 -20 0 -15 -7 -20
-27 -20 -64 0 -103 -12 -103 -31 0 -17 -9 -19 -110 -19 -101 0 -110 -2 -110
-19 0 -17 -12 -19 -135 -26 -123 -6 -135 -9 -135 -26 0 -17 -8 -19 -70 -19
-68 0 -70 1 -70 25 0 18 -5 25 -20 25 -15 0 -20 7 -20 28 0 63 -12 102 -31
102 -12 0 -19 -7 -19 -20 0 -13 -7 -20 -19 -20 -15 0 -20 -10 -26 -50 -6 -40
-11 -50 -26 -50 -17 0 -19 -8 -19 -65 0 -58 -2 -65 -20 -65 -17 0 -20 -7 -20
-45 0 -38 3 -45 20 -45 17 0 20 -7 20 -45 l0 -45 45 0 c41 0 45 -2 45 -25 0
-18 5 -25 20 -25 13 0 20 -7 20 -20 0 -15 7 -20 25 -20 18 0 25 -5 25 -19 0
-13 8 -21 23 -23 14 -2 23 -11 25 -25 3 -20 9 -23 48 -23 l45 0 -7 64 c-4 43
-3 66 5 70 6 4 47 4 91 0 69 -6 80 -9 80 -25 0 -18 10 -19 160 -19 153 0 160
-1 160 -20 0 -19 7 -20 90 -20 83 0 90 1 90 20 0 19 7 20 135 20 126 0 135 1
135 19 0 15 10 20 45 25 36 6 45 11 45 27 0 16 7 19 45 19 38 0 45 3 45 19 0
16 9 21 45 27 35 5 45 10 45 25 0 12 7 19 19 19 13 0 21 8 23 23 2 14 11 23
26 25 14 2 22 10 22 23 0 14 7 19 25 19 18 0 25 5 25 20 0 13 7 20 20 20 15 0
20 7 20 25 0 20 5 25 25 25 18 0 25 5 25 20 0 13 7 20 20 20 15 0 20 7 20 25
0 20 5 25 25 25 20 0 25 5 25 25 0 18 5 25 20 25 13 0 20 7 20 20 0 13 7 20
19 20 13 0 21 8 23 23 2 14 11 23 26 25 18 3 22 10 22 42 0 32 4 39 23 42 14
2 23 11 25 26 2 14 10 22 23 22 14 0 19 7 19 25 0 18 5 25 19 25 15 0 21 10
26 39 5 33 11 40 37 45 17 3 46 6 64 6 30 0 34 -3 34 -25 0 -18 5 -25 19 -25
15 0 20 -10 25 -45 6 -36 11 -45 27 -45 14 0 19 -7 19 -25 0 -18 5 -25 20 -25
11 0 23 7 27 15 3 9 2 81 -2 160 -6 133 -9 145 -26 145 -17 0 -19 8 -19 90 0
83 -1 90 -20 90 -13 0 -20 7 -20 19 0 19 -39 31 -107 31 -26 0 -33 4 -33 20 0
18 -7 20 -65 20 -57 0 -65 2 -65 19 0 19 -39 31 -107 31 -26 0 -33 4 -33 20 0
19 -7 20 -90 20 l-90 0 0 -45z m329 -271 c31 -6 31 -7 31 -70 0 -57 -2 -64
-19 -64 -13 0 -21 -8 -23 -22 -2 -15 -11 -24 -25 -26 -15 -2 -23 -10 -23 -23
0 -12 -7 -19 -19 -19 -13 0 -21 -8 -23 -22 -2 -15 -11 -24 -25 -26 -15 -2 -23
-10 -23 -23 0 -12 -7 -19 -19 -19 -13 0 -21 -8 -23 -22 -2 -15 -11 -24 -25
-26 -15 -2 -23 -10 -23 -23 0 -12 -7 -19 -19 -19 -13 0 -21 -8 -23 -22 -2 -15
-11 -24 -25 -26 -15 -2 -23 -10 -23 -23 0 -12 -7 -19 -19 -19 -13 0 -21 -8
-23 -22 -2 -15 -11 -24 -25 -26 -15 -2 -23 -10 -23 -23 0 -12 -7 -19 -19 -19
-13 0 -21 -8 -23 -22 -2 -15 -11 -24 -25 -26 -15 -2 -23 -10 -23 -23 0 -14 -7
-19 -25 -19 -18 0 -25 -5 -25 -19 0 -16 -9 -21 -45 -27 -35 -5 -45 -10 -45
-25 0 -16 -8 -19 -45 -19 -38 0 -45 -3 -45 -20 0 -15 -7 -20 -27 -20 -64 0
-103 -12 -103 -31 0 -17 -8 -19 -70 -19 -62 0 -70 -2 -70 -19 0 -17 -12 -20
-135 -26 -75 -4 -254 -4 -399 0 l-264 7 -6 30 c-3 17 -6 46 -6 64 l0 34 70 0
c62 0 70 2 70 19 0 17 12 19 135 26 123 6 135 9 135 26 0 17 8 19 90 19 83 0
90 1 90 20 0 16 7 20 33 20 68 0 107 12 107 31 0 17 8 19 65 19 57 0 65 2 65
19 0 15 10 20 45 25 36 6 45 11 45 27 0 16 7 19 45 19 38 0 45 3 45 19 0 13 8
21 23 23 14 2 23 11 25 26 3 19 9 22 48 22 37 0 44 3 44 20 0 13 7 20 20 20
15 0 20 7 20 25 0 23 4 25 45 25 38 0 45 3 45 19 0 13 8 21 23 23 14 2 23 11
25 26 3 18 10 22 42 22 32 0 39 4 42 23 2 14 11 23 26 25 14 2 22 10 22 23 0
14 7 19 25 19 18 0 25 5 25 20 0 13 7 20 20 20 15 0 20 7 20 25 0 20 5 25 25
25 18 0 25 5 25 19 0 16 8 21 43 24 78 7 114 7 146 1z"/>
<path d="M5360 5381 c0 -15 -10 -20 -45 -25 -36 -6 -45 -11 -45 -27 0 -16 -7
-19 -45 -19 -38 0 -45 -3 -45 -19 0 -15 -10 -20 -50 -26 -40 -6 -50 -11 -50
-26 0 -16 -7 -19 -45 -19 l-45 0 0 -45 0 -45 180 0 c170 0 180 1 180 19 0 15
10 20 45 25 36 6 45 11 45 27 0 14 7 19 25 19 24 0 25 2 25 64 l0 65 -45 7
c-35 5 -45 10 -45 25 0 12 -7 19 -20 19 -13 0 -20 -7 -20 -19z"/>
<path d="M4906 1853 c-3 -21 -6 -50 -6 -65 0 -21 -5 -28 -20 -28 -18 0 -20 -7
-20 -70 0 -68 -1 -70 -25 -70 -23 0 -25 -4 -25 -45 0 -38 -3 -45 -20 -45 -19
0 -20 -7 -20 -90 0 -81 -2 -90 -19 -90 -20 0 -31 -34 -31 -96 0 -27 -4 -34
-20 -34 -17 0 -20 -7 -20 -50 0 -42 -3 -50 -19 -50 -20 0 -31 -34 -31 -96 0
-27 -4 -34 -20 -34 -18 0 -20 -7 -20 -70 0 -68 1 -70 25 -70 18 0 25 -5 25
-20 0 -19 7 -20 200 -20 188 0 200 -1 200 -18 0 -17 12 -20 98 -25 53 -4 175
-7 270 -7 165 0 172 -1 172 -20 0 -20 7 -20 295 -20 l295 0 0 45 c0 38 3 45
20 45 17 0 20 7 20 45 0 37 3 45 19 45 19 0 31 39 31 108 0 25 4 32 20 32 17
0 20 7 20 39 0 33 4 40 23 43 18 2 23 10 25 46 3 34 7 42 23 42 16 0 19 7 19
50 0 42 3 50 19 50 20 0 31 34 31 96 0 27 4 34 20 34 18 0 20 7 20 70 0 62 2
70 19 70 20 0 31 34 31 96 0 27 4 34 20 34 15 0 20 7 20 25 0 18 -5 25 -20 25
-13 0 -20 7 -20 20 0 20 -7 20 -270 20 -256 0 -270 1 -270 18 0 17 -12 20
-107 25 -58 4 -171 7 -250 7 -136 0 -143 1 -143 20 0 15 -7 20 -25 20 -18 0
-25 -5 -25 -20 0 -13 -7 -20 -20 -20 -13 0 -20 7 -20 20 0 19 -7 20 -244 20
l-243 0 -7 -37z m354 -258 c0 -18 -5 -25 -20 -25 -18 0 -20 -7 -20 -65 0 -57
-2 -65 -19 -65 -20 0 -31 -34 -31 -96 0 -27 -4 -34 -20 -34 -17 0 -20 -7 -20
-50 0 -42 -3 -50 -19 -50 -22 0 -31 -35 -31 -121 0 -52 -2 -59 -20 -59 -17 0
-20 -7 -20 -45 0 -41 2 -45 25 -45 18 0 25 -5 25 -20 0 -19 7 -20 110 -20 103
0 110 1 110 20 0 15 7 20 25 20 20 0 25 5 25 25 0 18 5 25 20 25 17 0 20 7 20
45 0 37 3 45 19 45 20 0 31 34 31 96 0 27 4 34 20 34 19 0 20 7 20 90 0 82 2
90 19 90 15 0 20 10 26 50 6 40 11 50 26 50 16 0 19 7 19 40 l0 40 180 0 c173
0 180 -1 180 -20 0 -13 -7 -20 -19 -20 -17 0 -20 -11 -26 -90 -6 -79 -9 -90
-26 -90 -17 0 -19 -8 -19 -70 0 -62 -2 -70 -19 -70 -20 0 -31 -34 -31 -96 0
-27 -4 -34 -20 -34 -19 0 -20 -7 -20 -90 l0 -90 45 0 c38 0 45 -3 45 -20 0
-18 7 -20 65 -20 58 0 65 2 65 20 0 15 7 20 25 20 23 0 25 4 25 45 0 37 3 45
19 45 20 0 31 34 31 96 0 27 4 34 20 34 18 0 20 7 20 70 0 62 2 70 19 70 19 0
31 39 31 108 0 25 4 32 20 32 18 0 20 7 20 65 l0 65 110 0 110 0 0 -25 c0 -18
-5 -25 -20 -25 -18 0 -20 -7 -20 -65 0 -58 -2 -65 -19 -65 -16 0 -21 -9 -27
-45 -5 -35 -10 -45 -25 -45 -16 0 -19 -8 -19 -45 0 -41 -2 -45 -25 -45 -23 0
-25 -4 -25 -45 0 -38 -3 -45 -20 -45 -18 0 -20 -7 -20 -65 0 -57 -2 -65 -19
-65 -15 0 -20 -10 -26 -50 -6 -40 -11 -50 -26 -50 -16 0 -19 -7 -19 -40 l0
-40 -90 0 c-83 0 -90 1 -90 20 0 19 -7 20 -250 20 -243 0 -250 1 -250 20 0 17
-7 20 -45 20 -38 0 -45 -3 -45 -20 0 -13 -7 -20 -20 -20 -13 0 -20 7 -20 19 0
15 -11 19 -67 24 -38 4 -119 7 -180 7 -106 0 -113 1 -113 20 0 17 -7 20 -45
20 l-45 0 0 45 c0 37 3 45 19 45 19 0 31 39 31 103 0 20 5 27 20 27 17 0 20 7
20 50 0 42 3 50 19 50 20 0 31 34 31 96 0 27 4 34 20 34 18 0 20 7 20 65 0 57
2 65 19 65 15 0 20 10 26 50 6 40 11 50 26 50 12 0 19 7 19 20 0 18 7 20 65
20 63 0 65 -1 65 -25z"/>
</g>
</svg>
