<?xml version="1.0" standalone="no"?>
<!DOCTYPE svg PUBLIC "-//W3C//DTD SVG 20010904//EN"
 "http://www.w3.org/TR/2001/REC-SVG-20010904/DTD/svg10.dtd">
<svg version="1.0" xmlns="http://www.w3.org/2000/svg"
 width="1052.000000pt" height="599.000000pt" viewBox="0 0 1052.000000 599.000000"
 preserveAspectRatio="xMidYMid meet">

<g transform="translate(0.000000,599.000000) scale(0.100000,-0.100000)"
fill="#000000" stroke="none">
<path d="M9460 5928 c-36 -11 -69 -24 -75 -28 -5 -4 -39 -20 -75 -35 -145 -60
-200 -88 -200 -104 0 -14 -2 -14 -10 -1 -9 13 -10 13 -10 0 -1 -8 -40 -43 -88
-78 -122 -88 -179 -136 -175 -148 2 -5 -17 -20 -42 -32 -54 -26 -155 -119
-155 -142 0 -10 10 -21 21 -26 20 -9 21 -11 5 -27 -10 -9 -14 -17 -10 -17 8 0
63 48 154 134 131 125 196 171 468 335 126 76 156 90 198 92 l49 3 -3 -45
c-10 -136 -84 -304 -288 -649 -37 -63 -88 -151 -114 -195 -62 -107 -161 -236
-237 -311 -34 -34 -119 -103 -190 -154 -70 -51 -157 -118 -193 -149 -36 -31
-84 -69 -108 -85 -45 -31 -50 -42 -11 -28 80 30 69 15 -26 -34 -193 -99 -360
-204 -338 -211 14 -5 123 37 213 82 43 22 99 38 165 49 55 10 124 24 152 32
29 9 57 13 63 9 5 -3 10 -27 10 -52 0 -75 -116 -280 -207 -364 -34 -32 -140
-96 -208 -126 -102 -44 -231 -100 -262 -112 -17 -7 -40 -22 -50 -33 -18 -21
-18 -21 19 -14 20 4 92 11 160 16 123 9 215 23 253 40 11 5 55 18 98 29 77 21
163 56 172 71 5 9 -18 5 -73 -12 -34 -10 -96 -2 -87 12 6 10 98 33 133 33 14
0 32 6 40 13 7 8 21 14 31 14 9 0 21 4 26 8 6 5 32 17 59 27 48 17 50 17 63
-1 16 -21 13 -101 -6 -144 -29 -67 -101 -163 -174 -233 -103 -98 -183 -156
-289 -208 l-83 -40 -148 3 c-81 2 -147 0 -147 -4 0 -5 9 -8 19 -8 11 0 23 -4
26 -10 3 -5 2 -10 -3 -10 -8 0 -32 -43 -32 -57 0 -4 11 4 24 16 29 27 60 29
169 8 63 -11 89 -12 140 -2 l62 12 -70 8 c-81 9 -66 23 28 24 32 1 57 6 57 11
0 18 25 21 56 9 16 -6 47 -13 69 -13 42 -2 209 -92 275 -149 l33 -28 -54 -52
c-30 -29 -61 -58 -71 -65 -16 -13 -78 -34 -78 -27 0 2 34 27 75 56 41 29 73
54 71 57 -5 4 -88 -48 -97 -62 -4 -5 -12 -5 -18 -2 -6 4 -14 0 -17 -8 -3 -9
-10 -14 -14 -11 -5 3 -49 -15 -99 -39 -94 -46 -188 -68 -200 -47 -6 8 -16 8
-40 0 -59 -21 -171 3 -251 52 -46 28 -117 63 -131 64 -9 1 -30 11 -46 23 -27
19 -31 29 -38 89 -4 38 -11 77 -16 88 -8 17 -8 15 -4 -7 3 -15 1 -29 -4 -33
-15 -9 -4 -115 14 -135 19 -21 11 -42 -25 -75 -12 -11 -26 -29 -31 -40 -6 -11
13 4 40 34 43 47 51 52 57 36 5 -13 2 -22 -11 -29 -37 -22 -85 -69 -85 -83 0
-13 3 -13 25 1 13 9 31 16 39 16 8 0 26 15 40 32 25 33 25 33 53 15 123 -78
223 -117 299 -117 58 0 176 -55 157 -73 -3 -4 7 -11 22 -17 41 -16 135 -100
135 -121 0 -11 -7 -19 -15 -19 -9 0 -26 -7 -39 -15 -41 -27 -173 -47 -269 -41
-148 10 -262 58 -489 207 -32 21 -58 34 -58 29 0 -10 70 -100 93 -119 25 -20
21 -34 -9 -27 -30 8 -67 -1 -59 -14 3 -5 0 -12 -6 -16 -6 -3 -15 0 -20 7 -11
19 -16 11 -25 -46 l-7 -49 48 42 c26 23 55 42 64 42 9 0 56 -14 106 -30 107
-36 222 -109 296 -187 l53 -56 -25 -12 c-62 -32 -150 -36 -315 -15 -88 11
-183 27 -212 34 -28 8 -50 10 -47 6 3 -5 19 -11 35 -15 17 -4 30 -10 30 -15 0
-4 36 -47 79 -96 92 -101 121 -148 104 -165 -32 -32 -324 72 -410 146 l-38 33
-3 114 -4 115 31 13 c23 9 30 18 26 30 -3 11 8 27 35 49 54 44 88 114 105 219
7 48 13 78 14 68 2 -44 11 -3 22 104 11 111 20 161 53 280 8 30 27 129 41 220
14 91 42 232 61 313 34 138 37 174 15 151 -19 -19 -70 -178 -110 -342 -15 -62
-30 -110 -34 -106 -4 4 -7 0 -7 -8 0 -9 -3 -30 -6 -47 -6 -27 -4 -30 11 -25
15 6 16 3 10 -27 -9 -41 -14 -47 -23 -32 -9 15 -19 -21 -67 -241 -20 -92 -45
-191 -55 -220 -28 -74 -76 -146 -98 -146 -9 0 -27 -7 -40 -15 -16 -12 -26 -13
-42 -5 -11 6 -20 15 -20 21 0 6 -24 62 -54 124 -37 77 -64 120 -85 136 -30 22
-44 69 -21 69 12 0 90 79 90 92 0 5 -9 4 -20 -2 -18 -10 -19 -9 -4 27 9 21 35
81 60 133 24 52 46 112 48 132 3 21 10 47 16 58 6 11 8 31 5 43 -5 17 -4 18 4
7 8 -12 11 -10 19 10 5 14 17 43 26 64 9 22 15 41 13 43 -2 2 -14 -20 -26 -48
-40 -98 -33 -40 13 97 25 76 44 140 41 143 -3 3 -8 -5 -12 -17 -8 -32 -25 -27
-17 6 9 39 48 125 65 142 8 8 24 28 36 43 12 16 56 57 98 92 77 64 189 184
180 193 -3 3 -13 -2 -23 -11 -19 -17 -52 -23 -52 -9 0 4 13 21 28 37 15 17 36
44 46 60 10 17 30 42 43 57 14 14 24 28 23 30 -4 8 20 57 32 65 8 4 36 37 63
73 26 36 63 81 81 100 35 37 82 92 198 230 l21 25 -30 -26 c-59 -49 -69 -53
-36 -14 18 22 49 60 69 85 54 66 110 129 261 289 75 79 138 147 139 152 7 18
-30 8 -96 -25 -120 -62 -258 -219 -567 -651 -38 -54 -100 -130 -136 -169 -91
-97 -184 -206 -253 -296 -56 -73 -88 -102 -177 -164 -23 -17 -37 -32 -31 -34
7 -2 -4 -22 -27 -49 -41 -48 -44 -77 -10 -86 17 -4 18 -3 8 9 -9 11 -8 14 6
14 14 0 16 -5 10 -27 -9 -38 -14 -41 -29 -20 -16 20 -30 23 -23 3 3 -7 -9
-101 -28 -207 -34 -205 -34 -205 -160 -475 -34 -72 -43 -84 -81 -103 -46 -22
-50 -21 -122 17 l-44 23 41 42 c63 64 99 124 127 212 35 110 30 223 -14 317
-33 67 -128 185 -166 205 -23 12 -24 11 -31 -40 -4 -28 -17 -81 -28 -117 -18
-53 -30 -70 -65 -97 -24 -18 -47 -33 -51 -33 -4 0 -12 20 -19 45 -22 84 -111
154 -182 143 -21 -3 -23 -8 -24 -63 -1 -55 -24 -115 -45 -115 -3 0 -18 24 -34
53 -37 71 -106 136 -192 182 -63 33 -75 36 -128 32 -32 -3 -61 -8 -64 -11 -3
-3 2 -36 12 -72 12 -43 18 -102 18 -163 0 -88 -3 -101 -31 -156 -17 -33 -44
-75 -60 -94 l-29 -34 0 44 c0 24 -7 59 -17 77 -40 77 -226 225 -276 220 -24
-3 -25 -6 -27 -83 -3 -65 -8 -91 -33 -140 -40 -83 -72 -112 -108 -99 l-27 10
2 108 1 108 -40 -6 c-53 -9 -152 -58 -213 -106 l-50 -39 -23 22 c-34 31 -52
70 -52 112 0 41 -15 75 -33 75 -7 -1 -32 -21 -57 -45 -25 -25 -50 -45 -56 -45
-7 0 -14 -8 -17 -17 -3 -10 -14 -42 -26 -72 -11 -29 -23 -73 -27 -98 -6 -43
-7 -44 -22 -22 -24 34 -52 161 -39 177 15 19 5 22 -33 9 -64 -23 -80 -38 -151
-133 -76 -102 -115 -193 -126 -295 -9 -92 39 -215 122 -307 l47 -52 -42 -47
c-50 -57 -73 -99 -64 -115 4 -6 3 -8 -3 -5 -5 4 -10 -7 -10 -23 0 -17 -2 -32
-4 -35 -9 -8 -160 43 -207 71 -77 44 -224 168 -365 307 -134 133 -289 307
-317 355 -29 49 -144 160 -184 176 -44 18 -81 22 -56 6 13 -8 13 -10 -1 -10
-9 0 -28 9 -43 21 -19 15 -24 16 -20 5 8 -20 -30 -21 -161 -5 -101 12 -106 14
-404 134 -117 47 -215 84 -218 82 -2 -3 26 -17 62 -32 36 -16 64 -30 62 -32
-2 -2 -21 4 -42 12 -20 9 -39 14 -41 12 -3 -2 38 -24 91 -47 101 -46 123 -65
34 -29 -122 48 -120 49 -39 -7 84 -58 356 -155 443 -158 20 0 37 -4 37 -8 0
-3 15 -10 33 -13 17 -4 37 -11 43 -16 6 -5 48 -16 94 -25 73 -13 109 -28 204
-81 12 -7 63 -58 113 -115 108 -121 305 -323 350 -358 17 -14 87 -76 155 -139
148 -137 221 -188 285 -201 27 -5 71 -18 98 -29 l50 -20 -42 -1 c-24 0 -43 -4
-43 -10 0 -9 11 -15 126 -65 69 -30 126 -82 147 -135 19 -44 9 -111 -24 -177
-34 -65 -68 -77 -224 -76 -137 0 -220 13 -314 50 -56 22 -84 44 -181 137 -115
112 -117 107 -5 -14 33 -35 49 -55 35 -44 -14 12 -68 57 -120 100 -87 73 -135
104 -161 104 -16 0 6 -32 89 -132 68 -83 188 -204 168 -170 -4 6 -3 12 2 12
11 0 102 -70 102 -79 0 -4 27 -23 60 -42 33 -18 60 -37 60 -40 0 -3 28 -7 62
-8 34 -1 69 -7 77 -12 11 -6 -7 -9 -56 -7 -42 2 -71 -1 -70 -7 3 -16 88 -35
162 -36 39 -1 60 -3 47 -6 -42 -8 -11 -23 51 -23 52 -1 59 -2 42 -12 -11 -7
-42 -18 -70 -25 l-50 -13 60 5 c65 6 144 27 188 51 15 9 35 13 44 9 14 -5 14
-3 -2 15 -10 11 -30 20 -44 20 -18 0 -22 3 -14 11 7 7 26 5 64 -7 60 -19 92
-42 85 -59 -2 -7 5 -20 16 -30 44 -37 2 -196 -102 -384 -43 -79 -123 -153
-210 -195 -36 -18 -87 -49 -114 -70 -35 -27 -52 -34 -60 -26 -8 8 -7 13 2 19
11 7 11 9 -1 14 -19 7 -42 135 -33 183 4 19 25 68 48 110 36 67 42 74 57 61
21 -19 61 -31 61 -19 0 11 -30 37 -52 45 -23 8 -22 15 1 71 22 51 37 116 26
116 -14 0 -34 -29 -44 -66 -14 -51 -32 -79 -129 -201 -85 -107 -140 -154 -230
-198 -62 -30 -236 -95 -257 -95 -14 0 -11 63 6 110 9 24 17 63 18 87 1 7 28
43 62 80 100 110 161 213 151 256 -4 20 16 77 27 77 4 0 20 -14 37 -31 26 -28
73 -59 90 -59 3 0 4 7 0 15 -3 8 -1 15 4 15 18 0 10 17 -40 85 -57 77 -68 74
-15 -5 19 -29 35 -54 35 -57 0 -3 -16 4 -36 16 -19 12 -41 21 -49 21 -23 0
-25 15 -10 66 22 74 17 87 -8 19 -22 -58 -24 -60 -57 -58 -33 2 -33 1 -10 -8
13 -5 26 -12 28 -14 20 -20 -147 -199 -268 -286 -70 -52 -195 -131 -249 -159
-73 -38 -361 -84 -383 -62 -13 13 18 69 103 180 61 82 129 150 224 225 55 43
130 140 159 205 11 23 23 42 28 42 4 0 8 10 8 23 0 31 -80 117 -110 117 -19 0
-20 -2 -10 -15 7 -8 18 -15 24 -15 6 0 17 -14 23 -31 10 -26 8 -41 -18 -112
-28 -76 -35 -86 -105 -147 -100 -86 -129 -103 -259 -147 -109 -38 -111 -38
-270 -38 -140 0 -165 3 -200 20 -35 17 -40 24 -37 50 4 52 71 171 146 259 39
47 78 87 87 91 8 3 50 7 92 10 61 4 90 11 144 39 71 35 191 125 208 155 6 10
24 34 41 55 28 33 33 36 58 26 34 -13 86 -13 86 -1 0 5 -21 27 -47 48 -27 21
-50 41 -51 46 -13 28 -59 -19 -48 -49 6 -16 -70 -121 -110 -153 -14 -11 -69
-34 -122 -50 -161 -51 -428 -60 -522 -18 -124 55 -420 251 -420 278 0 4 21 21
47 37 61 39 195 85 343 117 349 76 428 100 501 147 33 21 59 41 59 44 0 4 -11
-1 -25 -10 -14 -9 -25 -13 -25 -9 0 5 -5 1 -10 -7 -8 -11 -12 -12 -18 -3 -6 9
-23 10 -67 3 -104 -15 -346 -22 -443 -11 -76 8 -107 17 -165 47 -153 79 -291
190 -313 253 -7 20 -15 35 -18 34 -3 -2 -18 -3 -33 -3 -24 0 -25 -1 -11 -17 9
-10 26 -36 38 -58 36 -65 99 -133 160 -175 62 -42 198 -108 279 -135 28 -9 51
-20 51 -24 0 -4 -39 -20 -87 -35 -95 -31 -271 -115 -291 -139 -7 -8 -22 -13
-32 -10 -27 7 -26 -21 0 -54 29 -37 27 -63 -3 -35 -13 12 -27 22 -31 22 -13 0
35 -73 77 -117 23 -24 39 -44 36 -47 -13 -13 -282 -91 -418 -121 -120 -27
-180 -35 -252 -35 -127 0 -320 23 -454 53 -125 29 -386 120 -427 149 -15 10
-38 21 -50 23 -13 3 -30 13 -38 23 -8 10 -33 29 -54 42 -67 40 -186 139 -186
155 0 13 -65 50 -82 47 -5 -1 -8 7 -8 17 0 10 -7 21 -15 24 -14 6 -70 105 -63
113 2 2 86 5 187 8 101 2 185 7 187 9 10 10 -217 16 -296 8 -87 -8 -100 -7
-100 10 0 15 438 11 594 -6 77 -8 141 -13 143 -12 3 3 -146 31 -242 46 l-60 8
85 2 c99 1 221 -22 400 -75 213 -63 440 -94 686 -94 181 0 263 9 359 40 33 10
86 22 118 26 31 3 57 9 57 13 0 33 -75 65 -86 38 -5 -14 -10 -14 -49 1 -39 14
-44 14 -59 -1 -21 -20 -20 -34 2 -40 9 -3 -4 -5 -30 -6 -26 0 -50 4 -54 10 -3
6 -16 8 -28 5 -31 -8 -478 20 -621 39 -181 23 -327 59 -430 103 -137 60 -455
233 -477 260 -10 12 -10 14 0 8 6 -4 12 -4 12 1 0 4 -22 23 -49 41 -26 18 -67
51 -89 73 -23 21 -49 39 -58 39 -12 0 -9 -6 12 -22 16 -12 31 -25 34 -28 3 -3
22 -19 44 -35 21 -17 48 -38 60 -48 44 -38 -36 9 -98 57 -74 57 -93 59 -41 5
103 -107 227 -191 435 -296 110 -56 136 -72 106 -67 -45 6 -163 64 -269 130
-60 38 -66 40 -33 12 38 -32 129 -91 193 -125 18 -9 33 -21 33 -25 0 -5 -74
-5 -167 -1 -269 13 -468 7 -482 -15 -3 -5 -16 -12 -28 -16 -27 -9 -29 -26 -8
-67 9 -16 13 -33 11 -38 -7 -11 54 -82 165 -191 67 -66 116 -103 220 -164 74
-43 154 -91 179 -106 25 -15 91 -49 148 -76 117 -54 118 -55 7 -98 -155 -61
-365 -195 -467 -299 l-67 -69 38 -38 c41 -42 179 -115 305 -161 44 -17 162
-46 261 -65 166 -33 190 -35 315 -30 74 2 147 8 163 11 108 28 -101 -96 -412
-244 -68 -33 -89 -46 -76 -51 14 -5 11 -9 -16 -19 -53 -20 -64 -27 -67 -45
-13 -63 43 -124 151 -167 45 -18 88 -37 95 -42 8 -6 102 -11 235 -11 184 -1
248 3 377 22 156 24 560 117 570 131 8 13 180 80 180 71 0 -7 -64 -61 -185
-155 -87 -69 -279 -189 -416 -260 -153 -81 -199 -115 -199 -150 0 -26 76 -98
125 -118 23 -10 222 -38 341 -48 226 -20 353 1 562 91 124 54 172 80 347 196
131 86 233 179 346 312 45 53 86 101 90 106 5 5 4 -6 -2 -25 -31 -100 -40
-143 -48 -239 -10 -123 0 -323 19 -362 7 -16 20 -28 29 -28 9 0 60 20 115 45
111 50 113 49 24 -7 -73 -46 -48 -41 68 12 92 42 171 97 258 179 70 67 162
180 187 230 l17 36 7 -60 c17 -151 71 -312 103 -309 7 1 26 2 43 3 30 1 31 3
25 32 -3 17 -23 70 -44 118 -22 47 -44 108 -51 135 -13 53 -13 244 0 252 5 3
31 -7 60 -21 68 -35 72 -27 6 11 -55 32 -65 49 -45 77 13 17 16 17 73 -5 66
-25 90 -42 79 -59 -4 -8 3 -9 24 -4 22 4 43 0 72 -15 23 -12 44 -19 47 -17 2
3 -11 13 -31 22 -42 20 -45 32 -13 44 20 8 65 -10 99 -38 13 -11 -39 -214 -79
-306 -21 -49 -53 -112 -72 -138 -18 -26 -35 -60 -37 -74 -3 -15 -7 -30 -10
-35 -11 -17 14 -7 54 23 24 18 66 67 96 113 98 151 146 233 146 250 0 9 7 19
16 23 17 6 66 -40 184 -176 62 -71 114 -101 136 -79 22 21 53 161 65 287 6 64
12 118 14 119 2 2 19 -7 37 -21 18 -13 57 -37 86 -52 44 -24 56 -26 76 -17 21
9 26 21 32 72 4 33 9 60 11 60 11 0 63 -35 63 -43 0 -4 4 -6 9 -3 5 3 12 -1
15 -10 4 -9 13 -14 22 -10 9 4 13 2 8 -5 -4 -7 -1 -10 7 -7 21 8 83 -27 131
-74 81 -78 251 -185 330 -208 40 -12 88 -29 107 -38 29 -14 64 -17 215 -16
179 1 182 1 269 33 50 19 110 50 138 72 27 22 49 36 49 32 0 -5 19 12 41 37
23 25 38 37 35 27 -10 -30 1 -19 57 61 63 90 114 187 150 287 64 178 224 537
268 603 22 32 41 62 44 67 2 6 10 2 17 -9 38 -56 61 -77 69 -64 11 17 31 -2
67 -65 35 -58 104 -115 198 -161 86 -42 99 -44 115 -14 13 24 6 169 -10 226
-10 33 -10 33 12 19 217 -142 425 -201 515 -147 33 20 45 44 15 33 -14 -6 -15
1 -11 60 5 59 3 70 -19 99 -31 42 -96 158 -92 163 3 2 46 -14 97 -35 156 -64
298 -95 432 -95 130 1 215 18 230 46 14 25 -10 81 -62 142 -28 34 -37 51 -29
56 8 6 6 14 -8 32 -24 31 -118 126 -204 208 -37 34 -67 65 -67 67 0 2 24 -6
53 -18 205 -83 383 -118 607 -118 136 0 199 10 456 73 150 37 244 78 382 166
42 27 90 63 106 79 26 28 27 32 14 59 -8 16 -21 27 -30 25 -8 -1 -21 5 -28 13
-7 8 -22 15 -34 15 -15 0 -17 3 -7 9 14 9 -56 19 -357 50 -95 10 -178 23 -185
30 -8 8 -7 11 5 11 27 0 216 65 297 101 60 28 69 35 51 39 -20 5 -10 13 58 53
45 26 110 71 145 100 34 28 89 72 122 97 87 65 250 225 284 279 16 25 37 70
47 99 15 48 15 55 1 69 -13 13 -29 14 -114 5 -54 -6 -159 -11 -233 -12 l-135
-2 40 29 c87 64 234 241 289 351 34 66 80 200 95 270 11 54 14 98 4 74 -2 -6
-9 -10 -14 -6 -5 3 -12 -2 -15 -10 -3 -9 -11 -16 -18 -16 -6 0 -18 -20 -25
-45 -28 -97 -104 -233 -191 -345 -60 -78 -67 -82 -36 -25 l27 50 -42 -50 c-75
-90 -228 -233 -287 -270 -81 -50 -194 -102 -289 -135 -45 -15 -80 -30 -77 -33
3 -3 -4 -3 -17 0 -16 4 -20 3 -15 -6 6 -9 0 -10 -21 -6 -22 5 -25 4 -13 -5 12
-9 8 -10 -20 -6 -25 4 -30 3 -15 -3 18 -8 16 -11 -17 -25 -21 -9 -50 -16 -65
-16 -25 0 -26 1 -8 14 14 10 -4 9 -76 -6 -94 -19 -246 -25 -374 -14 -33 3 -98
1 -144 -5 -82 -10 -158 1 -146 21 2 4 30 20 61 36 96 49 197 172 211 258 l5
33 77 6 c42 3 90 10 106 16 46 16 238 75 255 79 25 6 -57 -48 -113 -74 -29
-13 -46 -24 -40 -24 12 0 119 48 239 107 61 29 156 100 322 237 116 96 123
100 218 128 55 16 135 36 179 44 44 8 115 24 158 35 72 20 79 24 94 58 9 20
19 40 21 45 6 11 -194 -16 -295 -41 -31 -7 -29 7 8 61 17 25 42 74 56 108 14
35 33 81 43 103 9 22 35 90 56 150 35 100 39 119 38 203 -2 95 -15 142 -41
142 -33 0 -264 -130 -396 -222 -37 -27 -70 -48 -73 -48 -3 0 6 15 19 33 59 77
146 273 181 402 51 196 60 256 47 351 -12 99 -41 155 -74 146 -26 -6 -108 -60
-237 -157 -140 -104 -220 -159 -225 -154 -2 3 18 52 45 110 61 132 98 227 115
304 19 82 17 100 -5 40 -23 -61 -24 -50 -5 30 8 33 17 95 21 138 7 75 6 77
-15 77 -12 0 -24 7 -27 15 -7 18 -4 19 -84 -7z m117 -40 c-3 -8 -6 -5 -6 6 -1
11 2 17 5 13 3 -3 4 -12 1 -19z m336 -449 c4 -16 3 -18 -9 -8 -16 13 -19 29
-5 29 5 0 11 -9 14 -21z m-48 -93 c27 -115 3 -227 -92 -437 -47 -102 -141
-264 -149 -256 -2 2 23 54 57 116 60 113 105 218 96 227 -2 2 -12 -17 -22 -43
-23 -61 -124 -239 -183 -323 -26 -36 -81 -106 -123 -156 -74 -88 -78 -116 -8
-51 33 30 34 30 37 8 4 -27 27 -38 47 -21 8 7 60 27 114 46 107 35 169 66 296
144 117 72 135 84 135 93 0 4 19 26 42 47 40 39 68 51 68 29 0 -36 -108 -365
-138 -419 -43 -78 -113 -170 -129 -170 -6 0 -32 -27 -57 -59 -72 -93 -232
-238 -324 -292 -102 -61 -220 -120 -287 -144 -27 -10 -54 -22 -60 -25 -5 -4
-50 -22 -98 -40 -48 -18 -90 -37 -93 -41 -3 -5 -23 -9 -44 -9 -21 0 -42 -4
-45 -10 -3 -5 -15 -10 -26 -10 -10 0 -19 -7 -19 -15 0 -14 -46 -33 -55 -23 -3
2 0 22 6 43 12 44 7 117 -11 157 -9 19 -22 27 -46 30 -19 2 -34 0 -34 -4 0 -4
-12 -8 -27 -8 -16 0 -67 -11 -116 -24 -48 -14 -97 -28 -110 -31 -21 -6 -21 -5
3 15 14 12 52 47 85 80 52 50 69 61 125 75 59 15 137 55 310 160 61 37 205
158 226 190 12 19 11 21 -12 23 -42 3 -143 -81 -144 -120 0 -10 -25 -31 -61
-53 -68 -40 -88 -40 -40 0 17 15 40 39 51 55 20 28 18 27 -105 -25 -68 -29
-139 -56 -156 -60 -31 -7 -31 -7 -25 26 6 35 6 34 -23 -31 -28 -62 -127 -198
-137 -187 -2 2 16 40 41 83 75 134 94 266 46 326 -15 17 -28 22 -61 21 -40 -2
-41 -1 -26 16 22 25 20 34 -7 27 -16 -4 -28 1 -39 13 -15 18 -14 20 15 32 18
8 69 41 115 76 73 55 98 67 75 37 -5 -5 37 36 92 91 55 55 151 164 213 242 62
78 119 144 127 146 40 16 14 -30 -103 -176 -30 -38 -52 -70 -50 -73 7 -7 111
118 163 198 39 58 61 82 100 103 68 38 257 179 341 255 98 90 213 180 228 180
9 0 20 -28 31 -74z m-435 -160 c0 -2 -11 -11 -25 -20 -14 -9 -25 -13 -25 -8 0
5 10 14 23 20 27 13 27 13 27 8z m-120 -84 c0 -5 -7 -17 -15 -28 -14 -18 -14
-17 -4 9 12 27 19 34 19 19z m-80 -77 c-13 -14 -26 -23 -28 -20 -3 3 5 16 18
30 13 14 26 23 28 20 3 -3 -5 -16 -18 -30z m960 -205 c0 -30 -11 -37 -45 -24
-14 6 -13 9 6 30 30 32 39 30 39 -6z m-75 -59 c-3 -6 -11 -11 -17 -11 -6 0 -6
6 2 15 14 17 26 13 15 -4z m-57 -33 c-8 -13 -25 -28 -37 -34 -12 -6 -32 -20
-44 -30 -12 -11 -36 -27 -54 -37 -62 -34 -46 -16 39 44 48 33 90 64 93 70 4 5
9 9 12 9 3 0 -1 -10 -9 -22z m-518 -213 c0 -2 -10 -10 -22 -16 -21 -11 -22
-11 -9 4 13 16 31 23 31 12z m-966 -295 c-15 -15 -84 -25 -84 -12 0 11 25 18
70 21 16 1 21 -2 14 -9z m-94 -20 c0 -5 -2 -10 -4 -10 -3 0 -8 5 -11 10 -3 6
-1 10 4 10 6 0 11 -4 11 -10z m-940 -199 c0 -5 -7 -12 -16 -15 -14 -5 -15 -4
-4 9 14 17 20 19 20 6z m1217 -27 c-16 -9 -31 -13 -34 -10 -3 3 5 10 18 15 37
15 47 12 16 -5z m44 -19 c-41 -20 -94 -49 -118 -65 -23 -16 -43 -27 -43 -24 0
2 11 22 25 44 19 30 32 40 53 41 15 0 50 9 77 19 82 30 85 22 6 -15z m-343
-217 c-8 -12 -21 -24 -29 -26 -8 -3 -3 7 10 22 30 32 39 34 19 4z m-1148 -43
c0 -8 -4 -15 -10 -15 -5 0 -10 7 -10 15 0 8 5 15 10 15 6 0 10 -7 10 -15z
m2053 -24 c-55 -40 -89 -56 -153 -74 -94 -26 -112 -29 -105 -17 3 5 13 10 22
10 9 0 34 9 57 19 65 31 200 89 210 90 5 1 -9 -12 -31 -28z m-1036 -27 c-28
-24 -47 -31 -47 -16 0 11 63 52 69 46 4 -3 -7 -17 -22 -30z m-1027 -10 c0 -8
-4 -12 -10 -9 -5 3 -10 10 -10 16 0 5 5 9 10 9 6 0 10 -7 10 -16z m-15 -84
c-4 -28 -9 -49 -12 -46 -3 2 -2 28 2 56 4 28 9 49 12 46 3 -2 2 -28 -2 -56z
m1069 29 c-3 -5 -20 -9 -37 -9 -22 0 -28 3 -18 9 17 11 62 11 55 0z m-5694
-99 c8 -5 11 -10 5 -10 -5 0 -17 5 -25 10 -8 5 -10 10 -5 10 6 0 17 -5 25 -10z
m3525 -60 c-3 -5 -13 -10 -21 -10 -8 0 -12 5 -9 10 3 6 13 10 21 10 8 0 12 -4
9 -10z m69 -51 c20 -12 36 -25 36 -30 0 -5 7 -9 15 -9 8 0 15 -7 15 -15 0 -8
7 -15 15 -15 23 0 116 -72 148 -114 29 -37 61 -105 54 -112 -2 -3 -17 14 -32
36 -36 51 -110 120 -130 120 -25 0 -28 -27 -7 -62 11 -18 34 -75 52 -127 25
-73 31 -104 26 -140 -24 -195 -20 -221 33 -221 l26 0 -25 -20 c-49 -38 -158
-90 -221 -105 -95 -22 -123 -21 -269 16 -21 5 -52 26 -77 51 -34 36 -40 47
-32 66 8 22 10 22 45 7 50 -21 80 -19 142 10 29 13 70 29 92 35 55 15 127 96
135 154 7 45 -1 278 -12 336 -8 45 -40 120 -60 143 -21 23 -12 22 31 -4z
m2391 -19 c-16 -17 -33 -30 -39 -30 -5 0 5 16 24 35 18 19 36 32 39 30 2 -3
-8 -19 -24 -35z m-3945 -156 c0 -6 -13 -17 -30 -24 -24 -10 -29 -17 -24 -35 4
-16 -1 -27 -17 -38 -19 -14 -20 -19 -9 -32 8 -9 10 -28 7 -50 -5 -32 6 -50 15
-24 3 9 10 9 26 0 30 -16 28 -31 -6 -31 -15 0 -33 -5 -40 -12 -17 -17 -15 -48
4 -48 20 0 74 -54 74 -73 0 -8 -7 -20 -16 -27 -13 -12 -22 -7 -59 32 -48 51
-65 96 -65 178 0 49 5 74 34 180 4 14 -7 0 -23 -30 -17 -30 -30 -50 -31 -43
-1 30 46 133 83 182 l40 55 18 -75 c10 -41 18 -79 19 -85z m5263 129 c-7 -2
-21 -2 -30 0 -10 3 -4 5 12 5 17 0 24 -2 18 -5z m437 -12 c0 -6 -4 -13 -10
-16 -5 -3 -10 1 -10 9 0 9 5 16 10 16 6 0 10 -4 10 -9z m-55 -12 c15 -24 -22
-73 -104 -138 -363 -287 -649 -447 -900 -501 -115 -25 -303 -50 -431 -57 -109
-6 -231 6 -354 34 l-69 15 129 49 c117 45 234 109 234 129 0 5 -26 -4 -57 -20
-64 -32 -125 -50 -108 -32 6 6 37 31 70 56 44 33 63 42 72 34 10 -8 13 -6 13
7 0 11 5 15 15 11 27 -10 17 41 -15 77 -39 45 -38 54 4 29 34 -20 34 -20 39
-1 4 16 11 19 34 14 21 -5 24 -4 13 4 -13 9 -13 11 2 11 9 0 18 -5 20 -11 4
-12 148 18 264 56 42 14 82 25 89 25 8 0 15 4 17 9 2 5 21 12 43 16 l40 7 -60
-36 c-70 -41 -58 -45 40 -12 39 13 102 27 140 31 93 9 349 53 378 64 12 5 70
22 130 37 59 15 105 29 103 31 -5 6 -252 -35 -311 -52 -58 -16 -206 -37 -213
-31 -2 3 18 16 45 29 46 23 204 54 221 43 5 -3 26 1 48 9 21 7 84 20 139 29
55 9 134 23 175 30 97 18 98 18 105 5z m-7036 -35 c28 -15 51 -28 49 -29 -2
-2 -35 5 -73 15 -39 11 -73 20 -77 20 -5 0 -8 5 -8 10 0 18 56 10 109 -16z
m7081 -37 c0 -2 -10 -12 -22 -23 l-23 -19 19 23 c18 21 26 27 26 19z m-5282
-107 c-42 -88 -42 -90 -28 -90 5 0 25 24 43 53 19 28 44 61 57 72 l22 20 -7
-45 c-4 -25 -18 -90 -31 -145 -31 -128 -31 -156 0 -175 13 -8 50 -32 81 -53
32 -21 94 -56 139 -78 78 -38 158 -89 140 -89 -5 0 -3 -4 5 -9 9 -6 19 -4 28
5 16 15 33 19 33 6 0 -4 -57 -34 -127 -67 l-128 -58 -65 35 c-56 30 -71 45
-108 104 -23 38 -47 85 -52 104 -16 59 -11 142 14 231 17 55 20 77 10 65 -8
-11 -14 -28 -14 -37 0 -10 -4 -21 -10 -24 -25 -15 -53 -104 -58 -184 -4 -80
-5 -83 -18 -55 -12 25 -13 25 -8 4 23 -93 105 -197 175 -222 16 -6 28 -12 26
-14 -10 -10 -94 30 -154 71 -45 31 -63 40 -59 28 4 -10 -5 -5 -19 12 -51 60
-87 117 -87 138 -1 39 30 156 53 205 37 78 168 272 184 272 1 0 -16 -36 -37
-80z m4095 23 c-7 -2 -19 -2 -25 0 -7 3 -2 5 12 5 14 0 19 -2 13 -5z m252 -3
c-11 -5 -27 -9 -35 -9 -9 0 -8 4 5 9 11 5 27 9 35 9 9 0 8 -4 -5 -9z m865 7
c0 -2 -10 -12 -22 -23 l-23 -19 19 23 c18 21 26 27 26 19z m-1223 -25 c-32 -3
-37 -6 -32 -23 5 -15 1 -19 -22 -21 -52 -3 -123 15 -110 28 9 9 181 31 192 25
6 -3 -7 -7 -28 -9z m96 1 c-7 -2 -19 -2 -25 0 -7 3 -2 5 12 5 14 0 19 -2 13
-5z m370 0 c-7 -2 -19 -2 -25 0 -7 3 -2 5 12 5 14 0 19 -2 13 -5z m-915 -40
c13 -8 21 -17 18 -20 -7 -7 -195 28 -202 38 -8 14 159 -2 184 -18z m268 11
c80 -27 78 -37 -6 -29 -41 4 -92 8 -112 8 -44 1 -50 14 -10 23 15 3 32 7 37 9
21 7 43 4 91 -11z m204 12 c0 -2 -7 -6 -15 -10 -8 -3 -15 -1 -15 4 0 6 7 10
15 10 8 0 15 -2 15 -4z m-370 -16 c0 -5 -6 -10 -14 -10 -8 0 -18 5 -21 10 -3
6 3 10 14 10 12 0 21 -4 21 -10z m-1880 -136 c23 -9 39 -18 37 -20 -2 -3 -24
4 -48 15 -54 24 -45 27 11 5z m-65 -36 c32 -22 41 -34 32 -40 -7 -5 -2 -6 13
-3 20 4 35 -4 76 -42 29 -26 74 -68 100 -93 48 -44 106 -138 125 -203 33 -108
62 -427 40 -427 -8 0 -9 -6 -1 -19 14 -26 13 -54 -1 -45 -9 5 -10 -4 -5 -31 5
-27 4 -35 -4 -30 -9 6 -11 -6 -6 -46 3 -30 3 -47 -1 -39 -6 15 -25 -55 -43
-158 -9 -58 -14 -67 -28 -58 -9 5 -9 60 1 86 13 36 15 65 6 82 -7 14 -7 23 1
33 12 14 8 94 -5 116 -4 6 -16 9 -26 6 -29 -8 -24 32 11 97 34 62 33 92 -7
139 l-23 29 22 18 23 19 -23 17 c-17 12 -22 23 -18 39 3 12 -1 30 -9 41 -21
28 -18 44 10 44 58 0 48 79 -15 117 -17 10 -40 34 -52 53 -13 21 -23 30 -25
22 -3 -7 3 -22 13 -33 15 -17 16 -23 4 -59 -16 -47 -27 -50 -41 -12 -6 15 -28
48 -50 74 -21 26 -39 51 -39 56 0 5 -29 9 -66 9 -53 0 -67 -4 -75 -19 -8 -14
-6 -18 9 -18 24 0 105 -52 126 -81 21 -30 20 -67 -1 -91 -37 -41 -90 -11 -157
92 -32 48 -53 70 -66 70 -21 0 -28 -24 -10 -35 6 -3 10 1 10 9 0 20 16 21 24
1 3 -8 0 -14 -6 -12 -7 1 -17 -8 -23 -20 -5 -13 -16 -23 -23 -23 -13 0 -33
-40 -25 -52 7 -13 30 -9 46 7 19 18 27 9 27 -31 0 -27 -6 -35 -37 -51 -20 -10
-38 -26 -39 -35 -1 -10 -13 -28 -27 -40 -13 -13 -35 -41 -49 -63 -25 -39 -90
-105 -73 -75 4 8 -1 6 -12 -5 -19 -19 -20 -49 -2 -61 11 -6 49 -92 49 -110 0
-7 -14 -24 -31 -37 l-32 -25 -22 26 -22 26 -7 -37 c-7 -37 -30 -58 -53 -50
-18 7 -16 -42 2 -57 19 -15 2 -52 -20 -44 -8 4 -15 2 -15 -4 0 -11 33 -22 67
-22 19 0 22 -5 20 -41 -1 -33 -6 -43 -25 -50 -33 -13 -38 -7 -37 45 1 32 -3
46 -12 46 -7 0 -13 -4 -13 -10 0 -5 4 -10 10 -10 5 0 7 -6 4 -14 -3 -8 -12
-12 -19 -10 -23 9 -25 -11 -5 -48 10 -20 16 -39 13 -42 -4 -3 -1 -6 5 -6 7 0
12 -7 12 -15 0 -18 30 -20 31 -2 0 10 2 10 6 0 2 -7 14 -13 25 -13 22 0 21 0
-7 -47 -11 -18 -26 -33 -32 -33 -7 0 -13 -6 -13 -14 0 -21 -21 -31 -31 -15 -8
11 -12 10 -24 -5 -8 -11 -15 -27 -15 -37 0 -9 -8 -23 -17 -30 -14 -12 -16 -12
-11 1 3 9 0 24 -8 35 -14 18 -16 17 -18 -15 -1 -8 -9 -14 -19 -14 -24 2 -22
-36 2 -43 12 -3 21 -16 24 -36 4 -26 0 -37 -24 -60 -28 -27 -37 -47 -21 -47 4
0 13 -12 20 -27 11 -25 10 -29 -9 -44 -19 -14 -20 -19 -9 -60 6 -24 17 -48 24
-54 16 -13 26 -41 18 -50 -4 -3 -7 -14 -7 -22 0 -9 -8 -17 -17 -19 -10 -1 -18
4 -18 12 0 8 5 14 10 14 6 0 10 4 10 8 0 9 -47 8 -57 -1 -3 -4 -19 -7 -34 -7
-33 0 -42 14 -74 115 -50 158 -99 213 -165 188 -34 -13 -47 -6 -51 27 -4 22
-8 25 -38 22 -26 -2 -32 1 -28 12 3 8 1 16 -4 18 -5 2 -11 13 -11 24 -2 15 -7
20 -20 16 -25 -6 -22 -31 7 -54 14 -11 25 -23 25 -27 0 -4 27 -35 60 -68 48
-48 60 -66 60 -91 0 -27 -6 -34 -40 -51 -23 -11 -40 -15 -40 -8 0 6 -6 18 -14
26 -18 21 -56 125 -56 154 0 12 -5 29 -10 37 -9 13 -13 12 -26 -5 -15 -19 -16
-19 -12 13 5 36 -14 54 -35 33 -20 -20 -35 -12 -47 25 -7 19 -18 38 -26 41 -9
3 -12 13 -8 25 5 17 2 19 -23 16 -19 -2 -27 -8 -24 -18 11 -41 6 -65 -16 -68
-15 -2 -23 -10 -23 -23 0 -22 -11 -24 -28 -7 -9 9 -12 8 -12 -5 0 -9 -1 -20
-2 -24 -3 -8 4 -9 82 -17 32 -3 35 -6 34 -32 -1 -24 7 -35 37 -57 31 -22 39
-25 39 -12 0 13 2 14 14 3 10 -10 11 -16 3 -26 -8 -11 -7 -16 6 -24 16 -8 14
-12 -14 -39 -17 -16 -35 -29 -39 -29 -5 0 -10 -5 -12 -12 -7 -20 -66 29 -89
74 -14 27 -25 38 -35 34 -9 -3 -20 -6 -25 -6 -13 0 -11 -24 3 -38 15 -15 21
-52 8 -52 -6 0 -15 10 -20 23 -8 20 -9 19 -9 -10 -1 -37 -24 -47 -58 -25 -34
21 -30 57 7 72 42 17 37 29 -9 27 -32 -1 -40 -5 -44 -24 -2 -12 1 -27 7 -33 8
-9 6 -11 -9 -8 -11 2 -24 12 -30 23 -20 39 -27 47 -34 37 -9 -14 -70 18 -92
48 -17 23 -17 29 -5 65 9 25 11 44 5 51 -5 6 -6 20 -2 29 4 13 3 16 -5 11 -7
-4 -26 0 -43 8 -31 15 -31 15 -25 -9 9 -37 -6 -30 -34 15 -14 22 -26 36 -28
30 -7 -20 -24 -10 -19 11 3 12 2 29 -3 38 -22 39 -40 96 -40 127 0 27 -4 34
-20 34 -20 0 -120 66 -120 79 0 4 6 16 14 27 14 18 15 18 25 -6 25 -60 59 -78
99 -53 34 22 42 33 42 59 0 29 -76 199 -88 197 -5 -1 -12 14 -15 34 -4 21 -25
60 -52 94 -25 32 -43 64 -39 72 3 9 -14 30 -45 57 -49 40 -51 44 -51 91 0 42
-3 49 -20 49 -15 0 -20 -7 -20 -27 0 -21 -3 -24 -10 -13 -11 17 38 113 87 168
l32 37 -11 -31 c-15 -42 -5 -64 30 -64 28 0 89 38 104 65 7 12 14 11 43 -6 19
-12 35 -26 35 -33 0 -19 55 -47 68 -34 8 8 20 7 44 -4 66 -31 114 -44 166 -46
24 -2 32 -7 32 -21 0 -25 26 -51 51 -51 12 0 27 13 37 30 15 25 25 30 72 36
90 10 180 33 222 56 32 18 41 20 48 9 4 -8 15 -11 25 -7 15 5 15 9 4 23 -10
12 -11 17 -2 20 6 2 32 20 58 39 53 41 64 40 132 -17 26 -21 63 -44 81 -50 25
-8 31 -14 23 -22 -6 -6 -11 -14 -11 -17 0 -14 154 11 250 40 147 44 244 94
308 158 28 29 52 47 52 40 0 -7 14 2 30 20 20 21 30 43 30 63 0 39 31 83 70
99 35 14 38 26 10 35 -14 4 -20 15 -20 35 0 49 42 53 105 8z m337 -221 c10
-19 8 -18 -20 4 -39 30 -51 55 -16 33 14 -9 30 -26 36 -37z m-38 -3 c5 -14 4
-15 -9 -4 -17 14 -19 20 -6 20 5 0 12 -7 15 -16z m422 -40 c-3 -8 -10 -14 -16
-14 -14 0 -13 27 2 53 l13 22 3 -23 c2 -13 1 -30 -2 -38z m784 16 c12 -8 9
-10 -13 -10 -16 0 -26 4 -22 10 8 12 16 12 35 0z m-1139 -22 c11 -21 11 -22
-4 -9 -10 7 -17 17 -17 22 0 15 9 10 21 -13z m-11 -28 c6 -11 9 -20 7 -20 -2
0 -12 9 -22 20 -10 11 -13 20 -7 20 6 0 16 -9 22 -20z m1328 2 c2 -7 -3 -12
-12 -12 -9 0 -16 7 -16 16 0 17 22 14 28 -4z m-3672 -13 c9 -15 -33 -10 -45 5
-9 11 -6 12 14 8 14 -2 28 -8 31 -13z m2689 1 c7 -21 -19 -80 -35 -80 -13 0
-13 17 0 25 6 4 10 14 9 23 -5 50 13 73 26 32z m875 -11 c0 -6 -4 -7 -10 -4
-5 3 -10 11 -10 16 0 6 5 7 10 4 6 -3 10 -11 10 -16z m50 -19 c0 -5 -4 -10
-10 -10 -5 0 -10 5 -10 10 0 6 5 10 10 10 6 0 10 -4 10 -10z m90 -62 c0 -16
-38 12 -62 44 l-23 33 43 -34 c23 -19 42 -38 42 -43z m-1315 32 c16 -16 24
-30 19 -30 -9 0 -64 47 -64 55 0 13 19 2 45 -25z m1325 20 c8 -5 11 -10 5 -10
-5 0 -17 5 -25 10 -8 5 -10 10 -5 10 6 0 17 -5 25 -10z m143 3 c-7 -2 -21 -2
-30 0 -10 3 -4 5 12 5 17 0 24 -2 18 -5z m-3988 -33 c-16 -16 -31 -28 -33 -25
-7 7 39 55 52 55 5 0 -3 -13 -19 -30z m4572 24 c-11 -11 -159 -33 -175 -26
-10 4 23 12 73 18 50 6 94 12 99 13 5 0 7 -2 3 -5z m-317 -25 c25 0 54 2 64 3
10 2 21 -3 23 -9 3 -10 -14 -13 -64 -15 -72 -1 -126 2 -132 7 -11 11 15 25 38
20 15 -3 47 -6 71 -6z m-281 -33 c14 -15 13 -16 -19 -10 -42 8 -70 21 -70 33
0 13 71 -5 89 -23z m-1234 -41 c-29 -39 -37 -42 -54 -21 -10 11 -8 16 7 20 10
4 30 18 43 32 33 35 37 11 4 -31z m1415 35 c42 -8 41 -8 -24 -7 -45 1 -71 6
-74 14 -4 13 -3 13 98 -7z m480 0 c11 -7 1 -10 -35 -10 -36 0 -46 3 -35 10 8
5 24 10 35 10 11 0 27 -5 35 -10z m-2095 -20 c10 -11 14 -20 8 -20 -5 0 -18 9
-28 20 -10 11 -14 20 -8 20 5 0 18 -9 28 -20z m1357 -4 c24 -8 61 -14 83 -14
61 2 323 -20 385 -32 30 -6 73 -13 95 -15 100 -11 400 -35 500 -40 131 -7 362
-33 390 -44 17 -7 12 -13 -40 -46 -62 -40 -205 -105 -231 -105 -9 0 -12 -5 -9
-10 4 -6 3 -9 -2 -8 -4 1 -17 -3 -28 -9 -28 -15 -139 -40 -205 -47 l-55 -5 85
28 c47 16 117 42 156 58 81 34 234 122 234 135 0 4 -46 -16 -102 -45 -57 -29
-134 -66 -173 -82 -38 -16 -79 -34 -90 -41 -11 -6 -44 -19 -73 -29 -32 -10
-50 -21 -46 -27 12 -19 -414 5 -591 33 -169 26 -247 44 -355 79 -63 21 -130
41 -147 45 -51 10 -47 22 10 28 29 4 73 14 98 22 47 16 119 69 119 87 0 6 -3
8 -6 5 -6 -6 -44 35 -44 47 0 4 12 4 28 1 24 -5 25 -4 9 7 -62 43 -62 46 5 24z
m-1552 -17 c0 -6 -4 -7 -10 -4 -5 3 -10 11 -10 16 0 6 5 7 10 4 6 -3 10 -11
10 -16z m-1563 -5 c-3 -3 -12 -4 -19 -1 -8 3 -5 6 6 6 11 1 17 -2 13 -5z
m1781 -42 c6 -18 -15 -14 -22 4 -4 10 -1 14 6 12 6 -2 14 -10 16 -16z m-5508
-22 c166 0 173 -14 13 -25 -66 -4 -127 -3 -166 4 -169 31 -168 31 -77 26 47
-3 150 -5 230 -5z m1185 -15 c-65 -27 -178 -44 -188 -28 -4 6 27 15 76 22 45
6 96 15 112 20 59 18 59 10 0 -14z m4429 -11 c-21 -29 -37 -33 -42 -10 -3 14
48 49 57 40 3 -2 -4 -16 -15 -30z m2687 8 c-7 -2 -18 1 -23 6 -8 8 -4 9 13 5
13 -4 18 -8 10 -11z m-3361 -22 c64 -41 102 -97 108 -160 7 -74 -32 -110 -87
-80 -24 12 -29 26 -51 140 -10 52 -21 103 -25 113 -10 24 1 21 55 -13z m-6484
-51 c19 -22 19 -22 -3 -10 -24 12 -39 31 -25 31 5 0 17 -10 28 -21z m7061 -1
c-3 -8 -6 -5 -6 6 -1 11 2 17 5 13 3 -3 4 -12 1 -19z m10 -95 c-2 -16 -4 -5
-4 22 0 28 2 40 4 28 2 -13 2 -35 0 -50z m837 61 c9 -3 16 -13 16 -20 0 -12
-4 -12 -20 -4 -11 6 -20 15 -20 20 0 12 3 12 24 4z m146 -23 c0 -5 -8 -11 -17
-13 -12 -2 0 -14 37 -38 93 -59 200 -149 316 -266 140 -140 202 -220 185 -237
-15 -14 -316 -14 -334 1 -7 5 -64 28 -127 52 -63 23 -117 46 -120 49 -3 4 -21
13 -40 21 -59 24 -202 125 -259 184 -30 31 -53 57 -50 59 2 2 31 1 64 -3 133
-15 284 17 293 62 2 9 -12 33 -30 53 -48 55 -47 73 5 78 23 2 50 4 60 5 9 1
17 -2 17 -7z m-1725 -21 c-3 -5 -1 -10 4 -10 6 0 11 -7 11 -15 0 -8 -4 -15
-10 -15 -5 0 -10 5 -10 11 0 5 -4 8 -9 5 -5 -3 -12 1 -15 10 -3 8 -2 12 3 9 5
-3 12 -1 16 5 3 5 8 10 11 10 3 0 2 -4 -1 -10z m485 -61 c0 -5 -4 -9 -10 -9
-5 0 -10 7 -10 16 0 8 5 12 10 9 6 -3 10 -10 10 -16z m277 -86 c-3 -10 -5 -2
-5 17 0 19 2 27 5 18 2 -10 2 -26 0 -35z m552 -72 c40 -75 29 -76 -28 -3 -23
28 -49 52 -57 52 -15 0 -15 -2 0 -25 9 -14 13 -25 10 -25 -6 0 -55 40 -128
101 -4 4 32 -3 80 -15 l89 -22 34 -63z m-5564 -13 c36 -28 65 -53 65 -54 0 -6
-75 41 -78 48 -2 4 -10 8 -17 8 -15 0 -45 27 -45 41 0 16 9 11 75 -43z m5220
-96 c-5 -6 -122 56 -139 73 -9 9 -14 20 -11 25 3 5 38 -15 79 -43 40 -29 72
-53 71 -55z m-650 -16 c8 -19 15 -56 15 -81 0 -75 -55 -110 -101 -64 -19 19
-21 30 -17 98 3 44 12 90 22 109 l17 33 25 -30 c13 -16 31 -45 39 -65z m-4555
42 c0 -6 -6 -5 -15 2 -8 7 -15 14 -15 16 0 2 7 1 15 -2 8 -4 15 -11 15 -16z
m1666 -26 c-8 -7 -25 8 -37 31 -11 21 -10 21 15 -2 14 -14 24 -26 22 -29z
m3410 33 c10 -8 14 -15 8 -15 -5 0 -19 7 -30 15 -10 8 -14 15 -8 15 5 0 19 -7
30 -15z m-4936 -51 c0 -15 48 -37 128 -59 70 -20 85 -41 21 -30 -56 10 -200
63 -221 82 -24 21 -23 36 1 23 32 -17 36 -11 10 17 l-24 26 43 -23 c23 -13 42
-29 42 -36z m-165 3 c0 -30 2 -32 40 -32 22 0 58 -9 80 -18 101 -46 241 -82
346 -89 l37 -3 -57 -69 c-53 -66 -61 -71 -176 -123 -66 -29 -130 -53 -142 -53
-13 0 -23 -4 -23 -9 0 -5 -24 -15 -52 -21 -29 -7 -58 -17 -64 -21 -6 -5 -26
-7 -45 -4 -19 3 -28 3 -21 -1 26 -12 10 -24 -35 -24 -25 0 -44 -3 -40 -6 14
-14 -19 -30 -57 -28 -23 1 -43 -1 -46 -5 -8 -12 -175 -57 -362 -98 l-173 -37
-245 -1 c-189 0 -270 4 -355 18 -148 24 -302 54 -344 67 -62 18 -221 83 -221
90 0 11 138 112 215 158 133 78 432 186 515 185 19 0 89 -12 155 -26 171 -38
385 -52 555 -37 74 6 136 13 137 14 1 1 -65 2 -146 2 -216 2 -225 19 -14 27
226 9 423 51 423 90 0 12 -7 13 -37 6 -21 -5 -42 -8 -48 -8 -15 0 106 49 121
49 7 0 25 11 40 25 31 29 39 26 39 -18z m5172 -67 c4 -19 6 -41 4 -49 -1 -8
27 -44 62 -80 74 -76 83 -90 92 -151 3 -25 20 -85 36 -133 16 -49 29 -90 29
-92 0 -15 -94 52 -169 120 -166 152 -211 217 -211 307 0 32 25 152 36 170 3 4
29 -8 59 -25 45 -26 56 -38 62 -67z m1313 46 c-1 -6 -10 0 -20 13 -11 13 -20
28 -20 35 1 6 10 0 20 -13 11 -13 20 -28 20 -35z m-746 -5 c12 -10 59 -44 106
-75 58 -40 76 -55 55 -50 -16 4 -42 14 -56 23 -35 22 -145 121 -134 121 5 0
18 -8 29 -19z m-544 -22 c0 -5 4 -8 8 -5 4 2 50 -7 102 -22 117 -32 263 -42
254 -18 -4 11 -1 16 10 16 9 0 19 7 22 15 9 23 19 18 46 -22 14 -21 56 -69 93
-108 72 -74 98 -129 111 -227 l7 -50 -34 7 c-55 11 -132 41 -231 91 -135 68
-194 109 -277 193 -41 42 -72 68 -68 59 12 -33 -8 -18 -35 26 -30 47 -33 56
-18 56 6 0 10 -5 10 -11z m-882 -68 c26 -47 35 -75 36 -115 1 -61 -14 -86 -54
-86 -29 0 -36 10 -50 69 -10 42 9 203 24 198 5 -2 25 -31 44 -66z m467 26 l39
-34 -27 -18 c-26 -17 -28 -17 -47 0 -20 18 -29 85 -12 85 5 0 26 -15 47 -33z
m965 -80 c0 -12 -10 -2 -68 74 -31 41 -30 40 17 -9 28 -29 51 -59 51 -65z
m-7049 81 c22 -6 39 -14 39 -18 0 -4 -28 -13 -62 -20 -35 -7 -91 -23 -125 -36
-73 -27 -91 -18 -30 15 23 12 60 33 82 46 47 29 46 29 96 13z m1839 -63 c-7
-9 -15 -13 -19 -10 -3 3 1 10 9 15 21 14 24 12 10 -5z m3546 -40 c-25 -19 -37
-19 -30 0 4 8 16 15 28 15 21 -1 21 -1 2 -15z m-1682 -10 c11 -8 15 -15 10
-15 -6 0 -19 7 -30 15 -10 8 -14 14 -9 14 6 0 19 -6 29 -14z m-236 -12 c-10
-2 -26 -2 -35 0 -10 3 -2 5 17 5 19 0 27 -2 18 -5z m180 0 c-10 -2 -26 -2 -35
0 -10 3 -2 5 17 5 19 0 27 -2 18 -5z m2175 -35 c3 -18 9 -49 13 -68 4 -19 8
-61 8 -93 1 -47 -3 -61 -18 -73 -27 -19 -42 -18 -67 7 -18 18 -20 29 -15 68 3
25 16 75 27 111 12 36 23 71 25 78 6 22 21 4 27 -30z m-398 -48 c3 -5 3 -10
-2 -10 -4 0 -19 -3 -33 -6 -24 -5 -24 -5 -6 10 23 19 32 20 41 6z m-3745 -14
c0 -2 -18 -38 -40 -81 -22 -42 -48 -106 -59 -141 l-19 -63 30 -10 c56 -20 194
-32 321 -29 70 2 127 1 127 -2 0 -15 -211 -182 -313 -247 -180 -117 -562 -260
-957 -358 -115 -29 -346 -47 -435 -35 l-50 7 50 2 c78 2 294 29 360 45 33 8
104 24 158 36 54 12 97 24 94 26 -2 2 -53 -5 -113 -17 -193 -36 -305 -49 -491
-56 -171 -6 -184 -5 -205 13 -18 15 -20 16 -9 2 12 -16 11 -18 -3 -18 -10 0
-27 5 -39 12 -12 7 -26 13 -32 14 -5 0 -15 2 -22 2 -25 4 -83 64 -83 87 0 24
56 58 180 110 76 32 324 154 393 194 51 29 91 63 50 42 -33 -17 -39 -13 -12 8
15 11 63 25 124 35 253 43 600 162 805 275 76 42 122 77 63 47 -42 -21 -50
-20 -48 6 1 17 19 30 81 59 77 36 94 43 94 35z m4340 -129 c-12 -40 -35 -97
-51 -127 -16 -31 -32 -68 -34 -82 -16 -85 -108 -301 -139 -327 -9 -8 -16 -18
-16 -23 0 -5 -15 -28 -34 -51 -18 -23 -36 -54 -40 -69 -9 -37 -52 -85 -124
-135 -54 -38 -61 -41 -78 -28 -11 8 -14 15 -7 15 13 0 7 68 -8 85 -5 5 -9 14
-9 20 1 5 9 0 19 -13 11 -12 21 -17 23 -12 2 6 13 12 25 13 12 0 19 5 16 10
-3 5 -15 6 -27 3 -14 -3 -23 -1 -24 7 -5 59 0 84 32 158 20 47 36 90 36 97 0
7 5 12 10 12 8 0 16 -73 12 -111 0 -3 3 -22 8 -42 4 -21 4 -39 -1 -43 -16 -10
-9 -39 16 -63 14 -13 23 -17 20 -9 -4 9 4 17 20 23 l27 10 -22 23 c-26 27 -22
51 15 106 14 20 25 43 25 51 0 8 4 15 9 15 21 0 22 40 2 62 -12 12 -21 34 -21
48 0 27 67 134 85 134 5 1 14 -23 18 -52 l9 -54 20 22 c22 23 88 148 88 167 0
6 4 13 8 15 9 3 66 99 60 101 -33 17 -44 28 -46 47 -4 26 7 75 15 67 3 -4 22
5 42 19 36 24 36 24 39 4 2 -12 -6 -54 -18 -93z m-4346 -14 c-14 -31 -23 -65
-20 -75 3 -13 -2 -22 -16 -27 -21 -8 -21 -8 3 -25 l24 -18 -40 7 c-22 4 -41 8
-43 10 -7 7 23 64 66 121 26 35 48 64 49 64 1 0 -9 -26 -23 -57z m3642 30 c34
-25 84 -107 84 -136 0 -25 -41 -67 -64 -67 -46 0 -61 33 -63 136 -1 52 1 94 4
94 2 0 20 -12 39 -27z m-3839 11 c-3 -3 -12 -4 -19 -1 -8 3 -5 6 6 6 11 1 17
-2 13 -5z m5741 -18 c11 -25 7 -36 -15 -36 -8 0 -13 12 -13 30 0 36 13 39 28
6z m-5738 -6 c0 -8 -71 -41 -182 -85 -62 -25 -69 -26 -83 -11 -9 9 -24 16 -33
17 -12 0 -9 3 7 10 13 5 47 7 75 4 45 -6 49 -5 34 8 -29 23 -21 30 28 23 40
-5 45 -4 34 9 -11 13 -8 15 18 15 16 0 32 6 35 13 5 14 67 12 67 -3z m3070 -6
c0 -2 -7 -4 -15 -4 -8 0 -15 4 -15 10 0 5 7 7 15 4 8 -4 15 -8 15 -10z m-1582
-66 c-33 -61 -114 -138 -185 -175 -77 -42 -92 -42 -27 -2 27 17 90 73 139 124
50 51 91 93 93 94 2 0 -7 -18 -20 -41z m1616 -30 c-10 -16 -24 -8 -30 18 -5
17 -2 29 7 35 10 6 16 1 21 -18 4 -14 5 -30 2 -35z m-84 42 c0 -5 -4 -10 -10
-10 -5 0 -10 5 -10 10 0 6 5 10 10 10 6 0 10 -4 10 -10z m1392 -52 c-6 -6 -7
0 -4 19 5 21 7 23 10 9 2 -10 0 -22 -6 -28z m-4699 5 c16 -9 5 -20 -30 -31
-27 -8 -46 -8 -75 1 -21 6 -38 15 -38 19 0 21 111 29 143 11z m4469 -39 c9
-27 17 -59 17 -72 1 -34 -50 -82 -88 -82 -16 0 -33 -4 -36 -10 -9 -15 -25 -12
-25 4 0 8 -7 16 -15 20 -22 8 -18 34 5 41 21 7 28 25 10 25 -5 0 -10 9 -10 19
0 13 5 18 18 14 13 -3 28 10 52 46 19 28 40 50 45 48 6 -2 18 -26 27 -53z
m-1002 26 c0 -5 -9 -10 -20 -10 -11 0 -20 5 -20 10 0 6 9 10 20 10 11 0 20 -4
20 -10z m-3642 -22 c61 -12 67 -24 16 -34 -24 -4 -54 -1 -89 12 -51 17 -52 18
-32 30 12 7 29 10 37 7 8 -3 39 -10 68 -15z m4467 -7 c3 -5 1 -12 -5 -16 -5
-3 -10 1 -10 9 0 18 6 21 15 7z m-226 -23 c-39 -26 -49 -29 -49 -15 0 8 10 19
23 24 25 12 46 5 26 -9z m-4362 -5 c51 -16 77 -41 31 -30 -114 29 -128 30
-142 12 -12 -17 -16 -17 -47 -4 l-34 14 50 11 c69 17 81 16 142 -3z m4953 -3
c0 -5 -5 -10 -11 -10 -5 0 -7 5 -4 10 3 6 8 10 11 10 2 0 4 -4 4 -10z m-5175
-55 c37 -18 44 -24 27 -24 -13 -1 -31 3 -40 8 -9 4 -30 11 -47 15 -27 6 -28 5
-12 -7 40 -32 1 -37 -57 -7 -39 19 -39 20 -15 29 41 16 92 11 144 -14z m95 0
c0 -8 -4 -15 -10 -15 -5 0 -10 7 -10 15 0 8 5 15 10 15 6 0 10 -7 10 -15z
m-306 -2 c4 -5 22 -13 39 -19 l32 -12 -27 -10 c-20 -8 -38 -7 -77 6 -28 9 -51
20 -51 24 0 13 73 22 84 11z m-82 -40 c15 -3 25 -9 22 -14 -10 -17 -49 -9 -68
13 -18 20 -18 21 0 14 11 -4 31 -10 46 -13z m3599 -5 c-10 -27 -34 -30 -39 -6
-2 11 5 18 20 21 13 2 24 5 25 6 1 0 -1 -9 -6 -21z m-3855 3 c-5 -8 -56 -3
-56 5 0 2 14 4 31 4 16 0 28 -4 25 -9z m5714 -1 c0 -5 -4 -10 -9 -10 -6 0 -13
5 -16 10 -3 6 1 10 9 10 9 0 16 -4 16 -10z m-5625 -10 c-3 -5 -10 -10 -16 -10
-5 0 -9 5 -9 10 0 6 7 10 16 10 8 0 12 -4 9 -10z m1790 0 c-7 -12 -91 -70
-101 -70 -12 0 81 79 94 80 7 0 10 -4 7 -10z m50 -22 c-19 -60 -17 -85 8 -114
l25 -29 149 0 c81 0 173 3 203 8 47 6 53 5 38 -6 -10 -8 -75 -86 -146 -174
-111 -140 -144 -174 -252 -260 -207 -164 -335 -251 -425 -292 -41 -19 -204
-71 -221 -71 -8 0 -14 -4 -14 -9 0 -10 -172 -39 -315 -51 -113 -10 -383 -3
-421 11 -12 4 -24 17 -27 29 -7 26 23 46 192 129 65 32 140 71 167 86 27 15
85 48 129 73 177 100 254 149 345 219 156 120 173 134 253 223 42 46 85 89 95
95 21 12 74 51 150 113 60 48 78 53 67 20z m2009 -53 c21 -36 36 -68 33 -71
-3 -4 -31 6 -62 20 -43 19 -56 30 -51 42 3 8 6 18 6 20 0 2 12 2 28 -1 26 -5
26 -5 5 6 -23 12 -29 29 -16 42 13 13 19 6 57 -58z m622 38 c-10 -10 -19 5
-10 18 6 11 8 11 12 0 2 -7 1 -15 -2 -18z m79 8 c17 -10 29 -25 27 -34 -1 -8
2 -18 8 -22 19 -12 10 -25 -18 -25 -15 0 -38 7 -50 16 -17 12 -20 19 -12 34 5
10 7 26 4 34 -8 20 3 19 41 -3z m590 10 c-3 -5 1 -15 8 -23 29 -29 68 -110 73
-151 5 -38 3 -47 -17 -66 -29 -26 -39 -26 -74 1 -27 21 -27 22 -23 119 3 58
10 105 18 114 14 16 25 21 15 6z m-4855 -11 c0 -5 -15 -10 -32 -9 -28 0 -30 2
-13 9 28 12 45 12 45 0z m3454 -9 c8 -12 -3 -41 -15 -41 -5 0 -9 11 -9 25 0
25 14 34 24 16z m301 -25 c64 -29 105 -62 105 -82 0 -6 12 -15 26 -18 31 -8
49 -25 49 -46 0 -9 7 -14 18 -12 9 2 17 -1 18 -5 6 -68 18 -90 52 -95 13 -2
22 -10 22 -21 0 -10 11 -27 25 -37 45 -35 13 -21 -63 28 -102 64 -186 124
-223 158 -16 16 -51 44 -77 61 -26 18 -47 40 -47 48 0 21 19 57 28 53 4 -2 34
-17 67 -32z m-2165 -10 c0 -36 -13 -55 -25 -36 -9 14 4 70 16 70 5 0 9 -15 9
-34z m2377 18 c3 -8 29 -29 58 -45 74 -41 91 -63 79 -97 -7 -20 -17 -28 -40
-30 -36 -4 -54 14 -92 89 -15 30 -34 54 -42 54 -22 0 -24 32 -3 38 31 8 33 7
40 -9z m801 -15 c-16 -10 -33 5 -23 21 5 8 11 8 21 -1 12 -10 12 -14 2 -20z
m-2524 -41 c-20 -57 -23 -170 -5 -191 17 -21 65 -22 141 -2 69 18 218 80 241
101 22 20 27 18 21 -12 -3 -18 -8 -22 -16 -14 -7 7 -15 -5 -26 -47 -9 -32 -20
-57 -26 -57 -5 1 -20 5 -34 8 -24 7 -24 6 3 -9 15 -9 27 -21 27 -28 -1 -41
-158 -287 -258 -402 -84 -97 -121 -127 -215 -170 -81 -37 -135 -50 -156 -36
-36 24 7 338 70 507 59 161 156 341 199 370 19 13 38 24 42 24 4 0 0 -19 -8
-42z m1069 -22 c-10 -14 -27 -26 -37 -26 -17 0 -15 6 14 35 37 39 53 32 23 -9z
m1213 -113 c8 -30 -2 -43 -35 -43 -43 0 -114 91 -127 164 l-7 40 82 -70 c45
-38 84 -79 87 -91z m234 127 c0 -5 -2 -10 -4 -10 -3 0 -8 5 -11 10 -3 6 -1 10
4 10 6 0 11 -4 11 -10z m-1215 -25 c39 -14 75 -32 81 -41 15 -19 58 -153 52
-160 -9 -8 -112 35 -139 58 -21 18 -79 138 -79 163 0 9 14 5 85 -20z m-172 -7
c6 -8 7 -23 4 -32 -5 -13 -11 -14 -32 -4 -27 12 -32 27 -13 46 15 15 28 11 41
-10z m-1363 -24 c-11 -47 -43 -92 -140 -194 -81 -85 -81 -85 -33 -21 26 35 68
89 91 120 24 31 52 73 63 94 24 46 29 47 19 1z m2759 14 c0 -13 -3 -17 -6 -10
-2 6 -11 12 -19 12 -9 0 -12 -4 -9 -10 3 -5 1 -10 -4 -10 -6 0 -11 9 -11 20 0
15 7 20 25 20 19 0 25 -5 24 -22z m-2069 -8 c-11 -20 -30 -28 -30 -12 0 11 22
32 32 32 5 0 4 -9 -2 -20z m-604 -22 c-9 -12 -16 -19 -16 -15 0 11 24 47 28
42 2 -2 -3 -14 -12 -27z m1164 -3 c-22 -23 -50 -34 -50 -18 0 15 35 43 53 43
20 0 20 -1 -3 -25z m-496 -64 c-2 -2 -10 -1 -19 3 -11 4 -14 13 -9 33 11 47
18 50 25 8 4 -22 5 -42 3 -44z m576 38 c0 -8 -14 -34 -31 -56 -29 -38 -34 -40
-60 -31 -19 6 -29 17 -29 29 0 26 25 34 57 20 23 -11 25 -10 13 3 -7 9 -19 16
-28 16 -11 0 -8 8 12 29 24 25 31 28 47 18 11 -7 19 -19 19 -28z m96 -74 c13
-44 16 -75 11 -148 -6 -97 -24 -196 -37 -210 -10 -12 -87 58 -107 97 l-15 31
31 -29 c17 -17 31 -27 31 -24 0 18 -32 91 -59 135 -37 60 -38 70 -8 84 12 6
44 38 70 70 27 33 52 57 57 54 4 -3 16 -30 26 -60z m1302 -2 c45 -56 53 -72
50 -101 -2 -19 -10 -39 -19 -45 -23 -14 -64 -1 -76 25 -13 25 -25 188 -15 188
4 -1 31 -31 60 -67z m-1558 42 c0 -8 -4 -15 -10 -15 -5 0 -10 7 -10 15 0 8 5
15 10 15 6 0 10 -7 10 -15z m-825 -5 c-28 -12 -63 -12 -70 0 -4 6 12 10 42 9
36 0 43 -3 28 -9z m345 6 c0 -2 -3 -11 -6 -20 -9 -23 -24 -20 -24 4 0 11 7 20
15 20 8 0 15 -2 15 -4z m-1544 -28 c-24 -33 -252 -206 -341 -258 l-40 -23 42
37 c24 20 66 55 95 78 29 22 86 65 127 96 71 55 123 92 129 92 2 0 -4 -10 -12
-22z m1604 -8 c0 -11 5 -19 11 -17 6 1 14 -4 17 -12 3 -11 -2 -12 -24 -7 -38
10 -54 24 -47 42 8 22 43 17 43 -6z m-750 -55 l-21 -40 6 34 c3 19 11 41 17
49 21 25 19 -2 -2 -43z m1087 13 c-3 -7 -5 -2 -5 12 0 14 2 19 5 13 2 -7 2
-19 0 -25z m1227 12 c50 -21 134 -93 146 -125 9 -25 -8 -65 -27 -65 -34 0
-121 75 -152 131 -47 85 -43 92 33 59z m-1644 3 c-1 -5 -7 -19 -15 -33 -10
-18 -14 -20 -15 -8 0 23 11 48 21 48 5 0 9 -3 9 -7z m573 -10 c8 -7 -11 -33
-24 -33 -5 0 -9 9 -9 20 0 19 20 27 33 13z m-205 -11 c7 -5 10 -16 6 -25 -7
-20 -12 -20 -43 -3 -23 13 -23 14 -5 24 23 14 26 14 42 4z m-2038 -6 c0 -2
-12 -11 -27 -20 l-28 -17 24 20 c23 21 31 25 31 17z m4140 -44 c0 -15 -2 -15
-10 -2 -13 20 -13 33 0 25 6 -3 10 -14 10 -23z m-180 -22 c0 -11 -4 -20 -9
-20 -5 0 -7 9 -4 20 3 11 7 20 9 20 2 0 4 -9 4 -20z m-796 -14 c18 7 49 -14
40 -27 -3 -5 1 -6 9 -3 9 3 17 -3 20 -16 4 -14 10 -19 18 -14 8 4 10 3 5 -5
-5 -8 -31 2 -87 31 -43 24 -79 46 -79 51 0 4 13 1 29 -8 17 -8 37 -12 45 -9z
m735 -69 c31 -65 28 -83 -20 -107 -48 -25 -69 -15 -69 33 0 28 47 117 62 117
3 0 16 -19 27 -43z m-5329 -57 c14 -10 22 -22 18 -25 -11 -12 -46 5 -62 29
-14 22 -14 24 2 19 9 -2 28 -13 42 -23z m5073 23 c62 -5 69 -8 83 -36 15 -27
14 -31 -5 -51 -25 -26 -26 -36 -6 -36 8 0 15 4 15 9 0 10 39 26 46 18 2 -2 2
-12 -2 -21 -5 -14 -25 -16 -134 -16 -119 0 -129 1 -154 24 -22 18 -24 24 -13
29 8 3 20 0 26 -6 10 -9 15 -8 26 6 11 15 11 23 -1 45 -8 15 -14 30 -14 35 0
9 43 9 133 0z m-2034 -40 c0 -25 -1 -26 -9 -8 -12 27 -12 35 0 35 6 0 10 -12
9 -27z m1891 -8 c0 -8 -4 -15 -10 -15 -5 0 -10 7 -10 15 0 8 5 15 10 15 6 0
10 -7 10 -15z m450 -39 c0 -2 -9 -6 -20 -9 -11 -3 -20 -1 -20 4 0 5 9 9 20 9
11 0 20 -2 20 -4z m-3845 -376 c-11 -5 -31 -8 -45 -8 -23 0 -22 1 5 8 42 11
65 11 40 0z m-82 -17 c-7 -2 -19 -2 -25 0 -7 3 -2 5 12 5 14 0 19 -2 13 -5z
m-698 -50 c92 -24 384 -29 514 -9 57 9 106 14 108 12 6 -6 -119 -34 -207 -46
-89 -12 -157 -9 -345 16 -129 18 -185 31 -185 45 0 10 15 8 115 -18z"/>
<path d="M8595 3764 c47 -7 113 -8 108 -1 -2 4 -32 6 -66 6 -34 -1 -53 -3 -42
-5z"/>
<path d="M5326 2641 c-4 -5 -2 -12 3 -15 5 -4 12 -2 15 3 4 5 2 12 -3 15 -5 4
-12 2 -15 -3z"/>
<path d="M6783 2894 c4 -7 0 -17 -8 -24 -8 -7 -15 -16 -15 -21 0 -15 27 -10
40 7 11 12 10 18 -5 32 -10 9 -15 12 -12 6z"/>
<path d="M6877 2703 c-4 -3 -7 -11 -7 -17 0 -6 5 -5 12 2 6 6 9 14 7 17 -3 3
-9 2 -12 -2z"/>
<path d="M6520 2425 c0 -36 5 -41 29 -26 12 8 12 13 -3 35 -22 34 -26 33 -26
-9z"/>
<path d="M6340 2230 c0 -5 5 -10 10 -10 6 0 10 5 10 10 0 6 -4 10 -10 10 -5 0
-10 -4 -10 -10z"/>
<path d="M6290 2131 c0 -6 4 -13 10 -16 6 -3 7 1 4 9 -7 18 -14 21 -14 7z"/>
<path d="M6195 2090 c-3 -6 2 -22 13 -38 10 -15 22 -35 26 -46 6 -18 7 -18 26
-1 11 10 20 25 20 32 0 8 6 13 13 10 6 -2 11 -11 9 -18 -1 -8 4 -6 13 5 18 23
12 36 -14 29 -12 -3 -26 3 -37 16 -19 22 -58 28 -69 11z"/>
<path d="M5596 1798 c-10 -38 -7 -46 13 -41 12 3 20 -2 24 -16 3 -12 13 -21
22 -21 13 0 15 6 10 33 -4 17 -11 40 -17 50 -13 24 -44 21 -52 -5z"/>
<path d="M5240 1780 c0 -5 10 -25 22 -46 l21 -36 18 23 c16 21 16 25 1 44 -16
21 -62 33 -62 15z"/>
<path d="M5346 1761 c-3 -5 1 -11 9 -15 15 -6 29 7 18 18 -9 9 -21 8 -27 -3z"/>
<path d="M5300 1635 c-10 -20 -11 -27 0 -40 18 -21 30 -9 25 26 -5 41 -9 44
-25 14z"/>
<path d="M5696 1618 c-6 -32 -10 -36 -46 -42 -21 -3 -42 -11 -45 -16 -5 -8
109 -130 122 -130 1 0 3 16 3 35 0 24 -5 35 -15 35 -20 0 -19 26 1 34 13 5 15
15 10 48 -10 63 -22 77 -30 36z"/>
<path d="M5430 1600 c0 -5 -7 -10 -15 -10 -9 0 -12 -6 -8 -17 5 -14 1 -15 -35
-9 l-42 6 2 -34 c3 -33 14 -37 44 -14 6 4 22 7 35 6 19 -2 25 2 27 22 2 14 8
29 13 35 14 14 11 25 -6 25 -8 0 -15 -4 -15 -10z"/>
<path d="M5853 1551 c-84 -52 -63 -141 39 -160 39 -7 50 -5 63 9 19 21 19 30
1 30 -33 0 -60 37 -66 89 l-5 51 -32 -19z"/>
<path d="M5481 1544 c0 -11 3 -14 6 -6 3 7 2 16 -1 19 -3 4 -6 -2 -5 -13z"/>
<path d="M5534 1499 c-3 -6 5 -22 20 -35 28 -26 32 -24 16 7 -7 13 -7 19 0 19
5 0 10 5 10 10 0 14 -37 13 -46 -1z"/>
<path d="M5180 1353 c0 -16 25 -41 48 -48 12 -3 22 -2 22 3 0 5 -9 12 -20 15
-11 3 -19 11 -18 18 2 7 -5 15 -14 17 -10 2 -18 -1 -18 -5z"/>
<path d="M5360 1310 c0 -5 7 -10 15 -10 8 0 15 -4 15 -10 0 -5 -4 -10 -10 -10
-23 0 -8 -26 16 -28 23 -2 26 1 20 21 -3 12 -6 28 -6 35 0 6 -11 12 -25 12
-14 0 -25 -4 -25 -10z"/>
<path d="M5310 1270 c0 -6 7 -10 15 -10 8 0 15 2 15 4 0 2 -7 6 -15 10 -8 3
-15 1 -15 -4z"/>
<path d="M6540 730 c0 -5 5 -10 10 -10 6 0 10 5 10 10 0 6 -4 10 -10 10 -5 0
-10 -4 -10 -10z"/>
<path d="M3139 694 c-176 -156 -378 -309 -465 -353 -32 -17 -52 -30 -44 -30
38 -1 156 70 330 198 82 60 268 236 259 245 -3 3 -39 -24 -80 -60z"/>
<path d="M2991 661 c-38 -38 -93 -88 -121 -110 -72 -57 -37 -51 52 8 117 79
197 171 147 171 -5 0 -40 -31 -78 -69z"/>
<path d="M3436 393 c-4 -37 -9 -89 -11 -115 -3 -25 -1 -49 4 -52 5 -4 12 43
16 109 8 125 1 170 -9 58z"/>
<path d="M6128 503 c7 -3 16 -2 19 1 4 3 -2 6 -13 5 -11 0 -14 -3 -6 -6z"/>
<path d="M9246 5724 c-26 -20 -71 -50 -100 -66 -28 -17 -64 -41 -81 -54 -183
-147 -295 -243 -370 -318 -59 -59 -68 -69 -25 -30 205 185 395 335 558 441 60
39 89 62 77 62 -5 0 -32 -16 -59 -35z"/>
<path d="M8525 5118 c-99 -103 -165 -177 -131 -148 31 28 210 220 204 220 -2
0 -35 -33 -73 -72z"/>
<path d="M9010 4989 c-20 -47 -125 -177 -258 -319 -121 -128 -123 -133 -34
-67 114 83 270 276 302 372 15 46 7 57 -10 14z"/>
<path d="M8668 4666 c-63 -53 -86 -76 -73 -76 40 0 167 101 149 119 -7 8 -29
-5 -76 -43z"/>
<path d="M8348 4334 c-52 -34 -48 -40 5 -8 50 32 53 34 41 33 -5 0 -26 -11
-46 -25z"/>
<path d="M8224 4252 c-104 -68 -159 -111 -291 -233 -149 -137 -196 -188 -70
-76 39 35 93 79 118 98 43 32 246 196 279 226 21 19 10 15 -36 -15z"/>
<path d="M183 4048 c-40 -6 -73 -13 -73 -18 0 -4 82 -11 183 -15 200 -8 417
-30 337 -35 l-45 -3 35 -8 c24 -5 12 -6 -35 -2 -54 4 -385 13 -488 13 -9 0
-17 7 -17 15 0 21 -18 19 -25 -4 -5 -18 5 -50 43 -128 63 -134 369 -379 734
-588 37 -21 66 -41 63 -43 -6 -7 -229 18 -318 34 -42 8 -137 34 -210 58 -72
23 -163 51 -200 61 -82 21 -86 18 -115 -67 l-19 -58 39 -72 c49 -90 112 -158
148 -158 21 1 22 2 8 10 -13 8 -43 44 -130 156 -9 13 49 62 79 67 10 1 24 6
31 10 7 5 12 3 12 -5 0 -9 23 -19 63 -27 34 -7 85 -19 112 -27 28 -8 140 -25
250 -40 287 -37 343 -43 410 -44 41 0 83 -10 135 -30 46 -18 76 -26 80 -19 7
10 20 7 87 -22 53 -24 313 -76 418 -84 44 -3 125 -13 180 -20 55 -8 176 -19
269 -25 93 -5 171 -12 174 -15 6 -6 -1 -8 -103 -35 -71 -19 -135 -42 -215 -79
l-25 -12 25 6 c14 3 54 9 90 15 36 5 126 23 200 40 227 52 360 70 415 56 43
-11 18 -26 -44 -26 -94 0 -230 -29 -306 -66 l-30 -15 35 6 c190 29 252 36 360
42 l125 6 91 -46 c49 -25 118 -57 153 -71 65 -26 164 -107 191 -156 19 -33 98
-105 107 -96 4 3 0 12 -9 19 -22 18 -119 157 -110 157 5 0 12 -3 16 -7 4 -5
11 -8 14 -9 4 0 15 -4 25 -9 10 -4 20 -5 24 -2 7 8 56 -17 72 -36 8 -10 9 -17
1 -22 -18 -11 -11 -23 10 -18 25 7 25 14 0 46 -19 24 -204 121 -327 170 -66
27 -162 80 -313 172 -94 58 -208 111 -217 101 -3 -3 27 -28 66 -57 39 -28 71
-52 71 -53 0 0 -47 1 -104 2 -58 2 -135 -1 -172 -7 -64 -10 -70 -9 -154 24
-135 52 -298 88 -630 141 -14 2 -65 11 -114 20 -49 8 -99 13 -110 11 -12 -2 3
-7 32 -12 28 -4 52 -12 52 -16 0 -5 11 -7 25 -3 15 4 25 2 25 -5 0 -6 10 -11
23 -11 13 0 27 -4 33 -10 5 -5 25 -12 44 -15 19 -2 73 -14 120 -25 75 -17 79
-19 30 -14 -157 14 -303 37 -370 58 -302 97 -695 278 -902 417 -94 63 -177
126 -190 144 -4 5 -9 7 -12 4 -4 -4 80 -81 160 -145 18 -14 17 -14 -6 -3 -59
28 -340 242 -340 258 0 4 -10 19 -21 32 -35 39 -129 165 -129 173 0 6 165 1
405 -13 l130 -8 -140 -1 c-102 -2 -136 -5 -128 -13 8 -8 53 -9 155 -4 220 11
385 8 463 -9 39 -8 149 -31 245 -50 233 -47 529 -119 781 -190 133 -37 168
-49 264 -89 77 -33 115 -42 115 -29 0 46 -637 286 -935 351 -77 17 -180 42
-230 55 -103 27 -449 82 -605 96 -129 12 -321 11 -417 -2z m525 -95 c-10 -2
-26 -2 -35 0 -10 3 -2 5 17 5 19 0 27 -2 18 -5z m55 -10 c-7 -2 -19 -2 -25 0
-7 3 -2 5 12 5 14 0 19 -2 13 -5z m150 0 c-7 -2 -19 -2 -25 0 -7 3 -2 5 12 5
14 0 19 -2 13 -5z m146 -20 c106 -18 152 -40 61 -28 -65 8 -204 43 -176 44 11
1 63 -6 115 -16z m154 -40 c-7 -2 -19 -2 -25 0 -7 3 -2 5 12 5 14 0 19 -2 13
-5z m54 -9 c-3 -3 -12 -4 -19 -1 -8 3 -5 6 6 6 11 1 17 -2 13 -5z m-344 -586
c56 -28 127 -61 157 -74 30 -13 50 -23 43 -24 -21 0 -198 77 -258 113 -84 52
-62 46 58 -15z m-823 -46 c0 -13 -12 -22 -22 -16 -10 6 -1 24 13 24 5 0 9 -4
9 -8z m940 -77 c44 -23 37 -28 -27 -20 -73 9 -89 15 -71 26 21 13 66 10 98 -6z"/>
<path d="M7773 3798 c-24 -32 -24 -41 0 -19 15 14 27 26 27 28 0 8 -19 2 -27
-9z"/>
<path d="M2830 3270 c14 -11 46 -27 71 -36 34 -13 45 -21 42 -34 -5 -20 11
-34 57 -48 97 -29 114 -24 54 17 -21 15 -31 27 -24 31 24 15 -141 90 -198 90
l-27 0 25 -20z"/>
<path d="M1757 3208 c19 -22 183 -62 183 -44 0 14 -88 48 -139 53 -49 6 -54 4
-44 -9z"/>
<path d="M3070 3213 c0 -11 110 -86 116 -81 2 3 -15 18 -38 33 -38 25 -40 29
-23 37 18 8 18 8 -2 4 -13 -2 -26 0 -29 5 -6 11 -24 12 -24 2z"/>
<path d="M3250 3206 c0 -2 7 -7 16 -10 8 -3 12 -2 9 4 -6 10 -25 14 -25 6z"/>
<path d="M1520 3192 c0 -21 285 -77 428 -84 126 -7 9 27 -217 63 -208 32 -211
32 -211 21z"/>
<path d="M9298 3183 c7 -3 16 -2 19 1 4 3 -2 6 -13 5 -11 0 -14 -3 -6 -6z"/>
<path d="M7850 3100 c27 -21 60 -26 60 -10 0 6 -9 10 -19 10 -11 0 -23 5 -26
10 -3 6 -14 10 -23 10 -13 0 -12 -5 8 -20z"/>
<path d="M7876 3008 c-24 -34 -19 -44 9 -18 14 13 25 27 25 32 0 16 -19 8 -34
-14z"/>
<path d="M7647 3003 c-13 -44 -29 -153 -25 -165 3 -7 12 29 22 81 9 51 15 96
12 98 -2 2 -6 -4 -9 -14z"/>
<path d="M8021 2974 c-36 -46 -23 -54 22 -16 18 16 23 42 8 42 -5 0 -19 -12
-30 -26z"/>
<path d="M7221 2948 c-11 -18 -35 -50 -52 -70 -36 -42 -35 -53 4 -39 26 10 58
62 71 114 8 36 3 34 -23 -5z"/>
<path d="M7607 2800 c-7 -26 -4 -34 11 -29 4 2 5 15 2 29 l-6 25 -7 -25z"/>
<path d="M1505 2541 c-8 -14 4 -19 79 -31 70 -11 146 -11 146 0 0 6 -180 40
-209 40 -5 0 -12 -4 -16 -9z"/>
<path d="M3460 2546 c0 -2 8 -10 18 -17 15 -13 16 -12 3 4 -13 16 -21 21 -21
13z"/>
<path d="M1208 2523 c7 -3 16 -2 19 1 4 3 -2 6 -13 5 -11 0 -14 -3 -6 -6z"/>
<path d="M1266 2511 c17 -4 36 -11 43 -15 34 -21 357 -59 338 -40 -4 4 -91 20
-194 35 -183 28 -250 35 -187 20z"/>
<path d="M3627 2243 c44 -59 53 -67 65 -55 7 7 -2 23 -27 51 -48 53 -77 56
-38 4z"/>
<path d="M3710 2256 c0 -2 8 -10 18 -17 15 -13 16 -12 3 4 -13 16 -21 21 -21
13z"/>
<path d="M7460 2180 c8 -5 20 -10 25 -10 6 0 3 5 -5 10 -8 5 -19 10 -25 10 -5
0 -3 -5 5 -10z"/>
<path d="M3575 1870 c7 -21 6 -21 -24 -6 -44 23 -50 19 -11 -9 19 -14 40 -25
47 -25 7 0 13 -6 13 -13 0 -7 13 -26 29 -42 38 -35 104 -42 140 -14 l24 19
-57 0 c-55 0 -57 1 -112 55 -36 36 -53 48 -49 35z"/>
<path d="M4070 1441 c0 -10 59 -56 65 -50 2 2 -2 11 -8 20 -16 21 -57 43 -57
30z"/>
<path d="M4400 1336 c0 -28 13 -47 41 -61 36 -19 39 -19 39 4 0 19 -52 71 -71
71 -5 0 -9 -6 -9 -14z"/>
<path d="M5390 706 c0 -3 9 -10 20 -16 11 -6 20 -8 20 -6 0 3 -9 10 -20 16
-11 6 -20 8 -20 6z"/>
<path d="M5490 636 c0 -3 9 -10 20 -16 11 -6 20 -8 20 -6 0 3 -9 10 -20 16
-11 6 -20 8 -20 6z"/>
</g>
</svg>
