<?xml version="1.0" standalone="no"?>
<!DOCTYPE svg PUBLIC "-//W3C//DTD SVG 20010904//EN"
 "http://www.w3.org/TR/2001/REC-SVG-20010904/DTD/svg10.dtd">
<svg version="1.0" xmlns="http://www.w3.org/2000/svg"
 width="1024.000000pt" height="715.000000pt" viewBox="0 0 1024.000000 715.000000"
 preserveAspectRatio="xMidYMid meet">

<g transform="translate(0.000000,715.000000) scale(0.100000,-0.100000)"
fill="#000000" stroke="none">
<path d="M5326 7134 c-95 -23 -184 -77 -306 -186 -168 -150 -140 -142 -540
-142 -412 1 -890 21 -1620 68 -107 7 -197 11 -198 10 -3 -2 7 -43 34 -135 4
-15 -9 -18 -98 -23 -773 -51 -1347 -237 -1803 -585 -90 -68 -279 -255 -350
-346 -336 -430 -489 -975 -434 -1541 34 -355 170 -767 346 -1054 163 -265 398
-509 623 -647 80 -49 261 -145 266 -141 1 2 -24 53 -57 113 -165 301 -261 591
-305 925 -22 167 -14 442 16 582 72 342 236 570 507 707 185 93 452 134 723
112 134 -11 419 -57 432 -70 3 -3 -2 -32 -12 -64 l-18 -57 22 -5 c11 -2 79
-10 150 -16 l128 -12 -7 -66 c-29 -285 -100 -712 -165 -996 -115 -497 -201
-714 -470 -1190 -59 -104 -117 -209 -129 -233 l-22 -43 27 -49 c61 -111 210
-215 327 -227 l54 -5 144 256 143 256 42 -207 c77 -387 193 -773 323 -1082
122 -287 362 -720 466 -839 67 -77 143 -99 220 -63 52 23 87 65 137 164 84
168 216 355 355 506 l69 74 51 -36 c76 -56 229 -124 315 -141 170 -35 341 -7
524 84 l74 38 68 -96 c120 -174 211 -339 330 -599 36 -79 75 -119 127 -129 86
-16 146 22 351 219 334 321 638 745 879 1227 l67 134 34 -114 c19 -63 39 -134
45 -157 11 -41 13 -42 67 -54 68 -14 153 -6 222 20 40 15 221 111 238 126 2 2
-11 45 -28 97 -163 485 -276 960 -287 1208 -11 253 58 749 185 1320 l8 35 69
3 c50 2 96 -5 160 -22 49 -13 93 -22 97 -20 4 3 17 36 29 74 l23 70 125 0
c537 -1 924 -219 1061 -598 56 -155 65 -216 65 -437 -1 -259 -31 -426 -124
-695 -114 -332 -258 -584 -457 -804 -58 -64 -102 -116 -98 -116 21 0 281 88
372 126 314 132 596 336 804 584 547 649 650 1508 272 2270 -301 607 -893
1112 -1680 1434 l-142 58 -12 94 c-7 51 -18 100 -24 107 -6 8 -69 24 -141 37
-619 107 -1450 294 -1765 396 -135 43 -160 63 -269 218 -125 177 -215 247
-367 286 -90 23 -202 25 -288 4z m297 -179 c58 -21 142 -96 202 -180 42 -58
44 -64 39 -116 -2 -29 -11 -155 -19 -279 -34 -502 -108 -1220 -215 -2102 -27
-227 -51 -419 -53 -427 -1 -8 -19 13 -39 46 -77 125 -168 184 -293 191 -120 6
-212 -32 -328 -137 -36 -32 -38 -33 -33 -10 18 77 117 1106 181 1889 20 239
46 563 59 718 l24 284 28 29 c38 40 115 88 167 105 55 18 215 12 280 -11z
m-569 -242 c-3 -21 -34 -392 -69 -824 -84 -1012 -190 -2098 -208 -2115 -6 -7
-312 47 -554 97 -562 116 -929 265 -1118 454 -33 33 -73 82 -89 109 -27 46
-28 52 -21 130 13 154 12 151 131 287 492 559 856 1128 1048 1640 l55 144 323
5 323 5 66 32 c36 18 73 41 84 53 26 29 34 25 29 -17z m-1774 -32 c190 -11
419 -22 510 -26 91 -3 206 -8 257 -11 l91 -6 -23 -66 c-145 -428 -480 -981
-897 -1485 -97 -117 -245 -286 -260 -297 -8 -6 -171 7 -195 15 -8 3 -8 16 3
52 32 104 94 365 118 496 50 270 60 375 60 667 1 278 -10 410 -50 603 -8 38
-14 70 -14 73 0 6 34 5 400 -15z m2695 -101 c36 -39 112 -79 220 -113 122 -39
386 -110 570 -153 66 -15 124 -31 128 -34 4 -4 14 -72 23 -151 73 -708 231
-1299 477 -1782 l80 -158 -32 -141 c-37 -164 -53 -199 -116 -257 -193 -178
-724 -232 -1524 -155 -85 8 -156 16 -159 18 -2 2 24 228 58 503 126 1032 207
1827 236 2326 4 64 10 117 14 117 4 0 15 -9 25 -20z m-3227 -97 c22 -147 32
-268 32 -412 0 -119 -2 -142 -14 -138 -26 10 -180 109 -234 150 -57 43 -105
105 -115 148 -20 81 67 185 249 294 32 19 61 35 64 35 4 0 12 -35 18 -77z
m-264 24 c-162 -119 -211 -243 -149 -375 35 -76 83 -130 198 -224 56 -45 132
-110 168 -145 l65 -63 -8 -72 c-17 -146 -72 -427 -119 -603 -9 -31 -13 -36
-20 -23 -23 42 -27 146 -12 327 18 207 13 266 -33 358 -31 65 -99 122 -179
152 -31 12 -133 35 -227 51 -95 17 -190 39 -212 49 -58 26 -97 71 -103 119
-12 93 104 250 296 400 l83 65 102 13 c55 6 125 12 155 13 l53 1 -58 -43z
m-471 -76 c-217 -168 -302 -332 -243 -469 45 -105 137 -159 369 -217 172 -43
245 -78 267 -130 19 -47 18 -75 -12 -227 -26 -136 -34 -276 -20 -357 7 -34 5
-42 -5 -39 -8 3 -20 41 -31 95 -29 161 -91 284 -196 389 -83 84 -184 134 -362
178 -181 46 -239 69 -295 118 -86 75 -116 186 -80 288 47 132 267 344 392 377
82 21 264 61 286 62 11 1 -20 -29 -70 -68z m-523 -151 c-118 -119 -170 -218
-170 -321 0 -128 63 -239 179 -317 34 -22 121 -64 194 -92 158 -62 202 -86
250 -139 62 -68 93 -143 126 -294 21 -101 20 -104 -54 -93 -44 7 -44 8 -60 64
-63 226 -186 360 -390 425 -27 9 -120 28 -205 42 -176 30 -222 46 -267 98 -31
36 -63 118 -63 163 0 41 36 139 73 196 43 68 159 192 228 245 39 30 211 110
240 112 4 1 -33 -39 -81 -89z m5744 -70 c131 -28 358 -73 504 -101 147 -27
270 -53 273 -57 14 -15 30 -197 36 -392 11 -394 -43 -822 -157 -1242 -48 -177
-57 -201 -72 -192 -6 4 -72 10 -146 13 l-135 6 -63 125 c-238 466 -390 1022
-469 1710 -15 133 -18 180 -12 180 2 0 110 -23 241 -50z m-6129 -97 c-153
-185 -175 -360 -65 -511 45 -63 103 -90 290 -137 319 -80 384 -132 453 -362
l25 -82 -26 -5 c-15 -3 -47 -8 -72 -11 -45 -6 -45 -6 -69 37 -64 113 -163 214
-260 262 -67 34 -130 53 -271 81 -69 14 -145 32 -170 40 -60 20 -113 65 -139
118 -39 80 -24 251 34 394 11 26 37 54 81 88 70 53 224 153 237 154 4 1 -18
-29 -48 -66z m-366 -285 c-62 -184 -33 -355 76 -444 56 -46 129 -77 265 -115
148 -41 227 -77 284 -129 45 -42 126 -154 126 -175 0 -6 -14 -16 -31 -22 -31
-12 -34 -10 -93 43 -76 69 -204 155 -282 190 -80 35 -172 54 -274 54 -205 0
-267 65 -278 292 l-5 107 40 53 c43 57 184 211 189 206 1 -2 -6 -29 -17 -60z
m7579 -69 c204 -87 243 -111 290 -181 81 -121 103 -228 62 -296 -25 -41 -50
-52 -215 -92 -71 -17 -158 -43 -193 -57 -34 -14 -64 -24 -66 -22 -2 2 1 40 7
84 5 44 10 198 11 342 0 145 2 263 4 263 2 0 47 -19 100 -41z m-7823 -404 c30
-117 110 -180 260 -205 247 -41 325 -78 504 -237 l44 -39 -45 -24 -45 -24 -96
58 c-208 124 -369 180 -452 157 -22 -6 -76 -33 -120 -61 -98 -62 -132 -65
-176 -18 -16 18 -43 69 -60 112 l-31 80 28 70 c33 87 74 169 128 261 l41 70 6
-85 c4 -47 10 -98 14 -115z m8400 102 c105 -65 120 -78 161 -131 113 -149 172
-322 129 -382 -18 -27 -67 -50 -134 -65 -42 -9 -77 -7 -196 11 -119 17 -156
19 -203 10 -111 -20 -202 -105 -242 -225 -11 -33 -29 -121 -40 -195 -11 -74
-24 -138 -28 -142 -10 -10 -292 3 -292 14 0 5 13 62 29 126 16 64 41 178 56
252 22 113 30 139 53 163 40 42 150 90 311 136 176 50 235 81 273 141 66 104
63 219 -8 332 -39 62 -46 64 131 -45z m438 -334 c162 -146 168 -156 175 -296
4 -99 2 -119 -15 -159 -32 -72 -76 -88 -241 -88 -72 0 -154 -5 -182 -11 -115
-25 -190 -110 -231 -264 -12 -45 -25 -88 -28 -94 -5 -8 -24 -4 -63 13 -30 14
-92 35 -137 47 -67 18 -80 25 -76 39 3 10 14 83 25 164 22 167 43 226 92 257
31 19 42 20 183 15 111 -4 167 -2 216 8 109 24 192 74 225 138 31 60 8 193
-52 296 -15 24 -21 43 -16 41 6 -2 62 -50 125 -106z m-9063 -67 c0 -7 14 -40
31 -74 64 -128 123 -142 280 -66 85 41 99 45 144 40 58 -7 199 -72 315 -147
l82 -52 -58 -58 -57 -57 -56 25 c-152 69 -285 113 -345 113 -59 0 -113 -38
-182 -126 -36 -46 -73 -88 -82 -93 -28 -16 -66 14 -99 76 -50 93 -58 132 -44
205 24 124 54 237 62 232 5 -3 9 -11 9 -18z m9390 -293 c108 -146 114 -160
106 -247 -10 -107 -24 -146 -67 -189 l-39 -39 -67 6 c-207 19 -236 19 -295 -4
-78 -29 -128 -87 -169 -196 -17 -46 -34 -84 -38 -84 -3 1 -25 18 -47 38 l-42
38 13 64 c7 36 18 98 23 138 17 123 40 142 214 171 127 22 167 34 220 67 82
52 114 133 105 265 -3 43 -3 79 -1 79 2 0 40 -48 84 -107z m-8966 -93 c56 -19
246 -100 246 -105 0 -1 -22 -40 -50 -86 -27 -46 -51 -88 -53 -93 -2 -5 -34 5
-72 22 -96 42 -155 55 -225 50 -72 -5 -94 -23 -150 -119 -54 -91 -61 -96 -105
-69 -19 12 -53 47 -75 77 l-40 56 1 121 c1 151 8 176 32 108 38 -104 109 -153
173 -119 16 8 63 52 105 96 71 75 80 81 116 81 22 0 65 -9 97 -20z m9183 -267
c81 -174 87 -193 80 -281 -12 -144 -57 -244 -112 -250 -24 -2 -45 10 -105 59
-119 97 -168 114 -245 84 -61 -23 -105 -78 -150 -185 -21 -50 -41 -90 -45 -90
-8 0 -80 118 -80 132 0 5 13 34 29 66 15 31 36 80 45 109 20 62 49 101 85 115
14 6 81 14 147 17 112 6 125 9 170 37 80 49 112 113 117 233 1 34 5 61 8 61 3
0 29 -48 56 -107z m-9160 -58 c37 -14 72 -30 76 -34 5 -5 -4 -48 -19 -96 -22
-65 -32 -85 -44 -81 -8 2 -41 14 -72 27 -106 40 -164 7 -252 -147 -36 -63 -57
-90 -73 -92 -28 -4 -100 33 -107 55 -11 36 -46 256 -46 290 l0 36 30 -39 c39
-50 104 -86 139 -78 34 8 74 46 117 111 55 83 60 86 125 79 32 -3 88 -17 126
-31z m2432 -169 c265 -194 707 -335 1446 -461 88 -15 163 -31 168 -34 10 -10
-85 -727 -99 -740 -2 -3 -39 12 -82 34 -140 70 -424 201 -626 289 -314 137
-948 397 -954 391 -11 -11 18 -362 39 -460 79 -383 261 -708 563 -1010 107
-107 308 -279 341 -291 6 -3 142 58 301 134 159 77 290 138 292 137 6 -5 -115
-593 -172 -838 l-55 -238 -100 -105 c-178 -187 -320 -379 -432 -588 -30 -55
-59 -101 -65 -103 -25 -8 -258 379 -371 614 -254 536 -399 1079 -496 1858
l-12 100 -109 -200 c-221 -404 -359 -647 -372 -652 -15 -6 -109 59 -117 81 -3
7 35 85 85 172 193 340 286 535 363 754 82 238 196 739 250 1100 37 253 26
233 93 163 31 -33 86 -81 121 -107z m-2471 -112 c39 -19 51 -30 48 -42 -3 -10
-8 -44 -11 -77 -11 -108 -9 -105 -65 -105 -27 0 -68 -7 -90 -16 -35 -14 -46
-27 -75 -84 -36 -72 -48 -80 -122 -80 -41 0 -42 1 -61 53 -11 28 -29 85 -40
124 l-20 73 38 -20 c77 -39 117 -19 201 106 77 114 90 119 197 68z m4647 -78
c95 -44 171 -155 208 -303 15 -61 14 -72 -29 -425 -94 -769 -162 -1424 -205
-1963 -24 -315 -15 -293 -154 -361 -190 -92 -359 -98 -532 -19 -52 23 -145 84
-195 127 l-27 23 49 210 c159 674 323 1626 415 2416 6 47 16 68 59 125 122
163 283 230 411 170z m4719 -104 c30 -176 30 -219 2 -309 -26 -81 -59 -133
-98 -154 -30 -16 -60 10 -111 98 -61 106 -86 128 -146 128 -59 0 -102 -30
-169 -118 -26 -34 -63 -79 -82 -100 l-34 -39 -22 88 -21 89 37 45 c44 52 60
84 85 160 30 93 52 130 79 130 13 0 60 -24 105 -54 95 -64 139 -80 187 -71 69
12 130 95 150 200 6 35 8 37 15 17 5 -12 15 -61 23 -110z m-9366 -128 c21 -6
22 -12 22 -88 l0 -82 -63 4 c-60 4 -65 2 -85 -23 -15 -19 -22 -42 -22 -74 0
-67 -9 -76 -62 -65 -42 9 -44 12 -85 94 -24 47 -43 90 -43 97 0 7 13 9 38 6
57 -8 104 17 143 74 18 26 37 51 43 55 13 9 82 10 114 2z m6678 -120 c-23
-110 -64 -377 -82 -534 -23 -197 -23 -454 -1 -595 38 -232 133 -608 241 -947
l24 -77 -53 -27 c-30 -14 -71 -28 -93 -31 l-38 -5 -37 133 c-52 189 -73 282
-102 454 -14 83 -27 154 -29 160 -1 5 -22 -45 -46 -110 -189 -520 -441 -973
-768 -1381 -145 -181 -466 -501 -494 -492 -5 2 -38 64 -72 138 -106 228 -207
397 -366 613 l-73 99 7 121 c6 120 43 558 67 789 9 86 15 115 24 110 6 -4 159
-101 339 -216 l328 -209 66 32 c37 18 110 61 162 95 373 245 668 614 805 1007
34 99 79 268 72 275 -1 2 -75 -10 -162 -26 -343 -61 -844 -128 -1280 -170
-288 -27 -258 -33 -250 48 15 147 81 671 85 675 3 2 66 -2 140 -9 500 -47 921
-47 1195 1 122 22 260 68 335 114 36 21 66 38 68 36 1 -1 -4 -33 -12 -71z
m2365 -86 c9 -7 37 -44 63 -81 53 -76 95 -107 143 -107 40 0 93 44 123 103
l22 42 -7 -89 c-13 -185 -36 -249 -114 -319 -62 -56 -72 -52 -111 48 -32 83
-63 123 -103 130 -45 9 -80 -7 -151 -69 -55 -48 -142 -106 -159 -106 -4 0 -7
35 -7 78 l0 78 46 38 c25 21 73 75 105 120 117 160 118 160 150 134z m-9053
-33 l39 -16 11 -88 c15 -112 15 -111 -6 -111 -31 0 -61 -29 -72 -70 -10 -36
-14 -40 -43 -40 -30 0 -37 7 -84 83 -75 118 -75 121 -25 112 35 -6 45 -3 65
17 14 14 27 42 31 67 11 69 17 72 84 46z m2697 -123 c409 -168 770 -326 1063
-468 143 -68 161 -79 157 -98 -3 -12 -28 -142 -55 -290 -27 -148 -50 -270 -52
-271 -6 -5 -509 -245 -514 -245 -12 0 -165 131 -258 220 -322 310 -514 671
-571 1073 -19 129 -19 181 -2 174 6 -2 111 -45 232 -95z m-2629 -160 c6 -4 23
-55 38 -114 15 -58 38 -138 51 -177 13 -39 20 -71 15 -71 -10 0 -138 140 -201
218 -43 55 -43 71 3 72 10 0 26 17 38 40 20 39 34 47 56 32z m9064 -105 c25
-49 53 -93 62 -98 26 -14 62 -1 108 39 l42 36 -7 -35 c-11 -50 -72 -217 -88
-243 -19 -28 -80 -61 -100 -53 -9 3 -18 24 -21 49 -24 154 -44 181 -124 159
-26 -7 -80 -31 -122 -54 -70 -39 -140 -70 -146 -65 -1 2 0 33 3 71 l6 67 62
31 c41 20 88 56 141 110 68 69 83 79 109 77 27 -3 35 -12 75 -91z m-65 -277
c9 -39 26 -82 38 -96 18 -23 26 -26 63 -21 l43 4 -16 -31 c-54 -107 -83 -144
-132 -165 -52 -22 -77 -26 -84 -13 -3 4 4 36 15 70 35 111 -3 144 -113 97 -35
-15 -92 -38 -126 -51 l-63 -24 1 23 c0 12 6 44 12 71 12 47 14 49 59 61 26 6
71 27 100 45 117 74 162 100 174 100 6 0 20 -32 29 -70z m-2645 41 c0 -25 -68
-197 -112 -286 -161 -320 -417 -598 -725 -786 -53 -32 -103 -59 -110 -59 -7 0
-148 86 -314 192 -299 191 -300 192 -295 223 3 16 17 140 32 275 15 135 29
248 33 252 3 4 123 18 266 33 414 41 960 114 1165 154 62 12 60 12 60 2z
m2536 -268 c-20 -111 -20 -111 8 -124 20 -9 35 -10 63 -1 20 6 39 9 42 7 6 -7
-110 -155 -140 -177 -14 -11 -45 -22 -69 -25 -37 -5 -42 -4 -37 10 34 88 28
131 -19 143 -39 10 -83 -3 -135 -41 -27 -19 -51 -35 -53 -35 -2 0 8 38 22 83
l26 84 55 11 c32 7 89 32 131 57 41 25 83 45 94 45 16 0 18 -5 12 -37z m-175
-285 c-2 -51 0 -58 23 -73 16 -11 33 -14 48 -10 63 19 -203 -208 -356 -304
-48 -30 -89 -52 -91 -49 -3 3 17 47 44 99 27 52 66 136 87 186 30 72 44 95 64
102 14 5 56 32 94 60 38 28 74 50 80 48 5 -2 9 -28 7 -59z"/>
<path d="M3254 3820 c-65 -26 -84 -112 -35 -161 38 -38 87 -39 129 -4 56 47
44 133 -22 160 -40 17 -43 17 -72 5z m70 -72 c14 -24 -3 -52 -34 -56 -41 -6
-60 46 -26 71 17 11 48 4 60 -15z"/>
<path d="M3764 3620 c-30 -12 -64 -58 -64 -87 0 -56 48 -103 105 -103 32 0 82
44 90 80 8 37 -17 85 -55 105 -32 17 -45 18 -76 5z m70 -72 c16 -26 -4 -53
-40 -53 -23 0 -30 5 -32 23 -7 47 47 69 72 30z"/>
<path d="M4288 3391 c-27 -24 -33 -36 -33 -70 0 -91 105 -131 166 -63 44 49
34 119 -22 148 -42 21 -75 17 -111 -15z m97 -65 c0 -36 -27 -56 -52 -40 -40
25 -20 77 26 72 21 -2 26 -8 26 -32z"/>
<path d="M5042 3210 c-59 -36 -78 -118 -42 -177 55 -91 177 -94 231 -6 17 27
20 45 16 86 -4 42 -10 56 -41 84 -30 28 -43 33 -83 33 -30 0 -60 -7 -81 -20z
m129 -59 c16 -16 29 -37 29 -46 0 -24 -27 -72 -45 -79 -86 -33 -154 65 -90
129 33 33 70 32 106 -4z"/>
<path d="M6921 3294 c-26 -22 -31 -33 -31 -70 0 -62 32 -94 94 -94 37 0 48 5
70 31 36 43 35 91 -3 130 -39 38 -87 39 -130 3z m89 -44 c25 -25 25 -32 1 -54
-40 -36 -91 15 -55 55 22 24 29 24 54 -1z"/>
<path d="M6399 3221 c-38 -39 -39 -87 -3 -130 21 -26 33 -31 69 -31 59 0 95
36 95 95 0 86 -100 127 -161 66z m95 -40 c20 -22 14 -56 -11 -65 -47 -18 -81
35 -43 66 28 23 33 22 54 -1z"/>
<path d="M5879 3171 c-21 -22 -29 -39 -29 -66 0 -51 44 -95 95 -95 50 0 74 15
91 57 42 99 -80 180 -157 104z m95 -37 c24 -23 20 -53 -9 -66 -30 -13 -55 3
-55 36 0 42 36 59 64 30z"/>
</g>
</svg>
