<?xml version="1.0" standalone="no"?>
<!DOCTYPE svg PUBLIC "-//W3C//DTD SVG 20010904//EN"
 "http://www.w3.org/TR/2001/REC-SVG-20010904/DTD/svg10.dtd">
<svg version="1.0" xmlns="http://www.w3.org/2000/svg"
 width="754.000000pt" height="912.000000pt" viewBox="0 0 754.000000 912.000000"
 preserveAspectRatio="xMidYMid meet">

<g transform="translate(0.000000,912.000000) scale(0.100000,-0.100000)"
fill="#000000" stroke="none">
<path d="M4273 9095 c-14 -10 -24 -12 -28 -5 -7 12 -44 7 -210 -27 -440 -90
-922 -303 -1135 -501 l-75 -70 -29 25 c-23 19 -37 24 -63 20 -46 -8 -210 -82
-258 -117 -94 -69 -74 -66 -182 -27 -254 91 -442 137 -565 137 -46 0 -62 -5
-87 -26 -17 -14 -31 -32 -31 -39 0 -7 -7 -16 -16 -19 -10 -4 -14 -12 -10 -22
4 -9 0 -22 -8 -28 -8 -6 -22 -36 -31 -66 -55 -187 -8 -452 114 -653 51 -83 57
-99 43 -104 -9 -3 -51 -18 -92 -34 -41 -15 -122 -44 -179 -65 -57 -21 -109
-44 -116 -51 -7 -6 -15 -10 -18 -7 -7 7 -113 -43 -183 -87 -66 -42 -144 -120
-171 -172 -48 -93 -35 -175 41 -252 66 -67 139 -97 251 -101 44 -1 85 -3 90
-3 6 -1 -5 -15 -22 -31 -18 -17 -43 -50 -57 -73 -51 -88 -43 -164 23 -216 47
-38 78 -49 153 -60 47 -6 61 -5 65 6 7 18 23 17 23 -3 0 -13 9 -14 58 -9 31 4
95 16 142 27 56 13 85 17 88 10 7 -23 45 -63 56 -59 6 2 16 -6 21 -17 7 -14
20 -21 40 -21 23 0 31 -5 33 -22 2 -13 15 -27 32 -35 16 -7 31 -19 34 -28 3
-8 8 -20 11 -26 3 -5 -17 -20 -44 -32 -146 -67 -233 -231 -175 -333 13 -24 38
-44 81 -65 l63 -30 -35 -34 c-19 -19 -37 -42 -41 -52 -3 -10 -11 -18 -19 -18
-7 0 -21 -13 -32 -29 -10 -16 -47 -64 -81 -107 -82 -102 -272 -368 -272 -382
0 -6 -15 -19 -33 -31 -37 -23 -573 -561 -722 -726 -246 -270 -343 -389 -501
-607 -39 -55 -126 -217 -153 -286 -27 -68 -53 -194 -45 -218 18 -56 39 -87 90
-133 125 -114 373 -233 608 -291 66 -16 72 -16 85 -1 12 15 13 14 7 -3 -5 -15
-2 -17 14 -13 11 3 23 1 26 -4 7 -12 154 -12 154 1 0 6 9 6 24 0 107 -40 553
158 714 316 36 36 49 36 210 14 35 -5 70 -6 78 -3 8 3 29 2 48 -1 28 -5 35
-12 46 -49 8 -23 15 -53 17 -67 12 -73 207 -527 363 -845 150 -305 293 -544
471 -785 23 -30 60 -93 84 -140 40 -79 135 -322 150 -381 l7 -27 -274 -8
c-150 -5 -295 -9 -323 -9 l-50 0 -12 143 c-14 174 -39 257 -89 302 -41 35 -63
37 -119 10 -80 -39 -103 -95 -104 -255 -1 -122 -8 -187 -22 -226 -15 -39 -59
-57 -168 -69 -64 -6 -65 -6 -101 30 -39 39 -72 101 -103 195 -17 50 -21 95
-24 278 -4 181 -7 217 -20 217 -8 0 -12 -4 -9 -9 3 -5 -1 -12 -9 -15 -14 -5
-15 -32 -12 -193 2 -104 6 -206 10 -228 19 -106 73 -222 135 -288 31 -32 66
-34 212 -12 144 22 157 46 161 309 l2 148 37 39 c28 29 45 39 68 39 59 0 89
-80 102 -278 5 -73 15 -145 22 -160 13 -27 15 -27 113 -28 105 -1 374 10 510
22 l81 6 23 -51 c67 -143 215 -162 323 -43 20 22 41 50 48 61 10 20 19 21 151
21 l139 0 54 54 c56 56 82 111 72 152 -4 13 -2 24 4 24 5 0 10 24 10 54 0 49
-2 53 -22 52 -21 -1 -24 -7 -31 -86 -9 -96 -34 -161 -69 -183 -16 -11 -59 -16
-146 -19 -67 -1 -122 0 -122 3 0 3 11 33 24 66 31 75 71 233 86 339 19 133 3
397 -28 467 -19 42 -87 138 -136 190 -14 15 -26 30 -26 33 0 2 -26 39 -58 82
-279 369 -468 692 -585 1002 -58 155 -62 140 35 140 l83 0 27 -53 c58 -110
192 -248 258 -264 14 -3 32 -11 40 -18 36 -29 127 -58 355 -110 235 -54 239
-56 347 -163 60 -59 99 -105 103 -123 4 -15 12 -33 20 -39 8 -6 17 -26 21 -43
9 -43 69 -136 94 -145 10 -4 18 -11 18 -17 -2 -14 62 -45 92 -45 37 1 107 35
120 59 6 12 17 21 25 21 8 0 22 11 32 23 l17 24 40 -29 c88 -64 184 -12 223
121 11 41 14 83 11 165 -6 141 -39 245 -93 292 -32 28 -35 36 -35 85 -1 89
-42 241 -78 286 -44 57 -151 107 -282 132 -94 19 -279 50 -305 52 -5 0 10 7
35 15 45 15 57 18 115 30 70 14 467 189 510 224 6 5 36 22 66 38 154 81 299
199 324 265 16 41 15 44 -10 102 -46 103 -224 260 -468 413 -37 24 -72 40 -77
37 -6 -4 -13 1 -16 9 -3 9 -12 16 -20 16 -8 0 -14 4 -14 8 0 9 -311 166 -350
176 -53 15 -100 42 -100 58 0 9 18 39 40 67 22 28 40 57 40 66 0 19 -5 20 81
-19 86 -40 249 -98 249 -89 0 3 6 0 14 -6 8 -7 25 -9 40 -5 20 5 25 3 21 -8
-4 -10 37 -27 157 -67 446 -146 781 -309 986 -480 72 -60 186 -190 211 -241
28 -54 47 -306 31 -401 -27 -163 -83 -280 -233 -487 -21 -30 -36 -56 -33 -59
3 -3 47 2 98 10 169 30 426 54 603 58 137 3 473 -36 579 -67 27 -8 52 -12 54
-9 3 3 11 0 17 -5 7 -6 32 -13 56 -16 42 -5 47 -3 126 60 146 116 246 263 263
386 4 30 11 66 15 80 14 47 17 292 5 370 -39 241 -165 468 -367 660 -108 103
-241 203 -260 196 -8 -3 -11 -1 -8 4 8 13 -101 84 -119 77 -8 -3 -16 2 -19 12
-7 27 -243 143 -378 187 -63 20 -115 38 -117 39 -2 1 18 44 44 95 54 108 150
368 160 431 4 24 10 49 14 54 4 6 11 25 15 43 5 26 4 32 -11 32 -9 0 -14 3
-10 8 4 4 13 7 19 7 28 0 70 274 65 435 l-3 126 -35 49 c-44 61 -104 87 -258
111 -90 14 -152 16 -397 10 -159 -3 -306 -9 -326 -12 l-37 -6 -1 66 c0 45 -7
79 -21 106 -59 115 -228 221 -455 286 -159 45 -182 55 -246 108 -35 30 -74 67
-86 83 -54 74 -105 169 -108 200 -2 32 9 46 17 21 10 -29 360 126 430 190 23
21 25 28 15 41 -22 27 -551 276 -566 267 -12 -8 -37 44 -51 101 -21 92 -69
207 -94 229 -21 18 -25 34 -30 97 -6 76 -6 76 25 98 19 13 28 27 25 36 -5 11
-2 13 10 9 36 -14 330 320 310 352 -3 6 0 12 8 15 16 7 36 81 36 139 0 116
-95 168 -310 168 -78 0 -111 -4 -127 -15z m-478 -435 c8 -12 95 -13 114 -1 10
6 22 5 34 -4 17 -12 24 -12 49 1 27 14 30 14 48 -8 11 -13 19 -29 20 -35 0 -7
11 -13 25 -13 18 0 23 -4 18 -15 -3 -9 3 -25 12 -35 18 -20 17 -21 -5 -45 -19
-21 -33 -25 -79 -25 -54 -1 -55 -1 -31 -15 14 -8 42 -14 63 -15 20 0 37 -5 37
-11 0 -6 9 -8 20 -4 11 3 20 3 20 -2 0 -5 19 -14 43 -21 59 -18 73 -43 69
-118 -3 -58 -5 -61 -38 -76 l-34 -16 0 77 c0 42 -5 83 -10 91 -8 12 -10 11
-10 -7 0 -13 -4 -23 -10 -23 -5 0 -10 18 -10 41 0 33 -3 40 -17 37 -16 -3 -18
-16 -15 -138 l3 -135 -35 -54 c-20 -30 -41 -58 -47 -62 -7 -4 -13 -18 -15 -31
-1 -12 -4 -29 -6 -37 -7 -30 23 -20 43 13 13 22 32 39 48 42 14 4 56 22 94 40
37 18 67 31 67 27 0 -3 7 0 15 7 13 11 14 10 9 -3 -3 -10 7 -27 31 -49 27 -25
41 -51 58 -107 12 -41 29 -77 37 -81 8 -4 26 -13 40 -20 59 -32 106 -53 118
-53 6 0 12 -4 12 -8 0 -4 10 -11 23 -15 43 -14 367 -176 367 -184 0 -4 -35
-23 -77 -40 -43 -18 -109 -45 -148 -62 -94 -39 -226 -75 -310 -83 -40 -4 -78
-14 -87 -23 -10 -8 -18 -11 -18 -6 0 5 -89 10 -203 10 -284 2 -530 29 -737 80
-58 14 -122 35 -142 45 -21 11 -45 19 -55 19 -26 0 -205 88 -315 154 -135 82
-431 278 -516 343 -40 31 -78 65 -84 77 -36 68 -186 208 -342 320 -43 31 -71
56 -63 56 36 0 332 -92 457 -143 176 -71 283 -129 290 -158 10 -39 30 -43 110
-19 41 12 98 24 126 27 46 4 52 2 68 -21 17 -26 50 -35 61 -16 4 6 -1 23 -11
38 -36 54 -81 149 -104 218 l-23 71 42 39 c24 21 64 52 90 69 50 32 108 40
396 50 72 2 148 7 170 10 l39 6 -23 -25 c-40 -43 -15 -49 45 -11 35 23 67 35
89 35 24 0 39 6 47 20 14 21 43 27 53 10z m405 -59 c0 -6 -4 -13 -10 -16 -5
-3 -10 1 -10 9 0 9 5 16 10 16 6 0 10 -4 10 -9z m-2444 -149 c113 -51 325
-226 455 -375 41 -47 86 -90 101 -95 l26 -10 -61 -64 c-53 -55 -74 -80 -115
-143 -20 -30 -377 -173 -406 -162 -21 8 -91 154 -124 258 -44 136 -55 215 -48
327 10 163 15 182 58 235 44 52 57 55 114 29z m914 -248 c0 -2 -11 2 -25 8
-14 6 -25 15 -25 20 0 5 11 1 25 -8 14 -9 25 -18 25 -20z m1516 -100 c-25 -18
-37 -18 -30 0 6 15 34 26 44 18 3 -2 -4 -10 -14 -18z m-1811 -164 c3 -5 1 -10
-4 -10 -6 0 -11 5 -11 10 0 6 2 10 4 10 3 0 8 -4 11 -10z m229 -178 c2 -4 -10
-13 -27 -20 -134 -53 -226 -136 -281 -251 -25 -56 -30 -77 -30 -146 0 -87 15
-133 61 -194 l27 -34 12 36 c12 35 11 39 -12 62 -30 30 -30 40 1 70 22 23 31
25 124 25 104 0 147 -11 156 -40 3 -9 24 -23 46 -30 72 -24 139 -91 139 -139
0 -9 -7 -27 -16 -39 -20 -29 -7 -29 72 -2 180 62 253 167 242 346 -4 57 -2 62
14 53 10 -5 17 -15 15 -21 -1 -6 4 -13 11 -15 6 -3 12 0 12 6 0 6 7 11 15 11
19 0 19 -4 -1 -41 -33 -65 -38 -224 -8 -290 22 -47 75 -113 103 -128 13 -8 16
-3 16 22 0 24 -7 37 -30 52 -35 24 -41 46 -25 84 19 47 62 60 165 49 35 -4 92
-44 100 -69 4 -11 21 -21 43 -25 20 -4 51 -13 69 -21 43 -17 42 -18 36 25 -6
47 11 89 68 165 l43 58 66 -7 c36 -3 66 -7 68 -9 1 -1 -7 -27 -17 -58 -37
-106 -118 -197 -176 -197 l-28 0 22 -24 c30 -32 39 -91 17 -115 -16 -18 -15
-18 35 -9 203 37 305 154 294 336 -3 57 -1 72 10 72 22 0 25 -12 26 -118 2
-109 -13 -158 -69 -224 -30 -35 -96 -79 -123 -81 -10 -1 -19 -4 -19 -7 0 -3
-33 -15 -72 -25 -144 -38 -342 -21 -476 40 -101 46 -180 132 -197 213 -4 17
-10 32 -13 32 -4 0 -25 -16 -47 -36 -156 -141 -505 -181 -682 -78 -120 71
-197 240 -177 388 4 25 10 44 13 42 4 -3 22 26 41 62 43 86 137 179 220 220
61 31 113 41 124 24z m394 -352 c17 -16 20 -28 16 -62 -7 -53 -11 -60 -35 -53
-23 8 -25 -11 -2 -23 16 -9 16 -11 0 -36 -11 -16 -23 -23 -32 -20 -19 8 -19
31 0 68 8 15 15 44 15 62 0 34 0 34 -27 20 -32 -16 -68 -54 -103 -108 -26 -39
-47 -37 -37 4 15 58 124 168 167 168 9 0 26 -9 38 -20z m-1118 -626 c22 -20
37 -40 34 -45 -3 -5 2 -9 11 -9 18 0 95 -49 95 -60 0 -10 -79 -42 -88 -36 -4
2 -34 -19 -67 -45 -106 -87 -193 -114 -356 -113 -58 1 -114 6 -123 11 -15 8
-11 14 29 44 26 19 90 70 144 114 88 73 174 135 226 163 33 19 53 14 95 -24z
m2615 -310 c17 -2 57 -6 90 -9 33 -3 67 -8 75 -11 8 -4 42 -8 76 -9 33 -2 80
-9 105 -15 l44 -13 -150 -38 c-82 -20 -187 -51 -232 -68 l-82 -30 -32 26 c-37
32 -68 95 -69 139 0 50 -4 49 175 28z m1790 -29 c48 -9 98 -21 111 -28 24 -13
23 -13 -58 -88 -276 -252 -459 -688 -461 -1097 0 -111 -2 -121 -16 -108 -15
13 -219 107 -339 155 -29 12 -66 23 -81 24 -16 1 -27 5 -25 8 4 7 -41 29 -59
29 -6 0 -41 11 -77 25 -88 33 -281 98 -354 120 -33 9 -100 19 -150 20 -134 6
-495 -24 -633 -51 -40 -8 -77 -14 -83 -14 -15 0 -13 94 6 245 l15 130 46 43
c25 23 40 42 34 42 -6 0 -11 10 -10 23 l0 22 10 -23 c5 -13 13 -22 17 -20 25
10 152 116 157 131 4 9 10 15 15 12 9 -5 44 21 149 111 20 16 61 47 91 69 30
21 64 48 75 61 21 24 169 60 425 104 440 75 947 98 1195 55z m-1986 -93 c1 -8
-6 -11 -16 -9 -10 3 -31 8 -47 12 l-29 6 34 35 34 35 12 -33 c6 -18 12 -39 12
-46z m2180 -14 c40 -129 5 -406 -95 -739 -71 -239 -155 -423 -280 -610 -91
-137 -116 -155 -129 -90 -2 12 -7 31 -10 41 -23 73 -38 243 -31 363 4 78 3
117 -4 117 -5 0 -10 4 -10 10 0 5 7 7 15 4 10 -4 15 0 15 13 0 35 71 267 113
373 51 124 106 220 186 327 61 81 195 223 211 223 5 0 13 -15 19 -32z m-3709
-482 c0 -2 -11 -6 -25 -8 -13 -3 -22 -1 -19 3 5 9 44 13 44 5z m615 -92 c116
-59 194 -103 223 -125 12 -9 31 -15 42 -12 14 4 20 0 20 -10 0 -18 33 -40 44
-30 3 3 6 0 6 -9 0 -15 75 -90 121 -120 17 -11 28 -29 32 -53 10 -58 -10 -233
-37 -343 -15 -55 -26 -116 -26 -134 0 -37 27 -82 36 -60 8 18 25 15 22 -5 -2
-11 5 -19 17 -21 45 -7 47 -10 30 -42 -21 -40 -23 -103 -5 -126 18 -21 77 -47
91 -39 5 4 16 -1 25 -9 19 -19 50 -21 57 -3 4 8 6 7 6 -3 1 -10 19 -21 49 -29
127 -34 180 -61 250 -125 41 -37 59 -62 140 -191 l31 -49 -80 -23 c-166 -48
-435 -168 -647 -288 -35 -20 -65 -35 -66 -33 -8 13 -62 85 -71 94 -5 5 -18 13
-28 17 -35 13 -31 -23 10 -83 l40 -57 -91 -52 c-50 -29 -98 -56 -106 -61 -47
-30 -406 -203 -465 -225 -215 -81 -255 -94 -259 -87 -2 4 -7 29 -11 55 -4 26
-15 58 -25 70 -15 18 -20 20 -34 8 -18 -16 -17 -41 7 -109 8 -23 12 -44 8 -46
-12 -7 -247 -65 -311 -77 -36 -6 -71 -19 -77 -27 -9 -11 -13 -12 -13 -3 0 9
-13 11 -47 6 -27 -4 -55 -9 -63 -12 -8 -3 -42 -7 -75 -9 -33 -2 -107 -8 -165
-13 -143 -14 -290 -14 -290 -1 0 6 7 24 15 39 8 16 17 47 21 70 5 33 4 41 -8
41 -22 0 -68 -49 -74 -79 -3 -14 -12 -44 -20 -66 -21 -60 -19 -65 26 -65 75 0
43 -32 -135 -131 -247 -138 -383 -182 -560 -182 -217 0 -467 78 -706 220 -70
42 -195 154 -204 184 -8 25 54 191 115 306 64 119 190 303 276 401 8 9 42 51
75 92 128 158 283 324 648 692 323 326 307 316 488 304 60 -4 114 -13 122 -19
21 -18 131 -155 131 -164 0 -4 18 -32 40 -61 22 -29 40 -64 40 -78 0 -14 10
-48 22 -76 l22 -51 -23 -18 c-12 -10 -20 -22 -17 -27 2 -4 -4 -8 -14 -9 -11
-1 -47 -20 -81 -43 -90 -60 -306 -227 -321 -249 -7 -10 -17 -19 -23 -20 -5 0
-30 -18 -55 -40 -270 -237 -460 -419 -601 -573 -87 -95 -109 -138 -71 -138 9
0 42 -18 72 -40 202 -145 433 -240 668 -274 40 -6 42 -5 42 18 0 32 -3 33
-100 52 -102 19 -195 47 -285 86 -100 44 -345 179 -345 190 0 15 420 430 555
548 139 122 280 237 415 338 52 39 113 87 135 107 22 19 54 42 72 50 38 18 38
23 18 101 -8 31 -20 96 -26 143 -6 47 -17 91 -25 97 -8 7 -9 15 -3 25 12 19
11 76 -1 84 -6 4 -8 11 -5 16 4 5 1 9 -6 9 -8 0 -8 4 -1 13 6 7 11 47 11 88
-1 126 80 299 140 299 17 0 37 9 122 50 9 5 58 23 110 40 52 17 106 38 121 46
14 8 33 14 42 14 8 0 35 9 58 19 64 28 356 119 408 126 25 4 66 9 92 11 26 3
66 9 90 13 75 15 92 12 183 -35z m1488 -308 c52 -30 215 -100 319 -136 43 -15
83 -32 90 -37 7 -6 31 -16 53 -23 22 -6 54 -18 72 -26 17 -8 35 -14 39 -14 8
0 66 -21 154 -57 19 -8 75 -35 124 -60 66 -34 90 -42 96 -33 10 16 31 4 24
-14 -3 -9 5 -17 21 -23 23 -7 31 -22 54 -91 34 -100 41 -100 -144 1 -212 115
-467 235 -810 380 -27 12 -58 29 -68 39 -16 16 -38 18 -200 18 -161 0 -446
-18 -554 -36 l-39 -6 4 36 c2 20 7 36 11 36 116 7 538 47 621 59 85 13 89 13
133 -13z m-803 -58 c0 -7 -7 -22 -15 -32 -14 -19 -15 -19 -15 5 0 14 3 29 7
32 10 11 23 8 23 -5z m-98 -58 c18 -16 38 -30 45 -30 15 0 16 -38 3 -97 -18
-76 -40 -242 -34 -256 7 -19 48 -37 84 -37 17 0 30 -2 30 -5 0 -3 -13 -24 -30
-47 -16 -22 -30 -53 -30 -67 0 -32 25 -71 46 -71 8 0 22 -4 32 -9 9 -5 67 -32
128 -59 61 -27 160 -75 220 -108 60 -32 111 -59 114 -59 3 0 19 -10 35 -23 17
-13 66 -46 110 -74 44 -28 108 -72 142 -99 35 -27 64 -49 66 -49 6 0 147 -143
144 -147 -3 -3 -68 22 -142 53 -118 50 -201 74 -255 74 l-59 0 -45 68 c-42 65
-76 103 -76 86 0 -4 -12 15 -26 44 -52 104 -175 180 -367 227 -152 36 -157 39
-157 74 0 17 8 46 17 66 21 44 13 61 -45 93 -50 28 -51 32 -16 172 19 76 27
133 28 207 0 57 2 103 3 103 1 0 17 -13 35 -30z m160 -347 l33 -25 -57 4 c-32
3 -61 7 -64 10 -3 4 -2 27 1 52 l7 47 23 -31 c13 -18 38 -43 57 -57z m2501
-451 c6 -5 27 -13 46 -17 18 -4 41 -15 52 -26 10 -10 25 -16 32 -13 7 2 29 -7
48 -21 18 -13 50 -33 69 -42 61 -31 173 -123 229 -187 9 -11 32 -35 52 -55 55
-55 99 -117 99 -139 0 -11 7 -22 15 -26 8 -3 15 -12 15 -19 0 -8 14 -31 30
-52 17 -21 30 -49 30 -62 0 -13 6 -34 12 -46 7 -12 13 -53 14 -92 2 -57 -3
-80 -24 -124 -15 -29 -41 -65 -60 -81 -30 -25 -32 -29 -21 -54 7 -14 18 -26
24 -26 13 0 74 -73 65 -77 -3 -1 5 -12 17 -25 l22 -23 -30 -40 c-50 -67 -181
-195 -206 -201 -13 -4 -48 1 -77 10 -29 10 -64 18 -77 18 -13 1 -28 5 -34 8
-21 15 -85 21 -85 9 0 -8 -5 -7 -12 4 -20 25 -245 47 -478 47 -210 0 -394 -18
-524 -50 -44 -11 -84 -20 -89 -20 -5 0 12 23 38 52 82 91 158 241 191 378 18
72 18 254 0 355 -18 98 -19 102 -72 192 l-42 72 26 6 c85 18 261 -8 395 -57
36 -14 42 -7 24 34 -35 81 -55 234 -36 279 6 15 21 31 35 37 13 7 24 19 24 28
0 10 3 14 7 11 3 -4 11 1 18 10 7 9 27 21 46 28 39 14 174 12 192 -3z m-1810
-407 c63 -25 117 -45 121 -45 14 0 154 -69 161 -80 11 -17 -90 -106 -213 -187
-172 -114 -518 -281 -637 -309 -16 -4 -41 -13 -55 -20 -42 -21 -122 -44 -156
-44 -91 0 -243 109 -310 223 -31 54 -45 107 -26 107 4 0 63 32 132 71 151 86
416 216 525 257 17 6 73 22 125 36 175 46 196 45 333 -9z m-1122 -527 c35 -54
127 -137 187 -167 57 -29 198 -68 292 -81 242 -33 416 -85 462 -137 47 -55 94
-307 84 -453 -14 -207 -107 -420 -218 -500 -52 -38 -95 -39 -138 -4 -36 31
-112 143 -146 218 -32 71 -178 214 -264 258 -79 41 -321 100 -328 79 -3 -9 -7
-8 -16 3 -6 9 -53 29 -105 46 -192 62 -300 155 -389 335 -35 71 -82 199 -82
223 0 8 48 32 175 87 83 37 223 108 315 161 42 24 80 44 84 44 4 0 15 8 24 17
16 15 17 14 24 -31 4 -26 21 -69 39 -98z m-701 -216 c0 -15 6 -51 14 -80 7
-29 10 -54 6 -57 -4 -2 -36 -7 -73 -11 l-66 -7 -10 40 c-28 102 -30 96 41 120
84 28 88 28 88 -5z m-193 -80 c3 -61 43 -199 97 -331 45 -109 176 -363 250
-484 22 -37 50 -82 61 -101 66 -109 376 -531 445 -605 65 -70 65 -67 64 -270
0 -200 -12 -293 -59 -456 -70 -242 -180 -367 -296 -335 -42 12 -52 32 -136
269 -77 216 -126 324 -175 390 -24 31 -45 58 -48 61 -9 8 -60 89 -60 94 0 3
-38 63 -84 134 -105 163 -182 296 -281 487 -42 83 -83 157 -91 166 -8 9 -12
18 -9 21 3 3 -11 41 -31 84 -45 98 -151 350 -214 509 -26 66 -59 149 -74 183
-15 35 -26 71 -24 80 2 12 36 20 153 38 168 25 301 53 420 89 44 13 82 24 85
24 3 1 6 -20 7 -47z m-724 -99 c-7 -2 -19 -2 -25 0 -7 3 -2 5 12 5 14 0 19 -2
13 -5z m2737 -483 c27 -81 38 -227 21 -298 -7 -28 -25 -69 -39 -91 -25 -38
-30 -41 -73 -41 -33 0 -51 6 -63 19 -17 19 -17 21 7 63 55 94 104 262 108 371
3 68 9 64 39 -23z m-3033 -1562 c-3 -8 -6 -5 -6 6 -1 11 2 17 5 13 3 -3 4 -12
1 -19z"/>
<path d="M3433 8536 c-15 -13 -24 -28 -20 -32 11 -11 77 26 77 43 0 20 -26 15
-57 -11z"/>
<path d="M2533 8119 c-30 -11 -53 -27 -53 -35 0 -18 6 -18 64 2 54 19 69 13
32 -11 -14 -10 -26 -24 -26 -31 0 -18 1 -18 57 12 50 26 64 51 27 47 -15 -2
-21 3 -20 14 2 25 -22 25 -81 2z"/>
<path d="M3575 7850 c-9 -15 13 -75 35 -95 33 -30 36 7 5 59 -29 50 -31 51
-40 36z"/>
<path d="M3687 7843 c-7 -11 22 -95 39 -113 26 -27 36 2 17 50 -24 64 -43 85
-56 63z"/>
<path d="M3796 7832 c-3 -5 4 -32 16 -61 22 -52 48 -68 48 -31 0 41 -51 113
-64 92z"/>
<path d="M1780 6649 c0 -5 5 -7 10 -4 6 3 10 8 10 11 0 2 -4 4 -10 4 -5 0 -10
-5 -10 -11z"/>
<path d="M4460 6429 c0 -5 5 -7 10 -4 6 3 10 8 10 11 0 2 -4 4 -10 4 -5 0 -10
-5 -10 -11z"/>
<path d="M4472 6353 c2 -9 9 -18 16 -21 18 -6 15 25 -4 32 -11 4 -14 1 -12
-11z"/>
<path d="M4390 6348 c0 -16 23 -19 37 -5 14 13 13 15 -11 14 -14 -1 -26 -5
-26 -9z"/>
<path d="M4533 5947 c-45 -13 -71 -31 -56 -40 5 -3 41 -1 81 5 59 10 72 15 72
30 0 21 -31 23 -97 5z"/>
<path d="M4735 5950 c-12 -19 6 -30 51 -30 37 0 44 3 44 20 0 17 -7 20 -44 20
-25 0 -48 -4 -51 -10z"/>
<path d="M4551 5875 c-24 -11 -31 -19 -24 -26 13 -13 143 10 146 26 3 16 -85
16 -122 0z"/>
<path d="M5392 5734 c2 -13 16 -21 48 -26 24 -4 48 -4 52 0 15 15 -12 34 -57
40 -42 4 -47 3 -43 -14z"/>
<path d="M5334 5649 c-3 -5 -3 -13 1 -18 9 -15 74 -33 92 -27 15 6 15 8 1 22
-19 19 -86 35 -94 23z"/>
<path d="M5310 5546 c0 -17 43 -46 70 -46 30 0 24 27 -10 45 -36 19 -60 19
-60 1z"/>
<path d="M3585 5366 c-3 -9 -7 -23 -10 -31 -6 -22 15 -75 31 -75 18 0 26 37
16 79 -8 37 -29 52 -37 27z"/>
<path d="M3711 5371 c-20 -13 -10 -105 12 -109 14 -3 17 5 17 52 0 57 -7 70
-29 57z"/>
<path d="M2933 5341 c-23 -11 -62 -38 -87 -61 -34 -31 -49 -40 -58 -32 -48 38
-110 62 -163 62 -230 0 -202 -242 45 -391 55 -34 71 -39 125 -39 54 0 69 5
130 41 149 90 225 186 225 285 0 125 -100 188 -217 135z"/>
<path d="M3682 5228 c-7 -7 -12 -32 -12 -56 0 -36 3 -43 18 -40 12 2 18 15 20
47 4 48 -7 68 -26 49z"/>
<path d="M1495 4872 c-22 -15 -85 -96 -85 -109 0 -28 37 -10 73 35 44 55 51
103 12 74z"/>
<path d="M1538 4793 c-36 -39 -52 -73 -40 -85 11 -11 54 40 71 85 13 35 2 35
-31 0z"/>
<path d="M2153 4418 c-27 -30 -63 -90 -63 -105 0 -7 8 -13 18 -13 12 0 29 21
50 62 34 64 31 95 -5 56z"/>
<path d="M2243 4378 c-26 -31 -61 -123 -52 -133 14 -13 43 23 65 81 11 30 14
48 7 55 -7 7 -13 6 -20 -3z"/>
<path d="M2370 4361 c0 -20 -3 -26 -16 -36 -8 -5 -17 -25 -20 -42 -9 -48 21
-44 41 5 21 48 23 74 8 79 -7 3 -13 0 -13 -6z"/>
<path d="M687 3847 c-23 -17 -39 -64 -26 -73 12 -7 58 43 59 63 0 19 -16 24
-33 10z"/>
<path d="M775 3846 c-62 -83 -79 -135 -41 -120 22 8 73 111 61 123 -7 7 -14 6
-20 -3z"/>
<path d="M819 3793 c-8 -10 -20 -31 -27 -46 -10 -23 -9 -29 3 -33 21 -9 33 3
44 44 12 42 1 61 -20 35z"/>
<path d="M6836 4062 c-9 -14 -11 -136 -2 -150 12 -20 33 -13 40 14 8 29 -2 92
-15 99 -4 3 -6 12 -3 19 6 16 -12 31 -20 18z"/>
<path d="M6709 4046 c-7 -7 5 -134 13 -142 16 -15 38 7 38 37 0 66 -29 126
-51 105z"/>
<path d="M6939 4035 c-6 -6 7 -124 14 -132 13 -13 27 11 26 45 -2 64 -21 106
-40 87z"/>
<path d="M1533 2602 c-27 -22 -73 -170 -73 -238 0 -165 108 -277 208 -214 25
15 32 25 27 39 -3 11 -1 22 5 26 5 3 10 14 10 25 0 10 7 20 15 24 21 8 20 125
-1 197 -37 126 -126 193 -191 141z m100 -72 c19 -23 37 -54 41 -71 4 -19 10
-28 17 -23 8 5 9 2 2 -10 -5 -9 -7 -39 -3 -65 4 -33 1 -65 -11 -100 -25 -79
-63 -99 -113 -60 -64 50 -77 269 -21 360 14 22 54 8 88 -31z"/>
<path d="M4752 2110 c-54 -13 -107 -72 -131 -146 -28 -84 -28 -231 0 -414 11
-74 23 -210 26 -302 6 -177 -1 -246 -39 -345 l-19 -53 -118 0 c-101 0 -123 3
-161 23 -79 39 -85 60 -86 292 -1 208 -6 239 -46 283 -44 46 -125 17 -155 -56
-8 -19 -17 -74 -20 -121 l-6 -86 26 -3 c24 -2 25 1 29 54 1 31 0 60 -3 66 -11
18 44 113 68 116 40 6 54 -42 54 -188 0 -105 2 -131 15 -138 9 -5 12 -15 8
-25 -3 -9 -9 -15 -13 -13 -13 9 -10 -69 5 -115 29 -90 96 -129 239 -139 135
-10 170 1 212 64 18 26 32 51 31 54 -1 4 4 20 10 35 38 92 36 322 -5 587 -24
150 -23 361 0 422 25 65 66 98 122 98 46 0 66 -13 90 -60 26 -50 35 -152 41
-445 5 -296 14 -417 39 -538 18 -85 53 -152 80 -152 11 0 19 -5 18 -12 -3 -14
67 -51 147 -79 30 -10 57 -18 60 -19 3 0 10 -3 15 -6 6 -4 53 -19 105 -34 182
-51 260 -104 260 -175 0 -77 -47 -148 -127 -189 -149 -75 -604 -168 -1060
-216 -403 -42 -1093 -75 -1573 -75 -323 0 -805 17 -975 35 -27 3 -77 7 -110
10 -186 13 -469 63 -547 97 -61 26 -71 39 -71 90 0 32 6 46 24 60 241 185 274
219 290 301 5 23 11 290 14 592 3 303 7 569 10 591 7 67 24 92 71 110 41 15
45 15 70 -1 14 -9 35 -37 46 -62 29 -65 56 -238 58 -362 l0 -34 26 28 c24 26
25 32 19 104 -15 179 -49 305 -94 350 -41 41 -162 21 -201 -33 -29 -39 -49
-105 -51 -163 -1 -32 -1 -191 0 -354 1 -163 -1 -308 -5 -323 -4 -19 -2 -31 7
-37 12 -7 12 -10 1 -18 -11 -6 -12 -35 -8 -137 10 -205 10 -211 -12 -256 -21
-45 -84 -111 -162 -171 -25 -19 -66 -58 -92 -87 -37 -40 -48 -59 -48 -85 0
-18 -3 -40 -6 -48 -3 -8 1 -21 8 -28 8 -8 17 -22 21 -32 15 -39 166 -84 392
-116 273 -39 784 -71 1143 -71 158 0 186 2 200 17 16 16 17 15 20 -2 4 -17 20
-17 310 -11 323 7 604 19 837 36 286 21 490 42 493 51 2 5 14 6 27 3 35 -9
430 52 590 92 81 20 198 56 210 64 6 4 28 13 50 20 63 20 146 67 192 108 76
70 88 178 28 250 -47 56 -204 121 -378 157 -93 19 -171 47 -197 70 -25 23 -69
115 -76 160 -1 11 -7 49 -13 85 -16 106 -22 210 -26 495 -4 282 -15 374 -53
438 -31 54 -104 83 -170 67z m-3244 -797 c-4 -22 -22 -20 -26 1 -2 10 3 16 13
16 10 0 15 -7 13 -17z m3182 -214 c0 -6 -4 -7 -10 -4 -5 3 -10 11 -10 16 0 6
5 7 10 4 6 -3 10 -11 10 -16z"/>
<path d="M2262 2094 c-40 -28 -53 -67 -54 -177 -1 -56 -1 -124 1 -152 4 -73
30 -250 41 -280 24 -64 84 -90 164 -73 90 19 126 101 126 287 0 115 -20 263
-41 311 -28 63 -36 76 -59 87 -36 18 -150 17 -178 -3z m190 -99 c32 -129 42
-246 39 -428 -1 -40 -6 -54 -30 -78 -25 -24 -38 -29 -79 -29 -74 0 -90 27
-111 190 -12 89 -20 376 -11 391 4 5 22 18 41 27 29 15 42 16 84 7 l50 -10 17
-70z"/>
<path d="M2316 1875 c-12 -33 -7 -162 8 -174 28 -23 38 11 29 100 -8 78 -23
109 -37 74z"/>
<path d="M2393 1845 c-3 -9 -3 -62 0 -118 4 -56 7 -105 7 -109 0 -5 10 -8 21
-8 21 0 21 2 14 112 -4 61 -9 117 -12 125 -7 18 -22 17 -30 -2z"/>
<path d="M4058 1870 c-38 -23 -69 -228 -33 -214 9 4 15 0 15 -10 0 -9 -6 -16
-12 -16 -7 0 0 -12 14 -27 24 -23 32 -26 55 -17 44 15 65 63 64 146 -2 114
-45 172 -103 138z m59 -94 c10 -51 9 -64 -8 -102 -21 -49 -28 -53 -54 -24 -14
16 -17 30 -12 71 15 127 54 156 74 55z"/>
<path d="M5955 1206 c-89 -39 -155 -109 -230 -245 -50 -91 -68 -152 -55 -187
9 -22 11 -23 48 -10 206 73 412 241 400 326 -2 16 -1 27 4 24 14 -9 9 31 -8
54 -33 48 -100 64 -159 38z m95 -46 c5 0 14 -9 20 -20 34 -63 -63 -165 -280
-297 -86 -51 -101 -57 -93 -35 31 89 98 204 149 258 62 64 147 109 182 98 8
-2 18 -4 22 -4z"/>
<path d="M4785 1100 c-4 -6 -10 -76 -13 -156 -4 -130 -3 -144 13 -150 31 -12
36 16 32 160 -5 130 -15 174 -32 146z"/>
<path d="M4867 973 c-9 -14 -13 -201 -4 -209 4 -4 7 -18 7 -31 0 -14 6 -23 16
-23 9 0 14 6 11 13 -2 6 -1 19 4 28 9 18 -9 209 -21 222 -4 5 -10 5 -13 0z"/>
<path d="M902 928 c-27 -13 -37 -45 -24 -79 13 -32 78 -94 179 -169 70 -53 85
-60 102 -50 58 31 66 138 16 210 -53 77 -198 124 -273 88z m141 -54 c50 -17
103 -68 113 -109 3 -14 3 -45 0 -70 l-7 -45 -62 52 c-34 28 -78 65 -97 83 -39
35 -73 89 -63 99 11 11 68 6 116 -10z"/>
<path d="M2335 928 c-3 -8 -5 -42 -3 -74 2 -48 6 -59 22 -62 17 -4 18 2 14 62
-4 66 -21 105 -33 74z"/>
<path d="M1636 854 c-11 -87 -7 -249 8 -269 13 -18 14 -18 25 3 12 22 15 190
5 266 -4 26 -12 46 -19 46 -7 0 -15 -20 -19 -46z"/>
<path d="M2407 882 c-11 -17 -5 -101 8 -112 21 -17 28 4 20 60 -7 48 -18 69
-28 52z"/>
<path d="M5960 810 c-54 -9 -141 -54 -183 -93 l-37 -35 33 -15 c75 -36 210
-48 278 -26 70 24 106 76 83 121 -24 47 -84 64 -174 48z m122 -58 c17 -17 0
-43 -43 -64 -41 -21 -168 -24 -213 -5 l-30 13 35 21 c65 40 102 51 172 49 37
-1 73 -8 79 -14z"/>
<path d="M4314 683 c-4 -26 -4 -119 -1 -206 4 -125 9 -163 21 -175 11 -11 18
-12 28 -5 10 9 11 46 5 180 -4 92 -10 187 -13 211 -7 59 -31 56 -40 -5z"/>
<path d="M692 696 c-71 -23 -124 -64 -141 -108 -10 -28 10 -74 36 -82 58 -17
149 -26 195 -19 29 4 57 6 61 5 38 -11 197 44 197 68 0 19 -89 97 -135 120
-60 28 -152 36 -213 16z m224 -66 c57 -32 77 -52 62 -61 -45 -28 -344 -38
-369 -12 -21 21 35 69 111 94 43 15 153 2 196 -21z"/>
<path d="M1741 608 c0 -111 7 -158 24 -158 14 0 24 62 20 135 -1 28 -3 65 -4
83 -1 25 -5 32 -21 32 -18 0 -19 -7 -19 -92z"/>
<path d="M5140 655 c-11 -13 -11 -38 -1 -133 11 -105 22 -144 35 -131 4 4 9
99 7 139 -1 8 1 30 3 49 4 35 -10 91 -24 91 -4 0 -13 -7 -20 -15z"/>
<path d="M4221 473 c2 -118 9 -158 29 -158 32 0 31 225 -1 246 -27 17 -29 9
-28 -88z"/>
<path d="M2394 548 c-4 -6 -10 -47 -12 -90 -4 -68 -2 -79 13 -84 41 -16 60 80
31 151 -16 38 -21 41 -32 23z"/>
<path d="M2507 533 c-13 -12 -7 -159 6 -177 12 -16 14 -16 26 -2 27 32 -5 207
-32 179z"/>
<path d="M2617 513 c-9 -8 -9 -90 -1 -132 8 -36 29 -41 37 -8 6 23 -1 125 -9
139 -6 10 -18 10 -27 1z"/>
<path d="M5044 475 c-6 -26 7 -80 21 -80 14 0 27 54 21 80 -4 14 -13 25 -21
25 -8 0 -17 -11 -21 -25z"/>
</g>
</svg>
