<?xml version="1.0" standalone="no"?>
<!DOCTYPE svg PUBLIC "-//W3C//DTD SVG 20010904//EN"
 "http://www.w3.org/TR/2001/REC-SVG-20010904/DTD/svg10.dtd">
<svg version="1.0" xmlns="http://www.w3.org/2000/svg"
 width="936.000000pt" height="906.000000pt" viewBox="0 0 936.000000 906.000000"
 preserveAspectRatio="xMidYMid meet">

<g transform="translate(0.000000,906.000000) scale(0.100000,-0.100000)"
fill="#000000" stroke="none">
<path d="M4268 8803 c-438 -429 -669 -655 -888 -868 -118 -115 -314 -307 -435
-425 -291 -285 -731 -715 -1315 -1285 -124 -121 -331 -324 -460 -450 -129
-127 -327 -320 -440 -431 -113 -110 -284 -277 -381 -372 -96 -94 -207 -196
-247 -224 -39 -29 -70 -57 -68 -63 1 -5 50 -21 109 -35 58 -14 108 -28 112
-31 3 -3 -46 -39 -110 -80 -63 -41 -115 -76 -115 -79 0 -6 296 -300 793 -787
461 -453 842 -827 1142 -1123 527 -517 860 -845 1140 -1120 341 -334 754 -740
1135 -1115 157 -154 295 -288 306 -298 22 -18 28 -12 1430 1485 1510 1610
2547 2717 2758 2943 126 135 197 210 357 380 205 217 259 278 252 285 -4 4
-61 25 -125 46 -65 21 -118 41 -118 44 0 3 55 35 123 70 67 36 122 70 122 75
-1 11 -414 334 -429 334 -5 1 38 -36 95 -81 57 -45 106 -84 109 -88 3 -3 31
-26 63 -49 32 -24 56 -45 54 -48 -6 -5 -92 20 -302 87 -266 85 -505 160 -590
185 -49 15 -128 40 -175 55 -47 15 -195 62 -330 105 -135 42 -315 98 -400 125
-85 27 -263 83 -395 124 -132 41 -429 133 -660 206 -231 73 -492 154 -580 181
-166 52 -381 119 -615 194 -74 23 -182 57 -240 75 -58 18 -159 49 -225 70 -66
22 -280 89 -475 150 -195 62 -393 124 -440 139 -47 15 -120 39 -162 52 -47 14
-78 29 -78 38 0 12 211 431 230 456 4 6 58 109 120 230 62 121 116 225 120
230 4 6 35 64 70 130 35 66 84 161 110 210 26 50 84 160 128 245 153 293 171
325 187 324 8 -1 12 2 9 7 -3 5 -12 9 -20 9 -7 0 -123 -107 -256 -237z"/>
<path d="M4740 8876 c0 -2 8 -10 18 -17 15 -13 16 -12 3 4 -13 16 -21 21 -21
13z"/>
<path d="M4870 8776 c0 -2 8 -10 18 -17 15 -13 16 -12 3 4 -13 16 -21 21 -21
13z"/>
<path d="M5080 8616 c0 -2 8 -10 18 -17 15 -13 16 -12 3 4 -13 16 -21 21 -21
13z"/>
<path d="M5210 8516 c0 -2 8 -10 18 -17 15 -13 16 -12 3 4 -13 16 -21 21 -21
13z"/>
<path d="M5260 8476 c0 -2 8 -10 18 -17 15 -13 16 -12 3 4 -13 16 -21 21 -21
13z"/>
<path d="M5300 8446 c0 -2 8 -10 18 -17 15 -13 16 -12 3 4 -13 16 -21 21 -21
13z"/>
<path d="M5420 8356 c0 -2 8 -10 18 -17 15 -13 16 -12 3 4 -13 16 -21 21 -21
13z"/>
<path d="M5470 8316 c0 -2 8 -10 18 -17 15 -13 16 -12 3 4 -13 16 -21 21 -21
13z"/>
<path d="M5510 8286 c0 -2 8 -10 18 -17 15 -13 16 -12 3 4 -13 16 -21 21 -21
13z"/>
<path d="M5550 8256 c0 -2 8 -10 18 -17 15 -13 16 -12 3 4 -13 16 -21 21 -21
13z"/>
<path d="M5810 8056 c0 -2 8 -10 18 -17 15 -13 16 -12 3 4 -13 16 -21 21 -21
13z"/>
<path d="M5880 7996 c0 -2 7 -7 16 -10 8 -3 12 -2 9 4 -6 10 -25 14 -25 6z"/>
<path d="M6060 7866 c0 -2 8 -10 18 -17 15 -13 16 -12 3 4 -13 16 -21 21 -21
13z"/>
<path d="M6110 7826 c0 -2 8 -10 18 -17 15 -13 16 -12 3 4 -13 16 -21 21 -21
13z"/>
<path d="M6190 7766 c0 -2 8 -10 18 -17 15 -13 16 -12 3 4 -13 16 -21 21 -21
13z"/>
<path d="M6230 7736 c0 -2 8 -10 18 -17 15 -13 16 -12 3 4 -13 16 -21 21 -21
13z"/>
<path d="M7810 6521 c0 -5 7 -12 16 -15 14 -5 15 -4 4 9 -14 17 -20 19 -20 6z"/>
<path d="M7850 6496 c0 -2 8 -10 18 -17 15 -13 16 -12 3 4 -13 16 -21 21 -21
13z"/>
<path d="M7940 6421 c0 -5 7 -12 16 -15 14 -5 15 -4 4 9 -14 17 -20 19 -20 6z"/>
<path d="M7980 6396 c0 -2 8 -10 18 -17 15 -13 16 -12 3 4 -13 16 -21 21 -21
13z"/>
<path d="M8035 6350 c10 -11 20 -20 23 -20 3 0 -3 9 -13 20 -10 11 -20 20 -23
20 -3 0 3 -9 13 -20z"/>
<path d="M8070 6326 c0 -2 8 -10 18 -17 15 -13 16 -12 3 4 -13 16 -21 21 -21
13z"/>
<path d="M8110 6293 c1 -8 110 -87 110 -80 0 3 -25 23 -55 46 -30 23 -55 38
-55 34z"/>
<path d="M8240 6196 c0 -2 8 -10 18 -17 15 -13 16 -12 3 4 -13 16 -21 21 -21
13z"/>
<path d="M8280 6166 c0 -2 8 -10 18 -17 15 -13 16 -12 3 4 -13 16 -21 21 -21
13z"/>
<path d="M8329 6126 c13 -16 51 -41 51 -33 0 2 -15 14 -32 27 -21 15 -28 17
-19 6z"/>
<path d="M8410 6060 c0 -5 3 -10 8 -10 4 0 20 -11 36 -25 16 -14 32 -25 35
-25 3 0 19 -12 34 -26 16 -14 30 -24 33 -21 2 2 -29 30 -71 61 -41 31 -75 52
-75 46z"/>
<path d="M8605 5913 c15 -14 88 -69 105 -78 21 -11 3 5 -45 42 -43 32 -77 53
-60 36z"/>
<path d="M8750 5800 c0 -5 5 -10 11 -10 5 0 7 5 4 10 -3 6 -8 10 -11 10 -2 0
-4 -4 -4 -10z"/>
<path d="M8781 5777 c2 -1 13 -9 24 -17 19 -14 19 -14 6 3 -7 9 -18 17 -24 17
-6 0 -8 -1 -6 -3z"/>
</g>
</svg>
