<?xml version="1.0" standalone="no"?>
<!DOCTYPE svg PUBLIC "-//W3C//DTD SVG 20010904//EN"
 "http://www.w3.org/TR/2001/REC-SVG-20010904/DTD/svg10.dtd">
<svg version="1.0" xmlns="http://www.w3.org/2000/svg"
 width="720.000000pt" height="654.000000pt" viewBox="0 0 720.000000 654.000000"
 preserveAspectRatio="xMidYMid meet">

<g transform="translate(0.000000,654.000000) scale(0.100000,-0.100000)"
fill="#000000" stroke="none">
<path d="M3615 6499 c-66 -5 -133 -14 -149 -19 -16 -6 -46 -10 -66 -10 -20 0
-79 -9 -131 -20 -52 -12 -107 -23 -124 -27 -105 -19 -392 -116 -560 -188 -207
-88 -618 -327 -751 -437 -364 -299 -649 -648 -849 -1038 -70 -138 -90 -187
-163 -406 -95 -285 -104 -320 -156 -604 -39 -211 -51 -613 -27 -865 21 -224
93 -557 157 -720 46 -120 48 -144 14 -233 -47 -124 -109 -268 -248 -572 -71
-157 -196 -431 -277 -610 -81 -179 -169 -373 -197 -432 -48 -104 -52 -128 -23
-128 25 0 65 23 65 37 0 8 11 13 28 13 33 0 168 16 242 29 108 19 114 17 191
-55 l69 -65 138 4 c160 5 306 21 377 43 62 18 218 40 351 49 54 4 131 13 171
21 52 10 151 14 347 14 295 0 367 9 411 50 35 33 112 26 172 -17 26 -18 54
-33 63 -33 8 0 25 -7 37 -15 35 -25 153 -72 249 -100 83 -25 119 -34 342 -85
48 -12 123 -25 167 -31 44 -5 91 -12 105 -15 27 -6 558 -5 630 1 124 10 241
32 330 61 25 9 72 21 105 28 33 7 74 19 90 28 17 8 51 18 76 21 25 3 79 21
120 40 41 18 92 40 114 49 99 39 192 82 215 98 54 37 140 80 162 80 13 0 37
-9 53 -20 24 -16 47 -20 121 -20 81 0 95 3 129 26 115 78 432 385 587 569 313
371 446 575 575 880 131 307 200 555 258 925 22 142 31 529 16 685 -24 245
-54 411 -112 625 -63 231 -117 365 -267 670 -170 346 -236 435 -589 787 -273
272 -635 518 -988 670 -288 125 -594 207 -940 254 -104 14 -522 19 -660 8z
m589 -94 c141 -17 360 -57 446 -82 554 -160 953 -389 1334 -768 108 -107 234
-253 259 -298 9 -18 23 -36 30 -42 15 -11 87 -121 87 -132 0 -4 8 -16 19 -27
10 -12 35 -53 55 -93 21 -39 43 -77 51 -83 8 -6 17 -25 20 -41 4 -17 13 -42
21 -57 8 -15 14 -36 14 -46 0 -11 6 -27 13 -35 17 -20 37 -89 37 -128 0 -16 5
-34 12 -41 9 -9 9 -12 0 -12 -7 0 -12 4 -12 10 0 5 -6 7 -13 4 -13 -5 -67 61
-67 81 0 12 -113 178 -127 188 -7 4 -13 12 -13 18 0 5 -5 15 -11 22 -5 7 -27
35 -47 63 -80 111 -155 205 -178 223 -13 10 -24 21 -24 24 0 7 -51 66 -74 86
-10 9 -44 41 -75 71 -101 99 -180 170 -208 187 -15 10 -56 40 -90 67 -35 27
-72 54 -82 60 -11 6 -47 30 -80 54 -33 23 -63 42 -67 42 -3 0 -29 15 -57 33
-85 54 -325 171 -407 197 -14 5 -50 18 -80 29 -64 25 -265 83 -360 104 -484
110 -1075 79 -1540 -81 -222 -76 -450 -180 -587 -268 -29 -19 -56 -34 -59 -34
-5 0 -65 -41 -74 -50 -3 -3 -25 -19 -50 -35 -230 -153 -555 -474 -707 -700
-15 -22 -38 -53 -51 -69 -20 -24 -87 -133 -129 -209 -7 -12 -18 -30 -25 -39
-21 -29 -67 -111 -93 -164 -14 -29 -34 -54 -45 -57 -13 -3 -17 -11 -13 -25 2
-11 0 -23 -5 -26 -18 -11 -22 10 -11 60 6 27 10 62 10 78 0 17 5 37 12 45 7 9
21 50 31 91 18 73 35 116 90 230 44 90 109 205 133 234 12 15 25 36 28 47 4
10 11 19 16 19 5 0 9 5 9 10 0 6 4 16 10 23 5 7 22 28 38 47 16 19 40 52 54
72 74 111 343 383 499 504 445 347 946 551 1519 619 152 18 461 18 614 0z
m101 -403 c302 -47 586 -143 835 -283 96 -54 214 -135 263 -181 39 -37 45 -47
33 -57 -7 -6 -22 -8 -32 -5 -33 11 -217 86 -233 94 -33 18 -199 79 -286 105
-49 15 -110 33 -135 40 -81 25 -295 67 -405 80 -22 2 -76 9 -120 15 -165 22
-514 20 -740 -5 -104 -11 -330 -55 -460 -89 -90 -23 -352 -109 -390 -127 -38
-18 -123 -37 -135 -29 -8 5 1 18 26 41 20 19 44 42 53 52 8 9 21 17 27 17 6 0
22 9 36 20 14 10 65 40 114 65 265 139 549 223 884 265 126 15 517 4 665 -18z
m-250 -252 c8 -12 -131 -12 -160 0 -13 6 9 9 67 9 48 1 90 -3 93 -9z m-925
-1047 c61 -35 202 -181 225 -234 11 -24 25 -48 32 -52 16 -10 53 -81 53 -101
0 -9 13 -30 30 -49 40 -46 52 -80 36 -102 -11 -16 -15 -14 -44 21 -17 21 -43
62 -57 92 -14 30 -36 69 -49 86 -13 17 -27 40 -30 52 -10 33 -156 179 -210
210 -75 42 -115 39 -231 -21 -153 -78 -306 -228 -372 -361 -26 -53 -43 -69
-43 -38 0 41 27 113 63 168 54 80 220 242 279 271 26 12 63 33 83 45 88 54
156 58 235 13z m-32 -130 c72 -60 157 -159 177 -206 8 -20 19 -38 25 -42 19
-12 52 -97 42 -107 -6 -6 -15 -3 -23 9 -9 11 -27 18 -49 18 -33 0 -35 2 -38
38 -3 36 -4 37 -43 37 -21 0 -39 -2 -39 -4 0 -2 -3 -11 -6 -20 -4 -12 0 -16
15 -16 12 0 21 -4 21 -9 0 -11 -30 -36 -30 -25 -1 5 -7 -4 -14 -21 l-13 -30
-7 43 c-4 23 -11 42 -15 42 -5 0 -12 -19 -18 -42 l-9 -43 -35 36 c-32 35 -38
37 -118 43 -78 7 -85 6 -107 -15 l-24 -22 -23 21 c-13 12 -32 22 -43 22 -16 0
-17 2 -4 10 20 13 70 13 70 0 0 -5 9 -10 20 -10 11 0 20 5 20 10 0 6 -9 10
-20 10 -15 0 -20 7 -20 29 0 22 -5 30 -24 33 -17 3 -23 1 -19 -8 3 -7 -5 -14
-19 -16 -17 -2 -24 -10 -26 -31 -3 -22 -8 -28 -21 -24 -13 3 -18 -3 -19 -25
-2 -19 1 -27 8 -23 11 7 40 -11 40 -25 0 -17 -33 -20 -45 -3 -10 14 -16 15
-28 5 -12 -10 -13 -8 -9 14 4 20 1 25 -9 22 -8 -3 -15 -14 -17 -26 -3 -22 -22
-31 -22 -11 0 13 30 68 48 87 6 7 12 17 12 22 0 15 213 220 229 220 9 0 45 21
81 45 35 25 70 43 77 41 7 -3 39 -27 71 -53z m3513 -63 c5 0 9 -7 9 -15 0 -22
-23 -18 -39 6 -11 19 -11 21 4 15 9 -3 21 -6 26 -6z m-5481 -220 c0 -5 -4 -10
-10 -10 -5 0 -10 5 -10 10 0 6 5 10 10 10 6 0 10 -4 10 -10z m1780 -50 c0 -17
-7 -20 -40 -20 -33 0 -40 3 -40 20 0 17 7 20 40 20 33 0 40 -3 40 -20z m338
-28 c2 -7 -3 -12 -12 -12 -9 0 -16 7 -16 16 0 17 22 14 28 -4z m71 -24 c1 -5
-3 -8 -8 -8 -12 0 -22 30 -14 43 6 10 20 -13 22 -35z m-2424 -139 c-72 -417
-89 -608 -81 -929 3 -140 13 -311 21 -380 8 -69 18 -172 21 -230 6 -96 5 -103
-9 -84 -26 34 -76 170 -98 263 -96 410 -80 909 40 1279 29 89 84 216 103 240
27 32 28 -13 3 -159z m2470 132 c-9 -16 -25 -3 -18 15 4 10 9 12 15 6 6 -6 7
-15 3 -21z m-933 -66 c-3 -55 2 -126 13 -196 10 -60 16 -112 13 -114 -3 -3
-13 21 -23 52 -10 32 -24 75 -31 96 -8 20 -14 73 -14 116 0 64 4 83 21 105 11
14 22 26 23 26 1 0 0 -38 -2 -85z m4519 25 c35 -67 90 -241 118 -372 67 -311
65 -739 -4 -1048 -19 -89 -72 -245 -93 -278 -14 -21 -16 -22 -25 -6 -5 9 -7
40 -3 68 47 384 49 415 49 686 1 255 -9 424 -33 560 -5 30 -17 102 -25 160 -9
58 -23 137 -31 177 -8 40 -14 82 -14 93 0 38 31 18 61 -40z m-4366 18 c-12
-39 -25 -44 -25 -10 0 22 5 32 16 32 11 0 14 -6 9 -22z m752 -10 c-3 -8 -6 -5
-6 6 -1 11 2 17 5 13 3 -3 4 -12 1 -19z m50 0 c-3 -8 -6 -5 -6 6 -1 11 2 17 5
13 3 -3 4 -12 1 -19z m171 5 c-5 -25 -28 -28 -28 -4 0 12 6 21 16 21 9 0 14
-7 12 -17z m-3 -85 c21 -45 24 -104 4 -92 -14 8 -69 124 -69 145 0 33 40 0 65
-53z m-267 40 c-6 -18 -28 -21 -28 -4 0 9 7 16 16 16 9 0 14 -5 12 -12z m132
-29 c0 -11 -4 -17 -10 -14 -5 3 -10 13 -10 21 0 8 5 14 10 14 6 0 10 -9 10
-21z m-2037 -274 c-27 -185 -28 -200 -25 -544 3 -413 8 -469 68 -771 9 -47 19
-116 23 -155 5 -59 9 -70 26 -73 29 -6 70 -48 123 -125 39 -58 47 -78 50 -127
5 -74 -20 -159 -88 -297 -27 -57 -50 -105 -50 -107 0 -2 -21 -48 -46 -103 -97
-206 -136 -298 -137 -322 -2 -24 1 -26 48 -26 42 0 50 -3 47 -17 -2 -15 3 -17
40 -13 153 19 217 27 248 30 19 2 76 9 125 14 114 14 343 31 412 31 l52 0 103
-102 c100 -98 108 -104 253 -174 147 -71 300 -133 380 -153 22 -6 81 -22 130
-37 388 -113 1060 -116 1445 -4 36 10 92 26 125 35 144 41 258 86 420 165 140
69 368 211 474 296 31 25 65 52 76 61 11 9 38 32 61 52 22 20 51 46 65 57 33
30 136 140 184 198 22 27 45 54 50 60 6 6 19 25 29 41 11 17 32 44 48 60 15
17 28 33 28 38 0 4 18 32 40 62 22 30 45 66 50 80 14 37 82 125 97 125 17 0
16 10 -2 33 -18 25 -9 47 20 47 33 0 55 10 55 25 0 7 7 15 15 19 9 3 24 26 35
51 11 25 33 57 50 71 16 14 30 32 30 40 0 18 29 18 36 1 3 -8 0 -34 -6 -58 -6
-24 -15 -63 -20 -86 -9 -42 -12 -49 -44 -110 -9 -17 -16 -37 -16 -44 0 -22
-101 -230 -126 -260 -8 -8 -14 -22 -14 -31 0 -8 -9 -23 -20 -33 -11 -10 -20
-26 -20 -36 0 -10 -6 -22 -12 -26 -15 -10 -78 -100 -78 -112 0 -5 -7 -14 -15
-21 -8 -7 -47 -55 -87 -107 -105 -140 -360 -391 -466 -462 -21 -13 -48 -34
-62 -46 -23 -21 -158 -113 -240 -163 -64 -39 -253 -133 -355 -177 -564 -241
-1229 -288 -1835 -129 -112 30 -310 94 -326 105 -6 5 -40 20 -76 33 -87 33
-374 182 -411 214 -58 50 -173 119 -187 113 -8 -5 -55 -13 -105 -20 -49 -7
-100 -17 -113 -22 -13 -5 -50 -9 -84 -9 -49 0 -59 -3 -54 -15 4 -12 -5 -15
-52 -16 -31 -1 -69 0 -84 1 -35 2 -36 -12 -3 -30 14 -7 25 -17 25 -22 0 -4 8
-8 18 -9 9 0 12 -3 6 -5 -6 -3 -46 6 -89 20 -71 23 -105 25 -105 7 0 -9 95
-49 137 -57 23 -4 41 -1 58 10 19 13 45 16 113 14 94 -2 231 6 274 17 21 5 29
2 39 -17 6 -12 29 -40 51 -60 34 -33 37 -40 26 -58 -21 -33 -75 -54 -107 -40
-21 8 -61 6 -182 -10 -207 -28 -575 -69 -674 -75 -314 -18 -439 -27 -500 -36
-38 -6 -88 -13 -110 -15 -139 -14 -277 -34 -296 -44 -12 -7 -55 -36 -97 -66
-64 -46 -102 -65 -102 -50 0 2 30 66 66 142 140 294 214 452 214 459 0 2 14
35 31 72 17 37 35 77 39 88 5 11 15 36 23 55 8 19 34 82 57 140 24 58 51 123
60 145 10 22 37 85 60 140 23 55 75 173 116 261 40 89 76 173 80 188 7 28 31
46 60 46 21 0 64 -38 64 -56 0 -7 -15 -46 -34 -86 -36 -77 -80 -173 -101 -223
-7 -16 -25 -56 -39 -87 -14 -31 -26 -63 -26 -71 0 -8 -7 -20 -15 -27 -9 -7
-13 -21 -10 -31 3 -9 1 -20 -5 -24 -5 -3 -10 -17 -10 -30 0 -12 -7 -26 -16
-29 -12 -4 -14 -13 -10 -31 5 -18 2 -27 -10 -32 -12 -4 -14 -14 -9 -39 5 -28
3 -33 -10 -28 -19 8 -21 -35 -2 -55 10 -11 8 -13 -11 -8 -23 5 -24 3 -18 -29
6 -27 4 -34 -9 -34 -13 0 -15 -7 -9 -37 6 -33 5 -36 -14 -31 -19 5 -20 3 -11
-20 7 -19 6 -29 -6 -42 -11 -12 -14 -26 -9 -44 4 -16 2 -26 -5 -26 -6 0 -11
-11 -11 -24 0 -13 -7 -29 -15 -36 -8 -7 -12 -16 -9 -21 2 -5 -2 -22 -11 -38
-8 -17 -15 -40 -15 -53 0 -13 -16 -54 -35 -92 -20 -38 -33 -71 -31 -73 26 -27
389 258 403 316 3 14 17 51 30 81 14 30 34 82 45 115 12 33 29 72 39 87 11 14
19 31 19 37 0 10 52 127 106 235 13 28 24 56 24 63 0 19 39 55 52 47 7 -5 9 3
6 24 -4 27 -1 31 16 29 15 -1 21 3 20 16 -2 15 3 17 27 12 26 -6 29 -4 29 19
0 21 5 26 25 26 19 0 25 5 23 18 -2 9 3 16 9 15 7 -2 16 9 19 25 4 15 12 34
19 42 18 24 75 158 75 179 0 11 -8 39 -19 63 -21 50 -53 143 -71 208 -7 25
-29 81 -50 125 -180 382 -221 981 -95 1420 25 88 74 215 93 240 l16 22 14 -26
c12 -22 10 -51 -15 -216z m2054 213 c-3 -8 -6 -5 -6 6 -1 11 2 17 5 13 3 -3 4
-12 1 -19z m2988 6 c10 -4 29 -34 44 -68 102 -227 157 -597 132 -894 -17 -205
-56 -411 -100 -532 -11 -30 -20 -64 -21 -76 0 -11 -7 -29 -15 -40 -8 -10 -15
-27 -15 -36 0 -10 -3 -18 -7 -18 -11 0 -33 -50 -33 -76 0 -28 -25 -38 -45 -18
-21 22 -19 53 14 227 60 309 68 385 72 647 5 306 1 413 -22 595 -25 191 -34
295 -26 295 3 0 13 -3 22 -6z m-2780 -94 c19 -37 19 -74 0 -90 -9 -7 -17 -11
-19 -9 -3 2 -8 32 -12 67 -7 69 5 83 31 32z m-1094 -80 c13 -25 26 -47 29 -50
3 -3 6 -13 8 -23 2 -10 16 -41 31 -70 16 -29 37 -74 47 -102 10 -27 30 -65 46
-83 19 -22 28 -44 28 -67 0 -33 6 -42 49 -77 12 -10 21 -29 21 -45 0 -15 11
-38 24 -52 13 -15 37 -51 52 -81 40 -79 132 -211 166 -238 19 -16 28 -33 28
-53 0 -24 19 -51 93 -132 50 -56 128 -137 172 -180 108 -105 369 -298 507
-375 142 -79 418 -215 478 -235 25 -9 79 -30 120 -47 41 -18 100 -36 130 -40
30 -5 89 -16 130 -25 41 -9 95 -14 120 -12 133 12 333 175 429 349 27 48 51
72 51 50 0 -18 -73 -158 -103 -197 -80 -104 -172 -180 -280 -231 -37 -17 -70
-24 -114 -24 -76 0 -302 44 -351 69 -20 10 -62 26 -92 36 -82 26 -213 88 -455
215 -237 124 -493 314 -644 479 -191 208 -220 243 -246 293 -14 29 -47 81 -73
115 -44 58 -114 171 -155 252 -11 20 -27 45 -38 57 -10 11 -25 41 -33 66 -7
25 -25 61 -38 79 -38 51 -127 251 -147 329 -9 39 -20 73 -24 77 -4 3 -7 13 -7
22 0 20 12 6 41 -49z m979 -46 c0 -19 -38 -55 -68 -65 -20 -6 -49 -20 -63 -30
-14 -10 -52 -26 -84 -36 -37 -12 -69 -30 -89 -50 -32 -35 -73 -43 -82 -18 -13
34 138 145 197 145 9 0 31 11 47 25 17 14 39 25 50 25 12 0 23 4 26 8 5 8 66
4 66 -4z m-32 -120 c-5 -26 -35 -41 -50 -26 -11 11 -9 16 6 28 26 19 48 18 44
-2z m-90 -41 c-4 -23 -73 -56 -99 -48 -30 10 -19 37 21 51 53 19 82 18 78 -3z
m-154 -110 c12 -10 90 -99 173 -198 191 -229 439 -473 579 -571 22 -16 65 -48
95 -70 30 -23 73 -50 95 -62 22 -11 46 -32 54 -46 16 -31 30 -33 37 -6 3 11
10 20 15 20 13 0 0 -52 -15 -62 -7 -4 -16 -8 -22 -8 -24 0 -116 52 -192 109
-44 33 -84 61 -88 61 -14 0 -244 212 -360 331 -67 68 -154 165 -195 214 -41
50 -94 112 -118 140 -56 63 -109 165 -86 165 3 0 16 -8 28 -17z m1511 -571
c221 -85 290 -118 425 -208 91 -60 202 -174 190 -194 -11 -17 -10 -18 -103 60
-146 123 -463 271 -647 301 -60 10 -76 10 -114 -5 -39 -15 -106 -76 -106 -97
0 -5 -9 -13 -20 -19 -19 -10 -20 -9 -14 17 14 66 28 97 57 130 43 49 59 54
162 49 70 -3 108 -10 170 -34z m-94 -78 c103 -32 264 -99 327 -136 34 -21 66
-38 70 -38 4 0 18 -9 32 -20 33 -26 5 -25 -35 1 -109 69 -424 179 -514 179
-12 0 -21 4 -21 9 0 24 69 27 141 5z m-334 -136 c-3 -8 -6 -5 -6 6 -1 11 2 17
5 13 3 -3 4 -12 1 -19z m14 -48 c-7 -4 -11 -11 -10 -16 1 -5 -2 -18 -6 -29 -9
-19 -9 -19 -15 5 -6 26 31 83 39 59 2 -6 -2 -15 -8 -19z m1105 -196 c10 -39
-3 -135 -20 -153 -15 -14 -16 -10 -16 45 0 34 -3 83 -7 109 -6 46 -5 47 15 36
12 -6 25 -23 28 -37z m-1286 16 c0 -5 -7 -7 -15 -4 -8 4 -15 8 -15 10 0 2 7 4
15 4 8 0 15 -4 15 -10z m97 -22 c36 -13 45 -38 13 -38 -29 0 -82 29 -75 40 8
13 22 13 62 -2z m2341 -119 c-2 -6 -8 -10 -13 -10 -5 0 -11 4 -13 10 -2 6 4
11 13 11 9 0 15 -5 13 -11z m-5315 -133 c23 -18 22 -43 -3 -51 -27 -8 -40 1
-40 29 0 37 13 44 43 22z m2498 -97 c24 -12 64 -33 88 -47 70 -41 329 -161
416 -193 44 -16 94 -36 110 -43 129 -59 435 -104 528 -78 51 14 47 0 -10 -35
-42 -24 -58 -28 -128 -28 -114 0 -267 35 -398 92 -45 19 -102 41 -126 50 -24
8 -110 49 -190 90 -80 42 -184 95 -230 119 -84 44 -121 70 -121 86 0 12 12 10
61 -13z m403 -1386 c24 -24 -340 -43 -391 -21 -26 12 -23 13 47 18 115 10 336
11 344 3z m-1797 -181 c12 -7 29 -12 37 -12 9 0 44 -13 78 -29 124 -58 382
-149 547 -193 284 -75 542 -109 843 -109 262 0 431 15 638 58 41 8 95 19 120
24 99 20 316 84 440 129 171 64 210 74 222 62 16 -16 -11 -45 -97 -100 -265
-171 -656 -300 -1035 -342 -135 -15 -445 -15 -580 0 -408 45 -822 183 -1083
359 -38 25 -86 58 -107 72 -35 23 -90 80 -90 92 0 9 43 2 67 -11z"/>
<path d="M2750 4395 c0 -8 5 -15 10 -15 6 0 10 7 10 15 0 8 -4 15 -10 15 -5 0
-10 -7 -10 -15z"/>
<path d="M3233 4355 c-3 -9 -3 -18 -1 -21 3 -3 8 4 11 16 6 23 -1 27 -10 5z"/>
<path d="M3247 4323 c-11 -10 -8 -43 3 -43 6 0 10 11 10 25 0 26 -2 29 -13 18z"/>
<path d="M3000 4300 c-9 -18 -8 -20 15 -20 18 0 25 5 25 20 0 11 -7 20 -15 20
-8 0 -19 -9 -25 -20z"/>
<path d="M1400 756 c45 -24 70 -29 70 -13 0 16 -30 27 -70 26 l-25 0 25 -13z"/>
<path d="M1488 733 c7 -3 16 -2 19 1 4 3 -2 6 -13 5 -11 0 -14 -3 -6 -6z"/>
</g>
</svg>
