<?xml version="1.0" standalone="no"?>
<!DOCTYPE svg PUBLIC "-//W3C//DTD SVG 20010904//EN"
 "http://www.w3.org/TR/2001/REC-SVG-20010904/DTD/svg10.dtd">
<svg version="1.0" xmlns="http://www.w3.org/2000/svg"
 width="636.000000pt" height="800.000000pt" viewBox="0 0 636.000000 800.000000"
 preserveAspectRatio="xMidYMid meet">

<g transform="translate(0.000000,800.000000) scale(0.100000,-0.100000)"
fill="#000000" stroke="none">
<path d="M4970 7991 c0 -5 -26 -12 -57 -16 -32 -4 -96 -18 -143 -32 -279 -81
-510 -272 -703 -583 -134 -216 -242 -356 -392 -505 -146 -146 -316 -268 -467
-337 -142 -65 -326 -194 -435 -305 -40 -40 -77 -73 -82 -73 -9 0 108 238 170
347 25 43 20 65 -9 47 -41 -26 -199 -352 -242 -499 -10 -33 -34 -100 -53 -148
-50 -123 -68 -216 -70 -354 -2 -116 -2 -118 20 -118 15 0 45 26 95 82 176 197
441 397 626 473 219 90 419 232 571 403 59 67 119 151 316 439 44 64 135 197
202 295 67 98 163 239 213 313 165 241 316 410 444 495 88 58 99 85 36 85 -22
0 -40 -4 -40 -9z m-810 -595 c0 -2 -8 -10 -17 -17 -16 -13 -17 -12 -4 4 13 16
21 21 21 13z"/>
<path d="M5330 7206 c-193 -188 -324 -301 -496 -427 -98 -71 -122 -87 -264
-172 -168 -101 -415 -212 -615 -277 -72 -23 -95 -36 -95 -51 0 -45 361 90 619
230 330 180 691 464 975 767 73 78 85 97 69 107 -5 3 -91 -77 -193 -177z"/>
<path d="M6175 7024 c-152 -67 -205 -89 -490 -208 -623 -260 -1336 -519 -1923
-697 -184 -56 -205 -65 -247 -109 -27 -28 -30 -38 -30 -98 0 -56 6 -80 37
-147 34 -75 36 -84 27 -135 -11 -73 -81 -211 -174 -343 -106 -150 -93 -170 50
-82 76 47 193 155 297 275 l66 75 -9 55 c-12 69 -12 225 -1 265 5 17 19 35 33
42 13 6 195 66 404 133 411 132 627 210 1058 382 153 61 280 108 283 105 8 -8
-102 -223 -160 -312 -29 -44 -83 -120 -119 -169 -74 -98 -85 -126 -39 -102 15
8 269 257 564 555 295 298 541 541 547 541 6 0 11 9 11 20 0 12 -7 20 -17 20
-10 0 -85 -30 -168 -66z"/>
<path d="M2446 6803 c-3 -10 -17 -71 -31 -135 -46 -206 -114 -396 -221 -610
-108 -216 -128 -333 -76 -433 32 -63 136 -155 174 -155 28 0 21 28 -10 44 -36
19 -109 91 -130 130 -12 23 -17 54 -16 117 l0 86 96 199 c101 209 149 330 192
479 27 96 56 235 56 273 0 26 -26 30 -34 5z"/>
<path d="M1360 6600 c0 -113 49 -362 94 -483 59 -158 183 -347 226 -347 30 0
25 13 -29 76 -120 140 -192 333 -235 624 -17 120 -24 145 -39 148 -12 2 -17
-3 -17 -18z"/>
<path d="M2450 6038 c-65 -105 -117 -393 -106 -578 7 -99 18 -136 37 -124 5 3
9 74 8 157 -2 209 25 366 87 505 28 64 29 72 9 72 -8 0 -24 -15 -35 -32z"/>
<path d="M4473 6026 c-90 -29 -155 -67 -183 -107 -29 -39 -20 -46 30 -24 33
15 44 16 69 5 40 -16 52 -32 53 -69 1 -42 -26 -69 -76 -76 -68 -11 -76 -21
-41 -51 18 -16 23 -24 12 -20 -10 3 -20 6 -23 6 -2 0 -12 17 -23 38 -10 20
-28 45 -39 55 -19 17 -20 17 -26 -7 -16 -65 40 -128 147 -161 92 -29 123 -31
220 -9 140 31 245 104 287 197 24 51 25 75 5 125 -43 107 -239 154 -412 98z
m184 -33 c-20 -2 -52 -2 -70 0 -17 2 0 4 38 4 39 0 53 -2 32 -4z m128 -28 c76
-44 84 -118 20 -193 -35 -40 -142 -103 -174 -101 -14 0 -14 1 -1 6 48 17 98
48 93 56 -3 6 -1 7 5 3 8 -5 12 0 12 14 0 12 10 25 24 31 14 7 22 17 20 24 -3
7 2 15 10 18 13 5 14 12 2 51 -8 25 -11 48 -7 52 3 4 -2 4 -13 0 -13 -4 -17
-2 -13 8 4 10 1 13 -9 9 -7 -3 -14 -9 -14 -14 0 -5 -5 -9 -11 -9 -5 0 -8 4 -4
9 3 5 0 11 -7 14 -7 2 -5 3 4 2 10 -2 21 1 24 6 3 5 -4 9 -14 9 -11 0 -22 7
-26 15 -9 23 31 19 79 -10z"/>
<path d="M0 5824 c1 -47 669 -426 978 -554 110 -46 114 -48 91 -61 -39 -22
-333 -19 -434 4 -109 26 -216 62 -299 103 -69 34 -86 35 -86 9 0 -30 246 -123
404 -152 120 -23 345 -22 449 1 l75 17 108 -36 c145 -48 403 -111 538 -130 60
-9 113 -18 117 -21 7 -4 39 -102 39 -118 0 -12 -24 -5 -84 23 -82 38 -198 75
-331 107 -94 22 -141 26 -328 31 -222 6 -278 1 -452 -35 -134 -28 -319 -11
-417 39 -65 33 -117 20 -66 -16 33 -23 176 -66 225 -68 28 -1 43 -7 43 -15 0
-8 -27 -56 -59 -109 -98 -156 -105 -214 -18 -155 56 39 131 60 152 42 22 -18
19 -96 -6 -147 -11 -23 -41 -60 -65 -82 -24 -21 -44 -44 -44 -50 0 -15 92 -14
143 1 90 27 155 136 164 271 3 45 9 89 14 98 23 46 438 70 749 43 161 -13 375
-45 382 -57 4 -6 8 -25 8 -40 0 -23 -7 -31 -46 -47 -25 -11 -51 -20 -58 -20
-23 0 -222 -108 -317 -171 -220 -148 -359 -183 -512 -129 -40 13 -72 19 -75
14 -4 -5 -63 -43 -132 -84 -145 -86 -158 -96 -144 -110 7 -7 36 -4 90 10 158
40 223 17 224 -77 0 -23 4 -44 9 -47 5 -4 92 56 193 131 101 76 235 172 298
214 244 162 460 264 460 218 0 -7 -5 -39 -10 -73 -6 -33 -22 -135 -36 -226
-34 -224 -78 -429 -110 -520 -38 -107 -44 -225 -16 -316 35 -112 85 -185 217
-313 247 -238 325 -301 325 -261 0 10 -104 112 -277 269 -131 120 -193 205
-224 310 -27 91 -22 185 16 293 50 142 137 631 154 858 13 180 -2 266 -66 395
-59 117 -131 200 -291 333 -43 35 -53 50 -59 85 -8 52 -8 89 1 148 6 32 4 49
-4 54 -20 12 -34 -13 -40 -68 -5 -48 -7 -52 -30 -51 -14 1 -65 18 -114 38
-109 46 -291 98 -450 130 -110 22 -184 33 -436 66 -47 6 -185 13 -307 17 -215
6 -223 5 -223 -13z"/>
<path d="M4978 5750 c-80 -83 -263 -226 -333 -260 -66 -32 -339 -47 -545 -31
-165 13 -198 9 -163 -21 19 -16 124 -48 238 -72 73 -16 339 -46 406 -46 38 0
39 -1 54 -54 29 -99 66 -101 62 -2 l-2 62 130 137 c72 75 137 139 145 141 8 2
50 12 92 21 43 9 86 24 95 33 16 16 12 17 -53 20 -38 2 -73 7 -78 12 -5 5 5
30 23 59 33 55 39 81 18 81 -7 0 -47 -36 -89 -80z"/>
<path d="M3339 5748 c-88 -130 -208 -238 -359 -323 -147 -83 -231 -146 -351
-265 -132 -131 -179 -194 -160 -213 10 -9 21 -3 50 33 71 88 217 233 288 286
39 30 111 77 160 105 192 111 301 205 389 335 51 74 60 104 34 104 -5 0 -28
-28 -51 -62z"/>
<path d="M3065 5113 c-48 -10 -165 -55 -211 -80 -27 -15 -74 -52 -104 -83 -65
-64 -131 -183 -113 -201 17 -17 31 -3 61 59 55 116 184 213 338 252 79 20 108
35 98 51 -5 9 -33 10 -69 2z"/>
<path d="M1269 4797 c-65 -19 -110 -48 -133 -87 -20 -33 -20 -34 0 -26 10 4
34 10 51 13 30 5 34 3 48 -30 20 -49 19 -79 -5 -110 -23 -29 -25 -43 -7 -50 9
-4 9 -6 -1 -6 -7 -1 -35 11 -63 25 -28 14 -53 23 -56 20 -14 -14 11 -56 44
-76 63 -37 134 -46 206 -26 81 23 120 48 168 108 29 37 39 59 39 85 0 116
-152 199 -291 160z m202 -86 c27 -27 39 -47 39 -67 0 -59 -63 -124 -135 -139
l-30 -6 30 14 c17 8 43 30 59 48 62 76 64 84 39 108 -10 9 -23 25 -29 36 -6
11 -22 26 -35 32 l-24 13 24 0 c14 0 39 -15 62 -39z m-204 -217 c-3 -3 -12 -4
-19 -1 -8 3 -5 6 6 6 11 1 17 -2 13 -5z m70 0 c-3 -3 -12 -4 -19 -1 -8 3 -5 6
6 6 11 1 17 -2 13 -5z"/>
<path d="M2216 4308 c-3 -13 -8 -57 -11 -98 -14 -183 -63 -397 -111 -492 -23
-45 -42 -66 -104 -116 -19 -16 -22 -23 -14 -32 9 -9 21 -8 49 6 70 33 130 141
171 304 25 103 68 415 60 437 -8 21 -35 15 -40 -9z"/>
<path d="M2690 3484 c-102 -22 -175 -49 -178 -67 -6 -31 77 -106 162 -147 144
-68 188 -62 117 15 -60 66 -56 80 28 94 39 6 125 11 193 11 126 0 155 7 145
33 -7 19 -104 56 -177 68 -78 13 -214 10 -290 -7z"/>
<path d="M5697 3208 c-8 -13 -26 -43 -40 -68 -27 -48 -134 -158 -207 -213 -75
-56 -161 -103 -248 -136 -149 -57 -190 -62 -552 -71 -531 -13 -602 -28 -1277
-265 -169 -59 -303 -85 -442 -85 -95 0 -112 -3 -135 -21 -52 -41 -60 -70 -64
-248 l-4 -163 34 -37 c63 -66 154 -185 225 -291 134 -205 218 -395 277 -634
49 -193 101 -282 212 -358 98 -67 211 -91 485 -105 264 -13 525 68 786 243 62
42 135 99 163 127 192 193 371 599 494 1122 34 144 107 535 140 750 15 94 29
184 31 201 3 17 20 45 40 64 51 49 115 152 115 183 0 33 -15 35 -33 5z m-182
-380 c-9 -56 -22 -139 -30 -183 -8 -44 -19 -109 -25 -145 -6 -36 -16 -94 -23
-130 l-12 -65 -60 2 c-592 16 -616 16 -790 -6 -209 -27 -531 -82 -685 -116
-63 -15 -153 -35 -198 -45 -117 -26 -524 -142 -539 -153 -20 -15 -15 -37 7
-37 16 0 219 55 278 75 57 20 -76 -111 -147 -144 -52 -24 -66 -26 -191 -26
-120 1 -144 4 -218 28 -114 39 -115 40 -110 224 6 218 10 223 196 223 140 0
347 51 572 140 142 56 266 96 418 134 228 57 315 67 687 76 361 9 416 16 549
65 107 40 186 82 262 140 38 29 70 51 72 50 2 -2 -4 -50 -13 -107z m-685
-1149 c109 -13 216 -34 307 -61 59 -17 75 -18 88 -8 8 7 15 10 15 7 0 -19
-277 -240 -290 -232 -6 4 -9 2 -8 -4 7 -24 -359 -269 -546 -367 -304 -158
-458 -183 -637 -100 -42 19 -100 43 -130 53 l-54 18 1 120 c0 93 5 136 22 191
23 73 56 132 82 144 32 15 118 59 170 88 121 67 359 141 500 155 82 9 402 6
480 -4z m376 -196 c-22 -44 -53 -115 -76 -174 -48 -123 -151 -290 -234 -377
-103 -109 -331 -249 -508 -311 -177 -62 -339 -78 -558 -57 -221 21 -334 64
-415 159 -50 58 -48 94 9 154 41 44 47 47 104 51 71 5 130 -12 246 -71 l78
-39 107 4 c137 7 226 35 424 137 230 118 465 272 736 485 46 36 88 66 93 66 5
0 2 -12 -6 -27z m-1660 -148 c4 -9 1 -37 -6 -63 -7 -26 -15 -102 -18 -169 l-5
-122 -48 -16 c-34 -12 -61 -30 -89 -62 -39 -45 -40 -45 -49 -22 -20 54 -33
171 -29 255 5 102 33 175 76 199 38 20 161 20 168 0z"/>
<path d="M2257 3203 c-4 -3 46 -59 110 -122 70 -69 138 -148 168 -193 30 -47
57 -78 68 -78 33 0 21 28 -62 140 -70 95 -121 151 -194 212 -56 46 -76 56 -90
41z"/>
<path d="M2431 2532 c-19 -35 -12 -100 20 -211 17 -58 35 -120 40 -137 11 -38
30 -56 48 -45 10 7 8 23 -12 82 -39 118 -71 254 -64 272 9 24 56 22 165 -9 51
-15 95 -24 99 -21 27 28 -90 75 -208 84 -71 5 -78 4 -88 -15z"/>
<path d="M5182 458 c-194 -230 -389 -361 -575 -387 -41 -6 -96 -3 -171 7 -226
30 -511 16 -678 -33 -80 -23 -79 -45 2 -45 45 0 60 3 60 14 0 10 18 17 58 23
75 10 444 10 597 -1 201 -14 326 27 502 163 91 70 219 198 272 271 27 38 32
70 10 70 -4 0 -39 -37 -77 -82z"/>
</g>
</svg>
