<?xml version="1.0" standalone="no"?>
<!DOCTYPE svg PUBLIC "-//W3C//DTD SVG 20010904//EN"
 "http://www.w3.org/TR/2001/REC-SVG-20010904/DTD/svg10.dtd">
<svg version="1.0" xmlns="http://www.w3.org/2000/svg"
 width="668.000000pt" height="644.000000pt" viewBox="0 0 668.000000 644.000000"
 preserveAspectRatio="xMidYMid meet">

<g transform="translate(0.000000,644.000000) scale(0.100000,-0.100000)"
fill="#000000" stroke="none">
<path d="M3269 6415 c-3 -2 -50 -9 -105 -15 -187 -20 -168 -10 -195 -102 -18
-60 -30 -84 -49 -96 -14 -8 -68 -59 -120 -113 l-95 -99 -57 0 c-47 0 -59 4
-72 22 -18 26 -21 84 -6 124 6 15 8 29 6 31 -8 8 -114 -67 -146 -103 -69 -79
-85 -156 -58 -285 10 -50 9 -60 -5 -83 -10 -14 -24 -26 -31 -26 -13 0 -255
-120 -304 -151 -20 -13 -31 -9 -135 43 -61 31 -179 89 -260 128 l-148 71 -32
-23 c-136 -94 -436 -386 -555 -541 l-43 -56 35 -73 c19 -40 43 -89 54 -108 10
-19 54 -103 96 -186 l76 -152 -38 -63 c-22 -35 -58 -101 -82 -146 -24 -46 -46
-83 -50 -83 -21 0 -141 126 -164 172 -33 65 -33 97 1 200 30 95 37 221 15 275
-26 59 -136 81 -237 46 -68 -24 -155 -111 -179 -178 -29 -83 -31 -186 -6 -300
29 -134 35 -191 21 -199 -6 -4 -57 -14 -113 -22 -57 -9 -124 -25 -151 -36
-119 -52 -149 -164 -78 -298 l30 -58 -22 -43 c-28 -58 -35 -155 -13 -197 9
-17 36 -43 61 -58 49 -29 51 -33 31 -72 -34 -68 -23 -147 28 -214 25 -33 26
-41 26 -154 0 -65 7 -182 15 -259 8 -77 15 -145 15 -152 0 -14 16 -20 321
-118 l236 -77 31 -106 c59 -208 153 -432 248 -593 l53 -90 -130 -260 -130
-260 33 -42 c148 -192 452 -490 572 -561 l32 -19 257 128 257 128 47 -25 c122
-65 168 -90 178 -97 5 -5 46 -23 90 -41 167 -68 264 -102 380 -134 33 -10 71
-20 85 -24 22 -6 31 -27 83 -187 33 -99 62 -189 67 -200 4 -11 17 -45 29 -75
11 -31 21 -63 21 -71 0 -18 25 -24 148 -35 39 -4 72 -10 72 -14 0 -14 361 -11
460 3 52 8 113 15 135 16 56 2 74 6 84 17 5 5 33 81 61 169 82 252 112 339
121 357 5 10 28 22 52 29 179 48 234 66 402 136 109 45 255 119 307 155 14 10
32 18 38 18 12 0 460 -221 491 -242 9 -6 27 -8 40 -5 72 19 493 421 608 583
l24 34 -118 232 c-65 128 -125 246 -132 261 -14 26 -13 30 11 62 14 18 26 36
26 38 0 2 18 36 39 75 75 137 144 314 226 584 15 51 21 58 49 63 31 6 48 12
96 33 21 10 215 73 385 126 l40 13 13 104 c13 106 11 670 -3 734 -8 37 -22 55
-44 55 -9 0 -21 4 -26 9 -6 5 -64 25 -130 46 -66 20 -129 40 -140 45 -37 15
-170 58 -197 64 -20 5 -29 14 -34 34 -3 15 -9 38 -14 52 -5 14 -20 66 -35 115
-14 50 -30 99 -35 110 -5 11 -29 67 -54 125 -47 109 -100 216 -153 310 l-32
55 125 249 c68 138 124 257 124 266 0 9 -37 61 -82 116 -174 208 -510 511
-552 498 -12 -4 -130 -61 -265 -127 l-244 -121 -41 23 c-98 55 -271 141 -283
141 -7 0 -13 5 -13 10 0 6 -7 10 -15 10 -9 0 -35 9 -57 20 -23 11 -45 20 -50
20 -4 0 -32 9 -62 21 -47 17 -62 29 -101 84 -25 36 -76 89 -113 119 -37 29
-82 70 -100 90 -37 42 -102 175 -126 256 -25 84 -22 82 -143 92 -59 5 -122 13
-139 19 -30 9 -356 13 -365 4z m285 -114 c101 -72 127 -86 207 -106 106 -27
158 -61 209 -137 25 -36 81 -104 125 -150 90 -92 142 -172 181 -274 38 -97 44
-259 16 -395 -20 -99 -54 -189 -70 -189 -5 0 -15 21 -22 47 -24 99 -50 142
-133 218 -44 41 -85 75 -91 75 -5 0 20 29 56 64 98 95 107 147 42 249 -51 78
-115 93 -239 56 -195 -58 -185 -59 -239 28 -61 102 -142 163 -213 163 -29 0
-92 -34 -177 -95 -26 -19 -57 -35 -68 -35 -22 0 -60 19 -114 55 -75 51 -136
27 -239 -94 -40 -48 -89 -100 -109 -115 -112 -85 -204 -68 -262 49 -23 47 -26
64 -22 122 5 66 34 160 61 197 13 17 15 16 36 -18 51 -82 139 -108 224 -65 23
12 83 61 132 110 50 48 103 92 118 98 47 18 103 13 161 -16 29 -14 61 -23 70
-20 8 3 37 37 63 74 26 37 69 89 95 116 68 67 96 65 202 -12z m-514 -494 c67
-38 117 -39 216 -3 76 28 135 33 181 15 15 -5 55 -37 88 -69 89 -87 128 -96
265 -60 41 11 94 20 117 20 36 0 46 -5 73 -37 72 -88 62 -152 -37 -224 l-57
-43 49 -40 c28 -22 84 -74 125 -116 63 -63 79 -85 98 -142 13 -36 22 -79 20
-95 -3 -25 -8 -18 -47 57 -33 64 -64 106 -130 172 -48 49 -92 88 -99 88 -25 0
-10 -27 44 -80 68 -68 140 -163 189 -252 52 -95 38 -108 -19 -18 -27 41 -60
88 -75 104 -33 36 -120 106 -132 106 -26 0 0 -37 80 -117 80 -80 151 -178 151
-211 0 -7 -11 -17 -25 -22 -33 -13 -32 -23 11 -69 45 -51 58 -95 44 -156 -13
-60 -31 -93 -67 -127 -37 -36 -73 -48 -139 -48 l-54 0 -46 -72 c-62 -98 -242
-276 -311 -308 -29 -14 -53 -28 -53 -32 0 -16 82 -7 121 13 64 32 74 23 43
-38 -42 -86 -176 -183 -299 -219 -68 -20 -200 -23 -230 -7 -24 14 -14 19 51
26 43 5 114 34 114 46 0 4 -35 6 -77 3 -101 -5 -190 16 -311 73 -122 58 -199
114 -293 212 -159 166 -242 375 -256 639 -13 253 45 489 175 711 40 68 45 72
95 87 70 21 139 78 206 172 58 82 92 108 126 98 11 -4 45 -20 75 -37z m-541
-253 c2 -2 -6 -16 -18 -33 -12 -17 -31 -52 -43 -78 l-21 -48 -20 44 c-22 51
-25 111 -8 164 l13 38 46 -42 c26 -23 49 -44 51 -45z m-1790 -575 c59 -21 66
-78 24 -204 -20 -62 -26 -101 -27 -175 -1 -136 20 -170 191 -304 79 -61 128
-132 159 -230 41 -129 28 -235 -41 -351 l-35 -57 25 4 c24 5 25 3 25 -42 0
-152 -106 -308 -248 -364 -99 -38 -298 -37 -384 3 l-43 19 115 1 c275 3 390
51 390 165 0 20 -10 55 -21 79 l-21 44 36 53 c52 76 48 99 -32 182 l-46 48 26
27 c42 46 62 94 62 153 1 120 -96 210 -309 290 -83 31 -99 53 -140 198 -34
118 -33 249 4 323 56 116 182 176 290 138z m-194 -721 c105 -23 225 -101 251
-165 19 -45 18 -137 -2 -157 -23 -24 -55 -20 -178 20 -110 36 -112 36 -236 30
-69 -3 -150 -9 -181 -12 l-56 -6 -23 47 c-30 62 -32 124 -5 162 61 83 253 120
430 81z m3336 -143 c24 -9 46 -20 49 -25 3 -5 24 -16 45 -23 34 -12 40 -19 43
-45 4 -40 -37 -158 -80 -229 -64 -106 -246 -255 -375 -308 -32 -13 -94 -31
-137 -39 -43 -9 -86 -21 -96 -26 -72 -39 -141 -830 -111 -1288 6 -96 15 -182
21 -192 14 -27 34 -31 160 -37 195 -9 328 12 648 103 68 20 127 33 130 29 11
-11 4 -377 -7 -407 -12 -32 -69 -55 -240 -98 -375 -94 -789 -106 -1102 -31
-156 37 -392 126 -423 159 -32 36 -97 532 -70 532 4 0 51 -27 106 -61 106 -65
219 -118 255 -119 45 0 48 22 49 400 2 377 10 489 69 888 33 231 33 255 -5
299 -43 49 -78 122 -86 181 -8 66 3 162 21 168 8 3 40 -6 73 -21 48 -21 67
-38 99 -84 48 -67 99 -105 185 -136 138 -50 228 -41 388 38 125 61 200 140
268 280 29 59 59 107 66 107 7 0 33 -7 57 -15z m-2510 -130 c365 -75 503 -78
989 -24 171 18 311 24 322 13 3 -3 -1 -26 -8 -51 -19 -62 -18 -161 2 -220 9
-26 38 -81 65 -122 l50 -73 -30 -162 c-68 -357 -85 -568 -79 -981 4 -325 16
-300 -118 -235 -104 50 -219 127 -233 154 -6 12 -17 68 -25 126 -38 264 -44
487 -25 821 7 108 10 203 7 211 -9 23 -78 11 -78 -13 0 -18 -9 -19 -117 -19
-302 0 -503 74 -742 274 -30 25 -58 43 -63 40 -5 -3 -8 -2 -7 3 1 4 0 15 -4
23 -17 44 -58 240 -52 249 8 14 4 15 146 -14z m-148 -228 c28 -215 -44 -380
-229 -527 -71 -56 -79 -60 -127 -60 l-52 1 35 27 c175 135 238 243 261 449 6
59 20 120 35 154 13 31 24 66 24 77 0 11 3 29 7 39 10 25 31 -48 46 -160z
m-654 147 c36 -9 95 -30 130 -45 124 -56 168 -108 157 -183 -14 -85 -54 -94
-205 -45 -107 36 -184 41 -371 25 l-105 -8 -25 26 c-19 21 -25 40 -28 89 -4
57 -1 66 23 95 16 19 45 37 73 46 67 21 268 20 351 0z m-42 -314 c94 -12 182
-40 235 -75 30 -20 38 -32 38 -56 0 -90 -172 -142 -387 -118 -101 11 -151 28
-189 65 -27 25 -34 39 -34 70 0 74 36 102 144 114 105 11 105 11 193 0z m603
-304 c0 -2 -8 -10 -17 -17 -16 -13 -17 -12 -4 4 13 16 21 21 21 13z m177 -132
c-3 -3 -12 -4 -19 -1 -8 3 -5 6 6 6 11 1 17 -2 13 -5z m2798 -164 c3 -6 -1 -7
-9 -4 -18 7 -21 14 -7 14 6 0 13 -4 16 -10z m322 -1160 c77 -82 136 -111 241
-118 40 -2 75 -9 78 -14 3 -5 -15 -36 -40 -70 -63 -84 -73 -118 -49 -165 10
-20 35 -50 55 -66 36 -29 38 -29 63 -13 18 12 25 25 25 47 0 29 -2 30 -37 29
-21 -1 -44 -2 -50 -1 -20 2 -15 62 6 97 25 41 85 87 108 82 32 -6 68 -95 68
-168 -1 -67 -14 -104 -62 -167 l-24 -33 -107 0 c-165 1 -312 16 -333 36 -22
20 -72 137 -94 224 -12 45 -16 90 -13 147 4 69 10 93 42 158 23 47 41 73 48
69 7 -4 40 -38 75 -74z m-1926 -277 c35 -14 97 -36 138 -48 l75 -22 -2 -219
c-2 -191 -10 -374 -17 -374 -20 0 -195 74 -195 83 0 1 -9 49 -20 107 -23 119
-60 405 -60 462 0 21 4 38 8 38 5 0 37 -12 73 -27z"/>
<path d="M3406 5541 l-29 -19 34 -18 c19 -9 62 -44 96 -77 35 -33 63 -54 63
-46 0 29 -52 119 -86 149 -41 35 -41 35 -78 11z"/>
<path d="M2650 5514 c-22 -20 -40 -40 -40 -44 0 -4 26 6 57 22 32 16 66 27 75
24 21 -5 23 5 6 22 -22 22 -57 13 -98 -24z"/>
<path d="M2646 5287 c-49 -37 -58 -174 -14 -213 19 -18 20 -18 49 14 25 28 29
40 29 92 0 89 -27 134 -64 107z"/>
<path d="M3027 5264 c-4 -4 -24 -44 -46 -88 -26 -54 -62 -106 -109 -156 -101
-110 -101 -110 -58 -180 20 -32 36 -63 36 -69 0 -18 37 -31 69 -25 17 4 31 9
31 13 0 3 -16 31 -35 61 -19 30 -35 66 -35 80 0 32 25 86 83 179 46 73 82 161
75 182 -2 5 -7 7 -11 3z"/>
<path d="M3344 5220 c-100 -18 -104 -24 -29 -48 67 -23 158 -75 184 -106 18
-22 31 -5 31 41 0 95 -64 134 -186 113z"/>
<path d="M3900 5030 c0 -5 12 -17 27 -27 38 -26 99 -85 105 -103 3 -8 9 -12
13 -8 8 8 -22 58 -59 99 -35 40 -86 63 -86 39z"/>
<path d="M3895 4910 c-4 -6 9 -29 29 -50 20 -22 36 -45 36 -50 0 -6 5 -10 10
-10 6 0 8 14 5 33 -9 54 -14 64 -41 75 -30 15 -31 15 -39 2z"/>
<path d="M3290 4719 c13 -45 -1 -64 -67 -89 -129 -49 -203 -63 -333 -64 -102
0 -140 4 -205 22 -91 26 -105 35 -105 68 0 39 -16 36 -59 -11 -53 -58 -56
-101 -8 -171 37 -56 57 -66 57 -32 0 14 3 27 6 30 3 4 41 -16 85 -42 105 -64
184 -90 274 -90 103 0 173 21 329 100 86 43 143 67 149 61 5 -5 12 -30 15 -56
6 -55 15 -49 36 24 36 121 19 163 -95 239 -76 52 -91 54 -79 11z m74 -115 c42
-16 -11 -67 -133 -128 -189 -95 -364 -98 -552 -10 -43 20 -88 47 -99 60 l-22
22 21 12 c17 8 44 6 123 -11 85 -18 121 -21 237 -16 115 4 155 11 261 40 138
39 142 40 164 31z"/>
<path d="M2802 4279 c6 -20 87 -59 123 -59 35 0 75 24 75 46 0 11 -17 14 -77
14 -43 0 -89 3 -102 7 -18 4 -23 2 -19 -8z"/>
</g>
</svg>
