<?xml version="1.0" standalone="no"?>
<!DOCTYPE svg PUBLIC "-//W3C//DTD SVG 20010904//EN"
 "http://www.w3.org/TR/2001/REC-SVG-20010904/DTD/svg10.dtd">
<svg version="1.0" xmlns="http://www.w3.org/2000/svg"
 width="2031.000000pt" height="2833.000000pt" viewBox="0 0 2031.000000 2833.000000"
 preserveAspectRatio="xMidYMid meet">

<g transform="translate(0.000000,2833.000000) scale(0.100000,-0.100000)"
fill="#000000" stroke="none">
<path d="M7081 28278 c-15 -52 -47 -91 -126 -150 -33 -25 -71 -58 -84 -72 -37
-39 -46 -33 -48 35 -3 71 -20 142 -33 134 -5 -3 -7 -12 -4 -20 4 -8 -4 -34
-16 -57 -13 -24 -31 -68 -42 -98 -27 -80 -84 -133 -181 -171 -44 -16 -81 -28
-83 -26 -3 2 2 17 11 33 18 35 19 97 4 162 -17 68 -29 74 -29 15 0 -41 -6 -60
-36 -104 -49 -72 -92 -107 -167 -134 -69 -26 -230 -60 -322 -70 -53 -6 -62
-10 -77 -36 -25 -43 -43 -45 -79 -10 -17 18 -41 31 -55 31 -13 0 -46 9 -74 19
-31 12 -64 17 -88 14 -82 -10 -369 89 -456 159 -44 35 -100 52 -115 34 -5 -6
-15 -39 -20 -71 -6 -33 -15 -79 -20 -103 -7 -34 -5 -50 11 -82 13 -25 23 -76
29 -137 14 -160 12 -188 -15 -220 -12 -15 -21 -33 -19 -40 3 -7 -17 -18 -50
-28 -30 -8 -61 -21 -71 -28 -20 -14 -34 -87 -17 -87 6 0 11 -7 11 -17 0 -15 1
-15 18 0 10 10 22 17 27 17 5 0 -22 -29 -60 -64 -66 -61 -71 -64 -132 -71 -52
-5 -67 -11 -79 -30 -9 -13 -13 -29 -10 -34 4 -5 2 -12 -3 -15 -5 -3 -7 -15 -4
-26 3 -12 -4 -34 -18 -54 -31 -45 -172 -102 -277 -112 -99 -8 -112 -20 -122
-115 -5 -41 -10 -123 -12 -183 l-3 -107 50 -46 c28 -25 84 -79 126 -119 43
-41 82 -74 88 -74 6 0 11 -5 11 -11 0 -5 4 -8 9 -5 4 3 53 -17 108 -45 152
-76 189 -120 270 -333 74 -194 74 -195 69 -371 -5 -147 -10 -189 -30 -252 -12
-39 8 -25 33 22 56 106 63 20 21 -258 -11 -71 -22 -132 -25 -137 -3 -4 -25
-95 -50 -201 -57 -244 -106 -425 -138 -511 -42 -115 1 -84 118 87 57 83 143
175 203 216 56 40 56 42 -15 -236 -19 -74 -27 -136 -31 -241 -5 -156 1 -187
65 -319 58 -119 67 -153 68 -252 1 -51 4 -95 8 -99 4 -4 7 -14 7 -23 0 -9 13
-42 29 -74 26 -52 28 -65 23 -120 -15 -144 12 -511 40 -544 19 -23 9 -363 -12
-403 -4 -8 -11 -37 -14 -65 -4 -27 -9 -57 -11 -65 -2 -8 -6 -36 -10 -62 -9
-78 -49 -181 -92 -239 -22 -30 -56 -84 -77 -121 -21 -38 -42 -68 -47 -68 -5 0
-9 -6 -9 -14 0 -8 -6 -21 -14 -28 -7 -8 -16 -23 -20 -34 -3 -12 -18 -27 -31
-34 -14 -7 -25 -22 -25 -33 0 -33 -69 -124 -126 -167 -29 -22 -56 -40 -59 -40
-4 0 -21 -11 -38 -24 -26 -19 -49 -25 -119 -29 -48 -3 -97 -11 -108 -17 -11
-6 -29 -30 -41 -53 -28 -55 -111 -167 -147 -198 -15 -13 -49 -50 -74 -82 -65
-80 -78 -134 -81 -321 l-2 -152 -58 -115 c-32 -63 -81 -145 -110 -184 -54 -72
-141 -214 -168 -275 -9 -19 -26 -55 -37 -80 -12 -25 -24 -61 -28 -80 -3 -19
-9 -44 -14 -55 -15 -39 -40 -132 -40 -151 0 -11 -7 -29 -15 -40 -8 -12 -12
-24 -9 -27 3 -3 -2 -19 -10 -36 -9 -16 -16 -42 -16 -57 0 -44 -35 -104 -100
-174 -33 -36 -70 -84 -81 -106 -21 -45 -37 -128 -40 -209 -1 -27 -9 -87 -19
-132 -10 -45 -15 -85 -12 -88 3 -3 0 -5 -6 -5 -6 0 -10 -12 -10 -27 0 -48 -30
-169 -53 -214 -13 -24 -24 -46 -24 -49 -6 -20 -20 -53 -45 -100 -49 -95 -62
-200 -64 -510 -1 -262 14 -534 33 -610 5 -19 14 -62 21 -95 8 -33 27 -85 43
-115 52 -93 57 -105 57 -119 0 -8 5 -28 11 -45 10 -28 8 -36 -25 -86 -20 -30
-36 -59 -36 -65 0 -5 -20 -44 -43 -86 -69 -120 -121 -253 -168 -434 -6 -22
-14 -53 -19 -70 -5 -16 -12 -55 -16 -85 -3 -30 -10 -60 -15 -66 -5 -6 -7 -13
-4 -16 3 -2 -7 -63 -21 -134 -14 -71 -27 -151 -30 -179 -3 -27 -9 -86 -14
-130 -5 -44 -12 -154 -16 -245 -3 -91 -9 -181 -13 -200 -5 -20 -5 -45 -1 -55
7 -20 6 -44 -5 -120 -13 -91 -15 -117 -22 -280 -3 -93 -6 -179 -7 -190 0 -39
14 -193 19 -207 4 -9 -8 -31 -31 -54 -58 -61 -124 -144 -141 -178 -9 -17 -19
-33 -23 -36 -13 -9 -76 -125 -92 -170 -10 -25 -24 -83 -33 -130 -8 -47 -19
-98 -24 -115 -42 -142 -65 -215 -76 -240 -7 -16 -19 -46 -28 -65 -24 -56 -29
-87 -32 -220 -3 -79 1 -148 10 -189 7 -35 10 -71 7 -80 -3 -8 -31 -42 -61 -74
-89 -94 -91 -97 -91 -102 0 -3 -22 -32 -49 -65 -56 -68 -88 -130 -131 -260
-17 -51 -35 -101 -41 -111 -5 -10 -11 -39 -14 -65 -2 -25 -12 -56 -22 -67 -14
-17 -14 -19 -1 -9 15 12 15 9 8 -25 -5 -21 -17 -43 -26 -50 -10 -7 -18 -21
-19 -32 -1 -11 -8 -28 -16 -38 -13 -16 -13 -17 4 -4 15 12 17 11 17 -3 0 -9
-4 -16 -9 -16 -14 0 -20 -37 -7 -50 8 -9 8 -11 -3 -8 -9 2 -14 -11 -16 -45 -2
-27 -6 -51 -9 -54 -3 -4 -6 -1 -6 5 0 7 -4 12 -9 12 -9 0 -5 -45 5 -61 3 -5
-4 -14 -16 -21 -11 -7 -20 -23 -20 -34 0 -12 -18 -52 -41 -89 -42 -69 -46 -94
-26 -174 5 -17 -2 -34 -22 -60 -28 -36 -76 -147 -85 -196 -7 -36 -44 -107
-111 -209 -40 -63 -122 -146 -184 -188 -43 -30 -124 -91 -146 -111 -10 -9 162
-1 198 9 40 12 15 -27 -92 -141 -44 -47 -99 -140 -89 -151 3 -2 39 12 81 32
42 20 81 34 88 32 6 -2 -17 -42 -52 -88 -34 -47 -71 -99 -82 -117 l-19 -32 31
-19 30 -18 -27 -34 c-14 -19 -44 -55 -66 -80 -49 -54 -131 -178 -123 -186 3
-3 27 -1 54 4 26 6 49 9 50 8 2 -2 -17 -43 -42 -93 -38 -73 -48 -104 -54 -169
-10 -92 -41 -204 -81 -289 -81 -172 -112 -235 -141 -283 -33 -56 -31 -58 36
-42 46 10 50 9 37 -17 -6 -10 -29 -58 -53 -108 -60 -125 -117 -203 -237 -323
-57 -57 -102 -105 -100 -107 2 -2 30 7 63 21 116 49 185 74 185 67 0 -4 -24
-38 -53 -77 -30 -39 -64 -87 -77 -106 -13 -19 -41 -56 -63 -82 -33 -41 -36
-48 -19 -48 20 0 81 22 115 40 20 12 20 8 6 -42 -5 -21 -14 -38 -19 -38 -6 0
-9 -3 -8 -7 1 -5 -8 -27 -20 -50 -29 -56 -28 -67 4 -59 l26 7 -7 -58 c-3 -32
-8 -73 -11 -92 -4 -28 -3 -33 10 -28 21 8 21 3 -13 -89 -16 -43 -32 -95 -36
-114 -4 -19 -24 -57 -45 -85 -59 -80 -89 -147 -110 -252 -11 -52 -32 -313 -30
-377 1 -35 -5 -46 -52 -93 -56 -56 -55 -66 2 -32 48 30 139 79 146 79 3 0 3
-3 0 -8 -17 -28 -119 -402 -112 -409 3 -3 18 9 33 27 15 19 53 61 85 94 l57
61 -5 -40 c-17 -128 -82 -344 -142 -475 -59 -130 -122 -323 -109 -336 3 -3 19
21 37 54 17 33 47 75 67 93 35 33 35 33 31 9 -21 -106 -93 -383 -108 -415 -28
-61 -70 -167 -70 -179 0 -6 -18 -49 -40 -96 -80 -174 -137 -315 -128 -319 27
-10 238 146 330 243 32 34 58 54 58 46 0 -49 -83 -393 -148 -610 -14 -47 -27
-92 -28 -100 -10 -53 -39 -171 -83 -339 -28 -107 -51 -202 -51 -212 0 -45 -85
-329 -99 -329 -3 0 -7 -11 -7 -24 -2 -23 -39 -132 -69 -201 -29 -66 -44 -105
-40 -105 17 0 130 50 166 74 68 46 166 128 178 151 9 17 10 14 6 -15 -3 -19
-8 -75 -11 -125 -5 -74 -11 -102 -37 -154 -18 -35 -42 -70 -54 -78 -22 -15
-73 -128 -73 -163 0 -10 5 -22 11 -25 19 -12 91 48 145 122 70 94 84 95 85 3
1 -38 3 -74 4 -80 1 -5 3 -28 4 -50 0 -22 6 -40 11 -40 6 0 27 25 46 56 41 64
43 63 68 -32 18 -70 21 -219 6 -279 -17 -67 -42 -149 -49 -160 -10 -17 -40
-110 -36 -113 2 -3 54 18 87 36 5 2 8 -24 8 -57 0 -70 -22 -130 -94 -255 -25
-44 -43 -83 -40 -87 5 -9 89 18 122 39 l23 15 -6 -59 c-3 -32 -10 -86 -15
-119 -15 -95 -17 -144 -9 -240 4 -49 10 -135 14 -190 7 -112 12 -162 21 -217
4 -26 -1 -55 -15 -93 -12 -31 -21 -72 -22 -93 0 -32 -36 -227 -67 -372 -19
-84 0 -70 95 70 61 91 94 177 126 330 l24 115 1 -115 c1 -63 -3 -153 -9 -200
-16 -136 -17 -149 -24 -270 -3 -63 -8 -127 -11 -142 l-6 -28 1881 0 1881 0 -5
53 c-9 89 -25 330 -25 380 0 26 5 47 10 47 6 0 10 -11 10 -25 0 -14 14 -71 30
-127 17 -56 28 -108 26 -114 -2 -6 0 -16 4 -20 5 -5 17 -51 27 -102 l18 -92
2323 0 c1444 0 2322 4 2322 9 0 6 -4 12 -9 16 -14 8 -43 103 -36 115 4 7 19
-3 37 -24 17 -20 34 -33 39 -30 28 17 -14 213 -91 429 -15 44 -40 118 -55 165
-14 47 -28 92 -31 100 -4 12 -3 12 8 -1 22 -27 109 -89 124 -89 18 0 18 49 0
143 -8 40 -20 106 -27 147 -6 41 -15 85 -20 97 -12 33 2 35 61 6 109 -52 184
-114 258 -213 104 -140 158 -177 287 -200 28 -5 61 -12 75 -15 14 -3 61 -8
105 -12 93 -7 172 10 263 56 138 70 301 245 327 353 l7 27 -114 3 -113 3 3 85
c3 77 1 92 -28 160 -18 41 -45 97 -60 125 -15 27 -38 80 -49 116 -26 80 -83
177 -134 228 -44 45 -59 97 -31 108 35 12 109 74 147 121 39 49 117 198 117
223 0 8 4 19 9 25 14 13 42 160 35 178 -3 9 -1 16 5 16 6 0 11 -5 11 -11 0 -6
7 -9 15 -5 8 3 18 -1 23 -9 13 -25 180 -25 312 0 19 4 47 8 63 10 15 2 31 6
36 9 8 5 18 -25 56 -159 13 -48 22 -112 45 -330 5 -55 8 -163 5 -240 -3 -77
-5 -153 -5 -169 0 -15 -5 -34 -11 -42 -6 -7 -8 -17 -5 -23 4 -5 -1 -17 -10
-25 -8 -9 -11 -16 -5 -16 18 0 13 -18 -6 -25 -10 -3 -26 -22 -35 -43 -10 -20
-42 -66 -71 -102 -49 -59 -103 -147 -98 -160 1 -3 -1 -30 -5 -60 -4 -30 -7
-113 -6 -185 l0 -130 -43 -45 c-23 -25 -55 -64 -69 -87 -14 -24 -32 -43 -38
-43 -7 0 -31 18 -54 41 l-42 41 -36 -64 c-20 -36 -45 -90 -55 -120 -10 -30
-26 -68 -34 -84 -44 -87 -83 -347 -57 -379 11 -13 116 -15 786 -15 l773 0 81
71 c44 40 80 75 80 79 0 3 35 42 78 86 42 43 84 90 93 104 38 61 84 208 95
300 1 14 8 59 14 100 6 41 14 101 19 132 8 61 7 183 -4 313 -7 92 -8 289 -1
323 3 13 8 60 11 104 3 45 10 99 15 122 5 23 11 57 13 76 2 29 4 31 11 15 4
-11 14 -31 21 -45 8 -14 20 -53 28 -85 8 -33 23 -87 32 -120 47 -169 92 -368
100 -445 2 -19 9 -62 15 -95 6 -33 14 -75 17 -92 6 -36 -7 -77 -46 -138 -92
-148 -122 -244 -104 -336 12 -61 17 -266 7 -292 -9 -25 -17 -22 -62 24 l-40
42 -36 -49 c-42 -57 -71 -116 -79 -161 l-6 -33 758 0 758 0 13 25 c7 14 17 25
22 25 4 0 8 5 8 11 0 6 21 41 48 77 69 98 92 141 103 195 9 50 12 182 5 227
-2 14 -9 66 -15 115 -23 176 -57 307 -109 410 -38 76 -59 148 -87 304 -26 146
-29 231 -9 238 7 2 26 -22 44 -54 55 -98 136 -198 194 -236 65 -43 126 -105
166 -168 38 -58 77 -76 195 -91 51 -7 93 -14 93 -17 -1 -3 1 -13 5 -21 3 -8 7
-32 9 -52 3 -29 0 -39 -17 -48 -13 -7 -14 -9 -2 -6 20 6 24 -20 5 -26 -7 -3
-13 -13 -13 -24 0 -10 -6 -18 -12 -16 -7 1 -13 -3 -13 -9 0 -6 -10 -25 -23
-42 -28 -41 -57 -104 -57 -128 0 -10 -4 -20 -9 -23 -5 -3 -12 -23 -16 -43 -13
-68 -15 -78 -21 -103 -4 -14 -9 -70 -13 -125 -9 -146 19 -282 69 -337 17 -18
30 -38 30 -45 0 -10 96 -13 471 -13 l471 0 -5 53 c-3 28 -11 70 -18 92 -7 25
-9 66 -5 110 4 39 7 77 7 85 1 8 9 60 19 115 10 55 22 125 25 155 8 65 18 80
54 80 14 0 55 9 89 20 35 11 76 20 92 20 40 0 74 32 122 113 23 40 44 74 47
77 9 7 35 64 33 72 -1 4 11 17 26 30 16 13 27 29 25 35 -3 7 4 9 16 6 24 -6
29 12 6 21 -13 5 -14 9 -3 28 7 13 14 30 16 38 12 59 13 125 3 204 -15 119
-22 454 -11 531 33 222 32 423 0 537 -6 21 -44 80 -84 131 -40 52 -85 116
-100 143 -35 64 -77 111 -110 124 -32 12 -128 27 -211 34 -58 5 -274 75 -302
97 -7 6 -13 9 -13 6 0 -12 -122 35 -150 58 -8 7 -49 27 -90 46 -83 37 -253
160 -300 217 -39 48 -62 118 -55 168 9 57 -16 89 -138 179 l-105 78 -6 91 c-3
50 -5 194 -5 319 l0 228 42 -38 c23 -20 60 -56 82 -79 62 -64 353 -289 363
-280 4 4 -33 68 -65 113 -8 13 -12 23 -7 23 15 0 150 -188 221 -307 36 -62 69
-111 71 -108 11 11 -143 355 -181 403 -5 7 -8 15 -5 17 7 8 175 -135 483 -409
122 -109 256 -198 269 -178 2 4 -17 44 -44 87 -26 44 -46 82 -44 84 2 3 30
-13 61 -35 62 -42 191 -190 279 -319 56 -83 146 -211 247 -350 9 -13 28 15 20
30 -4 6 -3 7 4 0 5 -5 16 -30 23 -55 8 -25 17 -50 21 -55 4 -6 10 -22 13 -35
2 -14 14 -52 26 -85 37 -103 42 -134 26 -154 -8 -11 -8 -13 0 -8 7 4 17 0 24
-8 10 -12 10 -18 0 -30 -9 -11 -9 -22 -2 -45 6 -16 7 -30 2 -30 -4 0 -10 6
-13 13 -2 6 -8 9 -12 5 -11 -10 15 -39 28 -31 6 4 8 0 4 -10 -3 -10 -3 -17 1
-17 5 0 6 -17 4 -38 -4 -29 -6 -33 -12 -17 -4 11 -6 23 -3 27 2 5 -3 18 -11
30 -13 19 -16 20 -16 5 0 -10 7 -33 15 -53 14 -34 15 -37 15 -51 0 -5 5 -1 11
7 9 12 10 12 5 -3 -3 -10 -6 -30 -6 -43 0 -14 -4 -23 -9 -20 -5 4 -7 -3 -4
-15 4 -15 8 -17 14 -8 10 17 15 11 22 -28 4 -19 2 -33 -3 -33 -6 0 -10 -5 -10
-11 0 -5 5 -7 10 -4 6 3 10 1 10 -4 0 -6 -7 -11 -16 -11 -8 0 -12 -5 -9 -10 4
-6 15 -8 25 -5 17 5 18 3 8 -31 -7 -26 -7 -44 1 -61 14 -30 14 -63 1 -63 -5 0
-10 -5 -10 -11 0 -5 5 -7 12 -3 7 5 8 3 3 -6 -4 -7 -2 -16 6 -21 10 -6 11 -9
2 -9 -7 0 -13 -5 -13 -11 0 -6 7 -8 16 -5 13 5 14 3 6 -7 -7 -8 -8 -26 -2 -52
5 -21 7 -42 4 -46 -2 -4 2 -10 8 -13 10 -5 10 -7 1 -12 -7 -3 -13 -13 -13 -22
0 -14 2 -15 10 -2 11 18 15 13 24 -25 6 -29 6 -29 -9 -10 -15 19 -16 16 -11
-35 2 -30 6 -55 7 -55 2 0 6 -37 10 -97 2 -29 7 -44 14 -40 5 3 4 -2 -3 -11
-8 -9 -10 -22 -6 -29 7 -11 15 -69 15 -111 0 -9 7 -17 14 -17 18 0 14 -62 -4
-68 -6 -2 -11 -8 -11 -13 0 -4 6 -6 13 -3 8 3 14 -2 14 -10 0 -8 -5 -13 -10
-9 -5 3 -6 -10 -3 -33 4 -22 9 -79 12 -129 3 -54 10 -92 17 -97 9 -6 9 -8 -2
-8 -10 0 -12 -10 -7 -44 4 -27 3 -47 -3 -51 -17 -10 15 -62 46 -77 36 -17 49
-69 63 -238 6 -69 13 -138 15 -155 3 -16 10 -119 17 -227 l12 -198 222 0 c204
0 223 1 227 18 4 16 5 16 6 0 1 -16 13 -18 96 -18 68 0 97 4 99 13 11 38 48
317 64 472 15 155 18 225 12 355 l-1 25 -10 -24 c-14 -34 -27 -171 -16 -171 9
0 4 -43 -24 -205 -40 -230 -57 -293 -44 -157 5 54 4 72 -5 72 -9 0 -11 10 -7
33 3 17 15 85 26 151 12 65 23 171 26 235 3 64 8 136 12 161 5 39 7 42 14 20
6 -22 7 -20 8 13 1 21 6 37 13 37 9 0 9 3 0 12 -14 14 -16 32 -2 23 5 -3 7 0
4 8 -8 21 15 176 32 211 12 29 13 23 9 -69 -3 -75 -2 -93 6 -70 10 31 14 149
5 164 -3 5 -1 37 4 72 24 170 36 217 53 200 7 -7 6 -34 -3 -88 -12 -77 -22
-278 -13 -269 3 2 11 42 18 88 8 46 18 99 22 118 5 19 9 44 8 55 0 25 16 37
32 23 19 -16 17 -35 -18 -178 -33 -135 -70 -293 -79 -335 -15 -73 -40 -218
-40 -233 0 -8 20 7 45 31 25 25 45 51 45 59 0 10 3 9 10 -2 8 -13 9 -13 14 0
12 38 17 101 16 198 0 111 19 241 52 347 l18 60 -4 -45 c-2 -25 -13 -82 -24
-126 -12 -45 -23 -119 -25 -165 -5 -104 9 -72 22 50 12 105 31 192 41 186 5
-3 12 9 15 27 4 18 13 41 20 51 12 17 13 17 20 0 5 -10 7 -24 6 -30 -1 -7 3
-13 8 -13 6 0 8 -7 5 -15 -5 -11 -2 -13 12 -8 14 5 16 3 11 -11 -4 -10 -3 -15
3 -11 5 3 16 -6 22 -22 16 -35 158 -275 192 -326 14 -20 30 -37 35 -37 10 0 5
54 -8 78 -5 10 -12 36 -15 58 -6 38 -17 92 -31 144 -6 22 -5 21 10 -5 9 -16
30 -79 45 -140 16 -60 36 -135 45 -165 28 -99 63 -244 70 -285 11 -73 47 -269
57 -307 11 -45 28 -50 28 -8 0 17 4 30 9 30 18 0 53 -124 77 -269 7 -46 15
-85 17 -87 2 -2 475 -3 1050 -2 l1047 3 -42 63 c-22 34 -38 65 -36 68 3 3 34
-12 69 -34 35 -21 94 -53 130 -70 59 -28 77 -32 150 -32 l84 1 -145 142 c-149
147 -217 222 -282 311 -20 28 -43 58 -51 66 -8 9 -17 48 -20 96 -11 146 -85
336 -182 463 -60 79 -173 198 -229 241 -25 19 -45 38 -46 41 0 3 79 3 176 1
117 -3 179 -1 186 6 8 8 3 13 -18 18 -16 4 -87 29 -159 57 -71 27 -168 62
-215 79 -47 17 -88 35 -92 42 -4 6 -8 8 -8 3 0 -12 -59 21 -131 74 -60 44
-196 185 -188 194 2 1 36 -12 75 -31 106 -50 174 -65 297 -64 60 0 116 4 125
10 12 7 -7 9 -64 10 -91 0 -231 35 -299 74 -22 13 -71 40 -109 61 -79 42 -169
109 -205 151 -13 16 -33 40 -45 53 l-21 24 23 -12 c12 -6 22 -16 22 -21 0 -6
3 -9 8 -8 7 2 48 -18 66 -34 58 -48 107 -68 343 -143 7 -2 15 0 17 4 3 4 -50
34 -117 66 -138 66 -325 181 -371 228 -18 19 -15 19 206 13 124 -3 228 -3 232
1 3 4 -24 16 -61 28 -122 39 -231 104 -320 189 -29 28 -53 54 -53 58 0 4 -10
18 -22 30 -32 32 -10 33 93 4 49 -14 92 -26 94 -26 12 0 3 16 -14 25 -282 144
-365 187 -402 211 -24 16 -53 33 -64 39 -111 61 -142 80 -156 91 -8 8 -19 14
-24 14 -18 0 -144 82 -149 97 -6 14 1 15 51 9 103 -12 477 -18 503 -8 25 9 25
10 -10 20 -79 23 -305 104 -310 111 -3 4 -25 13 -50 20 -25 7 -55 19 -68 27
-49 32 -163 91 -273 143 -37 18 -69 39 -71 49 -3 11 -22 23 -47 30 -23 7 -39
17 -36 22 3 4 -4 6 -14 3 -23 -6 -71 24 -71 43 0 8 -4 14 -10 14 -5 0 -10 -4
-10 -10 0 -5 -4 -10 -9 -10 -12 0 -20 59 -8 63 5 1 10 44 10 94 1 50 5 89 10
86 4 -2 8 17 9 44 4 130 7 162 16 180 10 19 24 113 37 248 4 39 9 79 12 90 2
11 5 36 7 55 9 113 20 197 27 211 11 21 18 81 25 189 2 47 6 96 8 110 6 40 21
224 19 238 0 6 4 12 9 12 6 0 5 6 -2 15 -10 12 -9 15 6 16 11 0 14 3 7 6 -7 2
-13 13 -13 23 0 10 -5 22 -10 25 -6 4 -8 11 -5 16 4 5 2 9 -4 9 -14 0 -9 38 5
44 7 3 10 -3 7 -15 -3 -11 0 -19 6 -19 7 0 10 -3 8 -7 -3 -5 8 -8 24 -8 22 0
29 5 29 20 0 11 -4 16 -8 10 -4 -5 -15 -11 -24 -13 -24 -4 -24 28 0 34 20 6
24 56 4 75 -15 16 -16 29 -1 29 5 0 7 -4 4 -10 -3 -5 1 -10 9 -10 10 0 13 6
10 15 -4 8 -13 15 -21 15 -10 0 -14 7 -10 20 3 13 -1 21 -14 25 -27 9 -13 26
19 23 24 -3 27 0 24 22 -2 14 -8 27 -13 28 -13 5 -11 62 1 62 7 0 7 6 1 18 -7
13 -6 23 1 30 7 7 8 12 2 12 -5 0 -3 4 5 9 14 9 20 89 7 109 -4 7 -5 16 -2 21
6 10 17 177 17 264 0 32 4 57 10 57 7 0 8 15 4 42 -6 33 -5 40 7 35 11 -4 14
4 13 39 -1 25 2 47 7 50 5 3 6 14 3 24 -3 10 -1 21 4 25 16 9 9 105 -6 105 -7
0 -13 5 -13 10 0 6 9 10 21 10 11 0 18 4 14 10 -3 5 -12 7 -20 3 -21 -8 -19
24 3 36 14 8 14 10 2 11 -20 0 -15 80 5 80 8 0 12 8 10 20 -2 11 0 20 6 20 19
0 8 28 -13 33 -18 5 -19 8 -8 22 10 12 15 13 21 3 4 -7 11 -10 14 -6 4 3 -3
16 -14 27 -13 13 -16 23 -10 27 6 4 16 0 21 -7 6 -9 7 -3 3 18 -4 21 -3 33 4
33 6 0 11 9 11 20 0 11 -7 20 -15 20 -8 0 -15 5 -15 11 0 5 -5 7 -12 3 -7 -4
-8 -3 -4 5 4 6 17 9 29 6 12 -3 7 3 -12 13 -32 18 -30 39 3 26 23 -9 39 5 25
22 -7 9 -8 14 -1 14 6 0 10 9 9 20 -1 14 -8 20 -24 20 -13 0 -23 6 -23 14 0 9
9 13 25 11 20 -2 25 2 25 21 0 13 -6 24 -12 24 -9 0 -8 4 2 10 13 9 13 11 0
20 -13 8 -12 10 4 10 14 0 17 5 12 25 -4 16 -2 25 5 25 8 0 8 5 -1 15 -7 9
-21 13 -31 10 -24 -8 -46 40 -29 60 8 9 8 15 0 20 -6 3 -7 12 -3 18 4 7 6 22
5 34 -3 17 3 24 25 29 34 9 63 34 39 34 -9 0 -16 -4 -16 -10 0 -5 -4 -10 -10
-10 -5 0 -10 9 -10 19 0 11 -6 21 -12 24 -9 3 -7 10 7 21 16 13 17 15 3 10
-10 -4 -18 -1 -18 5 0 17 26 24 48 12 16 -9 21 -7 25 9 3 11 0 23 -5 27 -7 3
-8 1 -4 -5 5 -8 0 -12 -13 -12 -28 0 -26 12 4 38 26 22 33 42 15 42 -5 0 -10
5 -10 10 0 6 6 10 14 10 17 0 14 32 -4 38 -7 3 -10 0 -6 -6 4 -6 -2 -8 -14 -5
-11 3 -20 9 -20 14 0 5 -5 8 -11 6 -6 -1 -14 4 -16 11 -3 6 1 12 7 12 10 0 10
3 1 14 -9 11 -8 14 6 12 10 0 18 6 18 14 0 8 5 18 10 22 6 4 -3 8 -20 9 -16 0
-24 3 -17 6 6 2 10 9 7 14 -3 5 -1 17 4 28 8 14 7 22 -3 30 -16 13 -9 74 8 64
6 -4 5 1 -3 10 -8 10 -11 20 -7 24 3 3 6 1 6 -6 0 -7 5 -9 10 -6 6 4 7 13 1
23 -4 9 -6 23 -3 31 3 9 0 11 -9 6 -11 -6 -11 -5 -2 5 10 11 15 11 27 0 9 -7
13 -16 10 -21 -3 -5 -1 -9 4 -9 21 0 19 14 -8 43 -16 17 -26 35 -23 40 3 5 11
0 17 -11 8 -16 15 -18 29 -11 21 12 23 31 2 23 -11 -5 -17 3 -21 25 -4 17 -13
31 -21 31 -8 0 -11 -4 -8 -10 3 -5 1 -10 -5 -10 -7 0 -9 8 -4 23 8 27 4 23 33
32 16 5 21 4 17 -4 -4 -6 -2 -11 5 -11 7 0 9 8 4 23 -3 12 -7 27 -7 34 -1 6
-8 9 -16 6 -11 -5 -11 -7 -1 -14 8 -4 10 -11 7 -14 -11 -11 -43 18 -46 42 -2
16 5 26 26 37 35 18 59 44 40 43 -54 -2 -58 2 -58 48 0 39 3 45 21 45 13 0 18
-4 13 -12 -5 -9 -2 -9 9 1 18 14 23 26 7 16 -11 -7 -50 30 -50 48 0 17 54 69
63 60 4 -3 7 -1 7 5 0 17 -15 15 -30 -3 -18 -22 -25 -18 -28 15 -1 17 2 30 8
30 13 0 13 37 1 45 -6 3 -9 95 -9 215 1 184 3 210 17 213 13 4 13 5 1 6 -11 1
-16 13 -16 46 -1 25 3 45 8 45 5 0 7 4 4 8 -11 18 -14 62 -4 62 6 0 7 7 3 17
-4 10 -9 167 -12 348 -8 607 -13 799 -23 957 -6 86 -10 196 -9 245 2 113 -9
304 -27 463 -7 69 -14 159 -14 200 0 41 -4 91 -10 109 -9 32 -21 136 -36 301
-3 36 -10 94 -15 130 -5 36 -16 137 -24 225 -9 88 -18 176 -21 195 -2 19 -13
109 -24 200 -11 91 -27 203 -35 250 -15 83 -22 131 -84 575 -17 121 -38 258
-47 305 -9 47 -20 112 -24 145 -5 33 -15 89 -23 125 -8 36 -23 117 -32 180 -9
63 -30 174 -45 245 -16 72 -38 180 -50 240 -11 61 -23 121 -26 135 -13 68 -16
87 -18 115 0 17 -4 32 -7 35 -4 3 -9 25 -13 50 -6 51 -8 59 -24 115 -6 22 -22
96 -36 165 -15 69 -35 158 -46 198 -10 40 -31 128 -45 196 -14 68 -32 143 -40
166 -8 24 -13 45 -10 48 3 3 1 10 -4 16 -5 6 -23 63 -41 126 -36 129 -77 263
-91 298 -5 13 -7 27 -4 32 3 5 1 11 -4 14 -5 4 -15 32 -21 64 -7 31 -23 80
-36 108 -13 28 -25 64 -28 80 -2 16 -7 37 -11 46 -4 9 -4 22 0 28 3 5 2 10 -4
10 -5 0 -16 21 -24 48 -8 26 -33 99 -55 162 -38 108 -43 138 -21 125 5 -4 9
-2 9 4 0 5 -10 11 -22 13 -18 2 -25 13 -34 53 -13 54 -34 116 -63 189 -8 20
-9 31 -2 36 6 3 2 13 -10 24 -17 14 -18 20 -8 32 10 12 9 13 -5 8 -12 -5 -16
0 -16 19 0 14 -5 29 -10 32 -6 4 -8 15 -5 26 4 10 3 19 -2 19 -8 0 -26 36 -38
78 -4 13 -2 22 4 22 6 0 11 5 11 11 0 6 -7 9 -14 6 -16 -6 -24 9 -30 61 -2 18
-11 41 -20 51 -10 10 -18 30 -20 44 -1 14 -7 32 -13 39 -15 19 -32 75 -26 82
4 3 1 6 -5 6 -9 0 -38 72 -47 118 -2 9 -4 18 -5 20 -2 1 -4 7 -5 12 -1 6 -4
13 -5 18 -1 4 -2 10 -1 14 0 6 -28 73 -81 188 -25 54 -87 225 -95 260 -4 14
-12 34 -20 46 -7 11 -10 24 -6 27 3 4 1 7 -6 7 -8 0 -11 7 -7 15 3 8 -1 20 -8
27 -24 25 -48 87 -41 105 16 36 14 46 -4 29 -19 -18 -33 -12 -24 10 3 8 -1 14
-11 14 -9 0 -19 12 -23 28 -9 33 -10 39 -12 53 0 5 -5 8 -10 5 -5 -3 -12 6
-16 21 -3 16 -11 31 -16 34 -6 3 -11 22 -12 42 -1 22 -7 37 -14 37 -17 0 -16
10 4 32 15 17 15 18 -1 18 -11 0 -15 -5 -10 -12 4 -7 -3 -3 -14 9 -18 18 -21
30 -17 63 3 23 1 40 -5 40 -5 0 -7 -7 -4 -15 4 -9 0 -15 -10 -15 -9 0 -16 8
-16 18 0 10 -12 34 -26 53 -33 44 -76 137 -76 167 0 12 -4 22 -9 22 -13 0 -11
44 3 58 9 9 9 12 0 12 -7 0 -12 -5 -12 -10 0 -6 -7 -6 -19 2 -10 6 -17 18 -14
25 3 7 0 13 -6 13 -6 0 -11 7 -11 16 0 9 -8 23 -17 31 -12 10 -13 12 -3 8 8
-3 5 2 -7 11 -29 21 -29 32 -1 36 12 2 23 9 26 16 2 7 -2 10 -12 6 -12 -4 -15
-2 -11 9 5 11 0 14 -20 11 -15 -1 -25 0 -22 3 3 2 -6 21 -19 40 -13 19 -21 39
-18 44 3 5 0 9 -6 9 -13 0 -31 46 -32 83 -1 16 -7 31 -14 34 -8 3 -11 9 -8 15
3 5 -3 12 -15 15 -19 5 -25 15 -22 36 0 4 -3 7 -8 7 -10 0 -27 39 -22 54 1 5
-2 12 -7 15 -11 8 -72 127 -72 141 0 6 -7 19 -16 27 -8 9 -13 24 -11 34 3 11
1 19 -4 19 -12 0 -39 62 -33 72 3 5 1 8 -5 8 -8 0 -51 77 -51 92 0 4 10 9 23
11 16 3 14 5 -10 6 -42 1 -54 34 -22 62 12 10 18 19 13 19 -6 0 -15 -5 -22
-12 -13 -13 -42 6 -42 29 0 8 -12 35 -26 59 -23 39 -25 49 -15 71 10 23 10 25
-6 21 -24 -6 -43 15 -38 41 2 14 -3 25 -16 32 -11 6 -19 15 -17 21 2 6 -7 22
-20 35 -16 16 -22 31 -19 45 3 11 3 17 0 14 -3 -3 -13 5 -23 17 -25 32 -80
149 -74 159 3 4 -2 8 -10 8 -8 0 -17 8 -20 18 -7 20 -4 38 6 35 4 -2 5 4 2 12
-3 8 -9 14 -12 13 -16 -5 -53 25 -48 37 3 8 1 15 -3 17 -14 6 -72 118 -66 128
3 5 -2 10 -11 10 -10 0 -14 3 -11 7 4 3 -2 12 -13 20 -11 8 -20 22 -20 32 0
10 -9 30 -20 44 -11 14 -20 29 -20 34 0 4 -10 19 -23 33 -25 27 -44 65 -27 55
6 -3 10 1 10 9 0 9 -6 16 -13 16 -15 0 -76 60 -61 60 5 0 1 5 -9 11 -9 6 -15
14 -12 20 4 5 -1 12 -9 15 -9 3 -16 12 -16 20 0 8 -18 31 -40 52 -22 20 -74
70 -115 110 -41 39 -78 72 -82 72 -5 0 -8 3 -8 8 -1 13 -25 52 -33 51 -19 -3
-23 2 -12 16 10 12 10 15 -2 15 -7 0 -20 9 -28 20 -8 11 -23 20 -33 20 -16 0
-17 3 -7 15 13 15 12 16 -38 31 -7 2 -10 8 -7 14 3 5 1 10 -6 10 -7 0 -10 3
-7 6 3 3 -8 20 -25 39 -47 49 -56 62 -50 68 3 3 11 3 19 0 8 -3 0 10 -17 28
-18 19 -38 44 -47 57 -8 12 -21 22 -30 22 -8 0 -12 3 -9 7 4 3 2 12 -4 20 -10
11 -15 11 -27 1 -13 -10 -14 -10 -8 0 4 7 1 12 -9 12 -12 0 -14 6 -9 25 5 19
3 25 -7 23 -8 -2 -13 3 -11 10 1 7 -9 17 -22 21 -16 7 -23 17 -24 36 0 32 -10
44 -22 25 -8 -12 -10 -12 -15 2 -4 10 -4 22 0 28 3 5 -1 10 -9 10 -9 0 -16 7
-16 15 0 8 -7 15 -15 15 -8 0 -15 6 -15 13 0 8 -9 22 -19 31 -11 10 -18 23
-15 30 2 6 -9 22 -26 34 -16 13 -30 29 -30 37 0 8 -3 15 -7 15 -11 0 -47 63
-44 78 1 6 -2 12 -7 12 -23 0 -263 402 -317 531 -15 35 -32 71 -39 79 -16 19
-136 228 -136 236 0 3 -27 47 -59 97 -33 51 -65 106 -72 122 -13 30 -33 61
-215 340 -118 181 -224 325 -265 359 -30 26 -63 34 -73 18 -17 -28 -23 -183
-8 -222 5 -14 10 -61 11 -105 1 -44 4 -105 6 -135 3 -30 10 -109 16 -175 5
-66 12 -165 14 -220 3 -55 9 -131 15 -170 5 -38 9 -79 9 -90 -1 -11 2 -67 7
-125 13 -148 11 -510 -2 -518 -6 -4 -10 -18 -9 -31 3 -36 -21 -152 -32 -160
-6 -3 -11 -13 -11 -21 -3 -40 -13 -70 -41 -125 -17 -33 -31 -65 -31 -72 0 -6
-8 -18 -19 -25 -10 -7 -20 -17 -21 -23 -17 -58 -49 -102 -65 -87 -5 4 -6 0 -2
-9 7 -22 -28 -79 -49 -79 -11 0 -15 -6 -11 -20 3 -13 1 -18 -6 -13 -6 4 -8 0
-4 -9 3 -10 -7 -29 -29 -52 -19 -20 -33 -39 -31 -44 6 -9 -19 -33 -26 -26 -3
3 -8 -5 -12 -17 -4 -12 -18 -34 -31 -48 -13 -14 -27 -34 -30 -43 -3 -10 -10
-18 -15 -18 -5 0 -9 -7 -9 -15 0 -8 -4 -15 -10 -15 -5 0 -10 -5 -10 -11 0 -7
-8 -19 -18 -28 -10 -9 -60 -68 -112 -131 -141 -172 -283 -302 -446 -406 -28
-18 -58 -39 -65 -46 -33 -31 -157 -110 -257 -164 -24 -13 -67 -40 -95 -60 -28
-20 -85 -55 -127 -76 -41 -22 -97 -53 -125 -69 -44 -26 -205 -106 -260 -129
-45 -19 -63 -20 -79 -4 -9 9 -23 13 -31 10 -14 -5 -72 22 -105 50 -8 7 -41 22
-74 34 -32 12 -66 30 -75 39 -9 9 -32 24 -51 34 -91 47 -97 29 61 173 155 141
436 421 452 450 6 11 29 44 52 74 49 65 113 170 180 295 26 50 51 95 56 100 4
6 35 71 69 145 34 74 79 173 100 220 22 47 60 139 86 205 25 66 55 140 66 165
10 25 23 54 28 65 4 11 25 65 46 120 20 55 64 159 97 230 35 77 65 158 73 200
7 39 22 113 33 165 57 273 66 745 20 1120 -5 47 -17 148 -25 225 -15 152 -32
263 -64 425 -12 58 -25 143 -30 190 -17 155 -48 294 -88 395 -52 131 -147 338
-177 386 -14 20 -57 102 -96 181 -138 273 -368 640 -448 713 -30 28 -99 93
-155 146 -56 52 -144 132 -196 176 -103 88 -280 267 -454 458 -104 116 -272
275 -288 275 -4 0 -8 -41 -8 -92 0 -84 5 -106 56 -267 55 -171 57 -177 51
-260 -6 -89 -43 -214 -94 -316 -43 -85 -127 -188 -248 -302 -106 -101 -122
-113 -213 -151 -195 -83 -232 -92 -398 -99 -123 -5 -159 -3 -197 10 -64 22
-180 110 -257 196 -37 42 -84 83 -110 96 -25 13 -82 52 -125 87 -113 90 -243
189 -292 221 l-43 27 0 75 c0 94 15 132 71 175 24 18 51 41 59 49 84 88 132
102 235 70 38 -12 111 -41 160 -65 50 -23 119 -52 155 -65 96 -32 156 -65 207
-112 54 -49 77 -92 93 -172 26 -129 32 -155 39 -155 4 0 19 77 33 172 l26 172
-50 61 c-28 33 -59 78 -68 100 -13 30 -30 47 -66 67 -32 17 -76 58 -124 115
-98 114 -104 122 -97 129 16 16 190 42 322 48 174 8 205 1 288 -64 72 -57 187
-171 187 -186 0 -7 4 -14 8 -16 4 -1 36 -60 70 -129 66 -135 112 -294 112
-391 0 -34 3 -49 10 -42 16 16 30 110 44 289 l12 170 -41 40 c-51 50 -65 81
-105 225 -18 63 -38 133 -44 154 -12 43 -25 51 -187 124 -47 22 -131 68 -187
103 -208 131 -248 151 -325 160 -139 16 -208 12 -248 -15 -52 -36 -132 -57
-241 -63 -79 -5 -99 -9 -103 -23 -3 -9 -20 -33 -38 -52 -31 -33 -37 -36 -68
-29 -19 5 -45 13 -59 19 -43 19 -181 31 -255 22 -75 -8 -103 -18 -176 -62 -42
-25 -159 -72 -165 -66 -1 2 -4 44 -8 93 -8 130 -18 205 -26 205 -4 0 -13 -19
-19 -42z m409 -469 c-19 -17 -63 -55 -97 -85 -52 -46 -68 -54 -101 -54 -22 0
-45 6 -52 14 -9 12 -2 20 42 42 29 15 67 38 84 51 28 21 123 61 149 62 6 0 -6
-13 -25 -30z m-1140 -254 c19 -2 67 -9 105 -15 39 -5 90 -13 114 -17 51 -7 38
-16 -44 -27 -27 -4 -59 -13 -70 -20 -25 -16 -193 -76 -212 -76 -9 0 -37 16
-63 35 -63 46 -152 85 -195 85 -69 0 -42 17 38 24 45 4 109 11 142 16 56 7 97
6 185 -5z m-108 -190 l50 -25 29 21 c23 16 38 19 62 14 18 -3 43 -6 57 -7 14
0 19 -3 13 -5 -19 -7 -16 -30 7 -50 22 -21 18 -65 -6 -56 -8 3 -14 -1 -14 -11
0 -9 7 -16 15 -16 9 0 12 -6 9 -15 -4 -8 -1 -22 6 -30 9 -10 9 -15 1 -15 -22
0 -10 -26 20 -44 30 -18 34 -36 9 -44 -7 -3 -10 0 -6 7 5 7 -1 11 -15 11 -22
0 -22 0 -3 -21 14 -16 15 -22 5 -28 -16 -10 -7 -43 20 -82 17 -24 17 -28 3
-33 -9 -4 -13 -13 -10 -23 3 -10 8 -49 11 -88 4 -38 8 -83 10 -100 6 -41 5
-348 -1 -410 -6 -74 -5 -262 2 -324 5 -36 3 -52 -4 -47 -17 10 -19 -13 -16
-149 6 -309 5 -347 -13 -425 -5 -22 -7 -20 -17 20 -7 27 -8 50 -3 57 5 7 6 20
3 30 -2 10 -8 101 -11 203 -3 102 -8 196 -10 210 -14 85 -17 133 -19 285 -1
94 -6 176 -10 184 -7 10 -6 12 4 6 10 -6 12 -4 7 8 -3 9 -3 18 1 21 12 7 5
236 -8 251 -6 7 -12 27 -12 44 -1 17 -4 31 -9 31 -4 0 -6 11 -4 25 1 14 -1 28
-6 30 -4 3 -10 31 -14 63 -3 31 -9 70 -12 86 -4 21 -2 26 7 21 7 -4 4 4 -5 19
-11 16 -13 26 -6 26 9 0 9 5 1 20 -6 11 -9 24 -6 28 9 14 -16 106 -44 168 -26
57 -71 104 -148 156 -22 15 -23 16 -6 21 32 8 35 8 86 -18z m278 -95 c0 -5 -5
-10 -11 -10 -5 0 -7 5 -4 10 3 6 8 10 11 10 2 0 4 -4 4 -10z m-113 -666 c-3
-3 -12 -4 -19 -1 -8 3 -5 6 6 6 11 1 17 -2 13 -5z m110 -721 c-3 -10 -5 -2 -5
17 0 19 2 27 5 18 2 -10 2 -26 0 -35z m-88 -833 c11 -36 30 -108 40 -162 11
-53 30 -125 42 -160 24 -71 57 -220 64 -288 9 -85 17 -120 26 -115 5 4 6 0 3
-8 -3 -8 2 -61 11 -118 9 -57 17 -111 17 -119 0 -8 4 -40 10 -70 16 -81 19
-422 5 -413 -9 5 -9 3 -1 -8 8 -9 9 -30 4 -64 -4 -27 -6 -99 -4 -158 2 -87 0
-109 -11 -113 -11 -5 -12 -11 -5 -24 10 -18 4 -50 -9 -50 -4 0 -7 -15 -6 -32
0 -18 -6 -39 -12 -46 -7 -7 -13 -20 -13 -29 0 -13 3 -13 15 -3 12 10 15 10 15
-2 0 -7 -13 -19 -30 -25 -17 -6 -30 -19 -30 -28 0 -11 -5 -15 -15 -11 -23 9
-38 -30 -50 -134 -9 -68 -9 -97 -1 -102 7 -5 6 -8 -3 -8 -11 0 -12 -11 -7 -47
3 -26 0 -83 -9 -132 -8 -47 -16 -106 -18 -131 -2 -25 -9 -56 -16 -69 -10 -18
-10 -22 -1 -16 8 5 11 2 7 -11 -12 -44 -19 -81 -22 -120 -2 -23 -11 -71 -20
-107 -9 -37 -14 -71 -10 -77 3 -5 1 -10 -6 -10 -7 0 -10 -13 -7 -35 2 -19 0
-36 -5 -38 -4 -1 -10 -27 -13 -57 -3 -30 -8 -84 -12 -120 -5 -36 -8 -186 -7
-335 1 -148 -1 -274 -4 -280 -3 -5 -7 -39 -8 -75 -1 -36 -3 -76 -5 -90 -3 -22
2 -25 45 -33 52 -10 58 -18 25 -35 -72 -34 -212 -9 -179 33 5 5 7 20 6 33 -1
12 1 22 4 22 3 0 7 27 8 60 1 37 -2 60 -9 60 -7 0 -6 5 2 15 9 11 9 15 1 15
-7 0 -11 19 -12 48 0 26 0 61 -1 77 0 17 3 64 6 105 3 41 6 86 6 99 0 13 5 30
11 37 9 11 8 14 0 14 -7 0 -10 8 -7 18 3 9 8 55 11 102 9 142 14 181 25 195 8
10 7 14 -2 18 -10 4 -10 8 2 16 10 7 11 11 3 11 -7 0 -13 7 -13 15 0 8 6 15
13 15 7 0 4 7 -7 15 -19 14 -19 15 -1 35 15 17 17 23 6 29 -11 7 -11 16 -2 42
6 19 12 46 13 62 1 15 6 27 11 27 4 0 6 4 2 9 -3 5 1 15 8 23 7 7 12 32 11 58
-1 25 3 54 9 65 6 11 11 56 13 100 3 111 2 108 18 102 10 -4 13 -1 10 8 -3 7
0 24 7 37 7 13 12 26 11 31 -1 4 2 7 8 7 5 0 7 7 4 15 -4 9 0 15 9 15 8 0 17
13 21 31 8 43 7 126 -2 114 -4 -5 -18 -16 -31 -23 -21 -13 -23 -12 -17 3 3 9
6 21 6 26 0 6 4 8 9 4 5 -3 13 5 17 17 4 13 2 24 -5 26 -12 4 -15 32 -3 32 4
0 13 -5 20 -12 9 -9 12 -5 12 20 0 33 -16 43 -26 17 -4 -8 -10 -15 -15 -15 -6
0 -5 9 1 20 6 12 8 31 5 43 -5 17 -4 19 4 7 16 -24 19 -9 10 60 -5 36 -11 84
-14 106 -6 53 -21 94 -35 94 -6 0 -10 8 -9 18 1 9 0 19 -1 22 -2 7 -11 98 -13
132 -1 15 -4 25 -8 22 -4 -2 -9 9 -12 24 -3 15 -1 30 5 33 7 4 6 9 -1 13 -6 4
-8 13 -4 19 14 22 16 42 16 118 -1 67 -6 86 -41 160 -22 46 -48 109 -60 139
-56 153 -122 350 -130 385 -5 22 -21 71 -36 109 -28 72 -35 112 -12 61 61
-130 85 -185 96 -220 7 -22 25 -65 40 -95 16 -31 33 -75 40 -99 14 -52 76
-189 111 -246 14 -22 31 -60 38 -85 18 -62 52 -140 61 -140 10 0 0 -92 -10
-104 -5 -5 -4 -19 0 -32 5 -13 7 -37 4 -53 -3 -16 -1 -37 5 -48 6 -10 11 -12
11 -5 0 10 3 10 13 0 12 -10 12 -15 0 -26 -15 -16 -16 -32 -3 -81 5 -20 12
-48 15 -63 3 -17 10 -25 19 -22 12 5 29 84 43 199 2 22 7 47 10 55 9 27 8 90
-2 90 -5 0 -3 6 5 13 12 9 16 33 15 99 0 47 -3 89 -7 93 -4 4 -5 19 -3 34 9
52 12 202 5 206 -5 3 -4 22 2 42 9 31 4 165 -7 182 -3 6 -9 46 -20 121 -2 19
-7 82 -10 140 -4 69 -17 151 -40 240 -18 74 -45 205 -60 290 -14 85 -28 166
-30 180 -8 41 11 2 34 -70z m2006 -585 c134 -35 222 -79 345 -171 93 -71 111
-90 177 -187 39 -59 103 -141 140 -181 37 -40 90 -111 117 -157 26 -46 74
-123 105 -171 31 -48 76 -120 100 -160 25 -40 74 -118 110 -173 35 -55 72
-125 82 -155 27 -85 186 -517 218 -590 32 -74 38 -102 47 -220 3 -47 8 -88 10
-91 5 -9 6 -703 0 -834 -6 -159 -24 -416 -32 -447 -3 -16 -12 -28 -18 -28 -7
0 -55 21 -107 46 -52 25 -119 55 -149 66 -81 30 -97 49 -116 137 -32 154 -76
338 -101 424 -14 49 -26 94 -27 100 -1 7 -4 17 -8 22 -3 6 -22 67 -42 136 -34
119 -49 162 -82 234 -80 177 -172 405 -185 458 -21 91 -118 399 -137 436 -26
49 -42 51 -43 4 0 -21 -2 -49 -4 -63 -2 -14 -7 -77 -10 -140 -4 -63 -14 -135
-22 -160 -21 -62 -63 -201 -68 -225 -3 -11 -7 -33 -11 -49 -3 -15 -19 -54 -34
-85 -15 -31 -38 -78 -51 -104 -22 -45 -24 -47 -39 -30 -21 23 -52 98 -80 193
-12 41 -28 89 -35 105 -31 74 -70 180 -67 183 2 1 -4 15 -12 30 -32 58 -66
144 -66 167 0 13 -4 26 -8 29 -5 3 -19 40 -31 83 -12 43 -25 85 -29 93 -3 8
-7 20 -7 25 -1 6 -12 32 -24 59 -12 27 -19 52 -15 55 3 3 52 11 108 17 112 13
143 25 265 106 92 61 101 72 182 228 63 121 67 133 74 216 3 51 2 128 -5 179
-11 98 -48 235 -61 235 -5 0 -9 -5 -9 -11 0 -18 -86 -141 -122 -175 -49 -46
-69 -54 -146 -54 -125 0 -210 49 -291 169 -77 113 -98 187 -86 296 5 53 13 73
36 99 53 61 119 68 264 31z m-2053 -377 c-7 -7 -12 -8 -12 -2 0 14 12 26 19
19 2 -3 -1 -11 -7 -17z m8 -288 c0 -5 -4 -10 -9 -10 -6 0 -13 5 -16 10 -3 6 1
10 9 10 9 0 16 -4 16 -10z m-20 -634 c0 -3 -4 -8 -10 -11 -5 -3 -10 -1 -10 4
0 6 5 11 10 11 6 0 10 -2 10 -4z m30 -156 c0 -5 -4 -10 -10 -10 -5 0 -10 5
-10 10 0 6 5 10 10 10 6 0 10 -4 10 -10z m147 -42 c-3 -8 -6 -5 -6 6 -1 11 2
17 5 13 3 -3 4 -12 1 -19z m-172 2 c-3 -5 -13 -10 -21 -10 -8 0 -12 5 -9 10 3
6 13 10 21 10 8 0 12 -4 9 -10z m40 -268 c-3 -3 -11 0 -18 7 -9 10 -8 11 6 5
10 -3 15 -9 12 -12z m-36 -39 c1 5 6 5 12 1 8 -4 7 -9 -2 -15 -21 -13 -26 -11
-32 10 -6 26 5 37 14 14 4 -10 8 -14 8 -10z m82 -396 c-10 -9 -11 -8 -5 6 3
10 9 15 12 12 3 -3 0 -11 -7 -18z m7635 -234 c-7 -7 -26 7 -26 19 0 6 6 6 15
-2 9 -7 13 -15 11 -17z m-7711 -253 c3 -5 -1 -10 -9 -10 -9 0 -16 5 -16 10 0
6 4 10 9 10 6 0 13 -4 16 -10z m-15 -70 c0 -5 -2 -10 -4 -10 -3 0 -8 5 -11 10
-3 6 -1 10 4 10 6 0 11 -4 11 -10z m147 -823 c-2 -6 -24 -18 -50 -27 -58 -20
-94 -53 -119 -107 -22 -49 -30 -123 -16 -140 7 -9 7 -13 0 -13 -6 0 -10 -27
-10 -67 0 -73 -4 -115 -12 -123 -3 -3 -14 -24 -24 -47 -11 -24 -22 -43 -26
-43 -8 0 -17 -21 -45 -113 -11 -32 -28 -65 -39 -73 -23 -16 -74 -18 -95 -5
-22 14 -5 71 39 135 22 31 40 61 40 65 0 5 7 14 15 21 9 7 13 15 10 18 -3 3 2
13 10 22 8 9 16 25 18 36 2 10 7 27 11 36 5 10 6 23 4 30 -3 7 1 19 9 26 13
14 17 48 14 135 -1 27 3 47 9 47 5 0 10 10 10 23 0 16 -3 18 -9 8 -6 -9 -11
-10 -15 -2 -4 6 0 14 9 17 22 9 39 54 25 68 -16 16 -12 30 5 16 13 -10 19 -10
33 4 10 9 22 16 26 16 4 0 22 11 39 24 18 13 41 26 52 28 34 6 86 -4 82 -15z
m-357 4 c0 -15 -30 -41 -47 -41 -8 0 -29 -11 -45 -26 -17 -14 -37 -23 -44 -20
-8 3 -14 0 -15 -7 0 -8 -2 -8 -6 1 -3 8 14 33 38 58 36 37 49 44 81 44 21 0
38 -4 38 -9z m163 1 c2 7 8 10 12 5 5 -4 4 -12 -2 -18 -14 -14 -43 -5 -43 12
0 9 3 9 14 0 11 -9 15 -9 19 1z m-63 -107 c11 -13 10 -14 -4 -9 -9 3 -16 10
-16 15 0 13 6 11 20 -6z m-260 -610 c0 -8 -4 -15 -10 -15 -5 0 -7 7 -4 15 4 8
8 15 10 15 2 0 4 -7 4 -15z m56 -338 c1 -12 -9 -78 -21 -147 -13 -69 -26 -152
-30 -185 -4 -33 -13 -87 -21 -121 -19 -84 -19 -281 0 -372 24 -109 21 -150
-15 -215 -17 -31 -35 -59 -40 -62 -13 -9 -11 -52 4 -59 6 -4 2 -4 -9 -2 -22 4
-44 -26 -44 -59 0 -13 -58 -121 -79 -147 -6 -7 -33 -38 -60 -68 -28 -30 -51
-63 -51 -73 0 -10 -13 -43 -29 -75 -40 -81 -51 -131 -55 -244 0 -25 -4 -44 -8
-41 -5 2 -3 -8 3 -23 8 -23 6 -33 -9 -53 -18 -25 -82 -48 -82 -30 0 5 -7 9
-15 9 -22 0 -37 38 -32 79 7 61 37 184 47 196 6 7 12 25 14 41 9 66 79 206
123 244 18 16 33 33 33 37 0 4 23 32 50 61 28 29 50 57 50 62 0 22 54 122 74
135 11 8 17 15 13 15 -5 0 -1 7 7 16 13 12 15 38 14 127 -2 177 4 397 11 397
4 0 5 15 3 33 -2 18 3 49 11 69 11 26 12 39 4 47 -8 8 -8 11 0 11 16 0 23 36
9 51 -8 9 -8 10 1 5 14 -7 29 56 18 73 -3 6 -2 11 3 11 10 0 34 67 47 128 4
19 11 30 17 26 7 -4 8 -2 4 4 -7 12 24 135 33 127 2 -3 6 -15 7 -28z m-116
-197 c0 -5 -4 -10 -10 -10 -5 0 -10 5 -10 10 0 6 5 10 10 10 6 0 10 -4 10 -10z
m-330 -1084 c0 -3 -4 -8 -10 -11 -5 -3 -10 -1 -10 4 0 6 5 11 10 11 6 0 10 -2
10 -4z m60 -702 c0 -2 -9 -4 -21 -4 -11 0 -18 4 -14 10 5 8 35 3 35 -6z m-80
-14 c0 -5 -5 -10 -11 -10 -5 0 -7 5 -4 10 3 6 8 10 11 10 2 0 4 -4 4 -10z
m145 -57 c-4 -27 -15 -97 -26 -158 -19 -115 -32 -297 -29 -425 5 -187 1 -268
-14 -283 -6 -7 -12 -25 -13 -42 -2 -51 -12 -117 -17 -122 -3 -3 -1 -14 5 -24
6 -13 6 -19 -1 -19 -5 0 -10 -4 -10 -10 0 -5 3 -9 8 -9 23 4 34 -2 25 -13 -6
-7 -9 -24 -8 -38 1 -14 -5 -30 -14 -37 -9 -7 -11 -13 -6 -13 6 0 11 -21 12
-46 1 -25 8 -53 17 -63 13 -14 24 -56 28 -108 1 -7 5 -13 10 -13 5 0 6 -9 3
-20 -3 -11 -3 -20 2 -20 4 0 8 -10 8 -22 1 -13 5 -34 9 -47 7 -21 6 -23 -10
-17 -17 7 -17 6 0 -13 13 -15 14 -20 4 -24 -10 -4 -9 -6 2 -6 11 -1 15 -14 14
-55 0 -30 3 -78 6 -108 4 -29 3 -55 -1 -56 -5 -2 -7 -8 -3 -13 3 -5 1 -9 -4
-9 -6 0 -9 -8 -8 -17 1 -13 -9 -19 -41 -23 -38 -6 -42 -4 -49 19 -4 14 -8 31
-8 36 -1 6 -10 13 -21 17 -17 5 -16 6 7 7 22 1 25 5 21 24 -3 12 -16 36 -29
53 -13 17 -21 34 -17 37 6 7 -21 37 -34 37 -5 0 -9 9 -10 20 -2 19 -1 19 22 2
14 -9 25 -20 25 -24 0 -5 6 -8 13 -8 6 1 2 9 -11 20 -19 16 -21 23 -13 39 8
14 8 22 0 27 -6 3 -9 17 -7 29 4 17 1 22 -9 18 -11 -4 -14 1 -12 18 1 13 -2
35 -8 49 -5 14 -9 50 -9 80 1 33 -4 61 -12 69 -8 8 -9 17 -5 20 5 3 8 20 7 36
-9 93 -9 119 -3 201 3 50 14 115 25 145 10 30 17 62 15 71 -1 9 5 30 14 47 14
29 14 31 -7 51 l-22 20 23 0 c15 0 21 5 18 13 -3 8 1 67 9 133 8 65 15 127 15
137 0 9 4 17 10 17 5 0 9 26 9 58 -1 72 4 101 29 181 19 61 19 65 3 77 -9 8
-20 14 -24 14 -5 0 -8 5 -8 10 0 6 12 4 28 -4 l28 -15 18 70 c21 79 41 93 31
22z m-55 7 c0 -5 -4 -10 -10 -10 -5 0 -10 5 -10 10 0 6 5 10 10 10 6 0 10 -4
10 -10z m-10 -40 c0 -5 -2 -10 -4 -10 -3 0 -8 5 -11 10 -3 6 -1 10 4 10 6 0
11 -4 11 -10z m-10 -95 c0 -2 -9 -3 -19 -2 -11 0 -18 5 -15 9 4 6 34 0 34 -7z
m-40 -159 c0 -3 -4 -8 -10 -11 -5 -3 -10 -1 -10 4 0 6 5 11 10 11 6 0 10 -2
10 -4z m-40 -250 c0 -11 -19 -15 -25 -6 -3 5 1 10 9 10 9 0 16 -2 16 -4z m0
-86 c0 -5 -5 -10 -11 -10 -5 0 -7 5 -4 10 3 6 8 10 11 10 2 0 4 -4 4 -10z
m100 -665 c0 -5 -5 -3 -10 5 -5 8 -10 20 -10 25 0 6 5 3 10 -5 5 -8 10 -19 10
-25z m-90 -476 c0 -5 -4 -9 -10 -9 -5 0 -10 7 -10 16 0 8 5 12 10 9 6 -3 10
-10 10 -16z m100 -249 c0 -5 -2 -10 -4 -10 -3 0 -8 5 -11 10 -3 6 -1 10 4 10
6 0 11 -4 11 -10z m33 -1314 c3 -8 0 -22 -7 -32 -13 -17 -14 -16 -25 4 -7 13
-9 27 -6 32 9 15 32 12 38 -4z m18 -299 c39 -30 56 -113 37 -179 -14 -48 -41
-58 -73 -28 -40 37 -51 166 -18 202 19 21 32 22 54 5z m4163 -1249 c69 -139
116 -259 116 -293 0 -12 4 -25 9 -31 14 -14 48 -184 61 -307 9 -79 9 -124 1
-170 -6 -34 -16 -91 -22 -127 -6 -36 -15 -70 -20 -76 -8 -10 -29 -76 -44 -139
-125 -528 -157 -722 -155 -950 1 -164 3 -190 19 -343 18 -170 129 -746 160
-832 10 -25 43 -142 62 -215 6 -22 19 -62 29 -90 10 -27 37 -111 60 -185 41
-132 135 -376 152 -395 4 -5 8 -18 8 -28 0 -10 6 -31 14 -45 15 -29 28 -61 31
-77 2 -13 14 -46 26 -67 7 -14 5 -18 -8 -19 -16 0 -15 -2 2 -9 11 -5 16 -9 11
-9 -5 -1 -3 -9 6 -18 23 -28 40 -73 27 -73 -8 0 -8 -4 0 -13 6 -8 7 -18 3 -22
-4 -5 0 -6 9 -3 11 4 20 -4 31 -28 10 -21 11 -35 5 -37 -7 -2 -6 -14 1 -36 7
-18 9 -37 6 -42 -3 -5 0 -9 5 -9 6 0 11 8 12 18 0 14 2 14 8 -3 5 -11 7 -30 6
-42 -1 -12 3 -21 8 -20 6 1 13 -6 15 -17 3 -13 0 -16 -10 -11 -7 4 -3 -2 9
-13 13 -13 26 -44 33 -79 6 -32 16 -68 22 -80 6 -12 11 -33 11 -47 0 -14 3
-26 8 -26 5 0 6 -7 3 -15 -4 -8 -2 -15 3 -15 21 0 48 -123 64 -290 5 -58 12
-110 14 -117 12 -35 -74 -39 -153 -7 -31 13 -33 16 -27 45 6 28 5 31 -11 25
-11 -4 -42 -10 -70 -13 -56 -6 -54 -7 -120 69 -31 37 -39 39 -166 53 -39 4
-58 11 -58 20 0 7 28 29 63 48 34 20 71 46 82 58 l20 22 -25 -7 c-14 -4 -59
-13 -100 -20 -41 -7 -97 -22 -123 -34 -58 -26 -190 -52 -261 -52 -86 0 -145
53 -101 90 32 27 12 31 -130 24 l-145 -7 0 35 c0 37 12 56 48 80 l23 15 -28 6
-28 5 3 89 c6 161 7 171 16 165 5 -3 6 2 3 12 -4 10 -2 27 4 38 8 16 8 23 -2
29 -12 8 -11 11 1 18 8 6 12 13 8 16 -3 3 1 34 8 68 8 33 16 95 19 138 2 42 8
103 14 135 11 60 18 128 26 245 2 37 9 86 14 110 11 46 14 115 4 89 -6 -16
-23 -30 -35 -30 -4 0 1 16 12 35 14 25 16 36 8 41 -7 4 -14 2 -16 -4 -2 -7 -8
-12 -13 -12 -6 0 -5 8 1 20 7 12 16 17 28 13 14 -5 15 -3 5 8 -17 18 -17 34 0
20 10 -8 14 -7 14 4 0 8 -4 15 -9 15 -13 0 -9 38 5 42 6 3 13 16 14 29 2 33
13 111 18 129 2 8 9 76 15 150 12 158 19 233 25 275 2 17 7 98 10 180 3 83 8
170 11 195 3 25 7 97 10 160 7 173 5 165 34 163 25 -3 25 -3 3 7 -20 8 -23 17
-23 65 0 30 4 55 10 55 5 0 6 9 1 21 -4 12 -4 45 0 73 5 28 11 80 13 116 3 36
8 92 11 125 2 33 7 74 10 90 3 17 5 60 5 98 0 37 3 67 8 67 4 0 8 9 9 20 1 11
-2 20 -8 20 -5 0 -9 11 -9 25 0 14 5 25 11 25 6 0 8 7 5 16 -4 9 -1 24 6 32
10 12 10 14 1 8 -10 -5 -13 3 -13 28 0 20 3 36 8 36 4 0 6 21 4 47 -2 27 -4
59 -5 73 -2 48 15 205 23 210 12 8 8 50 -5 50 -5 0 -3 5 5 10 11 7 12 10 2 10
-9 0 -11 7 -7 20 4 11 6 46 6 77 0 32 5 63 10 69 7 8 6 14 -1 19 -6 3 -8 9 -6
13 4 7 7 38 22 222 3 41 8 82 11 90 7 20 13 89 17 180 6 136 43 520 51 520 2
0 33 -60 69 -132z m-2724 -114 c0 -8 3 -13 8 -10 4 2 12 -7 19 -20 9 -20 8
-26 -5 -34 -11 -6 -13 -9 -4 -10 9 0 11 -7 7 -19 -4 -13 1 -24 13 -33 21 -15
35 -55 21 -63 -11 -7 -1 -32 16 -39 10 -3 12 0 8 11 -4 11 -2 14 5 9 17 -10
15 -27 -5 -43 -13 -11 -14 -13 -3 -10 8 2 20 -3 27 -12 17 -22 16 -36 0 -22
-15 12 -27 5 -27 -15 0 -7 8 -10 21 -7 18 5 20 3 15 -14 -6 -20 15 -53 34 -53
4 0 7 -8 5 -17 -2 -10 -4 -21 -4 -25 -1 -4 -9 -4 -18 -1 -16 6 -16 5 -4 -10 7
-9 18 -14 23 -11 6 4 8 -2 3 -15 -5 -17 -2 -21 14 -21 12 0 21 -7 21 -15 0 -8
-7 -15 -15 -15 -12 0 -13 -4 -5 -19 15 -29 12 -44 -6 -37 -10 4 -14 1 -12 -6
3 -7 15 -15 29 -16 13 -2 29 -8 34 -14 7 -8 6 -9 -2 -4 -8 4 -13 2 -13 -6 0
-8 6 -20 13 -27 6 -7 8 -12 2 -11 -23 5 -45 -1 -45 -11 0 -5 4 -8 9 -5 14 9
42 -5 34 -17 -4 -6 0 -8 10 -4 23 8 23 -19 0 -31 -17 -10 -12 -42 8 -42 9 0 9
4 0 14 -8 10 -9 16 -1 21 17 11 27 -2 40 -52 6 -26 16 -53 22 -60 5 -7 14 -27
18 -45 5 -18 18 -63 29 -100 11 -38 16 -68 11 -68 -4 0 -11 -7 -14 -16 -5 -14
-4 -15 8 -5 11 9 15 8 22 -6 11 -25 16 -52 17 -93 0 -19 9 -43 19 -54 20 -22
23 -36 8 -36 -5 0 -10 -4 -10 -10 0 -5 6 -7 14 -4 14 5 24 -25 42 -121 3 -16
12 -42 20 -57 8 -15 14 -38 14 -52 0 -13 5 -26 12 -28 6 -2 14 -27 18 -55 3
-29 3 -50 -2 -47 -4 3 -8 -5 -8 -18 0 -19 2 -20 11 -8 8 12 9 11 7 -6 -2 -11
3 -28 11 -37 12 -15 10 -22 -13 -52 -15 -19 -31 -35 -37 -35 -5 0 -9 -4 -9 -9
0 -12 30 -7 59 9 18 9 21 8 23 -7 0 -10 2 -23 2 -28 1 -6 9 -21 18 -34 15 -21
15 -56 -1 -47 -3 2 -6 -9 -7 -25 -1 -24 1 -26 10 -14 9 13 14 13 28 3 25 -20
13 -72 -20 -85 -26 -11 -26 -11 6 -6 21 4 32 1 32 -6 0 -7 -5 -9 -12 -5 -7 4
-8 3 -4 -5 6 -8 12 -9 20 -2 18 15 28 1 13 -17 -8 -11 -8 -14 0 -9 11 7 26
-21 22 -39 -2 -5 4 -22 11 -38 13 -25 12 -30 -3 -41 -22 -16 -22 -25 2 -25 14
0 18 -5 14 -20 -4 -13 1 -27 13 -36 11 -9 13 -13 7 -9 -7 3 -13 1 -13 -5 0 -7
-6 -10 -13 -7 -10 4 -13 -2 -9 -19 3 -16 -2 -29 -13 -38 -11 -8 -14 -15 -8
-19 6 -4 13 -1 16 6 3 8 16 13 29 11 12 -1 26 -3 31 -3 13 -2 7 -32 -8 -37
-22 -9 -18 -31 6 -45 15 -8 19 -8 15 0 -4 6 -2 11 3 11 6 0 11 -7 11 -15 0 -8
-4 -15 -10 -15 -5 0 -10 -5 -10 -11 0 -5 5 -7 10 -4 6 4 10 -5 10 -19 0 -14 3
-26 8 -26 14 0 29 -47 21 -68 -5 -12 -4 -22 0 -22 7 0 22 -36 25 -62 1 -3 4
-10 9 -14 4 -4 7 -19 7 -34 0 -15 3 -30 7 -34 9 -8 13 -29 17 -83 1 -23 8 -49
15 -56 6 -8 11 -19 10 -23 -1 -5 0 -11 1 -14 1 -3 4 -29 5 -58 2 -29 8 -59 13
-65 5 -7 13 -28 17 -47 3 -19 13 -53 20 -75 8 -22 16 -63 19 -92 3 -28 8 -57
11 -65 6 -16 70 -386 90 -521 8 -53 20 -118 26 -144 5 -26 14 -77 19 -113 5
-36 13 -99 19 -140 6 -41 13 -97 16 -124 3 -27 7 -59 10 -70 8 -37 16 -136 12
-136 -5 0 -165 42 -214 56 -31 9 -29 20 7 33 17 5 30 12 30 15 0 3 -33 22 -72
42 -40 20 -75 40 -78 44 -3 3 -13 9 -22 13 -26 9 -22 23 10 36 15 6 38 20 52
31 l25 19 -65 -5 c-58 -5 -71 -3 -120 23 -43 22 -62 40 -87 83 -18 30 -33 62
-33 72 0 16 5 15 46 -7 51 -27 105 -32 143 -12 35 17 40 40 8 32 -32 -8 -95
24 -123 62 -11 15 -28 50 -38 77 -22 58 -98 189 -155 266 -22 30 -65 91 -95
135 -63 93 -213 294 -264 353 -13 15 -33 40 -44 56 l-22 29 40 -6 c21 -3 59
-9 84 -12 l45 -6 -60 33 c-33 18 -74 43 -91 55 -31 22 -95 119 -109 165 -10
31 -34 74 -71 128 -31 45 -74 124 -74 135 0 4 12 6 28 5 47 -3 47 -1 5 43 -37
38 -51 62 -54 92 0 6 -5 16 -11 23 -16 19 -6 23 30 13 38 -11 41 0 10 32 -13
12 -22 25 -20 30 1 4 -2 7 -8 7 -5 0 -10 5 -10 11 0 6 15 1 34 -10 18 -12 36
-21 40 -21 13 0 5 22 -18 53 -23 31 -66 110 -66 122 0 3 13 -4 29 -16 50 -37
54 -17 9 47 -117 164 -136 232 -92 320 13 26 34 57 46 68 29 27 101 185 128
281 12 44 25 85 30 90 4 6 15 39 24 75 10 36 24 85 32 110 34 100 65 372 60
510 -5 126 -53 502 -75 588 -20 74 -20 75 0 128 20 52 39 71 39 38z m140 -329
c0 -8 -4 -15 -10 -15 -5 0 -7 7 -4 15 4 8 8 15 10 15 2 0 4 -7 4 -15z m-1555
-1913 c-5 -4 -10 -23 -10 -42 0 -39 -29 -55 -39 -22 -10 29 13 72 38 72 12 0
17 -4 11 -8z m2145 -93 c0 -11 -27 -12 -34 0 -3 4 -3 11 0 14 8 8 34 -3 34
-14z m1570 -1389 c0 -5 -2 -10 -4 -10 -2 0 -12 -3 -22 -7 -16 -6 -17 -5 -4 10
17 19 30 22 30 7z m3 -130 c-9 -32 -20 -32 -15 0 2 17 8 28 12 25 5 -3 6 -14
3 -25z m4555 -44 c-7 -8 -15 -12 -17 -11 -5 6 10 25 20 25 5 0 4 -6 -3 -14z
m-4568 -11 c11 -13 10 -14 -4 -9 -9 3 -16 10 -16 15 0 13 6 11 20 -6z m4630
-10 c0 -9 -9 -15 -24 -15 -13 0 -27 -6 -30 -12 -3 -7 -5 -4 -3 7 1 11 13 22
27 26 14 4 26 7 28 8 1 1 2 -6 2 -14z m-4620 -27 c0 -13 -23 -5 -28 10 -2 7 2
10 12 6 9 -3 16 -11 16 -16z m4540 -12 c0 -8 7 -21 15 -30 9 -8 16 -18 15 -21
-1 -21 1 -25 12 -19 7 5 8 3 3 -5 -4 -7 0 -27 8 -44 28 -61 56 -122 66 -149 6
-16 15 -28 21 -28 5 0 10 -8 10 -17 0 -15 2 -16 10 -3 6 9 10 10 10 3 0 -6 -5
-15 -10 -18 -6 -4 -7 -12 -1 -23 6 -11 4 -20 -7 -30 -15 -12 -15 -13 5 -9 28
6 39 -21 16 -40 -13 -10 -15 -16 -5 -19 6 -3 10 -9 7 -14 -2 -4 9 -10 25 -14
38 -7 39 -26 3 -27 -16 0 -22 -3 -15 -6 6 -2 12 -9 12 -14 0 -6 -5 -7 -11 -3
-7 4 -9 0 -5 -14 5 -14 1 -24 -11 -31 -10 -6 -14 -11 -9 -11 5 0 17 7 27 16
10 9 23 13 29 9 9 -6 9 -10 -1 -16 -22 -13 -2 -22 22 -9 19 10 21 10 16 -3 -4
-11 0 -13 13 -10 15 4 18 0 16 -21 -2 -14 1 -23 5 -20 5 3 9 1 9 -5 0 -6 8 -8
18 -4 13 5 14 3 5 -7 -6 -7 -9 -19 -6 -26 3 -9 -2 -14 -15 -14 -13 0 -19 -6
-18 -17 0 -11 -5 -17 -14 -15 -12 3 -12 1 -3 -9 9 -9 15 -8 28 5 21 20 32 21
15 1 -7 -8 -9 -15 -4 -15 4 0 -1 -7 -12 -16 -10 -8 -14 -13 -7 -10 6 4 15 1
18 -4 5 -7 12 -5 20 7 7 10 17 15 21 11 4 -5 0 -16 -9 -26 -25 -28 -21 -39 18
-46 45 -9 46 -28 1 -25 -19 2 -38 0 -42 -4 -4 -4 1 -7 10 -7 13 0 16 -5 12
-16 -4 -12 -2 -15 9 -11 8 4 17 2 20 -2 11 -19 -24 -19 -41 0 -22 25 -33 24
-31 -1 2 -31 33 -56 51 -41 10 8 16 9 21 1 3 -6 10 -8 14 -6 14 9 8 -29 -7
-44 -14 -13 -15 -12 -8 13 8 32 -3 35 -26 8 -15 -18 -14 -20 9 -41 21 -18 23
-24 12 -31 -10 -6 -11 -11 -3 -16 6 -5 10 -20 10 -35 -1 -16 2 -28 5 -28 4 0
10 -9 14 -19 4 -12 12 -18 21 -14 7 3 14 1 14 -5 0 -6 -6 -12 -12 -15 -10 -3
-8 -10 5 -24 10 -11 17 -24 15 -29 -4 -17 25 -82 36 -80 6 2 8 1 4 -1 -12 -7
-10 -43 2 -43 5 0 7 -7 4 -15 -4 -10 0 -15 11 -15 13 0 15 -3 6 -13 -8 -11 -5
-17 13 -26 26 -14 29 -56 6 -73 -12 -8 -11 -9 4 -4 13 5 17 2 12 -9 -3 -10 1
-15 14 -15 10 0 21 -4 24 -9 10 -15 -5 -41 -23 -42 -12 0 -10 -3 7 -11 12 -6
22 -15 22 -20 0 -5 5 -6 10 -3 6 3 10 -3 10 -14 0 -12 7 -21 15 -21 8 0 12 -6
9 -14 -3 -8 4 -16 18 -20 22 -7 22 -7 3 -16 -11 -5 -14 -9 -7 -9 6 -1 12 -8
12 -17 0 -8 5 -12 10 -9 6 3 10 -1 10 -9 0 -9 5 -16 10 -16 6 0 10 -7 10 -15
0 -8 -6 -15 -14 -15 -8 0 -18 -5 -22 -12 -4 -6 -3 -8 4 -4 6 3 13 2 17 -4 3
-5 1 -10 -4 -10 -6 0 -11 -4 -11 -10 0 -5 6 -7 14 -4 9 3 15 -4 18 -20 3 -14
1 -26 -3 -26 -5 0 -9 -4 -9 -10 0 -5 9 -10 20 -10 11 0 20 -5 20 -11 0 -6 -6
-9 -14 -6 -9 4 -13 -3 -12 -24 1 -19 6 -29 16 -29 12 0 13 -2 1 -9 -7 -5 -10
-14 -7 -20 4 -6 2 -11 -3 -11 -6 0 -11 -4 -11 -9 0 -5 9 -7 20 -4 23 6 28 -15
5 -23 -8 -3 -13 -13 -11 -22 6 -31 18 -52 27 -46 5 3 16 -1 23 -9 16 -15 11
-57 -8 -69 -8 -5 -7 -8 1 -8 7 0 10 -7 7 -15 -4 -8 -2 -15 4 -15 6 0 20 -16
33 -36 12 -20 25 -31 28 -25 4 5 12 6 19 2 10 -6 10 -10 -2 -20 -10 -8 -12
-20 -7 -39 4 -15 6 -33 4 -39 -3 -7 0 -13 6 -13 7 0 5 -10 -5 -25 -9 -14 -12
-25 -6 -25 10 0 31 -68 34 -113 2 -19 7 -26 16 -22 11 4 13 -2 8 -27 -12 -63
-13 -93 -3 -115 6 -13 14 -23 18 -23 4 0 5 -9 2 -19 -4 -16 -1 -19 19 -15 l23
5 -22 -10 c-26 -12 -26 -9 -9 -81 10 -46 16 -56 37 -59 13 -1 27 -8 31 -14 9
-15 -11 -39 -26 -30 -6 3 -7 2 -3 -3 5 -5 16 -9 25 -10 56 -3 55 -3 41 -21
-11 -14 -8 -14 11 2 14 11 27 21 30 23 2 2 -2 7 -10 12 -8 5 -12 12 -8 15 4 4
13 -4 22 -17 19 -29 11 -72 -13 -63 -12 5 -13 4 -4 -6 10 -10 15 -9 28 1 13
10 15 9 16 -6 1 -11 1 -25 0 -31 -1 -7 3 -13 10 -13 6 0 9 -8 6 -19 -3 -12 3
-27 14 -37 10 -9 16 -21 13 -25 -3 -5 -1 -9 4 -9 5 0 9 -7 9 -15 0 -8 -4 -15
-9 -15 -5 0 -4 -8 1 -18 11 -20 42 -161 47 -212 3 -32 9 -67 14 -80 1 -3 2 -8
1 -12 0 -5 5 -8 13 -8 8 0 16 -6 19 -12 3 -8 9 -3 14 11 6 15 12 20 17 13 3
-6 2 -13 -4 -17 -7 -4 -7 -13 1 -26 7 -15 7 -24 -1 -34 -8 -10 -7 -15 4 -22
24 -13 32 -71 12 -79 -9 -3 -13 -10 -10 -16 3 -5 11 -4 20 3 11 9 14 6 14 -16
0 -25 -2 -26 -17 -14 -13 11 -13 8 2 -12 11 -15 25 -24 30 -21 6 3 2 -4 -7
-15 -10 -11 -18 -26 -19 -34 0 -8 -4 -4 -10 9 -6 17 -14 22 -27 18 -13 -4 -54
21 -138 85 -65 50 -164 123 -219 161 -180 125 -390 290 -512 402 -52 48 -65
68 -40 65 108 -14 -27 80 -263 183 -56 25 -92 37 -133 44 -65 11 -78 76 -19
89 34 7 112 55 112 68 0 5 -26 8 -57 7 -111 -4 -99 -25 -107 183 -4 100 -9
205 -11 232 -1 28 -4 132 -6 233 -2 100 -8 182 -12 182 -5 0 -5 6 1 13 7 8 10
108 8 285 -1 150 0 275 3 278 10 10 9 39 -1 45 -6 4 -7 12 -2 20 5 8 10 39 11
69 7 146 11 209 16 217 3 4 4 37 3 71 -1 35 0 65 3 68 11 10 9 39 -2 46 -9 6
-9 10 0 16 7 4 15 37 18 72 13 150 16 179 21 250 3 41 13 129 24 195 10 66 22
144 25 173 5 35 11 52 21 52 8 0 14 -6 14 -14z m80 4 c0 -5 -5 -10 -11 -10 -5
0 -7 5 -4 10 3 6 8 10 11 10 2 0 4 -4 4 -10z m-4640 -50 c0 -11 -4 -20 -9 -20
-5 0 -7 9 -4 20 3 11 7 20 9 20 2 0 4 -9 4 -20z m4660 -23 c0 -8 -7 -14 -15
-14 -16 0 -19 9 -8 20 11 11 23 8 23 -6z m15 -97 c-3 -5 -11 -10 -16 -10 -6 0
-7 5 -4 10 3 6 11 10 16 10 6 0 7 -4 4 -10z m-4685 -264 c0 -3 -4 -8 -10 -11
-5 -3 -10 -1 -10 4 0 6 5 11 10 11 6 0 10 -2 10 -4z m3515 -6 c3 -5 1 -10 -4
-10 -6 0 -11 5 -11 10 0 6 2 10 4 10 3 0 8 -4 11 -10z m5 -60 c0 -22 -4 -40
-9 -40 -5 0 -7 9 -4 20 3 11 0 26 -6 33 -6 8 -8 17 -4 20 15 16 23 4 23 -33z
m-21 -66 c1 -11 10 -29 21 -39 16 -14 17 -21 8 -32 -9 -11 -8 -13 2 -11 16 4
28 -38 31 -104 3 -47 30 -176 42 -195 3 -5 9 -32 12 -59 4 -27 15 -78 25 -114
11 -36 30 -110 44 -165 38 -155 145 -572 166 -647 10 -38 17 -68 14 -68 -3 0
0 -9 6 -20 23 -43 148 -596 137 -606 -7 -7 -96 21 -159 51 -45 22 -87 36 -118
40 -49 6 -79 29 -42 32 9 1 31 7 47 13 l30 12 -25 10 c-14 5 -59 20 -100 32
-139 43 -445 156 -448 166 -2 5 -8 10 -14 10 -21 0 -39 31 -39 72 -2 59 9 270
16 332 13 107 23 248 25 335 0 12 3 28 7 34 8 13 8 16 18 97 9 68 13 94 15
100 1 3 2 9 1 13 -3 14 31 141 39 151 5 5 6 14 4 21 -3 7 -1 16 5 20 6 3 11
21 11 39 0 18 3 36 7 40 4 4 8 23 10 43 1 20 7 41 13 47 5 5 10 19 10 31 0 12
7 30 15 41 8 10 15 26 15 35 0 9 8 38 19 65 10 27 28 76 41 109 12 33 28 76
35 95 7 19 17 44 21 55 6 17 9 14 20 -20 7 -22 13 -49 13 -61z m1311 26 c0 -5
-4 -10 -10 -10 -5 0 -10 5 -10 10 0 6 5 10 10 10 6 0 10 -4 10 -10z m-1282
-41 c-3 -8 -7 -3 -11 10 -4 17 -3 21 5 13 5 -5 8 -16 6 -23z m-7344 15 c24 -9
21 -76 -3 -98 -11 -10 -25 -15 -30 -11 -16 9 -14 102 2 108 6 3 13 6 14 6 1 1
8 -2 17 -5z m8187 -17 c-10 -9 -11 -8 -5 6 3 10 9 15 12 12 3 -3 0 -11 -7 -18z
m4124 -167 c-27 -12 -35 -12 -35 0 0 6 12 10 28 9 24 0 25 -1 7 -9z m-4092
-178 c-3 -12 -9 -19 -14 -16 -5 3 -3 14 3 24 15 24 19 21 11 -8z m4087 -16 c0
-2 -7 -7 -16 -10 -8 -3 -12 -2 -9 4 6 10 25 14 25 6z m-4083 -45 c-3 -15 -2
-32 3 -37 6 -6 2 -10 -10 -10 -13 0 -19 5 -15 14 3 8 8 25 11 38 9 34 18 30
11 -5z m-2 -111 c-3 -5 -14 -10 -23 -9 -14 0 -13 2 3 9 27 11 27 11 20 0z m5
-65 c0 -8 -4 -15 -10 -15 -5 0 -7 7 -4 15 4 8 8 15 10 15 2 0 4 -7 4 -15z
m-3760 -25 c0 -5 -7 -10 -16 -10 -8 0 -12 5 -9 10 3 6 10 10 16 10 5 0 9 -4 9
-10z m7817 -292 c-3 -8 -6 -5 -6 6 -1 11 2 17 5 13 3 -3 4 -12 1 -19z m-7
-118 c0 -5 -4 -10 -10 -10 -5 0 -10 5 -10 10 0 6 5 10 10 10 6 0 10 -4 10 -10z
m-4 -245 c1 -14 -3 -25 -10 -25 -6 0 -11 11 -11 25 0 33 20 33 21 0z m-9655
-29 c71 -15 160 -49 218 -83 l65 -38 13 -90 c7 -49 20 -148 28 -220 8 -71 20
-155 25 -186 5 -31 14 -91 20 -135 18 -134 28 -184 40 -184 4 0 4 17 0 37 -6
23 -5 42 1 49 7 8 6 13 -1 16 -6 2 -8 11 -5 21 8 18 25 23 25 7 0 -5 -6 -10
-12 -10 -9 0 -10 -3 -2 -8 15 -10 34 -70 28 -87 -4 -9 0 -15 7 -15 22 0 -5
-21 -30 -23 -22 -1 -30 -30 -11 -42 6 -3 10 0 10 8 0 15 29 32 38 23 2 -3 5
-23 6 -45 0 -23 4 -41 7 -41 12 0 18 -55 8 -67 -6 -7 -6 -13 -1 -17 5 -3 10
-17 11 -31 4 -56 6 -65 12 -65 4 0 6 -14 4 -32 -1 -18 1 -44 5 -58 4 -14 3
-35 -1 -48 -6 -15 -5 -21 1 -17 6 3 10 0 11 -7 0 -7 2 -26 4 -43 3 -20 -1 -34
-13 -44 -15 -12 -15 -12 7 -6 20 6 23 4 18 -9 -4 -9 -2 -16 3 -16 5 0 6 -9 1
-22 -9 -25 13 -111 30 -117 7 -2 7 -6 -2 -12 -7 -4 -10 -11 -6 -15 4 -4 10 -4
14 -1 10 10 11 67 1 67 -13 0 -9 27 6 39 12 10 13 8 9 -10 -5 -16 -3 -20 6
-14 8 4 11 22 9 45 -2 21 0 36 4 34 4 -3 11 12 16 33 5 21 14 58 21 83 7 25
23 88 37 140 13 52 34 127 46 165 26 87 83 306 104 400 23 105 85 359 90 364
1 2 27 -10 57 -27 36 -20 62 -29 77 -25 18 5 36 -8 94 -68 105 -109 285 -259
310 -259 4 0 -14 25 -39 56 -59 72 -79 103 -72 111 17 16 385 -273 388 -304 0
-4 14 -19 31 -32 24 -20 31 -22 39 -10 13 22 -1 88 -32 151 -16 32 -29 62 -29
69 0 9 134 -57 337 -168 28 -15 55 -25 58 -21 4 3 -12 34 -35 68 -23 34 -40
64 -37 67 3 2 25 -6 49 -19 23 -13 65 -32 91 -42 27 -10 88 -40 135 -66 l87
-48 -3 -109 c-2 -93 -19 -199 -39 -253 -3 -8 -7 -24 -9 -35 -1 -11 -14 -69
-29 -130 -15 -60 -28 -119 -29 -131 -3 -19 -43 -114 -66 -156 -5 -10 -15 -39
-20 -65 -11 -48 -44 -137 -83 -223 -11 -25 -28 -67 -38 -95 -51 -143 -144
-351 -189 -425 -5 -8 -17 -33 -27 -55 -17 -40 -79 -137 -117 -186 -12 -14 -31
-39 -43 -55 -125 -169 -152 -199 -273 -305 -88 -77 -164 -151 -190 -185 -42
-55 -84 -115 -118 -165 -20 -31 -54 -76 -76 -100 -82 -94 -122 -161 -135 -229
-18 -95 -20 -107 -41 -184 -10 -39 -22 -93 -26 -121 -14 -108 -82 -305 -177
-515 -23 -52 -46 -82 -57 -75 -7 4 -19 54 -25 100 -1 6 -4 17 -7 25 -4 8 -9
26 -12 40 -3 14 -20 86 -39 160 -56 217 -98 402 -93 407 2 3 21 -13 41 -36 36
-40 67 -57 83 -47 5 3 -3 43 -18 88 -16 46 -40 126 -56 178 -30 106 -44 243
-25 254 8 5 1 27 -24 72 l-36 63 21 21 c12 12 20 27 17 33 -2 7 -10 30 -17 52
-7 22 -21 58 -31 80 -10 22 -19 56 -21 75 -2 19 -7 38 -13 42 -5 4 -6 10 -2
14 3 4 12 2 19 -4 51 -41 168 -88 168 -66 0 9 -100 197 -114 214 -7 8 -27 44
-46 80 -18 36 -41 77 -52 92 -15 22 -52 98 -88 183 -31 71 -53 134 -84 235
-52 174 -54 189 -20 155 19 -19 43 -19 50 -1 3 8 -12 68 -35 133 -28 82 -42
144 -47 203 l-7 85 25 -23 c16 -14 31 -20 42 -16 33 13 2 135 -70 276 -13 26
-24 50 -24 52 0 14 58 -19 97 -54 44 -42 80 -54 69 -23 -4 9 -11 35 -16 58 -5
23 -19 63 -30 89 -11 26 -26 75 -34 109 -8 34 -18 70 -22 81 -12 31 36 10 73
-32 17 -20 35 -34 38 -30 4 3 -3 28 -15 55 -12 26 -36 98 -55 158 -18 61 -51
169 -73 240 -22 72 -43 150 -47 175 -4 25 -16 68 -27 95 -11 28 -40 118 -64
200 -23 83 -54 186 -67 230 -44 146 -44 139 0 132 21 -3 50 -8 64 -11z m9679
-41 c0 -2 -9 -3 -20 -2 -11 1 -20 7 -20 14 0 11 5 11 20 3 11 -6 20 -13 20
-15z m-33 -77 c-3 -8 -6 -5 -6 6 -1 11 2 17 5 13 3 -3 4 -12 1 -19z m-12267
-153 c5 -3 10 -15 10 -25 0 -10 5 -22 10 -25 15 -9 12 -75 -6 -128 -29 -84
-89 -93 -126 -17 -32 63 -15 184 29 208 15 9 58 2 83 -13z m12270 -5 c0 -5 -2
-10 -4 -10 -3 0 -8 5 -11 10 -3 6 -1 10 4 10 6 0 11 -4 11 -10z m-2990 -154
c0 -3 -4 -8 -10 -11 -5 -3 -10 -1 -10 4 0 6 5 11 10 11 6 0 10 -2 10 -4z m-37
-13 c-7 -2 -19 -2 -25 0 -7 3 -2 5 12 5 14 0 19 -2 13 -5z m-3 -43 c0 -11 -4
-20 -9 -20 -7 0 -8 17 -2 38 4 10 11 -2 11 -18z m-6221 -221 c-16 -10 -23 -4
-14 10 3 6 11 8 17 5 6 -4 5 -9 -3 -15z m-3044 -29 c3 -5 1 -10 -4 -10 -6 0
-11 5 -11 10 0 6 2 10 4 10 3 0 8 -4 11 -10z m3058 3 c-7 -2 -19 -2 -25 0 -7
3 -2 5 12 5 14 0 19 -2 13 -5z m57 -93 c0 -5 -2 -10 -4 -10 -3 0 -8 5 -11 10
-3 6 -1 10 4 10 6 0 11 -4 11 -10z m7 -72 c-3 -8 -6 -5 -6 6 -1 11 2 17 5 13
3 -3 4 -12 1 -19z m28 -68 c-3 -5 -11 -10 -16 -10 -6 0 -7 5 -4 10 3 6 11 10
16 10 6 0 7 -4 4 -10z m0 -29 c3 -5 1 -12 -5 -16 -5 -3 -10 1 -10 9 0 18 6 21
15 7z m0 -40 c-3 -5 -1 -12 5 -16 5 -3 10 -16 10 -28 0 -27 -15 -11 -24 26 -4
17 -2 27 4 27 6 0 9 -4 5 -9z m21 -118 c0 -10 4 -28 8 -40 4 -13 3 -23 -2 -23
-5 0 -9 6 -9 13 0 6 -4 24 -8 40 -4 15 -3 27 2 27 5 0 9 -8 9 -17z m14 -88 c0
-8 -4 -15 -10 -15 -5 0 -10 7 -10 15 0 8 5 15 10 15 6 0 10 -7 10 -15z m13
-115 c-3 -12 -8 -19 -11 -16 -5 6 5 36 12 36 2 0 2 -9 -1 -20z m-3 -40 c0 -5
-2 -10 -4 -10 -3 0 -8 5 -11 10 -3 6 -1 10 4 10 6 0 11 -4 11 -10z m20 -40 c0
-5 -2 -10 -4 -10 -3 0 -8 5 -11 10 -3 6 -1 10 4 10 6 0 11 -4 11 -10z m20
-100 c0 -5 -4 -10 -10 -10 -5 0 -10 5 -10 10 0 6 5 10 10 10 6 0 10 -4 10 -10z
m8940 -174 c0 -2 -7 -7 -16 -10 -8 -3 -12 -2 -9 4 6 10 25 14 25 6z m-4570
-311 c80 -53 471 -436 530 -519 19 -25 37 -46 42 -46 12 0 7 68 -8 105 -6 17
-15 41 -19 55 l-7 25 25 -24 c24 -22 31 -45 42 -131 6 -44 10 -66 39 -185 13
-52 31 -182 51 -375 l6 -55 -52 55 c-107 112 -206 263 -255 387 -36 92 -59
133 -80 146 -33 19 -249 319 -315 434 -22 40 -45 75 -50 79 -5 3 -9 14 -9 25
0 10 -4 19 -9 19 -5 0 -11 8 -14 18 -2 9 -8 26 -13 36 -9 22 -12 24 96 -49z
m2606 -1862 c7 -10 13 -27 13 -38 0 -15 -3 -14 -11 8 -5 15 -14 27 -19 27 -5
0 -9 5 -9 10 0 15 11 12 26 -7z m44 -114 c0 -7 -6 -4 -15 7 -19 25 -19 40 0
20 8 -8 15 -20 15 -27z m980 -1224 c0 -14 -4 -25 -9 -25 -4 0 -6 11 -3 25 2
14 6 25 8 25 2 0 4 -11 4 -25z m-86 -67 c6 -73 0 -141 -13 -133 -4 2 -8 52 -9
110 -3 120 12 135 22 23z m116 41 c0 -11 -4 -17 -10 -14 -5 3 -10 13 -10 21 0
8 5 14 10 14 6 0 10 -9 10 -21z m-810 -29 c0 -5 -2 -10 -4 -10 -3 0 -8 5 -11
10 -3 6 -1 10 4 10 6 0 11 -4 11 -10z m790 -75 c-14 -65 -35 -77 -25 -12 9 54
26 96 32 80 2 -7 -1 -37 -7 -68z m-3275 35 c3 -5 1 -10 -4 -10 -6 0 -11 5 -11
10 0 6 2 10 4 10 3 0 8 -4 11 -10z m2505 -200 c0 -5 -4 -10 -10 -10 -5 0 -10
5 -10 10 0 6 5 10 10 10 6 0 10 -4 10 -10z m637 -42 c-3 -7 -5 -2 -5 12 0 14
2 19 5 13 2 -7 2 -19 0 -25z m350 -5 c-3 -10 -5 -4 -5 12 0 17 2 24 5 18 2 -7
2 -21 0 -30z m-301 -155 c-3 -100 -9 -184 -14 -187 -5 -3 -13 -46 -20 -96 -12
-96 -41 -270 -50 -295 -10 -31 -18 36 -9 80 7 31 6 45 -2 48 -6 2 -11 11 -10
20 0 11 2 12 6 5 7 -19 33 -16 33 3 0 9 -8 18 -19 21 -19 5 -20 33 -5 132 7
41 12 36 23 -20 7 -36 9 -25 9 61 0 58 4 130 10 160 l11 55 -4 -72 c-3 -46 -1
-73 5 -73 11 0 13 28 14 205 1 100 7 135 23 135 3 0 3 -82 -1 -182z m351 30
c-3 -8 -6 -5 -6 6 -1 11 2 17 5 13 3 -3 4 -12 1 -19z m-436 -73 c-9 -30 -9
-30 -10 10 -1 25 2 36 9 29 6 -6 6 -21 1 -39z m408 -79 c-13 -75 -25 -91 -14
-18 9 63 16 94 22 89 2 -3 -1 -34 -8 -71z m-422 -8 c-3 -8 -6 -5 -6 6 -1 11 2
17 5 13 3 -3 4 -12 1 -19z m-30 -184 c-3 -30 -8 -58 -12 -62 -4 -4 -5 15 -1
42 3 27 6 55 6 62 0 8 3 14 6 14 3 0 4 -25 1 -56z m-288 -266 c1 -75 -3 -139
-7 -142 -4 -2 -9 6 -10 20 -1 13 -6 61 -11 106 -5 46 -6 128 -3 183 l5 100 13
-65 c7 -36 13 -127 13 -202z m230 132 c-1 -69 -5 -100 -12 -97 -18 6 -8 197 9
197 3 0 4 -45 3 -100z m-343 23 c4 -127 9 -180 17 -191 8 -10 7 -16 -2 -22 -8
-4 -11 -12 -7 -18 3 -6 2 -13 -3 -16 -13 -9 -26 136 -22 252 1 32 16 27 17 -5z
m3474 -117 c11 -25 24 -48 30 -51 12 -7 13 -25 2 -25 -8 0 -62 99 -62 113 0
17 11 4 30 -37z m-3140 -171 l-7 -70 -1 57 c-2 47 6 97 12 86 1 -2 -1 -34 -4
-73z"/>
<path d="M6494 25989 c-3 -6 -2 -15 3 -20 5 -5 9 -1 9 11 0 23 -2 24 -12 9z"/>
<path d="M9711 11211 c-8 -6 -9 -11 -3 -15 6 -3 14 -1 17 5 9 14 2 20 -14 10z"/>
<path d="M7271 12435 c1 -11 5 -31 9 -45 8 -24 8 -24 9 5 0 17 -4 37 -9 45 -8
12 -10 11 -9 -5z"/>
<path d="M7674 11045 c-19 -14 -19 -14 2 -15 12 0 24 7 28 15 7 19 -5 19 -30
0z"/>
<path d="M7710 10968 c0 -12 3 -18 7 -14 11 10 12 36 2 36 -5 0 -9 -10 -9 -22z"/>
<path d="M7696 10912 c-3 -6 -1 -14 5 -17 14 -9 20 -2 10 14 -6 8 -11 9 -15 3z"/>
<path d="M7777 10673 c-4 -3 -7 -11 -7 -17 0 -6 5 -5 12 2 6 6 9 14 7 17 -3 3
-9 2 -12 -2z"/>
<path d="M7806 10534 c-7 -18 12 -28 28 -14 11 8 15 8 20 -2 3 -7 5 -4 3 7 -3
23 -43 30 -51 9z"/>
<path d="M7877 10402 c-10 -10 -17 -23 -17 -28 0 -5 5 -1 11 9 5 9 17 17 24
17 8 0 15 5 15 10 0 16 -15 12 -33 -8z"/>
<path d="M7884 10285 c1 -22 2 -23 13 -9 12 17 9 34 -7 34 -4 0 -7 -11 -6 -25z"/>
<path d="M14145 8324 c-20 -15 -20 -16 4 -12 14 2 26 9 29 16 5 16 -9 15 -33
-4z"/>
<path d="M14185 8229 c-4 -6 -5 -12 -2 -15 2 -3 7 2 10 11 7 17 1 20 -8 4z"/>
<path d="M14255 8210 c3 -5 8 -10 11 -10 2 0 4 5 4 10 0 6 -5 10 -11 10 -5 0
-7 -4 -4 -10z"/>
<path d="M14272 8160 c-8 -13 -8 -20 -2 -20 6 0 13 7 17 15 9 24 -1 27 -15 5z"/>
<path d="M14302 8006 c7 -8 15 -12 17 -11 5 6 -10 25 -20 25 -5 0 -4 -6 3 -14z"/>
<path d="M14660 7080 c-20 -12 -10 -19 14 -10 11 3 15 9 10 13 -6 3 -16 2 -24
-3z"/>
<path d="M15024 5799 c-3 -6 -4 -11 -3 -12 2 -1 15 -8 27 -15 31 -18 33 -12 5
15 -13 13 -25 18 -29 12z"/>
<path d="M15253 5201 c-1 -10 5 -18 13 -18 17 0 18 11 1 25 -10 8 -13 7 -14
-7z"/>
<path d="M8673 5902 c0 -12 5 -22 9 -22 11 0 10 12 -2 30 -7 12 -9 10 -7 -8z"/>
<path d="M8675 5850 c-3 -6 1 -7 9 -4 18 7 21 14 7 14 -6 0 -13 -4 -16 -10z"/>
<path d="M8680 5790 c0 -5 9 -14 20 -20 23 -12 26 -5 6 16 -17 16 -26 18 -26
4z"/>
<path d="M8690 5741 c0 -6 5 -13 10 -16 6 -3 10 1 10 9 0 9 -4 16 -10 16 -5 0
-10 -4 -10 -9z"/>
<path d="M8695 5700 c3 -5 11 -10 16 -10 6 0 7 5 4 10 -3 6 -11 10 -16 10 -6
0 -7 -4 -4 -10z"/>
<path d="M8712 5640 c0 -14 2 -19 5 -12 2 6 2 18 0 25 -3 6 -5 1 -5 -13z"/>
<path d="M8710 5594 c0 -8 5 -12 10 -9 6 3 10 10 10 16 0 5 -4 9 -10 9 -5 0
-10 -7 -10 -16z"/>
<path d="M8720 5561 c0 -10 19 -25 25 -20 1 2 -3 10 -11 17 -8 7 -14 8 -14 3z"/>
<path d="M8738 5444 c-8 -7 2 -44 12 -44 4 0 5 11 2 25 -5 27 -6 28 -14 19z"/>
<path d="M8746 5375 c3 -11 6 -28 6 -37 0 -10 3 -18 8 -18 11 0 5 34 -10 57
-10 16 -11 16 -4 -2z"/>
<path d="M8762 5280 c0 -56 9 -94 18 -80 9 15 6 57 -8 90 -11 24 -11 24 -10
-10z"/>
<path d="M14685 21380 c-3 -5 1 -10 10 -10 9 0 13 5 10 10 -3 6 -8 10 -10 10
-2 0 -7 -4 -10 -10z"/>
<path d="M15225 20490 c3 -5 8 -10 11 -10 2 0 4 5 4 10 0 6 -5 10 -11 10 -5 0
-7 -4 -4 -10z"/>
<path d="M15350 20175 c-8 -9 -8 -15 -2 -15 12 0 26 19 19 26 -2 2 -10 -2 -17
-11z"/>
<path d="M15406 20115 c-9 -26 -7 -32 5 -12 6 10 9 21 6 23 -2 3 -7 -2 -11
-11z"/>
<path d="M15620 19600 c0 -5 5 -10 11 -10 5 0 7 5 4 10 -3 6 -8 10 -11 10 -2
0 -4 -4 -4 -10z"/>
<path d="M15745 19381 c-3 -5 -1 -12 5 -16 5 -3 10 1 10 9 0 18 -6 21 -15 7z"/>
<path d="M15805 19300 c-3 -5 -1 -10 4 -10 6 0 11 5 11 10 0 6 -2 10 -4 10 -3
0 -8 -4 -11 -10z"/>
<path d="M16555 17510 c-3 -5 -1 -10 4 -10 6 0 11 5 11 10 0 6 -2 10 -4 10 -3
0 -8 -4 -11 -10z"/>
<path d="M1897 11529 c7 -7 15 -10 18 -7 3 3 -2 9 -12 12 -14 6 -15 5 -6 -5z"/>
<path d="M17947 8663 c-3 -15 -1 -36 3 -47 7 -17 8 -13 8 15 -1 20 2 41 6 47
4 7 3 12 -2 12 -5 0 -12 -12 -15 -27z"/>
<path d="M17935 8260 c-3 -5 -2 -10 4 -10 5 0 13 5 16 10 3 6 2 10 -4 10 -5 0
-13 -4 -16 -10z"/>
<path d="M17961 8234 c0 -11 3 -14 6 -6 3 7 2 16 -1 19 -3 4 -6 -2 -5 -13z"/>
<path d="M17960 7765 c0 -8 7 -15 15 -15 8 0 15 4 15 9 0 5 -7 11 -15 15 -9 3
-15 0 -15 -9z"/>
<path d="M17958 7683 c-16 -2 -28 -9 -28 -14 0 -6 10 -8 23 -4 12 3 18 3 12
-2 -5 -4 -15 -18 -22 -30 -11 -19 -10 -22 6 -20 12 1 18 7 16 18 -3 12 1 16
11 12 10 -4 13 2 12 21 -1 14 -3 25 -3 25 0 -1 -12 -4 -27 -6z"/>
<path d="M17945 7280 c4 -6 11 -8 16 -5 14 9 11 15 -7 15 -8 0 -12 -5 -9 -10z"/>
<path d="M17750 4871 c0 -5 9 -7 20 -4 11 3 20 7 20 9 0 2 -9 4 -20 4 -11 0
-20 -4 -20 -9z"/>
<path d="M15936 2235 c4 -8 10 -15 15 -15 4 0 6 7 3 15 -4 8 -10 15 -15 15 -4
0 -6 -7 -3 -15z"/>
<path d="M15960 2034 c0 -8 5 -12 10 -9 6 4 8 11 5 16 -9 14 -15 11 -15 -7z"/>
<path d="M17245 1336 c-19 -13 -18 -14 8 -13 15 1 27 8 27 15 0 16 -12 15 -35
-2z"/>
<path d="M17031 1194 c0 -11 3 -14 6 -6 3 7 2 16 -1 19 -3 4 -6 -2 -5 -13z"/>
<path d="M17011 1094 c0 -11 3 -14 6 -6 3 7 2 16 -1 19 -3 4 -6 -2 -5 -13z"/>
<path d="M17001 1034 c0 -11 3 -14 6 -6 3 7 2 16 -1 19 -3 4 -6 -2 -5 -13z"/>
<path d="M14250 1020 c0 -5 5 -10 11 -10 5 0 7 5 4 10 -3 6 -8 10 -11 10 -2 0
-4 -4 -4 -10z"/>
<path d="M16953 970 c0 -25 2 -35 4 -22 2 12 2 32 0 45 -2 12 -4 2 -4 -23z"/>
<path d="M16921 934 c0 -11 3 -14 6 -6 3 7 2 16 -1 19 -3 4 -6 -2 -5 -13z"/>
<path d="M13889 20 l-24 -19 75 -1 c69 0 73 1 49 14 -49 25 -76 27 -100 6z"/>
</g>
</svg>
