<?xml version="1.0" standalone="no"?>
<!DOCTYPE svg PUBLIC "-//W3C//DTD SVG 20010904//EN"
 "http://www.w3.org/TR/2001/REC-SVG-20010904/DTD/svg10.dtd">
<svg version="1.0" xmlns="http://www.w3.org/2000/svg"
 width="631.000000pt" height="630.000000pt" viewBox="0 0 631.000000 630.000000"
 preserveAspectRatio="xMidYMid meet">

<g transform="translate(0.000000,630.000000) scale(0.100000,-0.100000)"
fill="#000000" stroke="none">
<path d="M243 6270 c-123 -29 -203 -139 -203 -280 0 -41 6 -95 14 -120 13 -43
12 -46 -10 -67 -31 -29 -30 -67 2 -100 20 -20 32 -24 58 -20 28 4 35 1 50 -24
17 -29 17 -30 -5 -48 -18 -15 -21 -24 -15 -54 4 -20 16 -43 29 -52 25 -17 73
-20 82 -4 5 7 15 3 30 -11 23 -21 23 -24 8 -47 -14 -21 -15 -30 -5 -55 12 -33
9 -48 -12 -48 -26 0 -95 -60 -122 -105 -50 -87 -27 -205 47 -236 39 -16 60 -4
75 42 9 27 20 37 52 48 35 13 45 13 83 -2 24 -9 82 -48 129 -86 80 -66 405
-402 590 -611 47 -52 165 -178 264 -280 98 -102 232 -247 297 -322 l119 -137
-26 -38 c-33 -48 -30 -120 6 -158 30 -32 46 -31 62 2 27 54 85 47 122 -16 15
-26 21 -61 26 -165 5 -90 12 -144 24 -174 l18 -42 -26 -21 c-15 -11 -33 -34
-41 -49 -17 -33 -20 -103 -5 -130 9 -16 4 -26 -30 -60 -38 -38 -41 -45 -38
-87 4 -63 25 -75 68 -40 17 15 40 27 51 27 18 0 17 -4 -11 -44 -63 -87 -136
-116 -198 -77 -42 27 -55 62 -46 127 5 46 4 53 -17 68 -59 41 -130 4 -147 -78
l-8 -41 -21 40 c-25 47 -124 146 -169 169 -112 56 -274 5 -274 -87 0 -41 20
-63 47 -49 19 10 52 15 90 13 30 -1 77 -44 98 -87 16 -35 16 -36 -4 -55 -12
-11 -21 -32 -21 -48 0 -35 33 -79 62 -83 14 -2 25 -15 34 -40 7 -21 9 -38 4
-38 -5 0 -16 -11 -25 -23 -29 -45 17 -117 65 -102 11 4 20 11 20 17 0 6 15 -6
33 -27 31 -36 33 -41 20 -66 -14 -29 -4 -76 20 -91 23 -15 76 -9 88 11 12 17
13 17 61 -3 61 -25 63 -54 5 -70 -78 -23 -147 -107 -147 -181 0 -42 32 -108
66 -134 20 -16 39 -21 67 -19 53 4 70 29 39 58 -12 11 -22 27 -22 35 0 14 55
65 72 65 5 0 46 -16 91 -37 66 -29 95 -36 147 -37 36 -1 74 2 85 6 20 8 20 4
20 -165 0 -192 6 -214 81 -297 73 -80 183 -103 240 -49 28 26 30 46 8 78 -21
29 -14 106 18 210 l23 73 25 -38 c35 -55 148 -114 180 -94 11 7 11 14 1 38
-17 41 -6 75 50 145 27 33 49 64 49 69 0 5 11 13 25 18 19 7 25 17 25 38 0 19
12 39 38 65 21 20 43 37 50 37 6 0 15 14 20 32 6 24 25 45 75 80 67 48 105 52
43 4 -48 -36 -179 -213 -222 -297 -19 -39 -46 -111 -59 -162 -40 -154 -48
-242 -41 -482 4 -124 2 -247 -3 -283 -17 -110 -64 -180 -133 -197 -18 -5 -33
0 -56 20 -26 21 -35 24 -52 15 -24 -13 -27 -56 -5 -87 8 -12 35 -29 60 -38 88
-34 184 6 247 103 l30 47 -6 -39 c-15 -104 -101 -218 -197 -261 -152 -68 -289
-15 -289 112 0 35 -5 46 -26 60 -24 16 -28 16 -59 -2 -46 -24 -69 -76 -69
-150 1 -103 64 -194 172 -247 60 -30 75 -33 162 -34 53 -1 105 -6 117 -13 87
-46 295 -3 410 85 25 19 44 24 90 24 95 0 191 67 244 171 26 51 59 180 59 231
l0 38 59 0 58 0 7 -87 c3 -49 9 -123 12 -165 8 -90 1 -123 -26 -138 -16 -9
-26 -7 -49 10 -33 23 -52 25 -69 8 -34 -34 13 -110 79 -128 46 -13 103 -1 143
31 29 23 30 23 16 -18 -6 -16 -24 -37 -40 -47 -58 -33 -28 -66 60 -66 69 0
124 31 157 88 l26 43 18 -40 c21 -48 84 -96 152 -116 72 -21 95 -19 128 14 42
43 37 65 -25 123 -67 61 -76 92 -76 266 l0 129 39 12 c50 15 101 73 130 147
11 31 21 62 21 70 0 8 3 14 8 13 16 -1 182 -201 182 -219 0 -24 -34 -60 -56
-60 -9 0 -27 11 -40 25 -32 35 -64 20 -64 -30 0 -109 161 -142 248 -52 17 18
37 49 44 70 l13 37 54 -54 c44 -45 54 -61 58 -97 4 -38 0 -51 -29 -94 -28 -42
-38 -50 -69 -53 -39 -3 -60 14 -76 63 -13 42 -45 44 -83 6 -35 -35 -38 -67
-11 -128 41 -90 185 -127 293 -74 48 23 148 122 195 192 l26 40 41 -39 c23
-21 69 -62 103 -91 34 -29 65 -61 68 -72 10 -30 -13 -50 -54 -47 -46 2 -61 -7
-61 -38 0 -32 52 -64 105 -64 83 0 150 59 149 130 -1 22 1 40 4 40 3 0 24 -11
46 -24 70 -41 170 -66 261 -66 94 0 129 10 202 56 69 44 315 289 336 336 9 20
17 58 17 85 0 149 -183 298 -265 217 -22 -23 -18 -42 16 -73 37 -35 50 -97 26
-131 l-16 -23 -14 35 c-19 45 -71 88 -107 88 -65 0 -100 -79 -45 -100 15 -6
25 -17 25 -29 0 -30 -48 -79 -89 -92 -53 -16 -95 0 -166 61 l-56 50 28 10 c15
6 34 13 42 16 79 28 295 234 342 326 37 73 17 169 -48 229 -87 81 -203 78
-203 -6 0 -27 6 -37 35 -54 41 -24 60 -59 51 -95 -7 -30 -26 -35 -26 -7 0 32
-48 80 -86 87 -75 14 -115 -54 -48 -82 45 -19 43 -49 -5 -81 -55 -37 -98 -31
-162 23 -89 76 -87 70 -43 92 22 11 107 85 189 164 83 80 161 150 174 157 37
20 87 5 132 -40 39 -39 48 -62 29 -74 -19 -11 -10 -45 14 -56 33 -15 63 3 85
52 l18 39 46 -58 c64 -78 82 -126 68 -180 -8 -29 -20 -45 -39 -54 -57 -27 -35
-78 33 -78 57 0 96 33 135 115 55 115 38 190 -70 308 l-59 64 45 6 c55 6 99
44 116 99 13 44 2 96 -25 112 -16 9 -24 5 -50 -27 -49 -57 -72 -52 -170 41
-46 42 -100 86 -120 97 -33 17 -37 23 -31 45 24 86 19 194 -14 271 -11 24 -54
90 -96 145 -93 124 -96 142 -31 208 25 26 45 50 45 56 0 17 -42 32 -72 26 -74
-15 -128 -92 -128 -183 l0 -51 -40 10 c-82 21 -170 -12 -217 -81 -28 -42 -30
-101 -5 -124 27 -24 45 -21 75 13 31 35 47 36 104 11 47 -22 63 -45 63 -93 0
-64 -19 -104 -73 -155 -187 -177 -174 -168 -231 -167 -28 0 -63 7 -78 15 -25
13 -293 242 -303 260 -3 4 18 15 47 23 29 9 71 30 94 48 22 18 142 146 266
283 272 302 346 378 388 400 47 24 79 13 97 -35 9 -22 24 -42 35 -46 23 -7 69
21 75 46 3 10 18 27 34 39 24 18 29 29 29 65 0 40 2 44 30 50 23 4 35 15 46
42 12 28 18 33 28 24 21 -16 29 -60 16 -89 -6 -14 -26 -36 -45 -49 -64 -41
-35 -102 49 -102 72 0 135 60 176 169 41 106 15 204 -80 302 -40 43 -48 56
-37 64 34 25 47 87 26 126 -8 17 -3 28 35 70 25 28 57 74 71 104 55 117 15
255 -75 255 -50 0 -63 -35 -30 -77 11 -14 20 -35 20 -46 0 -27 -43 -82 -93
-118 -55 -40 -98 -38 -180 5 -99 53 -167 70 -258 63 -46 -3 -96 -13 -124 -26
-26 -12 -51 -21 -55 -21 -4 0 -12 18 -19 41 -15 49 -69 111 -118 134 l-37 18
45 38 c104 90 163 99 198 31 27 -52 39 -60 103 -68 55 -6 56 -6 101 36 58 52
81 117 80 216 l-2 72 40 -10 c146 -38 319 167 319 378 0 121 -61 224 -162 272
-126 62 -278 -19 -278 -149 0 -35 -2 -40 -17 -34 -46 20 -117 34 -144 28 -33
-6 -35 -3 -15 35 19 36 49 63 192 171 159 120 310 276 355 367 31 63 34 77 34
159 0 109 -22 160 -100 235 -72 68 -140 83 -188 42 -26 -23 -21 -57 16 -98 38
-44 42 -96 12 -154 -18 -34 -152 -180 -165 -180 -4 0 -10 19 -14 42 -23 143
-135 248 -267 248 -171 0 -293 -132 -243 -263 5 -14 0 -14 -33 -5 -21 6 -63 8
-94 5 l-57 -5 95 126 c124 163 267 379 307 462 28 59 31 74 31 160 -1 74 -6
107 -23 151 -28 71 -89 141 -145 168 -57 28 -140 28 -185 1 -61 -38 -64 -112
-5 -126 73 -17 113 -61 113 -121 0 -35 -37 -113 -83 -177 -32 -44 -36 -46 -42
-27 -11 36 -101 118 -150 136 -40 16 -53 16 -99 6 -130 -29 -231 -156 -198
-249 10 -29 9 -30 -31 -36 -23 -3 -52 -9 -64 -12 -22 -6 -21 -3 12 52 60 99
79 160 79 249 0 69 -4 89 -30 145 -34 72 -94 138 -152 166 -50 26 -173 26
-220 1 -74 -40 -66 -104 17 -134 70 -24 91 -43 101 -88 12 -52 4 -87 -38 -173
-42 -85 -52 -95 -52 -53 0 74 -79 229 -143 281 -125 101 -343 66 -392 -64 -25
-65 -14 -129 30 -173 l33 -33 -32 -14 c-74 -31 -137 -110 -154 -193 -8 -37 -9
-38 -62 -44 -30 -3 -67 -9 -81 -13 -25 -7 -26 -5 -32 39 -15 107 -82 196 -182
241 -72 32 -121 37 -202 20 -147 -30 -243 -98 -262 -184 -9 -47 -8 -59 23
-197 21 -95 20 -166 -5 -260 -41 -157 -129 -308 -355 -610 -125 -166 -169
-235 -224 -345 -18 -36 -34 -67 -37 -70 -8 -9 -286 278 -314 325 -49 85 -32
168 34 162 28 -2 32 1 35 26 2 20 -5 35 -27 57 -25 26 -37 30 -82 30 -48 0
-55 -3 -94 -42 -23 -24 -44 -50 -47 -58 -9 -25 -358 353 -398 430 -33 65 -26
111 21 136 35 18 37 37 4 69 -35 36 -85 34 -130 -6 -19 -17 -39 -45 -43 -61
l-8 -31 -71 79 c-142 157 -224 259 -235 295 -14 50 -3 87 32 107 51 29 34 84
-38 121 -17 9 -31 9 -57 1 -36 -12 -95 -71 -95 -95 0 -29 -20 -14 -84 60 -98
116 -118 170 -71 201 33 21 32 39 -4 75 -36 36 -70 37 -110 3 l-31 -26 0 56
c0 57 22 96 53 96 23 0 49 37 42 59 -9 30 -70 79 -112 90 -43 12 -64 12 -110
1z m4438 -1989 c16 -16 29 -39 29 -50 0 -25 -3 -25 -40 -6 -15 8 -42 16 -59
17 -37 3 -39 11 -6 43 31 32 40 31 76 -4z m-2816 -111 c-8 -9 -15 -26 -15 -37
0 -16 -9 -22 -42 -27 -23 -4 -57 -14 -76 -23 -42 -20 -88 -89 -97 -145 l-7
-40 -39 38 c-47 46 -49 70 -11 145 31 61 94 107 159 116 33 4 41 10 51 36 l12
31 40 -39 c36 -35 38 -40 25 -55z m2812 19 c55 -27 120 -92 128 -131 6 -28 1
-36 -56 -94 l-63 -64 -28 31 c-55 60 -161 77 -258 40 -29 -11 -47 -14 -43 -8
27 46 175 237 190 246 23 14 76 6 130 -20z m-2678 -150 c-5 -10 -9 -36 -9 -57
0 -35 -2 -39 -20 -35 -32 8 -106 -25 -139 -62 -34 -40 -46 -88 -37 -148 8 -49
10 -51 -83 61 -69 84 -75 112 -40 187 28 60 67 86 138 94 53 6 56 7 59 36 7
61 21 60 83 -1 47 -46 56 -61 48 -75z m2892 112 l24 -20 -34 -35 c-37 -38 -51
-44 -51 -22 0 7 -11 29 -24 49 -27 39 -23 45 30 46 18 1 42 -8 55 -18z m-507
-526 c-4 -18 -11 -24 -21 -21 -8 3 -19 6 -24 6 -5 0 1 15 13 34 17 26 25 31
31 21 4 -8 5 -26 1 -40z m979 4 c60 -49 99 -148 64 -162 -6 -2 -38 -26 -70
-51 l-57 -47 0 34 c0 46 -37 98 -87 122 l-42 20 50 58 c60 68 86 73 142 26z
m-980 -87 c36 -34 69 -97 99 -192 20 -66 23 -95 23 -240 0 -141 -4 -178 -24
-255 -42 -159 -86 -240 -164 -296 -35 -25 -48 -29 -110 -29 -67 0 -70 1 -104
38 -33 35 -99 120 -117 150 -7 11 -4 12 11 3 37 -19 103 -29 136 -20 41 11 93
63 122 119 46 91 58 154 59 325 1 152 0 163 -24 210 -18 36 -33 53 -55 60 -16
5 -32 10 -34 11 -1 2 21 37 50 79 47 69 55 76 78 70 14 -4 39 -18 54 -33z
m210 -33 c36 -16 57 -60 57 -121 0 -64 -25 -118 -63 -136 -36 -17 -43 -11 -57
47 -11 46 -10 50 14 74 14 15 26 35 26 47 0 26 -12 26 -28 0 -19 -31 -35 -24
-56 25 -14 36 -16 48 -6 60 15 18 78 20 113 4z m631 -20 c39 -31 59 -76 53
-120 -4 -28 -26 -64 -88 -141 -115 -143 -219 -266 -318 -378 -46 -52 -102
-119 -124 -147 -22 -29 -43 -53 -47 -53 -4 0 17 100 48 223 51 206 58 226 96
277 23 30 44 59 48 64 4 7 16 2 30 -11 13 -11 39 -26 59 -33 32 -11 41 -11 74
6 53 26 80 64 70 101 l-8 28 -8 -32 c-11 -39 -62 -83 -97 -83 -31 0 -92 34
-92 51 0 11 20 37 149 192 56 67 68 77 96 77 18 0 44 -9 59 -21z m-1001 -98
c13 -5 31 -24 39 -43 37 -79 30 -362 -12 -469 -42 -106 -107 -164 -170 -154
-64 11 -121 45 -136 81 -19 45 -18 47 16 29 39 -20 105 -19 142 3 46 27 85
119 104 244 9 58 14 121 10 140 -9 49 -42 98 -66 98 -25 0 -25 5 1 46 22 36
33 40 72 25z m-1290 -58 c29 -32 67 -108 67 -138 0 -16 -4 -15 -20 10 -81 128
-291 80 -375 -84 -48 -96 -41 -211 17 -277 38 -43 18 -45 -42 -5 -64 43 -90
92 -90 170 0 80 25 133 99 214 95 102 156 135 257 136 53 1 63 -2 87 -26z
m3215 -85 c4 -33 -13 -68 -33 -68 -9 0 -33 13 -54 28 l-40 29 47 21 c59 26 76
24 80 -10z m-3228 -10 c46 -31 80 -102 73 -150 -5 -40 -23 -53 -23 -17 0 33
-42 99 -72 115 -36 19 -98 18 -128 -3 -41 -27 -91 -76 -106 -105 -41 -78 13
-248 78 -248 10 0 18 -4 18 -10 0 -17 -61 -11 -94 9 -52 33 -71 75 -71 161 0
80 17 126 70 188 62 74 189 104 255 60z m-31 -73 c36 -18 64 -77 64 -136 1
-41 -4 -53 -38 -91 -59 -65 -91 -89 -127 -94 -65 -11 -118 59 -118 154 0 59
25 101 88 149 48 36 86 42 131 18z m1750 -182 c20 -23 23 -34 19 -92 -4 -79
-31 -137 -78 -168 -29 -21 -89 -31 -101 -18 -3 2 4 34 15 70 19 61 23 65 46
60 27 -5 37 -1 60 29 14 18 13 19 -13 12 -16 -4 -37 -4 -47 -1 -16 5 -17 11
-9 38 5 17 9 46 9 64 0 17 6 34 13 37 23 9 62 -5 86 -31z m1275 -1 c25 -12 57
-32 71 -46 28 -29 33 -77 10 -96 -13 -11 -24 -3 -73 50 -40 44 -75 71 -117 91
l-60 28 61 -4 c34 -1 82 -12 108 -23z m-135 -27 c63 -22 98 -51 131 -108 33
-57 39 -117 15 -137 -9 -7 -17 -11 -18 -9 -1 2 -10 20 -19 40 -24 54 -77 110
-123 130 -50 23 -152 25 -202 4 -63 -27 -56 -14 28 49 68 52 111 59 188 31z
m-2152 -91 c-3 -3 -12 -4 -19 -1 -8 3 -5 6 6 6 11 1 17 -2 13 -5z m2133 -26
c81 -41 139 -162 95 -198 -19 -16 -40 0 -49 35 -8 31 -59 58 -94 50 -55 -12
-145 -99 -437 -425 -211 -236 -257 -282 -310 -306 -77 -37 -113 -32 -163 19
l-42 42 48 22 c67 31 127 87 229 211 176 216 396 464 447 502 96 73 193 89
276 48z m-1997 -215 c-13 -2 -33 -2 -45 0 -13 2 -3 4 22 4 25 0 35 -2 23 -4z
m-363 -88 c19 -22 8 -25 -12 -3 -10 10 -14 18 -9 18 5 0 14 -7 21 -15z m981
-5 c15 -8 19 -22 19 -61 0 -45 -4 -55 -34 -85 -26 -26 -43 -34 -69 -34 -43 0
-67 8 -67 24 0 6 -16 37 -35 70 -25 40 -31 57 -20 52 9 -3 22 -6 28 -6 7 0 20
-14 29 -30 12 -21 25 -30 43 -30 30 0 32 11 5 28 -22 14 -27 42 -7 42 7 0 28
9 47 19 42 24 37 23 61 11z m-809 -35 c9 -4 13 -16 10 -34 -5 -36 36 -71 83
-71 38 0 87 34 78 55 -9 26 41 18 52 -7 14 -32 58 -45 98 -29 49 20 57 18 82
-14 l23 -30 -26 -31 c-26 -30 -29 -31 -82 -25 -39 5 -63 14 -78 29 l-23 23
-29 -25 c-58 -49 -130 -45 -184 8 -26 27 -38 32 -64 28 -24 -3 -32 0 -32 11 0
8 -3 29 -6 46 -6 29 -5 31 25 31 20 0 35 7 43 20 7 11 14 20 15 20 1 0 8 -2
15 -5z m2188 -55 c0 -5 -9 -14 -21 -20 -28 -15 -59 -69 -59 -103 0 -37 11 -55
82 -145 74 -94 107 -158 119 -234 13 -80 -3 -154 -45 -215 -34 -50 -44 -57
-63 -45 -9 5 -3 25 20 72 28 56 32 74 32 145 0 73 -4 89 -35 150 -22 43 -59
93 -99 133 -60 60 -63 65 -63 112 0 56 30 118 70 143 30 18 62 22 62 7z
m-2330 -34 c0 -2 -8 -10 -17 -17 -16 -13 -17 -12 -4 4 13 16 21 21 21 13z m12
-106 c-3 -66 -2 -71 26 -100 23 -22 40 -30 66 -30 45 0 46 -14 4 -41 -65 -40
-137 -5 -183 91 l-28 58 22 31 c12 17 31 31 40 31 10 0 24 7 31 15 22 26 25
17 22 -55z m98 42 c0 -5 -18 -16 -41 -25 -36 -14 -40 -14 -35 -1 3 9 6 20 6
25 0 5 16 9 35 9 19 0 35 -4 35 -8z m2031 -124 c50 -17 128 -85 169 -150 70
-107 73 -229 10 -329 -23 -38 -35 -48 -66 -54 -62 -11 -94 -33 -205 -140 -112
-108 -188 -155 -248 -155 -57 0 -125 48 -276 192 -77 73 -174 161 -216 195
-41 34 -108 92 -148 130 l-73 68 20 70 c12 39 24 87 27 108 4 20 9 37 12 37 3
0 64 -58 137 -129 221 -217 444 -408 495 -426 97 -33 130 -18 278 125 106 102
123 133 123 221 0 57 -21 85 -84 115 -68 32 -92 30 -127 -8 -33 -35 -51 -29
-51 17 0 38 31 76 82 103 49 25 90 28 141 10z m-2614 -26 c-10 -10 -15 -21
-12 -24 3 -2 -7 -10 -21 -17 -25 -11 -24 -10 7 24 34 36 56 50 26 17z m62 -16
c-3 -3 -11 5 -18 17 -13 21 -12 21 5 5 10 -10 16 -20 13 -22z m55 -56 c16 -16
17 -21 6 -35 -7 -9 -27 -23 -44 -32 -42 -21 -76 -53 -87 -81 -11 -29 -27 -20
-45 24 -30 72 -14 115 51 139 47 18 93 12 119 -15z m-217 -57 c-3 -10 -5 -2
-5 17 0 19 2 27 5 18 2 -10 2 -26 0 -35z m-24 -10 c-7 -2 -19 -2 -25 0 -7 3
-2 5 12 5 14 0 19 -2 13 -5z m21 -29 c8 -3 25 -26 37 -51 l22 -45 -36 -32
c-20 -17 -39 -43 -43 -58 -3 -16 -8 -28 -11 -28 -17 0 -67 48 -88 84 -43 73
-32 99 53 122 26 7 48 13 49 13 1 1 8 -2 17 -5z m786 -63 c0 -35 36 -90 73
-111 25 -14 30 -13 66 6 l39 21 13 -23 c7 -13 23 -31 36 -39 30 -20 29 -30 -9
-65 -37 -33 -59 -37 -78 -15 -14 17 -46 20 -55 5 -19 -31 -106 26 -131 87 -19
43 -18 113 2 141 22 31 44 28 44 -7z m207 -48 c-3 -10 -5 -4 -5 12 0 17 2 24
5 18 2 -7 2 -21 0 -30z m728 -24 c28 -28 95 -87 149 -132 55 -44 159 -138 231
-208 180 -173 236 -203 326 -176 65 20 121 61 219 161 150 152 215 162 375 57
91 -60 337 -309 370 -375 31 -61 31 -79 3 -153 -27 -74 -86 -136 -124 -131
-34 4 -42 24 -14 33 49 15 66 124 31 193 -25 49 -136 177 -197 227 -77 64
-106 82 -152 94 -74 20 -110 3 -210 -102 -192 -202 -235 -234 -338 -244 -100
-10 -130 13 -474 353 l-304 302 13 53 c18 72 29 99 39 99 4 0 30 -23 57 -51z
m-655 -55 c0 -8 -19 -13 -24 -6 -3 5 1 9 9 9 8 0 15 -2 15 -3z m-1136 -33 c16
-18 15 -21 -30 -72 -58 -66 -86 -126 -78 -168 l6 -31 -32 11 c-43 16 -107 78
-116 114 -6 25 -3 33 24 55 18 14 57 34 87 44 30 9 67 28 83 41 33 30 35 30
56 6z m-154 -15 c0 -2 -7 -7 -16 -10 -8 -3 -12 -2 -9 4 6 10 25 14 25 6z m-41
-20 c-15 -13 -49 -25 -49 -17 0 5 8 12 18 14 24 6 36 8 31 3z m2565 -694 c158
-149 275 -252 300 -263 89 -40 161 -15 250 88 66 77 79 104 70 147 -7 33 -50
86 -70 86 -18 0 -26 30 -13 46 15 18 73 18 107 0 31 -16 74 -61 91 -93 6 -12
11 -44 11 -70 0 -64 -30 -110 -152 -234 -76 -77 -110 -104 -173 -135 -69 -34
-88 -39 -150 -39 l-71 0 -239 220 c-268 245 -439 413 -599 587 l-108 118 17
77 c9 43 21 95 26 116 l10 38 217 -222 c119 -122 334 -332 476 -467z m866 533
c50 -47 102 -88 116 -91 33 -8 90 18 99 45 11 35 25 23 25 -21 -1 -76 -54
-114 -134 -96 -28 6 -59 28 -108 74 -57 53 -91 79 -187 141 -2 1 7 15 20 31
22 27 26 28 51 16 15 -8 68 -52 118 -99z m-2310 -29 c0 -2 -6 -9 -14 -15 -11
-9 -16 -9 -22 0 -4 7 -3 9 4 5 6 -3 13 -2 17 4 6 10 15 14 15 6z m49 -25 c10
-7 11 -13 1 -31 -11 -21 -13 -61 -7 -145 2 -23 -4 -32 -24 -42 -39 -19 -113
-2 -150 33 -36 35 -37 44 0 44 38 0 74 30 116 96 36 56 41 59 64 45z m-109
-64 c0 -2 -10 -12 -22 -23 l-23 -19 19 23 c18 21 26 27 26 19z m2180 -58 c20
-9 59 -39 88 -66 44 -41 52 -55 52 -84 0 -24 -7 -42 -22 -55 -21 -19 -21 -19
-14 1 19 47 17 54 -25 100 -51 55 -86 75 -131 75 -47 0 -76 -22 -226 -168
-162 -158 -194 -181 -258 -188 -45 -5 -52 -2 -87 28 l-38 33 63 0 c108 0 160
32 318 196 162 168 183 177 280 128z m-2460 18 c0 -2 -10 -12 -22 -23 l-23
-19 19 23 c18 21 26 27 26 19z m475 -27 c3 -5 1 -10 -4 -10 -6 0 -11 5 -11 10
0 6 2 10 4 10 3 0 8 -4 11 -10z m-395 -63 c0 -2 -17 -19 -37 -38 l-38 -34 34
38 c33 34 41 42 41 34z m245 -56 l29 -6 -28 -23 c-16 -12 -37 -22 -47 -22 -19
0 -51 38 -43 52 6 9 44 9 89 -1z m-458 -143 c-3 -8 -6 -5 -6 6 -1 11 2 17 5
13 3 -3 4 -12 1 -19z m316 -49 c15 -15 41 -30 57 -34 17 -4 30 -10 30 -14 0
-15 -52 -61 -69 -61 -24 0 -103 58 -134 98 l-28 37 28 6 c16 3 38 11 48 17 16
9 22 8 30 -5 6 -10 22 -30 38 -44z m1151 -324 c118 -122 224 -241 235 -263 31
-60 27 -108 -12 -170 -45 -72 -144 -171 -192 -193 -80 -37 -195 -15 -243 46
-25 31 -30 103 -10 123 20 20 48 15 48 -9 0 -11 13 -34 29 -50 43 -42 93 -40
136 5 38 41 65 94 65 130 0 51 -28 92 -116 175 -49 45 -143 140 -210 209
l-121 127 18 105 c10 58 18 106 18 108 2 11 170 -151 355 -343z m-1467 268
c-3 -10 -5 -2 -5 17 0 19 2 27 5 18 2 -10 2 -26 0 -35z m130 12 c50 6 56 5 90
-25 19 -17 46 -36 59 -42 30 -14 30 -17 -1 -51 -32 -34 -46 -34 -120 2 -68 34
-84 46 -108 81 -25 36 -23 54 4 39 14 -7 41 -9 76 -4z m2306 -37 c25 -30 22
-83 -9 -124 -53 -69 -124 -91 -198 -60 -40 17 -178 144 -170 157 3 6 35 -18
71 -51 85 -80 117 -95 169 -81 118 32 153 105 75 158 -26 18 -29 22 -14 26 27
7 56 -3 76 -25z m-2016 -35 c-3 -10 -5 -2 -5 17 0 19 2 27 5 18 2 -10 2 -26 0
-35z m-367 -18 c13 -14 21 -25 18 -25 -2 0 -15 11 -28 25 -13 14 -21 25 -18
25 2 0 15 -11 28 -25z m290 -19 c0 -2 -7 -7 -16 -10 -8 -3 -12 -2 -9 4 6 10
25 14 25 6z m-75 -86 c-10 -11 -22 -20 -27 -20 -4 0 -8 9 -8 20 0 15 7 20 27
20 25 0 26 0 8 -20z m-278 -122 c-3 -7 -5 -2 -5 12 0 14 2 19 5 13 2 -7 2 -19
0 -25z m70 -45 c-3 -10 -5 -4 -5 12 0 17 2 24 5 18 2 -7 2 -21 0 -30z m-80
-15 c-3 -8 -6 -5 -6 6 -1 11 2 17 5 13 3 -3 4 -12 1 -19z m-137 -332 c0 -2 -8
-10 -17 -17 -16 -13 -17 -12 -4 4 13 16 21 21 21 13z m70 -49 c0 -2 -17 -19
-37 -38 l-38 -34 34 38 c33 34 41 42 41 34z m-150 -30 c0 -2 -10 -12 -22 -23
l-23 -19 19 23 c18 21 26 27 26 19z m-250 -147 c-8 -5 -24 -9 -35 -9 -16 1
-16 2 5 9 35 11 48 11 30 0z m77 -6 c-3 -3 -12 -4 -19 -1 -8 3 -5 6 6 6 11 1
17 -2 13 -5z"/>
</g>
</svg>
