<?xml version="1.0" standalone="no"?>
<!DOCTYPE svg PUBLIC "-//W3C//DTD SVG 20010904//EN"
 "http://www.w3.org/TR/2001/REC-SVG-20010904/DTD/svg10.dtd">
<svg version="1.0" xmlns="http://www.w3.org/2000/svg"
 width="859.000000pt" height="902.000000pt" viewBox="0 0 859.000000 902.000000"
 preserveAspectRatio="xMidYMid meet">

<g transform="translate(0.000000,902.000000) scale(0.100000,-0.100000)"
fill="#000000" stroke="none">
<path d="M4583 8920 c0 -47 2 -66 4 -42 2 23 2 61 0 85 -2 23 -4 4 -4 -43z"/>
<path d="M4726 8910 c-29 -79 -30 -84 -17 -75 11 6 55 134 48 141 -2 3 -16
-27 -31 -66z"/>
<path d="M4411 8959 c-1 -24 40 -139 49 -139 5 0 -1 28 -14 63 -13 34 -26 69
-29 77 -5 13 -6 13 -6 -1z"/>
<path d="M4992 8753 c-24 -20 -54 -124 -42 -143 5 -8 13 10 20 46 7 32 17 67
22 77 14 26 57 18 81 -16 20 -26 21 -38 18 -280 -2 -138 -6 -310 -10 -382 l-6
-130 -65 -18 c-218 -59 -794 -67 -927 -11 l-33 13 0 199 0 200 49 32 c46 29
50 34 47 68 -2 20 1 42 6 49 24 30 -30 42 -84 18 -16 -6 -18 0 -19 51 -3 120
2 159 20 184 38 52 69 21 86 -84 5 -32 8 -36 18 -23 8 10 59 23 147 38 165 27
383 29 505 5 90 -18 107 -19 85 -7 -38 23 -176 41 -309 41 -130 0 -167 -4
-402 -47 -24 -4 -27 -1 -33 34 -11 57 -31 83 -66 83 -47 0 -63 -43 -68 -176
l-4 -112 -44 -36 c-67 -56 -93 -144 -63 -210 12 -25 78 -76 99 -76 5 0 10 -22
10 -48 0 -37 -5 -54 -21 -68 -12 -10 -30 -36 -40 -57 l-19 -37 -43 21 c-125
63 -252 184 -410 390 -102 133 -171 203 -245 246 -128 75 -287 100 -442 69
-137 -28 -235 -65 -410 -155 -91 -46 -190 -93 -220 -103 -51 -17 -52 -18 -15
-14 23 3 113 42 209 91 262 134 400 176 579 174 227 -1 345 -75 548 -341 93
-122 205 -243 268 -290 l34 -26 -19 -41 c-11 -22 -21 -41 -24 -41 -10 0 -131
110 -169 153 -21 25 -84 106 -140 180 -193 257 -305 327 -519 327 -165 0 -304
-44 -539 -172 -159 -87 -233 -114 -287 -104 -51 10 -45 26 12 28 l47 1 -55 7
c-55 6 -53 15 5 23 24 3 21 4 -12 6 -23 0 -44 7 -47 14 -3 6 -4 -8 -1 -32 8
-59 9 -61 61 -61 66 0 141 29 307 118 379 204 646 210 861 22 21 -19 90 -104
154 -190 64 -85 139 -179 166 -209 47 -49 157 -141 170 -141 3 0 28 -13 56
-30 28 -16 61 -32 75 -36 19 -5 26 -14 30 -43 3 -20 14 -57 24 -83 18 -46 18
-49 1 -83 -14 -27 -17 -49 -13 -95 6 -58 5 -60 -18 -61 -21 -1 -21 -2 -4 -6
31 -8 37 -18 30 -56 -7 -35 -8 -35 -63 -41 -32 -3 -153 -8 -269 -12 l-213 -6
0 51 0 51 238 3 237 2 -241 3 -242 2 -11 48 c-7 26 -23 71 -36 100 -23 51 -24
55 -9 84 39 76 -21 171 -121 191 -29 6 -29 6 -5 -4 75 -32 91 -44 111 -85 24
-50 19 -74 -18 -104 -31 -24 -60 -26 -83 -5 -9 9 -37 21 -61 28 -43 13 -44 13
-47 61 -2 32 2 56 14 73 15 23 15 25 1 20 -9 -3 -38 3 -64 15 -36 16 -72 21
-157 23 l-111 3 100 -8 c99 -8 142 -17 184 -39 20 -11 21 -13 5 -44 -9 -17
-17 -48 -17 -70 0 -27 -5 -41 -19 -48 -16 -9 -25 -4 -57 32 -33 38 -42 42 -92
47 -67 5 -111 -14 -139 -61 -24 -39 -26 -106 -5 -147 28 -55 116 -82 179 -56
34 14 37 14 42 -2 21 -67 49 -88 92 -69 16 8 26 7 34 -1 30 -30 123 6 130 49
2 15 12 25 28 29 19 4 26 13 28 37 2 18 -1 41 -7 51 -10 18 2 42 20 42 22 0
79 -193 79 -270 0 -155 -81 -321 -191 -395 -78 -52 -150 -117 -203 -183 l-51
-64 -59 5 c-63 6 -82 17 -73 41 8 21 50 20 90 -1 29 -15 31 -15 19 0 -12 14
-11 21 7 46 12 16 42 48 68 70 25 23 42 41 37 41 -5 -1 -25 -14 -44 -30 -30
-27 -42 -30 -100 -30 -36 0 -90 6 -120 14 -29 8 -58 12 -64 10 -7 -2 -31 -34
-55 -69 -41 -61 -47 -65 -82 -65 -39 0 -69 20 -69 46 0 23 31 29 62 11 16 -9
26 -12 23 -7 -8 14 18 60 54 94 30 29 45 60 17 37 -27 -22 -144 86 -190 177
-28 56 -56 156 -56 202 l0 33 65 -7 c42 -4 65 -3 65 4 0 5 -13 10 -28 10 -111
0 -349 68 -460 131 l-54 32 6 40 c4 23 8 42 9 44 2 1 52 -22 112 -52 61 -30
148 -66 195 -79 98 -27 236 -44 225 -27 -3 6 -23 11 -43 11 -20 0 -48 3 -60 7
-21 5 -23 10 -18 37 9 45 81 186 114 221 65 71 145 124 227 152 40 13 40 13 5
8 -94 -14 -230 -117 -294 -224 -19 -31 -42 -84 -52 -119 -21 -75 -22 -75 -156
-31 -80 26 -227 95 -250 118 -13 12 13 181 43 283 16 53 29 107 29 118 0 32
-35 25 -50 -10 -10 -23 -21 -31 -53 -37 -30 -6 -43 -14 -45 -28 -2 -18 -2 -19
8 -2 18 28 29 20 20 -13 -5 -18 -5 -30 1 -30 5 0 9 11 9 24 0 25 26 54 37 42
4 -4 2 -16 -5 -27 -14 -21 -8 -39 11 -39 8 0 8 3 -1 9 -10 6 -11 14 -4 27 5
11 17 36 26 57 15 36 36 50 36 25 0 -7 -9 -42 -20 -78 -71 -230 -100 -665 -65
-961 18 -149 50 -280 107 -431 44 -119 43 -129 -14 -143 -24 -6 -28 -3 -48 42
-42 92 -98 279 -121 403 -22 115 -24 149 -23 425 0 165 5 320 10 344 8 39 14
46 42 53 19 5 33 15 33 26 4 46 4 58 -5 70 -4 6 -17 12 -27 12 -17 0 -19 6
-14 43 l5 42 -11 -44 c-6 -26 -24 -57 -43 -76 -50 -50 -55 -97 -16 -155 15
-22 16 -39 9 -130 -37 -489 44 -889 250 -1220 l46 -75 -3 -85 c-4 -96 13 -158
54 -201 21 -22 26 -40 35 -140 6 -63 19 -154 30 -204 10 -49 19 -94 19 -100 0
-8 -43 -3 -130 15 -115 23 -135 30 -163 58 -57 56 -111 35 -77 -29 9 -15 5
-29 -15 -63 -24 -40 -31 -46 -78 -55 -29 -6 -113 -22 -187 -36 -248 -48 -609
-148 -823 -229 -62 -23 -71 -24 -90 -11 -13 9 -44 15 -78 15 l-56 0 -12 43
c-7 23 -28 72 -46 108 l-34 67 26 23 c36 34 144 174 179 234 46 77 84 169 84
203 0 25 -4 30 -30 34 -34 5 -50 -9 -70 -62 -25 -67 -131 -236 -200 -319 -83
-100 -88 -125 -39 -217 17 -33 39 -80 50 -106 l18 -47 -34 -52 c-19 -28 -35
-54 -35 -58 0 -4 -33 -24 -73 -46 -277 -149 -409 -264 -378 -331 13 -29 55
-41 95 -26 36 14 34 15 81 -72 45 -84 101 -173 115 -181 6 -4 1 -18 -15 -37
-50 -59 -44 -110 13 -116 22 -2 51 8 99 36 98 57 185 103 188 100 1 -2 14 -21
28 -42 31 -47 94 -92 151 -107 23 -6 75 -9 118 -6 65 4 89 11 144 41 l65 36
57 -34 c150 -91 309 -62 422 76 39 47 100 140 100 152 0 12 -41 66 -50 66 -4
0 -47 -45 -95 -100 -96 -111 -144 -143 -216 -144 -50 -1 -153 40 -145 58 53
117 59 141 52 213 l-6 72 38 10 c87 24 169 41 194 41 15 0 33 6 40 14 24 24
221 54 246 38 10 -7 10 -26 0 -103 -17 -131 -17 -643 1 -779 15 -123 34 -219
54 -274 13 -39 13 -40 -37 -122 -48 -78 -52 -82 -81 -77 -21 3 -38 -2 -57 -17
-29 -22 -139 -183 -224 -327 -27 -46 -55 -83 -62 -83 -7 0 -32 -20 -56 -43
-49 -50 -77 -119 -75 -188 1 -31 -6 -60 -25 -97 -15 -30 -29 -52 -31 -50 -2 2
-8 51 -14 108 -6 58 -18 160 -27 228 -16 116 -16 123 1 142 10 11 15 28 12 40
-3 11 -1 20 3 20 5 0 25 15 44 34 66 62 19 88 -73 41 -80 -40 -137 -129 -97
-152 9 -5 17 -46 25 -123 7 -63 18 -156 24 -206 9 -59 10 -99 4 -113 -12 -25
25 -224 53 -287 32 -73 122 -146 325 -262 185 -105 253 -107 306 -8 23 45 25
46 74 47 131 2 239 91 272 224 14 58 15 76 4 128 -14 68 -32 108 -62 138 l-20
20 34 52 c63 95 149 240 209 354 33 62 60 113 61 113 1 -1 54 -18 117 -40
l115 -39 -5 -73 c-3 -40 -5 -228 -4 -418 1 -339 14 -530 45 -655 123 -490 400
-860 784 -1046 66 -33 120 -62 119 -66 0 -5 -16 -42 -36 -83 -19 -41 -41 -92
-48 -112 -9 -24 -23 -41 -41 -48 -15 -7 -35 -20 -44 -30 -15 -17 -14 -19 11
-39 33 -26 34 -26 85 1 39 20 42 20 70 4 28 -16 30 -16 36 0 4 11 -2 24 -17
36 -24 19 -24 19 -6 68 21 60 85 180 95 180 4 0 48 -9 99 -20 51 -11 127 -23
169 -27 73 -6 77 -8 133 -57 46 -40 55 -52 42 -57 -36 -14 -234 -70 -236 -67
-1 2 -9 20 -19 40 -14 32 -22 38 -47 38 -24 0 -33 -6 -41 -27 -13 -34 -4 -90
21 -131 26 -42 57 -42 176 -2 49 17 136 44 193 60 l104 30 61 -17 c84 -24 336
-24 416 0 l55 17 95 -48 c52 -27 137 -70 188 -96 l94 -49 26 20 c38 28 69 105
56 141 -7 19 -17 28 -37 30 -22 3 -31 -3 -48 -32 l-21 -35 -116 61 -117 61 55
53 55 52 125 12 c69 6 144 15 167 19 29 6 46 5 52 -3 15 -19 68 -129 80 -169
12 -34 11 -39 -10 -56 -14 -11 -20 -24 -16 -35 6 -15 9 -15 37 -1 28 14 33 14
71 -6 35 -17 45 -19 70 -9 41 17 37 45 -9 69 -30 15 -43 30 -57 68 -10 26 -31
74 -47 106 -16 32 -26 62 -23 66 2 5 21 12 42 16 20 3 82 26 137 51 55 24 101
43 102 41 1 -1 18 -41 37 -88 27 -64 35 -96 31 -121 -5 -30 -2 -37 29 -61 35
-26 39 -27 179 -27 79 0 149 4 156 9 20 12 10 44 -18 59 -17 9 -47 11 -97 7
-62 -5 -73 -3 -73 10 0 9 -13 24 -29 33 -24 13 -38 37 -70 123 -23 58 -41 110
-41 116 0 5 21 25 48 44 84 60 213 192 287 294 131 180 227 387 280 605 44
183 50 266 50 716 l0 422 50 28 c27 16 53 30 56 32 3 1 9 -22 12 -53 7 -65 42
-147 85 -196 41 -47 120 -89 181 -96 l49 -6 21 -71 c18 -62 51 -209 51 -228 0
-3 12 -20 26 -37 33 -39 65 -40 96 -3 l24 29 75 -13 c41 -8 98 -11 128 -8 l53
7 -6 -224 c-3 -123 -9 -331 -12 -461 -4 -159 -3 -242 4 -250 8 -11 44 -14 94
-9 4 1 13 19 19 41 10 34 10 43 -4 58 -22 24 -22 111 -1 412 8 124 12 260 8
303 -6 75 -5 78 20 98 32 25 56 69 56 102 0 14 7 31 16 38 55 45 94 163 94
285 0 144 -50 346 -128 517 l-35 78 23 72 23 72 44 -94 c56 -120 93 -243 75
-249 -13 -4 -16 -30 -6 -56 10 -25 100 -22 114 3 28 54 -14 232 -96 398 -55
112 -97 163 -134 163 -31 0 -70 -42 -88 -95 -10 -28 -21 -52 -26 -55 -4 -3
-41 54 -82 125 -41 72 -100 168 -132 214 -31 46 -64 93 -72 105 -8 11 -48 66
-90 121 l-75 100 3 251 4 251 75 7 c71 6 162 35 164 53 8 57 5 73 -16 91 -35
31 -56 34 -134 17 -96 -20 -104 -20 -96 5 4 12 2 26 -3 33 -7 8 16 54 77 153
47 78 93 155 103 172 15 28 19 30 52 22 20 -4 42 -12 49 -18 18 -15 148 -69
262 -109 55 -20 104 -39 109 -44 5 -4 0 -70 -13 -156 -26 -177 -31 -204 -39
-183 -11 32 -83 119 -102 125 -13 4 -31 0 -45 -9 -22 -14 -25 -24 -25 -72 0
-30 5 -75 11 -100 6 -25 9 -47 7 -50 -3 -2 -29 7 -58 20 -53 25 -80 25 -80 0
0 -14 67 -64 85 -64 6 0 26 -8 45 -19 64 -34 78 -35 104 -7 20 22 25 24 35 12
9 -11 9 -20 2 -35 -27 -50 -2 -160 48 -214 14 -16 56 -43 94 -61 l67 -33 -48
-45 c-70 -66 -121 -97 -204 -123 -70 -22 -73 -25 -70 -52 2 -15 9 -31 15 -35
29 -18 163 28 243 83 48 33 154 136 154 149 0 4 32 10 72 14 39 3 90 15 112
25 48 21 104 76 112 108 4 13 8 23 10 23 2 0 72 -11 156 -25 176 -29 230 -31
248 -10 17 21 5 59 -25 75 -14 7 -25 16 -25 19 0 3 9 38 21 76 13 46 23 112
26 190 l6 120 31 15 c19 9 31 23 31 35 0 28 -57 62 -118 70 -28 4 -121 23
-206 43 l-154 36 -49 50 c-46 48 -52 60 -100 213 -28 90 -53 161 -56 159 -2
-2 8 -42 23 -88 14 -45 28 -91 31 -100 4 -14 -1 -18 -24 -18 -37 0 -38 3 -126
291 -35 118 -79 252 -96 299 -31 83 -55 172 -29 108 11 -30 36 -36 70 -18 37
20 25 65 -85 315 -36 83 -75 162 -86 177 -11 15 -20 40 -20 55 0 142 -142 717
-185 753 -11 10 -21 7 -45 -12 -37 -28 -37 -27 23 -258 51 -192 90 -403 85
-453 -6 -63 -34 -41 -181 138 -76 94 -186 226 -244 294 l-105 124 17 51 c11
32 19 95 22 172 4 100 2 134 -16 204 -51 201 -207 366 -395 416 -118 32 -295
10 -388 -46 -37 -23 -54 -28 -82 -23 -47 7 -78 -2 -117 -34 -55 -47 -88 -157
-60 -202 6 -9 2 -29 -12 -58 -21 -42 -24 -44 -57 -40 -19 3 -173 13 -342 23
l-306 18 -6 38 c-4 26 -15 44 -36 60 -37 27 -38 41 -5 62 14 10 31 28 37 41 7
15 25 27 54 35 50 14 103 50 121 83 15 27 17 79 2 94 -7 7 -3 15 14 26 44 29
201 169 416 373 107 102 160 142 267 203 113 65 188 85 301 79 99 -5 175 -32
298 -107 146 -88 302 -152 338 -138 8 3 18 19 22 36 4 17 11 31 16 31 5 0 9 5
9 10 0 13 -60 50 -80 49 -8 0 -1 -7 17 -15 59 -25 48 -47 -12 -24 -17 7 -24 7
-20 0 3 -6 12 -10 19 -10 7 0 21 -7 32 -16 18 -15 18 -15 -11 -10 -16 2 -39 7
-50 11 -11 3 -3 -3 18 -15 20 -11 37 -25 37 -31 0 -27 -129 23 -260 100 -41
24 -121 66 -176 93 -88 43 -112 50 -180 55 -210 14 -371 -70 -654 -342 -134
-129 -298 -279 -310 -283 -5 -2 -11 7 -15 20 -4 13 -13 30 -20 38 -11 13 16
43 183 203 324 308 479 409 692 447 121 22 230 -3 400 -91 124 -65 265 -129
281 -129 15 0 -378 196 -430 215 -77 27 -158 35 -237 24 -89 -12 -196 -47
-252 -83 -23 -14 -44 -26 -48 -26 -10 0 -162 -109 -213 -153 -25 -22 -116
-107 -201 -190 -85 -83 -181 -170 -213 -194 l-59 -42 -51 38 c-29 21 -62 44
-74 50 l-23 12 0 289 c0 244 -3 296 -16 330 -24 60 -63 76 -102 43z m-861
-293 c-13 -11 -18 -20 -12 -20 22 0 11 -20 -20 -35 -17 -9 -29 -19 -26 -22 3
-2 15 1 27 7 15 8 25 9 32 2 7 -7 -4 -19 -33 -37 -57 -36 -89 -65 -89 -82 0
-8 5 -11 10 -8 6 4 10 -15 10 -49 0 -31 -3 -56 -6 -56 -15 0 -75 43 -84 60
-13 25 -13 106 1 133 34 66 123 124 194 126 19 0 18 -1 -4 -19z m1057 -431
c51 -39 54 -43 37 -55 -28 -21 -43 -17 -59 14 -8 15 -23 36 -35 46 -12 11 -21
23 -21 28 0 17 25 7 78 -33z m-32 -50 c7 -15 17 -52 22 -82 8 -52 7 -56 -12
-61 -63 -17 -64 -15 -65 101 l-2 107 22 -20 c11 -10 27 -31 35 -45z m-1126
-17 c0 -145 -13 -302 -25 -302 -40 0 -61 193 -31 277 36 100 56 109 56 25z
m1324 16 c5 -14 6 -33 3 -41 -6 -16 -135 -93 -142 -85 -3 2 -8 22 -13 44 l-8
39 65 37 c36 20 71 35 76 34 6 -2 14 -14 19 -28z m-1416 -58 c7 0 6 -14 -1
-42 -5 -24 -11 -44 -12 -46 -4 -5 -145 67 -145 74 0 3 7 21 16 39 l16 34 58
-30 c31 -16 62 -29 68 -29z m1139 -84 c-4 -9 -49 -15 -149 -19 -262 -13 -609
-61 -790 -110 l-88 -24 0 105 c0 95 1 104 18 97 175 -72 735 -70 956 3 l51 17
3 -28 c2 -16 1 -35 -1 -41z m256 22 c9 -32 -18 -85 -55 -108 -58 -36 -128 -48
-333 -60 -110 -6 -245 -17 -300 -25 -55 -8 -134 -15 -176 -15 -109 0 -275 -18
-339 -36 -65 -19 -150 -61 -150 -74 0 -6 -5 -10 -11 -10 -23 0 -1 74 28 97 78
63 445 133 848 163 317 23 356 28 415 60 67 35 66 35 73 8z m1225 -60 c174
-56 316 -220 357 -414 19 -91 19 -218 -1 -305 -8 -38 -18 -69 -22 -69 -3 0
-33 28 -65 63 -87 92 -43 34 148 -194 94 -112 188 -226 210 -254 22 -27 75
-92 118 -144 43 -51 75 -97 70 -100 -4 -4 -20 -12 -35 -19 -27 -11 -29 -9
-110 90 -307 374 -528 631 -528 613 0 -3 31 -42 69 -87 52 -60 68 -86 61 -97
-26 -49 -97 -113 -162 -146 l-71 -35 -147 0 -148 0 -6 118 c-4 64 -10 144 -15
177 l-8 60 -1 -75 c0 -41 3 -118 7 -170 4 -52 4 -102 -1 -111 -14 -31 -109
-52 -124 -28 -12 20 10 29 45 19 64 -18 98 32 46 66 -25 16 -25 17 -25 173 0
125 3 161 16 179 19 27 36 28 58 3 26 -29 43 -95 56 -222 6 -63 16 -118 21
-124 20 -20 -17 266 -41 322 -21 47 -58 65 -92 44 -13 -8 -24 -8 -38 -1 -31
16 -59 12 -85 -15 -21 -20 -25 -33 -25 -87 0 -35 12 -117 26 -183 33 -157 34
-159 8 -163 -16 -2 -23 4 -28 21 -11 45 -45 77 -81 77 -18 0 -38 -7 -45 -15
-7 -8 -16 -15 -21 -15 -11 0 -62 101 -83 165 -48 150 -33 425 31 548 12 23 17
26 29 16 8 -6 14 -28 14 -48 0 -44 14 -61 50 -61 25 0 69 24 82 45 4 6 22 9
41 7 29 -3 35 -9 48 -45 28 -81 107 -87 144 -11 19 38 21 40 52 31 44 -13 94
-2 140 32 72 52 93 143 52 222 -23 46 -81 79 -139 79 -52 0 -129 -47 -154 -95
-11 -22 -21 -41 -22 -42 0 -2 -14 3 -31 9 -26 10 -32 18 -36 51 -3 22 -15 52
-26 67 l-20 28 70 32 c116 53 239 60 367 18z m-4588 -38 c0 -5 -8 -10 -17 -10
-10 0 -25 -5 -33 -10 -12 -8 -8 -10 14 -8 16 2 31 -2 33 -9 3 -7 -3 -10 -14
-7 -10 3 -27 -2 -38 -11 -19 -14 -19 -15 6 -6 14 5 31 6 37 2 7 -4 -2 -12 -23
-20 -19 -7 -36 -17 -36 -22 -1 -5 -3 -13 -4 -19 -1 -5 -3 -20 -4 -32 -2 -23
-2 -23 -16 2 -19 33 -19 64 1 101 18 36 94 75 94 49z m988 -26 c15 -8 37 -29
48 -45 l22 -30 -21 -42 c-11 -23 -23 -49 -27 -57 -4 -8 -23 -19 -43 -24 -73
-19 -147 39 -147 114 0 35 23 86 42 93 28 11 101 6 126 -9z m3127 -9 c28 -27
29 -34 14 -87 -6 -25 -19 -43 -37 -52 -15 -8 -40 -28 -56 -45 -39 -41 -92 -44
-106 -5 -25 66 3 144 69 185 55 35 84 37 116 4z m380 -21 c23 -9 45 -58 45
-101 0 -76 -75 -153 -149 -153 -31 0 -43 4 -47 18 -13 42 -45 102 -54 102 -33
0 16 92 64 121 31 19 107 26 141 13z m-3293 -24 c65 -18 136 -122 107 -156
-27 -33 -103 1 -104 47 0 20 -5 24 -29 22 -16 -1 -36 -9 -45 -17 -13 -14 -13
-17 2 -33 15 -17 14 -21 -3 -61 -10 -23 -25 -43 -32 -43 -52 -5 -68 18 -68 97
0 53 4 67 27 95 25 29 73 58 98 59 6 0 27 -5 47 -10z m1961 -25 c-22 -29 -33
-32 -33 -7 0 24 8 32 32 32 18 0 18 -1 1 -25z m-53 -20 c0 -19 -3 -35 -7 -35
-5 0 -69 9 -143 20 -74 11 -162 20 -195 21 -138 2 58 26 228 28 l117 1 0 -35z
m-280 -20 c225 -25 307 -43 330 -72 11 -14 20 -39 20 -56 0 -26 -3 -29 -22
-23 -244 68 -637 96 -844 61 -91 -16 -252 -66 -291 -90 -19 -13 -22 -12 -27 9
-21 82 80 147 269 175 99 14 420 12 565 -4z m1425 -42 c87 -41 103 -209 22
-237 -22 -8 -31 -6 -52 14 -29 28 -43 84 -25 105 19 23 -6 47 -44 43 -23 -2
-32 -9 -34 -25 -5 -32 -67 -83 -102 -83 -85 0 -14 147 91 189 38 15 105 12
144 -6z m-3050 -48 c0 -5 -10 -11 -22 -13 -16 -2 -23 2 -23 13 0 11 7 15 23
13 12 -2 22 -7 22 -13z m1558 -16 c122 -11 335 -44 344 -53 3 -3 3 -12 0 -20
-15 -39 -349 -30 -717 19 -161 22 -183 26 -177 31 3 3 49 11 103 19 125 16
290 18 447 4z m-1533 -9 c0 -5 -4 -10 -10 -10 -5 0 -10 5 -10 10 0 6 5 10 10
10 6 0 10 -4 10 -10z m-30 -8 c0 -13 -12 -22 -22 -16 -10 6 -1 24 13 24 5 0 9
-4 9 -8z m-1060 -55 c57 -28 134 -55 192 -69 l98 -23 0 -35 c1 -120 63 -253
161 -344 l67 -62 -27 -32 c-21 -25 -29 -29 -44 -21 -41 24 -98 -19 -138 -107
-54 -117 -82 -210 -134 -440 -3 -12 -11 -24 -19 -27 -11 -4 -30 24 -69 101
-93 183 -152 372 -182 586 -15 106 -21 531 -7 524 4 -2 50 -25 102 -51z m2320
-14 c139 -20 217 -26 380 -27 113 0 227 3 253 7 41 7 47 11 42 28 -9 27 20 25
39 -3 37 -52 7 -106 -69 -127 -97 -26 -451 -8 -736 38 -94 16 -237 13 -284 -5
-73 -28 -74 -28 -86 0 -23 51 19 98 102 116 56 11 141 5 359 -27z m-1270 11
c0 -2 -11 -4 -25 -4 -14 0 -25 4 -25 9 0 4 11 6 25 3 14 -2 25 -6 25 -8z
m2474 -10 c115 -7 211 -16 214 -19 3 -3 0 -23 -7 -45 l-12 -40 -57 0 c-31 0
-169 9 -307 20 -137 11 -258 20 -267 20 -10 0 -18 8 -18 18 0 9 -7 30 -15 46
l-15 28 137 -6 c76 -4 232 -14 347 -22z m516 16 c0 -5 -14 -10 -31 -10 -17 0
-28 4 -24 10 3 6 17 10 31 10 13 0 24 -4 24 -10z m-570 -125 c118 -8 220 -15
226 -15 7 0 10 -42 10 -127 -1 -181 28 -291 113 -433 10 -17 31 -277 31 -385
l0 -70 -65 -18 c-36 -9 -86 -29 -111 -43 -25 -15 -62 -28 -81 -29 -29 -2 -46
-12 -80 -49 -24 -25 -50 -46 -58 -46 -19 0 -229 358 -424 722 -58 108 -61 137
-16 176 31 27 41 67 27 104 -11 29 -7 58 8 58 23 0 79 -179 80 -253 0 -51 15
-66 58 -60 57 8 65 24 59 125 -4 77 -10 98 -44 170 -25 51 -59 101 -88 131
-67 68 -79 58 -13 -11 60 -63 97 -126 122 -211 23 -78 21 -181 -4 -181 -5 0
-6 17 -4 38 4 28 3 33 -5 22 -6 -8 -11 -25 -11 -37 0 -12 -5 -25 -10 -28 -7
-4 -8 8 -4 34 4 28 3 41 -5 41 -6 0 -11 -17 -11 -40 0 -22 -4 -40 -10 -40 -5
0 -10 10 -10 23 0 12 -7 61 -16 109 -12 66 -26 104 -55 152 -21 36 -39 71 -39
77 0 7 -11 25 -25 39 l-25 26 37 27 c43 30 21 30 443 2z m-1622 -2 c4 -10 7
-61 6 -113 l-2 -95 34 -32 c32 -30 34 -36 34 -98 0 -59 -4 -74 -39 -133 -21
-37 -51 -89 -67 -117 -15 -27 -79 -142 -142 -255 -125 -225 -194 -342 -221
-379 l-18 -23 -32 56 c-31 55 -45 68 -80 70 -9 1 -34 20 -55 44 -45 50 -103
86 -164 102 -39 10 -42 13 -36 38 17 77 37 154 55 211 22 72 25 141 7 159 -24
24 -69 14 -104 -23 l-33 -35 -70 11 c-83 14 -83 11 9 112 75 81 131 114 167
98 36 -17 94 -13 133 7 46 26 50 42 8 42 -18 0 -44 7 -56 16 l-22 15 44 64
c43 63 78 150 91 227 l6 38 192 3 c106 1 227 3 269 5 65 2 79 -1 86 -15z m493
-14 c170 -25 251 -31 394 -32 99 -1 192 1 208 6 23 6 27 4 27 -12 0 -23 -19
-27 -184 -42 -223 -21 -619 0 -798 42 -40 9 -48 15 -48 34 0 17 7 25 23 28 61
12 185 4 378 -24z m-427 -13 c-8 -20 17 -31 126 -54 160 -35 300 -45 562 -39
242 4 343 16 385 43 20 13 23 12 33 -6 20 -37 8 -82 -26 -102 -50 -29 -213
-41 -474 -35 -226 5 -328 16 -515 53 -133 27 -165 57 -131 123 16 30 51 45 40
17z m161 -169 c178 -35 317 -47 524 -47 196 0 341 13 384 35 38 19 47 12 47
-36 0 -48 -24 -75 -77 -86 -75 -16 -568 -9 -713 10 -142 19 -261 47 -320 75
-36 18 -58 57 -47 86 5 13 10 14 39 1 19 -7 92 -25 163 -38z m3224 -67 c11
-36 44 -166 72 -290 47 -206 51 -236 53 -358 l1 -134 -28 -24 c-34 -29 -67
-31 -98 -5 l-24 19 39 19 39 18 -6 105 c-8 136 -46 333 -102 539 -25 90 -44
166 -41 168 2 3 12 -7 22 -21 20 -31 31 -28 14 4 -6 11 -9 26 -7 33 2 7 11 -1
20 -18 10 -19 16 -24 17 -13 0 9 -4 20 -10 23 -5 3 -10 11 -10 18 0 27 29 -22
49 -83z m-1211 58 c6 -8 7 -29 2 -53 -4 -22 -8 -34 -9 -27 0 6 -8 12 -16 12
-10 0 -13 -8 -10 -27 23 -143 35 -245 29 -255 -4 -7 -3 -8 4 -4 18 11 52 -12
52 -36 0 -19 -4 -20 -42 -14 -23 4 -44 8 -46 10 -8 9 -53 258 -55 307 -2 44 2
62 17 78 21 23 58 28 74 9z m2 -157 c0 -45 -6 -37 -14 19 -4 31 -3 40 4 30 5
-8 10 -30 10 -49z m-2878 0 l33 -7 -25 -14 c-26 -14 -114 -19 -127 -7 -4 5 6
21 22 36 27 26 32 27 47 14 9 -9 32 -18 50 -22z m3793 -391 c83 -100 156 -190
163 -200 12 -17 5 -23 -75 -66 -48 -26 -135 -76 -193 -110 -58 -35 -108 -64
-112 -64 -3 0 -17 17 -30 38 -19 28 -27 58 -32 112 -11 114 -44 316 -66 403
l-21 79 35 38 c19 21 42 50 51 64 l17 25 56 -68 c32 -37 125 -150 207 -251z
m-4348 295 c31 -8 81 -15 110 -15 57 0 64 -7 34 -34 -12 -11 -27 -15 -44 -11
-37 10 -70 -11 -64 -41 4 -23 3 -23 -57 -18 -34 3 -76 7 -94 10 l-33 5 42 60
c23 32 43 59 45 59 2 0 29 -7 61 -15z m-207 -23 c0 -4 -15 -7 -32 -7 -35 0
-47 -20 -32 -53 4 -9 7 -20 6 -23 0 -3 63 -11 141 -18 205 -17 408 -41 439
-51 23 -8 30 -5 39 13 25 48 80 72 107 45 19 -19 15 -56 -17 -158 -16 -52 -42
-151 -56 -220 -15 -69 -29 -130 -30 -136 -2 -5 -22 -16 -45 -23 -29 -8 -62
-31 -99 -69 l-56 -56 -160 -4 c-170 -4 -300 14 -418 58 -52 19 -52 19 -29 0
69 -57 335 -100 506 -81 52 6 98 11 101 11 3 0 2 -8 -3 -17 -18 -35 -23 -95
-12 -146 10 -45 8 -64 -13 -148 -22 -86 -29 -100 -71 -143 -50 -52 -76 -118
-76 -191 l0 -42 -127 34 c-71 18 -166 39 -213 46 l-85 12 -19 100 c-24 127
-28 560 -7 695 36 229 131 521 184 562 22 18 77 25 77 10z m2088 -27 l334 0
48 -102 c38 -81 53 -103 69 -103 20 0 45 -36 131 -195 67 -123 187 -327 228
-388 l25 -38 14 33 c16 38 51 78 68 78 7 0 3 -19 -12 -49 -14 -28 -26 -65 -26
-83 -1 -18 -6 -36 -11 -40 -17 -12 -36 4 -37 31 0 14 -3 20 -6 13 -3 -7 -2
-24 2 -39 5 -22 10 -25 39 -20 l33 5 -10 -51 c-23 -127 17 -276 98 -366 40
-44 162 -111 204 -111 42 0 53 -12 42 -46 -43 -131 -101 -344 -99 -364 3 -48
-137 -361 -228 -507 -39 -65 -14 -51 28 15 58 89 133 237 178 352 24 58 44
106 45 108 2 2 22 -2 44 -9 32 -9 40 -16 35 -28 -3 -9 -16 -43 -29 -76 -63
-164 -219 -465 -241 -465 -7 0 -26 12 -43 26 -17 14 -31 21 -31 15 0 -21 63
-52 93 -47 25 5 28 3 25 -17 -6 -44 -80 -35 -128 16 -34 36 -38 63 -12 83 14
12 15 13 1 8 -10 -3 -44 8 -78 25 -57 29 -60 32 -51 57 6 14 10 56 10 92 0 57
-6 79 -35 142 l-36 74 22 50 c45 104 32 235 -34 345 -29 48 -90 108 -157 152
-24 16 -25 17 -7 37 18 19 21 19 55 5 46 -19 108 -12 136 16 l20 21 -33 0
c-29 0 -101 33 -101 46 0 2 9 37 20 76 48 174 2 405 -110 548 -15 19 -31 49
-34 66 -11 52 -69 94 -128 94 -18 0 -51 7 -73 15 -53 19 -170 18 -220 -1 -22
-9 -58 -19 -80 -23 -45 -8 -91 -35 -105 -62 -6 -10 -10 -37 -10 -61 0 -24 -7
-65 -16 -93 -9 -27 -16 -77 -15 -109 1 -62 -2 -67 -88 -152 -13 -13 -19 -24
-13 -24 6 0 13 4 16 9 3 5 32 24 63 41 150 85 272 93 346 22 38 -36 34 -43
-10 -20 -78 41 -228 8 -358 -77 -37 -24 -73 -41 -81 -38 -38 14 2 121 76 206
23 26 39 47 36 47 -3 0 -23 -19 -44 -41 -89 -98 -122 -188 -83 -223 18 -16 21
-31 21 -90 l0 -71 -45 -19 c-67 -27 -95 -73 -95 -154 0 -35 7 -95 16 -133 l16
-71 -28 -30 c-16 -16 -50 -40 -75 -53 -107 -55 -191 -151 -210 -243 -15 -75 0
-124 56 -180 23 -23 39 -44 35 -47 -5 -3 -28 -8 -52 -11 -35 -5 -48 -2 -70 16
-35 27 -35 56 -3 104 13 20 21 36 16 36 -11 0 -35 -30 -48 -61 -8 -19 -28 -32
-70 -48 -90 -33 -161 -78 -178 -111 -8 -16 -33 -39 -55 -50 l-39 -20 -34 20
c-28 17 -45 43 -90 138 -110 236 -180 443 -221 652 -42 220 -43 196 6 204 86
14 122 31 180 84 70 66 126 169 134 252 10 101 9 99 51 88 21 -5 48 -12 60
-15 27 -6 58 36 48 67 -5 14 1 33 18 58 39 59 188 315 263 454 57 106 73 128
92 128 18 0 30 15 61 80 22 44 44 94 50 111 l11 32 87 -9 c49 -5 238 -9 421
-9z m1395 -47 c10 -7 28 -40 42 -73 15 -36 25 -51 25 -37 0 26 22 29 41 6 17
-21 82 -13 120 15 26 19 42 21 203 21 96 0 176 3 178 8 2 4 22 17 45 28 l42
22 20 -87 c30 -128 51 -298 58 -457 l6 -142 -54 -11 c-124 -25 -214 -33 -392
-33 l-187 -1 -34 35 c-38 39 -113 78 -151 78 l-25 0 0 123 c-1 112 -6 200 -25
392 -6 63 -5 73 15 98 23 29 47 34 73 15z m-2063 -154 c0 -15 -337 -604 -346
-604 -3 0 -17 14 -31 30 -13 17 -29 30 -35 30 -6 0 4 -13 21 -29 59 -56 61
-121 3 -121 -25 1 -25 2 -9 14 23 18 21 38 -7 65 -24 23 -40 68 -25 73 12 5
117 177 224 368 54 96 104 185 112 198 l14 22 39 -20 c22 -11 40 -23 40 -26z
m1264 3 c10 -17 32 -57 48 -86 17 -30 53 -93 79 -139 27 -47 49 -86 49 -88 0
-2 71 -119 110 -180 12 -20 11 -25 -13 -54 -15 -17 -27 -36 -27 -41 0 -24 -20
-2 -62 69 -69 115 -289 514 -286 517 10 8 65 34 73 35 6 0 18 -15 29 -33z
m-3064 -242 c0 -5 13 -30 29 -55 l28 -45 -25 -38 c-21 -31 -28 -36 -38 -25
-16 17 -94 160 -94 173 0 6 15 17 33 25 30 15 33 15 49 -5 10 -11 18 -24 18
-30z m5270 -23 c0 -36 -2 -39 -62 -69 -35 -17 -119 -63 -187 -102 -122 -69
-149 -81 -136 -61 4 6 -1 24 -9 42 -9 17 -15 32 -14 33 2 1 35 19 73 42 124
72 292 152 323 153 7 0 12 -14 12 -38z m-4189 -33 c52 -26 124 -99 152 -155
22 -44 23 -51 10 -70 -17 -26 -1 -70 28 -77 12 -3 19 -14 19 -30 0 -19 -8 -28
-32 -37 -40 -14 -232 -25 -282 -16 -35 7 -36 8 -36 55 0 27 3 69 6 95 6 41 10
47 38 56 28 9 27 9 -13 5 -24 -3 -55 -12 -70 -20 -35 -18 -101 -105 -129 -170
l-21 -50 -1 63 c0 76 19 124 68 175 37 38 122 77 167 77 14 0 25 5 25 11 0 7
-9 9 -21 6 -20 -5 -21 -3 -14 40 4 25 9 52 12 59 6 16 40 10 94 -17z m4468
-321 c17 -42 31 -87 30 -100 0 -22 -1 -22 -9 -3 -8 18 -9 17 -9 -7 -1 -20 -6
-26 -20 -25 -14 1 -26 21 -46 72 -15 38 -54 126 -86 193 l-59 124 17 51 17 52
67 -140 c37 -77 81 -175 98 -217z m-2833 300 c3 -3 -6 -17 -20 -31 -14 -15
-26 -31 -26 -37 0 -5 -13 -10 -29 -10 -16 0 -41 -4 -54 -9 -22 -9 -27 -6 -37
20 -7 16 -25 36 -39 43 l-26 14 35 11 c35 10 185 9 196 -1z m161 -52 c52 -56
41 -90 -34 -106 -53 -12 -87 -2 -106 30 -61 102 58 166 140 76z m-2788 -47
c-6 -41 -14 -128 -18 -194 l-6 -120 -27 54 c-24 47 -28 67 -28 138 0 63 5 93
19 121 20 39 60 86 67 79 2 -2 -1 -37 -7 -78z m2408 62 c46 -28 51 -56 17 -92
-23 -24 -36 -29 -78 -29 -58 0 -86 20 -86 62 0 67 81 99 147 59z m1283 -47 l0
-67 -40 6 c-22 3 -40 2 -40 -3 0 -4 29 -10 65 -13 153 -14 259 -109 256 -229
-1 -79 -33 -118 -45 -56 -13 65 -67 166 -95 177 -40 15 -128 31 -164 30 -28
-2 -26 -3 16 -12 l48 -11 -7 -95 c-4 -53 -8 -99 -10 -102 -12 -21 -364 -14
-384 8 -13 15 9 73 28 73 10 0 23 5 30 12 17 17 15 57 -3 64 -38 15 88 172
182 225 45 26 120 54 156 58 4 1 7 -29 7 -65z m1439 25 c28 -20 60 -23 110 -8
22 6 161 -296 154 -333 -3 -17 3 -47 16 -78 12 -27 51 -146 87 -262 36 -117
85 -271 110 -342 24 -71 44 -131 44 -132 0 -2 -15 -4 -33 -4 -18 0 -42 -7 -54
-15 -20 -14 -33 -11 -175 39 -189 66 -377 141 -392 157 -8 8 -6 14 8 23 10 6
30 21 45 32 22 19 23 24 12 38 -17 20 -41 20 -86 2 -19 -8 -35 -13 -35 -12 0
2 11 34 25 70 30 81 32 127 5 151 -40 36 -140 -2 -310 -120 -136 -94 -165
-113 -168 -111 -1 2 11 71 28 155 17 83 33 188 37 232 5 67 10 86 31 108 34
37 49 69 57 123 l7 47 167 99 c169 101 274 161 279 162 2 0 16 -10 31 -21z
m-2508 -67 c25 -23 32 -38 36 -78 3 -33 0 -55 -10 -68 -14 -19 -16 -19 -41 -2
-30 19 -54 68 -37 74 20 7 11 32 -14 44 -19 8 -31 8 -50 0 -22 -10 -24 -15
-14 -33 9 -17 7 -26 -8 -47 -42 -56 -85 -54 -91 4 -9 103 150 176 229 106z
m2005 -100 c10 -54 -2 -145 -25 -190 -12 -23 -22 -42 -24 -42 -1 0 -3 78 -4
173 l-2 172 24 -40 c14 -22 28 -55 31 -73z m142 96 c7 -7 12 -26 12 -42 -1
-27 -9 -36 -62 -69 -33 -21 -62 -37 -63 -35 -1 2 -5 23 -9 48 l-6 45 53 31
c62 38 60 37 75 22z m-1858 -143 c88 -180 91 -380 10 -522 -24 -42 -40 -57
-87 -80 -57 -28 -61 -28 -265 -31 -182 -3 -208 -2 -208 12 0 22 49 45 114 52
31 4 56 11 56 15 0 12 -2 11 -84 -6 -38 -8 -77 -22 -87 -31 -25 -23 -25 -87 2
-220 14 -70 18 -109 11 -116 -5 -5 -27 -13 -48 -18 -72 -17 -110 11 -62 44 16
12 18 16 7 16 -9 0 -24 -9 -35 -21 -28 -31 -8 -53 52 -57 67 -3 119 27 110 64
-7 25 -6 26 36 19 121 -19 168 -37 219 -83 27 -24 58 -61 68 -81 17 -34 17
-42 3 -141 -11 -77 -12 -120 -5 -162 l9 -58 -35 0 c-60 0 -154 -19 -256 -50
-54 -17 -115 -30 -136 -30 -44 0 -79 27 -79 60 0 23 25 86 43 110 7 9 0 2 -16
-14 -15 -17 -30 -48 -33 -68 l-6 -37 -79 4 c-44 3 -115 7 -160 10 -198 11
-309 88 -309 212 0 88 81 196 193 260 44 24 57 28 61 17 11 -28 66 -16 104 22
31 31 46 38 102 45 108 14 158 11 169 -8 18 -32 19 -9 4 82 -8 50 -13 117 -11
149 4 52 8 63 40 92 26 23 50 34 85 39 26 4 64 11 83 15 l35 8 -31 1 c-101 3
-206 -48 -219 -108 -6 -28 -7 -29 -43 -17 -20 6 -58 31 -84 56 -52 51 -71 101
-66 182 3 51 3 51 71 98 90 61 145 81 243 87 73 5 86 3 125 -18 24 -13 67 -44
94 -68 56 -50 156 -101 197 -101 17 0 34 10 48 28 19 23 21 36 17 82 -6 66
-52 209 -74 230 -14 13 -15 13 -8 -5 31 -77 58 -167 62 -212 16 -148 -107
-134 -271 33 -45 45 -97 91 -116 103 -33 20 -34 21 -10 21 20 0 22 2 10 10
-23 15 5 12 44 -4 19 -8 67 -45 107 -84 84 -78 144 -122 169 -122 17 0 17 4 0
73 -18 75 -47 153 -55 146 -2 -3 7 -40 20 -82 14 -43 25 -87 25 -98 0 -18 -2
-19 -29 -4 -16 8 -68 50 -115 94 -106 98 -164 120 -228 87 -15 -8 -51 -19 -80
-26 -29 -6 -80 -24 -113 -40 -33 -16 -61 -27 -63 -26 -3 4 84 60 108 70 9 4 7
5 -5 2 -11 -2 -28 -7 -37 -11 -16 -6 -18 -1 -17 36 1 24 4 55 8 69 6 21 8 22
14 8 9 -26 32 -22 45 7 6 14 8 25 3 25 -5 0 -11 -7 -15 -15 -9 -25 -23 -17
-29 18 -7 51 0 58 36 36 18 -10 48 -19 69 -19 31 0 37 -4 46 -29 15 -42 44
-55 81 -37 16 9 31 22 34 31 10 26 62 19 75 -10 7 -14 23 -30 37 -37 22 -10
29 -8 50 12 14 13 25 34 25 47 0 20 5 23 43 23 42 0 84 20 100 48 14 22 44
-13 87 -103z m-2081 28 c-5 -38 -8 -98 -8 -135 -1 -71 -4 -76 -34 -54 -14 11
-17 22 -12 50 9 46 -11 49 -20 4 -10 -45 -15 -51 -30 -38 -10 8 -18 6 -34 -11
-26 -28 -26 -26 -2 42 27 80 58 137 81 149 11 6 20 17 20 24 0 7 10 18 23 24
12 6 22 11 23 11 0 1 -3 -29 -7 -66z m1713 25 c-9 -9 -15 -9 -24 0 -9 9 -7 12
12 12 19 0 21 -3 12 -12z m2008 -70 c0 -137 -43 -517 -68 -613 -10 -35 -44
-47 -194 -70 -163 -25 -532 -15 -610 16 -33 13 -34 26 -14 149 8 47 17 106 21
131 6 44 7 46 48 56 23 6 49 13 58 17 12 6 18 -5 28 -51 8 -31 29 -106 48
-166 29 -94 38 -110 66 -128 53 -32 107 -6 143 70 122 261 133 280 170 296 30
12 34 18 29 37 -13 43 -47 70 -80 64 -48 -10 -87 -58 -150 -186 -33 -66 -62
-120 -65 -120 -3 0 -20 60 -38 133 l-33 132 26 49 c27 54 31 93 12 146 l-13
35 211 2 c167 1 227 6 295 21 117 27 110 28 110 -20z m-758 1 c9 -5 25 -33 36
-61 l20 -53 -29 -12 c-39 -16 -37 -23 5 -16 39 6 31 21 92 -197 48 -173 54
-202 48 -211 -3 -5 -2 -9 3 -9 4 0 42 68 83 151 78 157 112 199 158 199 l27
-1 -30 -14 -30 -13 36 5 c30 4 37 2 41 -15 5 -16 -1 -23 -22 -30 -30 -11 -53
-47 -115 -182 -86 -186 -130 -225 -192 -168 -12 11 -25 35 -28 52 -4 17 -19
76 -35 131 -59 215 -74 270 -75 280 -5 41 -19 97 -28 102 -7 4 -7 -12 -2 -48
14 -95 13 -101 -19 -110 -17 -5 -31 -7 -32 -6 -1 1 1 57 4 124 l5 122 31 -6
c17 -3 39 -10 48 -14z m-2607 -201 c-22 -87 -52 -144 -107 -200 -55 -57 -116
-87 -174 -88 -40 0 -42 1 -48 38 -3 20 -6 65 -6 98 l0 62 45 -6 c69 -7 54 11
-26 32 -69 18 -71 19 -90 63 -10 24 -19 46 -19 48 0 2 19 -7 43 -20 58 -32
126 -50 140 -36 8 8 7 11 -3 11 -8 0 -32 5 -52 11 -37 10 -38 11 -38 58 l0 49
43 -10 c55 -13 222 -4 267 14 l35 15 3 -39 c2 -21 -4 -66 -13 -100z m-437 13
c29 -51 28 -105 -4 -169 -29 -58 -49 -70 -32 -19 17 49 14 90 -10 136 -27 52
-28 59 -2 36 11 -10 20 -13 20 -8 0 6 -7 16 -15 23 -9 7 -13 15 -10 18 3 3 15
-3 27 -14 21 -17 21 -16 -1 9 -18 20 -21 27 -10 27 9 0 25 -17 37 -39z m2765
-6 c156 0 157 0 157 -22 0 -20 -5 -23 -39 -23 -22 0 -43 -4 -46 -10 -9 -14 48
-12 125 4 36 8 68 11 72 8 3 -4 8 -18 10 -32 3 -23 -2 -26 -62 -42 -36 -9 -86
-17 -112 -17 -27 -1 -48 -5 -48 -11 0 -5 21 -10 46 -10 38 0 45 -3 40 -17 -2
-10 -10 -63 -16 -119 -7 -55 -15 -106 -19 -113 -9 -14 -114 17 -166 49 -102
63 -175 206 -175 342 0 28 1 29 38 21 20 -4 108 -8 195 -8z m-5012 -32 c-8
-15 -10 -15 -11 -2 0 17 10 32 18 25 2 -3 -1 -13 -7 -23z m2190 -156 c-12 -51
-30 -146 -41 -212 -11 -66 -23 -133 -27 -150 l-6 -30 -8 35 c-5 19 -11 80 -15
135 -5 86 -2 118 21 229 14 71 31 140 37 155 10 26 10 26 34 -22 l25 -49 -20
-91z m-2216 152 c-5 -15 -4 -19 4 -15 6 4 11 1 11 -6 1 -7 8 1 17 17 13 23 18
26 21 13 9 -43 -139 -290 -244 -407 l-47 -52 32 -66 c18 -35 31 -66 29 -67 -1
-1 -15 -7 -29 -13 -24 -10 -27 -8 -57 47 -47 85 -44 105 35 197 83 97 153 205
195 300 31 71 46 95 33 52z m2345 -104 c0 -56 26 -273 40 -340 5 -22 8 -41 6
-42 -2 -2 -49 7 -105 19 l-102 22 7 45 c19 134 34 184 70 223 38 42 54 76 54
113 0 18 4 23 15 19 11 -4 15 -21 15 -59z m-235 -130 c-16 -68 -17 -88 -6
-178 6 -56 25 -169 41 -252 17 -82 32 -184 35 -225 2 -41 2 -65 -1 -53 -5 22
-50 73 -65 73 -5 0 -9 9 -9 20 0 15 7 20 24 20 14 0 27 3 29 8 7 11 -4 62 -14
62 -4 0 -21 12 -38 28 -26 23 -31 38 -41 109 -6 46 -17 117 -25 159 -19 97
-19 149 1 207 14 42 71 113 82 102 3 -2 -4 -39 -13 -80z m4373 3 c40 -40 -23
-192 -218 -523 -106 -179 -103 -175 -123 -175 -26 0 -57 18 -57 33 0 7 28 61
63 119 220 376 257 444 256 473 -1 14 -3 16 -6 4 -2 -9 -20 -23 -40 -33 -19
-9 -80 -47 -134 -83 -55 -36 -101 -64 -104 -61 -3 2 -7 18 -11 34 -5 28 -1 34
48 70 163 121 291 177 326 142z m-2869 -26 c8 -16 3 -22 -34 -40 -34 -16 -46
-29 -53 -55 -10 -37 -10 -48 15 -178 9 -47 13 -94 10 -103 -7 -17 -65 -56 -84
-56 -21 0 -15 32 11 59 l24 26 -20 100 c-28 146 -14 206 61 245 46 24 58 24
70 2z m937 -62 c8 0 14 -4 14 -10 0 -12 -90 -13 -109 -1 -11 7 -10 13 4 35
l17 26 30 -25 c16 -14 36 -25 44 -25z m-905 6 c11 -14 35 -34 54 -46 l35 -22
-39 -45 c-40 -45 -54 -76 -65 -144 -5 -29 -12 -38 -31 -42 -14 -2 -27 -2 -29
2 -11 18 -38 231 -32 254 4 17 20 34 44 46 46 25 41 25 63 -3z m-2216 -17 c95
-16 105 -22 105 -65 0 -34 -1 -36 -27 -29 -16 4 -54 12 -87 19 -51 11 -61 17
-77 47 -23 43 -23 48 -1 44 9 -2 49 -9 87 -16z m-180 -34 l27 -34 -25 -53
c-25 -52 -69 -232 -83 -335 -6 -47 -9 -53 -29 -53 -38 0 -55 11 -55 36 0 37
59 309 81 372 18 53 44 102 54 102 2 0 16 -16 30 -35z m5109 -17 c-15 -29 -50
-91 -79 -138 -29 -47 -69 -116 -90 -155 -59 -109 -108 -189 -119 -197 -7 -5
-3 -17 10 -35 16 -21 30 -28 58 -29 43 -1 53 -8 36 -29 -17 -21 -59 -19 -98 5
-39 24 -49 45 -31 67 12 14 12 16 -1 11 -12 -4 -14 -18 -12 -64 2 -32 8 -64
14 -71 7 -9 6 -23 -6 -47 -11 -24 -16 -62 -16 -128 0 -51 -5 -163 -11 -248
l-11 -155 -38 -35 c-66 -60 -75 -88 -75 -232 l0 -126 -33 24 c-52 40 -84 48
-127 30 -58 -25 -107 -69 -165 -150 -30 -42 -57 -76 -61 -76 -4 0 -14 17 -23
38 -47 112 -183 320 -285 439 -37 43 -113 116 -169 162 -124 104 -128 115 -77
202 81 138 180 363 250 569 l36 105 212 1 c208 0 423 15 502 35 22 6 82 31
133 56 68 34 94 52 98 69 4 15 40 47 102 89 53 36 97 65 99 65 2 0 -9 -23 -23
-52z m-1925 -73 c31 -63 37 -145 17 -236 -22 -98 -27 -105 -58 -85 -19 13 -24
23 -21 49 3 26 2 28 -6 11 -16 -36 -43 -216 -44 -290 0 -62 4 -78 29 -120 16
-27 34 -61 41 -76 10 -24 9 -26 -12 -30 -43 -9 -84 18 -107 69 -19 43 -20 59
-14 163 3 63 15 162 25 220 10 58 17 107 15 110 -3 2 -7 -6 -11 -18 -3 -12 -6
-22 -7 -22 -1 0 -38 13 -82 29 -43 16 -117 36 -164 46 -129 26 -125 23 -138
103 -7 39 -12 82 -12 96 l0 26 193 1 c118 0 209 5 237 13 60 16 88 2 119 -59z
m-642 5 c2 -30 8 -76 12 -102 l8 -48 -83 0 c-83 0 -84 0 -84 26 0 63 85 188
123 182 17 -3 21 -12 24 -58z m-2642 23 c-3 -10 -9 -30 -12 -44 -5 -25 -11
-28 -80 -38 -41 -6 -149 -29 -240 -52 -90 -22 -167 -39 -169 -36 -3 2 -7 20
-10 39 l-6 34 179 38 c98 22 212 47 253 57 97 22 93 22 85 2z m305 -23 c29
-28 35 -30 109 -30 84 0 265 -28 396 -61 44 -12 81 -22 83 -23 1 -2 -5 -22
-13 -46 -27 -77 -12 -170 34 -203 10 -7 20 -20 24 -29 5 -15 0 -18 -31 -18
-21 0 -46 -6 -57 -14 -12 -8 -54 -15 -101 -17 -187 -9 -325 -141 -341 -327 -7
-88 9 -155 53 -224 21 -31 33 -61 30 -72 -8 -31 12 -117 43 -181 33 -69 89
-137 97 -117 3 6 9 10 14 7 4 -2 15 4 24 14 15 17 14 22 -23 87 -22 38 -42 84
-46 101 l-6 33 43 -19 c67 -30 137 -35 209 -17 88 23 145 57 256 153 115 99
286 215 298 201 16 -19 33 -68 25 -73 -6 -3 -10 -18 -10 -33 -1 -37 -42 -90
-120 -153 -277 -227 -500 -598 -595 -989 -15 -63 -29 -116 -30 -118 -1 -1 -43
12 -93 30 -72 25 -92 36 -92 50 0 54 -50 86 -106 68 -31 -10 -38 -8 -90 26
-74 49 -144 121 -178 183 -27 50 -27 51 -11 97 21 63 12 101 -30 125 -39 23
-42 41 -55 284 -7 150 4 553 17 565 3 3 18 -10 33 -29 21 -25 29 -43 27 -69
-2 -30 3 -37 31 -54 19 -10 65 -25 103 -33 38 -8 87 -24 109 -35 48 -24 47
-24 60 0 16 30 -38 85 -105 106 -45 15 -54 22 -57 43 -2 15 -12 30 -24 35 -11
5 -31 29 -44 53 -12 23 -45 63 -72 89 l-49 45 11 56 c5 30 7 60 3 66 -3 5 -6
24 -5 41 0 17 -4 36 -10 43 -12 15 2 127 30 238 14 53 23 71 38 73 10 2 24 10
29 17 6 7 19 14 30 16 11 2 27 19 35 36 20 43 58 44 100 3z m-174 -46 c-3 -8
-12 -14 -20 -14 -11 0 -13 6 -6 30 14 48 25 59 28 27 2 -16 1 -35 -2 -43z
m3285 -88 c42 -77 52 -193 24 -275 -9 -28 -19 -51 -23 -51 -17 0 -42 37 -42
63 0 67 -14 10 -26 -102 -6 -65 -15 -132 -19 -150 l-7 -32 -20 27 c-21 26 -21
26 -3 146 10 68 15 143 12 174 -3 30 -1 69 4 87 16 53 13 177 -5 222 l-17 40
45 -44 c25 -24 59 -71 77 -105z m-3445 48 c-16 -61 -46 -218 -46 -236 0 -11
-14 -33 -31 -49 l-31 -29 -54 16 c-29 8 -70 14 -91 12 -33 -3 -38 -7 -41 -30
-2 -21 -10 -28 -34 -33 -29 -7 -30 -9 -24 -48 4 -23 14 -49 22 -59 15 -15 13
-18 -23 -27 -22 -6 -52 -13 -69 -17 l-29 -6 -24 99 c-13 54 -40 139 -61 190
l-37 93 41 11 c23 6 48 17 56 24 16 13 208 63 345 89 44 8 89 17 100 19 11 3
24 5 29 6 4 0 5 -11 2 -25z m5360 -9 c-19 -28 -62 -43 -79 -26 -8 8 -7 11 4
12 7 0 30 11 49 23 42 28 49 26 26 -9z m50 6 c12 -12 212 -98 247 -106 30 -8
35 -30 14 -59 -12 -17 -20 -15 -128 29 -99 41 -187 81 -197 90 -5 4 40 55 48
55 3 0 10 -4 16 -9z m-4284 -72 c34 -9 39 -14 54 -67 10 -31 23 -64 30 -72 7
-9 36 -76 64 -150 28 -73 60 -151 71 -171 13 -26 15 -40 8 -45 -6 -3 -9 -22
-7 -41 4 -32 1 -36 -56 -70 -34 -20 -69 -43 -78 -51 -17 -14 -18 -12 -18 30 0
24 -7 69 -16 98 -16 53 -71 151 -93 164 -6 4 -11 40 -11 84 -1 42 -7 113 -15
157 -8 44 -18 98 -21 119 -8 44 -15 42 88 15z m-2404 -31 c11 -29 10 -35 -5
-45 -25 -19 -28 -17 -45 26 -17 44 -15 51 16 51 15 0 25 -10 34 -32z m7380 5
c26 -67 25 -72 -4 -64 -20 5 -31 17 -40 43 -13 38 -12 40 27 47 4 0 11 -11 17
-26z m-6860 -43 c67 -99 134 -298 148 -439 l7 -59 -50 -15 c-27 -8 -79 -27
-115 -41 l-67 -27 -48 50 c-63 65 -106 75 -164 36 -23 -14 -42 -25 -43 -23 -1
2 -8 21 -15 43 -25 75 -122 263 -158 305 -19 22 -34 42 -32 44 16 12 469 184
491 185 3 1 24 -26 46 -59z m1695 13 c4 -35 12 -53 31 -68 31 -25 34 -39 6
-32 -12 3 -18 1 -14 -5 4 -5 19 -7 35 -4 16 3 29 1 29 -4 0 -6 -15 -11 -32
-12 l-33 -1 33 -4 c34 -5 45 -23 13 -23 -29 0 -78 46 -91 86 -12 35 -5 114 10
114 4 0 10 -21 13 -47z m-2063 -33 c9 -6 10 -10 3 -10 -6 0 -66 -24 -132 -54
-67 -30 -121 -50 -121 -46 0 22 51 77 90 96 48 25 132 32 160 14z m4240 -16
c22 -9 40 -21 39 -28 -1 -16 -17 -53 -18 -40 -1 5 -16 27 -35 47 -18 20 -32
37 -30 37 2 0 22 -7 44 -16z m2877 -50 l123 -38 7 -35 c14 -63 7 -252 -11
-336 l-18 -81 -82 1 c-73 0 -90 -4 -142 -31 -57 -29 -62 -30 -101 -17 l-41 14
24 54 c14 29 36 96 49 148 26 102 52 338 39 358 -8 14 -13 15 153 -37z m149
26 c41 -20 81 -56 73 -64 -2 -3 -36 6 -74 18 -39 13 -91 29 -117 36 -26 7 -45
16 -42 21 10 17 116 10 160 -11z m-4771 -82 c32 -95 112 -281 161 -380 39 -78
39 -78 19 -78 -9 0 -29 -7 -46 -15 l-30 -16 -43 93 c-83 178 -186 426 -186
447 0 6 12 11 28 11 15 0 34 5 42 10 8 5 18 10 21 10 3 0 18 -37 34 -82z
m1961 14 c-12 -11 -18 7 -10 30 l8 23 4 -23 c2 -13 1 -26 -2 -30z m-37 -9 l32
-28 -10 -70 c-19 -125 -22 -136 -32 -130 -16 11 -10 -5 28 -63 30 -48 93 -174
93 -188 0 -2 -8 -4 -18 -4 -10 0 -23 -5 -29 -11 -7 -7 -17 6 -32 43 -13 29
-40 83 -62 119 -35 58 -39 73 -39 130 0 73 20 229 29 229 4 0 22 -12 40 -27z
m-4558 -65 c45 -66 119 -216 148 -300 16 -46 16 -58 5 -90 -7 -20 -16 -58 -20
-83 -6 -45 -8 -47 -73 -80 -36 -18 -122 -65 -191 -104 -127 -73 -172 -85 -188
-53 -12 22 -5 41 25 74 l25 27 -39 60 c-22 33 -64 106 -94 160 -38 70 -56 96
-62 86 -11 -21 -74 -30 -93 -14 -20 17 -11 65 18 96 57 61 467 301 490 287 4
-3 27 -33 49 -66z m7557 37 c77 -19 187 -42 245 -51 107 -17 167 -41 167 -69
0 -20 -49 -43 -58 -28 -4 6 -7 -46 -8 -116 0 -100 -5 -143 -23 -208 -13 -46
-28 -83 -34 -83 -7 0 4 -8 23 -18 48 -26 60 -49 36 -68 -11 -8 -30 -14 -42
-14 -32 0 -350 59 -416 77 l-58 16 0 41 c-1 22 -7 52 -14 64 -11 20 -10 34 7
90 17 55 21 97 21 235 1 92 4 167 7 167 3 0 69 -16 147 -35z m-6330 9 c11 -12
28 -15 64 -12 32 4 48 1 48 -6 0 -23 -24 -36 -65 -36 -47 0 -85 23 -85 51 0
23 16 25 38 3z m1038 -59 c20 -20 23 -29 14 -45 -35 -65 -174 -46 -157 22 13
50 101 65 143 23z m-1258 -3 c9 -6 -1 -13 -29 -21 -44 -13 -55 -10 -46 14 7
16 53 20 75 7z m332 -27 c0 -14 -9 -89 -20 -168 -11 -78 -24 -194 -29 -257
-11 -139 -6 -472 9 -590 10 -77 10 -86 -6 -95 -9 -5 -30 -21 -45 -33 -26 -21
-28 -28 -23 -65 9 -60 18 -64 59 -28 42 36 55 39 55 10 0 -41 64 -154 119
-213 31 -32 81 -75 112 -95 l55 -37 -18 -29 c-24 -40 -23 -52 7 -59 14 -4 25
-11 25 -16 0 -20 26 -9 51 21 l26 32 74 -30 c110 -45 180 -66 189 -57 4 5 19
59 34 119 95 398 327 783 598 995 l27 20 3 -37 c4 -55 31 -55 79 -1 21 23 56
72 77 108 35 59 46 69 118 107 l79 42 21 -20 c27 -26 97 -35 350 -48 120 -7
245 -19 309 -32 59 -11 111 -17 116 -12 4 4 10 20 14 34 6 24 2 29 -38 48 -69
33 -175 49 -413 61 -120 7 -220 13 -222 15 -9 8 122 39 193 45 44 4 91 12 105
17 18 8 36 6 65 -5 27 -10 95 -16 213 -20 94 -2 172 -8 172 -13 0 -5 9 -18 20
-29 29 -29 99 -26 204 10 48 16 132 35 187 42 l99 12 40 -39 c39 -38 73 -47
118 -34 34 10 110 -280 133 -506 14 -145 7 -418 -17 -590 -16 -123 -19 -163
-13 -170 2 -2 20 0 39 4 45 9 55 37 75 209 48 401 19 767 -82 1029 -8 21 17
15 107 -27 87 -41 103 -59 101 -116 -1 -35 57 -274 70 -290 44 -53 89 -25 89
55 0 27 -8 76 -18 109 l-19 59 28 10 c26 10 34 6 106 -53 180 -149 318 -327
443 -571 28 -55 39 -89 35 -103 -9 -29 -40 -25 -54 8 -20 43 -63 102 -83 113
-23 12 -48 -4 -48 -32 0 -24 129 -266 144 -272 22 -9 86 17 92 37 5 15 8 16
14 5 10 -18 49 -158 66 -234 11 -54 11 -61 -4 -73 -29 -22 -113 -43 -222 -55
l-105 -12 77 -3 c93 -3 187 17 270 59 84 42 185 145 223 227 29 61 30 62 70
62 22 0 57 4 78 9 53 13 49 -10 -7 -43 -93 -54 -177 -186 -193 -302 -5 -41
-10 -46 -77 -89 -112 -72 -276 -112 -415 -99 -51 4 -62 3 -48 -6 40 -25 265
-7 361 30 16 6 32 8 35 4 12 -11 13 -687 1 -814 -35 -385 -168 -716 -396 -984
-64 -76 -240 -229 -256 -224 -5 2 -23 35 -40 73 -16 39 -75 161 -129 273 l-99
202 16 33 c10 17 38 90 64 160 l47 129 7 -174 c9 -216 14 -252 42 -256 11 -2
32 6 45 18 l24 20 -33 -17 c-27 -15 -34 -16 -41 -4 -13 20 -24 252 -20 409 2
72 3 132 2 132 -1 0 -14 -37 -29 -82 -14 -46 -28 -84 -29 -86 -6 -7 -66 29
-71 42 -7 18 64 197 88 223 13 13 33 23 49 23 50 0 59 -35 60 -237 1 -98 4
-218 8 -268 6 -68 8 -28 9 165 2 316 -6 353 -79 353 -39 0 -74 -35 -97 -96
l-19 -50 -31 44 c-95 137 -309 273 -555 353 -166 55 -370 86 -558 86 l-110 0
-35 78 c-58 124 -104 260 -104 304 0 52 37 137 118 266 126 203 197 398 164
448 -11 17 -59 14 -75 -5 -8 -9 -24 -47 -36 -85 -29 -89 -55 -141 -158 -308
-46 -76 -95 -168 -109 -205 -46 -119 -25 -252 66 -433 l29 -58 -37 -6 c-20 -3
-63 -8 -94 -12 -65 -7 -107 -39 -93 -71 10 -22 6 -65 -6 -77 -5 -6 -9 -20 -9
-32 0 -24 -23 -34 -80 -34 -44 0 -62 11 -50 30 5 8 5 21 -1 32 -6 10 -8 22 -5
26 9 16 -12 34 -44 38 -51 6 -143 -48 -233 -138 -42 -43 -95 -87 -117 -98 -44
-22 -70 -63 -70 -110 0 -31 30 -70 54 -70 10 0 17 -18 22 -58 3 -31 14 -78 24
-103 16 -44 16 -47 -2 -68 -24 -30 -24 -93 0 -114 28 -26 90 -48 130 -46 20 0
66 -11 101 -26 57 -24 74 -27 135 -22 39 3 81 8 92 12 19 6 22 2 26 -44 3 -34
14 -62 32 -86 26 -33 26 -37 12 -63 -9 -15 -31 -59 -50 -98 -27 -56 -41 -74
-67 -84 -51 -22 -170 -121 -219 -185 -91 -117 -81 -109 -126 -95 -72 23 -208
99 -295 164 -296 223 -510 594 -584 1011 -30 172 -42 784 -19 992 7 60 12 55
-111 93 -94 29 -253 105 -345 166 -99 65 -203 164 -240 229 -77 135 -119 402
-120 756 0 178 25 558 38 571 4 3 18 8 32 11 14 2 -29 5 -95 6 -122 1 -160 10
-139 31 7 7 36 18 65 26 l54 13 -50 -4 c-27 -2 -60 -7 -72 -11 -17 -5 -23 -2
-23 9 0 29 74 41 166 28 125 -17 181 -15 194 9 15 28 30 25 30 -5z m754 -27
c-2 -43 -6 -54 -27 -66 -23 -14 -27 -14 -52 6 -48 38 -132 23 -169 -30 -18
-26 -21 -80 -6 -109 17 -30 68 -52 106 -44 30 5 35 3 43 -17 29 -77 109 -46
113 44 1 29 7 38 34 53 30 16 34 16 55 1 l23 -16 -32 0 c-48 0 -74 -31 -70
-83 2 -35 7 -43 29 -51 41 -14 78 0 94 36 14 34 11 52 -14 82 -15 18 -15 18 6
12 47 -15 78 27 54 72 -7 13 -3 25 14 45 29 33 32 33 58 5 63 -71 104 -234 78
-309 -14 -42 -7 -49 12 -12 10 18 48 48 106 82 50 30 91 56 91 58 0 3 -5 13
-10 24 -6 11 -8 25 -4 31 4 6 16 -7 30 -33 25 -48 29 -69 14 -69 -24 0 -192
-115 -277 -189 -156 -137 -266 -182 -391 -160 -33 6 -74 19 -91 30 -29 18 -31
22 -32 81 -1 55 -2 59 -10 33 -22 -67 11 -207 65 -277 31 -41 34 -59 6 -33
-11 10 -20 13 -20 8 0 -6 7 -16 15 -23 9 -7 13 -15 10 -18 -3 -3 -17 5 -32 19
l-27 24 19 -30 c18 -30 18 -30 -2 -12 -80 70 -125 271 -88 392 8 27 12 51 10
53 -6 6 -35 -68 -35 -90 0 -59 -67 69 -76 144 -11 98 39 235 108 293 59 49
170 93 243 94 30 1 30 1 29 -51z m2623 -24 c35 -52 37 -62 37 -128 0 -47 -6
-82 -17 -103 -10 -18 -19 -33 -22 -33 -20 0 -55 28 -67 54 -14 27 -14 40 -2
96 7 36 14 89 14 118 0 28 4 52 10 52 5 0 27 -25 47 -56z m1773 -20 c-27 -9
-57 -11 -75 -7 l-30 7 35 7 c19 3 53 7 75 7 l40 0 -45 -14z m384 -38 c37 -45
45 -73 24 -94 -21 -21 -47 -13 -63 19 -9 17 -19 29 -21 26 -3 -3 2 -19 11 -37
9 -17 19 -54 22 -81 6 -49 5 -51 -18 -47 -20 2 -25 12 -36 63 -14 69 -19 168
-9 184 16 25 55 11 90 -33z m-4870 13 c33 -26 32 -31 -2 -70 -48 -54 -132 -40
-132 21 0 35 41 70 80 70 15 0 39 -9 54 -21z m4566 6 c0 -8 -6 -15 -12 -15 -7
0 -30 -3 -52 -7 -30 -5 -38 -3 -34 8 9 26 98 39 98 14z m-4350 -10 c31 -16 60
-62 53 -82 -10 -27 -76 -6 -108 33 -8 10 -17 10 -42 -1 -18 -8 -33 -18 -33
-22 -1 -4 -2 -31 -3 -59 -2 -54 -19 -84 -46 -84 -27 0 -41 21 -41 62 0 54 21
98 64 136 30 26 45 32 82 32 25 0 58 -7 74 -15z m-1149 -5 l90 0 -3 -27 c-3
-27 -5 -28 -83 -35 -44 -3 -99 -11 -122 -16 l-43 -10 -6 34 c-3 18 -7 37 -8
41 -1 9 54 22 72 17 8 -2 54 -4 103 -4z m5494 -35 c0 -23 -73 -48 -185 -64
-67 -9 -105 -21 -67 -21 15 0 17 -14 17 -107 -1 -183 -27 -473 -65 -706 -20
-122 -40 -226 -45 -230 -9 -10 -43 113 -66 241 -16 89 -16 101 1 230 10 82 19
232 22 372 4 214 13 300 31 300 4 0 34 -11 67 -25 71 -29 124 -32 168 -8 81
45 122 51 122 18z m-5105 -136 c25 -48 25 -66 1 -79 -31 -16 -39 -12 -57 23
-9 17 -30 47 -45 65 -29 33 -35 64 -22 111 6 24 8 23 55 -28 27 -29 58 -70 68
-92z m1788 29 c-21 -13 -32 -9 -44 16 -10 21 -8 25 10 33 17 8 23 5 34 -15 10
-21 10 -27 0 -34z m-1078 17 c0 -8 -4 -15 -10 -15 -5 0 -10 7 -10 15 0 8 5 15
10 15 6 0 10 -7 10 -15z m40 5 c0 -5 -4 -10 -10 -10 -5 0 -10 5 -10 10 0 6 5
10 10 10 6 0 10 -4 10 -10z m980 -9 c5 -11 10 -22 10 -25 0 -6 -111 -41 -127
-39 -21 1 -14 -7 15 -18 15 -6 117 -15 227 -20 110 -5 244 -16 298 -24 96 -14
197 -48 183 -62 -3 -4 -12 -1 -18 5 -7 7 -16 12 -21 12 -5 0 1 -9 14 -21 20
-17 21 -20 5 -15 -16 6 -17 4 -6 -9 16 -19 15 -19 -72 5 -86 23 -244 40 -372
40 -115 0 -248 15 -284 32 -20 10 -27 20 -27 43 0 26 9 36 63 73 70 46 96 52
112 23z m-1059 -34 c-8 -8 -11 -7 -11 4 0 20 13 34 18 19 3 -7 -1 -17 -7 -23z
m-1767 -29 c22 -24 51 -56 64 -73 17 -23 21 -25 17 -9 -5 18 4 25 74 51 79 30
79 30 85 9 15 -56 -4 -158 -39 -212 -12 -19 -19 -22 -34 -14 -34 18 -131 112
-125 121 8 14 -53 87 -88 105 -29 15 -32 15 -57 -4 -29 -21 -46 -64 -55 -138
-5 -41 -4 -44 4 -18 6 18 21 36 36 43 25 11 29 9 55 -21 23 -27 28 -43 28 -83
0 -117 -65 -200 -116 -149 -11 11 -26 14 -46 10 -40 -8 -108 32 -138 81 l-23
36 24 16 c46 30 100 51 101 38 0 -7 7 23 15 66 24 134 62 187 132 187 39 0 49
-5 86 -42z m1820 -4 c26 -10 18 -24 -14 -24 -30 0 -41 14 -17 23 6 3 13 6 14
6 1 1 8 -2 17 -5z m-670 -20 c9 -22 -10 -51 -44 -69 -50 -26 -80 -16 -80 28 0
8 4 7 12 -1 29 -29 105 7 92 43 -4 8 -2 15 4 15 5 0 13 -7 16 -16z m5319 -14
c9 0 20 8 26 17 5 10 13 14 17 10 13 -12 -11 -42 -35 -45 -23 -4 -61 22 -61
41 0 6 8 3 18 -6 10 -10 26 -17 35 -17z m-6523 -7 c0 -5 23 -34 50 -66 49 -58
50 -59 32 -82 l-17 -23 -22 20 c-12 11 -34 38 -49 59 -27 39 -49 49 -57 27 -2
-7 -7 -10 -11 -7 -4 4 0 23 8 43 12 28 21 36 40 36 15 0 26 -3 26 -7z m7042
-33 c29 -36 32 -67 11 -130 -13 -41 -15 -56 -6 -48 7 6 13 16 13 24 0 22 19
26 76 13 52 -12 55 -14 49 -38 -15 -58 -85 -100 -184 -108 l-71 -6 36 70 c20
39 38 90 41 114 6 61 -10 81 -69 81 -48 0 -138 -33 -138 -51 0 -7 8 -7 25 1
19 8 35 8 64 -1 l40 -11 -16 -46 c-8 -25 -29 -66 -47 -92 -35 -53 -50 -55
-125 -20 -67 32 -118 90 -130 148 -10 47 -6 110 8 110 18 0 120 -48 114 -53
-14 -15 14 -6 47 15 69 42 122 58 184 55 47 -3 63 -8 78 -27z m-4464 -7 c2 -9
-9 -13 -36 -13 -22 0 -59 -10 -86 -25 -32 -17 -46 -21 -46 -11 0 16 28 42 60
55 33 14 102 9 108 -6z m1811 -70 c50 -170 71 -328 71 -548 0 -250 -31 -540
-60 -569 -8 -8 -10 -3 -5 19 5 21 4 26 -3 16 -8 -11 -11 -10 -15 5 -4 16 -5
16 -6 -3 -1 -24 -21 -43 -21 -20 0 8 4 37 10 65 31 164 41 534 20 722 -6 52
-24 153 -41 223 -33 134 -31 157 12 157 14 0 23 -16 38 -67z m-4308 40 c13
-16 12 -17 -3 -4 -10 7 -18 15 -18 17 0 8 8 3 21 -13z m656 -10 c4 -10 10 -21
15 -24 23 -15 -127 -193 -199 -236 -62 -36 -159 -43 -230 -15 -106 40 -252
154 -240 187 13 32 36 26 96 -24 171 -142 266 -152 385 -41 33 32 79 83 101
114 42 58 61 68 72 39z m6252 -22 c12 -21 -1 -75 -31 -134 -18 -37 -20 -38
-37 -23 -18 16 -18 19 5 74 23 57 31 97 17 89 -5 -3 -17 -1 -28 4 -15 6 -9 8
22 8 31 1 45 -4 52 -18z m-6880 -134 c40 -37 49 -52 41 -62 -13 -15 -93 -50
-137 -60 l-33 -7 25 44 c18 32 25 58 25 101 0 49 2 56 13 45 8 -7 37 -35 66
-61z m6811 -42 c9 -11 6 -23 -19 -58 -41 -60 -116 -133 -177 -173 -56 -36
-160 -75 -196 -73 -22 1 -22 1 2 9 l25 8 -25 2 -25 2 25 8 c25 8 25 8 -5 10
-27 2 -26 3 15 14 63 18 113 40 157 70 52 35 152 135 169 169 16 30 35 35 54
12z m-1100 -182 c-21 -85 0 -254 50 -416 12 -38 20 -70 18 -72 -2 -1 -24 -5
-50 -8 l-46 -6 -21 87 c-31 136 -44 278 -31 358 11 71 24 98 62 134 l23 21 4
-23 c1 -12 -3 -46 -9 -75z m278 -35 c67 -91 97 -138 90 -142 -2 -1 -16 -8 -32
-15 -24 -10 -31 -10 -37 1 -4 7 -30 44 -58 81 -43 57 -51 75 -51 111 0 37 6
56 17 56 2 0 34 -42 71 -92z m-31 -110 c28 -40 48 -79 46 -86 -3 -7 11 -37 30
-67 l36 -53 -77 -37 c-42 -20 -91 -47 -109 -61 -44 -33 -57 -31 -50 9 3 17 17
97 31 177 14 79 26 157 26 173 0 37 8 31 67 -55z m-382 -103 c19 -14 39 -35
45 -45 17 -32 21 -152 7 -201 l-13 -44 -51 3 c-105 7 -126 -44 -36 -88 l52
-26 -39 -70 c-39 -71 -142 -178 -163 -171 -6 2 -23 52 -38 113 -15 60 -36 135
-47 167 l-21 59 91 114 c53 67 100 117 113 120 28 7 91 -32 124 -77 13 -17 25
-28 28 -25 8 8 -34 58 -74 89 -72 54 -116 28 -239 -144 -93 -129 -90 -125
-107 -111 -33 27 -27 51 36 145 65 95 138 175 191 209 40 25 95 19 141 -17z
m-4617 -93 c19 -24 6 -119 -14 -99 -3 3 -7 17 -8 31 0 14 -2 26 -4 26 -9 0
-50 -25 -69 -43 -32 -29 -41 -13 -12 20 22 25 22 26 1 9 -31 -26 -37 -15 -10
20 12 16 15 23 8 17 -8 -7 -18 -13 -23 -13 -14 0 4 21 37 41 35 22 73 18 94
-9z m5567 -136 c48 -48 152 -282 174 -394 17 -83 14 -111 -11 -121 -17 -6 -24
-5 -26 6 -3 12 -6 11 -17 -3 -11 -16 -15 -16 -29 -5 -17 15 -22 41 -7 41 5 0
12 -6 15 -12 16 -35 -8 86 -31 152 -32 93 -106 255 -122 264 -14 9 -15 -6 -1
-20 10 -10 -21 -108 -40 -128 -13 -13 -60 21 -60 42 1 33 49 155 71 178 28 30
54 30 84 0z m-855 -38 c0 -19 15 -24 24 -9 10 15 80 23 109 12 28 -11 45 -36
32 -49 -3 -4 -11 1 -17 11 -9 16 -20 18 -95 13 -84 -5 -85 -5 -79 17 3 12 6
29 6 37 0 13 1 13 10 0 5 -8 10 -23 10 -32z m-489 -6 c-6 -12 -5 -28 5 -51 12
-28 18 -33 39 -29 28 6 32 -3 10 -22 -36 -30 -106 68 -75 105 17 21 33 19 21
-3z m1143 -51 l29 -54 -17 -53 -17 -54 -47 0 c-26 0 -74 -7 -106 -14 l-60 -14
-40 34 c-47 40 -113 74 -145 74 -37 0 -9 25 68 62 103 49 200 78 256 75 50 -2
50 -2 79 -56z m-5552 -175 c-71 -116 -72 -118 -70 -70 0 23 -2 46 -6 52 -3 6
10 37 30 69 20 32 43 69 52 82 l15 24 17 -33 17 -34 -55 -90z m2563 134 c-3
-5 -2 -17 3 -26 8 -14 10 -12 16 10 10 39 26 31 26 -12 0 -83 -53 -204 -185
-423 -120 -200 -126 -247 -55 -419 17 -41 28 -80 26 -87 -3 -8 -23 -13 -50
-13 l-44 0 -26 65 c-35 87 -46 166 -34 240 12 78 29 115 119 260 115 184 126
206 160 307 33 98 37 108 45 108 3 0 2 -4 -1 -10z m2590 -64 c63 -19 131 -67
175 -122 19 -24 36 -48 38 -53 1 -4 -46 -11 -105 -14 -206 -10 -372 -92 -459
-226 -35 -53 -38 -45 -32 79 8 163 98 294 230 335 57 18 95 18 153 1z m-5062
-26 c26 -43 142 -140 242 -201 64 -39 84 -57 79 -68 -3 -9 -11 -29 -16 -44 -8
-21 -15 -26 -27 -21 -36 15 -72 16 -95 1 -23 -16 -26 -15 -68 22 -52 46 -148
109 -206 135 -23 10 -42 23 -42 29 0 11 103 177 110 177 3 0 14 -14 23 -30z
m5545 -10 c17 0 16 -6 -17 -90 -32 -82 -49 -98 -128 -129 l-53 -21 -6 28 c-4
15 -13 39 -20 54 -14 27 -14 27 23 33 21 3 48 8 60 11 17 3 20 0 16 -16 -9
-36 13 -21 26 18 52 144 52 144 70 128 10 -9 23 -16 29 -16z m-5723 -91 c0
-32 -2 -34 -30 -31 -19 1 1 -10 53 -31 134 -56 302 -169 302 -204 0 -11 8 -8
31 11 35 30 61 33 83 10 19 -19 21 -15 -112 -239 -138 -233 -153 -254 -180
-255 -29 0 -59 -15 -92 -46 l-25 -23 -69 29 c-38 16 -106 51 -151 77 -78 44
-83 49 -80 78 1 16 1 23 -2 14 -11 -45 -93 -67 -101 -28 -2 13 3 15 23 12 19
-4 35 4 65 31 l41 37 45 -40 c94 -83 209 -115 307 -87 117 34 187 133 187 265
0 120 -55 205 -170 260 -45 21 -69 26 -135 26 -46 0 -94 -6 -113 -14 -45 -19
-35 -23 13 -6 134 48 308 -23 370 -150 23 -46 27 -65 23 -117 -8 -126 -78
-221 -182 -249 -86 -23 -208 12 -292 85 l-39 34 24 25 c34 37 22 61 -24 53
-32 -6 -36 -4 -46 21 -15 39 -6 122 18 171 11 23 16 39 11 35 -37 -22 -62
-166 -39 -226 8 -22 4 -28 -40 -62 l-50 -38 -24 23 c-14 13 -25 27 -25 32 0 8
16 37 100 183 55 97 205 334 223 354 49 52 102 42 102 -20z m639 35 c25 -24
20 -45 -8 -38 -18 4 -29 -2 -49 -27 -28 -36 -45 -35 -27 3 11 22 11 22 -9 -2
-23 -28 -27 -21 -10 13 12 22 12 22 -10 3 -18 -16 -21 -17 -21 -3 0 24 58 67
90 67 16 0 36 -7 44 -16z m4986 3 c0 -30 -26 -45 -92 -51 -61 -6 -68 -5 -78
14 -13 23 -10 25 65 39 75 13 105 13 105 -2z m184 -164 c6 -19 4 -23 -16 -23
-41 0 -49 12 -37 54 7 25 7 47 1 64 -23 64 -20 63 12 -3 18 -38 37 -80 40 -92z
m-74 62 c0 -46 -5 -59 -30 -88 -26 -30 -156 -105 -165 -95 -2 1 -5 20 -6 41
l-4 38 75 32 c68 30 77 36 97 80 13 26 25 47 28 47 3 0 5 -25 5 -55z m-246
-50 c29 -61 27 -185 -4 -250 -36 -75 -123 -157 -195 -185 -158 -60 -326 -8
-395 124 -21 39 -23 48 -12 84 15 49 85 129 152 172 94 61 241 99 365 97 l70
-2 19 -40z m-4914 -79 c0 -34 -295 -535 -316 -536 -6 0 -18 8 -26 18 -14 16
-7 30 79 172 51 85 121 205 154 267 58 109 61 112 85 101 13 -6 24 -16 24 -22z
m5240 24 c18 -9 54 -104 49 -126 -1 -5 3 -22 10 -39 18 -44 26 -249 12 -316
-10 -47 -19 -62 -52 -88 -96 -78 -189 -80 -268 -7 -101 93 -99 274 4 378 63
64 106 83 187 83 43 0 61 3 51 9 -28 15 -130 0 -177 -28 -98 -57 -151 -150
-151 -266 0 -62 5 -84 28 -127 59 -114 174 -150 292 -90 l39 19 -15 -23 c-25
-38 -121 -97 -185 -114 -69 -18 -175 -19 -224 -2 -29 10 -35 17 -32 37 2 20 0
22 -8 10 -5 -8 -10 -22 -10 -30 0 -20 -47 -70 -65 -70 -27 0 -53 51 -74 147
-19 88 -34 149 -47 194 -3 12 8 18 46 27 163 38 269 143 304 303 4 20 17 30
53 44 27 10 68 33 92 51 47 36 102 45 141 24z m-6416 -64 c-14 -38 -109 -47
-109 -11 0 17 6 19 41 17 23 -2 45 2 49 7 9 15 25 4 19 -13z m-23 -73 c0 -16
10 -115 22 -221 12 -106 20 -195 18 -198 -2 -2 -15 -4 -28 -4 -19 0 -23 5 -23
33 0 17 -11 115 -24 216 -14 102 -23 189 -20 193 3 4 16 8 30 8 19 0 24 -5 25
-27z m250 -76 c-6 -8 -33 -56 -61 -108 -36 -69 -50 -87 -50 -68 0 36 56 144
87 169 29 23 41 26 24 7z m-16 -233 c-5 -31 13 -64 36 -64 5 0 9 -6 9 -14 0
-8 20 -75 44 -150 24 -76 41 -146 39 -160 -5 -25 -5 -25 -92 31 -135 86 -188
131 -194 160 -3 19 12 63 54 151 l59 125 26 -24 c20 -19 24 -30 19 -55z m158
-221 c30 -92 54 -170 51 -175 -5 -7 -44 -12 -44 -5 0 1 -25 76 -55 166 -30 90
-52 168 -49 172 3 5 13 9 23 9 13 0 29 -36 74 -167z m186 41 c36 -15 67 -29
69 -30 1 0 -2 -14 -8 -30 -16 -40 -4 -94 35 -159 l34 -56 -17 -45 c-16 -44
-18 -46 -50 -41 -18 3 -55 16 -83 29 l-51 23 -64 180 c-35 99 -68 194 -73 211
l-8 31 74 -43 c42 -24 105 -55 142 -70z m291 46 c0 -3 -21 -35 -47 -70 -25
-35 -47 -74 -49 -86 -1 -12 -7 -30 -12 -40 -8 -15 -12 -11 -23 25 -14 48 -12
54 61 159 33 47 36 49 53 35 9 -9 17 -19 17 -23z m92 -44 c16 -30 21 -61 22
-118 1 -71 -1 -79 -22 -94 -18 -13 -23 -23 -19 -43 3 -15 2 -33 -3 -41 -6 -10
-10 -6 -15 16 -10 48 -47 115 -84 151 -19 18 -31 36 -26 41 4 4 10 1 12 -5 3
-7 9 -13 15 -13 6 0 4 10 -5 23 -14 21 -13 25 3 47 l18 23 11 -21 c6 -12 16
-22 21 -22 5 0 2 13 -7 28 -16 28 -15 30 6 61 27 38 40 32 73 -33z m-182 38
c0 -3 -15 -23 -32 -46 -45 -55 -46 -114 -3 -183 17 -27 37 -51 45 -53 12 -4
11 0 -2 21 -16 24 -16 28 0 66 9 22 20 41 24 41 9 0 62 -69 82 -107 9 -18 16
-50 16 -72 0 -36 -4 -44 -39 -67 -44 -28 -120 -54 -162 -54 l-28 0 24 58 c13
31 29 56 36 54 6 -2 1 14 -12 35 -87 143 -91 212 -17 279 28 26 68 43 68 28z
m2360 -75 c12 -23 20 -42 18 -44 -2 -1 -23 -5 -48 -7 l-45 -5 -22 49 -22 48
49 0 c48 0 50 -1 70 -41z m3264 -74 c-21 -46 -54 -63 -89 -47 -14 6 -25 16
-25 21 0 12 124 80 128 70 2 -4 -4 -24 -14 -44z m-3298 -10 c60 -42 94 -203
94 -451 l0 -182 -34 -50 c-18 -27 -42 -70 -52 -96 -16 -40 -24 -47 -54 -52
-19 -3 -100 -22 -180 -41 -189 -45 -244 -50 -312 -28 -29 9 -58 21 -65 27 -7
5 -42 10 -78 11 -62 2 -69 4 -96 35 -16 18 -29 40 -29 49 0 9 24 39 53 67 28
27 44 46 35 43 -10 -4 -25 -10 -32 -13 -11 -4 -20 12 -37 66 -47 154 -7 307
107 409 61 54 168 116 184 106 6 -3 10 -37 10 -74 0 -110 49 -160 141 -146 71
12 128 97 129 192 0 29 -5 64 -12 78 -6 14 -8 28 -4 32 12 13 116 20 125 9 15
-19 30 -79 41 -157 35 -249 -113 -451 -330 -451 -143 0 -242 80 -285 232 -15
52 -15 53 -10 12 12 -94 83 -194 167 -236 62 -31 167 -35 239 -11 58 21 132
75 169 126 89 124 99 306 25 481 -5 13 0 17 27 21 18 2 35 5 38 5 3 1 15 -5
26 -13z m399 -10 c218 -25 470 -100 586 -174 54 -34 102 -102 126 -180 21 -69
24 -242 4 -321 -24 -100 -128 -300 -175 -339 -14 -11 -24 -7 -68 27 -66 50
-180 107 -244 123 -55 13 -74 31 -74 70 0 14 -6 44 -14 66 l-14 40 63 12 c178
32 240 70 215 130 -13 33 -161 158 -253 214 -34 21 -63 42 -65 47 -2 5 13 36
32 69 22 35 37 75 39 97 2 35 0 38 -32 46 -28 8 -37 6 -52 -9 -31 -31 -109
-182 -109 -210 0 -33 62 -95 180 -178 l85 -60 -105 -17 c-93 -15 -109 -15
-143 -2 -64 24 -147 18 -211 -15 l-56 -30 0 182 c0 193 -12 278 -50 364 -11
26 -26 51 -33 55 -21 13 233 9 368 -7z m2821 -45 c18 0 18 45 -2 -600 -6 -173
-5 -197 10 -209 20 -17 21 -32 1 -25 -8 4 -15 2 -15 -4 0 -6 5 -12 12 -14 16
-6 2 -38 -17 -38 -8 0 -15 5 -15 10 0 6 -5 10 -11 10 -5 0 -7 -4 -4 -10 9 -14
-8 -12 -24 3 -11 9 -13 9 -7 0 4 -7 2 -13 -3 -13 -14 0 -14 198 0 395 6 83 11
239 12 347 l0 197 23 -24 c13 -14 31 -25 40 -25z m-3462 5 c4 -10 -1 -15 -14
-15 -20 0 -26 11 -13 23 10 11 20 8 27 -8z m10 -51 c9 -24 7 -34 -8 -34 -16 0
-29 27 -20 41 8 14 21 11 28 -7z m-214 -9 c0 -8 -7 -15 -15 -15 -8 0 -15 7
-15 15 0 8 7 15 15 15 8 0 15 -7 15 -15z m925 -27 l-17 -33 27 30 26 30 -16
-35 c-13 -28 -13 -31 -1 -15 44 59 45 60 46 44 0 -8 -18 -53 -41 -99 -40 -83
-40 -85 -21 -100 11 -8 58 -43 105 -77 125 -92 197 -161 197 -189 0 -36 -31
-49 -204 -87 -154 -33 -159 -34 -177 -16 -19 19 -35 66 -27 75 6 5 174 38 252
49 l49 7 -26 16 c-97 63 -256 200 -263 226 -3 15 12 53 47 119 29 53 54 95 56
93 3 -2 -3 -19 -12 -38z m-920 -23 c0 -11 -8 -21 -17 -23 -14 -3 -18 3 -18 23
0 20 4 26 18 23 9 -2 17 -12 17 -23z m205 -1 c0 -7 -7 -32 -16 -55 -12 -29
-19 -37 -25 -27 -21 32 0 112 26 102 8 -3 15 -12 15 -20z m-174 -105 c3 -6 1
-16 -5 -22 -8 -8 -17 -5 -33 11 l-22 22 26 0 c15 0 30 -5 34 -11z m-391 -76
c-4 -10 -11 -45 -17 -78 -6 -33 -12 -62 -14 -64 -2 -2 -13 4 -24 14 -31 28
-27 80 9 116 33 33 57 39 46 12z m1140 -233 c20 -4 25 -9 15 -12 -8 -3 -44
-16 -79 -29 -87 -31 -151 -98 -190 -202 -9 -22 -8 -22 85 -19 62 2 94 0 94 -7
0 -6 -18 -11 -39 -11 -59 0 -185 -26 -237 -50 -26 -11 -59 -20 -74 -20 -63 0
-124 -36 -160 -94 l-18 -28 -15 29 c-9 16 -18 45 -22 66 -7 34 -5 38 20 47 61
23 260 61 263 50 2 -6 19 22 37 64 36 84 77 140 130 181 56 42 116 53 190 35z
m25 -59 c0 -10 9 -29 19 -43 l20 -25 -60 -17 c-32 -10 -62 -22 -65 -27 -7 -13
14 -11 68 5 51 16 55 13 86 -57 16 -38 16 -39 -10 -31 -13 4 -89 10 -171 13
l-148 6 33 55 c38 63 94 106 164 125 65 18 64 18 64 -4z m154 -129 c8 -31 19
-79 22 -105 6 -43 24 -67 24 -32 0 8 4 15 10 15 30 0 211 -80 255 -113 19 -14
19 -16 -9 -57 l-28 -42 -29 51 c-39 68 -91 102 -171 111 -35 4 -85 17 -113 29
-27 12 -84 31 -125 41 -56 13 -66 18 -40 18 40 1 116 -12 143 -23 25 -10 22
19 -8 83 -31 66 -31 70 -2 75 52 10 54 9 71 -51z m-192 -122 c36 -5 92 -19
123 -31 l57 -21 -36 -30 c-20 -16 -46 -47 -56 -69 -11 -21 -22 -39 -24 -39 -2
0 -23 7 -46 15 -57 20 -120 19 -179 -4 l-50 -19 -11 34 c-15 46 -52 88 -90
104 -37 15 -31 22 35 43 80 26 176 31 277 17z m-322 -72 c48 -25 81 -76 84
-131 1 -28 -4 -34 -42 -54 -123 -62 -273 -26 -288 68 -5 32 -2 42 31 78 58 63
138 78 215 39z m645 -7 c49 -22 95 -74 95 -106 0 -56 -107 -102 -213 -92 -51
5 -65 10 -94 39 -31 31 -33 37 -23 64 36 95 142 138 235 95z m732 -374 c40
-87 73 -163 73 -168 0 -12 -65 -44 -158 -78 -132 -48 -123 -49 -171 23 -62 94
-171 197 -257 245 -35 20 -45 33 -68 91 -14 37 -26 70 -26 73 0 3 18 27 40 53
22 27 40 54 40 61 0 19 9 16 48 -18 96 -85 196 -76 292 26 l24 26 45 -88 c24
-48 77 -159 118 -246z m-995 238 c59 -41 115 -150 102 -197 -6 -19 -21 -39
-37 -48 -24 -13 -30 -13 -54 0 -16 9 -43 37 -60 64 l-33 48 23 19 22 19 -24
20 c-44 38 -127 14 -115 -33 10 -43 -92 -147 -145 -147 -22 0 -51 40 -51 70 0
40 40 117 82 157 51 49 93 64 175 60 61 -2 78 -7 115 -32z m1068 -165 c45 -96
88 -191 95 -210 8 -19 34 -84 59 -145 24 -60 42 -113 39 -117 -7 -13 -83 -9
-83 4 0 21 -92 240 -181 430 l-87 186 29 12 c16 7 29 17 29 23 0 25 22 -16
100 -183z m-1613 8 c36 -16 59 -19 100 -15 48 5 53 4 53 -14 0 -11 7 -33 15
-48 22 -44 58 -52 109 -26 37 19 36 19 36 -10 0 -72 70 -126 136 -105 42 14
74 54 74 91 0 29 13 38 25 19 3 -5 21 -10 39 -10 37 0 71 30 81 72 7 25 9 26
61 21 68 -7 134 16 168 60 l25 31 15 -35 c8 -19 17 -41 19 -50 3 -9 38 -38 79
-65 86 -56 180 -149 235 -231 51 -74 116 -194 138 -254 14 -38 25 -50 56 -64
21 -10 39 -22 39 -27 0 -5 -10 -2 -22 6 -33 23 -47 19 -18 -5 l25 -20 -32 16
c-18 8 -33 11 -33 6 0 -5 9 -13 21 -16 11 -4 18 -9 15 -12 -3 -4 -24 2 -46 12
-35 16 -44 16 -65 5 -34 -18 -40 -8 -11 19 l24 23 -18 54 c-36 104 -118 241
-194 322 -38 42 -141 122 -155 122 -6 0 -11 -17 -11 -37 0 -58 -28 -161 -57
-215 -15 -27 -54 -74 -86 -105 -55 -50 -63 -54 -96 -49 -24 4 19 -22 129 -78
163 -83 165 -84 175 -62 24 55 58 72 70 36 14 -45 -34 -140 -71 -140 -8 0 -43
18 -78 40 -35 22 -116 65 -180 95 l-116 56 -62 -18 c-88 -24 -311 -24 -390 0
-56 17 -58 17 -159 -9 -56 -14 -153 -43 -215 -65 -131 -46 -143 -44 -169 25
-19 49 -14 90 10 100 21 8 55 -29 55 -60 0 -19 4 -24 18 -20 9 3 85 24 167 47
136 38 227 70 152 54 -36 -7 -78 18 -139 83 -81 86 -128 194 -128 294 0 26 -4
48 -9 48 -15 0 -124 -85 -167 -131 -57 -60 -108 -138 -155 -236 -59 -121 -62
-137 -33 -164 29 -27 24 -36 -8 -15 -22 14 -27 14 -62 -5 -21 -11 -43 -18 -49
-16 -7 2 -1 9 12 17 l24 12 -23 13 c-23 12 -23 13 -4 19 13 4 29 28 43 64 60
147 168 312 262 396 48 43 143 111 172 122 8 3 18 17 22 32 3 14 18 45 32 69
l25 43 29 -45 c21 -33 43 -52 76 -67z m465 8 c5 -7 -8 -12 -38 -14 -52 -4 -57
-1 -48 21 4 12 14 14 42 10 20 -3 40 -11 44 -17z m-52 -98 c0 -37 4 -57 10
-53 6 3 10 31 10 61 0 50 2 54 23 54 33 0 61 -51 53 -95 -19 -102 -166 -97
-182 6 -8 49 25 98 62 91 22 -4 24 -9 24 -64z m-586 -226 c9 -24 25 -57 38
-74 l21 -31 -64 7 c-66 8 -250 43 -256 50 -10 9 100 136 158 183 l64 52 12
-72 c6 -40 18 -91 27 -115z m1290 70 c32 -31 71 -76 87 -99 26 -37 27 -42 12
-47 -26 -8 -137 -23 -219 -31 l-71 -7 27 59 c29 60 50 142 50 194 l0 30 28
-21 c15 -12 53 -47 86 -78z m746 -242 c0 -31 -117 -64 -145 -40 -30 25 -17 35
41 32 49 -4 56 -2 61 17 4 17 9 19 24 10 10 -5 19 -14 19 -19z m-2556 -151
c-4 -8 1 -9 17 -4 23 7 23 7 4 -8 -11 -9 -22 -11 -23 -6 -2 5 -8 7 -13 3 -10
-6 -12 9 -2 19 11 11 25 8 17 -4z"/>
<path d="M4078 8433 c7 -3 16 -2 19 1 4 3 -2 6 -13 5 -11 0 -14 -3 -6 -6z"/>
<path d="M6801 7395 c-1 -42 -23 -85 -45 -85 -23 0 -47 25 -62 65 l-15 40 5
-45 c8 -76 74 -107 115 -54 22 28 26 65 11 99 -7 16 -9 11 -9 -20z"/>
<path d="M2585 6637 c-56 -19 -81 -33 -127 -75 -38 -34 -78 -98 -78 -124 0 -6
12 12 26 41 29 58 100 121 161 143 21 7 78 13 128 13 76 0 99 -5 146 -27 114
-52 181 -141 181 -237 -1 -80 -36 -145 -102 -186 -169 -106 -434 -49 -520 114
-10 20 -19 29 -20 20 0 -33 66 -114 122 -147 78 -46 198 -68 291 -53 86 14
133 38 181 91 48 53 66 97 66 157 0 100 -75 199 -189 251 -67 31 -200 40 -266
19z"/>
<path d="M2840 6515 c0 -10 7 -15 18 -13 21 4 19 22 -2 26 -10 2 -16 -3 -16
-13z"/>
<path d="M2517 6514 c-14 -14 -7 -35 11 -32 9 2 17 10 17 17 0 16 -18 25 -28
15z"/>
<path d="M2701 6479 c-14 -5 -38 -7 -54 -3 -20 4 -27 3 -23 -5 10 -16 89 -13
112 4 23 17 3 20 -35 4z"/>
<path d="M6360 6619 c-134 -14 -230 -71 -277 -162 -48 -95 -32 -197 44 -278
101 -108 301 -147 458 -88 65 24 118 69 153 127 38 65 38 164 -1 238 -64 125
-196 182 -377 163z m207 -30 c76 -29 143 -96 166 -168 31 -97 17 -169 -46
-238 -68 -74 -170 -109 -295 -100 -137 9 -262 80 -303 172 -41 88 -11 221 62
276 31 23 121 61 174 72 11 3 57 5 102 6 62 1 97 -4 140 -20z"/>
<path d="M6575 6404 c-47 -17 -74 -40 -35 -30 l25 7 -25 -15 c-24 -14 -24 -14
17 -9 27 4 48 1 58 -7 11 -9 15 -9 15 -1 0 7 -14 18 -31 25 l-31 13 26 7 c14
3 26 11 26 16 0 6 -1 10 -2 9 -2 0 -21 -7 -43 -15z"/>
<path d="M6195 6392 c35 -16 101 -25 90 -13 -6 6 -33 13 -60 16 -34 4 -43 3
-30 -3z"/>
<path d="M6200 6359 c-12 -8 -9 -9 13 -5 15 4 36 2 47 -4 11 -6 20 -7 20 -1 0
20 -55 28 -80 10z"/>
<path d="M6360 6316 c0 -8 -7 -16 -15 -20 -8 -3 -15 -1 -15 4 0 6 5 10 12 10
6 0 8 3 5 6 -4 4 -18 -1 -33 -10 -14 -10 -23 -20 -20 -23 8 -9 207 -10 212 -1
3 4 -4 16 -16 28 -25 25 -130 30 -130 6z m70 -6 c0 -5 -6 -10 -14 -10 -8 0
-18 5 -21 10 -3 6 3 10 14 10 12 0 21 -4 21 -10z m39 1 c9 -6 10 -11 2 -15
-13 -8 -31 1 -31 15 0 11 11 11 29 0z"/>
<path d="M7726 5927 c3 -10 9 -15 12 -12 3 3 0 11 -7 18 -10 9 -11 8 -5 -6z"/>
<path d="M7701 5920 c0 -8 4 -24 9 -35 5 -13 9 -14 9 -5 0 8 -4 24 -9 35 -5
13 -9 14 -9 5z"/>
<path d="M5138 6040 c6 -39 -21 -41 -42 -2 -10 17 -15 21 -16 11 0 -27 35 -63
53 -56 18 7 25 77 9 77 -5 0 -7 -13 -4 -30z"/>
<path d="M6480 5750 c-8 -5 -10 -10 -5 -10 6 0 17 5 25 10 8 5 11 10 5 10 -5
0 -17 -5 -25 -10z"/>
<path d="M410 4860 c-146 -26 -224 -194 -155 -335 26 -55 36 -68 80 -105 18
-15 13 -6 -12 20 -56 60 -83 121 -83 190 0 158 150 263 285 201 49 -22 120
-97 146 -154 40 -90 18 -203 -54 -268 -17 -16 -27 -29 -21 -29 7 0 30 20 52
44 82 89 77 222 -15 342 -51 68 -145 107 -223 94z"/>
<path d="M322 4718 c6 -18 28 -21 28 -4 0 9 -7 16 -16 16 -9 0 -14 -5 -12 -12z"/>
<path d="M445 4670 c-3 -5 -18 -11 -33 -11 l-27 -2 25 -4 c30 -6 42 -22 34
-46 -6 -18 -5 -18 13 0 11 10 14 20 8 22 -18 7 -24 25 -13 38 6 7 8 13 5 13
-3 0 -9 -4 -12 -10z"/>
<path d="M482 4474 c4 -21 22 -23 26 -1 2 10 -3 17 -13 17 -10 0 -15 -6 -13
-16z"/>
<path d="M500 4370 l-65 -7 60 -1 c33 -1 67 3 75 8 8 5 11 9 5 8 -5 -1 -39 -4
-75 -8z"/>
<path d="M8187 4875 c-83 -29 -127 -103 -127 -214 0 -87 34 -160 93 -199 54
-36 157 -43 204 -13 37 23 79 83 88 126 5 22 0 16 -18 -20 -52 -106 -136 -141
-232 -96 -104 48 -151 174 -110 292 25 70 71 109 152 128 28 7 31 9 13 10 -14
0 -42 -6 -63 -14z"/>
<path d="M8325 4861 c44 -20 74 -50 98 -96 9 -16 16 -26 17 -22 2 42 -98 138
-142 137 -7 0 5 -9 27 -19z"/>
<path d="M8250 4840 c0 -5 7 -10 15 -10 8 0 15 5 15 10 0 6 -7 10 -15 10 -8 0
-15 -4 -15 -10z"/>
<path d="M8270 4754 c0 -17 7 -37 15 -44 18 -15 18 -15 0 35 -14 40 -14 40
-15 9z"/>
<path d="M8441 4714 c0 -11 3 -14 6 -6 3 7 2 16 -1 19 -3 4 -6 -2 -5 -13z"/>
<path d="M8452 4650 c0 -14 2 -19 5 -12 2 6 2 18 0 25 -3 6 -5 1 -5 -13z"/>
<path d="M8300 4616 c0 -9 7 -16 16 -16 17 0 14 22 -4 28 -7 2 -12 -3 -12 -12z"/>
<path d="M3585 4370 c-17 -28 -7 -74 20 -98 25 -21 36 -24 81 -20 52 5 184 60
184 78 0 5 -33 -5 -72 -22 -95 -40 -162 -43 -189 -9 -14 17 -18 32 -14 53 7
28 2 37 -10 18z"/>
<path d="M4060 4338 c-30 -11 -73 -33 -95 -48 -61 -42 -143 -134 -165 -185
-24 -57 -27 -137 -4 -156 18 -14 66 -17 107 -6 21 6 27 4 27 -7 0 -25 59 -84
96 -96 39 -13 105 -7 143 14 21 11 26 10 47 -11 17 -17 34 -23 69 -23 39 0 51
5 86 38 94 89 109 299 29 412 -11 16 -48 42 -82 59 -52 26 -72 31 -132 30 -47
0 -90 -7 -126 -21z m231 -13 c57 -21 117 -79 130 -128 6 -21 10 -68 10 -103 0
-144 -65 -254 -149 -254 -61 0 -82 32 -82 124 0 86 15 144 43 166 27 22 17 47
-28 65 -47 20 -98 19 -125 -3 -19 -15 -21 -22 -11 -40 10 -19 4 -28 -61 -92
-109 -106 -182 -134 -214 -85 -14 21 -15 32 -5 72 16 63 35 97 84 150 113 123
276 174 408 128z m-115 -215 c28 0 34 -34 8 -44 -24 -9 -97 -7 -114 4 -12 7
-11 12 5 30 15 16 27 20 49 16 15 -3 39 -6 52 -6z m-125 -69 c-6 -10 -20 -21
-32 -24 -21 -6 -21 -6 2 19 27 29 44 32 30 5z m139 -10 c0 -24 -16 -44 -29
-37 -6 4 -11 14 -11 22 0 12 -5 11 -26 -5 -20 -16 -31 -18 -45 -10 -19 10 -25
30 -12 42 3 4 33 6 65 6 46 -1 58 -5 58 -18z m-12 -127 c2 -17 -5 -24 -29 -33
-35 -12 -112 -15 -122 -4 -10 9 29 34 77 49 53 17 70 14 74 -12z"/>
<path d="M4737 4227 c-45 -113 97 -188 230 -122 49 25 91 60 82 70 -3 2 -21
-6 -40 -19 -52 -36 -124 -57 -167 -50 -60 9 -85 34 -92 90 -4 35 -7 44 -13 31z"/>
<path d="M5746 3787 c-13 -28 0 -106 21 -136 26 -34 74 -40 102 -12 23 23 37
82 25 108 -5 14 -9 7 -14 -24 -7 -47 -34 -83 -61 -83 -28 0 -53 47 -60 110 -4
39 -8 50 -13 37z"/>
<path d="M5843 1417 c-45 -36 -83 -58 -83 -48 0 6 -9 15 -20 21 -14 7 -20 7
-20 0 0 -5 7 -10 15 -10 26 0 17 -37 -16 -64 -39 -33 -86 -35 -99 -3 -8 20 -9
21 -9 2 -1 -21 52 -75 73 -75 46 0 223 119 232 156 12 48 -26 59 -73 21z"/>
<path d="M2381 4513 c-1 -35 -17 -42 -40 -20 -11 10 -11 8 -2 -10 23 -45 57
-22 48 34 -4 27 -4 27 -6 -4z"/>
<path d="M2846 4514 c-20 -19 -20 -20 0 -53 16 -27 15 -30 -18 -92 -37 -69
-50 -99 -43 -99 3 0 25 40 50 89 38 77 42 91 30 101 -8 7 -15 21 -15 31 0 14
7 19 28 19 64 0 67 -41 11 -151 -22 -44 -39 -85 -37 -91 2 -5 26 36 52 91 43
89 47 105 38 127 -10 21 -47 44 -72 44 -5 0 -16 -7 -24 -16z"/>
<path d="M1610 4390 c-6 -11 -8 -20 -6 -20 3 0 10 9 16 20 6 11 8 20 6 20 -3
0 -10 -9 -16 -20z"/>
<path d="M1519 3053 c-13 -16 -12 -17 4 -4 9 7 17 15 17 17 0 8 -8 3 -21 -13z"/>
<path d="M1614 3019 c-10 -17 13 -36 27 -22 12 12 4 33 -11 33 -5 0 -12 -5
-16 -11z"/>
<path d="M1693 2922 c-18 -22 -24 -25 -35 -14 -11 11 -10 14 2 22 12 8 12 10
1 10 -7 0 -31 -17 -52 -39 -35 -35 -39 -44 -39 -89 0 -85 66 -142 165 -142 89
0 145 55 145 142 0 39 -6 54 -31 82 -28 33 -81 57 -119 55 -8 0 -25 -12 -37
-27z m110 -3 c48 -26 79 -95 40 -87 -12 3 -17 12 -16 29 1 22 -2 25 -28 21
-26 -4 -29 -1 -29 22 0 29 3 31 33 15z m-152 -98 c32 -32 41 -91 15 -91 -8 0
-21 -3 -30 -6 -11 -4 -16 0 -16 14 0 31 -11 52 -26 52 -9 0 -14 11 -14 30 0
40 31 40 71 1z m-47 -57 c10 -25 -1 -29 -14 -5 -6 12 -7 21 -1 21 5 0 12 -7
15 -16z m81 -64 c8 -13 -15 -13 -35 0 -12 8 -11 10 7 10 12 0 25 -4 28 -10z
m50 -10 c3 -5 -3 -10 -14 -10 -12 0 -21 5 -21 10 0 6 6 10 14 10 8 0 18 -4 21
-10z"/>
<path d="M1902 2873 c2 -10 10 -18 18 -18 22 0 18 29 -3 33 -14 3 -18 -1 -15
-15z"/>
<path d="M6671 2951 c-24 -24 -28 -69 -6 -77 44 -17 101 38 79 74 -16 25 -50
26 -73 3z"/>
<path d="M7416 2585 c-24 -24 -20 -26 19 -9 27 11 40 12 56 3 17 -9 20 -8 17
3 -7 20 -72 22 -92 3z"/>
<path d="M7534 2566 c-8 -22 3 -33 18 -18 9 9 9 15 0 24 -9 9 -13 7 -18 -6z"/>
<path d="M7314 2549 c-8 -14 11 -33 25 -25 16 10 13 36 -3 36 -8 0 -18 -5 -22
-11z"/>
<path d="M3680 1960 c0 -16 5 -21 23 -18 12 2 22 10 22 18 0 8 -10 16 -22 18
-18 3 -23 -2 -23 -18z"/>
<path d="M4424 8576 c-104 -25 -204 -109 -239 -199 -22 -59 -18 -195 9 -246
33 -62 93 -117 168 -152 65 -30 84 -34 178 -37 161 -6 272 29 358 112 71 67
87 106 87 211 0 67 -5 98 -18 122 -47 87 -145 162 -244 188 -69 18 -227 18
-299 1z m257 -5 c113 -19 211 -87 264 -182 25 -46 30 -65 30 -124 -1 -80 -15
-113 -78 -183 -79 -85 -207 -127 -361 -120 -157 8 -277 74 -330 179 -34 69
-37 180 -6 245 26 54 107 130 167 156 80 35 205 47 314 29z"/>
<path d="M4391 8394 c-46 -32 -63 -115 -39 -185 18 -54 45 -86 94 -109 97 -47
233 -18 302 65 79 96 66 245 -22 245 -24 0 -44 -11 -81 -45 -66 -59 -92 -59
-149 0 -48 48 -68 54 -105 29z m349 -2 c0 -10 -22 -32 -32 -32 -4 0 -8 9 -8
20 0 13 7 20 20 20 11 0 20 -4 20 -8z m-271 -16 c9 -10 9 -16 1 -21 -16 -10
-40 2 -40 20 0 19 24 20 39 1z m211 -16 c-6 -11 -18 -20 -27 -20 -14 0 -14 2
2 20 10 11 22 20 27 20 5 0 4 -9 -2 -20z m-17 -182 c15 -12 14 -16 -9 -41 -22
-26 -26 -27 -40 -13 -21 21 -31 20 -57 -7 -25 -26 -53 -25 -60 4 -3 10 -16 23
-29 28 -23 9 -22 9 12 25 43 19 160 21 183 4z m52 -18 c3 -5 -1 -10 -10 -10
-9 0 -13 5 -10 10 3 6 8 10 10 10 2 0 7 -4 10 -10z m-275 -20 c0 -5 -7 -10
-15 -10 -8 0 -15 5 -15 10 0 6 7 10 15 10 8 0 15 -4 15 -10z m38 -12 c16 -16
15 -28 0 -28 -22 0 -41 17 -34 29 9 14 19 14 34 -1z m207 2 c-3 -5 -13 -10
-21 -10 -8 0 -12 5 -9 10 3 6 13 10 21 10 8 0 12 -4 9 -10z m-77 -22 c-5 -15
-48 -24 -48 -10 0 14 12 22 33 22 10 0 17 -5 15 -12z"/>
<path d="M4834 8375 c-4 -9 -2 -21 4 -27 15 -15 44 -1 40 19 -4 23 -36 29 -44
8z"/>
<path d="M4260 8361 c0 -24 13 -33 34 -25 27 10 20 44 -9 44 -18 0 -25 -5 -25
-19z"/>
<path d="M1941 7903 c-1 -27 35 -51 52 -34 8 8 5 11 -9 11 -12 0 -26 10 -32
23 l-11 22 0 -22z"/>
<path d="M3168 7853 c7 -3 16 -2 19 1 4 3 -2 6 -13 5 -11 0 -14 -3 -6 -6z"/>
<path d="M2591 7473 c-1 -35 20 -63 48 -63 23 0 51 31 50 56 0 17 -1 17 -11
-3 -23 -47 -73 -37 -81 15 -4 25 -4 24 -6 -5z"/>
<path d="M7771 5785 c-1 -6 14 -56 33 -110 19 -55 35 -95 35 -90 1 6 -14 56
-33 110 -19 55 -35 95 -35 90z"/>
<path d="M7841 5565 c-1 -6 12 -49 28 -95 16 -47 30 -80 30 -75 1 6 -12 49
-28 95 -16 47 -30 80 -30 75z"/>
<path d="M7337 1343 c-11 -10 -8 -61 3 -68 6 -3 15 -3 22 1 8 5 6 10 -8 15
-16 6 -15 8 8 8 35 1 34 8 47 -268 11 -219 8 -251 -19 -251 -4 0 -14 109 -21
243 -8 133 -16 217 -17 187 -2 -30 1 -142 8 -248 l12 -192 -36 -38 c-61 -62
-90 -134 -91 -222 0 -116 40 -191 134 -250 41 -26 45 -33 63 -101 15 -59 16
-79 7 -96 -14 -25 -6 -53 15 -53 8 0 26 10 40 23 25 22 25 22 11 87 -20 92
-21 90 29 90 l44 0 7 -77 c8 -99 8 -99 46 -118 27 -15 33 -15 46 -3 12 12 11
18 -5 39 -23 29 -40 163 -22 174 7 4 17 2 23 -4 13 -13 107 -15 107 -2 0 6 -9
16 -20 24 -19 13 -18 15 25 57 25 24 47 42 49 39 3 -2 16 -43 29 -89 22 -76
27 -85 48 -85 36 0 35 36 -2 151 -25 77 -33 118 -34 184 -2 91 -22 153 -70
216 -14 18 -25 40 -25 48 0 19 -35 56 -52 56 -7 0 -2 -7 10 -16 42 -29 23 -54
-43 -54 -24 0 -37 7 -49 24 -10 15 -12 27 -6 31 20 12 9 23 -27 30 -21 4 -46
15 -56 26 -12 13 -30 18 -55 17 l-37 -1 35 -4 c72 -9 81 -45 15 -63 -77 -21
-125 8 -73 44 12 9 18 16 12 16 -5 0 -15 -5 -21 -11 -12 -12 -21 102 -27 343
-2 69 -7 131 -11 137 -7 12 -58 15 -68 4z m33 -13 c0 -5 -5 -10 -11 -10 -5 0
-7 5 -4 10 3 6 8 10 11 10 2 0 4 -4 4 -10z m30 -6 c0 -8 -4 -12 -10 -9 -5 3
-10 10 -10 16 0 5 5 9 10 9 6 0 10 -7 10 -16z m217 -500 c13 -4 21 -10 18 -14
-6 -10 -55 0 -55 11 0 10 7 11 37 3z m-12 -28 c18 -8 38 -24 44 -35 15 -27 4
-69 -20 -76 -31 -10 -42 4 -36 46 5 35 3 40 -20 45 -39 10 -51 -11 -17 -30 27
-14 27 -15 7 -16 -13 0 -23 4 -23 10 0 5 -16 2 -35 -7 -43 -20 -64 -8 -44 26
13 20 42 35 84 44 11 3 21 5 23 6 1 0 18 -5 37 -13z m-167 -19 c6 -7 9 -22 6
-33 -9 -33 19 -49 55 -31 37 18 81 11 81 -13 0 -43 59 -50 81 -9 8 15 17 19
37 15 15 -4 39 0 54 8 24 13 28 12 48 -9 11 -12 30 -45 40 -74 21 -54 28 -157
10 -146 -15 9 -12 0 11 -45 11 -22 34 -83 50 -135 27 -93 28 -96 10 -114 -18
-18 -19 -18 -25 21 -8 46 -64 198 -79 213 -10 10 -8 2 9 -41 11 -25 -84 -108
-147 -129 -122 -41 -261 -14 -339 65 -114 113 -105 298 20 420 55 54 62 57 78
37z m318 -542 c18 -13 17 -14 -18 -15 -55 0 -59 18 -7 29 3 0 14 -6 25 -14z
m-272 -34 c3 -9 10 -44 17 -78 9 -50 9 -66 -1 -78 -16 -19 -50 -19 -50 0 0 8
5 15 10 15 14 0 12 37 -5 94 -8 27 -15 55 -15 62 0 18 38 5 44 -15z m162 -61
c4 -48 12 -84 20 -91 20 -16 17 -29 -5 -29 -35 0 -48 25 -54 106 -6 75 -1 93
25 94 4 0 10 -36 14 -80z"/>
<path d="M7781 564 c-1 -26 23 -48 44 -40 8 3 14 16 14 28 -1 17 -2 18 -6 6
-6 -25 -28 -22 -41 5 -11 22 -11 22 -11 1z"/>
<path d="M1623 1260 c-44 -5 -97 -13 -115 -18 -23 -6 -41 -6 -53 0 -31 18
-111 4 -151 -27 -46 -35 -64 -80 -63 -152 1 -32 -6 -87 -15 -123 -37 -146 27
-321 160 -439 l44 -39 -35 -21 c-49 -29 -64 -64 -43 -102 l16 -28 -51 -32
c-29 -18 -75 -52 -103 -76 l-52 -43 -16 25 c-17 26 -59 34 -71 14 -22 -35 40
-139 82 -139 11 0 51 25 89 56 38 30 102 75 142 100 l73 44 45 -15 c25 -8 51
-15 58 -15 7 0 24 -17 37 -37 28 -44 53 -53 68 -25 13 25 -14 111 -38 119 -54
17 -57 20 -18 28 33 6 42 4 65 -18 50 -47 130 -87 212 -108 l82 -21 25 25 c29
28 23 47 -14 47 -49 0 -148 32 -198 63 l-50 32 65 8 c36 4 87 11 115 16 l50 8
65 -59 c77 -70 160 -112 252 -128 79 -14 96 -10 92 22 -1 12 -3 28 -3 34 -1 6
-29 14 -63 18 -78 8 -169 51 -222 105 -22 22 -38 42 -35 44 2 1 26 20 52 41
l48 38 84 -3 c47 -2 85 -2 85 1 -1 14 -20 30 -67 54 -29 14 -53 28 -53 30 0 3
7 33 16 67 19 74 14 141 -17 226 -45 121 -157 256 -267 320 -25 15 -58 41 -73
57 -23 27 -33 30 -90 32 -35 1 -101 -2 -146 -6z m213 -25 c60 -45 69 -141 19
-191 -32 -32 -110 -34 -149 -3 -63 50 -68 117 -14 183 25 31 36 36 70 36 28 0
51 -8 74 -25z m-366 -22 c16 -16 33 -42 36 -59 6 -30 3 -33 -31 -44 -21 -7
-55 -30 -76 -51 -22 -22 -43 -39 -49 -39 -26 0 -50 45 -50 93 0 45 4 54 40 89
50 47 87 50 130 11z m150 -10 c-11 -21 -20 -48 -20 -61 0 -23 -3 -24 -37 -17
-21 4 -38 8 -39 8 -8 21 -22 82 -20 84 5 5 87 21 114 22 l22 1 -20 -37z m417
-141 c213 -215 227 -481 33 -624 l-37 -28 -105 118 c-58 64 -115 128 -127 142
-11 14 -20 20 -21 15 0 -15 216 -260 289 -328 34 -31 77 -65 94 -74 43 -22
124 -43 167 -43 35 0 35 0 10 -13 -14 -8 -24 -19 -23 -25 4 -15 -1 -15 -72 3
-121 32 -221 114 -419 343 -49 56 -91 100 -94 98 -5 -5 55 -79 156 -191 73
-82 77 -77 -83 -95 -250 -27 -403 -90 -572 -237 -33 -29 -68 -53 -77 -53 -24
0 -66 63 -66 98 0 18 4 32 10 32 10 0 60 -51 60 -61 0 -4 7 -10 15 -13 12 -4
14 -2 6 11 -7 13 1 24 38 54 148 118 327 196 535 234 54 10 62 13 34 14 -21 1
-74 -6 -118 -15 l-80 -16 -60 26 c-111 47 -209 141 -258 245 -34 74 -48 180
-33 251 17 81 21 85 64 58 32 -20 36 -28 37 -63 0 -53 23 -85 60 -85 16 0 32
5 35 10 10 16 23 12 30 -9 3 -11 19 -34 35 -50 21 -24 37 -31 64 -31 38 0 76
28 76 54 0 8 12 16 27 18 40 5 68 50 67 109 0 47 0 49 28 49 77 0 143 63 143
137 l0 41 30 -16 c17 -10 62 -50 102 -90z m-392 13 c68 -51 94 -148 54 -199
-29 -37 -70 -35 -103 5 -26 30 -28 36 -30 94 -1 29 -3 30 -46 30 -45 0 -45 0
-45 -35 0 -45 -29 -98 -62 -113 -22 -10 -28 -8 -44 12 -22 27 -24 54 -8 102
42 125 187 178 284 104z m-95 -135 c0 -11 -48 -25 -56 -17 -4 3 -3 10 1 16 8
14 55 14 55 1z m11 -33 c-1 -12 -15 -9 -19 4 -3 6 1 10 8 8 6 -3 11 -8 11 -12z
m-61 -5 c0 -13 -12 -22 -22 -16 -10 6 -1 24 13 24 5 0 9 -4 9 -8z m30 -2 c0
-5 -4 -10 -10 -10 -5 0 -10 5 -10 10 0 6 5 10 10 10 6 0 10 -4 10 -10z m94
-68 c8 -13 -23 -52 -40 -52 -17 0 -19 31 -2 48 14 14 35 16 42 4z m646 -317
c17 -9 30 -18 30 -20 0 -3 -34 -5 -76 -5 l-75 0 21 30 c22 31 30 31 100 -5z
m-792 -79 l24 -13 -31 -12 c-41 -18 -57 -37 -42 -54 8 -11 5 -17 -16 -26 -24
-11 -29 -10 -45 9 -25 30 -23 37 16 76 36 36 57 41 94 20z m80 -42 c-9 -9
-108 -41 -112 -36 -13 12 -4 22 31 41 29 14 42 16 60 8 13 -6 22 -11 21 -13z
m216 -98 c56 -37 141 -66 193 -66 18 0 33 -4 33 -10 0 -5 -10 -10 -23 -10 -13
0 -28 -5 -33 -10 -22 -22 -173 41 -249 104 l-30 25 29 1 c17 0 51 -14 80 -34z
m-148 -31 c20 -13 42 -80 30 -92 -11 -12 -38 9 -49 37 -7 19 -19 30 -32 31
-11 0 -36 6 -55 14 l-35 13 25 11 c29 12 86 5 116 -14z m731 -51 c-3 -3 -12
-4 -19 -1 -8 3 -5 6 6 6 11 1 17 -2 13 -5z m0 -30 c-3 -3 -12 -4 -19 -1 -8 3
-5 6 6 6 11 1 17 -2 13 -5z"/>
<path d="M1984 995 c55 -51 12 -111 -50 -71 -13 9 -24 12 -24 6 0 -6 16 -18
35 -27 48 -23 85 -7 85 37 0 31 -37 80 -61 80 -7 0 0 -11 15 -25z"/>
<path d="M7683 823 c9 -2 23 -2 30 0 6 3 -1 5 -18 5 -16 0 -22 -2 -12 -5z"/>
</g>
</svg>
