<?xml version="1.0" standalone="no"?>
<!DOCTYPE svg PUBLIC "-//W3C//DTD SVG 20010904//EN"
 "http://www.w3.org/TR/2001/REC-SVG-20010904/DTD/svg10.dtd">
<svg version="1.0" xmlns="http://www.w3.org/2000/svg"
 width="863.000000pt" height="719.000000pt" viewBox="0 0 863.000000 719.000000"
 preserveAspectRatio="xMidYMid meet">

<g transform="translate(0.000000,719.000000) scale(0.100000,-0.100000)"
fill="#000000" stroke="none">
<path d="M4163 7141 c-78 -37 -122 -143 -109 -266 l6 -61 -112 -37 c-191 -63
-202 -76 -148 -183 16 -32 30 -67 30 -76 0 -10 10 -24 23 -32 19 -13 35 -13
127 1 133 20 505 22 645 4 633 -82 1200 -364 1627 -810 59 -61 116 -124 127
-140 l20 -28 -77 -7 c-769 -64 -1492 -97 -2117 -97 -253 0 -502 -4 -553 -9
-279 -29 -489 -141 -565 -302 -34 -72 -50 -169 -38 -232 9 -48 8 -50 -34 -107
-56 -76 -79 -145 -79 -239 -1 -93 24 -173 79 -255 38 -58 40 -63 32 -110 -10
-62 12 -177 49 -253 15 -30 55 -85 90 -122 l64 -68 -47 -7 c-67 -9 -361 -80
-462 -111 -81 -25 -91 -25 -242 -19 l-158 8 -45 43 c-93 88 -190 63 -256 -65
-13 -27 -29 -40 -54 -48 l-36 -11 0 62 0 63 53 33 c28 19 84 66 123 105 115
116 161 233 152 387 -4 64 -9 83 -28 103 -55 59 -112 19 -198 -138 -29 -53
-55 -97 -58 -97 -5 0 -4 7 35 170 16 69 44 169 61 223 28 89 33 97 56 97 49 0
170 33 239 64 85 39 171 116 205 182 20 39 25 64 25 121 0 66 -2 74 -29 102
-35 37 -85 48 -141 33 -35 -9 -38 -9 -21 3 37 28 193 77 283 89 106 15 133 31
133 81 0 36 -30 70 -72 80 -16 4 -28 9 -28 11 0 2 15 25 34 51 73 105 74 189
1 228 -70 38 -235 3 -332 -71 l-33 -25 0 29 c0 16 -9 64 -21 108 l-20 79 83
78 c196 185 412 339 643 458 77 40 151 81 163 93 26 22 62 87 62 108 0 7 23
34 52 59 45 41 52 51 52 85 1 22 -2 54 -6 71 -7 31 -5 34 32 53 54 28 63 49
55 130 -12 116 -20 119 -206 72 -114 -29 -117 -29 -150 -11 -64 33 -100 33
-186 -1 -125 -50 -366 -183 -512 -283 -44 -30 -46 -30 -161 -28 -83 2 -136 -3
-184 -15 -114 -29 -211 -109 -258 -212 -26 -57 -48 -179 -48 -261 0 -57 -4
-71 -21 -87 -67 -60 -316 -421 -393 -570 l-27 -51 -37 19 c-42 22 -102 19
-152 -7 -70 -36 -116 -151 -104 -260 6 -62 38 -171 56 -192 11 -14 4 -60 -58
-373 -19 -96 -42 -198 -51 -227 -8 -28 -16 -60 -17 -70 -1 -10 -7 -28 -14 -40
-7 -12 -12 -41 -12 -65 2 -108 -8 -154 -53 -248 -155 -328 -174 -671 -56
-1007 64 -182 189 -391 339 -567 59 -70 66 -82 72 -134 3 -31 5 -58 4 -59 -1
-1 -19 2 -41 7 -54 13 -171 12 -217 0 -20 -6 -58 -25 -84 -43 -97 -65 -106
-154 -21 -200 38 -19 56 -22 172 -21 94 1 152 7 207 21 l77 20 52 -28 c29 -16
68 -41 88 -56 58 -44 202 -175 198 -179 -2 -2 -80 -18 -172 -34 -162 -28 -196
-36 -350 -82 -85 -25 -153 -58 -179 -87 -20 -22 -20 -24 7 -234 15 -117 27
-219 27 -228 0 -11 -12 -19 -36 -24 -20 -3 -67 -17 -105 -31 -38 -13 -101 -35
-140 -49 -132 -47 -367 -50 -587 -9 -104 20 -125 15 -130 -29 -5 -39 83 -123
174 -169 66 -33 70 -36 57 -54 -8 -10 -11 -29 -8 -41 5 -20 2 -22 -23 -17 -20
4 -34 0 -45 -11 -32 -32 -19 -64 43 -111 l35 -26 -66 7 c-54 5 -69 3 -83 -10
-59 -59 47 -137 242 -177 113 -23 137 -41 60 -46 -59 -4 -78 -15 -78 -47 0
-34 27 -51 124 -79 224 -65 404 -57 656 31 l105 37 275 7 c235 5 286 9 354 28
91 24 141 52 160 90 33 62 45 248 27 393 l-7 57 31 5 c109 20 776 60 875 53
47 -3 103 -19 197 -56 446 -174 986 -244 1499 -196 315 30 640 109 930 227
l81 33 179 -7 c99 -5 232 -11 297 -16 64 -4 126 -4 137 0 10 4 31 1 47 -6 15
-8 73 -17 128 -21 158 -10 142 9 137 -171 -5 -168 7 -260 39 -305 52 -73 209
-108 519 -115 229 -5 270 -11 449 -59 117 -31 222 -33 314 -5 68 21 82 32 89
65 3 17 14 21 76 27 86 9 188 34 219 54 24 15 31 58 13 69 -6 4 8 25 35 49 29
28 45 51 45 67 0 17 13 32 46 54 52 34 114 113 114 144 0 11 -10 27 -22 35
-21 13 -32 12 -107 -10 -46 -13 -94 -24 -106 -24 -20 0 -22 4 -16 26 5 20 22
32 73 54 117 49 238 154 238 205 0 46 -35 51 -142 22 -141 -40 -211 -50 -348
-51 -133 0 -193 10 -294 52 -34 14 -97 35 -141 47 -73 20 -80 25 -78 46 1 13
14 114 28 223 22 177 23 203 10 222 -30 47 -203 111 -400 150 -50 9 -91 18
-93 19 -1 1 34 38 79 81 151 146 255 294 307 437 20 57 26 96 30 187 4 104 1
123 -22 191 -14 42 -39 100 -56 128 l-30 52 45 140 c52 162 107 412 129 588
36 280 30 654 -14 916 l-18 110 24 38 c50 77 69 162 53 240 -6 28 -11 93 -12
143 -2 80 -5 95 -30 132 -33 51 -112 104 -190 128 -50 15 -61 23 -73 52 -12
30 -12 40 6 93 11 32 20 68 20 80 0 18 -53 136 -89 199 -4 8 -20 41 -35 74
-20 42 -34 61 -55 69 -26 9 -35 26 -76 140 -54 147 -124 294 -198 416 -38 64
-47 86 -36 89 8 3 31 22 51 43 58 61 70 133 43 259 -7 36 -13 66 -12 66 1 1
19 9 39 17 46 19 73 60 72 108 -3 105 -132 182 -252 150 -75 -21 -142 -98
-142 -164 0 -21 -4 -23 -54 -24 -57 -1 -87 -12 -122 -45 -22 -20 -22 -20 -82
21 -76 52 -244 132 -346 166 -178 57 -262 69 -526 71 -242 1 -246 2 -355 33
-234 67 -529 109 -815 117 -180 5 -198 4 -237 -15z m34 -84 c-41 -38 -51 -77
-45 -177 2 -48 0 -70 -8 -70 -23 0 -32 127 -14 192 11 38 60 88 86 88 10 0 2
-13 -19 -33z m533 8 c289 -38 570 -110 818 -209 152 -60 152 -61 63 -61 -86
-1 -135 -21 -160 -66 -60 -106 158 -318 504 -490 157 -78 298 -118 369 -105
83 16 116 88 81 173 -21 50 -19 51 21 12 45 -43 86 -121 82 -157 -2 -19 2 -27
12 -27 11 0 15 12 14 49 l0 48 75 -79 c42 -44 114 -120 161 -170 87 -93 169
-147 213 -141 33 5 20 21 -34 41 -53 20 -142 94 -165 138 -8 16 -13 29 -12 29
2 0 25 -11 52 -25 27 -13 52 -22 57 -19 17 10 9 25 -18 35 -62 23 -136 93
-220 207 -109 148 -300 339 -414 415 -167 111 -315 166 -502 188 -72 8 -129
22 -192 46 -49 20 -92 38 -95 41 -12 12 400 -8 470 -23 554 -120 958 -513
1175 -1147 l44 -127 -50 -83 c-28 -46 -53 -86 -58 -91 -4 -4 -25 19 -48 50
-64 92 -134 166 -146 154 -7 -7 1 -23 22 -48 17 -21 57 -71 88 -111 50 -66 55
-75 45 -97 -7 -14 -15 -25 -19 -25 -5 0 -21 20 -36 45 -16 25 -33 45 -37 45
-23 0 -18 -25 15 -72 l37 -51 -54 -54 c-29 -30 -79 -73 -110 -94 l-58 -40 -32
53 c-355 581 -861 992 -1483 1205 -393 134 -796 175 -1249 127 -47 -5 -67 -4
-63 3 4 6 23 14 42 17 21 4 35 13 35 21 0 11 -13 15 -53 15 -47 0 -55 3 -65
24 -8 19 -8 27 2 35 14 12 618 214 674 226 34 7 43 30 15 39 -10 2 -52 12 -93
21 -68 15 -77 20 -103 56 -15 22 -42 49 -60 60 l-32 21 175 -6 c96 -2 231 -12
300 -21z m2195 -165 c-9 -27 20 -70 46 -70 11 0 29 5 40 10 16 9 19 7 19 -15
0 -35 -51 -56 -155 -62 -72 -5 -82 -3 -99 15 -22 25 -17 55 14 95 18 23 25 25
42 16 22 -12 68 2 68 21 0 5 7 10 16 10 11 0 14 -6 9 -20z m-3525 -70 c0 -5
-12 -10 -27 -9 l-28 1 25 8 c14 4 26 8 28 9 1 1 2 -3 2 -9z m-280 -20 c22 -11
46 -29 52 -40 16 -25 34 -25 128 0 98 26 100 25 100 -10 0 -26 -8 -34 -75 -71
-41 -22 -77 -44 -80 -48 -2 -4 0 -25 6 -47 17 -67 17 -66 39 -54 30 16 27 -20
-5 -50 -14 -13 -25 -32 -25 -42 0 -26 -23 -69 -52 -94 -12 -12 -81 -51 -153
-87 -144 -73 -326 -190 -455 -293 -111 -88 -348 -326 -435 -437 -37 -48 -70
-85 -73 -82 -13 12 -83 455 -89 555 l-6 116 100 93 c128 117 274 231 433 336
117 77 339 205 357 205 4 0 8 -28 8 -62 0 -84 18 -91 26 -10 7 69 29 104 84
128 42 19 70 17 115 -6z m217 4 c-3 -3 -12 -4 -19 -1 -8 3 -5 6 6 6 11 1 17
-2 13 -5z m-52 -13 c-11 -5 -36 -11 -55 -14 -35 -6 -34 -6 5 8 43 14 84 19 50
6z m155 -23 c0 -25 -3 -29 -10 -18 -13 20 -13 50 0 50 6 0 10 -15 10 -32z
m2333 -34 c269 -65 561 -289 609 -467 16 -62 2 -92 -51 -108 -204 -61 -898
373 -857 536 15 61 142 77 299 39z m1158 -112 c26 -143 9 -200 -72 -240 -32
-16 -46 -19 -56 -10 -20 16 -16 23 22 37 74 26 92 94 60 226 -8 33 -14 65 -15
72 0 10 30 23 39 17 2 -2 12 -48 22 -102z m-296 79 c11 -4 34 -3 52 2 24 8 40
7 60 -3 l28 -13 -27 -9 c-16 -5 -28 -16 -28 -25 0 -9 -6 -13 -17 -9 -10 2 -38
8 -63 11 -63 10 -85 22 -69 41 12 15 33 17 64 5z m21 -97 c-3 -9 -6 -25 -6
-37 0 -19 -2 -20 -15 -7 -18 18 -9 60 12 60 10 0 13 -6 9 -16z m183 -75 c1
-30 -16 -55 -44 -62 -15 -4 -29 5 -53 35 -41 51 -38 69 11 74 20 2 45 7 55 13
19 11 29 -9 31 -60z m-3488 8 c-8 -8 -11 -7 -11 4 0 20 13 34 18 19 3 -7 -1
-17 -7 -23z m-993 -62 c3 -3 -5 -13 -19 -23 -18 -12 -45 -17 -104 -17 -77 -1
-178 -25 -190 -46 -14 -22 8 -26 52 -9 68 25 167 37 161 19 -3 -8 -31 -18 -69
-25 -74 -12 -101 -25 -146 -67 -54 -51 -68 -110 -67 -277 0 -147 13 -238 89
-635 13 -71 25 -148 26 -170 1 -53 12 -88 27 -93 10 -3 12 9 11 47 -2 45 1 55
29 84 17 17 43 57 58 87 24 47 28 68 29 143 1 77 4 90 25 112 13 14 27 25 31
25 4 0 15 -29 24 -65 40 -146 -11 -295 -150 -443 -72 -77 -75 -82 -75 -129 0
-179 -107 -406 -277 -584 -81 -85 -172 -163 -181 -155 -5 6 27 191 40 225 11
30 28 43 98 80 145 76 231 204 255 379 6 43 4 52 -8 52 -11 0 -19 -20 -27 -71
-15 -90 -66 -191 -124 -249 -26 -24 -46 -39 -46 -33 0 7 4 14 9 18 20 11 70
112 95 187 60 185 57 346 -15 793 -73 461 -62 631 53 752 35 36 129 81 196 93
48 9 180 6 190 -5z m-474 -815 c20 -124 41 -275 47 -336 l12 -111 -86 -174
c-47 -96 -104 -225 -126 -288 -62 -172 -141 -500 -141 -587 l0 -34 -58 0 c-52
0 -174 31 -195 50 -5 4 25 77 66 161 76 157 127 301 191 534 74 268 84 375 43
436 -41 60 -102 75 -170 40 -51 -26 -46 -11 14 42 60 53 126 87 180 94 26 4
39 11 39 21 0 22 -80 10 -142 -22 -28 -15 -52 -25 -54 -23 -10 10 158 259 270
398 72 91 60 115 110 -201z m5296 -38 c0 -17 -94 -171 -146 -239 -30 -39 -84
-99 -120 -132 -62 -58 -160 -131 -176 -131 -19 0 -5 17 32 38 101 57 245 221
344 390 42 72 66 99 66 74z m37 -89 c-3 -18 1 -27 17 -35 27 -12 86 -127 86
-167 0 -16 -16 -60 -36 -99 -58 -117 -210 -265 -386 -376 l-57 -36 -17 57 c-9
32 -17 62 -18 66 0 5 23 18 52 29 30 12 52 27 52 36 0 15 -5 14 -75 -11 l-40
-15 -17 46 c-9 26 -17 52 -17 59 -1 6 20 23 46 38 62 37 202 172 262 254 26
36 67 99 91 139 35 60 45 71 53 57 5 -9 7 -28 4 -42z m-4468 -52 c16 -16 18
-26 11 -51 -23 -81 -110 -170 -221 -226 -88 -44 -149 -84 -207 -138 l-44 -40
7 39 c23 124 80 250 143 318 85 90 263 146 311 98z m3818 -143 c101 -149 121
-187 103 -198 -11 -7 -6 -34 29 -157 59 -206 51 -193 110 -193 l49 0 35 -109
c19 -61 46 -150 58 -199 l23 -90 -32 -27 c-18 -15 -64 -67 -104 -116 -39 -49
-76 -88 -82 -86 -6 2 -25 59 -43 128 -17 68 -55 192 -84 274 l-52 150 0 130
c0 92 5 145 17 180 23 72 21 101 -9 121 -32 21 -69 12 -92 -23 -14 -20 -18
-47 -18 -108 l0 -81 -51 92 -51 92 15 75 c16 82 12 121 -15 131 -27 11 -72
-42 -81 -94 l-7 -45 -29 37 c-71 94 -244 120 -222 33 10 -39 101 -132 165
-168 72 -41 108 -80 155 -167 l39 -73 -64 51 c-101 82 -189 103 -236 56 -21
-21 -24 -32 -20 -61 18 -111 157 -200 341 -219 l64 -7 30 -71 c62 -148 143
-428 129 -442 -3 -4 -37 -10 -74 -14 l-68 -7 -55 50 c-56 51 -119 86 -155 87
-47 0 -104 -77 -105 -142 0 -22 -5 -28 -22 -28 -13 0 -102 -7 -198 -16 -96 -8
-330 -18 -520 -21 -336 -5 -346 -6 -395 -29 -191 -90 -352 -331 -411 -614 -16
-77 -35 -120 -54 -120 -4 0 -1 22 7 50 20 69 15 104 -17 109 -21 2 -41 -14
-115 -94 -88 -94 -91 -96 -137 -98 -27 -1 -52 3 -60 11 -8 8 -14 42 -15 88 -2
85 -17 118 -58 128 -58 15 -69 -31 -34 -145 12 -39 19 -73 15 -76 -10 -10 -53
24 -74 59 -25 40 -42 136 -42 234 l0 70 48 13 c106 27 172 107 172 207 0 86
-26 130 -114 195 -21 16 -35 29 -29 29 5 0 29 13 53 29 60 40 90 93 90 159 0
77 -26 127 -92 178 l-27 21 39 32 c106 85 109 239 5 329 -43 38 -41 39 33 8
135 -57 201 -71 322 -70 95 1 129 6 196 27 77 26 204 97 204 115 0 21 -15 20
-44 -3 -51 -39 -157 -84 -237 -101 -140 -30 -225 -16 -489 79 -138 50 -270 71
-394 64 -96 -6 -240 -38 -260 -57 -21 -21 7 -21 91 1 103 27 273 31 363 10
183 -45 288 -159 258 -279 -15 -60 -70 -114 -139 -138 -47 -17 -84 -19 -294
-18 -132 1 -269 6 -305 12 -150 26 -288 131 -353 269 -29 61 -32 77 -32 158 0
78 4 97 28 146 48 100 153 181 297 231 115 40 224 48 645 48 664 0 1529 40
2255 103 80 7 148 12 152 10 3 -2 37 -49 75 -105z m-4409 46 c-7 -15 -14 -21
-16 -15 -2 7 2 18 8 26 18 22 21 18 8 -11z m-583 -56 c82 -37 73 -155 -42
-553 -96 -334 -154 -445 -234 -445 -112 0 -171 238 -119 479 l12 53 20 -20
c20 -19 20 -24 8 -89 -29 -151 -11 -293 42 -338 28 -23 28 -24 8 -35 -25 -14
-26 -30 -1 -30 23 0 73 55 101 111 47 92 190 633 190 719 0 63 -21 100 -55
100 -31 0 -74 -31 -106 -75 -18 -25 -34 -43 -37 -40 -2 2 -1 20 2 39 10 53
110 134 168 136 9 0 29 -5 43 -12z m-258 -32 c16 -20 19 -41 19 -132 l-1 -109
-45 -22 c-50 -26 -107 -30 -135 -9 -14 10 -19 30 -23 94 -4 69 -1 87 18 126
25 53 58 75 112 76 27 0 41 -6 55 -24z m5053 -33 c0 -27 -15 -103 -26 -133 -4
-13 -6 -13 -14 0 -15 24 -12 113 6 138 21 30 34 28 34 -5z m-223 6 c41 -15
101 -77 129 -132 51 -99 50 -99 -44 -37 -90 59 -172 138 -172 165 0 18 45 20
87 4z m-3385 -80 c28 -15 6 -29 -48 -29 -60 0 -188 -35 -274 -75 l-75 -35 42
38 c46 42 147 96 209 111 45 11 115 6 146 -10z m-476 -15 c-3 -9 -6 -24 -6
-35 0 -10 -4 -19 -9 -19 -15 0 -21 30 -11 51 13 23 35 26 26 3z m5062 -144
c27 -69 57 -149 66 -179 l16 -55 -27 -39 c-15 -21 -57 -66 -93 -99 -69 -64
-301 -240 -307 -234 -2 2 -17 53 -33 112 -15 60 -42 146 -59 191 l-30 82 51
33 c29 18 82 56 120 85 38 29 70 53 73 53 2 0 7 -21 11 -47 10 -69 22 -99 36
-85 7 7 6 31 -6 82 l-16 72 56 66 c31 36 61 74 67 84 6 9 14 14 18 10 4 -4 29
-63 57 -132z m-774 60 c-1 -19 -7 -53 -13 -75 -6 -22 -11 -76 -11 -119 0 -97
-12 -91 -34 16 -20 96 -20 139 -1 184 11 28 19 35 37 32 19 -2 23 -9 22 -38z
m166 -39 c5 -20 23 -78 40 -130 16 -52 28 -96 25 -99 -16 -16 -36 22 -68 136
-20 72 -37 133 -37 136 0 3 7 3 15 0 8 -3 19 -22 25 -43z m-305 -112 c125
-247 224 -520 276 -759 16 -79 18 -101 8 -125 l-12 -30 -8 30 c-5 17 -23 91
-40 165 -42 181 -115 383 -206 569 -41 85 -84 185 -94 222 -22 80 -22 79 -10
79 5 0 44 -68 86 -151z m-4177 63 c-3 -46 -17 -85 -71 -195 -147 -297 -231
-578 -279 -927 -8 -60 -13 -202 -13 -382 0 -159 -3 -288 -6 -288 -4 0 -13 7
-20 16 -22 27 -26 425 -5 547 9 52 16 118 16 146 0 122 90 488 175 706 44 116
194 435 203 435 2 0 3 -26 0 -58z m5192 37 c101 -46 140 -95 140 -177 0 -84
-46 -159 -179 -293 -64 -64 -134 -130 -156 -147 -28 -23 -36 -35 -29 -42 18
-18 138 18 203 60 92 59 135 128 147 234 8 64 19 72 28 21 24 -125 -70 -253
-249 -340 -80 -39 -245 -95 -280 -95 -25 0 -146 -164 -195 -265 -80 -163 -98
-331 -54 -503 16 -61 81 -206 114 -252 21 -30 27 -75 10 -85 -14 -8 -63 64
-95 140 -27 63 -38 75 -50 56 -13 -21 62 -164 114 -218 15 -16 20 -30 15 -48
-3 -14 -9 -27 -13 -30 -11 -6 -95 138 -141 241 -128 291 -126 581 5 814 80
142 157 221 372 381 296 222 392 371 302 474 -17 19 -37 35 -45 35 -7 0 -20
14 -29 30 -14 28 -14 30 2 30 10 0 38 -10 63 -21z m-6054 -26 c39 -32 41 -43
17 -85 -38 -63 -151 -90 -193 -45 -12 12 -30 38 -40 58 l-19 36 60 6 c42 4 72
13 97 31 20 13 38 25 40 25 2 1 19 -11 38 -26z m87 -59 c0 -5 -13 -48 -28 -96
-26 -82 -29 -88 -54 -88 -15 0 -52 12 -82 27 l-54 27 42 8 c23 3 55 14 72 22
31 17 81 80 81 104 0 8 6 12 13 9 6 -2 11 -8 10 -13z m5962 -18 c10 -15 15
-40 13 -63 l-3 -38 -22 63 c-22 63 -16 81 12 38z m-4910 -11 c59 -58 1 -189
-119 -269 -59 -39 -174 -81 -253 -91 -62 -8 -68 0 -15 22 84 35 272 176 272
204 0 16 -27 9 -46 -12 -45 -51 -244 -184 -244 -164 0 3 20 37 44 75 66 101
161 194 237 230 78 36 93 37 124 5z m3701 0 c27 -13 72 -48 99 -76 l50 -52
-49 33 c-56 38 -176 91 -188 84 -17 -11 -6 -21 47 -43 84 -35 256 -153 242
-167 -10 -10 -132 18 -189 43 -62 28 -133 95 -144 136 -16 67 44 86 132 42z
m-4361 -47 c-21 -63 -74 -172 -81 -165 -4 4 25 83 71 191 23 55 30 37 10 -26z
m1263 -181 c60 -106 165 -192 280 -227 144 -45 582 -54 684 -15 26 10 123 -90
137 -140 20 -75 -21 -155 -101 -196 -53 -27 -149 -46 -272 -55 -127 -8 -453
12 -526 32 -136 39 -245 129 -303 251 -29 62 -32 77 -32 163 0 81 4 102 24
140 26 49 62 99 73 99 3 1 20 -23 36 -52z m4393 -84 c-10 -17 -10 -16 -11 3 0
23 13 41 18 25 2 -6 -1 -18 -7 -28z m-63 -101 c-31 -32 -79 -61 -134 -82 -15
-6 10 23 63 74 80 76 89 82 96 63 6 -16 0 -28 -25 -55z m-6286 -134 c27 -48
74 -78 122 -78 41 0 41 1 21 -47 -27 -64 -29 -64 -103 -34 -101 42 -132 63
-132 87 0 12 9 66 20 119 11 53 20 100 21 104 0 3 7 -20 15 -53 8 -32 24 -76
36 -98z m6362 -65 c43 -275 46 -680 7 -938 -69 -457 -211 -859 -437 -1236
-127 -211 -359 -509 -396 -509 -20 0 -20 1 3 29 98 119 126 156 175 229 145
220 194 340 194 480 0 57 -3 72 -15 72 -12 0 -15 -13 -15 -57 0 -57 -1 -57
-18 -37 -38 48 -83 55 -150 24 -91 -41 -174 -129 -386 -408 -60 -79 -110 -141
-112 -139 -2 2 1 19 6 38 6 19 10 64 9 101 l-2 67 62 78 c281 352 467 765 557
1233 33 173 46 545 26 759 -7 74 -6 86 11 107 10 13 25 24 34 24 62 0 360 128
400 172 9 10 19 18 23 18 4 0 15 -48 24 -107z m-5668 -44 c-14 -56 -26 -110
-26 -120 0 -11 -3 -19 -6 -19 -3 0 -27 23 -53 52 l-48 52 76 72 c42 40 77 71
79 69 2 -2 -8 -49 -22 -106z m-738 -42 c59 -30 139 -63 196 -81 40 -13 6 -16
-65 -5 -111 16 -209 66 -209 105 0 19 1 19 78 -19z m5200 -6 c47 -24 166 -149
254 -266 64 -84 79 -117 60 -129 -16 -10 -119 60 -185 125 -37 37 -70 63 -72
58 -10 -15 12 -44 75 -103 34 -31 59 -56 55 -56 -11 0 -131 63 -170 90 -61 42
-123 110 -136 147 -14 45 -4 94 26 127 29 31 44 32 93 7z m-4609 -66 c28 -30
65 -82 81 -116 31 -67 47 -169 32 -209 -9 -24 -10 -23 -46 33 -42 66 -74 136
-84 186 -4 19 -13 36 -20 39 -24 8 -12 -64 23 -137 19 -40 35 -75 35 -77 0 -8
-85 53 -100 71 -14 17 -15 22 -24 149 -9 131 20 149 103 61z m487 0 c17 -120
-35 -253 -142 -360 -86 -86 -119 -103 -63 -33 41 52 78 121 79 146 0 27 -20 9
-44 -38 -26 -52 -84 -130 -96 -130 -4 0 37 89 90 198 90 183 139 262 160 262
5 0 12 -20 16 -45z m-881 -90 c50 -14 127 -29 173 -32 69 -5 85 -9 93 -26 8
-14 7 -23 -3 -34 -27 -26 -274 17 -409 72 -85 34 -149 81 -149 109 0 12 2 25
5 28 3 2 49 -17 103 -43 53 -26 138 -60 187 -74z m1897 39 c79 -40 151 -53
363 -64 200 -10 291 -8 416 11 59 9 71 8 106 -10 74 -37 145 -143 129 -192 -2
-8 -7 -26 -10 -42 -4 -15 -23 -45 -42 -67 -45 -50 -126 -77 -257 -86 -101 -7
-393 10 -472 27 -183 41 -339 210 -352 384 -3 35 -3 75 1 90 l7 26 31 -26 c17
-14 53 -37 80 -51z m-1634 -28 c4 -18 -1 -19 -84 -13 -49 3 -109 13 -134 21
-44 14 -42 14 85 13 119 -2 130 -4 133 -21z m-455 -40 c101 -48 178 -70 307
-87 115 -15 135 -22 135 -45 0 -17 -8 -19 -95 -18 -145 1 -362 59 -434 115
-24 19 -34 57 -19 72 9 10 5 11 106 -37z m5490 12 c2 -18 4 -34 2 -36 -1 -1
-14 13 -29 33 l-27 35 24 0 c20 0 26 -6 30 -32z m-439 -48 c48 -73 184 -163
343 -226 l72 -29 6 -55 c6 -65 22 -172 31 -217 l7 -33 -42 0 c-31 0 -48 6 -64
23 -143 149 -337 199 -553 143 -45 -12 -69 -13 -95 -6 -85 26 -398 91 -533
112 -81 12 -150 27 -151 33 -2 5 -6 21 -9 35 -4 20 -24 34 -91 68 -47 23 -96
42 -109 42 -13 0 -44 -16 -70 -35 -64 -50 -58 -28 10 34 112 102 85 97 529
111 313 10 584 25 681 38 6 1 23 -16 38 -38z m836 -108 c0 -98 0 -98 -32 -129
-32 -30 -151 -113 -162 -113 -10 0 -6 60 4 81 6 11 35 33 65 50 30 17 55 34
55 38 0 21 -18 18 -68 -10 -37 -21 -53 -26 -49 -16 3 9 9 31 12 50 7 37 43 76
110 121 63 41 65 39 65 -72z m-5852 21 c55 -20 53 -27 -5 -19 -110 16 -113 17
-113 42 0 24 0 24 38 8 20 -9 56 -23 80 -31z m-164 -10 c-4 -15 -9 -48 -10
-73 0 -25 -17 -85 -37 -137 -40 -100 -51 -158 -28 -158 8 0 20 26 31 70 10 39
26 86 35 105 l16 35 -5 -45 c-30 -251 -30 -368 0 -515 32 -154 103 -325 184
-446 21 -31 47 -74 59 -97 12 -23 26 -42 31 -42 21 0 8 44 -31 111 -45 75 -47
99 -6 49 14 -16 30 -30 36 -30 25 0 8 33 -39 78 -28 27 -55 64 -64 88 -22 63
-73 294 -96 434 -18 114 -43 447 -34 461 2 3 29 2 61 -3 114 -19 284 0 436 49
15 5 17 -3 17 -78 1 -450 148 -956 395 -1363 137 -226 339 -470 520 -626 l98
-85 -169 -12 c-93 -6 -247 -19 -343 -29 l-174 -17 -29 34 c-100 118 -192 237
-248 320 -36 53 -81 108 -100 122 -64 46 -209 187 -284 278 -391 466 -485 967
-271 1452 45 100 68 134 49 70z m293 -42 c89 -4 165 -10 168 -13 13 -13 -130
-33 -240 -33 -136 0 -190 9 -199 31 -11 29 4 37 58 29 28 -4 124 -10 213 -14z
m391 -33 c98 -66 92 -47 86 -252 -5 -173 -6 -182 -28 -204 -22 -23 -25 -23
-54 -8 -35 18 -36 23 -52 185 -11 111 -14 311 -4 311 3 0 26 -14 52 -32z
m3374 -34 c59 -30 59 -28 -30 -81 l-44 -26 -36 37 -37 37 35 30 c42 35 48 36
112 3z m78 -69 c0 -8 -26 -32 -57 -53 -84 -56 -83 -56 -83 -33 0 14 20 32 68
60 37 23 68 41 70 41 1 0 2 -7 2 -15z m-232 -50 c28 -45 28 -51 -5 -58 -24 -5
-36 2 -78 44 l-50 49 55 0 c52 0 56 -2 78 -35z m-60 -90 c-3 -3 -28 17 -57 43
-28 26 -48 51 -44 56 4 4 30 -16 57 -44 26 -28 46 -53 44 -55z m112 80 c7 -9
8 -15 2 -15 -5 0 -12 7 -16 15 -3 8 -4 15 -2 15 2 0 9 -7 16 -15z m430 -25
c199 -33 370 -70 370 -79 0 -4 -25 -21 -56 -40 -31 -18 -87 -62 -124 -97 l-68
-64 -90 35 c-102 39 -112 41 -112 21 0 -8 17 -20 38 -27 20 -6 61 -20 90 -31
l52 -19 -32 -46 c-18 -24 -36 -47 -40 -49 -4 -2 -26 0 -50 5 -24 6 -108 19
-188 31 -79 12 -146 22 -147 24 -2 1 35 42 82 90 50 51 95 109 111 142 25 51
26 55 10 79 -12 19 -25 25 -51 25 -29 0 -46 -11 -102 -64 -93 -87 -134 -107
-118 -57 13 43 179 161 217 155 13 -2 106 -18 208 -34z m1581 -133 c-14 -128
-18 -142 -37 -126 -16 13 -64 158 -64 193 0 17 14 33 53 58 l52 35 3 -26 c2
-14 -1 -74 -7 -134z m-3409 132 c97 -9 125 -15 118 -24 -7 -9 -90 -14 -283
-18 -149 -4 -285 -9 -302 -12 -29 -6 -29 -5 7 14 43 24 236 61 293 56 22 -1
97 -9 167 -16z m1212 -38 c21 -22 37 -44 35 -49 -2 -6 -39 -46 -81 -91 -52
-54 -78 -75 -78 -63 0 39 67 242 79 242 4 0 24 -18 45 -39z m-764 4 c0 -18
-11 -27 -60 -45 l-59 -22 -33 20 c-45 26 -84 35 -108 22 -36 -19 -22 -68 46
-161 l34 -47 -86 -7 c-91 -7 -109 -3 -79 19 23 16 14 61 -13 68 -46 12 -69
-37 -35 -74 28 -31 0 -20 -42 17 l-40 35 100 97 100 98 138 1 c135 1 137 0
137 -21z m-1768 -32 c31 -28 51 -98 45 -156 -12 -98 -92 -291 -157 -377 l-19
-25 -35 34 c-40 39 -43 56 -22 144 9 37 10 60 4 63 -15 10 -25 -12 -38 -83
-14 -75 -36 -76 -26 -1 12 92 66 283 97 346 44 90 93 108 151 55z m767 13 c-2
-2 -38 -30 -79 -63 -41 -33 -97 -87 -124 -120 l-49 -60 -225 -7 c-123 -4 -226
-5 -229 -3 -23 23 79 71 322 151 143 47 398 115 384 102z m611 -19 c0 -2 -26
-31 -57 -65 -43 -47 -61 -61 -75 -56 -14 4 -21 0 -25 -15 -3 -12 -8 -21 -11
-21 -3 0 -27 20 -53 45 -50 47 -76 56 -85 30 -10 -24 14 -69 57 -111 21 -21
39 -41 39 -44 0 -4 -24 -42 -52 -86 -29 -44 -66 -107 -82 -140 -51 -103 -18
-94 -358 -94 -164 0 -298 2 -298 4 0 2 13 35 29 74 56 135 137 256 237 356 95
94 102 97 231 111 103 11 503 21 503 12z m2731 -49 c40 -20 90 -53 108 -72
l35 -36 -50 0 c-27 1 -60 7 -74 15 -14 8 -34 14 -45 14 -27 0 -325 94 -325
103 0 12 51 16 166 14 105 -1 113 -3 185 -38z m-2332 -81 c1 -34 -6 -31 -58
32 l-41 49 42 15 43 14 7 -41 c3 -23 7 -54 7 -69z m1890 92 c100 -27 305 -90
310 -95 2 -2 -4 -13 -14 -24 -9 -10 -20 -39 -22 -64 -4 -31 -11 -47 -23 -51
-10 -3 -53 8 -96 25 -87 34 -368 120 -390 120 -8 0 -14 4 -14 9 0 13 141 100
164 101 6 0 44 -9 85 -21z m-3339 -37 c0 -4 -33 -16 -72 -26 -40 -10 -96 -29
-125 -41 l-51 -23 -4 49 -3 49 128 0 c70 0 127 -4 127 -8z m-551 -74 c-6 -18
-21 -84 -34 -147 -13 -62 -26 -116 -29 -118 -2 -3 -11 6 -19 19 -9 14 -18 63
-22 129 l-7 106 49 21 c67 30 74 29 62 -10z m3762 -37 c123 -36 318 -103 339
-116 6 -3 -8 -29 -30 -57 -54 -67 -134 -234 -163 -335 -13 -46 -26 -85 -29
-89 -4 -3 -116 12 -250 35 -134 22 -269 43 -300 47 -42 5 -58 10 -58 22 0 26
79 212 117 276 69 116 192 256 224 256 9 0 76 -18 150 -39z m578 15 c76 -40
146 -162 204 -356 44 -145 63 -251 50 -274 -8 -14 -15 -5 -42 54 -17 39 -42
108 -55 153 -23 80 -46 112 -46 64 0 -14 11 -58 24 -99 l25 -73 -36 40 c-65
74 -189 246 -226 314 -48 88 -57 141 -28 170 25 25 88 28 130 7z m280 -22 l61
-7 0 -43 c0 -24 -3 -44 -7 -44 -8 0 -214 90 -222 97 -7 5 102 3 168 -3z
m-4819 -80 c0 -37 -7 -41 -35 -20 -18 13 -18 15 -2 40 22 33 37 25 37 -20z
m2060 15 c12 -16 20 -33 17 -36 -3 -3 -26 3 -51 12 -38 15 -54 16 -109 6 -95
-17 -167 -15 -167 4 0 13 7 15 35 9 31 -5 35 -4 35 15 0 20 5 21 109 21 l110
0 21 -31z m2713 -19 c79 -35 97 -46 97 -64 0 -34 -40 -293 -48 -316 -6 -17
-12 -4 -26 57 -23 99 -86 268 -120 321 -14 23 -26 44 -26 48 0 7 -4 9 123 -46z
m-4833 -43 c124 -74 196 -131 326 -261 198 -198 349 -412 495 -706 132 -264
250 -567 227 -582 -21 -13 -65 -9 -79 8 -18 22 -77 50 -121 58 -30 6 -39 12
-44 34 -71 315 -229 638 -433 890 -28 34 -46 62 -39 62 6 0 67 -57 136 -126
77 -78 128 -122 134 -116 22 22 -166 213 -291 294 -41 26 -106 79 -145 116
-40 38 -113 103 -162 145 l-91 77 -16 75 c-10 42 -17 80 -17 85 0 13 39 -5
120 -53z m801 34 c-29 -40 -71 -132 -71 -154 0 -33 22 -12 44 41 11 28 36 72
53 97 32 44 34 45 88 45 l54 0 -56 -106 c-30 -58 -70 -151 -89 -207 l-33 -102
-67 4 -67 3 -58 63 c-33 34 -83 75 -113 91 l-53 28 39 80 c21 45 44 92 51 106
13 26 36 30 250 38 l48 2 -20 -29z m900 13 c7 -9 12 -29 11 -45 -3 -25 4 -33
53 -64 31 -20 58 -42 60 -48 2 -7 6 -24 9 -39 l6 -28 103 -1 102 -1 -85 -17
-85 -16 0 -40 0 -40 113 -39 c111 -38 114 -40 108 -65 -22 -106 -59 -257 -62
-260 -3 -3 -107 3 -232 12 -208 16 -234 20 -314 50 l-88 32 6 35 c12 69 78
255 124 345 47 94 140 245 151 245 4 0 13 -7 20 -16z m3509 -19 c0 -20 -10
-19 -26 3 -19 25 -17 34 6 22 11 -6 20 -17 20 -25z m-224 -7 c14 -27 15 -43 4
-127 -32 -258 -99 -534 -183 -752 -48 -124 -96 -224 -103 -216 -2 2 11 44 29
93 109 285 204 685 223 945 4 49 8 89 10 89 2 0 11 -14 20 -32z m-1531 -24
c93 -14 172 -27 176 -30 4 -2 -13 -41 -37 -86 -47 -89 -102 -246 -129 -369
-16 -74 -17 -76 -61 -97 -24 -12 -47 -22 -49 -22 -7 0 3 39 36 146 32 99 34
114 19 114 -14 0 -37 -60 -67 -175 -21 -82 -31 -105 -57 -128 -17 -15 -32 -24
-34 -19 -1 5 4 36 12 70 8 34 10 64 6 67 -13 8 -25 -20 -45 -102 -9 -39 -25
-79 -34 -87 -16 -15 -23 -14 -77 4 -81 28 -194 56 -286 71 -79 12 -82 14 -70
57 l7 22 38 -27 c37 -26 38 -26 72 -10 31 15 35 21 35 53 0 24 -11 54 -30 84
-26 41 -34 46 -57 42 -20 -4 -25 -1 -21 9 3 8 13 37 22 65 15 45 20 51 39 46
12 -3 49 -27 82 -52 60 -46 60 -47 130 -44 39 2 90 9 115 16 39 12 45 18 48
44 3 27 -4 35 -79 90 -110 79 -106 78 -139 64 -23 -10 -33 -9 -50 3 -20 14
-18 16 52 60 40 26 104 71 143 101 53 41 76 54 95 50 14 -2 101 -16 195 -30z
m1080 -141 c36 -52 65 -96 65 -98 0 -1 -62 20 -137 47 -76 27 -144 51 -151 53
-18 6 8 49 73 122 l49 56 18 -42 c10 -23 47 -85 83 -138z m-2575 138 c0 -11
12 -33 26 -50 l26 -31 -51 0 c-45 0 -55 4 -81 33 -40 44 -38 55 13 60 23 2 48
4 55 5 6 1 12 -7 12 -17z m3093 -107 c17 -35 17 -38 -8 -117 -14 -45 -35 -98
-46 -117 l-20 -35 5 30 c3 17 13 85 23 152 10 68 21 123 24 123 3 0 13 -16 22
-36z m-3009 -19 c-5 -12 -25 -15 -90 -15 -77 0 -95 5 -77 23 3 4 44 7 89 7 70
0 82 -2 78 -15z m59 -17 c21 -11 21 -11 2 -19 -34 -13 -43 -10 -38 11 6 23 7
24 36 8z m333 -60 c68 -24 124 -45 124 -48 0 -3 -48 -26 -107 -52 -102 -45
-110 -47 -147 -36 -24 8 -41 20 -47 35 -8 21 -15 23 -72 23 -44 0 -89 9 -147
29 -47 16 -83 30 -80 31 62 14 303 58 324 59 15 0 84 -18 152 -41z m1996 -8
c187 -64 209 -74 233 -101 20 -22 20 -22 0 -16 -58 16 -107 17 -180 2 -139
-29 -208 -81 -249 -188 -18 -47 -35 -61 -62 -50 -20 8 -14 67 21 186 23 79 79
217 89 217 2 0 69 -22 148 -50z m-4421 -21 c4 -8 25 -52 48 -99 22 -47 52
-107 67 -133 15 -26 24 -50 21 -53 -3 -3 -28 7 -56 23 -46 25 -54 35 -80 98
-27 64 -71 202 -71 220 0 10 62 -38 71 -56z m5108 22 l21 -29 -31 -89 c-44
-124 -51 -136 -107 -166 -27 -15 -52 -27 -55 -27 -11 0 8 48 39 97 38 59 79
148 94 204 6 21 13 39 15 39 2 0 13 -13 24 -29z m-4633 -10 c64 -37 137 -118
160 -176 9 -25 23 -45 32 -45 14 0 14 13 -3 53 -6 14 -2 17 28 17 65 0 182
-28 255 -60 40 -18 72 -36 72 -40 0 -4 -13 -10 -29 -13 -34 -7 -101 -62 -101
-83 0 -20 14 -17 36 7 43 48 119 64 162 33 31 -21 27 -38 -13 -57 -80 -38
-114 -153 -78 -257 11 -30 23 -63 28 -73 7 -16 0 -18 -91 -15 l-98 3 -75 133
c-93 162 -215 338 -316 454 l-76 88 16 30 c19 37 27 37 91 1z m2635 -34 c32
-23 59 -45 59 -49 0 -9 -32 -11 -109 -8 -42 2 -62 8 -88 29 -18 14 -33 28 -33
32 0 10 85 48 99 43 8 -2 40 -24 72 -47z m-1099 -24 c53 -16 88 -32 88 -40 0
-17 1 -17 -109 20 -52 18 -97 38 -99 46 -3 10 0 12 13 7 10 -4 58 -19 107 -33z
m-572 7 c0 -5 -7 -27 -15 -47 -14 -39 -49 -158 -59 -203 -5 -25 -6 -25 -113
-25 l-108 0 -27 31 c-47 53 -136 107 -221 135 -88 29 -90 32 -66 96 l9 23 300
0 c189 0 300 -4 300 -10z m1146 -9 c-8 -12 -211 -121 -226 -121 -5 0 -10 5
-10 11 0 6 51 35 113 64 115 55 132 62 123 46z m-2500 -26 c8 -13 14 -32 12
-42 -3 -13 -10 -7 -26 25 -24 45 -13 59 14 17z m2896 -30 c14 -20 -2 -17 -31
6 -16 13 -30 30 -30 38 -1 10 8 7 26 -10 15 -13 31 -28 35 -34z m-762 10 c0
-11 -11 -15 -39 -15 -38 0 -57 10 -44 24 3 3 24 6 45 6 27 0 38 -4 38 -15z
m478 -21 c39 -4 72 -10 72 -14 0 -42 -16 -73 -41 -82 -24 -8 -29 -16 -29 -43
0 -18 6 -38 14 -45 8 -6 13 -17 11 -23 -2 -7 -6 -25 -10 -41 l-6 -29 -124 7
c-118 7 -381 -7 -473 -24 -23 -4 -44 -4 -47 0 -5 8 28 170 47 225 12 37 16 40
55 43 33 2 42 -1 45 -14 2 -11 25 -25 66 -39 l64 -21 111 58 c85 44 119 57
142 53 17 -2 63 -7 103 -11z m497 7 c-26 -23 -172 -36 -177 -16 -2 6 28 11 70
11 40 1 76 5 79 8 4 3 13 6 22 6 9 0 11 -3 6 -9z m1470 -26 c38 -16 100 -77
136 -133 l27 -43 -25 -92 c-14 -50 -30 -98 -36 -105 -18 -22 -98 -58 -168 -76
-65 -16 -193 -21 -260 -10 l-35 6 23 46 c17 34 23 62 23 113 0 37 -4 71 -10
74 -5 3 -10 3 -11 -2 0 -4 -2 -34 -4 -66 -5 -66 -34 -141 -62 -155 -10 -5 -31
-12 -48 -15 -16 -3 -38 -9 -47 -12 -16 -6 -16 -4 -7 23 13 38 8 114 -8 120 -9
2 -13 -9 -13 -40 0 -64 -16 -108 -52 -145 -32 -34 -33 -34 -38 -11 -7 28 -53
47 -78 31 -10 -6 -17 -23 -17 -44 0 -42 -10 -59 -36 -59 -20 0 -27 34 -9 45
14 9 13 48 -2 63 -16 16 -63 15 -77 -2 -8 -9 -10 -32 -5 -67 l7 -52 -114 6
c-63 4 -133 11 -156 17 -40 9 -46 8 -116 -35 -266 -161 -605 -213 -865 -133
-135 41 -284 132 -382 232 -24 25 -48 46 -52 46 -39 0 77 -121 180 -188 l62
-40 -48 -7 c-26 -3 -90 -20 -142 -38 -83 -27 -109 -31 -205 -31 -89 -1 -123 4
-179 22 -173 58 -252 124 -290 245 -7 22 -26 13 -26 -11 0 -10 9 -34 19 -55
10 -20 16 -39 12 -41 -21 -13 -173 -28 -243 -24 -145 7 -225 60 -262 171 -64
192 90 308 338 252 126 -28 227 -85 327 -184 47 -47 93 -97 101 -111 14 -22
17 -23 23 -8 5 12 -5 34 -29 67 -43 58 -46 54 80 94 212 67 512 98 759 79 182
-15 216 -23 251 -65 36 -42 72 -121 80 -175 7 -45 20 -63 30 -38 10 27 -16
123 -51 180 -29 48 -31 56 -15 56 31 0 190 -49 290 -90 105 -43 110 -45 110
-30 0 5 -28 24 -61 41 -61 30 -61 31 -39 46 29 20 144 11 206 -16 39 -18 54
-18 54 -1 0 12 -72 40 -129 50 -30 6 -56 12 -59 14 -5 6 72 50 141 81 96 42
196 66 307 72 125 7 216 -6 346 -48 119 -39 132 -35 173 56 16 36 44 78 62 95
74 67 250 95 344 55z m-4456 -155 c31 -131 85 -309 140 -460 24 -68 27 -80 11
-62 -39 47 -167 406 -206 582 -8 36 -17 76 -20 90 l-6 25 26 -24 c19 -18 32
-51 55 -151z m2111 134 c12 -12 12 -14 -2 -14 -27 0 -68 19 -68 31 0 15 50 3
70 -17z m1430 -44 c354 -55 370 -59 370 -84 0 -13 -2 -25 -5 -28 -3 -3 -42 6
-88 20 -71 22 -102 25 -232 26 -128 1 -161 -2 -229 -22 -43 -12 -81 -20 -84
-18 -5 5 16 124 24 137 2 4 14 5 26 3 13 -2 111 -18 218 -34z m-3445 -105 c68
-82 180 -240 192 -271 6 -15 1 -17 -43 -11 -53 7 -112 22 -131 35 -21 13 -112
337 -93 330 5 -2 38 -39 75 -83z m2543 52 c15 -24 15 -29 2 -37 -18 -12 -33
-7 -70 23 -35 27 -37 34 -7 40 41 8 58 2 75 -26z m-72 -48 c3 -6 -5 -3 -20 6
-14 10 -26 19 -26 22 0 7 39 -17 46 -28z m2205 -77 c-39 -77 -64 -103 -84 -83
-5 5 -2 32 8 68 15 54 20 61 63 83 26 14 48 22 50 18 2 -3 -15 -42 -37 -86z
m-4876 66 c40 -20 46 -27 60 -76 9 -30 15 -56 13 -58 -10 -10 -82 64 -104 107
-13 27 -22 49 -19 49 2 0 25 -10 50 -22z m2755 -23 c-7 -8 -17 -15 -22 -15 -6
0 -5 7 2 15 7 8 17 15 22 15 6 0 5 -7 -2 -15z m2808 -132 c73 -160 64 -312
-29 -493 -56 -108 -122 -191 -252 -317 -159 -154 -140 -145 -272 -127 -60 9
-112 17 -114 19 -10 10 105 122 158 154 140 84 253 191 354 331 37 53 -34 -80
-77 -144 -48 -69 -54 -86 -33 -86 18 0 85 95 123 175 66 138 80 261 45 374
l-19 62 31 69 c36 81 40 80 85 -17z m-3875 31 c59 -4 107 -10 107 -13 0 -3
-40 -20 -89 -36 l-89 -31 -54 44 c-29 24 -55 47 -58 49 -3 3 13 3 35 0 22 -4
88 -9 148 -13z m-1610 -62 c24 -25 73 -140 63 -149 -2 -2 -17 20 -34 49 -16
29 -40 70 -52 91 -26 44 -15 48 23 9z m4737 3 c0 -7 -100 -175 -104 -175 -2 0
10 40 28 90 27 77 34 90 54 90 12 0 22 -2 22 -5z m-196 -162 c-50 -141 -108
-283 -116 -283 -4 0 -9 9 -13 20 -18 56 -147 130 -228 130 -19 0 -28 4 -25 13
3 6 13 42 23 80 l18 67 76 0 c84 0 172 18 241 49 25 11 48 20 52 20 3 1 -9
-43 -28 -96z m-4302 44 c52 -9 59 -14 67 -41 36 -111 131 -449 127 -453 -6 -7
-150 155 -167 190 -22 42 -119 302 -119 317 0 8 7 9 18 5 9 -4 43 -12 74 -18z
m165 -120 c66 -131 123 -281 153 -397 28 -110 25 -119 -28 -73 l-43 38 -80
274 c-43 151 -79 276 -79 278 0 20 30 -27 77 -120z m3756 83 c0 -14 -9 -51
-18 -82 -14 -51 -19 -57 -48 -63 -77 -17 -136 -69 -161 -143 -9 -26 -20 -38
-36 -40 -31 -5 -40 13 -40 86 0 36 -6 75 -15 92 -15 30 -7 80 14 80 5 0 31 17
58 37 64 49 105 63 183 60 63 -2 65 -3 63 -27z m-453 -5 c0 -8 -4 -15 -10 -15
-5 0 -10 -10 -11 -22 -1 -22 -1 -22 -9 2 -13 41 -11 50 10 50 11 0 20 -7 20
-15z m130 -9 c0 -8 -4 -17 -9 -20 -5 -3 -14 -26 -20 -51 -9 -36 -9 -50 3 -68
8 -12 16 -65 20 -122 9 -142 38 -195 119 -219 14 -4 17 -17 17 -65 0 -33 4
-71 10 -85 l10 -26 -83 0 c-113 0 -176 20 -220 69 -20 23 -39 56 -43 76 -4 21
-14 39 -23 42 -75 24 -101 54 -101 121 0 56 14 59 28 7 12 -45 51 -83 72 -70
6 3 10 47 10 103 0 78 4 106 20 137 11 22 20 48 20 58 0 15 3 17 13 8 8 -6 16
-8 19 -5 3 3 25 6 49 7 38 2 43 5 51 32 4 17 5 42 2 58 -5 23 -2 27 15 27 12
0 21 -6 21 -14z m1198 -2 c84 -58 -62 -391 -281 -638 -38 -43 -66 -66 -80 -66
-19 0 -17 5 19 43 159 167 291 392 301 512 5 52 2 63 -15 79 -31 27 -68 14
-123 -44 -41 -42 -365 -468 -414 -542 -24 -39 -31 -35 -27 16 3 39 21 66 160
247 178 231 297 359 363 388 53 25 68 26 97 5z m-4136 -78 c24 -21 35 -57 93
-283 36 -142 65 -264 65 -271 0 -10 -19 -12 -77 -10 l-77 3 -15 40 c-52 145
-136 355 -174 437 l-46 97 97 4 c53 1 99 4 102 5 3 1 17 -9 32 -22z m4380 -90
c-23 -45 -63 -105 -92 -136 -32 -35 -44 -43 -30 -22 36 54 150 255 151 266 1
6 3 3 6 -8 3 -10 -13 -55 -35 -100z m-1846 77 c43 -6 46 -8 41 -32 -3 -14 -22
-132 -43 -261 -20 -129 -40 -239 -44 -243 -4 -5 -40 -5 -80 -1 l-72 7 7 60 c6
48 5 59 -6 55 -8 -3 -18 -29 -24 -59 l-10 -54 -184 -3 c-102 -1 -188 1 -192 5
-5 7 28 333 35 340 1 2 46 14 100 28 98 24 270 99 342 149 26 18 47 25 62 21
12 -3 43 -8 68 -12z m204 -21 c0 -4 -9 -25 -20 -47 -15 -30 -20 -59 -20 -122
0 -86 -14 -112 -25 -45 -10 57 -13 62 -34 62 -33 0 -54 -43 -49 -99 6 -59 37
-106 81 -122 25 -9 37 -23 56 -66 13 -30 33 -60 43 -66 30 -19 20 -28 -28 -25
l-46 3 -24 -65 c-14 -36 -29 -69 -33 -73 -4 -4 -14 26 -20 67 l-12 76 -40 0
c-32 0 -39 4 -39 19 0 18 65 441 76 489 4 20 10 22 69 22 36 0 65 -4 65 -8z
m-2219 -35 c94 -81 270 -140 409 -136 l75 2 0 -169 0 -169 -45 0 -45 0 -10 94
c-7 63 -14 96 -23 99 -11 3 -12 -14 -7 -96 l7 -100 -233 -4 c-129 -3 -235 -4
-236 -3 -5 3 -103 479 -99 483 3 2 25 7 49 9 l44 5 12 -60 c15 -68 24 -87 39
-78 6 4 4 30 -8 75 -19 74 -19 74 23 80 5 0 26 -14 48 -32z m-324 6 l82 -5 15
-72 c39 -182 86 -404 86 -410 0 -3 -42 -6 -93 -6 l-94 0 -62 248 c-34 136 -61
251 -61 256 0 4 10 5 23 1 12 -4 59 -9 104 -12z m-1689 -13 c20 -17 23 -27 20
-77 l-3 -58 -21 40 c-22 41 -38 115 -26 115 4 -1 17 -9 30 -20z m4888 -28 c89
-45 128 -121 122 -232 -5 -82 -28 -143 -63 -166 -34 -22 -90 -28 -125 -14 -87
36 -107 215 -28 256 64 33 126 -12 115 -83 -8 -47 -28 -67 -57 -58 -18 6 -21
12 -17 35 7 33 -1 44 -20 29 -21 -18 -16 -66 9 -83 52 -36 104 -2 113 75 7 56
-9 89 -57 112 -50 25 -107 10 -140 -36 -31 -44 -32 -144 -2 -201 39 -75 86
-91 214 -74 19 2 26 -2 28 -19 5 -31 -24 -36 -190 -37 -137 -1 -137 -1 -165
26 -24 25 -28 38 -34 112 -5 70 -11 90 -34 120 -27 35 -55 48 -55 24 0 -6 8
-20 18 -31 17 -19 16 -20 -6 -8 -20 11 -52 64 -52 87 0 4 21 4 46 1 54 -6 89
-34 115 -95 17 -39 39 -50 39 -20 0 32 -46 101 -81 124 l-39 24 15 38 c21 49
51 80 100 104 54 25 172 21 231 -10z m-4793 -106 c-8 -17 -17 -33 -20 -36 -10
-11 -23 29 -23 74 l0 50 30 -29 c28 -27 29 -29 13 -59z m2856 44 c57 -17 110
-30 119 -30 12 0 14 -10 8 -52 -16 -139 -19 -188 -8 -188 6 0 14 15 17 33 8
47 25 170 25 185 0 6 11 12 25 12 30 0 30 6 13 -187 l-12 -143 -287 0 c-158 0
-294 -3 -303 -6 -14 -5 -16 14 -16 173 l0 179 48 13 c205 59 203 59 371 11z
m-3069 -39 c22 -8 19 -10 -23 -10 -57 -1 -125 -27 -110 -42 6 -6 19 -6 37 1
30 11 156 14 205 4 47 -10 33 -26 -45 -53 -56 -19 -95 -25 -204 -28 -140 -4
-181 4 -188 38 -4 24 57 78 108 94 49 16 176 14 220 -4z m3537 -48 c-4 -27
-12 -98 -18 -160 -7 -62 -15 -116 -18 -121 -3 -4 -53 -6 -111 -4 l-106 4 13
137 c6 75 12 146 13 158 0 23 2 24 184 31 l49 2 -6 -47z m-3261 -82 c99 -69
324 -281 324 -304 0 -21 -34 4 -124 91 -111 107 -193 173 -273 219 -29 16 -50
33 -46 36 16 17 55 3 119 -42z m1167 -230 c19 -19 -64 -13 -85 6 -10 9 -18 20
-18 24 0 10 89 -16 103 -30z m2653 -17 l101 -7 13 -83 c17 -117 41 -111 96 23
23 57 24 58 61 57 172 -5 375 -19 379 -25 3 -5 27 -11 53 -15 45 -6 50 -10 67
-45 20 -46 36 -49 61 -13 46 67 47 67 147 60 501 -38 904 -100 1116 -172 162
-55 151 3 91 -467 -28 -223 -51 -410 -51 -416 0 -6 -27 3 -62 20 -128 64 -449
128 -857 169 -113 11 -206 21 -207 23 -1 1 -11 23 -22 50 -12 26 -25 47 -31
47 -5 0 -20 -19 -33 -42 l-24 -43 -64 2 c-36 1 -150 7 -255 12 -461 25 -1046
33 -1880 28 -473 -3 -961 -10 -1085 -16 -198 -10 -661 -38 -715 -44 -19 -2
-23 7 -40 86 -9 43 -28 27 -45 -37 -16 -65 -5 -60 -170 -76 -355 -35 -710
-112 -807 -175 -21 -14 -22 -13 -27 18 -19 117 -96 765 -94 786 3 22 14 31 83
58 44 18 83 33 87 33 4 0 25 -38 47 -85 22 -47 45 -85 52 -85 8 0 10 27 8 97
l-4 97 55 13 c415 94 1276 160 2320 177 289 5 1519 -3 1636 -10z m824 -61 c0
-5 -5 -15 -10 -23 -9 -13 -11 -13 -20 0 -15 22 -12 30 10 30 11 0 20 -3 20 -7z
m-5061 -888 c12 -88 21 -184 21 -214 0 -47 4 -57 33 -85 64 -65 204 -96 432
-96 202 0 375 -27 375 -57 0 -13 -55 -43 -107 -58 -91 -26 -199 -35 -393 -33
-210 2 -259 -5 -405 -58 -144 -53 -330 -68 -475 -41 l-65 13 110 7 c61 3 134
14 163 22 67 20 65 41 -2 37 -55 -4 -176 16 -176 29 0 5 28 10 63 10 76 2 119
10 124 25 3 8 -31 14 -104 18 -158 10 -267 24 -364 47 -153 35 -141 44 58 44
162 0 182 2 226 22 77 36 63 48 -61 49 -84 0 -123 5 -182 24 l-75 24 80 6 c76
6 135 24 135 41 0 4 -30 17 -66 29 -75 25 -71 34 20 44 68 8 133 34 160 65 23
25 28 24 -100 21 -121 -2 -198 12 -277 51 -57 28 -115 68 -116 80 -1 3 29 0
67 -8 37 -7 135 -16 217 -19 174 -7 278 7 404 57 92 37 244 79 252 70 4 -3 16
-78 28 -166z m6541 150 c36 -9 104 -32 152 -50 48 -19 113 -39 144 -44 122
-23 339 -8 492 33 60 16 66 9 20 -26 -92 -70 -204 -108 -338 -115 -58 -2 -111
-6 -117 -8 -38 -12 55 -75 111 -75 15 0 25 -4 21 -10 -3 -5 -26 -10 -50 -10
-61 0 -65 -17 -9 -41 42 -19 60 -21 158 -16 61 3 135 12 164 20 l53 14 -28
-29 c-36 -37 -131 -83 -207 -98 -32 -7 -100 -12 -152 -13 -65 -1 -94 -5 -94
-13 0 -31 172 -54 268 -36 28 5 52 6 52 2 0 -13 -94 -49 -148 -56 -71 -9 -67
-32 8 -54 l55 -16 -55 -15 c-39 -10 -111 -14 -243 -14 -126 1 -186 -3 -184
-10 3 -9 105 -56 152 -70 l20 -5 -20 -13 c-37 -22 -199 -13 -300 18 -139 42
-242 55 -435 55 -171 0 -258 8 -350 32 -54 13 -120 45 -120 57 0 36 86 50 365
61 238 9 321 22 396 60 48 25 81 74 76 114 -2 16 6 108 19 205 13 97 24 180
24 184 0 5 8 6 18 3 9 -3 46 -12 82 -21z m-2901 -65 c140 0 252 -2 249 -5 -17
-18 -346 -62 -523 -70 -146 -7 -175 -11 -175 -25 0 -33 515 17 757 74 92 22
111 23 303 17 l205 -6 -40 -19 c-68 -31 -264 -95 -385 -126 -286 -72 -515
-100 -825 -100 -385 0 -677 47 -1037 166 -229 76 -235 83 -78 85 69 1 332 5
585 9 253 4 516 6 585 4 69 -2 239 -4 379 -4z m-2775 -98 c3 -5 8 -46 12 -92
7 -77 6 -83 -10 -77 -38 15 -253 29 -309 20 -102 -15 -65 -28 85 -30 81 -1
165 -8 193 -15 l50 -13 -3 -75 c-4 -119 -4 -120 -51 -104 -53 18 -219 34 -360
34 -265 1 -429 54 -419 137 8 71 221 139 613 198 186 27 192 28 199 17z m4886
-17 c282 -41 493 -95 576 -145 61 -39 53 -99 -19 -133 -77 -37 -152 -48 -382
-58 -195 -8 -285 -18 -364 -40 -23 -6 -33 72 -27 206 7 145 15 195 30 195 6 0
90 -11 186 -25z"/>
<path d="M4742 6898 c2 -6 66 -25 141 -40 76 -16 181 -45 235 -64 120 -44 142
-50 142 -35 0 17 -108 63 -220 95 -188 52 -306 70 -298 44z"/>
<path d="M6215 6769 c-8 -12 -15 -8 67 -53 37 -20 95 -59 129 -86 65 -52 79
-59 79 -37 0 25 -114 114 -207 161 -60 30 -60 30 -68 15z"/>
<path d="M5135 6730 c-4 -6 11 -17 32 -26 21 -9 61 -26 90 -39 49 -22 63 -23
63 -3 0 11 -142 78 -164 78 -8 0 -18 -5 -21 -10z"/>
<path d="M6400 6578 c0 -15 124 -128 140 -128 26 0 1 37 -58 87 -63 54 -82 63
-82 41z"/>
<path d="M5824 6229 c-10 -17 27 -44 136 -99 179 -90 353 -125 433 -89 37 17
37 44 0 33 -47 -15 -184 -9 -243 10 -63 20 -215 92 -277 130 -30 19 -44 23
-49 15z"/>
<path d="M6827 6842 c-24 -27 -21 -51 9 -62 33 -13 64 3 64 33 0 45 -43 62
-73 29z"/>
<path d="M3001 6794 c-32 -23 -51 -74 -51 -139 l0 -57 -117 -124 c-65 -69
-119 -129 -121 -134 -7 -21 41 -8 145 39 145 65 150 66 162 42 10 -18 3 -24
-64 -61 -77 -42 -102 -78 -47 -67 15 4 80 17 146 31 65 14 127 33 137 42 30
27 42 80 37 164 -4 62 -12 92 -40 152 -54 113 -124 155 -187 112z"/>
<path d="M2379 6353 c-64 -65 -141 -149 -171 -188 -67 -85 -138 -193 -138
-212 0 -31 28 -8 68 57 63 101 161 220 279 339 57 56 103 107 103 112 0 26
-37 -2 -141 -108z"/>
<path d="M2619 6184 c-66 -45 -129 -104 -129 -121 0 -22 25 -14 56 18 16 17
57 51 92 76 34 25 60 49 56 54 -9 15 -19 11 -75 -27z"/>
<path d="M5490 6710 c0 -106 392 -392 653 -478 80 -26 159 -29 181 -6 71 70
-104 257 -364 391 -212 108 -373 132 -408 60 -10 -21 -11 -21 -23 11 -13 30
-39 45 -39 22z"/>
<path d="M7179 5453 c-18 -58 -44 -105 -83 -152 -33 -39 -39 -61 -16 -61 25 0
140 197 140 240 0 26 -30 6 -41 -27z"/>
<path d="M7196 5304 c-9 -8 -16 -22 -16 -29 0 -7 7 -21 16 -29 8 -9 22 -16 29
-16 7 0 21 7 29 16 9 8 16 22 16 29 0 7 -7 21 -16 29 -8 9 -22 16 -29 16 -7 0
-21 -7 -29 -16z"/>
<path d="M6828 5105 c-10 -22 -9 -29 10 -47 20 -20 22 -20 46 -4 29 18 31 28
16 57 -16 28 -58 25 -72 -6z"/>
<path d="M6979 5024 c-13 -15 -41 -37 -62 -51 -33 -21 -42 -43 -18 -43 18 0
131 91 131 105 0 23 -24 18 -51 -11z"/>
<path d="M5297 4503 c-4 -3 -7 -25 -7 -49 0 -80 -44 -186 -115 -280 -5 -7 -6
-16 -2 -20 11 -11 62 42 91 95 52 97 79 300 33 254z"/>
<path d="M4556 3661 c-10 -11 -20 -43 -23 -75 -5 -46 -3 -57 11 -62 36 -14 95
79 79 124 -13 36 -42 41 -67 13z"/>
<path d="M4329 3623 c-13 -35 3 -73 31 -73 27 0 43 41 30 75 -13 34 -47 33
-61 -2z"/>
<path d="M1170 5245 c0 -8 5 -15 10 -15 6 0 10 7 10 15 0 8 -4 15 -10 15 -5 0
-10 -7 -10 -15z"/>
<path d="M1280 5245 c0 -9 5 -15 11 -13 6 2 11 8 11 13 0 5 -5 11 -11 13 -6 2
-11 -4 -11 -13z"/>
<path d="M1182 5208 c-17 -17 -15 -45 4 -52 9 -3 37 -6 64 -6 56 0 71 19 40
50 -23 23 -89 27 -108 8z m71 -25 c-7 -2 -21 -2 -30 0 -10 3 -4 5 12 5 17 0
24 -2 18 -5z"/>
<path d="M7051 4353 c-33 -40 -40 -73 -16 -73 8 0 15 4 15 10 0 5 16 27 35 49
40 44 42 51 16 51 -11 0 -33 -17 -50 -37z"/>
<path d="M7200 4231 c0 -4 24 -59 54 -122 50 -107 95 -239 113 -337 4 -24 13
-42 18 -40 18 5 5 110 -26 202 -40 120 -129 306 -146 306 -7 0 -13 -4 -13 -9z"/>
<path d="M7128 4024 c-4 -3 5 -31 19 -62 14 -31 40 -91 58 -134 l33 -76 -39
-4 c-44 -4 -42 -10 -24 65 6 21 4 27 -9 27 -8 0 -18 -10 -21 -22 -3 -13 -17
-72 -31 -133 -22 -92 -26 -134 -27 -255 0 -168 17 -245 63 -291 38 -39 73 -38
115 4 44 44 65 117 72 247 7 138 -10 224 -83 404 -83 207 -106 250 -126 230z
m129 -342 c74 -110 67 -431 -11 -515 -30 -32 -49 -34 -75 -8 -36 36 -46 96
-46 276 0 174 9 229 43 268 24 27 63 18 89 -21z"/>
<path d="M7188 3659 c-10 -5 -22 -26 -28 -47 -14 -51 -12 -328 3 -372 11 -31
16 -35 47 -35 30 0 37 5 53 37 55 112 38 368 -26 413 -25 17 -27 18 -49 4z"/>
<path d="M7377 3233 c-3 -5 -10 -28 -17 -52 -20 -74 -60 -149 -101 -186 -22
-19 -44 -35 -49 -35 -6 0 -10 -7 -10 -15 0 -37 77 8 120 70 55 80 95 204 71
219 -5 4 -12 3 -14 -1z"/>
<path d="M6958 2571 c-25 -10 -61 -29 -80 -41 -48 -34 -148 -132 -148 -147 0
-24 29 -13 52 18 27 36 128 115 172 133 17 7 48 16 69 20 22 4 37 13 37 21 0
20 -44 18 -102 -4z"/>
<path d="M1415 3663 c-12 -139 5 -323 41 -450 3 -13 13 -23 21 -23 17 0 17 -2
-14 130 -13 57 -17 118 -17 253 0 133 -3 177 -12 177 -8 0 -15 -29 -19 -87z"/>
<path d="M1375 3230 c-10 -16 48 -220 63 -220 17 0 15 20 -14 123 -28 97 -37
116 -49 97z"/>
<path d="M1673 2733 c4 -10 18 -49 31 -88 21 -58 26 -88 26 -180 0 -134 21
-217 87 -348 129 -259 269 -393 399 -385 37 2 50 7 52 20 3 16 -2 17 -42 12
-25 -4 -46 -4 -46 -2 0 3 7 19 15 34 8 16 15 36 15 44 -1 38 -43 129 -131 285
-53 94 -116 205 -140 249 -56 100 -89 129 -141 124 l-38 -4 0 39 c0 45 -25
149 -46 189 -16 31 -50 40 -41 11z m183 -293 c16 -16 63 -92 104 -167 42 -76
105 -189 140 -251 50 -89 64 -125 68 -166 17 -202 -239 55 -363 364 -41 104
-57 208 -35 235 20 24 56 18 86 -15z"/>
<path d="M1800 2410 c-15 -29 4 -96 61 -219 58 -123 144 -256 194 -300 59 -52
99 -36 76 30 -18 52 -244 450 -273 481 -31 33 -44 35 -58 8z"/>
<path d="M1776 2691 c-4 -6 -4 -16 -1 -22 4 -5 10 -31 13 -56 4 -26 13 -48 21
-51 11 -4 13 7 9 52 -5 57 -28 100 -42 77z"/>
<path d="M1426 2511 c-3 -4 6 -19 19 -31 64 -60 109 -159 129 -278 12 -75 29
-99 34 -48 10 81 -56 257 -121 329 -35 37 -51 45 -61 28z"/>
<path d="M2196 2001 c-4 -6 0 -24 9 -41 8 -16 21 -53 29 -82 7 -29 18 -54 25
-56 18 -6 12 57 -12 122 -22 58 -39 77 -51 57z"/>
<path d="M5178 3412 c-44 -40 -34 -67 23 -59 48 6 69 22 69 52 0 43 -47 46
-92 7z"/>
<path d="M3248 3379 c-24 -13 -23 -56 1 -69 29 -15 87 -12 101 5 16 19 -2 43
-47 62 -38 15 -33 15 -55 2z"/>
<path d="M1970 2967 c0 -7 14 -21 31 -31 17 -10 55 -38 85 -62 56 -46 74 -53
74 -30 0 22 -149 136 -177 136 -7 0 -13 -6 -13 -13z"/>
<path d="M5138 3176 c-85 -32 -87 -32 -90 -12 -4 30 -42 31 -118 4 -81 -29
-89 -54 -17 -51 51 1 55 -2 31 -28 -45 -50 52 -50 208 1 118 38 160 63 156 93
-5 36 -66 33 -170 -7z"/>
<path d="M5620 2140 c0 -5 5 -10 10 -10 6 0 10 5 10 10 0 6 -4 10 -10 10 -5 0
-10 -4 -10 -10z"/>
<path d="M5742 2139 c2 -6 8 -10 13 -10 5 0 11 4 13 10 2 6 -4 11 -13 11 -9 0
-15 -5 -13 -11z"/>
<path d="M5653 2116 c-7 -10 16 -26 37 -26 21 0 46 17 37 26 -10 10 -68 11
-74 0z"/>
<path d="M5707 1983 c-11 -10 -8 -152 3 -174 14 -25 56 -25 69 0 15 26 25 124
17 156 -12 47 -30 23 -27 -36 2 -57 -11 -109 -29 -109 -6 0 -10 34 -10 85 0
78 -5 96 -23 78z"/>
<path d="M4573 1558 c-4 -7 -17 -62 -28 -123 l-20 -110 -38 -6 c-76 -12 -128
-75 -130 -158 -2 -62 20 -91 73 -91 20 0 41 5 48 12 9 9 13 7 18 -5 4 -11 17
-17 35 -17 22 0 30 6 33 23 15 67 66 469 61 477 -9 14 -42 12 -52 -2z m-67
-266 c15 -9 0 -113 -24 -162 -22 -46 -58 -53 -72 -14 -14 37 11 122 46 157 29
29 33 31 50 19z"/>
<path d="M4946 1528 c-53 -333 -67 -450 -56 -464 13 -15 42 -19 54 -7 4 4 24
8 46 8 46 1 85 32 106 82 35 82 -3 153 -81 153 -30 0 -31 16 -11 151 6 48 10
92 8 98 -2 6 -17 11 -32 11 -25 0 -30 -5 -34 -32z m105 -279 c29 -55 -17 -164
-66 -157 -18 3 -20 9 -17 78 2 41 8 80 14 87 17 20 56 15 69 -8z"/>
<path d="M2138 1518 c-13 -11 -19 -61 -32 -261 -9 -137 -14 -253 -10 -258 8
-13 54 -11 59 4 3 6 9 64 14 127 10 121 19 140 67 140 30 0 34 -16 34 -144 0
-62 3 -116 6 -119 4 -3 15 -2 25 4 16 8 19 22 19 98 0 109 -7 143 -33 171 -16
18 -28 21 -63 17 -51 -5 -49 -13 -34 128 7 68 6 91 -3 97 -17 11 -31 10 -49
-4z"/>
<path d="M2692 1518 c-6 -6 -12 -33 -12 -59 0 -82 -9 -109 -37 -109 -30 0 -26
-24 5 -28 21 -3 21 -6 15 -126 l-6 -122 28 -22 c35 -27 55 -28 89 -1 28 22 61
77 52 87 -3 3 -22 -12 -41 -34 -34 -38 -35 -39 -50 -19 -12 15 -14 35 -10 90
13 155 12 154 51 161 45 8 44 24 -2 24 l-36 0 3 83 c4 76 3 82 -16 85 -11 1
-26 -3 -33 -10z"/>
<path d="M2025 1498 c-2 -7 -11 -98 -20 -203 -8 -104 -19 -203 -23 -219 -7
-26 -10 -22 -40 56 -17 46 -38 92 -45 102 -17 23 -47 15 -47 -11 0 -23 -64
-158 -79 -167 -8 -5 -11 50 -11 191 0 109 -4 204 -9 212 -7 10 -16 11 -37 4
l-29 -10 -3 -251 -2 -252 24 -6 c48 -12 62 7 136 181 l22 50 31 -83 c33 -91
56 -114 95 -93 24 13 28 31 47 246 8 94 18 191 21 218 6 40 4 47 -10 47 -9 0
-19 -6 -21 -12z"/>
<path d="M6846 1472 c-4 -6 1 -15 10 -20 14 -8 9 -34 -43 -223 -53 -191 -62
-214 -81 -217 -12 -2 -22 -9 -22 -16 0 -9 21 -16 61 -20 33 -4 67 -10 75 -13
8 -3 14 1 14 10 0 9 -9 18 -20 22 -16 5 -18 12 -14 38 12 67 47 196 80 300 29
88 39 107 55 107 24 0 25 17 2 24 -45 13 -111 17 -117 8z"/>
<path d="M3950 1350 c-53 -57 -63 -177 -20 -248 16 -26 26 -32 53 -32 70 0
117 70 125 187 4 67 3 73 -21 97 -38 38 -99 36 -137 -4z m104 -15 c61 -62 -5
-278 -69 -225 -20 17 -20 129 0 177 27 64 42 74 69 48z"/>
<path d="M4180 1350 c-46 -50 -61 -169 -29 -232 27 -51 77 -63 121 -28 37 29
70 113 71 183 2 53 -1 61 -26 83 -42 36 -100 33 -137 -6z m118 -30 c8 -16 11
-46 9 -81 -12 -146 -107 -194 -107 -55 0 125 60 208 98 136z"/>
<path d="M3336 1362 c-4 -3 -33 -5 -65 -4 -54 2 -61 0 -89 -29 -59 -60 -85
-197 -49 -253 23 -35 58 -33 101 4 34 30 35 30 38 9 2 -12 10 -27 20 -32 27
-18 48 9 48 62 0 25 7 81 15 124 8 43 15 87 15 97 0 18 -23 34 -34 22z m-47
-50 c23 -42 -34 -197 -82 -226 -24 -14 -47 15 -47 59 0 45 27 128 51 159 24
30 64 35 78 8z"/>
<path d="M3718 1355 c-56 -31 -97 -143 -78 -214 14 -54 43 -76 96 -75 l44 1 0
-37 c0 -49 -18 -98 -40 -110 -24 -13 -65 2 -82 30 -17 27 -40 26 -36 -1 4 -30
47 -59 95 -66 35 -4 45 -1 76 27 44 38 51 62 71 240 22 191 23 187 -20 205
-45 19 -91 19 -126 0z m87 -26 c10 -30 -4 -167 -20 -206 -12 -27 -19 -33 -45
-33 -26 0 -33 6 -46 36 -16 39 -12 93 11 151 27 65 86 96 100 52z"/>
<path d="M5179 1339 c-36 -38 -52 -98 -47 -167 6 -67 33 -106 77 -110 27 -3
39 3 70 35 42 45 61 98 61 172 0 68 -29 101 -91 101 -33 0 -47 -6 -70 -31z
m107 -13 c41 -31 14 -198 -38 -230 -59 -36 -72 123 -18 212 22 36 28 38 56 18z"/>
<path d="M5564 1352 c-7 -4 -22 -56 -34 -117 -12 -60 -27 -116 -32 -122 -17
-21 -66 -16 -79 9 -11 21 -8 113 7 196 5 25 3 32 -9 32 -30 0 -56 -157 -37
-215 14 -41 35 -55 84 -55 22 0 36 -5 36 -12 0 -32 -23 -90 -46 -118 -28 -32
-68 -40 -106 -19 -14 8 -23 8 -31 0 -18 -18 7 -33 61 -39 87 -8 146 36 172
128 20 70 61 291 58 313 -3 23 -25 32 -44 19z"/>
<path d="M2547 1329 c-10 -6 -31 -7 -48 -4 -70 16 -131 -50 -149 -158 -11 -68
2 -121 34 -142 27 -18 50 -12 88 23 l27 25 10 -26 c11 -28 18 -31 45 -21 12 5
16 20 16 63 0 31 7 94 14 141 17 101 8 125 -37 99z m-37 -44 c42 -50 -57 -282
-102 -237 -19 19 -20 89 -3 148 25 88 72 128 105 89z"/>
<path d="M5951 1315 c-46 -40 -73 -99 -79 -176 -4 -58 -2 -69 17 -88 28 -28
53 -27 89 4 37 31 40 31 44 3 2 -17 11 -24 31 -26 24 -3 27 0 27 24 0 15 14
78 30 141 17 62 28 118 25 123 -4 6 -23 10 -43 10 -20 -1 -53 2 -73 5 -29 6
-41 2 -68 -20z m94 -22 c21 -20 15 -54 -21 -132 -53 -116 -114 -138 -114 -40
0 66 69 189 106 189 7 0 20 -7 29 -17z"/>
<path d="M6195 1308 c-11 -32 -44 -198 -47 -238 -3 -44 -2 -45 27 -45 l29 0
16 95 c27 160 50 199 97 165 17 -13 17 -18 -1 -122 -24 -136 -24 -148 -6 -148
10 0 20 30 36 110 27 133 31 145 55 145 40 0 50 -73 25 -190 -14 -63 -8 -96
13 -74 12 13 31 129 31 191 0 68 -22 95 -81 99 -24 2 -66 8 -94 13 -69 14 -95
13 -100 -1z"/>
<path d="M6927 1013 c-12 -11 -8 -50 7 -62 11 -9 18 -8 30 4 18 18 19 25 10
49 -6 16 -35 22 -47 9z"/>
<path d="M1336 472 c-17 -29 93 -52 247 -52 80 0 97 3 97 15 0 12 -18 15 -104
15 -95 0 -177 9 -217 25 -10 3 -20 2 -23 -3z"/>
<path d="M6860 567 c-44 -12 -55 -34 -15 -30 116 13 169 14 211 4 54 -14 82
-1 43 19 -32 18 -185 22 -239 7z"/>
<path d="M6795 485 c-68 -18 -102 -32 -109 -44 -12 -19 11 -19 69 1 35 12 101
23 159 27 66 4 101 10 104 19 5 17 -157 15 -223 -3z"/>
</g>
</svg>
