<?xml version="1.0" standalone="no"?>
<!DOCTYPE svg PUBLIC "-//W3C//DTD SVG 20010904//EN"
 "http://www.w3.org/TR/2001/REC-SVG-20010904/DTD/svg10.dtd">
<svg version="1.0" xmlns="http://www.w3.org/2000/svg"
 width="952.000000pt" height="743.000000pt" viewBox="0 0 952.000000 743.000000"
 preserveAspectRatio="xMidYMid meet">

<g transform="translate(0.000000,743.000000) scale(0.100000,-0.100000)"
fill="#000000" stroke="none">
<path d="M4638 7385 c-2 -2 -41 -7 -86 -10 -144 -10 -314 -44 -397 -81 -63
-27 -81 -31 -100 -24 -12 4 -41 0 -70 -10 -27 -10 -99 -34 -160 -55 -60 -20
-112 -40 -115 -44 -3 -4 -30 -17 -60 -30 -30 -13 -98 -45 -151 -72 -52 -27
-100 -49 -106 -49 -7 0 -18 -7 -27 -15 -8 -8 -36 -26 -62 -39 -44 -22 -51 -23
-75 -10 -15 7 -36 24 -46 37 -10 13 -26 26 -37 30 -11 4 -16 13 -12 22 4 10
-1 15 -17 15 -12 0 -31 7 -41 15 -11 8 -28 15 -38 15 -10 0 -18 4 -18 9 0 11
-111 26 -160 22 -20 -1 -42 -11 -52 -22 -9 -10 -22 -19 -30 -19 -16 -1 -48
-24 -48 -36 -1 -5 -10 -20 -20 -33 -16 -19 -26 -22 -53 -17 -147 29 -363 31
-395 4 -9 -8 -37 -20 -62 -26 -25 -6 -72 -25 -104 -42 -33 -16 -69 -30 -80
-30 -28 -1 -155 -45 -169 -59 -6 -6 -19 -11 -28 -11 -10 0 -19 -5 -21 -10 -2
-6 -23 -18 -48 -26 -25 -9 -52 -21 -60 -28 -8 -6 -40 -23 -70 -36 -30 -14 -57
-28 -60 -31 -3 -4 -30 -21 -60 -39 -93 -56 -164 -103 -190 -127 -14 -12 -63
-54 -110 -92 -87 -69 -144 -131 -173 -186 -9 -16 -36 -52 -60 -78 -25 -27 -62
-81 -82 -120 -21 -40 -45 -81 -54 -92 -10 -11 -37 -69 -60 -130 -23 -60 -45
-117 -50 -125 -4 -8 -16 -45 -26 -82 -10 -38 -21 -68 -25 -68 -4 0 -13 -19
-20 -42 -7 -24 -19 -62 -26 -86 -8 -23 -14 -51 -14 -62 0 -10 -5 -22 -10 -25
-6 -4 -8 -10 -6 -14 3 -4 -1 -29 -9 -56 -8 -26 -15 -84 -15 -129 0 -70 3 -85
26 -118 31 -44 71 -51 104 -18 11 11 24 20 30 20 5 0 14 9 20 19 15 29 61 76
95 97 17 10 38 29 48 41 10 13 23 23 29 23 5 0 24 10 40 22 l31 22 -7 -80 c-4
-43 -11 -81 -16 -84 -11 -7 -19 -79 -27 -255 l-6 -140 27 -13 c35 -16 55 -15
90 3 15 8 35 15 42 15 8 0 14 6 14 14 0 8 14 18 32 21 17 4 46 15 63 25 37 21
74 40 95 50 8 4 29 27 46 51 17 24 35 44 40 44 5 -1 12 -28 16 -60 5 -36 14
-65 24 -72 13 -9 16 -43 21 -190 4 -156 3 -180 -11 -192 -9 -7 -16 -22 -16
-33 0 -10 -9 -36 -19 -56 -11 -20 -24 -49 -30 -65 -9 -24 -14 -26 -38 -20 -31
9 -27 9 -578 -2 -298 -5 -411 -11 -443 -21 -23 -8 -55 -14 -69 -14 -44 0 -98
-46 -130 -108 -15 -31 -31 -59 -35 -62 -19 -14 -28 -71 -28 -170 0 -99 2 -111
24 -137 38 -46 44 -64 51 -161 8 -94 2 -123 -38 -197 -29 -53 -37 -75 -56
-145 -15 -59 -18 -85 -10 -124 13 -71 49 -186 57 -186 17 0 32 -72 32 -156 0
-85 -2 -92 -29 -123 -16 -17 -34 -53 -41 -79 -7 -26 -19 -62 -27 -81 -12 -26
-14 -60 -11 -141 4 -93 8 -115 33 -166 16 -33 37 -68 48 -79 45 -47 52 -69 62
-193 9 -100 8 -131 -3 -160 -39 -106 -46 -150 -35 -214 15 -87 60 -178 98
-198 17 -8 31 -18 33 -22 2 -4 20 -12 40 -19 20 -7 57 -30 82 -52 25 -21 57
-45 72 -53 16 -8 28 -19 28 -23 0 -5 48 -37 106 -70 l106 -61 95 0 c68 0 105
-5 130 -17 26 -12 37 -13 42 -4 4 7 25 12 47 12 21 -1 101 2 177 5 l137 5 23
-48 c21 -47 69 -118 92 -138 7 -5 19 -24 28 -41 9 -17 36 -56 61 -87 25 -30
46 -62 46 -70 0 -8 9 -24 20 -37 11 -13 20 -34 20 -48 0 -45 95 -213 158 -279
72 -75 100 -84 257 -90 140 -4 157 -8 228 -45 31 -16 63 -20 163 -23 68 -2
139 0 157 5 17 4 59 13 92 20 33 7 71 20 84 28 17 10 65 16 170 18 80 3 151 4
156 4 6 0 253 -2 550 -5 533 -4 592 -7 730 -41 90 -22 373 -31 406 -13 13 6
45 18 72 25 49 13 51 12 95 -18 40 -27 61 -35 137 -53 99 -23 379 -9 401 20 6
8 25 15 43 15 27 0 32 4 38 30 4 24 11 30 32 30 14 1 246 0 516 0 466 -1 491
-2 522 -20 63 -37 133 -51 231 -45 49 3 100 9 113 13 12 5 54 7 93 4 39 -2 91
1 116 8 126 31 181 40 248 39 70 -1 75 0 108 32 19 18 34 38 34 43 0 6 24 24
53 40 28 16 59 34 67 41 8 6 39 22 69 34 29 13 63 32 75 43 11 10 42 36 69 56
27 20 55 53 64 74 12 28 34 49 79 77 35 22 73 55 86 74 72 106 102 147 108
147 3 0 12 15 20 34 l13 34 40 -14 c29 -10 92 -14 233 -14 191 0 194 0 231 26
21 14 45 23 55 21 10 -3 18 -2 18 3 0 7 123 90 134 90 4 0 31 20 62 45 30 25
61 45 69 45 7 0 15 3 17 8 2 4 29 21 61 37 35 18 65 42 75 60 9 17 25 36 35
43 9 7 17 24 17 38 0 14 11 36 25 50 17 17 25 36 25 58 0 58 -19 137 -40 163
-23 30 -27 102 -10 199 14 77 36 130 78 179 18 22 38 46 43 53 39 49 69 226
50 295 -24 89 -45 147 -53 147 -4 0 -8 5 -8 11 0 6 -7 17 -15 25 -20 21 -22
52 -10 175 4 42 13 74 23 85 10 11 26 42 36 69 9 28 23 61 29 74 18 37 14 177
-7 254 -11 37 -23 70 -28 73 -4 3 -8 14 -8 24 0 10 -6 20 -12 23 -16 5 -17
225 -1 235 6 4 24 32 42 63 30 53 31 60 31 171 0 116 -16 193 -46 229 -8 8
-14 20 -14 25 -1 18 -83 66 -138 80 -31 8 -75 20 -97 25 -22 6 -137 15 -255
19 -231 10 -389 23 -485 42 -33 6 -104 12 -158 14 -54 1 -99 3 -100 5 -2 2
-14 28 -27 58 -23 49 -25 68 -25 185 0 95 6 160 22 236 12 58 27 135 33 173 7
37 16 67 20 67 11 0 40 130 40 179 0 26 5 41 13 41 6 0 45 -13 85 -30 40 -16
83 -31 95 -33 12 -2 35 -9 50 -15 28 -12 45 -16 107 -28 19 -4 152 -8 295 -10
326 -4 371 4 445 78 45 43 56 74 43 114 -9 27 -14 31 -63 53 -40 17 -61 34
-94 71 -17 19 -50 54 -73 78 -47 45 -44 50 14 28 126 -47 205 -61 235 -42 18
11 25 36 10 36 -9 0 -32 58 -32 79 0 7 -6 27 -14 44 -8 18 -16 41 -19 52 -3
11 -17 52 -32 90 -14 39 -31 85 -36 103 -5 17 -14 32 -19 32 -7 0 -33 50 -62
120 -6 14 -14 32 -19 40 -4 8 -17 31 -27 51 -11 19 -49 74 -85 122 -36 48 -69
97 -72 109 -4 13 -18 34 -31 48 -36 38 -94 111 -94 119 0 4 -25 32 -57 62 -31
30 -68 66 -83 81 -15 15 -65 55 -111 89 -46 34 -92 70 -102 80 -10 11 -27 19
-37 19 -11 0 -20 4 -20 9 0 5 -47 33 -105 62 -58 29 -105 57 -105 61 0 4 -8 8
-19 8 -10 0 -42 13 -72 29 -30 15 -70 32 -89 36 -19 4 -48 13 -65 21 -37 17
-142 44 -170 44 -12 0 -27 6 -33 12 -16 16 -197 15 -215 -1 -7 -5 -38 -12 -68
-14 -31 -2 -61 -7 -67 -11 -16 -10 -152 -16 -152 -7 0 13 -60 70 -102 98 -34
23 -45 25 -162 24 -108 0 -134 -4 -179 -23 -59 -25 -87 -46 -87 -65 0 -7 -6
-13 -14 -13 -16 0 -126 -124 -126 -143 0 -8 -3 -8 -8 -2 -12 17 -109 85 -121
85 -6 0 -11 3 -11 8 0 4 -17 16 -37 27 -20 11 -50 31 -66 44 -41 35 -95 64
-227 124 -25 11 -47 24 -50 27 -10 13 -68 39 -100 45 -18 3 -40 10 -49 15 -18
9 -114 42 -176 59 -44 13 -98 21 -160 25 -22 1 -50 7 -62 14 -29 16 -105 30
-223 42 -52 5 -106 12 -120 15 -73 14 -570 31 -582 20z m427 -66 c55 -6 102
-15 105 -19 3 -4 37 -12 75 -18 39 -6 90 -16 115 -22 74 -17 177 -29 320 -34
74 -3 158 -12 185 -20 61 -17 127 -44 135 -55 3 -4 32 -17 65 -29 33 -11 74
-27 90 -36 17 -9 36 -16 43 -16 6 0 12 -4 12 -8 0 -4 12 -13 28 -20 50 -23 82
-43 82 -52 0 -6 16 -16 35 -24 19 -8 47 -26 62 -41 16 -14 36 -28 46 -31 9 -3
17 -10 17 -15 0 -5 6 -9 13 -9 12 0 92 -64 133 -107 12 -13 26 -23 33 -23 6 0
11 -5 11 -11 0 -6 5 -9 12 -7 6 2 30 -14 52 -37 23 -23 61 -55 86 -72 25 -17
64 -50 87 -74 22 -24 62 -64 88 -88 26 -25 60 -64 75 -87 16 -23 35 -44 43
-47 7 -3 44 -52 83 -110 38 -59 74 -106 79 -107 9 0 91 -131 125 -198 6 -13
21 -33 32 -44 11 -11 28 -39 39 -63 l19 -42 -30 -134 c-16 -74 -30 -146 -30
-161 0 -16 -4 -28 -10 -28 -6 0 -10 -32 -10 -75 0 -41 4 -75 9 -75 7 0 15
-128 26 -433 3 -95 -11 -248 -23 -257 -5 -3 -18 -61 -30 -130 -21 -125 -90
-320 -126 -355 -8 -8 -20 -32 -27 -52 -6 -21 -24 -54 -39 -73 -14 -19 -37 -61
-50 -93 -13 -33 -29 -61 -36 -64 -7 -3 -16 -15 -20 -26 -3 -12 -25 -56 -48
-97 -23 -41 -51 -95 -62 -120 -10 -25 -27 -53 -36 -62 -10 -10 -20 -30 -24
-45 -4 -16 -13 -41 -21 -56 -20 -40 -70 -250 -77 -326 -3 -36 -10 -67 -14 -70
-9 -7 -42 -210 -42 -259 0 -18 -8 -45 -17 -60 -21 -35 -74 -92 -85 -92 -5 0
-24 -16 -43 -35 -19 -19 -35 -32 -35 -30 0 3 11 37 25 77 13 40 27 86 29 102
3 16 11 33 18 38 11 6 10 8 0 8 -10 0 -10 3 1 15 9 8 19 29 22 47 6 28 42 141
100 318 8 25 15 55 15 68 0 12 4 22 9 22 4 0 14 28 20 63 7 34 18 85 25 112
19 67 54 248 61 310 3 28 10 82 15 120 5 39 13 99 16 135 4 36 11 68 16 71 11
7 11 541 0 548 -5 3 -12 103 -16 221 -9 283 -23 503 -41 620 -28 183 -63 381
-69 387 -17 17 -18 -18 -3 -124 21 -146 21 -143 -2 -143 -25 0 -154 40 -161
50 -3 4 -18 10 -33 14 -60 14 -214 95 -254 132 -23 22 -58 50 -77 64 -20 14
-36 30 -36 36 0 7 -11 19 -25 28 -14 9 -25 23 -25 31 0 8 -7 18 -15 22 -9 5
-21 41 -30 88 -25 128 -108 366 -135 385 -4 3 -15 20 -24 38 l-17 33 28 -6
c15 -4 37 -10 48 -15 109 -48 158 -74 186 -102 l34 -33 3 30 c7 60 -104 124
-267 155 -37 7 -59 18 -73 35 -11 14 -24 25 -30 25 -6 0 -6 -6 2 -15 10 -12
10 -15 -4 -15 -9 0 -16 -6 -17 -12 0 -10 -2 -10 -6 0 -5 14 -93 17 -93 3 0 -5
-22 -12 -50 -16 -78 -11 -230 -125 -167 -125 8 0 22 9 33 21 53 59 178 97 278
85 61 -8 76 -20 107 -91 12 -28 25 -52 29 -55 28 -20 109 -301 112 -384 4
-194 -9 -313 -39 -337 -7 -6 -13 -18 -13 -25 0 -13 -50 -66 -131 -140 -31 -28
-87 -52 -161 -68 -30 -7 -28 -9 -48 92 -7 34 -16 62 -19 62 -4 0 -18 30 -31
67 -44 117 -115 164 -141 94 -6 -14 -21 -40 -35 -58 -13 -17 -24 -34 -24 -38
0 -9 -66 -75 -76 -75 -5 0 -38 -30 -74 -67 -37 -38 -94 -88 -127 -113 -34 -25
-63 -53 -66 -62 -3 -10 -12 -18 -21 -18 -9 0 -27 -9 -39 -21 -12 -11 -42 -35
-67 -51 -25 -17 -49 -36 -55 -42 -5 -7 -27 -22 -47 -34 -34 -21 -42 -22 -115
-13 -80 9 -164 29 -173 41 -3 3 -41 24 -85 45 -53 26 -100 59 -138 97 -32 32
-60 58 -62 58 -9 0 -61 54 -91 95 -16 22 -46 58 -67 80 -21 22 -46 54 -54 70
-9 17 -19 32 -23 35 -3 3 -20 29 -36 57 -16 29 -32 53 -36 53 -5 0 -8 6 -8 14
0 7 -7 19 -15 26 -12 10 -15 10 -15 -3 0 -23 19 -71 33 -82 7 -5 24 -28 38
-50 76 -117 104 -156 126 -170 12 -9 23 -21 23 -28 0 -29 286 -287 318 -287 4
0 12 -8 18 -17 12 -19 42 -35 196 -102 26 -12 58 -21 73 -21 24 0 86 42 180
124 76 66 103 86 113 86 6 0 33 21 59 48 26 26 66 60 88 77 22 16 54 42 70 57
17 15 33 28 38 28 4 0 7 7 7 15 0 9 10 19 23 24 12 5 48 37 79 72 86 95 130
141 133 137 1 -2 13 -23 25 -48 29 -57 50 -153 56 -259 2 -46 7 -88 10 -92 8
-14 31 -11 47 6 13 13 66 36 122 52 77 23 232 167 273 253 14 30 29 57 32 60
18 15 32 78 18 86 -4 3 -8 29 -8 57 l1 52 58 -62 c32 -34 69 -67 82 -73 13 -5
49 -28 79 -50 30 -22 63 -40 73 -40 9 0 25 -8 35 -18 20 -20 121 -65 172 -78
43 -10 41 -9 60 -17 8 -3 32 -8 53 -12 20 -3 37 -11 37 -18 0 -7 5 -55 10
-107 19 -201 25 -368 24 -725 -1 -476 -12 -690 -45 -816 -5 -20 -9 -57 -9 -82
0 -61 -20 -201 -29 -207 -5 -3 -11 -39 -15 -80 -6 -69 -38 -225 -83 -407 l-18
-73 -97 -50 c-53 -27 -104 -50 -113 -50 -16 0 -64 -27 -78 -45 -6 -7 -10 -6
-14 3 -5 13 -73 17 -73 4 0 -12 -103 -57 -200 -87 -47 -14 -112 -35 -145 -46
-33 -10 -68 -19 -77 -19 -10 0 -18 -4 -18 -8 0 -7 -66 -23 -150 -36 -14 -2
-45 -7 -70 -12 -25 -4 -49 -7 -54 -5 -5 1 -21 -2 -35 -8 -24 -9 -66 -14 -237
-27 -68 -5 -129 -11 -129 -14 0 0 -43 -3 -95 -5 -52 -3 -129 -7 -170 -10 -109
-7 -534 -9 -610 -2 -202 17 -625 96 -641 119 -3 5 -54 18 -112 28 -59 11 -130
26 -159 34 -29 8 -71 17 -93 21 -36 6 -152 58 -165 74 -3 3 -36 22 -73 41 -38
19 -97 62 -132 95 -35 33 -79 74 -97 90 -32 28 -36 38 -61 170 -15 77 -32 172
-37 210 -31 211 -33 708 -4 995 11 115 27 257 29 272 2 9 6 38 10 65 13 100
29 188 35 193 3 3 16 59 29 125 25 132 66 318 85 380 10 32 22 45 59 66 26 14
56 34 66 46 11 11 37 31 58 44 21 12 42 29 46 36 4 7 13 13 20 13 7 0 33 19
59 43 26 23 71 62 99 87 29 25 72 64 96 88 24 23 46 42 48 42 2 0 2 -53 2
-117 -2 -102 2 -165 17 -273 6 -38 32 -141 46 -175 6 -16 30 -47 53 -67 33
-30 49 -38 80 -38 30 0 40 4 44 20 3 11 9 20 13 20 4 0 15 33 25 73 15 64 42
124 86 195 8 12 42 45 77 73 54 44 62 55 62 84 0 31 -27 65 -51 65 -18 0 -83
-77 -145 -172 -24 -36 -47 -68 -51 -70 -11 -4 -66 -96 -82 -135 -7 -18 -16
-33 -19 -33 -12 0 -42 34 -42 47 0 7 -4 13 -8 13 -10 0 -35 56 -51 110 -24 87
-33 230 -21 338 11 96 53 255 70 260 5 2 10 10 10 17 0 7 23 59 51 115 45 89
54 101 73 96 11 -3 29 -6 38 -6 9 0 23 -6 30 -12 8 -7 30 -28 50 -47 29 -27
42 -32 62 -27 21 5 26 12 26 39 0 17 -4 37 -8 44 -8 12 -100 52 -145 62 l-27
6 41 55 c22 30 50 65 61 77 19 20 18 43 -2 43 -12 0 -100 -90 -100 -102 0 -33
-100 -97 -152 -98 -17 0 -80 -58 -156 -143 -24 -26 -32 -43 -27 -57 9 -28 18
-25 39 11 27 46 125 139 146 139 6 0 19 5 30 12 10 7 22 9 25 6 7 -6 -52 -129
-65 -138 -7 -5 -60 -138 -75 -187 -6 -21 -65 -73 -83 -73 -12 0 -63 -57 -90
-101 -12 -20 -44 -54 -70 -75 -26 -22 -68 -60 -93 -86 -26 -27 -51 -48 -56
-48 -4 0 -32 -23 -62 -50 -83 -77 -97 -67 -62 44 63 201 71 244 45 253 -6 2
-21 -43 -35 -103 -13 -59 -29 -113 -36 -119 -12 -12 -108 -358 -134 -482 -7
-35 -17 -63 -21 -63 -4 0 -8 -10 -8 -22 0 -13 -7 -56 -15 -98 -81 -417 -117
-1253 -69 -1622 26 -201 37 -272 61 -398 15 -80 30 -147 34 -150 3 -3 16 -50
28 -105 12 -55 27 -126 35 -157 7 -32 11 -58 10 -58 -2 0 -31 20 -66 44 -97
68 -118 99 -118 173 0 78 -30 308 -40 311 -6 2 -10 27 -10 55 0 73 -33 239
-65 322 -14 39 -35 95 -47 125 -11 30 -23 57 -27 60 -19 13 -131 252 -131 279
0 9 -8 26 -18 37 -33 36 -59 79 -66 109 -4 17 -15 48 -25 70 -11 22 -29 67
-42 100 -12 33 -26 62 -29 65 -14 10 -30 79 -46 200 -27 205 -28 323 -4 565
12 121 25 283 29 359 4 98 10 141 19 144 6 2 12 13 12 24 0 11 6 32 14 46 8
15 22 47 32 72 33 83 85 195 94 200 10 7 44 63 74 127 14 29 43 70 65 92 22
22 47 53 55 68 8 15 33 48 55 73 23 24 41 48 41 52 0 4 7 8 15 8 9 0 19 10 24
23 12 32 89 116 123 133 15 8 28 19 28 26 0 15 132 138 148 138 8 0 16 8 19
18 4 15 88 88 117 102 25 11 72 47 91 67 21 23 50 41 155 94 36 19 67 36 70
39 26 27 234 121 310 141 24 6 49 16 55 23 13 16 69 34 122 40 23 3 50 9 60
15 27 14 197 57 281 71 39 6 72 15 72 19 0 11 169 32 310 38 69 3 126 6 127 7
3 3 163 -11 278 -25z m-2080 -273 c50 -18 78 -36 115 -75 63 -66 75 -88 59
-107 -6 -8 -18 -14 -25 -14 -8 0 -14 -4 -14 -8 0 -5 -46 -40 -102 -78 -57 -38
-104 -72 -106 -76 -2 -3 -29 -26 -60 -49 -78 -59 -122 -100 -122 -116 0 -7 -4
-13 -8 -13 -14 0 -88 -78 -103 -108 -19 -37 -78 -111 -111 -140 -16 -13 -28
-28 -28 -33 0 -5 -20 -40 -45 -78 -25 -38 -45 -73 -45 -79 0 -6 -6 -15 -14
-19 -13 -7 -76 -122 -76 -137 0 -4 -11 -31 -24 -60 -14 -29 -30 -73 -36 -97
-7 -24 -16 -46 -21 -49 -5 -3 -15 -24 -23 -45 l-14 -40 -7 40 c-4 22 -16 83
-26 135 -44 214 -61 321 -55 344 7 28 61 51 114 47 22 -1 34 4 39 14 7 19 -16
95 -29 95 -4 0 -8 23 -8 50 0 28 5 50 10 50 6 0 10 8 10 19 0 10 11 39 25 65
14 26 25 52 25 59 0 13 80 97 93 97 5 0 20 9 34 20 14 11 34 20 44 20 11 0 19
5 19 10 0 6 7 10 15 10 8 0 15 -4 15 -10 0 -5 8 -10 18 -10 10 0 27 -7 40 -15
12 -9 34 -14 49 -12 26 4 28 7 26 48 -3 61 16 154 36 176 23 25 81 112 81 122
0 17 68 56 110 62 25 3 48 7 52 8 4 0 37 -10 73 -23z m4162 -12 c28 -10 52
-30 77 -62 19 -26 39 -52 44 -57 20 -24 32 -104 23 -151 -10 -54 0 -94 24 -94
9 0 21 13 26 29 8 23 18 30 47 35 70 11 136 -17 208 -88 40 -39 56 -64 68
-106 19 -69 25 -205 8 -222 -15 -15 -16 -54 -2 -63 18 -11 11 -30 -25 -71 -40
-44 -65 -92 -65 -123 0 -12 -4 -21 -8 -21 -4 0 -21 -54 -37 -120 l-28 -120
-33 57 c-19 32 -34 63 -34 68 0 6 -11 20 -23 31 -12 12 -47 65 -77 119 -30 53
-63 101 -73 107 -10 5 -25 24 -32 42 -8 18 -34 58 -59 89 -26 31 -46 58 -46
60 0 18 -329 327 -404 380 -17 13 -17 16 14 71 18 32 49 74 69 93 141 137 212
161 338 117z m851 -149 c61 -20 112 -41 112 -46 0 -5 7 -9 15 -9 8 0 38 -11
67 -24 29 -13 87 -40 128 -58 41 -19 82 -42 91 -50 8 -9 31 -23 49 -33 74 -38
187 -122 246 -181 34 -34 74 -70 88 -79 14 -10 26 -23 26 -30 0 -7 7 -19 16
-26 16 -13 49 -59 86 -120 9 -16 26 -37 37 -48 10 -10 34 -50 52 -88 17 -37
37 -71 44 -75 7 -4 18 -21 25 -38 7 -16 16 -30 20 -30 5 0 14 -17 21 -37 6
-21 15 -43 20 -49 5 -6 20 -41 34 -78 14 -38 37 -89 50 -114 14 -26 25 -53 25
-59 0 -7 4 -13 8 -13 9 0 26 -59 42 -140 4 -25 11 -52 15 -61 6 -15 1 -15 -47
-4 -148 37 -233 61 -236 68 -2 4 -14 7 -28 7 -40 0 -43 -42 -4 -82 17 -18 38
-46 45 -63 7 -16 31 -46 52 -66 50 -47 73 -76 73 -93 0 -7 10 -21 23 -30 l22
-16 -29 -24 c-81 -67 -332 -91 -600 -55 -88 12 -200 42 -279 77 l-37 16 5 171
c8 206 -8 347 -61 565 -10 41 -21 77 -24 80 -3 3 -13 32 -24 65 -28 90 -47
135 -79 187 -27 42 -36 49 -96 66 -91 27 -225 36 -245 17 -8 -8 -17 -15 -20
-15 -11 0 -6 22 9 36 11 11 13 35 10 107 -2 52 -8 93 -14 95 -6 2 -11 12 -11
22 0 25 -26 84 -44 100 -9 7 -16 19 -16 27 0 7 -7 16 -15 19 -8 4 -15 11 -15
18 0 18 -118 82 -178 96 -29 6 -63 9 -76 6 -21 -5 -25 -2 -31 25 -9 39 2 50
59 56 25 3 46 10 46 14 0 5 15 9 33 10 17 0 64 6 102 14 44 9 112 13 185 10
99 -3 130 -8 228 -40z m-5401 -6 c31 9 34 8 28 -7 -4 -9 -15 -39 -25 -67 l-18
-50 -65 3 c-56 3 -72 0 -126 -27 -33 -17 -61 -35 -61 -39 0 -4 -14 -21 -30
-39 -17 -18 -30 -36 -30 -40 0 -5 -13 -23 -30 -41 -16 -18 -30 -37 -30 -42 0
-5 -10 -29 -22 -52 -19 -36 -23 -59 -23 -140 0 -72 -3 -98 -12 -98 -7 0 -13
-4 -13 -8 0 -5 -16 -16 -36 -26 -34 -16 -38 -16 -55 0 -11 9 -19 22 -19 28 0
15 -78 98 -110 118 -21 13 -43 14 -130 8 -59 -4 -123 -15 -145 -24 -40 -16
-105 -80 -105 -102 0 -6 -12 -38 -26 -70 -15 -33 -33 -81 -41 -109 -8 -27 -19
-52 -24 -55 -13 -9 -76 -267 -88 -365 -21 -167 -19 -471 4 -630 6 -38 3 -43
-44 -93 -28 -29 -51 -57 -51 -63 0 -5 -7 -9 -15 -9 -8 0 -15 6 -15 13 0 8 -2
9 -8 1 -11 -17 -193 -104 -218 -104 -17 0 -23 8 -28 34 -8 43 4 190 15 194 5
2 9 15 9 30 0 44 31 195 52 250 20 54 18 102 -5 102 -30 0 -85 -22 -111 -45
-16 -13 -37 -27 -47 -30 -11 -4 -19 -11 -19 -16 0 -5 -6 -9 -13 -9 -18 0 -112
-71 -147 -110 -17 -19 -39 -32 -56 -33 l-29 -2 2 100 c1 94 35 282 53 295 4 3
22 52 40 110 18 58 37 112 40 120 4 8 20 44 36 80 16 36 37 71 47 78 9 7 17
23 17 35 0 12 9 33 20 47 11 14 20 29 20 33 0 11 97 131 158 194 12 13 22 27
22 30 0 9 193 192 203 193 4 0 20 11 35 25 15 14 31 25 37 25 6 0 24 12 41 28
37 32 94 65 224 130 52 26 98 50 101 55 4 6 61 30 204 86 55 22 95 34 140 43
27 5 52 13 55 17 4 6 170 36 240 43 14 2 62 0 108 -5 49 -4 98 -4 119 2z
m-722 -610 c25 -6 53 -25 73 -47 39 -43 82 -123 82 -151 0 -20 29 -91 41 -101
4 -3 14 -45 23 -95 10 -49 21 -111 27 -138 18 -96 21 -346 5 -506 -9 -85 -16
-175 -16 -200 0 -26 -6 -56 -14 -66 -14 -19 -16 -19 -115 1 -56 12 -101 18
-101 15 0 -8 148 -40 195 -43 17 -1 -17 -5 -75 -9 -58 -3 -127 -11 -154 -18
-26 -6 -77 -11 -112 -12 -35 -1 -64 -5 -64 -10 0 -22 216 -22 259 0 9 5 50 10
91 12 l75 4 3 -80 c6 -200 32 -431 58 -515 38 -126 55 -170 64 -170 5 0 12
-15 16 -32 3 -18 19 -55 34 -83 35 -63 30 -83 -13 -52 -39 29 -108 49 -162 49
-22 -1 -45 4 -52 10 -7 5 -59 12 -115 14 l-103 4 75 -20 c41 -11 105 -22 141
-24 37 -3 75 -9 85 -14 43 -23 124 -52 146 -52 16 -1 34 -16 58 -48 19 -26 38
-49 41 -52 8 -7 88 -185 124 -277 16 -40 31 -73 35 -73 10 0 48 -120 61 -190
17 -94 30 -291 25 -375 -5 -77 -46 -258 -68 -299 -6 -11 -19 -29 -29 -40 -11
-11 -19 -23 -19 -28 0 -4 -20 -39 -45 -77 -25 -38 -45 -73 -45 -78 0 -4 -18
-26 -41 -48 -22 -21 -47 -52 -56 -68 -24 -47 -43 -121 -34 -130 16 -16 29 2
36 50 6 41 15 55 63 100 l57 53 19 -23 c10 -12 30 -47 44 -77 14 -30 29 -57
33 -60 12 -8 50 -130 56 -181 8 -66 -36 -279 -57 -279 -9 0 -36 -64 -54 -130
-8 -30 -27 -70 -41 -89 -14 -19 -25 -40 -25 -45 0 -6 -14 -27 -31 -46 -18 -19
-48 -58 -69 -85 -30 -40 -55 -60 -121 -93 -105 -53 -121 -63 -143 -84 -22 -22
-68 -35 -191 -53 -55 -7 -121 -19 -145 -24 -25 -6 -65 -11 -90 -11 -25 0 -61
-4 -80 -9 -36 -10 -78 -14 -284 -31 -76 -6 -123 -14 -127 -22 -12 -19 -319
-23 -319 -4 0 7 14 19 30 26 17 7 47 26 67 41 20 16 45 29 56 29 23 0 124 46
129 59 1 4 14 12 27 16 l23 7 -18 -32 c-11 -17 -28 -42 -40 -53 -11 -12 -29
-35 -39 -51 l-19 -29 30 16 c30 16 114 102 114 117 0 5 20 29 45 54 32 32 57
47 83 51 20 3 85 17 143 30 58 14 113 25 122 25 9 0 17 5 17 10 0 6 8 10 18
10 39 0 91 49 123 118 18 37 36 69 40 72 22 15 52 108 52 163 0 52 3 60 24 70
12 5 23 13 23 17 0 4 22 17 48 28 72 31 127 96 143 168 7 33 17 62 23 66 15
10 15 286 0 296 -6 4 -14 25 -18 47 -5 22 -13 43 -18 46 -16 10 -2 38 25 48
28 11 37 21 73 86 24 43 29 64 32 147 5 103 -16 229 -45 279 -9 15 -49 48 -89
75 -103 69 -117 105 -59 156 20 17 40 39 45 49 12 22 40 163 40 202 0 15 5 27
10 27 6 0 10 23 10 50 0 28 -4 50 -8 50 -4 0 -14 21 -20 47 -22 80 -69 149
-145 214 -40 33 -84 71 -100 85 -15 13 -42 31 -60 39 -17 8 -52 28 -77 45 -25
16 -52 33 -60 37 -8 3 -17 9 -20 13 -3 3 -15 13 -28 22 -22 15 -23 24 -27 139
-3 68 -9 156 -15 194 -5 39 -12 102 -15 140 -3 39 -10 95 -15 125 -5 30 -12
82 -15 116 l-7 61 47 -7 c47 -7 64 0 42 18 -13 11 -64 26 -108 31 -19 3 -42
271 -42 491 0 118 5 193 18 265 11 55 22 102 25 105 3 3 15 43 25 90 24 112
58 217 97 300 l32 68 65 20 c75 23 148 27 206 11z m6113 -95 l80 -25 12 -47
c7 -26 17 -52 21 -58 13 -17 66 -233 74 -301 4 -35 10 -63 14 -63 11 0 31
-184 31 -280 0 -116 -19 -304 -30 -308 -6 -2 -10 -23 -10 -46 0 -45 -12 -120
-30 -188 -9 -32 -15 -38 -37 -38 -32 0 -93 -21 -93 -32 0 -9 10 -10 67 -8 32
1 42 -2 38 -12 -12 -34 -43 -223 -76 -468 -7 -52 -16 -97 -20 -100 -5 -3 -9
-44 -11 -90 l-3 -84 -84 -43 c-47 -24 -87 -47 -90 -51 -7 -9 -87 -57 -143 -85
-21 -11 -48 -31 -61 -46 -12 -14 -43 -42 -68 -63 -25 -20 -52 -53 -61 -75 -9
-21 -24 -57 -33 -80 -21 -50 -23 -161 -5 -278 10 -68 18 -88 51 -132 22 -29
45 -53 52 -53 7 0 8 -3 2 -8 -6 -4 -16 -19 -23 -33 -8 -14 -28 -34 -45 -44
-18 -11 -43 -29 -57 -42 -14 -13 -30 -23 -36 -23 -27 0 -56 -52 -80 -146 -22
-84 -25 -113 -20 -192 5 -83 9 -97 40 -146 19 -30 44 -57 55 -61 12 -3 26 -15
31 -25 8 -15 6 -22 -10 -33 -11 -7 -27 -34 -36 -58 -22 -62 -30 -240 -14 -348
l13 -89 62 -65 c37 -39 85 -76 117 -92 l55 -27 -5 -52 c-3 -39 2 -73 21 -129
58 -170 100 -228 187 -255 108 -34 210 -62 249 -67 35 -6 55 -18 101 -64 32
-31 67 -74 78 -96 21 -42 65 -88 95 -98 27 -10 20 11 -13 42 -31 28 -75 99
-66 108 5 6 93 -42 112 -62 8 -7 28 -17 46 -20 18 -4 59 -27 91 -51 l59 -44
-124 0 c-85 0 -141 5 -174 15 -27 9 -87 20 -134 25 -182 21 -244 30 -294 44
-28 8 -79 17 -113 21 -35 4 -63 10 -63 15 0 4 -39 15 -87 25 -49 9 -114 23
-145 30 -57 14 -145 65 -155 91 -3 8 -9 14 -14 14 -15 0 -126 69 -155 97 -34
32 -102 138 -135 209 -13 27 -26 51 -31 54 -4 3 -14 36 -23 74 -9 37 -20 75
-24 84 -23 45 -31 74 -45 163 -16 99 -14 113 20 217 15 45 59 137 75 156 5 6
23 30 39 53 l30 43 35 -39 c19 -21 35 -42 35 -46 0 -4 7 -13 15 -19 9 -6 22
-33 28 -61 17 -64 43 -76 33 -14 -9 58 -37 117 -74 159 -17 19 -39 51 -49 70
-29 56 -86 155 -92 160 -15 12 -43 92 -61 175 -22 100 -26 240 -10 375 10 91
57 292 70 300 9 6 91 178 111 233 7 21 21 46 30 56 9 10 32 46 50 81 43 81 85
123 124 125 29 2 125 34 135 46 9 10 59 20 132 24 38 2 95 10 127 17 l56 13
-65 3 c-36 2 -92 -2 -126 -7 -33 -6 -78 -11 -100 -11 -48 0 -109 -16 -126 -34
-8 -7 -23 -18 -36 -25 -20 -11 -22 -9 -22 12 0 13 16 40 35 61 19 21 35 46 35
56 0 9 11 39 25 66 28 56 65 157 65 179 0 8 4 15 10 15 20 0 49 167 71 410 6
69 12 126 14 128 6 6 162 -17 215 -32 56 -16 161 -20 193 -7 12 4 -21 12 -89
21 -80 10 -111 18 -123 32 -12 14 -30 18 -84 18 -37 0 -66 4 -63 9 3 4 40 14
83 21 43 7 73 15 66 17 -7 2 -49 -2 -93 -11 -44 -8 -87 -13 -95 -10 -19 7 -23
53 -29 274 -7 273 9 429 66 663 5 20 13 37 18 37 6 0 10 7 10 16 0 33 82 220
108 247 67 71 166 85 300 41z m-473 -1294 c3 -5 1 -10 -4 -10 -6 0 -11 5 -11
10 0 6 2 10 4 10 3 0 8 -4 11 -10z m-6009 -616 c6 -49 4 -58 -17 -80 -26 -28
-37 -30 -67 -8 -21 14 -22 18 -9 33 8 9 18 26 21 39 4 12 11 22 15 22 4 0 13
11 19 25 18 39 30 30 38 -31z m6623 -176 c-22 -21 -27 -22 -43 -5 -29 29 -38
58 -27 89 6 17 11 43 12 57 0 20 9 8 38 -49 37 -72 37 -76 20 -92z m-7389 61
c102 0 260 3 352 7 153 6 172 5 235 -14 37 -12 84 -24 103 -27 20 -3 50 -19
69 -35 18 -17 55 -42 82 -55 52 -27 126 -72 149 -93 26 -21 174 -118 193 -125
9 -3 17 -13 17 -20 0 -8 9 -22 20 -32 26 -24 59 -114 66 -184 5 -41 0 -89 -16
-165 -36 -168 -67 -192 -265 -209 -147 -12 -437 -15 -565 -5 -112 8 -513 105
-530 127 -6 9 -72 27 -127 36 -51 8 -173 95 -173 123 0 11 -30 25 -38 18 -11
-11 10 -57 42 -90 18 -20 28 -36 22 -37 -7 0 -6 -3 2 -6 17 -6 15 -21 -3 -25
-9 -2 -11 -8 -7 -16 5 -7 41 -14 93 -17 94 -7 204 -27 294 -54 33 -11 80 -24
105 -30 191 -45 226 -55 232 -65 5 -7 8 -6 8 4 0 13 1 13 10 0 7 -12 45 -16
192 -21 101 -4 215 -3 254 2 40 4 98 4 135 -1 35 -5 86 -10 113 -10 57 0 164
-52 220 -106 19 -19 39 -34 43 -34 16 0 43 -57 57 -121 10 -45 12 -86 7 -139
-9 -89 -18 -113 -64 -163 -28 -31 -52 -43 -123 -66 -129 -41 -228 -63 -277
-64 -97 0 -299 23 -397 46 -121 29 -268 57 -298 57 -11 0 -22 5 -24 10 -2 6
-82 20 -178 30 -221 25 -266 35 -310 73 -38 34 -56 20 -21 -17 24 -26 28 -56
6 -56 -8 0 -15 -4 -15 -9 0 -5 -8 -17 -17 -27 -17 -17 -16 -17 12 -10 17 4 32
12 33 17 5 11 152 12 152 0 0 -4 42 -11 93 -15 51 -3 146 -17 212 -30 66 -14
157 -30 202 -36 45 -6 107 -17 137 -25 30 -8 106 -19 168 -25 62 -6 115 -15
118 -19 11 -18 167 -31 225 -19 30 6 55 15 55 19 0 5 9 9 20 9 10 0 30 5 44
11 42 20 92 3 118 -39 21 -34 23 -48 22 -162 -1 -148 -26 -275 -58 -302 -12
-9 -34 -24 -51 -32 -16 -9 -57 -33 -90 -56 -33 -22 -65 -40 -72 -40 -6 0 -13
-5 -15 -11 -8 -25 -230 -24 -248 2 -5 7 -179 20 -530 38 -125 6 -449 1 -467
-8 -2 0 -3 -6 -3 -12 0 -8 17 -10 56 -6 l57 6 -43 -40 c-23 -22 -41 -42 -38
-44 6 -6 131 57 140 70 11 15 271 12 276 -3 2 -7 14 -12 27 -12 13 0 45 -4 72
-9 40 -8 212 -25 368 -37 22 -1 85 -8 141 -15 89 -11 108 -10 161 4 33 9 63
17 67 17 12 0 -1 -84 -13 -88 -6 -2 -11 -8 -11 -14 0 -6 -9 -29 -19 -52 -11
-23 -31 -66 -44 -98 -14 -31 -36 -63 -49 -71 -12 -8 -75 -28 -138 -43 -63 -15
-117 -31 -120 -35 -3 -4 -30 -11 -60 -14 -55 -6 -140 -35 -235 -80 -27 -13
-70 -31 -95 -41 -25 -10 -47 -21 -50 -24 -7 -10 -68 -37 -120 -54 -78 -24
-127 -28 -161 -11 -44 23 -58 13 -19 -15 32 -23 36 -23 102 -12 37 7 81 12 96
12 l27 0 -25 -20 c-46 -36 -98 -44 -160 -25 -76 24 -185 83 -231 125 -82 76
-152 135 -170 144 -11 5 -19 13 -19 18 0 5 -10 12 -23 17 -14 5 -36 34 -55 69
-25 47 -32 73 -33 121 -1 35 3 67 10 74 6 6 11 17 11 25 0 7 9 32 19 55 27 60
35 136 21 204 -14 64 -76 194 -113 233 -44 47 -59 167 -36 283 7 31 16 57 20
57 5 0 9 5 9 10 0 6 13 38 29 73 75 164 76 192 16 322 -25 55 -49 102 -53 105
-12 8 -32 97 -32 138 0 39 18 114 29 122 10 8 31 59 31 77 0 9 6 24 13 32 8 9
23 40 35 69 18 44 20 60 12 108 -9 56 -71 192 -93 206 -19 12 -14 142 6 163 9
9 17 23 17 30 0 23 48 117 78 153 24 29 41 37 122 56 69 16 117 21 175 19 44
-2 163 -4 265 -4z m7790 -111 c120 -13 177 -16 427 -22 158 -4 220 -10 280
-26 73 -19 123 -42 123 -58 0 -4 13 -21 29 -38 36 -39 81 -169 81 -237 0 -50
-42 -157 -61 -157 -12 0 -56 -100 -64 -143 -7 -37 15 -123 41 -162 8 -11 14
-30 14 -42 0 -13 4 -23 9 -23 10 0 42 -122 43 -166 1 -35 -30 -144 -41 -144
-4 0 -31 -46 -59 -103 -53 -105 -61 -143 -41 -194 6 -15 13 -39 15 -53 2 -14
14 -47 27 -75 47 -97 59 -258 28 -365 -9 -30 -67 -120 -126 -195 -42 -53 -55
-241 -22 -300 9 -16 17 -36 17 -43 0 -7 7 -21 16 -30 22 -21 14 -133 -10 -157
-9 -10 -23 -29 -31 -45 -17 -33 -71 -80 -91 -80 -8 0 -14 -4 -14 -8 0 -5 -21
-23 -47 -40 -27 -16 -61 -44 -77 -61 -17 -17 -36 -31 -43 -31 -8 0 -16 -6 -19
-14 -7 -18 -104 -69 -174 -91 -30 -10 -61 -22 -67 -27 -16 -12 -93 12 -130 41
l-26 21 29 0 c16 -1 56 -7 88 -15 51 -12 63 -12 87 0 37 20 51 41 18 30 -65
-24 -179 -2 -227 42 -7 7 -20 13 -28 13 -16 0 -246 118 -254 131 -8 12 -99 49
-121 49 -19 0 -54 9 -247 66 -89 26 -94 29 -118 71 -14 23 -29 43 -33 43 -4 0
-13 19 -20 42 -7 24 -20 61 -30 83 -22 48 -34 148 -17 141 6 -3 28 -10 49 -17
20 -7 37 -16 37 -21 0 -11 168 -10 172 1 2 5 118 14 258 20 140 7 291 16 335
21 149 18 276 -5 334 -59 52 -49 68 -38 24 16 -27 34 -32 44 -18 38 43 -17 75
-18 75 -1 0 9 -1 16 -2 17 -2 0 -73 6 -158 13 -172 12 -604 13 -805 0 -71 -5
-153 -8 -181 -7 -61 2 -129 32 -176 77 -18 17 -49 41 -68 53 -65 40 -81 65
-97 155 -18 98 -12 277 10 330 26 61 55 65 202 28 119 -30 132 -31 204 -21 42
6 119 13 171 16 52 3 140 12 195 20 91 13 228 31 330 43 22 2 43 8 46 13 9 15
337 29 392 17 26 -5 47 -14 47 -19 0 -5 7 -9 15 -9 23 0 18 12 -17 42 l-32 27
27 29 c37 39 36 58 -3 35 -16 -9 -30 -20 -30 -24 0 -11 -105 -29 -215 -35 -60
-3 -141 -10 -180 -14 -38 -5 -135 -16 -215 -25 -80 -10 -147 -20 -150 -24 -12
-16 -137 -34 -285 -41 -145 -8 -167 -6 -240 12 -44 12 -82 24 -85 28 -5 6
-121 52 -167 65 -35 10 -79 63 -97 117 -21 67 -20 158 3 239 23 81 38 105 72
119 15 7 44 27 65 47 21 19 64 45 95 58 63 25 56 25 529 9 198 -6 322 2 405
26 17 5 53 12 80 15 28 4 66 11 85 16 19 5 71 16 114 24 44 8 82 19 86 25 3 6
48 10 101 11 122 1 137 5 137 34 0 13 13 41 29 62 17 21 33 48 37 61 12 36
-17 27 -52 -17 -37 -45 -109 -86 -172 -95 -71 -11 -234 -48 -240 -56 -7 -8
-75 -27 -130 -35 -25 -3 -90 -15 -145 -27 -103 -21 -96 -21 -503 -3 -51 3
-101 9 -111 15 -11 5 -45 10 -75 10 -100 0 -150 17 -205 69 -42 40 -50 54 -56
96 -3 28 -10 70 -15 95 -19 104 19 257 79 316 20 19 53 45 74 56 20 12 37 25
37 28 0 8 132 85 203 119 26 13 47 26 47 30 0 4 24 18 53 31 28 13 65 32 80
43 16 10 49 21 75 23 26 2 67 10 92 19 47 15 104 14 290 -7z m-5598 -1115 c18
-16 53 -47 78 -71 57 -54 97 -77 134 -73 18 2 26 -1 22 -8 -4 -6 -14 -11 -22
-11 -8 0 -42 -28 -76 -61 -34 -34 -64 -57 -66 -50 -2 6 -9 17 -16 24 -19 20
-104 238 -106 275 0 9 24 -2 52 -25z m3682 -81 c-4 -15 -6 -32 -5 -39 3 -21
-17 -24 -24 -4 -3 11 -12 18 -20 15 -7 -3 -16 -1 -20 5 -4 7 0 8 11 4 13 -5
15 -3 9 8 -7 11 -6 12 6 2 20 -16 39 1 40 37 0 14 3 19 6 12 3 -7 2 -25 -3
-40z m-69 -44 c13 -20 17 -21 25 -8 6 9 10 10 10 3 0 -6 -7 -19 -17 -28 -11
-12 -13 -19 -5 -24 7 -4 5 -11 -8 -19 -11 -6 -21 -8 -25 -2 -3 5 0 12 6 16 9
5 7 11 -6 20 -10 8 -15 17 -11 21 4 4 11 1 16 -7 5 -8 13 -11 17 -6 4 5 2 11
-5 13 -6 3 -10 9 -7 14 4 5 -2 6 -11 2 -11 -4 -15 -2 -11 4 4 6 -4 9 -21 7
l-27 -4 25 9 c37 13 37 13 55 -11z m-91 -10 c-5 -8 2 -9 27 -5 26 5 30 4 19
-4 -11 -8 -12 -12 -2 -16 14 -5 17 -33 3 -33 -5 0 -12 6 -14 13 -4 7 -6 6 -6
-5 -1 -9 -7 -19 -13 -22 -7 -3 -1 -3 14 0 34 7 57 -26 33 -46 -13 -10 -19 -10
-33 4 -10 9 -24 16 -31 16 -9 0 -11 8 -7 25 5 19 3 23 -9 19 -8 -4 -15 -16
-15 -28 -1 -16 -4 -14 -15 13 -19 43 -19 51 3 50 10 0 12 -3 5 -6 -23 -9 -14
-25 10 -17 31 9 34 14 17 25 -13 8 -13 10 0 19 20 13 23 12 14 -2z m-79 -18
c3 -5 1 -10 -4 -10 -6 0 -11 5 -11 10 0 6 2 10 4 10 3 0 8 -4 11 -10z m474
-64 c6 -33 9 -61 7 -63 -2 -2 -11 3 -20 12 -11 11 -16 34 -16 73 0 70 14 59
29 -22z m-491 44 c43 0 45 -71 3 -85 -20 -6 -28 -38 -22 -84 2 -7 -3 -10 -9
-6 -7 4 -10 35 -9 81 2 68 4 74 23 75 17 1 18 2 4 6 -10 2 -18 12 -17 21 0 11
2 12 6 5 2 -7 12 -13 21 -13z m-3699 -63 c-10 -45 -30 -112 -55 -189 -18 -55
-15 -101 4 -55 6 15 13 27 15 27 2 0 14 -33 27 -72 12 -40 26 -75 31 -78 17
-12 42 -198 41 -310 -1 -116 -26 -310 -41 -320 -5 -3 -12 -21 -16 -40 -25
-125 -102 -339 -130 -365 -6 -5 -26 -35 -44 -65 -39 -62 -109 -140 -127 -140
-7 0 -26 -16 -43 -35 -67 -76 -285 -141 -312 -92 -11 19 -80 57 -104 57 -8 0
-15 4 -15 8 0 5 -16 16 -36 25 -19 10 -33 21 -30 26 3 4 30 11 61 15 66 7 241
71 269 98 11 10 32 21 46 25 104 25 201 128 297 313 15 30 30 57 34 60 3 3 11
27 18 54 7 28 20 68 30 90 10 23 29 88 42 144 26 119 21 165 -31 302 -46 119
-65 321 -34 361 18 24 62 132 75 183 10 42 14 47 24 32 9 -12 10 -29 4 -59z
m3656 46 c1 -16 -4 -20 -24 -20 l-25 0 22 17 c12 10 18 21 12 23 -6 3 -5 4 1
3 7 -1 13 -11 14 -23z m-45 7 c-8 -5 -22 -9 -30 -9 -10 0 -8 3 5 9 27 12 43
12 25 0z m-3016 -13 c9 -7 20 -32 23 -55 3 -23 9 -42 13 -42 4 0 18 -28 31
-62 12 -35 35 -84 50 -109 15 -25 30 -55 33 -66 3 -11 14 -28 24 -39 48 -52
78 -103 117 -198 23 -57 52 -114 63 -127 12 -12 25 -39 28 -58 4 -20 17 -56
29 -81 13 -25 31 -68 40 -96 9 -28 27 -63 41 -79 14 -16 39 -56 56 -88 38 -71
195 -239 246 -263 20 -9 48 -27 60 -40 13 -13 45 -34 70 -47 58 -28 128 -73
136 -85 6 -10 -90 -162 -102 -162 -4 0 -13 -15 -21 -33 -8 -17 -25 -45 -39
-61 -13 -17 -34 -53 -47 -82 -12 -28 -32 -57 -42 -65 -11 -8 -37 -45 -58 -84
-20 -38 -46 -82 -56 -96 -10 -15 -23 -38 -29 -53 -5 -14 -13 -26 -18 -26 -8 0
-62 -101 -62 -116 0 -4 -11 -22 -25 -40 -34 -45 -44 -74 -34 -106 5 -19 4 -28
-4 -29 -17 0 -722 -1 -784 0 l-52 1 15 42 c8 23 18 45 22 48 36 27 151 286
152 342 0 9 4 18 10 20 5 2 11 27 14 56 3 30 8 68 11 85 5 33 13 92 21 162 2
22 6 54 9 72 5 36 18 258 17 288 -1 11 -3 119 -5 241 -2 121 -7 225 -11 232
-4 6 -9 35 -12 64 -3 28 -7 55 -9 59 -3 3 9 33 25 66 40 79 46 115 25 133 -24
20 -48 2 -59 -43 -13 -52 -39 -50 -50 4 -15 83 -71 193 -122 244 -51 50 -55
66 -16 63 35 -3 47 5 66 44 20 38 20 84 2 119 -13 25 -11 28 38 67 28 23 59
42 68 42 9 0 18 3 20 8 3 8 50 41 59 41 3 1 13 -5 23 -12z m2966 -1 c0 -2 -9
-6 -20 -9 -11 -3 -18 -1 -14 4 5 9 34 13 34 5z m-72 -40 c-2 -17 -7 -22 -20
-18 -10 2 -18 9 -18 14 0 6 7 8 15 4 9 -3 15 0 15 9 0 8 2 15 5 15 3 0 4 -11
3 -24z m-3407 -57 c19 -28 42 -64 51 -80 18 -29 18 -29 -5 -16 -12 6 -25 17
-29 22 -5 6 -8 4 -8 -4 0 -8 -14 5 -31 28 -24 34 -29 49 -24 72 4 16 8 29 9
29 1 0 18 -23 37 -51z m3689 36 c-7 -9 -15 -13 -17 -11 -7 7 7 26 19 26 6 0 6
-6 -2 -15z m36 -25 c-2 -27 -9 -46 -26 -60 -29 -25 -34 -25 -27 0 3 11 1 23
-4 26 -13 8 -11 34 2 34 6 0 8 -7 5 -16 -3 -8 -2 -12 4 -9 6 3 10 10 10 15 0
8 31 50 36 50 1 0 1 -18 0 -40z m-3073 23 c-25 -3 -33 -9 -33 -24 0 -11 5 -17
10 -14 6 4 8 10 6 14 -3 4 13 8 34 9 30 1 40 -2 40 -13 0 -8 -9 -15 -21 -15
-12 0 -17 4 -13 11 4 7 -2 7 -17 -1 -32 -17 -32 -17 -14 -24 9 -3 13 -2 10 4
-3 6 -2 10 3 10 6 0 9 -11 8 -25 -1 -23 -2 -24 -13 -8 -7 9 -13 13 -13 8 0
-13 -26 26 -34 51 -5 18 -2 20 36 21 33 0 36 -1 11 -4z m2632 -14 c-16 -4 -37
-10 -46 -13 -10 -4 -20 -2 -25 5 -5 8 -2 11 7 7 8 -3 26 0 39 7 13 7 31 10 39
7 11 -4 7 -8 -14 -13z m739 -76 c-17 -24 -24 -30 -19 -15 3 12 4 22 2 22 -17
0 -113 -111 -149 -172 -24 -40 -62 -92 -85 -114 -24 -23 -43 -46 -43 -51 0 -4
-11 -21 -24 -37 l-23 -30 -18 27 c-21 32 -60 37 -68 7 -4 -14 4 -25 29 -41 19
-11 34 -24 34 -27 -1 -20 -33 -99 -45 -108 -14 -10 -55 -136 -83 -254 -23 -98
-22 -558 2 -599 2 -3 7 -42 10 -86 4 -44 9 -91 11 -105 2 -14 7 -45 10 -70 11
-81 38 -215 45 -220 4 -3 9 -14 12 -25 28 -98 118 -274 141 -275 7 0 14 -5 92
-73 28 -24 58 -47 68 -50 9 -4 17 -12 17 -20 0 -16 121 -97 146 -97 38 0 2
-12 -43 -15 -107 -5 -219 41 -258 107 -10 18 -24 39 -31 45 -7 7 -14 18 -16
25 -2 6 -9 8 -15 5 -8 -5 -9 -17 -2 -39 5 -17 7 -33 5 -35 -2 -2 -212 -3 -467
-3 -329 0 -465 3 -470 11 -3 6 -10 61 -14 123 -8 137 -40 367 -60 432 -8 27
-15 59 -15 72 0 12 -4 22 -10 22 -5 0 -18 30 -30 67 -36 116 -102 262 -137
301 -27 29 -29 42 -8 42 8 0 15 4 15 9 0 5 12 12 28 15 15 4 41 13 57 21 17 8
68 32 115 53 47 22 94 47 105 56 28 22 143 108 170 126 12 8 47 44 78 79 31
36 63 69 71 73 9 5 16 14 16 19 0 6 11 25 24 42 13 18 43 70 67 117 23 47 48
90 55 97 7 7 15 27 19 45 12 56 44 116 65 123 11 3 28 17 38 29 10 13 28 26
40 30 12 4 44 25 72 47 27 21 53 39 58 39 5 0 35 29 66 65 56 63 58 64 81 49
32 -21 36 -18 199 139 l81 78 8 -30 c6 -24 2 -37 -19 -68z m-3263 69 c-13 -2
-27 0 -32 5 -6 6 3 7 23 4 28 -4 29 -6 9 -9z m2631 7 c35 -19 17 -28 -43 -24
-62 4 -95 15 -45 15 15 0 25 3 23 8 -7 11 45 12 65 1z m-152 -22 c14 0 19 -2
13 -4 -7 -3 -13 -13 -13 -23 0 -16 10 -21 50 -26 31 -4 54 -13 59 -23 8 -14 2
-16 -43 -17 -28 -1 -39 0 -23 3 51 8 27 23 -38 23 -53 0 -66 3 -75 19 -5 11
-22 22 -38 24 -22 3 -20 4 8 4 73 0 78 2 50 19 l-25 15 25 -8 c14 -4 36 -7 50
-6z m-2486 -6 c4 -5 -3 -7 -14 -4 -23 6 -26 13 -6 13 8 0 17 -4 20 -9z m219
-16 c18 3 25 2 17 -1 -8 -4 -18 -12 -22 -17 -8 -13 -38 9 -37 27 0 7 2 7 5 -1
4 -8 18 -10 37 -8z m-133 -5 c0 -5 7 -7 15 -4 8 4 22 1 30 -6 12 -10 15 -10
15 1 0 9 3 10 11 2 19 -19 1 -33 -27 -23 -13 5 -47 10 -74 11 -69 3 -68 22 1
27 16 1 29 -2 29 -8z m240 -6 c0 -2 -13 -4 -30 -4 -16 0 -30 4 -30 8 0 5 14 7
30 4 17 -2 30 -6 30 -8z m2197 10 c-3 -3 -12 -4 -19 -1 -8 3 -5 6 6 6 11 1 17
-2 13 -5z m-197 -14 c-8 -5 -22 -10 -30 -10 -13 0 -13 1 0 10 8 5 22 10 30 10
13 0 13 -1 0 -10z m-1912 -15 c2 -2 -13 -5 -32 -7 -19 -2 -32 0 -30 4 3 4 -10
6 -28 3 -28 -4 -29 -3 -8 4 21 7 88 4 98 -4z m1982 4 c12 -8 9 -9 -12 -5 -15
3 -30 2 -33 -4 -3 -5 1 -10 10 -10 9 0 23 -7 31 -15 13 -13 10 -14 -30 -13
-40 2 -43 4 -34 21 8 17 7 18 -14 13 -16 -4 -14 -2 7 9 36 17 55 18 75 4z
m1003 -44 c32 -46 37 -61 36 -107 0 -29 -4 -74 -10 -100 -5 -27 -13 -67 -17
-90 -5 -24 -20 -67 -34 -95 -15 -29 -32 -75 -39 -103 -7 -27 -16 -50 -21 -50
-4 0 -8 45 -8 100 0 60 4 100 10 100 6 0 10 17 10 38 0 49 33 213 38 187 2
-11 9 -24 14 -30 7 -7 9 8 4 48 -8 72 -10 81 -17 87 -9 8 -19 70 -11 70 4 -1
24 -25 45 -55z m-3203 35 c0 -5 -4 -10 -10 -10 -5 0 -10 5 -10 10 0 6 5 10 10
10 6 0 10 -4 10 -10z m73 3 c-7 -2 -21 -2 -30 0 -10 3 -4 5 12 5 17 0 24 -2
18 -5z m2000 0 c-7 -2 -13 -11 -13 -19 0 -16 3 -15 -71 -18 -46 -1 -54 1 -43
11 16 17 41 17 48 1 5 -10 7 -10 12 0 3 6 12 12 20 12 8 0 14 5 14 10 0 6 10
10 23 9 12 0 16 -3 10 -6z m624 -19 c7 -19 -14 -60 -36 -68 -66 -24 -71 -25
-61 -6 5 10 17 20 25 24 9 3 14 10 10 15 -3 5 4 12 15 16 11 3 20 13 20 21 0
19 19 18 27 -2z m-3697 -9 c0 -8 -4 -15 -10 -15 -5 0 -10 7 -10 15 0 8 5 15
10 15 6 0 10 -7 10 -15z m727 3 c6 14 53 17 53 2 0 -5 -12 -12 -27 -16 -45 -9
-50 -12 -23 -14 18 0 32 -13 53 -47 26 -43 29 -45 46 -29 16 14 19 15 24 2 3
-8 3 -23 1 -33 -3 -11 1 -35 9 -54 9 -20 16 -27 16 -16 1 24 37 22 44 -3 4
-17 2 -18 -14 -9 -15 8 -21 6 -26 -6 -5 -13 -7 -14 -14 -3 -6 10 -12 9 -24 -7
-14 -19 -15 -19 -8 -1 4 13 3 17 -5 12 -6 -3 -14 -1 -18 5 -4 8 -3 9 4 5 7 -4
12 -4 12 1 0 12 -16 35 -26 36 -11 2 -5 31 7 35 5 2 6 8 3 14 -4 6 -12 1 -19
-12 -10 -19 -13 -20 -18 -6 -4 10 -3 15 2 12 5 -3 12 1 15 10 5 12 2 15 -9 10
-9 -3 -14 -2 -11 2 2 4 1 14 -5 22 -7 13 -9 12 -9 -2 0 -10 -4 -18 -10 -18
-12 0 -13 37 -1 42 5 2 3 9 -5 16 -12 11 -14 10 -14 -3 0 -9 -5 -13 -10 -10
-6 4 -8 10 -5 15 3 4 -2 13 -10 20 -7 6 -11 18 -8 27 5 12 7 12 15 1 7 -10 11
-10 15 0z m327 0 c5 -10 7 -10 12 0 3 6 14 12 24 12 10 0 21 -6 23 -12 4 -10
8 -9 17 2 9 12 12 13 17 1 5 -11 7 -11 14 0 8 12 11 11 19 -1 9 -13 11 -13 19
0 6 8 13 11 18 7 20 -21 -36 -26 -189 -18 -10 1 -18 6 -18 11 0 14 37 12 44
-2z m276 2 c0 -5 16 -10 35 -10 21 0 35 5 35 13 0 9 3 8 9 -2 7 -11 9 -11 13
0 3 8 5 2 5 -13 0 -16 -3 -28 -8 -28 -5 0 -9 6 -9 13 0 9 -25 12 -92 12 -51 0
-81 1 -65 3 15 2 27 8 27 13 0 5 11 9 25 9 14 0 25 -4 25 -10z m1754 -6 c3 -8
2 -12 -4 -9 -6 3 -10 10 -10 16 0 14 7 11 14 -7z m-3094 -24 c12 0 20 -8 22
-22 2 -13 9 -23 16 -23 6 0 11 -4 10 -10 -2 -5 -6 -9 -10 -8 -3 1 -9 -4 -12
-12 -4 -12 0 -14 19 -11 22 4 24 2 15 -14 -5 -10 -7 -27 -3 -37 3 -10 3 -15
-2 -11 -4 4 -14 3 -21 -3 -10 -8 -11 -5 -7 13 3 13 11 29 17 37 8 12 8 13 -2
7 -7 -4 -18 -18 -23 -30 -7 -16 -8 -10 -4 22 4 37 2 44 -19 53 -17 8 -23 19
-23 42 0 18 2 26 5 20 2 -7 12 -13 22 -13z m1520 16 c0 -3 -4 -8 -10 -11 -5
-3 -10 -1 -10 4 0 6 5 11 10 11 6 0 10 -2 10 -4z m-710 -18 c0 -7 3 -24 6 -38
6 -24 6 -25 -9 -5 -18 22 -22 55 -7 55 6 0 10 -6 10 -12z m74 -3 c3 -8 1 -15
-4 -15 -6 0 -10 7 -10 15 0 8 2 15 4 15 2 0 6 -7 10 -15z m896 1 c239 -19 270
-20 547 -18 l242 1 -10 -27 c-19 -50 -82 -172 -99 -190 -9 -9 -28 -43 -43 -75
-25 -55 -27 -57 -59 -50 -18 3 -38 10 -45 15 -20 16 -235 22 -290 9 -74 -18
-134 -52 -162 -93 -14 -21 -31 -37 -36 -38 -6 0 -39 60 -75 133 -35 72 -68
133 -72 135 -6 3 -108 199 -108 209 0 5 24 4 210 -11z m1791 3 c-16 -6 -28 -6
-35 1 -7 7 1 10 25 9 32 0 33 -1 10 -10z m-771 -14 c-10 -12 -10 -15 3 -15 8
0 18 -6 20 -12 4 -10 8 -9 17 2 9 12 13 12 17 2 4 -10 10 -10 28 2 16 10 32
12 51 7 l29 -8 -38 -7 c-21 -4 -45 -16 -54 -26 -15 -17 -19 -17 -37 -4 -24 16
-40 19 -31 4 3 -5 1 -10 -4 -10 -6 0 -11 6 -11 14 0 11 -10 14 -37 11 -32 -4
-34 -3 -13 4 24 9 24 9 -8 10 -22 1 -35 -4 -39 -16 -5 -14 -8 -13 -14 5 -5 12
-14 22 -21 22 -10 0 -10 -2 -1 -8 9 -6 7 -11 -7 -20 -12 -7 -20 -8 -20 -2 0 5
6 10 13 11 9 0 9 2 0 6 -22 8 9 28 47 29 19 1 27 -1 18 -3 -34 -9 -17 -18 35
-19 28 -1 46 1 39 3 -10 4 -10 8 -1 19 6 8 16 14 21 14 6 0 5 -7 -2 -15z m-43
-1 c-3 -3 -12 -4 -19 -1 -8 3 -5 6 6 6 11 1 17 -2 13 -5z m113 -3 c0 -4 -11
-6 -25 -3 -14 2 -25 6 -25 8 0 2 11 4 25 4 14 0 25 -4 25 -9z m-1325 -12 c3
-5 0 -6 -8 -3 -21 8 -30 -12 -14 -28 12 -11 12 -16 -1 -28 -14 -13 -15 -12 -8
5 5 14 4 17 -4 9 -7 -7 -7 -18 -1 -35 7 -18 10 -20 10 -6 1 14 8 18 33 15 17
-2 33 -10 35 -18 4 -13 3 -13 -6 0 -10 13 -11 13 -11 0 0 -13 -1 -13 -10 0 -5
8 -10 10 -10 4 0 -7 -10 -18 -23 -27 -21 -14 -23 -13 -25 7 0 11 -10 28 -22
38 -29 23 -27 52 4 46 18 -4 23 -1 21 11 -3 18 30 27 40 10z m1958 5 c9 -10
-4 -34 -19 -34 -8 0 -14 9 -14 20 0 19 19 27 33 14z m-3346 -47 c24 -15 46
-35 51 -43 4 -8 33 -40 64 -72 44 -45 98 -131 98 -155 0 -3 8 -22 17 -43 9
-22 18 -52 19 -69 5 -56 47 -220 58 -227 8 -6 6 -11 -4 -18 -10 -6 -11 -10 -2
-10 8 0 12 -21 12 -69 0 -46 -4 -71 -12 -75 -10 -5 -10 -7 1 -12 11 -5 11 -8
0 -15 -11 -7 -11 -11 -2 -17 25 -16 32 -67 31 -239 0 -194 -12 -316 -29 -322
-8 -2 -7 -6 2 -12 10 -6 11 -9 2 -9 -7 0 -13 -7 -13 -15 0 -8 6 -15 13 -15 9
0 9 -2 -1 -8 -7 -5 -14 -22 -17 -38 -8 -56 -34 -199 -44 -244 -15 -71 -18 -83
-35 -122 -9 -21 -15 -41 -14 -45 3 -11 -41 -93 -58 -110 -7 -8 -16 -29 -20
-48 -6 -34 -29 -59 -94 -105 -19 -13 -43 -31 -52 -40 -30 -27 -191 -95 -253
-106 -122 -22 -204 -22 -277 2 -24 7 -11 31 20 37 64 11 182 66 182 84 0 6 24
25 53 41 28 17 70 48 93 69 23 21 49 43 60 49 22 13 99 102 93 108 -9 9 -111
-63 -177 -124 -71 -66 -99 -82 -147 -85 -16 -1 -55 -12 -85 -24 -40 -15 -87
-23 -170 -27 -68 -4 -118 -11 -122 -18 -6 -8 -8 -8 -8 0 0 8 -36 13 -109 16
l-109 3 -53 49 c-57 53 -120 148 -150 231 -11 27 -19 53 -19 56 0 4 17 3 38
-2 58 -13 170 -17 252 -9 164 16 380 73 410 109 3 3 31 19 63 36 32 16 72 44
89 62 18 18 36 33 41 33 4 0 39 29 76 65 37 36 77 72 89 81 12 8 32 34 43 56
11 22 34 59 50 81 16 22 29 46 29 53 0 7 6 19 14 26 33 33 89 182 111 294 21
109 25 280 10 419 -21 193 -87 447 -122 468 -7 4 -13 13 -13 20 0 7 -9 30 -21
51 -11 22 -15 34 -7 30 7 -5 32 -21 55 -37z m3416 -21 c-3 -17 -15 -39 -27
-48 -24 -20 -51 -24 -40 -7 4 7 1 10 -7 7 -8 -3 -14 -11 -14 -19 -1 -22 -15
-39 -33 -39 -14 1 -14 3 3 13 12 7 19 20 17 30 -2 9 1 17 6 17 5 0 8 10 8 22
-1 17 7 24 29 30 26 6 25 7 -7 3 -21 -2 -38 -2 -38 1 0 10 67 30 87 26 19 -4
21 -9 16 -36z m-613 24 c0 -5 -7 -10 -15 -10 -8 0 -15 5 -15 10 0 6 7 10 15
10 8 0 15 -4 15 -10z m643 -20 c-10 -11 -19 -20 -21 -20 -1 0 2 9 8 20 6 11
15 20 20 20 6 0 2 -9 -7 -20z m528 -1 c-17 -16 -21 -28 -17 -52 4 -23 3 -26
-2 -12 -8 17 -9 16 -15 -10 -3 -17 -4 -43 -1 -60 l4 -30 -11 31 c-8 22 -8 42
1 73 10 38 40 81 57 81 4 0 -3 -9 -16 -21z m-1307 -16 c-10 -46 -13 -53 -24
-53 -14 0 -13 27 2 32 7 3 8 9 3 18 -6 10 -10 8 -16 -8 -10 -26 -56 -31 -65
-7 -4 8 -10 15 -16 15 -5 0 -16 -7 -24 -15 -9 -8 -26 -15 -39 -15 -13 0 -27
-5 -31 -11 -3 -6 -15 -9 -25 -6 -11 3 -19 1 -19 -3 0 -5 10 -10 22 -12 17 -2
23 -10 24 -34 1 -26 -2 -31 -16 -27 -11 3 -24 -4 -33 -17 -12 -17 -15 -18 -20
-5 -11 28 -22 16 -23 -25 -1 -36 0 -38 12 -23 12 16 15 16 24 3 16 -24 12 -30
-23 -30 -24 0 -35 -6 -42 -22 -6 -12 -21 -25 -35 -28 -18 -5 -24 -12 -22 -26
2 -14 1 -16 -7 -5 -11 16 3 71 21 83 7 4 19 6 26 3 9 -3 10 0 3 13 -5 10 -5
25 0 37 9 20 9 20 6 0 -2 -11 2 -26 10 -34 12 -10 13 -8 8 16 -5 21 -4 24 4
13 9 -13 11 -13 11 2 0 9 -4 20 -10 23 -12 7 -14 26 -2 22 4 -1 8 3 10 8 2 6
15 16 30 24 16 8 22 16 15 18 -18 6 -16 30 2 37 8 3 15 12 15 21 0 8 7 15 15
15 20 0 19 -10 -2 -26 -16 -12 -16 -13 -2 -14 19 0 31 23 23 45 -5 12 -2 13
16 7 13 -5 44 -5 69 -2 25 4 61 6 79 5 17 -2 32 1 32 6 0 5 5 9 10 9 6 0 8
-12 4 -27z m-2741 -12 c3 -14 1 -18 -9 -14 -15 6 -18 16 -7 26 9 10 10 9 16
-12z m1394 -3 c-3 -8 -6 -5 -6 6 -1 11 2 17 5 13 3 -3 4 -12 1 -19z m-40 -23
c0 -8 -4 -15 -9 -15 -10 0 -11 14 -1 23 9 10 10 9 10 -8z m170 -20 c6 -14 7
-25 3 -25 -5 0 -12 9 -15 20 -5 15 -12 19 -31 14 -14 -4 -24 -2 -24 5 0 6 12
11 28 11 19 0 30 -7 39 -25z m-1514 -8 c19 -23 21 -33 7 -42 -6 -3 -7 1 -4 12
5 17 5 17 -6 0 -13 -20 -4 -40 13 -31 7 4 6 1 -2 -7 -10 -11 -15 -11 -18 -1
-3 6 -9 10 -13 7 -5 -3 -5 9 1 27 5 18 9 34 9 35 0 1 -9 0 -20 -2 -12 -2 -20
2 -20 9 0 20 33 15 53 -7z m3277 3 c0 -9 -14 -14 -32 -11 -5 0 -8 -3 -8 -9 0
-5 -7 -7 -15 -4 -30 12 -16 34 20 34 19 0 35 -4 35 -10z m64 -9 c-20 -16 -20
-19 -5 -29 11 -8 8 -8 -13 0 l-28 12 22 18 c12 10 27 18 34 18 6 -1 1 -9 -10
-19z m-2357 -7 c-3 -3 -12 -4 -19 -1 -8 3 -5 6 6 6 11 1 17 -2 13 -5z m-1017
-14 c0 -5 -2 -10 -4 -10 -3 0 -8 5 -11 10 -3 6 -1 10 4 10 6 0 11 -4 11 -10z
m3851 -23 l-24 -22 19 27 c10 14 21 24 23 22 3 -3 -6 -15 -18 -27z m-2831 13
c0 -5 -4 -10 -9 -10 -6 0 -13 5 -16 10 -3 6 1 10 9 10 9 0 16 -4 16 -10z m527
-4 c-4 -10 -1 -13 8 -10 8 3 19 -4 26 -18 6 -13 17 -26 23 -30 8 -6 6 -11 -4
-17 -11 -8 -9 -12 13 -20 15 -6 27 -15 27 -20 0 -17 -21 -24 -33 -12 -9 9 -8
11 6 6 10 -4 17 -2 17 4 0 6 -7 11 -15 11 -9 0 -27 7 -41 16 -13 9 -27 14 -31
10 -3 -3 -1 -6 5 -6 16 0 15 -17 -1 -23 -10 -4 -12 10 -11 57 2 68 2 66 10 66
3 0 4 -7 1 -14z m1770 -2 c0 -16 -50 -47 -60 -38 -3 3 -3 -3 0 -14 4 -19 6
-18 29 5 13 13 29 21 34 18 9 -6 14 7 11 27 0 4 6 5 14 2 13 -5 13 -8 0 -20
-8 -8 -17 -15 -20 -14 -3 0 -22 -16 -42 -35 -20 -19 -39 -32 -42 -29 -3 3 0 8
6 12 8 5 9 13 3 22 -14 21 -12 41 3 39 25 -3 37 1 37 15 0 8 6 17 13 19 6 3
12 6 13 6 0 1 1 -6 1 -15z m618 6 c3 -5 -2 -10 -12 -10 -15 0 -16 -2 -3 -10 8
-5 11 -12 7 -17 -11 -10 -27 17 -20 34 6 15 19 17 28 3z m-3104 -19 c11 6 25
8 32 5 7 -2 5 -5 -4 -5 -19 -1 -33 -28 -19 -36 6 -4 10 -14 9 -23 0 -12 -3
-11 -9 6 -5 12 -16 25 -25 28 -8 4 -15 14 -14 23 0 10 2 11 6 4 3 -10 10 -10
24 -2z m3187 -15 c-2 -13 2 -20 10 -18 10 2 10 -2 3 -17 -6 -10 -8 -21 -5 -24
3 -3 1 -8 -5 -11 -6 -4 -8 2 -6 15 3 13 1 27 -4 33 -17 22 -19 43 -5 43 9 0
14 -8 12 -21z m-3058 -1 c0 -8 6 -15 13 -16 10 0 10 -2 0 -6 -7 -2 -13 -11
-13 -19 0 -9 -4 -13 -9 -10 -17 11 -31 -22 -27 -58 2 -20 1 -34 -4 -31 -5 3
-6 13 -3 23 3 9 2 14 -2 9 -14 -12 -45 24 -45 54 0 62 23 78 40 27 l10 -33 -5
34 -5 33 26 -17 c25 -16 25 -16 14 4 -7 14 -7 21 0 21 5 0 10 -7 10 -15z m-90
-5 c0 -5 -4 -10 -10 -10 -5 0 -10 5 -10 10 0 6 5 10 10 10 6 0 10 -4 10 -10z
m3035 -10 c3 -5 1 -10 -4 -10 -6 0 -11 5 -11 10 0 6 2 10 4 10 3 0 8 -4 11
-10z m95 -42 c0 -16 5 -28 10 -28 6 0 10 -5 10 -11 0 -8 -4 -9 -13 0 -8 6 -16
9 -19 6 -3 -3 -4 15 -4 39 1 47 16 41 16 -6z m-3960 22 c0 -5 -4 -10 -10 -10
-5 0 -10 5 -10 10 0 6 5 10 10 10 6 0 10 -4 10 -10z m3790 -14 c0 -2 -7 -9
-15 -16 -13 -11 -14 -10 -9 4 5 14 24 23 24 12z m68 -21 c-3 -3 -9 2 -12 12
-6 14 -5 15 5 6 7 -7 10 -15 7 -18z m-3858 -16 c0 -16 4 -28 9 -25 5 4 7 -3 4
-14 -3 -11 -9 -18 -13 -15 -11 7 -18 85 -8 85 5 0 8 -14 8 -31z m1552 -14 c3
-14 1 -25 -3 -25 -5 0 -9 8 -10 18 0 15 -1 14 -8 -2 -7 -19 -8 -19 -13 1 -6
24 -1 33 18 33 6 0 14 -11 16 -25z m-632 8 c0 -10 -20 -40 -20 -31 0 3 -3 13
-6 22 -4 11 -1 16 10 16 9 0 16 -3 16 -7z m120 -8 c0 -8 5 -15 10 -15 6 0 13
7 16 15 8 19 24 20 24 0 0 -7 -8 -18 -17 -23 -13 -8 -17 -26 -18 -87 -1 -73 1
-77 25 -89 26 -14 50 -11 50 5 0 5 -11 9 -24 9 -14 0 -28 5 -32 11 -5 9 3 10
30 5 20 -4 36 -3 36 2 0 5 24 9 53 8 44 -1 52 -4 49 -18 -3 -19 4 -21 51 -18
23 1 27 -2 27 -24 0 -21 -5 -26 -25 -26 -23 0 -35 22 -17 33 4 2 1 2 -6 1 -7
-2 -28 5 -46 16 -19 10 -37 16 -40 13 -3 -4 -6 -1 -6 6 0 22 -24 6 -31 -20 -3
-13 -12 -23 -20 -21 -7 2 -19 -5 -26 -14 -11 -16 -13 -16 -13 -2 0 9 -9 20
-20 23 -11 3 -20 11 -20 16 0 6 -4 7 -10 4 -6 -4 -10 12 -10 39 0 47 -8 53
-57 47 -7 -1 -13 5 -13 14 0 18 -16 20 -23 3 -3 -8 -6 -6 -6 5 -1 9 4 17 10
17 5 0 7 5 4 10 -3 6 2 13 12 17 10 4 21 11 25 17 5 8 11 7 20 -2 9 -9 9 -12
-5 -12 -9 0 -17 -5 -17 -11 0 -6 7 -8 16 -5 14 5 15 4 4 -9 -10 -12 -9 -15 5
-15 10 0 24 -8 31 -17 13 -17 13 -17 14 0 0 9 -5 17 -11 17 -6 0 -9 9 -6 20 3
11 -1 27 -9 34 -18 19 -18 36 1 36 8 0 15 -7 15 -15z m1950 -5 c-9 -16 -13
-18 -24 -8 -15 14 -4 28 22 28 10 0 10 -5 2 -20z m66 -5 c2 -25 2 -25 -16 -6
-9 12 -21 17 -25 13 -5 -4 -5 -1 -1 6 13 22 41 14 42 -13z m30 -1 c-4 -10 2
-14 19 -14 14 0 25 4 25 10 0 5 -7 7 -15 4 -8 -4 -15 -2 -15 4 0 12 47 25 61
17 14 -10 2 -23 -41 -44 -38 -18 -38 -18 -44 3 -9 33 -7 48 5 41 6 -4 8 -13 5
-21z m748 -27 c-6 -57 -21 -126 -23 -104 0 9 -6 17 -13 17 -7 0 -6 6 4 18 8 9
18 29 22 44 5 23 4 26 -11 21 -17 -6 -17 -5 0 15 11 12 16 26 11 33 -4 7 -3
10 4 5 6 -4 9 -24 6 -49z m-934 6 c0 -6 -6 -18 -13 -25 -8 -7 -16 -20 -20 -28
-3 -8 -6 9 -6 38 -1 50 0 52 19 40 11 -7 20 -18 20 -25z m-1295 17 c-3 -5 -1
-10 5 -10 6 0 10 -8 8 -17 -2 -9 -7 -15 -12 -14 -5 2 -12 -3 -17 -10 -4 -8
-11 -10 -16 -6 -9 9 17 28 29 21 4 -3 8 -1 8 5 0 16 -18 22 -23 9 -2 -7 -8
-10 -12 -5 -5 4 0 14 11 22 23 17 27 18 19 5z m2354 1 c0 -3 -4 -15 -8 -26 -5
-11 -4 -25 1 -32 7 -9 7 -17 -1 -26 -6 -8 -8 -17 -4 -20 3 -4 -1 -7 -11 -7
-13 0 -15 6 -11 28 15 66 16 77 7 63 -7 -10 -11 -10 -17 -1 -4 7 -2 15 4 19
14 9 41 10 40 2z m-2858 -35 c-17 -20 -2 -46 28 -47 14 0 20 -3 13 -6 -22 -9
-60 6 -67 27 -8 24 1 40 22 40 12 0 13 -3 4 -14z m2653 -1 c-4 -8 -10 -15 -15
-15 -4 0 -6 7 -3 15 4 8 10 15 15 15 4 0 6 -7 3 -15z m-3760 -11 c3 -9 7 -39
8 -67 l1 -52 4 45 c5 65 12 92 23 85 6 -3 10 -18 9 -33 l-1 -27 -8 25 c-6 19
-8 12 -8 -30 0 -30 2 -50 5 -43 3 10 7 10 18 0 9 -9 10 -14 1 -19 -8 -6 -7
-11 4 -18 10 -6 11 -10 3 -10 -7 0 -13 -9 -13 -21 0 -11 -5 -29 -10 -40 -7
-13 -7 -19 0 -19 5 0 10 5 10 10 0 6 5 10 10 10 17 0 11 -27 -8 -32 -15 -4
-18 -15 -17 -62 0 -48 -2 -54 -12 -39 -12 15 -13 15 -13 1 0 -9 -4 -19 -8 -22
-5 -3 -6 9 -4 25 3 21 9 29 18 25 17 -6 17 -1 3 26 -9 16 -8 19 2 13 7 -5 10
-4 5 3 -10 17 -36 3 -29 -16 5 -13 3 -14 -7 -5 -10 9 -9 15 2 32 8 12 18 18
21 14 4 -3 7 -2 7 4 0 6 -7 13 -15 17 -8 3 -15 11 -14 18 0 10 2 10 6 1 8 -21
43 4 43 30 0 24 -20 62 -20 39 0 -7 -4 -10 -10 -7 -5 3 -10 35 -10 71 0 36 -4
64 -10 64 -5 0 -10 5 -10 10 0 16 17 12 24 -6z m2160 1 c37 -7 68 -14 69 -16
2 -2 8 -12 15 -21 11 -14 10 -23 -7 -56 -11 -22 -26 -46 -34 -53 -7 -8 -21
-30 -30 -49 -10 -19 -26 -48 -36 -65 -10 -16 -28 -48 -41 -70 -12 -22 -35 -53
-51 -70 -16 -16 -35 -38 -42 -48 -12 -18 -15 -17 -46 20 -73 86 -83 100 -118
158 -64 108 -71 121 -78 154 -6 29 -3 36 39 76 30 28 59 45 79 48 64 9 216 4
281 -8z m896 -4 c5 7 12 11 15 7 4 -3 -4 -18 -16 -32 -17 -19 -26 -23 -40 -16
-11 7 -27 6 -45 0 -15 -6 -29 -9 -31 -6 -3 2 5 7 16 11 28 9 27 25 -1 25 -19
0 -20 2 -8 10 20 13 63 13 55 0 -9 -15 12 -12 27 4 11 12 14 12 17 -1 2 -13 5
-13 11 -2z m-1497 -11 c-3 -12 -8 -19 -11 -16 -5 6 5 36 12 36 2 0 2 -9 -1
-20z m84 14 c-3 -4 -2 -15 4 -25 5 -11 6 -19 1 -19 -6 0 -12 9 -15 19 -5 19 0
31 11 31 3 0 2 -3 -1 -6z m688 -60 c-5 -7 -14 -9 -20 -6 -5 3 -4 7 3 10 7 2
10 14 6 30 l-6 27 14 -25 c10 -17 11 -28 3 -36z m1340 24 c-3 -18 -10 -67 -15
-108 -5 -41 -14 -102 -19 -135 -9 -64 -8 -347 2 -430 4 -27 9 -92 12 -143 4
-61 14 -115 30 -161 14 -38 25 -76 25 -85 0 -9 7 -19 15 -22 8 -4 15 -11 15
-16 0 -9 22 -55 63 -132 9 -17 34 -50 56 -75 49 -56 146 -182 159 -208 6 -10
35 -45 66 -78 31 -32 56 -64 56 -71 0 -6 16 -19 35 -28 19 -9 47 -27 62 -39
15 -13 54 -31 86 -41 44 -13 60 -23 67 -42 6 -13 20 -28 32 -33 20 -7 16 -10
-30 -25 -28 -10 -56 -15 -60 -12 -5 3 -22 2 -38 -3 -17 -5 -39 -4 -54 2 -14 5
-58 11 -97 13 -54 2 -80 7 -102 23 -16 12 -34 21 -40 21 -6 0 -11 4 -11 10 0
5 -36 35 -80 66 -63 44 -80 61 -80 81 0 14 -19 47 -45 80 -25 30 -45 61 -45
68 0 7 -7 15 -15 19 -28 10 -94 188 -126 341 -7 33 -18 63 -23 67 -7 5 -5 8 4
8 10 0 11 3 4 8 -25 16 -83 541 -62 568 4 6 10 39 13 74 7 89 36 224 49 232 8
5 7 8 -2 8 -10 0 -10 4 2 16 9 8 16 23 16 32 0 8 8 34 19 56 10 23 27 60 37
83 23 51 27 53 19 11z m-2055 15 c-1 -19 -30 -45 -45 -40 -8 4 -27 2 -42 -4
-22 -8 -24 -8 -14 5 7 9 16 15 19 14 32 -4 62 4 62 17 0 8 5 15 10 15 6 0 10
-3 10 -7z m2127 -15 c-3 -8 -6 -5 -6 6 -1 11 2 17 5 13 3 -3 4 -12 1 -19z
m-2753 -23 c22 -9 36 -22 36 -33 -1 -16 -1 -16 -14 1 -7 9 -20 17 -28 17 -9 0
-21 7 -28 15 -16 19 -11 19 34 0z m656 -7 c0 -5 4 -7 9 -3 5 3 13 0 17 -6 4
-7 3 -9 -4 -5 -5 3 -12 1 -14 -5 -2 -7 -12 0 -21 14 -14 22 -14 25 -2 21 8 -4
15 -10 15 -16z m880 -3 c0 -21 -5 -25 -30 -25 -31 0 -39 17 -18 38 22 22 48
14 48 -13z m486 13 c4 -7 3 -8 -4 -4 -7 4 -12 1 -12 -9 0 -8 -8 -19 -17 -22
-10 -4 -21 -11 -26 -17 -4 -6 -6 -1 -4 12 3 20 32 51 49 52 4 0 10 -5 14 -12z
m-2946 -8 c0 -5 -4 -10 -10 -10 -5 0 -10 5 -10 10 0 6 5 10 10 10 6 0 10 -4
10 -10z m1083 3 c-7 -2 -19 -2 -25 0 -7 3 -2 5 12 5 14 0 19 -2 13 -5z m2747
-8 c0 -8 -4 -15 -10 -15 -5 0 -10 7 -10 15 0 8 5 15 10 15 6 0 10 -7 10 -15z
m-2277 -7 c3 -8 -5 -14 -20 -14 -22 -2 -23 -1 -6 12 22 17 20 16 26 2z m723
-15 c-10 -10 -19 5 -10 18 6 11 8 11 12 0 2 -7 1 -15 -2 -18z m574 -5 c0 -5
-5 -8 -11 -8 -5 0 -7 5 -3 12 4 7 3 8 -4 4 -7 -4 -12 -14 -12 -21 0 -11 6 -12
26 -5 16 7 23 7 19 0 -3 -6 -11 -10 -16 -10 -6 0 -19 -10 -30 -22 -10 -13 -18
-17 -19 -10 0 6 5 12 11 12 6 0 7 5 2 13 -16 25 -14 55 4 59 17 4 33 -8 33
-24z m827 10 c-3 -8 -6 -5 -6 6 -1 11 2 17 5 13 3 -3 4 -12 1 -19z m-2607 8
c0 -2 -7 -6 -15 -10 -8 -3 -15 -1 -15 4 0 6 7 10 15 10 8 0 15 -2 15 -4z m430
-6 c0 -5 -4 -10 -10 -10 -5 0 -10 5 -10 10 0 6 5 10 10 10 6 0 10 -4 10 -10z
m2377 -132 c-2 -29 -3 -8 -3 47 0 55 1 79 3 53 2 -26 2 -71 0 -100z m-1207 34
c0 -28 25 -5 33 31 5 20 13 37 19 37 5 0 7 -4 4 -9 -4 -5 3 -7 14 -4 17 4 20
0 20 -25 0 -28 -4 -32 -37 -38 -33 -6 -35 -8 -18 -20 10 -8 14 -14 8 -14 -7 0
-15 5 -18 10 -3 6 -11 10 -17 10 -6 0 -8 -3 -5 -7 4 -3 -2 -12 -13 -20 -12 -9
-17 -20 -13 -31 3 -9 2 -14 -2 -9 -5 4 -10 47 -12 95 l-3 87 20 -39 c11 -22
20 -46 20 -54z m94 80 c6 -10 -30 -9 -40 1 -4 4 2 7 14 7 11 0 23 -4 26 -8z
m981 -32 c0 -16 -3 -30 -7 -30 -4 0 -6 14 -6 30 1 17 4 30 7 30 4 0 7 -13 6
-30z m-2125 10 c0 -5 -5 -10 -11 -10 -5 0 -7 5 -4 10 3 6 8 10 11 10 2 0 4 -4
4 -10z m574 -21 c-3 -6 4 -7 20 -3 22 5 26 3 26 -17 0 -19 2 -21 10 -9 6 9 10
10 10 3 0 -6 -5 -15 -10 -18 -6 -4 -7 -11 -4 -17 4 -6 2 -8 -3 -5 -6 4 -14 0
-17 -8 -3 -8 -11 -14 -18 -13 -8 2 -12 -5 -10 -15 3 -20 -18 -19 -35 3 -6 8
-15 11 -19 7 -5 -4 -2 -13 6 -18 12 -9 12 -10 -3 -5 -10 3 -24 6 -30 6 -7 0
-4 7 5 14 10 7 24 28 32 47 14 32 15 32 17 9 1 -14 1 -33 1 -43 -1 -10 3 -15
8 -12 6 3 10 15 10 25 0 10 5 22 10 25 6 3 10 11 10 18 0 6 -7 2 -15 -9 -14
-17 -15 -18 -9 0 4 11 1 22 -7 27 -11 7 -11 9 -1 9 7 0 10 5 6 12 -4 7 -3 8 5
4 6 -4 9 -12 5 -17z m1476 17 c0 -2 -7 -7 -16 -10 -8 -3 -12 -2 -9 4 6 10 25
14 25 6z m-2043 -25 c8 7 13 8 11 3 -4 -14 24 -84 34 -84 4 0 13 -10 19 -22
11 -21 11 -22 -4 -10 -9 8 -25 11 -37 7 -11 -4 -20 -2 -20 4 0 6 -7 8 -15 5
-8 -4 -15 -1 -15 5 0 6 5 11 10 11 6 0 10 8 10 18 0 13 -2 14 -9 3 -5 -8 -8 2
-7 28 0 23 2 37 4 31 3 -8 8 -7 19 1z m-1676 -16 l9 20 -3 -20 c-2 -22 -21
-24 -23 -3 0 7 1 6 4 -2 4 -12 7 -11 13 5z m1174 5 c11 -19 14 -50 4 -50 -6 0
-7 -4 -4 -10 3 -5 11 -10 17 -10 6 0 8 3 5 7 -4 3 -1 13 6 21 10 13 9 14 -2 7
-10 -5 -12 -4 -7 3 11 17 29 15 22 -3 -3 -8 -1 -15 4 -15 6 0 10 -5 10 -11 0
-5 -4 -8 -9 -4 -5 3 -13 0 -17 -6 -4 -8 -3 -9 4 -5 8 5 10 2 6 -8 -6 -16 -9
-14 -49 22 -8 7 -27 19 -42 27 -17 9 -22 15 -12 15 9 0 19 7 23 15 6 17 32 20
41 5z m2705 -35 c0 -8 -4 -15 -10 -15 -5 0 -10 7 -10 15 0 8 5 15 10 15 6 0
10 -7 10 -15z m-1070 1 c0 -2 -7 -6 -15 -10 -8 -3 -15 -1 -15 4 0 6 7 10 15
10 8 0 15 -2 15 -4z m-1537 -47 c19 -1 20 -2 3 -6 -15 -4 -16 -7 -5 -14 9 -6
4 -7 -16 -3 -39 9 -40 10 -24 30 8 10 15 12 17 5 2 -6 13 -12 25 -12z m2601
-11 c8 -5 7 -8 -1 -8 -7 0 -13 -5 -13 -11 0 -6 7 -9 15 -5 11 4 15 -2 15 -20
0 -22 -2 -23 -20 -14 -15 8 -20 20 -19 53 0 23 3 35 6 27 3 -8 11 -18 17 -22z
m161 -25 c4 -32 18 -92 31 -133 13 -41 28 -96 33 -121 13 -58 48 -141 65 -154
7 -6 27 -38 44 -71 38 -75 135 -174 171 -174 6 0 11 -4 11 -9 0 -11 189 -103
260 -126 30 -10 57 -21 60 -25 3 -3 32 -11 65 -18 33 -6 103 -23 155 -37 52
-14 104 -25 115 -24 11 1 31 1 45 0 22 -1 23 -3 9 -14 -9 -7 -26 -32 -39 -57
-12 -25 -32 -58 -44 -75 -11 -16 -28 -45 -37 -64 -13 -26 -27 -38 -56 -46 -70
-21 -263 -2 -263 26 0 4 -10 11 -22 15 -21 6 -107 60 -118 74 -3 3 -21 17 -40
30 -19 14 -52 42 -72 62 -21 21 -54 48 -75 61 -39 25 -59 45 -78 77 -5 10 -25
44 -42 74 -18 31 -33 63 -33 71 0 8 -4 15 -9 15 -27 0 -116 353 -133 528 -7
67 -16 122 -20 122 -4 0 -8 11 -8 25 0 48 19 24 25 -32z m-1670 15 l30 -4 -28
-14 c-31 -15 -32 -14 -41 20 -4 14 -4 20 1 13 4 -6 22 -13 38 -15z m1333 -10
c3 -37 -2 -35 -12 5 -3 15 -3 27 2 27 4 0 9 -14 10 -32z m96 16 c3 -9 6 -23 6
-32 0 -22 -19 -2 -25 26 -4 25 10 30 19 6z m-3678 -16 c0 -10 -1 -18 -3 -18
-1 0 -7 8 -12 18 -7 13 -6 19 2 19 7 0 13 -9 13 -19z m-66 2 c0 -5 -4 -10 -10
-10 -5 0 -10 5 -10 10 0 6 5 10 10 10 6 0 10 -4 10 -10z m1291 -10 c16 0 29
-5 29 -11 0 -7 -12 -9 -36 -4 -24 4 -34 3 -29 -4 3 -6 15 -11 25 -11 11 0 24
-9 30 -19 15 -30 11 -38 -8 -16 -16 19 -47 37 -82 48 -9 4 -6 6 8 6 14 1 22 8
23 19 0 10 3 12 6 5 2 -7 18 -13 34 -13z m99 10 c0 -11 -50 -11 -95 0 -24 6
-17 8 33 9 35 0 62 -3 62 -9z m158 -7 c5 -18 -37 -16 -68 2 -24 15 -24 15 19
13 25 -2 46 -9 49 -15z m553 3 c-8 -9 -8 -16 -2 -20 6 -4 9 -26 8 -50 -2 -42
-3 -44 -36 -37 -2 1 4 13 13 27 10 14 15 33 13 42 -3 13 -7 10 -15 -10 -6 -16
-17 -28 -24 -28 -9 0 -10 3 -2 8 6 4 15 18 19 32 8 26 24 50 32 50 3 0 0 -6
-6 -14z m406 8 c-3 -3 -12 -4 -19 -1 -8 3 -5 6 6 6 11 1 17 -2 13 -5z m58 -4
c-3 -5 4 -11 17 -11 20 -1 21 -2 3 -6 -11 -3 -26 -10 -34 -17 -12 -9 -13 -8
-8 7 3 9 2 17 -3 17 -6 0 -10 -9 -10 -21 0 -12 -5 -19 -12 -16 -7 2 -12 10
-10 16 2 13 -5 13 -33 1 -18 -7 -18 -8 8 -15 33 -9 34 -17 2 -32 -14 -6 -25
-7 -25 -3 0 5 6 11 13 13 9 4 8 8 -3 16 -23 17 -50 13 -50 -6 0 -15 -2 -16
-10 -3 -8 12 -10 10 -10 -9 0 -16 -4 -21 -15 -17 -22 8 -43 -3 -40 -22 4 -24
-13 -42 -32 -35 -11 4 -14 2 -9 -5 5 -8 1 -10 -10 -5 -13 5 -14 8 -5 11 11 4
11 6 0 14 -11 8 -12 11 -1 15 21 8 62 49 62 62 0 10 14 15 34 12 4 -1 15 4 23
11 9 7 27 11 41 10 13 -2 22 0 18 6 -3 5 5 7 17 5 12 -2 33 0 47 6 33 13 43
13 35 1z m42 4 c-3 -3 -12 -4 -19 -1 -8 3 -5 6 6 6 11 1 17 -2 13 -5z m1250
-16 c-3 -8 -6 -5 -6 6 -1 11 2 17 5 13 3 -3 4 -12 1 -19z m-2197 -7 c0 -5 -7
-11 -15 -15 -21 -8 -19 -36 3 -36 12 0 8 -6 -13 -19 -25 -15 -34 -17 -49 -7
-25 16 -28 62 -4 63 13 1 18 -5 18 -22 0 -13 5 -27 12 -31 8 -5 9 -2 5 10 -4
9 0 28 9 42 16 24 34 32 34 15z m63 -64 c-2 -4 -9 -5 -14 -2 -12 8 -11 2 7
-45 9 -22 21 -40 28 -40 6 0 4 -5 -4 -11 -12 -8 -9 -9 13 -5 23 6 27 3 26 -16
-1 -15 -3 -18 -6 -7 -3 11 -11 15 -24 12 -27 -7 -24 -20 7 -27 17 -5 24 -12
20 -21 -3 -8 -1 -15 4 -15 6 0 10 -5 10 -11 0 -8 -4 -8 -15 1 -8 6 -13 17 -12
23 1 6 -16 15 -38 20 -45 11 -73 32 -52 40 9 4 8 8 -3 16 -13 9 -13 11 3 11 9
0 17 7 17 15 0 7 -8 19 -17 25 -15 9 -14 10 5 4 21 -5 23 -3 17 16 -4 12 -4
38 0 58 l8 37 12 -35 c7 -19 10 -38 8 -43z m-293 53 c0 -5 -4 -10 -10 -10 -5
0 -10 5 -10 10 0 6 5 10 10 10 6 0 10 -4 10 -10z m-1370 -10 c0 -5 -4 -10 -9
-10 -6 0 -13 5 -16 10 -3 6 1 10 9 10 9 0 16 -4 16 -10z m3578 -31 c-3 -20 -5
-19 -9 9 -3 20 -2 29 4 23 5 -5 7 -19 5 -32z m-2274 1 c13 0 31 -9 41 -20 10
-11 22 -17 27 -14 6 4 5 9 -2 14 -9 5 -9 9 -1 14 6 4 11 2 11 -3 0 -6 5 -11
11 -11 5 0 7 4 4 10 -4 7 2 7 18 1 14 -6 27 -8 29 -5 9 9 5 -32 -5 -43 -6 -9
-6 -13 2 -13 6 0 11 -7 11 -15 0 -12 -3 -12 -18 3 -11 9 -17 20 -16 23 6 12
-25 31 -37 23 -8 -5 -7 -9 5 -16 9 -5 16 -14 16 -20 0 -6 -8 -4 -18 5 -10 10
-21 14 -25 11 -3 -3 -14 -1 -24 6 -16 9 -15 10 7 5 19 -5 22 -4 10 4 -8 6 -25
11 -37 11 -13 0 -23 6 -23 13 0 9 -2 9 -9 -1 -5 -9 -8 -2 -8 20 0 18 2 25 4
16 3 -11 14 -18 27 -18z m-1310 -15 c-10 -8 -14 -15 -7 -15 14 0 15 -70 1 -70
-6 0 -8 11 -6 25 3 14 1 25 -3 25 -14 0 -10 38 4 43 25 11 30 7 11 -8z m3696
-24 c0 -20 -2 -23 -10 -11 -9 13 -10 13 -10 0 0 -9 4 -20 9 -25 6 -6 3 -16 -6
-24 -14 -13 -15 -9 -11 37 3 33 1 49 -5 45 -6 -3 -7 -1 -3 5 12 19 36 1 36
-27z m80 24 c0 -8 -4 -15 -10 -15 -5 0 -10 7 -10 15 0 8 5 15 10 15 6 0 10 -7
10 -15z m46 0 c-3 -8 0 -15 6 -15 6 0 9 -2 6 -5 -3 -3 -13 -3 -22 1 -21 8 -21
34 0 34 10 0 14 -6 10 -15z m-1569 -1 c-3 -3 -12 -4 -19 -1 -8 3 -5 6 6 6 11
1 17 -2 13 -5z m133 -4 c-8 -5 -19 -10 -25 -10 -5 0 -3 5 5 10 8 5 20 10 25
10 6 0 3 -5 -5 -10z m-352 -52 c11 16 12 15 9 -3 -4 -29 -39 -26 -49 5 -5 18
-6 13 -3 -15 4 -35 3 -37 -7 -17 -6 12 -15 22 -21 22 -5 0 -4 -6 2 -14 6 -8
11 -18 10 -22 -1 -5 -1 -18 0 -29 2 -20 2 -20 16 -1 15 19 15 19 15 -1 0 -22
-39 -40 -41 -20 -1 7 -2 19 -3 27 0 8 -12 17 -26 21 -24 7 -24 7 -2 8 12 1 22
6 22 12 0 5 -5 7 -12 3 -6 -4 4 12 23 35 l34 43 10 -36 c9 -32 12 -34 23 -18z
m300 31 c-19 -12 -25 -11 -25 5 0 8 8 11 20 8 14 -4 16 -7 5 -13z m-2429 -43
c-12 -41 -14 -40 -15 9 -1 33 2 40 11 32 8 -8 10 -21 4 -41z m1787 22 l17 -33
-22 19 c-11 11 -21 25 -21 33 0 21 8 15 26 -19z m-1826 12 c0 -5 -2 -10 -4
-10 -3 0 -8 5 -11 10 -3 6 -1 10 4 10 6 0 11 -4 11 -10z m3717 -12 c-3 -8 -6
-5 -6 6 -1 11 2 17 5 13 3 -3 4 -12 1 -19z m186 15 c-16 -6 -17 -29 -3 -36 6
-3 5 -4 -2 -3 -7 1 -14 12 -16 24 -3 16 2 22 15 21 10 0 13 -3 6 -6z m65 -45
c1 -33 -1 -38 -8 -23 -5 12 -9 14 -9 6 -1 -8 -3 -12 -6 -9 -7 7 6 68 14 68 4
0 8 -19 9 -42z m-3953 13 c3 -5 1 -12 -5 -16 -5 -3 -10 1 -10 9 0 18 6 21 15
7z m1651 -12 c19 2 44 -11 39 -20 -4 -5 -2 -9 4 -9 5 0 12 5 14 10 3 6 4 5 3
-2 -3 -16 -39 -19 -58 -6 -10 7 -9 8 5 4 9 -3 17 -1 17 5 0 7 -12 9 -29 7 -24
-3 -27 -1 -23 15 3 12 7 15 12 7 4 -6 11 -11 16 -11z m-1691 1 c3 -5 1 -10 -4
-10 -6 0 -11 5 -11 10 0 6 2 10 4 10 3 0 8 -4 11 -10z m148 -21 c7 -1 15 -1
20 0 11 2 8 -11 -9 -44 -9 -16 -17 -39 -19 -50 -1 -11 -3 -24 -4 -28 0 -5 -5
-5 -11 -2 -5 3 -10 1 -10 -4 0 -6 4 -11 9 -11 13 0 7 -63 -7 -68 -7 -2 -12
-10 -12 -18 0 -10 5 -12 13 -8 8 5 8 2 -2 -9 -17 -21 -43 -23 -35 -3 3 8 0 23
-6 33 -10 16 -11 16 -7 -4 3 -15 1 -20 -8 -17 -10 4 -10 12 -2 35 6 16 15 29
19 29 4 0 8 6 8 14 0 8 6 17 13 19 9 4 8 8 -3 16 -10 7 -11 11 -2 11 6 0 13 8
13 18 1 16 2 16 6 -1 2 -9 9 -15 14 -12 5 4 5 15 -2 27 -8 15 -8 19 0 14 6 -4
11 0 11 8 0 9 5 16 10 16 6 0 10 7 10 16 0 8 -4 13 -9 10 -9 -6 -22 17 -20 37
1 7 3 4 6 -5 2 -10 10 -19 16 -19z m3882 -14 c-1 -24 2 -42 6 -39 5 3 6 -2 3
-11 -10 -24 -17 -10 -19 37 -3 38 1 58 9 58 1 0 1 -20 1 -45z m-1680 28 c-11
-3 -24 -9 -30 -13 -5 -4 -22 -10 -37 -14 -16 -3 -28 -11 -28 -16 0 -6 -9 -10
-20 -10 -11 0 -20 7 -20 16 0 11 -6 13 -19 9 -11 -3 -22 -2 -25 3 -6 10 10 13
82 14 29 1 48 4 42 8 -5 3 10 6 33 7 23 0 33 -2 22 -4z m-2345 -33 c0 -11 5
-20 11 -20 6 0 8 9 4 21 -5 15 -4 19 4 15 15 -9 14 -46 -1 -46 -6 0 -9 -3 -5
-6 3 -3 1 -19 -5 -34 -7 -20 -14 -27 -26 -23 -14 4 -15 3 -2 -5 10 -8 18 -8
27 0 14 11 19 -3 6 -16 -8 -8 -9 -12 -12 -40 0 -8 -12 -17 -26 -20 -14 -4 -25
-11 -25 -17 0 -6 9 -8 23 -3 l22 6 -24 -25 c-12 -14 -20 -30 -17 -36 4 -6 1
-9 -7 -5 -16 6 -42 -47 -34 -70 6 -16 -38 -86 -54 -86 -6 0 -9 -7 -6 -14 4
-10 1 -13 -9 -9 -18 7 -18 6 6 50 18 33 20 35 20 13 0 -23 0 -23 14 -4 12 16
12 22 1 34 -15 17 -2 66 15 55 10 -6 23 32 19 56 -3 22 13 79 22 79 5 0 9 -4
9 -10 0 -5 5 -10 10 -10 6 0 10 9 10 21 0 11 -4 18 -8 15 -5 -3 -9 1 -9 8 0 8
7 12 16 9 11 -3 10 0 -3 11 -11 9 -14 16 -7 16 7 0 10 4 6 9 -3 5 0 13 6 16 5
4 8 13 5 21 -3 8 0 11 10 7 17 -6 17 -3 4 31 -6 17 -6 26 0 26 6 0 10 -9 10
-20z m3717 -12 c-3 -7 -5 -2 -5 12 0 14 2 19 5 13 2 -7 2 -19 0 -25z m98 22
c3 -5 1 -10 -4 -10 -6 0 -11 5 -11 10 0 6 2 10 4 10 3 0 8 -4 11 -10z m45 -27
c0 -20 -24 -11 -28 10 -2 12 1 15 12 11 9 -3 16 -13 16 -21z m-1764 2 c-3 -8
-1 -15 4 -15 6 0 10 -8 9 -17 0 -11 -3 -13 -6 -5 -7 18 -31 15 -36 -5 -3 -10
-4 -6 -4 10 1 15 7 27 14 27 7 0 13 5 13 10 0 6 3 10 6 10 3 0 4 -7 0 -15z
m101 -11 c-3 -3 -12 -4 -19 -1 -8 3 -5 6 6 6 11 1 17 -2 13 -5z m1810 -26 c14
-25 17 -42 12 -73 -4 -22 -5 -49 -2 -59 5 -18 6 -18 15 -2 5 9 6 26 3 37 -5
15 -4 19 5 14 12 -7 10 -33 -5 -69 -7 -16 -6 -17 13 -7 25 13 43 14 22 1 -13
-8 -12 -11 5 -24 11 -8 17 -17 13 -21 -3 -3 -15 4 -27 16 -22 23 -25 22 -15
-5 3 -9 12 -16 20 -16 8 0 14 -5 14 -11 0 -5 4 -7 10 -4 5 3 7 0 4 -9 -6 -15
-34 -11 -34 5 0 5 -4 9 -9 9 -5 0 -6 -15 -2 -32 11 -48 11 -47 11 -58 0 -5 6
-10 14 -10 9 0 12 -7 9 -20 -4 -14 0 -20 11 -20 9 0 13 6 10 13 -3 8 1 14 9
14 9 0 12 -7 9 -20 -4 -14 -2 -18 7 -12 8 4 7 -5 -4 -25 -9 -17 -14 -34 -11
-38 3 -3 6 0 6 6 0 7 4 12 9 12 5 0 9 -16 8 -35 -1 -39 -12 -46 -22 -15 -3 11
-11 20 -16 20 -14 0 -11 26 6 40 8 7 15 16 15 21 0 14 -24 6 -32 -11 -5 -12
-7 -11 -7 3 -1 23 -28 51 -36 38 -9 -16 6 -61 21 -61 8 0 14 -7 14 -15 0 -26
-30 -16 -40 13 -6 15 -15 35 -21 46 -7 13 -7 16 0 11 11 -6 16 9 11 30 -2 6
-2 18 -2 27 0 9 -6 19 -15 22 -13 5 -15 1 -10 -26 9 -50 -8 -4 -25 70 -8 34
-11 65 -6 68 4 3 7 24 6 47 l-1 42 -7 -45 c-7 -43 -7 -43 -8 -9 -1 19 -8 41
-14 48 -11 10 -8 11 15 7 25 -4 27 -2 27 29 0 19 -4 37 -10 40 -12 8 -13 35
-1 35 5 0 18 -15 28 -32z m-277 2 c0 -5 -2 -10 -4 -10 -3 0 -8 5 -11 10 -3 6
-1 10 4 10 6 0 11 -4 11 -10z m125 0 c3 -5 1 -10 -4 -10 -6 0 -11 5 -11 10 0
6 2 10 4 10 3 0 8 -4 11 -10z m114 -27 c0 -25 -1 -26 -9 -8 -12 27 -12 35 0
35 6 0 10 -12 9 -27z m-2054 7 c3 -5 1 -10 -4 -10 -6 0 -11 5 -11 10 0 6 2 10
4 10 3 0 8 -4 11 -10z m1811 -62 c3 -31 2 -58 -3 -61 -4 -3 -9 24 -10 60 -1
77 5 78 13 1z m125 -21 c-11 -30 -19 0 -13 48 l5 40 8 -34 c4 -19 4 -43 0 -54z
m-26 4 c5 -15 -9 -71 -17 -71 -2 0 -3 20 -3 45 -1 46 9 59 20 26z m49 -25 c-3
-14 -10 -24 -14 -21 -11 7 -21 -22 -14 -39 6 -17 -12 -31 -21 -16 -11 19 6 69
26 75 10 4 19 14 19 22 0 9 2 14 5 11 4 -3 3 -17 -1 -32z m-137 -48 c-3 -8 -6
-5 -6 6 -1 11 2 17 5 13 3 -3 4 -12 1 -19z m133 2 c0 -5 -2 -10 -4 -10 -3 0
-8 5 -11 10 -3 6 -1 10 4 10 6 0 11 -4 11 -10z m-3779 -31 c8 0 4 -5 -8 -11
-13 -6 -23 -15 -23 -20 0 -5 6 -6 13 -2 7 5 7 1 -3 -12 -8 -10 -16 -21 -17
-23 -2 -2 -1 11 1 30 2 19 -1 43 -6 54 -11 19 -10 19 9 3 11 -10 26 -18 34
-19z m3790 -6 c-6 -10 -11 -13 -11 -8 0 6 -4 3 -10 -5 -5 -8 -12 -11 -17 -7
-4 5 3 17 17 27 29 22 36 19 21 -7z m-3980 -6 c-10 -9 -11 -8 -5 6 3 10 9 15
12 12 3 -3 0 -11 -7 -18z m3919 -12 c0 -5 -5 -3 -10 5 -5 8 -10 20 -10 25 0 6
5 3 10 -5 5 -8 10 -19 10 -25z m-3778 -27 c4 -36 2 -45 -8 -41 -9 3 -11 15 -7
34 3 17 1 29 -5 29 -5 0 -8 -9 -5 -20 3 -12 0 -20 -6 -20 -7 0 -9 -5 -6 -10 8
-13 -3 -50 -15 -50 -13 0 -20 29 -8 36 7 4 8 3 4 -4 -4 -7 -3 -12 3 -12 5 0 9
12 9 28 -1 37 11 74 23 67 5 -4 9 -1 9 6 0 28 8 1 12 -43z m3698 31 c0 -6 -4
-7 -10 -4 -5 3 -10 11 -10 16 0 6 5 7 10 4 6 -3 10 -11 10 -16z m145 -19 c3
-5 2 -10 -4 -10 -5 0 -12 -12 -14 -27 -3 -23 -4 -21 -6 10 -1 35 11 49 24 27z
m-37 -45 c-3 -24 -2 -42 3 -39 12 7 22 -42 16 -75 -5 -23 -2 -30 13 -34 35 -9
61 3 54 25 -4 13 -2 18 4 14 5 -3 12 -15 15 -26 4 -16 0 -20 -19 -20 -13 0
-24 -4 -24 -10 0 -5 4 -10 8 -10 11 0 46 -71 43 -87 -1 -7 7 -13 19 -13 11 0
20 -7 20 -15 0 -8 -9 -15 -21 -15 -11 0 -18 -4 -15 -9 3 -5 19 -7 36 -6 16 1
28 0 26 -4 -8 -13 14 -52 25 -45 7 4 9 3 5 -4 -3 -6 2 -15 11 -21 10 -5 14
-13 10 -17 -4 -5 -19 5 -32 21 -13 17 -24 24 -25 17 0 -7 -4 -11 -9 -7 -6 3
-6 -7 0 -27 11 -40 -4 -60 -22 -27 -7 13 -19 29 -28 36 -9 7 -11 13 -5 13 6 0
16 10 22 23 6 12 11 17 11 10 1 -7 8 -10 16 -7 23 9 18 24 -7 20 -13 -1 -28 4
-35 13 -7 10 -12 11 -13 4 0 -6 5 -15 10 -18 15 -9 12 -22 -6 -29 -8 -3 -12
-2 -9 4 11 17 -5 48 -27 53 -17 5 -19 11 -14 32 4 17 3 24 -3 20 -7 -4 -8 1
-4 11 5 13 3 15 -7 9 -9 -5 -11 -4 -6 4 4 6 12 9 17 6 5 -4 9 -1 9 5 0 7 7 10
15 6 8 -3 15 -4 15 -2 0 8 -58 64 -72 69 -12 4 -18 17 -18 36 0 17 -9 55 -21
85 -21 58 -19 76 8 76 13 0 15 -9 11 -45z m59 3 c-3 -7 -5 -2 -5 12 0 14 2 19
5 13 2 -7 2 -19 0 -25z m-160 -3 c0 -8 -4 -15 -9 -15 -10 0 -11 14 -1 23 9 10
10 9 10 -8z m373 -30 c0 -5 -5 -3 -10 5 -5 8 -10 20 -10 25 0 6 5 3 10 -5 5
-8 10 -19 10 -25z m-4101 -31 c-6 -16 -13 -23 -16 -16 -8 21 -21 13 -28 -19
-5 -24 -10 -28 -19 -19 -8 10 -8 14 2 17 6 3 9 9 6 14 -3 6 -17 -3 -30 -18
l-25 -28 12 27 c7 15 21 30 32 34 14 4 16 8 7 14 -9 5 -9 9 -1 14 6 4 11 3 11
-2 0 -5 9 -12 20 -15 15 -4 22 1 27 21 3 15 8 22 10 16 2 -6 -2 -24 -8 -40z
m3881 27 c0 -6 -4 -13 -10 -16 -5 -3 -10 1 -10 9 0 9 5 16 10 16 6 0 10 -4 10
-9z m30 -11 c0 -5 -4 -10 -10 -10 -5 0 -10 5 -10 10 0 6 5 10 10 10 6 0 10 -4
10 -10z m-187 -45 c-3 -9 -8 -14 -10 -11 -3 3 -2 9 2 15 9 16 15 13 8 -4z m42
-63 c-3 -8 -1 -20 5 -27 8 -9 6 -14 -4 -18 -10 -4 -13 -1 -9 9 4 10 0 12 -11
8 -21 -8 -20 5 2 22 13 11 13 13 2 11 -8 -2 -12 -2 -7 0 4 3 7 17 8 31 l0 27
10 -24 c5 -14 7 -31 4 -39z m-3962 40 c-16 -10 -22 -47 -8 -48 6 0 9 9 8 20
-3 20 -2 20 6 1 11 -27 -24 -79 -50 -72 -10 3 -23 -1 -30 -9 -6 -8 -8 -14 -5
-14 4 0 4 -6 -1 -12 -4 -7 -8 -19 -9 -26 -2 -8 -6 -17 -9 -20 -4 -4 -5 2 -3
12 1 10 -3 21 -11 24 -10 3 -11 -2 -6 -19 5 -19 4 -21 -4 -9 -10 13 -12 13
-20 0 -12 -17 -4 -33 12 -24 7 3 -1 -6 -17 -20 -24 -19 -34 -23 -49 -15 -10 6
-22 7 -25 3 -4 -4 -1 -9 6 -11 10 -4 8 -9 -7 -20 -30 -21 -61 -25 -61 -8 0 8
6 12 14 9 8 -3 23 -1 33 5 14 8 10 10 -22 7 -22 -2 -49 -7 -60 -10 -11 -4 -3
2 17 13 20 12 40 25 43 31 3 5 12 10 18 10 7 0 3 -7 -7 -15 -15 -12 -16 -15
-5 -15 9 0 19 3 23 8 4 4 21 7 37 7 29 0 42 17 17 23 -9 2 -8 0 2 -7 18 -13 1
-14 -19 -2 -12 8 -9 11 12 16 29 8 35 20 15 29 -8 3 -8 5 2 3 20 -2 81 44 73
56 -3 6 -1 7 5 3 7 -4 12 -1 12 8 0 9 5 16 12 16 6 0 8 3 5 6 -4 4 1 14 11 23
10 9 21 24 25 34 3 9 12 17 19 17 10 0 10 -2 1 -8z m24 -24 c-3 -8 -6 -5 -6 6
-1 11 2 17 5 13 3 -3 4 -12 1 -19z m109 -6 c10 -15 8 -18 -7 -19 -13 -1 -19 5
-19 18 0 24 12 25 26 1z m-6 -45 c0 -5 -10 -5 -22 -2 -13 4 -18 3 -11 -2 8 -6
0 -24 -25 -63 -20 -30 -42 -59 -49 -63 -8 -5 -11 -12 -8 -17 3 -4 -4 -6 -15
-3 -11 3 -20 10 -20 15 0 6 -12 3 -27 -6 l-28 -17 24 21 c17 14 27 18 35 10 5
-5 15 -10 21 -10 5 0 4 4 -4 9 -10 7 -11 13 -1 31 9 17 15 19 23 11 9 -9 8
-14 -3 -21 -9 -6 -10 -10 -3 -10 7 0 17 9 23 20 9 17 7 20 -16 26 l-26 7 27
17 c15 10 26 20 25 24 -1 4 0 10 3 14 2 4 2 2 1 -5 -2 -6 6 -11 17 -10 23 2
24 5 3 28 -25 27 -8 40 26 21 17 -9 30 -21 30 -25z m4210 23 c0 -5 -4 -10 -10
-10 -5 0 -10 5 -10 10 0 6 5 10 10 10 6 0 10 -4 10 -10z m-260 -41 c0 -4 -6
-9 -14 -12 -10 -4 -12 0 -8 15 3 14 1 19 -6 14 -13 -8 -16 6 -5 18 7 7 33 -20
33 -35z m60 16 c0 -8 11 -25 25 -39 14 -14 21 -27 16 -30 -10 -7 -23 7 -45 51
-18 37 -20 47 -6 38 6 -3 10 -12 10 -20z m118 12 c9 13 27 -5 27 -26 0 -23 19
-23 45 -1 26 22 35 26 24 9 -3 -6 0 -15 7 -20 7 -4 10 -11 6 -16 -5 -4 -12 -1
-18 7 -8 13 -10 13 -18 1 -5 -8 -18 -12 -30 -8 -12 3 -23 2 -26 -3 -7 -12 43
-18 54 -7 6 6 14 7 18 2 5 -4 2 -10 -4 -12 -7 -3 -13 -9 -13 -15 0 -6 7 -7 16
-4 13 5 14 1 9 -27 -4 -17 -4 -29 0 -25 4 3 6 8 4 10 -1 2 3 13 10 26 7 14 8
22 1 22 -5 0 -10 4 -10 8 0 5 7 9 15 9 8 0 12 -4 9 -9 -3 -4 2 -11 10 -14 9
-3 16 -12 16 -19 0 -7 4 -15 8 -17 4 -1 21 -20 36 -40 16 -21 32 -35 37 -32 5
3 5 -5 0 -18 -4 -13 -6 -28 -4 -34 5 -14 -27 -28 -38 -17 -4 4 -5 20 -2 35 4
19 9 25 21 20 14 -5 15 -4 2 9 -8 9 -19 16 -25 16 -19 0 -68 37 -55 41 7 3 16
-2 21 -9 4 -7 12 -10 16 -5 4 4 -1 15 -13 25 -11 9 -23 23 -27 31 -3 10 -6 8
-6 -7 -1 -12 -6 -25 -12 -28 -7 -5 -5 -13 6 -25 10 -11 12 -20 6 -24 -5 -4
-12 3 -16 14 -4 11 -11 18 -16 15 -5 -4 -10 -1 -10 4 -5 37 -20 61 -51 77 -16
8 -26 19 -23 24 3 5 -1 12 -8 17 -8 4 -20 19 -27 33 -12 23 -12 24 4 11 12
-10 20 -11 24 -4z m-267 -55 c-7 -2 -18 1 -23 6 -8 8 -4 9 13 5 13 -4 18 -8
10 -11z m14 -33 c4 -11 4 -23 1 -26 -3 -4 -6 2 -7 13 0 18 -1 18 -8 -1 -7 -17
-8 -17 -13 8 -6 33 17 38 27 6z m330 -79 c4 -11 10 -18 15 -15 4 3 11 -2 14
-10 4 -11 14 -14 33 -10 25 5 24 4 -6 -10 -42 -19 -45 -19 -37 1 5 14 4 15 -9
4 -10 -9 -15 -9 -16 -1 -1 6 -3 16 -4 21 -1 6 -3 17 -4 26 0 9 -6 12 -13 8 -6
-4 -8 -3 -5 3 4 6 0 16 -8 23 -8 7 -15 17 -15 23 0 15 47 -39 55 -63z m-309
28 c3 -4 -1 -5 -10 -4 -8 1 -18 5 -22 8 -3 4 1 5 10 4 8 -1 18 -5 22 -8z
m-5194 -36 c-4 -11 -1 -13 9 -7 8 5 11 4 6 0 -4 -5 -14 -10 -22 -11 -16 -2
-19 14 -9 41 5 12 9 14 14 4 5 -7 6 -19 2 -27z m128 -4 c0 -6 -6 -5 -15 2 -8
7 -15 14 -15 16 0 2 7 1 15 -2 8 -4 15 -11 15 -16z m1010 1 c0 -5 5 -7 12 -3
7 4 8 3 4 -4 -4 -6 -13 -9 -21 -5 -17 6 -20 23 -5 23 6 0 10 -5 10 -11z m-954
-14 c16 -8 22 -15 13 -15 -8 0 -24 7 -35 15 -25 19 -14 19 22 0z m886 -3 c-13
-10 -20 -21 -16 -25 14 -14 32 -7 38 16 5 18 8 19 16 7 12 -20 -2 -33 -39 -36
-33 -2 -37 20 -6 42 28 21 34 17 7 -4z m4147 4 c9 -10 8 -15 -2 -19 -8 -3 -13
3 -14 14 -2 23 1 24 16 5z m-5049 -32 c0 -2 -9 0 -20 6 -11 6 -20 13 -20 16 0
2 9 0 20 -6 11 -6 20 -13 20 -16z m91 8 c-7 -2 -18 1 -23 6 -8 8 -4 9 13 5 13
-4 18 -8 10 -11z m554 9 c-3 -6 1 -16 8 -23 15 -13 9 -23 -28 -44 -13 -7 -25
-7 -42 0 -26 12 -30 26 -8 26 8 0 15 -4 15 -10 0 -5 7 -10 15 -10 8 0 15 5 15
10 0 6 8 10 18 11 10 0 12 3 4 6 -6 2 -10 9 -6 14 3 5 -1 9 -8 9 -9 0 -9 3 2
10 19 12 23 12 15 1z m-785 -23 c0 -6 6 -5 15 2 12 10 18 10 30 0 11 -9 12
-15 5 -20 -6 -4 -8 -14 -5 -22 7 -18 45 -32 45 -17 0 5 14 2 31 -6 17 -9 28
-19 25 -23 -4 -3 -12 0 -18 6 -7 7 -19 12 -27 12 -14 -1 -14 -2 0 -13 13 -10
14 -15 4 -24 -15 -14 -50 -11 -51 5 -1 7 -2 18 -3 25 -2 19 -38 60 -43 48 -1
-6 -11 3 -20 19 -13 23 -13 28 -2 23 8 -3 14 -10 14 -15z m310 -23 c0 -19 5
-24 21 -22 12 1 24 -4 26 -10 6 -18 -35 -17 -53 1 -8 8 -14 24 -14 35 0 15 -4
19 -17 14 -11 -4 -12 -8 -5 -11 15 -5 16 -32 2 -32 -6 0 -13 7 -16 15 -4 8
-15 15 -25 15 -10 0 -19 5 -19 11 0 5 5 7 11 4 16 -10 61 4 53 16 -4 7 1 7 15
0 13 -7 21 -21 21 -36z m520 10 c0 -5 -5 -3 -10 5 -5 8 -10 20 -10 25 0 6 5 3
10 -5 5 -8 10 -19 10 -25z m4524 20 c3 -8 1 -15 -4 -15 -6 0 -10 7 -10 15 0 8
2 15 4 15 2 0 6 -7 10 -15z m216 -20 c-9 -11 -8 -19 4 -36 9 -13 13 -32 10
-45 -4 -17 1 -27 20 -39 14 -10 23 -21 20 -26 -3 -6 -21 10 -40 33 -35 45 -45
70 -19 48 14 -11 14 -9 0 16 -8 16 -15 35 -15 42 0 15 -16 16 -26 0 -4 -6 1
-17 11 -24 10 -8 15 -17 11 -21 -8 -9 -36 24 -36 43 0 6 7 17 16 25 13 10 17
10 24 -1 7 -12 10 -11 16 5 5 12 9 14 12 7 2 -7 -1 -19 -8 -27z m-5380 15 c11
-7 12 -10 2 -10 -23 0 10 -26 51 -39 20 -7 37 -16 37 -21 0 -5 -22 0 -50 12
-46 19 -52 24 -49 44 0 4 -5 11 -13 15 -7 5 -8 9 -3 9 6 0 17 -5 25 -10z m166
-4 c13 -14 19 -36 9 -36 -11 0 -44 34 -39 42 7 11 13 10 30 -6z m335 -9 c-10
-9 -11 -8 -5 6 3 10 9 15 12 12 3 -3 0 -11 -7 -18z m4518 0 c0 -9 -2 -8 -6 1
-2 6 -10 9 -15 6 -7 -4 -8 -2 -4 5 9 13 26 5 25 -12z m-4716 -5 c-81 -6 -43
-22 52 -22 78 0 95 3 95 15 0 8 7 15 15 15 19 0 19 -5 -2 -25 -14 -14 -14 -18
-2 -26 11 -7 11 -9 -3 -9 -9 0 -18 4 -20 9 -1 5 -46 11 -100 13 -53 1 -94 0
-91 -4 2 -5 46 -9 96 -10 l92 -2 -82 -3 c-48 -2 -83 -8 -83 -14 0 -6 -4 -8 -9
-5 -5 4 -11 2 -13 -2 -1 -5 -16 -3 -33 5 l-30 13 33 -6 c20 -3 32 -2 32 5 0 6
-6 11 -14 11 -9 0 -12 7 -9 20 4 13 17 21 42 26 20 3 41 7 46 8 6 2 15 1 20
-3 6 -3 -9 -7 -32 -9z m267 8 c0 -5 -4 -10 -10 -10 -5 0 -10 5 -10 10 0 6 5
10 10 10 6 0 10 -4 10 -10z m220 0 c0 -5 3 -9 8 -9 20 3 52 -2 52 -8 0 -5 -16
-16 -36 -26 -19 -9 -33 -13 -30 -8 3 5 -1 12 -10 15 -20 8 -33 -2 -17 -12 9
-5 6 -12 -8 -21 -12 -7 -18 -8 -15 -2 4 5 1 13 -5 17 -19 12 -29 -19 -11 -33
16 -12 15 -12 -2 -6 -13 4 -17 3 -13 -4 5 -7 0 -9 -13 -6 -11 3 -23 9 -26 14
-9 15 -24 10 -24 -7 0 -8 -5 -12 -10 -9 -13 8 -5 22 22 36 15 8 19 8 14 0 -4
-6 -5 -11 -2 -11 2 0 12 -3 21 -6 17 -7 18 15 0 28 -6 4 -2 8 8 8 11 0 15 4
11 12 -4 6 -3 8 3 5 6 -4 23 5 37 18 28 26 46 32 46 15z m5712 -30 c-9 -14 -9
-20 -1 -20 8 0 7 -5 -1 -16 -11 -13 -15 -13 -27 -1 -11 11 -11 18 3 46 12 24
19 30 27 22 9 -9 8 -17 -1 -31z m-6079 23 c-13 -2 -35 -2 -50 0 -16 2 -5 4 22
4 28 0 40 -2 28 -4z m4817 -27 c0 -12 3 -26 8 -30 7 -7 8 -11 11 -37 0 -5 6
-7 11 -4 6 3 10 2 10 -4 0 -5 3 -18 6 -28 6 -16 5 -16 -10 2 -16 18 -17 19
-12 1 4 -10 1 -25 -5 -33 -9 -11 -9 -17 0 -26 10 -9 11 -8 6 4 -9 23 22 33 34
11 8 -14 10 -14 11 -2 0 13 1 13 10 0 7 -11 10 -12 10 -2 0 10 3 10 15 -2 8
-8 15 -19 15 -24 0 -6 6 -13 13 -16 6 -3 2 -3 -10 -1 -12 3 -24 1 -28 -5 -6
-10 13 -15 50 -12 16 2 17 0 5 -8 -14 -9 -7 -15 14 -11 25 5 37 -36 27 -91 -3
-20 -19 -5 -23 22 -3 16 -1 30 4 30 5 0 6 5 3 10 -4 6 -11 8 -16 5 -5 -4 -9
-2 -9 4 0 5 -10 13 -22 17 -13 3 -30 13 -40 21 -10 9 -18 10 -22 4 -4 -5 3
-12 14 -16 11 -4 20 -12 19 -18 -3 -26 2 -37 16 -37 10 0 12 6 8 18 -6 15 -5
16 11 2 17 -14 17 -15 -2 -23 -17 -8 -27 -4 -51 19 -18 17 -30 37 -29 50 1 13
6 20 10 18 4 -3 8 -3 8 0 0 2 3 12 7 21 6 16 5 16 -19 1 -23 -15 -27 -15 -41
-2 -8 8 -18 12 -22 8 -5 -4 -5 -1 -1 6 4 7 2 20 -6 29 -7 9 -8 14 -2 10 17
-10 34 35 22 57 -7 13 -17 16 -36 12 -19 -5 -23 -4 -13 3 12 8 12 10 0 14 -8
2 -2 3 12 1 26 -3 26 -2 19 31 -5 20 -4 33 1 29 5 -3 9 -15 9 -28z m270 8 c0
-21 -17 -17 -23 5 -3 14 -1 18 9 14 8 -3 14 -11 14 -19z m-5300 6 c0 -5 -4
-10 -10 -10 -5 0 -10 5 -10 10 0 6 5 10 10 10 6 0 10 -4 10 -10z m4991 -10
c10 0 19 -5 19 -11 0 -7 -9 -9 -24 -5 -15 4 -26 1 -29 -7 -2 -7 -8 -8 -13 -3
-5 5 -4 11 4 13 6 3 12 12 13 21 0 11 2 12 6 5 2 -7 13 -13 24 -13z m-4671
-14 c0 -11 -19 -15 -25 -6 -3 5 1 10 9 10 9 0 16 -2 16 -4z m4540 -32 c0 -2
-11 2 -25 8 -14 6 -25 15 -25 20 0 5 11 1 25 -8 14 -9 25 -18 25 -20z m451 14
c-4 -12 -14 -24 -22 -26 -11 -3 -11 -1 1 7 8 5 11 13 7 17 -4 5 -19 -4 -32
-19 -29 -30 -32 -42 -9 -33 12 4 14 1 9 -13 -6 -21 13 -61 29 -61 19 0 46 -34
46 -57 0 -12 4 -23 9 -23 10 0 2 50 -10 65 -4 6 -4 17 1 25 8 12 10 11 10 -6
0 -22 22 -48 33 -38 3 3 -2 -10 -11 -30 -18 -40 -36 -35 -45 12 -6 27 -52 60
-65 47 -4 -3 3 -8 14 -11 11 -3 25 -14 32 -25 17 -26 7 -24 -27 7 -19 17 -27
32 -24 45 3 10 1 19 -5 19 -6 0 -13 -8 -15 -17 -4 -16 -5 -16 -6 -1 0 9 4 20
10 24 7 4 0 17 -18 37 -20 21 -23 28 -10 24 11 -4 26 1 39 13 12 11 18 21 12
21 -5 1 5 5 21 9 17 4 31 8 32 9 1 0 -1 -9 -6 -21z m22 -18 c-6 -23 15 -27 36
-7 7 6 11 8 9 2 -3 -12 33 -55 47 -55 5 0 3 5 -5 11 -12 9 -12 10 3 5 10 -3
24 -6 30 -7 17 -1 -24 -17 -45 -18 -10 -1 -18 4 -18 9 0 20 -24 36 -47 32 -13
-2 -23 -12 -23 -21 0 -10 -3 -12 -8 -5 -4 6 -14 14 -22 17 -10 4 -8 6 8 6 14
1 22 7 22 19 0 16 8 32 16 32 1 0 0 -9 -3 -20z m-5223 6 c0 -2 -9 -6 -20 -9
-11 -3 -18 -1 -14 4 5 9 34 13 34 5z m127 -2 c-3 -3 -12 -4 -19 -1 -8 3 -5 6
6 6 11 1 17 -2 13 -5z m4990 0 c-3 -3 -12 -4 -19 -1 -8 3 -5 6 6 6 11 1 17 -2
13 -5z m-262 -14 c-3 -5 -1 -10 4 -10 6 0 11 -5 11 -11 0 -8 -5 -8 -15 1 -13
11 -12 30 1 30 3 0 2 -4 -1 -10z m-5177 -7 c-10 -2 -26 -2 -35 0 -10 3 -2 5
17 5 19 0 27 -2 18 -5z m600 -31 c-11 -8 -30 -11 -43 -8 -13 3 -27 2 -30 -4
-3 -5 0 -10 7 -10 10 0 9 -3 -1 -9 -19 -12 -57 7 -43 21 5 5 16 11 23 12 63
14 79 20 79 28 0 5 6 3 14 -4 11 -11 10 -15 -6 -26z m4644 26 c7 -19 -2 -38
-18 -38 -8 0 -14 8 -14 18 0 30 23 44 32 20z m-5212 -8 c-11 -7 -1 -10 35 -11
33 -1 40 -3 21 -6 -16 -3 -45 -1 -65 2 -31 6 -33 9 -16 15 28 12 43 12 25 0z
m640 -10 c-20 -13 -33 -13 -25 0 3 6 14 10 23 10 15 0 15 -2 2 -10z m4460 -45
c0 -4 -9 4 -20 18 -11 14 -20 28 -20 32 0 4 9 -4 20 -18 11 -14 20 -28 20 -32z
m-5170 35 c-33 -11 -50 -12 -50 -2 0 4 17 8 38 9 32 1 33 0 12 -7z m520 5 c0
-3 -10 -10 -22 -15 -22 -8 -22 -9 10 -21 33 -14 43 -29 17 -29 -8 0 -15 4 -15
9 0 5 -15 12 -32 16 -18 4 -42 9 -53 11 -16 4 -17 3 -5 -5 8 -6 25 -11 36 -11
12 0 24 -6 27 -13 6 -17 -43 -10 -56 7 -6 8 -10 7 -14 -1 -6 -15 -53 -18 -53
-3 0 6 10 10 22 10 12 0 19 3 16 6 -9 9 -148 -7 -148 -17 0 -5 9 -9 21 -9 11
0 17 -4 14 -10 -3 -5 3 -10 15 -10 12 0 18 -4 15 -10 -4 -7 -19 -3 -39 10 -37
23 -46 24 -46 10 0 -5 8 -11 18 -11 16 -1 16 -2 0 -6 -10 -2 -25 3 -34 11 -17
18 -34 21 -34 7 0 -5 8 -12 18 -15 9 -2 -1 -2 -23 1 -43 6 -72 18 -93 40 -21
21 3 15 28 -7 27 -24 63 -23 68 1 4 21 -26 33 -44 18 -12 -10 -13 -9 -8 5 3 9
12 16 18 16 24 0 66 -25 66 -40 0 -10 3 -11 8 -4 13 20 47 32 75 27 15 -3 27
-1 27 5 0 5 11 12 25 14 13 3 22 2 20 -2 -3 -4 7 -7 20 -7 14 0 28 3 31 8 3 5
12 9 20 9 8 0 12 -4 9 -10 -10 -16 21 -12 35 5 12 14 40 21 40 10z m5110 -10
c0 -2 -9 -3 -19 -2 -11 0 -18 5 -15 9 4 6 34 0 34 -7z m813 0 c-3 -9 -8 -14
-10 -11 -3 3 -2 9 2 15 9 16 15 13 8 -4z m-6378 -4 c9 -15 -12 -22 -42 -15
-25 7 -25 8 -8 15 28 11 43 11 50 0z m162 -8 c0 -7 -4 -13 -9 -13 -4 0 -8 4
-8 9 0 5 -8 12 -17 14 -10 3 -7 4 8 4 14 -1 26 -7 26 -14z m5327 1 c4 -10 13
-13 28 -9 21 5 21 5 4 -6 -20 -12 -66 2 -66 21 0 16 27 12 34 -6z m-5444 -4
c0 -5 -4 -10 -9 -10 -6 0 -13 5 -16 10 -3 6 1 10 9 10 9 0 16 -4 16 -10z
m5245 0 c3 -5 1 -10 -4 -10 -6 0 -11 5 -11 10 0 6 2 10 4 10 3 0 8 -4 11 -10z
m364 -7 c-12 -15 -12 -16 4 -10 11 4 17 2 17 -8 0 -18 -16 -19 -34 -3 -11 11
-11 15 3 25 22 17 26 16 10 -4z m695 -4 c2 -2 -3 -11 -12 -19 -14 -13 -15 -12
-9 5 7 19 6 19 -7 2 -14 -18 -14 -18 -19 0 -4 15 -5 14 -6 -4 0 -12 -7 -24
-13 -27 -7 -3 -2 -3 12 0 20 5 23 4 13 -6 -17 -18 -44 -5 -36 17 11 32 23 41
49 38 13 -1 26 -4 28 -6z m-6254 -14 c0 -8 -4 -15 -10 -15 -5 0 -10 7 -10 15
0 8 5 15 10 15 6 0 10 -7 10 -15z m5477 -10 c-4 -8 -11 -15 -17 -15 -7 0 -7 6
0 21 13 23 26 19 17 -6z m31 11 c-7 -8 -15 -12 -17 -11 -5 6 10 25 20 25 5 0
4 -6 -3 -14z m-5608 -6 c0 -5 -7 -10 -15 -10 -8 0 -15 5 -15 10 0 6 7 10 15
10 8 0 15 -4 15 -10z m35 -20 c3 -5 -1 -10 -9 -10 -9 0 -16 5 -16 10 0 6 4 10
9 10 6 0 13 -4 16 -10z m5659 -15 c-4 -23 -2 -25 21 -21 13 3 30 8 36 12 8 5
9 3 4 -6 -6 -10 -4 -12 10 -6 15 5 16 4 6 -8 -9 -11 -9 -15 1 -20 7 -3 -1 -3
-19 0 -23 4 -36 0 -51 -16 -24 -26 -18 -70 9 -70 10 0 21 -4 24 -10 10 -16
-23 -12 -50 6 -22 15 -26 15 -41 0 -15 -16 -18 -16 -35 0 -11 9 -19 24 -18 33
0 11 3 9 9 -6 6 -15 15 -20 29 -16 23 6 29 23 7 23 -9 0 -12 8 -8 25 3 19 10
25 26 23 17 -2 22 3 24 27 3 34 9 55 16 55 3 0 3 -11 0 -25z m-5377 9 c-3 -3
-12 -4 -19 -1 -8 3 -5 6 6 6 11 1 17 -2 13 -5z m5342 -3 c17 -11 6 -31 -17
-30 -14 0 -13 2 3 8 19 8 19 8 0 19 -11 6 -15 11 -10 12 6 0 16 -4 24 -9z m76
-1 c3 -5 2 -10 -4 -10 -5 0 -13 5 -16 10 -3 6 -2 10 4 10 5 0 13 -4 16 -10z
m529 -5 c4 -12 -2 -14 -26 -12 -38 3 -49 -19 -16 -32 12 -6 17 -10 10 -10 -18
-1 -51 -29 -76 -65 -12 -18 -13 -18 -34 4 -11 12 -26 20 -33 18 -9 -3 -9 -8 3
-18 13 -12 13 -16 -1 -32 -8 -10 -23 -18 -31 -18 -9 0 -21 -5 -28 -12 -8 -8
-12 -9 -12 -1 0 6 6 13 13 16 6 2 9 7 6 11 -3 3 -17 3 -29 -2 -16 -6 -19 -11
-12 -16 7 -4 9 -12 6 -18 -4 -7 -9 -6 -14 2 -4 7 -26 13 -49 14 -42 2 -64 -10
-42 -24 7 -4 -17 -7 -53 -7 -47 0 -67 5 -71 15 -4 10 3 13 28 11 69 -4 87 0
87 22 0 19 5 21 50 17 43 -2 50 0 50 15 0 10 -10 22 -22 27 -20 9 -20 10 -3 7
11 -1 24 -12 30 -25 12 -26 25 -29 25 -4 0 13 3 11 13 -7 6 -13 19 -25 28 -27
13 -1 15 6 12 38 -5 38 -4 40 18 33 13 -4 31 -15 40 -26 14 -16 18 -16 23 -4
3 8 1 15 -5 15 -6 0 -7 5 -4 10 4 6 12 8 18 4 7 -3 3 2 -7 10 -19 15 -12 22
17 17 5 -1 6 3 2 8 -4 7 -15 7 -30 1 -30 -12 -33 -5 -4 10 15 9 24 8 35 -1 8
-6 17 -9 21 -5 3 3 1 6 -5 6 -20 0 -13 15 16 32 34 22 48 22 56 3z m-14 -25
c13 -8 13 -10 -2 -10 -9 0 -20 5 -23 10 -8 13 5 13 25 0z m-663 -22 c-3 -8 -6
-5 -6 6 -1 11 2 17 5 13 3 -3 4 -12 1 -19z m34 -2 c-6 -7 -8 -16 -4 -19 3 -4
1 -7 -6 -7 -8 0 -11 6 -7 16 3 9 6 20 6 25 0 6 5 7 10 4 8 -5 8 -11 1 -19z
m344 -16 c4 -7 -3 -8 -22 -4 -38 9 -42 14 -10 14 14 0 29 -5 32 -10z m50 -13
c16 -5 15 -5 -4 -4 -14 1 -26 9 -28 17 -3 10 -2 11 4 4 4 -7 17 -14 28 -17z
m105 13 c11 -7 5 -8 -20 -4 -43 8 -51 14 -19 14 13 0 31 -5 39 -10z m-271 -16
c2 -2 -6 -4 -18 -4 -12 0 -20 -4 -17 -8 2 -4 -5 -8 -17 -9 -12 0 -16 1 -9 4
10 4 8 9 -5 19 -16 13 -14 14 22 8 22 -4 42 -8 44 -10z m56 6 c13 -6 15 -9 5
-9 -8 0 -22 4 -30 9 -18 12 -2 12 25 0z m-325 -10 c0 -5 -2 -10 -4 -10 -3 0
-8 5 -11 10 -3 6 -1 10 4 10 6 0 11 -4 11 -10z m-125 -43 c6 0 15 -5 20 -9 6
-4 21 -16 34 -26 19 -14 21 -21 11 -27 -8 -5 -11 -4 -6 3 3 6 -2 16 -13 21
-28 15 -38 14 -16 -2 17 -13 17 -14 -5 -20 -12 -3 -19 -10 -15 -16 8 -15 -64
28 -92 54 -16 14 -20 24 -13 35 9 13 10 13 11 0 1 -8 1 -18 0 -22 -1 -13 39
-19 56 -9 10 6 13 11 7 11 -7 0 -9 11 -6 28 6 26 6 26 11 4 3 -13 11 -24 16
-25z m455 33 c19 -6 14 -8 -22 -7 -26 1 -42 5 -35 9 14 9 23 9 57 -2z m154
-26 c3 -8 2 -12 -4 -9 -6 3 -10 10 -10 16 0 14 7 11 14 -7z m207 -7 c-10 -9
-11 -8 -5 6 3 10 9 15 12 12 3 -3 0 -11 -7 -18z m-940 -77 c22 0 33 -16 18
-26 -8 -4 -9 -3 -5 4 4 8 0 12 -10 12 -19 0 -94 67 -94 84 0 6 17 -9 37 -32
20 -23 44 -42 54 -42z m439 70 c0 -5 -2 -10 -4 -10 -3 0 -8 5 -11 10 -3 6 -1
10 4 10 6 0 11 -4 11 -10z m-26 -26 c19 3 25 2 16 -3 -8 -4 -31 -11 -50 -14
-19 -3 -29 -3 -22 0 10 4 9 9 -5 20 -16 13 -16 13 6 3 13 -7 38 -9 55 -6z
m446 -18 c0 -2 -7 -7 -16 -10 -8 -3 -12 -2 -9 4 6 10 25 14 25 6z m-594 -38
c4 -6 3 -8 -3 -5 -6 4 -16 1 -22 -6 -8 -11 -5 -14 18 -14 22 0 28 4 24 16 -4
14 -3 14 5 1 6 -8 8 -18 6 -22 -3 -4 2 -8 10 -8 8 0 18 5 22 11 5 8 10 6 16
-6 7 -12 6 -22 -6 -33 -10 -11 -16 -12 -16 -4 0 7 -6 12 -14 12 -8 0 -16 5
-18 11 -6 17 -68 19 -68 2 0 -9 -5 -8 -18 5 -11 9 -17 21 -14 26 3 5 -2 6 -12
3 -10 -4 -15 -3 -11 4 4 5 15 7 25 4 10 -3 21 -2 23 2 8 13 46 13 53 1z m514
-5 c-8 -3 -22 -11 -30 -17 -13 -10 -13 -9 -1 7 7 9 21 17 30 16 13 0 14 -1 1
-6z m-739 -26 c-10 -9 -11 -8 -5 6 3 10 9 15 12 12 3 -3 0 -11 -7 -18z m679 3
c0 -5 -5 -10 -11 -10 -5 0 -7 5 -4 10 3 6 8 10 11 10 2 0 4 -4 4 -10z m-645
-30 c-5 -8 -11 -8 -17 -2 -6 6 -7 16 -3 22 5 8 11 8 17 2 6 -6 7 -16 3 -22z
m335 5 c0 -9 -6 -12 -17 -9 -17 5 -17 5 0 -9 16 -13 16 -15 2 -21 -9 -3 -13
-2 -10 4 3 6 -1 13 -9 16 -12 5 -13 9 -3 20 16 18 37 18 37 -1z m225 -24 c-4
-20 -12 -31 -23 -30 -11 0 -12 2 -4 6 24 10 11 21 -21 18 -24 -2 -34 1 -34 11
0 8 4 14 9 14 4 0 8 -4 8 -10 0 -5 7 -10 16 -10 8 0 12 5 8 11 -4 8 0 8 15 0
18 -10 21 -9 21 10 0 12 3 20 6 16 3 -3 3 -19 -1 -36z m45 29 c0 -5 -4 -10
-10 -10 -5 0 -10 5 -10 10 0 6 5 10 10 10 6 0 10 -4 10 -10z m-152 -19 c8 -4
-11 -7 -42 -6 -31 1 -56 -2 -56 -6 0 -5 17 -10 38 -11 l37 -1 -34 -4 c-34 -4
-58 8 -48 24 7 11 87 14 105 4z m-360 -44 c11 0 18 -5 16 -9 -3 -4 -21 -1 -41
7 -19 8 -38 15 -42 15 -3 0 1 5 9 10 11 7 18 5 27 -6 6 -8 20 -16 31 -17z m68
-29 c1 -12 -2 -13 -21 -4 -26 12 -24 26 2 22 9 -2 17 -10 19 -18z m21 -10 c-3
-8 -6 -5 -6 6 -1 11 2 17 5 13 3 -3 4 -12 1 -19z m397 10 c-3 -4 -14 -8 -25
-8 -11 0 -30 -6 -42 -14 -33 -22 -77 -28 -70 -10 3 8 15 14 28 14 12 0 37 6
54 13 36 15 63 18 55 5z m-354 -7 c0 -5 -7 -11 -14 -14 -10 -4 -13 -1 -9 9 6
15 23 19 23 5z"/>
<path d="M6505 5197 c-11 -7 -42 -35 -70 -62 -27 -28 -70 -60 -94 -72 l-44
-22 -44 30 c-24 16 -63 34 -86 40 -23 6 -62 15 -87 21 -111 28 -282 3 -430
-63 -83 -37 -107 -54 -222 -161 -57 -53 -132 -163 -122 -179 8 -13 24 -11 24
4 0 6 19 40 43 74 46 67 142 152 197 173 19 8 38 19 42 24 4 6 11 11 15 12 4
0 15 4 23 7 18 7 166 34 230 42 25 2 72 0 105 -5 70 -12 175 -49 175 -61 0 -5
19 -18 43 -30 109 -56 168 -103 218 -177 28 -43 52 -91 55 -114 4 -21 13 -45
20 -53 8 -7 22 -39 31 -70 42 -135 106 -69 72 75 -6 25 -12 59 -14 77 -5 54
-64 141 -163 242 l-64 64 32 25 c50 39 102 95 135 146 18 28 12 31 -20 13z"/>
<path d="M3120 5101 c0 -10 8 -27 18 -39 46 -54 52 -63 52 -72 0 -5 8 -25 17
-45 17 -35 16 -35 -10 -63 -15 -15 -27 -33 -27 -39 0 -6 -10 -21 -23 -34 -22
-23 -42 -66 -67 -142 -10 -32 -9 -42 5 -63 15 -24 16 -24 40 -7 13 10 25 22
25 26 1 34 126 236 146 237 5 0 23 14 40 31 16 17 51 42 78 56 26 13 58 35 70
47 26 28 102 55 176 63 30 3 62 9 70 13 19 10 97 5 130 -8 14 -5 30 -7 37 -5
15 5 90 -33 123 -63 14 -12 51 -46 82 -74 31 -28 66 -71 78 -95 11 -24 27 -46
34 -48 14 -5 20 -23 47 -120 10 -33 18 -47 29 -44 8 2 13 10 11 18 -28 110
-70 206 -106 244 -175 186 -174 185 -315 221 -88 23 -286 25 -330 3 -8 -4 -31
-9 -50 -12 -62 -8 -113 -36 -172 -93 -24 -23 -70 -45 -83 -40 -6 2 -31 38 -55
80 -43 76 -70 101 -70 67z"/>
<path d="M3942 4758 c-8 -8 -8 -17 -1 -30 18 -34 -15 -178 -41 -178 -5 0 -10
-6 -10 -14 0 -7 -16 -26 -36 -41 -49 -38 -156 -61 -264 -59 -168 4 -208 22
-230 105 -11 40 -10 60 6 165 3 23 2 44 -4 48 -22 14 -142 -111 -189 -197 -12
-22 -26 -43 -30 -46 -55 -41 -117 -320 -101 -458 10 -94 38 -194 64 -233 13
-19 24 -38 24 -42 0 -11 127 -138 138 -138 5 0 19 -9 32 -20 29 -25 41 -25 70
0 l23 20 -41 39 c-23 21 -42 43 -42 49 0 6 -6 17 -14 24 -16 17 -27 120 -15
139 9 16 11 14 34 -31 10 -19 34 -54 53 -77 35 -44 88 -68 175 -79 40 -5 174
22 183 37 3 5 14 9 25 9 18 0 37 18 146 138 18 19 35 48 38 64 4 15 10 28 13
28 24 -2 77 -40 90 -65 10 -16 23 -36 31 -44 16 -18 12 -150 -7 -171 -35 -41
-72 -94 -72 -102 0 -5 9 -7 20 -4 11 3 30 9 42 12 26 8 39 17 92 69 76 75 80
82 103 195 14 66 7 311 -11 405 -10 49 -21 92 -24 95 -4 3 -22 43 -40 90 -50
128 -83 189 -127 235 -53 55 -89 77 -103 63z"/>
<path d="M6248 4740 c-9 -6 -15 -17 -12 -25 16 -42 -62 -153 -147 -208 -40
-26 -158 -54 -214 -51 -220 12 -332 74 -340 187 -2 37 -17 49 -49 41 -66 -16
-161 -156 -189 -278 -6 -28 -16 -54 -21 -58 -7 -5 -5 -8 4 -8 10 0 11 -3 4 -8
-13 -7 -31 -124 -34 -207 -1 -55 20 -217 30 -225 3 -3 12 -19 19 -37 7 -17 21
-39 32 -49 10 -9 19 -23 19 -29 0 -29 158 -145 198 -145 32 0 35 17 7 36 -30
20 -66 75 -82 127 -9 31 -9 48 3 86 20 69 46 93 97 89 l42 -3 6 -53 c8 -64 29
-98 74 -119 19 -9 35 -20 35 -24 0 -10 35 -18 104 -26 58 -6 166 12 166 28 0
4 16 13 36 19 44 15 110 82 125 128 6 19 9 54 6 78 -5 44 -4 44 27 44 23 0 41
-9 65 -34 27 -28 34 -43 38 -92 6 -68 -21 -151 -64 -196 -14 -14 -23 -34 -21
-45 10 -51 101 -4 205 106 34 36 63 72 63 79 0 7 7 15 14 18 13 5 51 98 63
154 14 61 23 173 17 210 -4 25 -8 56 -9 70 -2 33 -16 92 -24 105 -3 6 -6 12
-6 15 -4 22 -29 90 -34 90 -3 0 -13 15 -20 33 -19 42 -96 163 -111 172 -20 12
-104 15 -122 5z"/>
<path d="M4727 3654 c-4 -4 -7 -23 -7 -41 0 -42 23 -41 28 1 4 29 -9 52 -21
40z"/>
<path d="M5161 3358 c-26 -46 -59 -76 -102 -95 -40 -17 -155 -9 -219 15 -45
16 -59 28 -78 61 -13 23 -28 41 -33 41 -5 0 -18 -15 -30 -32 -42 -63 -155
-114 -234 -106 -46 6 -135 60 -135 83 0 21 -22 65 -33 65 -16 0 3 -70 29 -110
54 -81 183 -98 304 -40 36 18 73 39 82 47 15 14 21 12 60 -20 99 -81 313 -75
386 11 30 36 53 89 46 107 -9 23 -17 18 -43 -27z"/>
<path d="M1640 5007 c0 -21 -9 -26 -61 -32 -99 -12 -139 -37 -79 -50 45 -10
126 4 154 26 19 15 41 19 100 19 42 0 76 3 76 8 -1 27 -23 36 -104 40 -73 4
-86 2 -86 -11z"/>
<path d="M1930 3971 c8 -5 40 -14 70 -21 30 -7 57 -16 60 -20 3 -4 18 -10 34
-14 26 -6 27 -6 12 9 -9 9 -46 25 -83 36 -72 20 -121 26 -93 10z"/>
<path d="M2275 2130 c-3 -5 1 -10 9 -10 9 0 16 5 16 10 0 6 -4 10 -9 10 -6 0
-13 -4 -16 -10z"/>
<path d="M2270 2095 c0 -8 5 -15 10 -15 6 0 10 7 10 15 0 8 -4 15 -10 15 -5 0
-10 -7 -10 -15z"/>
<path d="M1821 1324 c0 -11 3 -14 6 -6 3 7 2 16 -1 19 -3 4 -6 -2 -5 -13z"/>
<path d="M7801 4931 c-14 -4 -26 -12 -29 -19 -3 -9 15 -12 63 -12 66 0 125
-22 147 -54 4 -6 38 -11 75 -11 55 0 68 3 71 17 2 13 -10 21 -49 32 -29 9 -62
16 -74 16 -12 0 -30 9 -40 20 -15 16 -30 20 -79 19 -34 -1 -72 -4 -85 -8z"/>
<path d="M7523 3895 c-67 -15 -125 -41 -68 -31 65 11 180 37 184 42 8 8 -55 2
-116 -11z"/>
<path d="M7160 2085 c0 -8 5 -15 10 -15 6 0 10 7 10 15 0 8 -4 15 -10 15 -5 0
-10 -7 -10 -15z"/>
<path d="M7175 2010 c-3 -5 -1 -10 4 -10 6 0 11 5 11 10 0 6 -2 10 -4 10 -3 0
-8 -4 -11 -10z"/>
<path d="M1261 4044 c0 -11 3 -14 6 -6 3 7 2 16 -1 19 -3 4 -6 -2 -5 -13z"/>
<path d="M1252 3995 c0 -16 2 -22 5 -12 2 9 2 23 0 30 -3 6 -5 -1 -5 -18z"/>
<path d="M1242 3935 c0 -16 2 -22 5 -12 2 9 2 23 0 30 -3 6 -5 -1 -5 -18z"/>
<path d="M1232 3880 c0 -14 2 -19 5 -12 2 6 2 18 0 25 -3 6 -5 1 -5 -13z"/>
<path d="M1382 3825 c0 -16 2 -22 5 -12 2 9 2 23 0 30 -3 6 -5 -1 -5 -18z"/>
<path d="M1396 3720 c5 -41 9 -134 9 -207 0 -80 4 -128 9 -123 18 18 18 116 1
255 -9 77 -19 142 -22 145 -3 3 -2 -29 3 -70z"/>
<path d="M1232 3735 c0 -16 2 -22 5 -12 2 9 2 23 0 30 -3 6 -5 -1 -5 -18z"/>
<path d="M1242 3610 c0 -14 2 -19 5 -12 2 6 2 18 0 25 -3 6 -5 1 -5 -13z"/>
<path d="M1251 3494 c0 -11 3 -14 6 -6 3 7 2 16 -1 19 -3 4 -6 -2 -5 -13z"/>
<path d="M1252 3435 c0 -16 2 -22 5 -12 2 9 2 23 0 30 -3 6 -5 -1 -5 -18z"/>
<path d="M1633 2985 c31 -271 32 -289 9 -343 -12 -28 -22 -62 -22 -76 0 -14
-4 -26 -10 -26 -5 0 -10 -9 -10 -20 0 -11 4 -20 10 -20 8 0 16 22 36 103 3 15
10 30 15 33 19 12 -5 372 -26 392 -4 4 -5 -15 -2 -43z"/>
<path d="M1592 2715 c-1 -22 -9 -67 -17 -100 -17 -72 -19 -108 -5 -85 14 22
32 143 27 186 l-4 39 -1 -40z"/>
<path d="M1652 2166 c-2 -100 -24 -224 -41 -236 -4 -3 -13 -21 -20 -40 l-11
-35 25 29 c14 16 25 37 25 47 0 10 7 36 15 57 12 29 15 68 12 163 l-3 124 -2
-109z"/>
<path d="M1554 1875 c-14 -25 -24 -48 -22 -51 3 -2 17 18 32 46 34 62 26 66
-10 5z"/>
<path d="M1417 1666 c-4 -10 -7 -25 -6 -34 0 -11 4 -9 10 7 5 13 8 29 6 35 -2
5 -6 2 -10 -8z"/>
<path d="M1376 1530 c-22 -61 -40 -93 -77 -133 -26 -28 -46 -54 -43 -56 5 -5
54 48 88 94 23 31 72 162 64 170 -3 3 -17 -31 -32 -75z"/>
<path d="M8277 3929 c3 -24 7 -46 9 -48 9 -10 3 65 -5 78 -6 10 -8 -1 -4 -30z"/>
<path d="M8292 3840 c0 -19 2 -27 5 -17 2 9 2 25 0 35 -3 9 -5 1 -5 -18z"/>
<path d="M8302 3770 c0 -19 2 -27 5 -17 2 9 2 25 0 35 -3 9 -5 1 -5 -18z"/>
<path d="M8152 3750 c0 -14 2 -19 5 -12 2 6 2 18 0 25 -3 6 -5 1 -5 -13z"/>
<path d="M8131 3659 c-35 -160 -50 -314 -35 -353 14 -35 19 -12 16 72 -2 55 4
131 17 207 20 123 22 167 2 74z"/>
<path d="M8292 3630 c0 -14 2 -19 5 -12 2 6 2 18 0 25 -3 6 -5 1 -5 -13z"/>
<path d="M8272 3470 c0 -14 2 -19 5 -12 2 6 2 18 0 25 -3 6 -5 1 -5 -13z"/>
<path d="M8251 3284 c0 -11 3 -14 6 -6 3 7 2 16 -1 19 -3 4 -6 -2 -5 -13z"/>
<path d="M7837 2828 c-30 -197 -30 -226 -8 -312 12 -44 24 -82 27 -85 9 -9 -7
121 -17 141 -19 35 -8 161 27 336 4 18 2 32 -3 32 -5 0 -17 -51 -26 -112z"/>
<path d="M7870 2605 c0 -37 4 -65 10 -65 6 0 10 -12 11 -27 0 -16 5 -37 10
-48 9 -20 9 -4 -7 143 -9 81 -24 80 -24 -3z"/>
<path d="M7806 2198 c-3 -13 -5 -39 -5 -58 1 -27 3 -22 9 20 9 58 7 77 -4 38z"/>
<path d="M7791 2022 c-1 -59 5 -100 19 -145 30 -91 30 -90 35 -86 2 3 -5 34
-16 69 -11 36 -24 106 -28 155 l-8 90 -2 -83z"/>
<path d="M7853 1826 c4 -10 7 -21 7 -25 0 -4 11 -21 25 -37 l25 -29 -12 35
c-7 19 -22 43 -32 54 -17 17 -19 17 -13 2z"/>
<path d="M7991 1590 c0 -8 4 -22 9 -30 12 -18 12 -2 0 25 -6 13 -9 15 -9 5z"/>
<path d="M8016 1495 c3 -22 10 -41 15 -43 5 -2 9 -11 9 -19 0 -25 58 -135 90
-172 37 -42 39 -32 3 15 -37 50 -82 143 -89 187 -4 20 -10 37 -15 37 -4 0 -10
8 -13 18 -3 9 -3 -1 0 -23z"/>
<path d="M6365 2720 c-3 -5 -1 -10 4 -10 6 0 11 5 11 10 0 6 -2 10 -4 10 -3 0
-8 -4 -11 -10z"/>
<path d="M2570 2394 c0 -9 5 -14 12 -12 18 6 21 28 4 28 -9 0 -16 -7 -16 -16z"/>
<path d="M2575 2360 c3 -5 8 -10 11 -10 2 0 4 5 4 10 0 6 -5 10 -11 10 -5 0
-7 -4 -4 -10z"/>
<path d="M6436 2608 l-17 -33 20 24 c18 20 27 41 18 41 -1 0 -11 -15 -21 -32z"/>
<path d="M6095 2640 c3 -5 13 -10 21 -10 8 0 12 5 9 10 -3 6 -13 10 -21 10 -8
0 -12 -4 -9 -10z"/>
<path d="M6878 2363 c7 -3 16 -2 19 1 4 3 -2 6 -13 5 -11 0 -14 -3 -6 -6z"/>
<path d="M6885 2340 c-3 -5 -1 -10 4 -10 6 0 11 5 11 10 0 6 -2 10 -4 10 -3 0
-8 -4 -11 -10z"/>
<path d="M6331 2504 l-11 -26 30 22 c35 25 35 25 11 27 -11 1 -23 -9 -30 -23z"/>
<path d="M3511 2404 c-12 -19 -17 -33 -11 -29 5 3 15 -6 23 -21 13 -25 14 -23
13 30 -1 31 -2 56 -3 56 0 0 -10 -16 -22 -36z"/>
<path d="M2667 2504 c-8 -8 1 -24 14 -24 5 0 9 7 9 15 0 15 -12 20 -23 9z"/>
<path d="M5520 2460 c0 -5 5 -10 10 -10 6 0 10 5 10 10 0 6 -4 10 -10 10 -5 0
-10 -4 -10 -10z"/>
<path d="M6203 2419 c-41 -12 -43 -29 -4 -29 20 0 30 6 34 20 3 11 4 20 4 19
-1 0 -17 -5 -34 -10z"/>
<path d="M5418 2413 c7 -3 16 -2 19 1 4 3 -2 6 -13 5 -11 0 -14 -3 -6 -6z"/>
<path d="M5230 2300 c-8 -5 -12 -11 -9 -14 2 -3 11 -1 19 4 8 5 12 11 9 14 -2
3 -11 1 -19 -4z"/>
<path d="M4300 2251 c0 -12 6 -21 15 -21 8 0 15 4 15 9 0 5 -7 14 -15 21 -13
10 -15 9 -15 -9z"/>
<path d="M3624 2218 c3 -18 10 -36 15 -41 6 -6 8 -2 6 9 -2 11 -4 29 -4 42 -1
12 -6 22 -12 22 -8 0 -9 -11 -5 -32z"/>
<path d="M5800 2084 c0 -8 5 -12 10 -9 6 3 10 10 10 16 0 5 -4 9 -10 9 -5 0
-10 -7 -10 -16z"/>
<path d="M5738 2033 c7 -3 16 -2 19 1 4 3 -2 6 -13 5 -11 0 -14 -3 -6 -6z"/>
<path d="M4995 1900 c-3 -5 -1 -10 4 -10 6 0 11 5 11 10 0 6 -2 10 -4 10 -3 0
-8 -4 -11 -10z"/>
<path d="M4461 1935 c0 -11 6 -33 14 -50 17 -39 18 -11 0 35 -9 23 -14 28 -14
15z"/>
<path d="M3920 1923 c0 -1 8 -7 18 -12 14 -7 19 -6 19 4 0 7 -9 13 -19 12 -10
-1 -18 -2 -18 -4z"/>
<path d="M5157 1733 c-11 -11 -8 -23 6 -23 8 0 14 7 14 15 0 16 -9 19 -20 8z"/>
<path d="M4541 1784 c0 -11 3 -14 6 -6 3 7 2 16 -1 19 -3 4 -6 -2 -5 -13z"/>
<path d="M4539 1685 c-1 -3 -2 -8 -3 -12 -1 -5 -4 -13 -8 -18 -4 -7 4 -11 20
-12 20 0 21 1 7 4 l-20 6 20 8 c18 7 18 8 2 8 -10 1 -15 6 -12 11 3 6 4 10 1
10 -3 0 -7 -2 -7 -5z"/>
<path d="M4315 1734 c9 -9 19 -13 23 -10 3 4 0 11 -8 16 -24 15 -33 11 -15 -6z"/>
<path d="M2840 1510 c0 -8 5 -22 10 -30 9 -13 10 -13 10 0 0 8 -5 22 -10 30
-9 13 -10 13 -10 0z"/>
<path d="M2820 1470 c0 -11 5 -20 10 -20 6 0 10 9 10 20 0 11 -4 20 -10 20 -5
0 -10 -9 -10 -20z"/>
<path d="M4988 1653 c7 -3 16 -2 19 1 4 3 -2 6 -13 5 -11 0 -14 -3 -6 -6z"/>
<path d="M2720 1575 c-10 -12 -10 -15 4 -15 9 0 16 7 16 15 0 8 -2 15 -4 15
-2 0 -9 -7 -16 -15z"/>
<path d="M2667 1434 c-8 -8 1 -24 14 -24 5 0 9 7 9 15 0 15 -12 20 -23 9z"/>
<path d="M2630 1310 c0 -5 5 -10 11 -10 5 0 7 5 4 10 -3 6 -8 10 -11 10 -2 0
-4 -4 -4 -10z"/>
<path d="M6735 1503 c-3 -38 -8 -80 -10 -95 -3 -16 0 -28 5 -28 6 0 10 14 10
32 0 38 10 32 15 -11 3 -22 0 -31 -10 -31 -8 0 -15 -6 -15 -14 0 -7 10 -13 23
-13 17 0 22 5 23 28 1 17 -3 26 -9 22 -6 -4 -8 0 -5 8 3 8 0 26 -8 40 -9 16
-11 41 -7 77 3 28 3 52 0 52 -3 0 -8 -30 -12 -67z"/>
<path d="M6560 1326 c0 -8 5 -18 10 -21 6 -3 10 3 10 14 0 12 -4 21 -10 21 -5
0 -10 -6 -10 -14z"/>
<path d="M6650 1061 c0 -5 6 -12 13 -15 10 -5 10 -7 0 -12 -23 -10 -14 -34 12
-34 16 0 25 6 25 15 0 8 -4 15 -10 15 -5 0 -10 9 -10 20 0 11 -7 20 -15 20 -8
0 -15 -4 -15 -9z"/>
<path d="M6717 923 c-2 -5 4 -21 14 -38 11 -16 19 -25 19 -20 0 6 -7 20 -15
31 -8 12 -11 24 -8 28 3 3 4 6 0 6 -3 0 -8 -3 -10 -7z"/>
<path d="M2516 1125 c-8 -22 -8 -25 5 -25 5 0 7 5 3 12 -5 8 -2 9 10 5 11 -5
16 -3 14 5 -7 19 -25 20 -32 3z"/>
<path d="M2630 1141 c0 -5 5 -13 10 -16 6 -3 10 -2 10 4 0 5 -4 13 -10 16 -5
3 -10 2 -10 -4z"/>
<path d="M2630 1082 c0 -7 -3 -11 -7 -11 -20 3 -33 -2 -33 -12 0 -8 5 -8 15 1
12 10 15 10 15 -1 1 -9 4 -8 11 4 6 10 8 21 5 24 -3 4 -6 1 -6 -5z"/>
<path d="M1483 811 c1 -11 7 -17 17 -16 8 2 17 4 19 4 7 2 -21 31 -30 31 -4 0
-7 -8 -6 -19z"/>
<path d="M2380 878 c0 -10 2 -18 4 -18 2 0 11 -3 20 -6 11 -4 16 -1 15 12 0
12 -3 14 -6 6 -4 -10 -8 -9 -19 5 -13 17 -13 17 -14 1z"/>
<path d="M6856 733 c-6 -14 -5 -15 5 -6 7 7 10 15 7 18 -3 3 -9 -2 -12 -12z"/>
<path d="M6887 701 c-3 -13 -1 -18 9 -14 7 2 10 11 7 19 -7 19 -10 18 -16 -5z"/>
<path d="M6936 685 c-9 -26 -7 -32 5 -12 6 10 9 21 6 23 -2 3 -7 -2 -11 -11z"/>
<path d="M6915 620 c3 -5 8 -10 11 -10 2 0 4 5 4 10 0 6 -5 10 -11 10 -5 0 -7
-4 -4 -10z"/>
<path d="M2180 770 c-23 -7 -23 -8 -3 -9 12 -1 25 4 28 9 3 6 5 10 3 9 -2 -1
-14 -5 -28 -9z"/>
<path d="M2115 751 c-3 -5 -2 -12 3 -15 5 -3 9 1 9 9 0 17 -3 19 -12 6z"/>
<path d="M7820 621 c-8 -6 -19 -7 -25 -4 -5 3 -4 0 3 -8 10 -11 15 -10 29 4
19 19 16 22 -7 8z"/>
<path d="M7054 515 c-24 -18 -7 -19 26 0 16 9 19 14 9 15 -8 0 -24 -7 -35 -15z"/>
<path d="M7075 500 c-3 -5 1 -10 9 -10 9 0 16 5 16 10 0 6 -4 10 -9 10 -6 0
-13 -4 -16 -10z"/>
<path d="M7169 443 c-13 -16 -12 -17 4 -4 9 7 17 15 17 17 0 8 -8 3 -21 -13z"/>
<path d="M7280 410 c0 -5 5 -10 10 -10 6 0 10 5 10 10 0 6 -4 10 -10 10 -5 0
-10 -4 -10 -10z"/>
</g>
</svg>
